<svg xmlns="http://www.w3.org/2000/svg" xmlns:xlink="http://www.w3.org/1999/xlink" width="32" height="32" viewBox="0 0 32 32">
  <defs>
    <clipPath id="clip-path">
      <circle id="Africa" cx="16" cy="16" r="16" transform="translate(234 1684)" fill="#fff"/>
    </clipPath>
    <clipPath id="clip-path-2">
      <rect id="Rectangle_145" data-name="Rectangle 145" width="48" height="32"/>
    </clipPath>
    <clipPath id="clip-path-3">
      <path id="Path_5605" data-name="Path 5605" d="M15.36,0l24,16-24,16" transform="translate(-15.36)"/>
    </clipPath>
  </defs>
  <g id="Africa-2" data-name="Africa" transform="translate(-234 -1684)" clip-path="url(#clip-path)">
    <g id="Group_1" transform="translate(210.64 1684)">
      <g id="Group_2" transform="translate(15.36)" clip-path="url(#clip-path-2)">
        <path id="_x36_" d="M15.36,0V32h48V0Z" transform="translate(-15.36)" fill="#002395"/>
        <path id="_x35_" d="M15.36,0V16h48V0Z" transform="translate(-15.36)" fill="#de3831"/>
        <path id="_x34_" d="M15.36,0l24,16-24,16M38.72,16H63.36" transform="translate(-15.36)" stroke="#fff" stroke-width="7.111"/>
        <g id="Group_3" transform="translate(0)">
          <g id="Group_722" data-name="Group 722" clip-path="url(#clip-path-3)">
            <path id="_x33_" d="M15.36,0l24,16-24,16" transform="translate(-15.36)" stroke="#ffb612" stroke-width="6.4"/>
          </g>
        </g>
        <path id="_x31__1_" d="M15.36,0l24,16-24,16m24-16h24" transform="translate(-15.36)" fill="none" stroke="#007a4d" stroke-width="4.267"/>
      </g>
    </g>
  </g>
</svg>
