<svg xmlns="http://www.w3.org/2000/svg" xmlns:xlink="http://www.w3.org/1999/xlink" width="32" height="32" viewBox="0 0 32 32">
  <defs>
    <clipPath id="clip-path">
      <circle id="Ellipse_128" data-name="Ellipse 128" cx="16" cy="16" r="16" transform="translate(2294 619)" fill="#fff" stroke="#707070" stroke-width="1"/>
    </clipPath>
  </defs>
  <g id="Albania" transform="translate(-2294 -619)" clip-path="url(#clip-path)">
    <g id="Flag_of_Albania" transform="translate(2285.806 618.36)">
      <path id="Path_424" data-name="Path 424" d="M48.5,0H0V34.64H48.5Z" fill="red"/>
      <path id="Path_425" data-name="Path 425" d="M20.426,23.822a1.927,1.927,0,0,1-.668-1.313c.027-.384.291-.607.461-.138.241.517.757,1.373,1.468.871.311-.228.306-.564-.12-.525-.526-.036-.849-.325-1.085-1.071-.043-.41.128-.4.366-.136a1.456,1.456,0,0,0,1.586.6c.373-.156.478-.479-.085-.558a1.865,1.865,0,0,1-1.4-.866c-.238-.292.113-.587.323-.338.188.161.451.459.676.5a1.408,1.408,0,0,0,.942-.164c.386-.323.261-.556-.208-.61-.363.018-.561.156-1.029-.156a3.33,3.33,0,0,1-1.616-2.244c-.069-.6.255-.784.524-.714.731.188,1.21,1.555,1.716,2.306.166.216.318.22.426.153.2-.174.365-.317.568-.512a23.033,23.033,0,0,1,2.3.532l-.9.321a.487.487,0,0,0-.754.342.5.5,0,0,0-.158.739c.043-.176.079-.405.334-.436.365.151.79-.064.79-.349l1.065-.419,1.076.609c0,.412.39.542.8.431a.938.938,0,0,1,.379.545c.12-.318.095-.542-.093-.7.108-.411-.468-.806-.914-.543l-.774-.444,1.325-.037a.558.558,0,0,0,.872,0c.139-.038.256-.062.526.139-.085-.325-.251-.464-.5-.464-.189-.335-.872-.333-.971.044l-1.38.038.819-.583a.582.582,0,0,0,.82-.348.453.453,0,0,1,.568-.115c-.152-.27-.367-.351-.755-.167-.354-.268-.82.057-.749.327l-1.089.741c-.791-.236-2.222-.6-2.222-.6.17-.179.343-.346.514-.528.061-.106-.032-.231-.163-.256a2.837,2.837,0,0,1-2.452-2.088c-.185-.548.215-.712.353-.377a2.718,2.718,0,0,0,.974,1.371c.2.138.787.025.438-.305a1.629,1.629,0,0,1-.694-1.148c0-.366.373-.53.581-.179a3.336,3.336,0,0,0,.649,1.493,1.578,1.578,0,0,0,.9.581c.356,0,.714-.389.238-.669a1.561,1.561,0,0,1-1.057-1.025c-.113-.635.01-.943.394-.63.543.617,1.581,1.767,2.124,2.3a1.408,1.408,0,0,0,1.864.008c.318-.366.205-.761-.293-.676-1.125.095-1.976-.464-2.911-1.973-.183-.341-.233-.83.17-.466a4.156,4.156,0,0,0,1.776,1.4,1.385,1.385,0,0,0,1.36-.1c.245-.245.18-.861-.243-.712a1.974,1.974,0,0,1-1.35-.044,3.98,3.98,0,0,1-1.606-1.36c-.193-.412-.13-.761.261-.548.924.784,2.117,1.419,2.725,1.038.448-.279.456-1-.113-.95-1.145.156-1.578-.1-2.678-1.068-.25-.187-.233-.661.165-.359a3.145,3.145,0,0,0,2.683.518c.446-.279.381-1.132-.371-.83-.6.366-1.265.356-2.6-.594-.336-.279-.085-.643.19-.487,1.07.61,2.628.871,3.033-.369C28.7,9,28.415,8.724,28,9.052a1.916,1.916,0,0,1-2.545,0c-.167-.1-.474-.6.065-.5,1.393.318,2.77.041,3.021-.945.145-.32-.141-.886-.649-.412a2.8,2.8,0,0,1-2.269.679c-.454-.095-.458-.594-.078-.669A3.976,3.976,0,0,0,27.5,6.6a2.2,2.2,0,0,0,1.137-1.358c.088-.543-.436-1.119-.751-.543a3.7,3.7,0,0,1-2.645,1.78c-.06-.1-.21-.356-.4-.284-.337.131-.738.305-1.152.5-.891.423-1.262.627-1.155,1.358.112.763-.476,1.245-.962,1.112-.424-.114-.657-.5-.581-1.16a2.355,2.355,0,0,1,1.19-1.5,6.838,6.838,0,0,1,1.676-.492c.428-.084.647-.251.671-.425a1.226,1.226,0,0,1-.761.182.522.522,0,0,1-.426-.213,5.336,5.336,0,0,1,.724.005c.353,0,1.173-.082,1.39-.579.068-.328-.148-.387-.348-.177-.215.227-.3.431-.736.507a1.937,1.937,0,0,1-.864.018.963.963,0,0,1,.751-.415.487.487,0,0,1,.288.233c.055-.359-.043-.764-1-.594.015-.271-.556-.389-.9-.384a2.758,2.758,0,0,0-.882.258,6.228,6.228,0,0,1-1.438.282,7.231,7.231,0,0,0,.674.5,2.243,2.243,0,0,0-.989.769,2.931,2.931,0,0,1,.681.046,2.17,2.17,0,0,0-1.125.574,2.407,2.407,0,0,1,.331.074c.07.025.052.072,0,.115-.123.094-.629.682-.777.822-.148-.141-.654-.729-.777-.822-.057-.043-.075-.09,0-.115a2.413,2.413,0,0,1,.331-.074,2.171,2.171,0,0,0-1.125-.574,2.931,2.931,0,0,1,.681-.046,2.244,2.244,0,0,0-.989-.769,7.21,7.21,0,0,0,.674-.5,6.224,6.224,0,0,1-1.438-.282,2.758,2.758,0,0,0-.882-.258c-.343-.005-.914.113-.9.384-.959-.169-1.057.236-1,.595a.487.487,0,0,1,.288-.233.963.963,0,0,1,.751.415,1.938,1.938,0,0,1-.864-.018c-.432-.076-.521-.28-.736-.507-.2-.21-.416-.151-.348.177.217.5,1.037.576,1.39.579a5.327,5.327,0,0,1,.724-.005.522.522,0,0,1-.426.213,1.226,1.226,0,0,1-.761-.182c.025.174.243.341.671.425a6.837,6.837,0,0,1,1.676.492,2.355,2.355,0,0,1,1.19,1.5c.076.664-.158,1.046-.581,1.16-.486.133-1.074-.349-.962-1.112.107-.731-.264-.935-1.155-1.358-.413-.2-.815-.371-1.152-.5-.185-.072-.336.184-.4.284A3.7,3.7,0,0,1,10.347,4.7c-.316-.576-.839,0-.751.543A2.2,2.2,0,0,0,10.733,6.6a3.976,3.976,0,0,0,1.954.6c.381.074.376.574-.078.669A2.8,2.8,0,0,1,10.34,7.2c-.508-.474-.794.092-.649.412.251.986,1.628,1.263,3.021.945.538-.093.232.406.065.5a1.916,1.916,0,0,1-2.545,0c-.418-.328-.7-.051-.546.423.406,1.24,1.964.979,3.033.369.275-.156.526.208.19.487-1.33.95-1.994.961-2.6.594-.751-.3-.817.551-.371.83a3.144,3.144,0,0,0,2.683-.518c.4-.3.416.172.165.359-1.1.971-1.533,1.224-2.678,1.068-.569-.046-.561.671-.113.95.609.382,1.8-.253,2.725-1.038.391-.212.454.136.261.548a3.98,3.98,0,0,1-1.606,1.36,1.974,1.974,0,0,1-1.35.044c-.423-.149-.488.467-.243.712a1.385,1.385,0,0,0,1.36.1,4.156,4.156,0,0,0,1.776-1.4c.4-.364.353.125.17.466-.934,1.509-1.786,2.068-2.911,1.973-.5-.084-.611.31-.293.676a1.408,1.408,0,0,0,1.864-.008c.543-.535,1.581-1.686,2.124-2.3.383-.312.506,0,.394.63A1.561,1.561,0,0,1,13.215,16.4c-.476.279-.118.664.238.669a1.578,1.578,0,0,0,.9-.581A3.336,3.336,0,0,0,15,15c.208-.351.581-.187.581.179a1.629,1.629,0,0,1-.694,1.148c-.348.33.241.443.438.305a2.717,2.717,0,0,0,.974-1.371c.138-.335.539-.172.353.377A2.837,2.837,0,0,1,14.2,17.721c-.13.026-.224.15-.163.256.17.182.343.348.514.528,0,0-1.432.367-2.222.6l-1.089-.741c.071-.27-.4-.6-.749-.327-.388-.183-.6-.1-.755.167a.453.453,0,0,1,.568.115.582.582,0,0,0,.82.348l.819.583-1.38-.038c-.1-.377-.782-.378-.971-.044-.248,0-.414.139-.5.464.27-.2.387-.177.526-.139a.558.558,0,0,0,.872,0l1.325.037-.774.444c-.446-.263-1.021.132-.914.543-.188.156-.213.38-.093.7a.938.938,0,0,1,.379-.545c.406.111.8-.019.8-.431l1.076-.609,1.065.419c0,.285.425.5.789.349.255.03.292.259.334.435a.5.5,0,0,0-.158-.739.487.487,0,0,0-.754-.342l-.9-.321a23.027,23.027,0,0,1,2.3-.532c.2.194.365.338.568.512.108.067.26.063.426-.153.506-.751.984-2.118,1.716-2.306.269-.069.592.113.524.714a3.33,3.33,0,0,1-1.616,2.244c-.468.312-.666.174-1.029.156-.468.054-.594.287-.208.61a1.408,1.408,0,0,0,.942.164c.225-.041.488-.338.676-.5.211-.249.561.046.323.338a1.865,1.865,0,0,1-1.4.866c-.564.079-.458.4-.085.558a1.456,1.456,0,0,0,1.586-.6c.238-.264.408-.274.366.136-.235.745-.559,1.035-1.085,1.071-.426-.038-.431.3-.12.525.711.5,1.227-.354,1.468-.871.17-.469.433-.246.461.138a1.927,1.927,0,0,1-.668,1.313c-.3.264,1.312,1.942,1.312,1.942s1.616-1.678,1.312-1.942Zm2.166-19c-.252,0-.407.088-.407.195s.155.2.407.2.409-.1.409-.205-.159-.187-.409-.187Zm-6.955,0c.252,0,.407.088.407.195s-.155.2-.407.2-.409-.1-.409-.205.159-.187.409-.187Z" transform="translate(5.134 2.353)" fill-rule="evenodd"/>
    </g>
  </g>
</svg>
