<svg xmlns="http://www.w3.org/2000/svg" xmlns:xlink="http://www.w3.org/1999/xlink" width="32" height="32" viewBox="0 0 32 32">
  <defs>
    <clipPath id="clip-path">
      <circle id="Argentina" cx="16" cy="16" r="16" transform="translate(957 2007)" fill="#fff"/>
    </clipPath>
  </defs>
  <g id="Argentina-2" data-name="Argentina" transform="translate(-957 -2007)" clip-path="url(#clip-path)">
    <g id="Flag_of_Argentina" transform="translate(947.4 2007)">
      <rect id="Rectangle_113" data-name="Rectangle 113" width="52" height="32" transform="translate(-0.4)" fill="#74acdf"/>
      <rect id="Rectangle_114" data-name="Rectangle 114" width="51.2" height="10.667" transform="translate(0.092 10.667)" fill="#fff"/>
      <g id="rays" transform="translate(21.591 15.781)">
        <path id="ray1" d="M15.874,10.115l1.821,3.967s.031.076.082.055.019-.1.019-.1L16.278,9.948m-.044,1.544c-.022.6.349.935.3,1.474a1.918,1.918,0,0,0,.316,1.053c.069.21-.074.335-.013.365s.2-.136.153-.434-.27-.386-.217-1.044-.269-.811-.191-1.412" transform="translate(-11.975 -9.812)" fill="#f6b40e" stroke="#85340a" stroke-width="0.044"/>
        <path id="Path_1499" data-name="Path 1499" d="M0,.167,1.821,4.135s.031.076.082.055.019-.1.019-.1L.4,0M.361,1.544c-.022.6.349.935.3,1.474A1.918,1.918,0,0,0,.977,4.071c.069.21-.074.335-.013.365s.2-.136.153-.434S.847,3.615.9,2.957.631,2.146.71,1.546" transform="matrix(0.924, 0.383, -0.383, 0.924, 3.946, 0.064)" fill="#f6b40e" stroke="#85340a" stroke-width="0.044"/>
        <path id="Path_1500" data-name="Path 1500" d="M0,.167,1.821,4.135s.031.076.082.055.019-.1.019-.1L.4,0M.361,1.544c-.022.6.349.935.3,1.474A1.918,1.918,0,0,0,.977,4.071c.069.21-.074.335-.013.365s.2-.136.153-.434S.847,3.615.9,2.957.631,2.146.71,1.546" transform="translate(4.017 0.017) rotate(45)" fill="#f6b40e" stroke="#85340a" stroke-width="0.044"/>
        <path id="Path_1501" data-name="Path 1501" d="M0,.167,1.821,4.135s.031.076.082.055.019-.1.019-.1L.4,0M.361,1.544c-.022.6.349.935.3,1.474A1.918,1.918,0,0,0,.977,4.071c.069.21-.074.335-.013.365s.2-.136.153-.434S.847,3.615.9,2.957.631,2.146.71,1.546" transform="matrix(0.383, 0.924, -0.924, 0.383, 4.101, 0)" fill="#f6b40e" stroke="#85340a" stroke-width="0.044"/>
        <path id="ray2" d="M16.314,11.576c.029.579.358.836.293,1.364.142-.418-.2-.741-.18-1.358m-.49-1.52,1.247,2.725L16.139,9.977" transform="translate(-11.937 -9.795)" fill="#85340a"/>
        <path id="Path_1502" data-name="Path 1502" d="M.377,1.6c.029.579.358.836.293,1.364C.812,2.545.47,2.221.49,1.6M0,.084,1.247,2.809.2,0" transform="matrix(0.924, 0.383, -0.383, 0.924, 4.022, 0.147)" fill="#85340a"/>
        <path id="Path_1503" data-name="Path 1503" d="M.377,1.6c.029.579.358.836.293,1.364C.812,2.545.47,2.221.49,1.6M0,.084,1.247,2.809.2,0" transform="translate(4.055 0.122) rotate(45)" fill="#85340a"/>
        <path id="Path_1504" data-name="Path 1504" d="M.377,1.6c.029.579.358.836.293,1.364C.812,2.545.47,2.221.49,1.6M0,.084,1.247,2.809.2,0" transform="matrix(0.383, 0.924, -0.924, 0.383, 4.096, 0.112)" fill="#85340a"/>
      </g>
      <g id="Group_354" data-name="Group 354" transform="translate(25.911 11.899) rotate(90)">
        <path id="ray1-2" data-name="ray1" d="M0,.167,1.821,4.135s.031.076.082.055.019-.1.019-.1L.4,0M.361,1.544c-.022.6.349.935.3,1.474A1.918,1.918,0,0,0,.977,4.071c.069.21-.074.335-.013.365s.2-.136.153-.434S.847,3.615.9,2.957.631,2.146.71,1.546" transform="translate(3.899 0.135)" fill="#f6b40e" stroke="#85340a" stroke-width="0.044"/>
        <path id="Path_1505" data-name="Path 1505" d="M0,.167,1.821,4.135s.031.076.082.055.019-.1.019-.1L.4,0M.361,1.544c-.022.6.349.935.3,1.474A1.918,1.918,0,0,0,.977,4.071c.069.21-.074.335-.013.365s.2-.136.153-.434S.847,3.615.9,2.957.631,2.146.71,1.546" transform="matrix(0.924, 0.383, -0.383, 0.924, 3.946, 0.064)" fill="#f6b40e" stroke="#85340a" stroke-width="0.044"/>
        <path id="Path_1506" data-name="Path 1506" d="M0,.167,1.821,4.135s.031.076.082.055.019-.1.019-.1L.4,0M.361,1.544c-.022.6.349.935.3,1.474A1.918,1.918,0,0,0,.977,4.071c.069.21-.074.335-.013.365s.2-.136.153-.434S.847,3.615.9,2.957.631,2.146.71,1.546" transform="translate(4.017 0.017) rotate(45)" fill="#f6b40e" stroke="#85340a" stroke-width="0.044"/>
        <path id="Path_1507" data-name="Path 1507" d="M0,.167,1.821,4.135s.031.076.082.055.019-.1.019-.1L.4,0M.361,1.544c-.022.6.349.935.3,1.474A1.918,1.918,0,0,0,.977,4.071c.069.21-.074.335-.013.365s.2-.136.153-.434S.847,3.615.9,2.957.631,2.146.71,1.546" transform="matrix(0.383, 0.924, -0.924, 0.383, 4.101, 0)" fill="#f6b40e" stroke="#85340a" stroke-width="0.044"/>
        <path id="ray2-2" data-name="ray2" d="M.377,1.6c.029.579.358.836.293,1.364C.812,2.545.47,2.221.49,1.6M0,.084,1.247,2.809.2,0" transform="translate(4 0.183)" fill="#85340a"/>
        <path id="Path_1508" data-name="Path 1508" d="M.377,1.6c.029.579.358.836.293,1.364C.812,2.545.47,2.221.49,1.6M0,.084,1.247,2.809.2,0" transform="matrix(0.924, 0.383, -0.383, 0.924, 4.022, 0.147)" fill="#85340a"/>
        <path id="Path_1509" data-name="Path 1509" d="M.377,1.6c.029.579.358.836.293,1.364C.812,2.545.47,2.221.49,1.6M0,.084,1.247,2.809.2,0" transform="translate(4.055 0.122) rotate(45)" fill="#85340a"/>
        <path id="Path_1510" data-name="Path 1510" d="M.377,1.6c.029.579.358.836.293,1.364C.812,2.545.47,2.221.49,1.6M0,.084,1.247,2.809.2,0" transform="matrix(0.383, 0.924, -0.924, 0.383, 4.096, 0.112)" fill="#85340a"/>
      </g>
      <g id="Group_355" data-name="Group 355" transform="translate(29.794 16.219) rotate(180)">
        <path id="ray1-3" data-name="ray1" d="M0,.167,1.821,4.135s.031.076.082.055.019-.1.019-.1L.4,0M.361,1.544c-.022.6.349.935.3,1.474A1.918,1.918,0,0,0,.977,4.071c.069.21-.074.335-.013.365s.2-.136.153-.434S.847,3.615.9,2.957.631,2.146.71,1.546" transform="translate(3.899 0.135)" fill="#f6b40e" stroke="#85340a" stroke-width="0.044"/>
        <path id="Path_1511" data-name="Path 1511" d="M0,.167,1.821,4.135s.031.076.082.055.019-.1.019-.1L.4,0M.361,1.544c-.022.6.349.935.3,1.474A1.918,1.918,0,0,0,.977,4.071c.069.21-.074.335-.013.365s.2-.136.153-.434S.847,3.615.9,2.957.631,2.146.71,1.546" transform="matrix(0.924, 0.383, -0.383, 0.924, 3.946, 0.064)" fill="#f6b40e" stroke="#85340a" stroke-width="0.044"/>
        <path id="Path_1512" data-name="Path 1512" d="M0,.167,1.821,4.135s.031.076.082.055.019-.1.019-.1L.4,0M.361,1.544c-.022.6.349.935.3,1.474A1.918,1.918,0,0,0,.977,4.071c.069.21-.074.335-.013.365s.2-.136.153-.434S.847,3.615.9,2.957.631,2.146.71,1.546" transform="translate(4.017 0.017) rotate(45)" fill="#f6b40e" stroke="#85340a" stroke-width="0.044"/>
        <path id="Path_1513" data-name="Path 1513" d="M0,.167,1.821,4.135s.031.076.082.055.019-.1.019-.1L.4,0M.361,1.544c-.022.6.349.935.3,1.474A1.918,1.918,0,0,0,.977,4.071c.069.21-.074.335-.013.365s.2-.136.153-.434S.847,3.615.9,2.957.631,2.146.71,1.546" transform="matrix(0.383, 0.924, -0.924, 0.383, 4.101, 0)" fill="#f6b40e" stroke="#85340a" stroke-width="0.044"/>
        <path id="ray2-3" data-name="ray2" d="M.377,1.6c.029.579.358.836.293,1.364C.812,2.545.47,2.221.49,1.6M0,.084,1.247,2.809.2,0" transform="translate(4 0.183)" fill="#85340a"/>
        <path id="Path_1514" data-name="Path 1514" d="M.377,1.6c.029.579.358.836.293,1.364C.812,2.545.47,2.221.49,1.6M0,.084,1.247,2.809.2,0" transform="matrix(0.924, 0.383, -0.383, 0.924, 4.022, 0.147)" fill="#85340a"/>
        <path id="Path_1515" data-name="Path 1515" d="M.377,1.6c.029.579.358.836.293,1.364C.812,2.545.47,2.221.49,1.6M0,.084,1.247,2.809.2,0" transform="translate(4.055 0.122) rotate(45)" fill="#85340a"/>
        <path id="Path_1516" data-name="Path 1516" d="M.377,1.6c.029.579.358.836.293,1.364C.812,2.545.47,2.221.49,1.6M0,.084,1.247,2.809.2,0" transform="matrix(0.383, 0.924, -0.924, 0.383, 4.096, 0.112)" fill="#85340a"/>
      </g>
      <g id="Group_356" data-name="Group 356" transform="translate(25.473 20.101) rotate(-90)">
        <path id="ray1-4" data-name="ray1" d="M0,.167,1.821,4.135s.031.076.082.055.019-.1.019-.1L.4,0M.361,1.544c-.022.6.349.935.3,1.474A1.918,1.918,0,0,0,.977,4.071c.069.21-.074.335-.013.365s.2-.136.153-.434S.847,3.615.9,2.957.631,2.146.71,1.546" transform="translate(3.899 0.135)" fill="#f6b40e" stroke="#85340a" stroke-width="0.044"/>
        <path id="Path_1517" data-name="Path 1517" d="M0,.167,1.821,4.135s.031.076.082.055.019-.1.019-.1L.4,0M.361,1.544c-.022.6.349.935.3,1.474A1.918,1.918,0,0,0,.977,4.071c.069.21-.074.335-.013.365s.2-.136.153-.434S.847,3.615.9,2.957.631,2.146.71,1.546" transform="matrix(0.924, 0.383, -0.383, 0.924, 3.946, 0.064)" fill="#f6b40e" stroke="#85340a" stroke-width="0.044"/>
        <path id="Path_1518" data-name="Path 1518" d="M0,.167,1.821,4.135s.031.076.082.055.019-.1.019-.1L.4,0M.361,1.544c-.022.6.349.935.3,1.474A1.918,1.918,0,0,0,.977,4.071c.069.21-.074.335-.013.365s.2-.136.153-.434S.847,3.615.9,2.957.631,2.146.71,1.546" transform="translate(4.017 0.017) rotate(45)" fill="#f6b40e" stroke="#85340a" stroke-width="0.044"/>
        <path id="Path_1519" data-name="Path 1519" d="M0,.167,1.821,4.135s.031.076.082.055.019-.1.019-.1L.4,0M.361,1.544c-.022.6.349.935.3,1.474A1.918,1.918,0,0,0,.977,4.071c.069.21-.074.335-.013.365s.2-.136.153-.434S.847,3.615.9,2.957.631,2.146.71,1.546" transform="matrix(0.383, 0.924, -0.924, 0.383, 4.101, 0)" fill="#f6b40e" stroke="#85340a" stroke-width="0.044"/>
        <path id="ray2-4" data-name="ray2" d="M.377,1.6c.029.579.358.836.293,1.364C.812,2.545.47,2.221.49,1.6M0,.084,1.247,2.809.2,0" transform="translate(4 0.183)" fill="#85340a"/>
        <path id="Path_1520" data-name="Path 1520" d="M.377,1.6c.029.579.358.836.293,1.364C.812,2.545.47,2.221.49,1.6M0,.084,1.247,2.809.2,0" transform="matrix(0.924, 0.383, -0.383, 0.924, 4.022, 0.147)" fill="#85340a"/>
        <path id="Path_1521" data-name="Path 1521" d="M.377,1.6c.029.579.358.836.293,1.364C.812,2.545.47,2.221.49,1.6M0,.084,1.247,2.809.2,0" transform="translate(4.055 0.122) rotate(45)" fill="#85340a"/>
        <path id="Path_1522" data-name="Path 1522" d="M.377,1.6c.029.579.358.836.293,1.364C.812,2.545.47,2.221.49,1.6M0,.084,1.247,2.809.2,0" transform="matrix(0.383, 0.924, -0.924, 0.383, 4.096, 0.112)" fill="#85340a"/>
      </g>
      <circle id="Ellipse_205" data-name="Ellipse 205" cx="1.778" cy="1.778" r="1.778" transform="translate(23.915 14.222)" fill="#f6b40e" stroke="#85340a" stroke-width="0.06"/>
      <path id="loweyecontour" d="M16.494,9.762a.352.352,0,0,0-.306.162.556.556,0,0,0,.644-.014.469.469,0,0,0-.338-.148Zm0,.028c.118,0,.229.052.244.106a.361.361,0,0,1-.492.028.288.288,0,0,1,.248-.134Z" transform="translate(9.805 5.857)" fill="#843511"/>
      <path id="Path_1523" data-name="Path 1523" d="M.413.233a.363.363,0,0,0,.3-.109A.356.356,0,0,1,.851.055C.864.042.851,0,.823.014A.784.784,0,0,0,.659.124.341.341,0,0,1,.413.192C.167.192.03-.013,0,0S.14.233.413.233Z" transform="translate(26.735 15.768) rotate(180)" fill="#85340a"/>
      <path id="Path_1524" data-name="Path 1524" d="M0,.643A.71.71,0,0,0,.93.752a.536.536,0,0,0,.1-.228.662.662,0,0,0-.143-.5A.1.1,0,0,0,.944,0a.973.973,0,0,1,.111.624A.884.884,0,0,1,1.012.78.655.655,0,0,1,0,.643Z" transform="translate(26.814 16.26) rotate(180)" fill="#85340a"/>
      <circle id="Ellipse_206" data-name="Ellipse 206" cx="0.123" cy="0.123" r="0.123" transform="translate(26.171 15.631)" fill="#85340a"/>
      <path id="Path_1525" data-name="Path 1525" d="M0,.14A.538.538,0,0,1,.6.058C.738.14.738.168.711.168S.657.14.547.086A.675.675,0,0,0,0,.14Z" transform="translate(26.65 15.976) rotate(180)" fill="#85340a"/>
      <path id="Path_1526" data-name="Path 1526" d="M15.867,10.154a.123.123,0,0,0,.024.244.121.121,0,0,0,.1-.052.26.26,0,0,0,.148.04h.016a.26.26,0,0,0,.148-.04.121.121,0,0,0,.1.052.123.123,0,0,0,.024-.244.082.082,0,1,1-.11.082.186.186,0,0,1-.34,0,.082.082,0,1,1-.11-.082Z" transform="translate(9.553 6.092)" fill="#85340a"/>
      <path id="Path_1527" data-name="Path 1527" d="M16.031,10.381c-.137,0-.191.124-.314.206a2.466,2.466,0,0,0,.218-.136c.1-.055.177.012.232.012h0c.055,0,.136-.067.232-.012a2.455,2.455,0,0,0,.22.136c-.123-.082-.179-.206-.316-.206a.367.367,0,0,0-.136.042h0A.366.366,0,0,0,16.031,10.381Z" transform="translate(9.523 6.229)" fill="#85340a"/>
      <path id="Path_1528" data-name="Path 1528" d="M15.97,10.483a.939.939,0,0,0-.228.044c.246-.055.3.028.41.028h0c.109,0,.164-.083.41-.028a.729.729,0,0,0-.41-.028h0a1.474,1.474,0,0,0-.182-.016Z" transform="translate(9.538 6.289)" fill="#85340a"/>
      <path id="Path_1529" data-name="Path 1529" d="M15.769,10.509l-.052,0c.287.027.149.192.45.192h0c.3,0,.165-.165.452-.192-.3-.027-.206.15-.452.15h0c-.231,0-.16-.155-.4-.152Z" transform="translate(9.523 6.305)" fill="#85340a"/>
      <path id="Path_1530" data-name="Path 1530" d="M16.339,10.879a.246.246,0,1,0-.492,0,.253.253,0,0,1,.492,0Z" transform="translate(9.6 6.38)" fill="#85340a"/>
      <path id="eyebrow_nose" d="M15.309,9.879a.71.71,0,0,1,.93-.109.536.536,0,0,1,.1.228.662.662,0,0,1-.143.5.1.1,0,0,1,.055.027.973.973,0,0,0,.111-.624.884.884,0,0,0-.043-.156.655.655,0,0,0-1.012.137Z" transform="translate(9.278 5.738)" fill="#85340a"/>
      <path id="uppalpebra" d="M15.772,9.71a.363.363,0,0,1,.3.109.356.356,0,0,0,.137.068c.014.014,0,.055-.027.041a.784.784,0,0,1-.164-.109.341.341,0,0,0-.246-.068c-.246,0-.383.205-.41.191s.137-.232.41-.232Z" transform="translate(9.307 5.826)" fill="#85340a"/>
      <path id="Path_1531" data-name="Path 1531" d="M16.494,9.762a.352.352,0,0,0-.306.162.556.556,0,0,0,.644-.014.469.469,0,0,0-.338-.148Zm0,.028c.118,0,.229.052.244.106a.361.361,0,0,1-.492.028.288.288,0,0,1,.248-.134Z" transform="translate(8.577 5.857)" fill="#843511"/>
      <circle id="pupil" cx="0.123" cy="0.123" r="0.123" transform="translate(24.964 15.631)" fill="#85340a"/>
      <path id="lowpalpebra" d="M15.412,9.908a.538.538,0,0,0,.6.082c.137-.082.137-.109.109-.109s-.055.027-.164.082a.675.675,0,0,1-.547-.055Z" transform="translate(9.339 5.928)" fill="#85340a"/>
    </g>
  </g>
</svg>
