<svg xmlns="http://www.w3.org/2000/svg" xmlns:xlink="http://www.w3.org/1999/xlink" width="32" height="32" viewBox="0 0 32 32">
  <defs>
    <clipPath id="clip-path">
      <circle id="Australia" cx="16" cy="16" r="16" transform="translate(233 1231)" fill="#fff"/>
    </clipPath>
    <clipPath id="clip-path-2">
      <path id="Path_1039" data-name="Path 1039" d="M0,0V8.251H38.5V16.5H33ZM33,0H16.5V19.252H0V16.5Z"/>
    </clipPath>
  </defs>
  <g id="Australia-2" data-name="Australia" transform="translate(-233 -1231)" clip-path="url(#clip-path)">
    <g id="Flag_of_Australia" transform="translate(218.051 1231)">
      <g id="Group_213" data-name="Group 213">
        <rect id="Rectangle_74" data-name="Rectangle 74" width="64.005" height="32.002" fill="#00008b"/>
        <path id="Path_1037" data-name="Path 1037" d="M0,0,33,16.5M33,0,0,16.5" transform="translate(14)" stroke="#fff" stroke-width="1.582"/>
        <g id="Group_212" data-name="Group 212" transform="translate(14)" clip-path="url(#clip-path-2)">
          <path id="Path_1038" data-name="Path 1038" d="M0,0,33,16.5M33,0,0,16.5" stroke="red" stroke-width="1.055"/>
        </g>
        <path id="Path_1040" data-name="Path 1040" d="M16.5,0V19.252M0,8.251H38.5" transform="translate(14)" stroke="#fff" stroke-width="2.637"/>
        <path id="Path_1041" data-name="Path 1041" d="M16.5,0V19.252M0,8.251H38.5" transform="translate(14)" stroke="red" stroke-width="1.582"/>
        <path id="Path_1042" data-name="Path 1042" d="M0,16.5H33V0H44V22H0Z" transform="translate(14)" fill="#00008b"/>
      </g>
      <g id="Group_214" data-name="Group 214" transform="translate(28.923 3.048)">
        <path id="Comwlth" d="M2.366-2.373,3.292.5,6.119-.566,4.446,1.952,7.046,3.5l-3.012.262.415,2.995L2.366,4.56.283,6.752.7,3.757-2.314,3.5l2.6-1.543L-1.387-.566,1.44.5Z" transform="translate(2.314 44.929)" fill="#fff"/>
        <path id="αCrucis" d="M.075-1.13l.233.724.711-.269L.6-.042l.654.388L.494.411l.1.753L.075.613l-.524.551.1-.753L-1.1.346l.654-.388L-.869-.676l.711.269Z" transform="translate(2.179 26.397)" fill="#fff"/>
        <path id="βCrucis" d="M.075-1.13l.233.724.711-.269L.6-.042l.654.388L.494.411l.1.753L.075.613l-.524.551.1-.753L-1.1.346l.654-.388L-.869-.676l.711.269Z" transform="translate(-2.046 19.707)" fill="#fff"/>
        <path id="γCrucis" d="M.075-1.13l.233.724.711-.269L.6-.042l.654.388L.494.411l.1.753L.075.613l-.524.551.1-.753L-1.1.346l.654-.388L-.869-.676l.711.269Z" transform="translate(2.179 15.13)" fill="#fff"/>
        <path id="δCrucis" d="M.075-1.13l.233.724.711-.269L.6-.042l.654.388L.494.411l.1.753L.075.613l-.524.551.1-.753L-1.1.346l.654-.388L-.869-.676l.711.269Z" transform="translate(5.934 18.581)" fill="#fff"/>
        <path id="εCrucis" d="M.043-.659l.184.451.486.036L.34.142.457.615.043.358-.371.615-.255.142-.627-.173l.486-.036Z" transform="translate(3.901 21.5)" fill="#fff"/>
      </g>
    </g>
  </g>
</svg>
