<svg xmlns="http://www.w3.org/2000/svg" xmlns:xlink="http://www.w3.org/1999/xlink" width="32" height="32" viewBox="0 0 32 32">
  <defs>
    <clipPath id="clip-path">
      <circle id="Belize" cx="16" cy="16" r="16" transform="translate(237 2137)" fill="#fff"/>
    </clipPath>
    <radialGradient id="radial-gradient" cx="0.499" cy="0.501" r="0.756" gradientTransform="translate(-0.047 0.421) scale(0.666 0.665)" gradientUnits="objectBoundingBox">
      <stop offset="0" stop-color="#ffef5d"/>
      <stop offset="1" stop-color="#ea5700"/>
    </radialGradient>
    <radialGradient id="radial-gradient-2" cx="0.5" cy="0.5" r="0.448" gradientTransform="translate(-0.227 -0.004) scale(1.145 1.141)" xlink:href="#radial-gradient"/>
    <radialGradient id="radial-gradient-3" cx="0.501" cy="0.5" r="0.756" gradientTransform="translate(-0.144 0.415) scale(0.666 0.667)" gradientUnits="objectBoundingBox">
      <stop offset="0" stop-color="#952d1a"/>
      <stop offset="1" stop-color="#570a00"/>
    </radialGradient>
    <radialGradient id="radial-gradient-4" cx="0.5" cy="0.5" r="0.467" gradientTransform="translate(-0.148 -0.016) scale(1.097 1.094)" xlink:href="#radial-gradient-3"/>
  </defs>
  <g id="Belize-2" data-name="Belize" transform="translate(-237 -2137)" clip-path="url(#clip-path)">
    <g id="Flag_of_Belize" transform="translate(229 2137)">
      <path id="Path_2202" data-name="Path 2202" d="M0,0H48V32H0Z" fill="#ce1126" fill-rule="evenodd"/>
      <path id="Path_2203" data-name="Path 2203" d="M0,1.524H48V28.952H0Z" transform="translate(0 0.762)" fill="#003f87" fill-rule="evenodd"/>
      <path id="Path_2204" data-name="Path 2204" d="M17.467,5.311a.329.329,0,0,1-.15-.059l.15.058" transform="translate(8.659 2.626)" fill="#6f6"/>
      <g id="Group_394" data-name="Group 394" transform="translate(23.854 6.954)">
        <path id="Path_2205" data-name="Path 2205" d="M17.467,5.311a.329.329,0,0,1-.15-.059" transform="translate(-15.195 -4.328)" fill="none" stroke="#060" stroke-width="0.022"/>
        <path id="Path_2206" data-name="Path 2206" d="M16.488,6.589l.085.052.091.013s.1.091.208.176c.084.072.084-.013.084-.013l.052.208h.072a2.022,2.022,0,0,0-.02.208l.124-.1.143.124s.1-.091.156-.091a.082.082,0,0,0,.072-.052h.006c-.345-.163-.495-.332-.391-.508.169-.293.449-.1.54-.065l1.263.677s.085-.052.026-.1a.26.26,0,0,1-.072-.234c.019-.052.163.163.234.182s.234.046.234.046l-.007-.065s.208.143.208.215c0,0,.15-.078.1-.124s.228.111.247.2L20,7.26a.682.682,0,0,1,.091-.306.319.319,0,0,1,.137-.124s.065-.111.13-.111a.327.327,0,0,1-.091-.1.238.238,0,0,0-.111-.078,1.024,1.024,0,0,0,.124-.1.1.1,0,0,1,.052-.045.783.783,0,0,0-.254-.143s-.006-.169-.137-.182H20s-.1-.182-.189-.189a.239.239,0,0,1,.111-.071.251.251,0,0,0-.26-.091l.1-.039s-.072-.078-.293-.039a.169.169,0,0,0-.078-.163s-.085.006-.085.072a.293.293,0,0,0-.176-.072c-.1,0,.033.1.033.1s-.13-.084-.208-.059a.269.269,0,0,0-.052-.228.31.31,0,0,0-.124.117l-.026-.065s-.13.156-.156.111a.556.556,0,0,1-.039-.137l-.078.117.013-.163a.464.464,0,0,0-.163.222.289.289,0,0,0-.091.163.084.084,0,0,0-.137,0c-.059.091,0,.072,0,.072a.16.16,0,0,1-.091.046l.013.052a.238.238,0,0,0-.15-.026l.032.078s-.169.013-.176-.124c0,0-.143-.072-.163.006,0,0-.117,0-.1.065a.158.158,0,0,0-.091-.078c-.065-.02-.013.084-.013.084a.2.2,0,0,0-.1-.117c-.078-.032-.013.072-.013.072s-.1-.085-.052-.15c0,0-.1.091-.052.176l-.065.045s-.032-.032-.026-.059-.111.078-.111.078-.072-.169,0-.169a.147.147,0,0,0-.143.143h0a.78.78,0,0,0-.163.032c-.085.026.059.085.059.085a.351.351,0,0,0-.2.013l.046.059S16.5,6,16.391,6.036s.026.052.026.052a.377.377,0,0,0-.176,0c-.059.026.019.072.019.072a.837.837,0,0,0-.247-.046c-.032.02.072.124.072.124s-.13.032-.156.13l.117.046a.2.2,0,0,0-.078.078c-.026.052.078.026.078.026s-.143.1-.143.182a.192.192,0,0,0,.182-.046c.078-.078.026-.052.026-.052l.006.052s.15-.065.15-.1-.026.052-.026.052l.15-.078.1.065" transform="translate(-15.903 -4.317)" fill="none"/>
        <path id="Path_2207" data-name="Path 2207" d="M16.354,4.876l-.033-.143a1.588,1.588,0,0,1,.332.039l.059-.137a1.035,1.035,0,0,1,.208.124,1.22,1.22,0,0,1,.4-.045l-.039.143a2.3,2.3,0,0,1,.371.052c.085.033-.039.1-.039.1a1.532,1.532,0,0,1,.456.124c.143.085.143.156.072.176l.176.28s-.28.033-.332.1-.1-.072-.1-.072l-.052.2a1.613,1.613,0,0,1-.247-.156s-.085.1-.033.156a.365.365,0,0,1-.319-.209s-.137-.019-.137.1c0,0-.156-.176-.2-.228l-.176.052A.275.275,0,0,0,16.6,5.45c-.072-.013-.02.091-.02.091l-.1-.124-.1-.124s-.091.124-.163.124-.065-.085-.052-.143-.208-.065-.228,0a.272.272,0,0,1,.176-.332l.248-.065" transform="translate(-15.892 -4.636)" fill="none"/>
      </g>
      <circle id="Ellipse_223" data-name="Ellipse 223" cx="12.571" cy="12.571" r="12.571" transform="translate(11.429 3.429)" fill="#fff"/>
      <g id="Group_398" data-name="Group 398" transform="translate(19.707 6.954)">
        <g id="Group_395" data-name="Group 395" transform="translate(0.807 0.82)">
          <path id="Path_2208" data-name="Path 2208" d="M18.837,5.366s.039-.091.111-.039.084.28.084.28l-.1.052s.059-.084-.091-.293Zm-.592,2.045s.052-.072-.02-.228l.1-.033a.433.433,0,0,1-.013.261h-.072m1.8-.359L19.8,7.2l.124.059.3-.176-.176-.033m-3.314.97c-.065.052-.072.143-.111.2s-.13.124-.137.2a.422.422,0,0,0,.013.235,2.019,2.019,0,0,1,.137.918,1,1,0,0,0-.019.554c.026.052.1.2.15.2.1-.013.059-.045.1-.111a8.159,8.159,0,0,0-.046-1.843,1.812,1.812,0,0,0-.176-.56c-.013-.033-.039-.117-.059-.169a1.937,1.937,0,0,1-.215-.925s-.319.072-.593-.547c-.143-.313-.352-.28-.6-.384l.111-.072a1.049,1.049,0,0,0,.313.1c.1,0,.072-.208.072-.208l.1-.1v.456c0,.208.286.495.456.58.1.052.241-.163.209-.371a2.194,2.194,0,0,1,0-.488l.143.084a.27.27,0,0,0-.039.143c.019.052.091-.052.143-.1,0,0,.013.013.065.013,0,0-.1.176-.156.267a1.78,1.78,0,0,0-.052.541c0,.124.046.41.046.5a1.927,1.927,0,0,0,.221.5c.032.065.111.234.111.234a1.708,1.708,0,0,1,.13.313,1.7,1.7,0,0,1,.1.462c.013.065.026.313.046.475s.15.033.306-.078a.564.564,0,0,0,.156-.4s.124-.1.1-.046.065.13.065.13c-.1.221-.039.2.059.189a2.163,2.163,0,0,0,.436-.267c.046-.013.247-.013.215,0s-.091.117-.091.117l.221-.026c-.078.059-.371.228-.436.267a6.025,6.025,0,0,1-.573.273c-.15.065-.443.208-.456.358s.02.554,0,.684-.065.71-.065.71h-.7s.137-.508-.007-.645a5.991,5.991,0,0,0-.664-.7c-.208-.137.137-.032.137-.032V9.494l.319.384a.8.8,0,0,0,0-1.153c-.176-.208-.352-.527-.488-.56a.631.631,0,0,0-.456,0A1.042,1.042,0,0,1,14.2,7.846l.208-.033.176-.072s-.072.247.423.247.56,0,.521-.456l.143-.072.1.1a.828.828,0,0,0-.033.352c.033.1.208.176.345.28a.215.215,0,0,0,.143.052c.059-.007.072-.007.15-.085a1.789,1.789,0,0,1,.208-.228s.059-.091.072-.1l.072.189Z" transform="translate(-13.413 -5.118)" fill="#730000" stroke="#000" stroke-width="0.022"/>
          <path id="Path_2209" data-name="Path 2209" d="M17.1,7.742a1.438,1.438,0,0,0,.124-.208c.078-.13.169-.208.273-.371a.732.732,0,0,0,.1-.527l.091.052.007.247a1.5,1.5,0,0,1,.176-.13l.052.026a5.568,5.568,0,0,0-.755,1.055L17.1,7.742ZM13.676,6.388a1.214,1.214,0,0,0,.26.4l.1-.033s-.241-.28-.241-.4l-.124.032m.612-.157a.97.97,0,0,1-.052.456l.1-.052a1.062,1.062,0,0,0,.052-.352l-.1-.052Zm3.432-1.048a2.765,2.765,0,0,0,.072.755l.124-.039A.111.111,0,0,1,18,5.775a1.715,1.715,0,0,0,.475-.241l-.039-.1a1.95,1.95,0,0,1-.28.189c-.085.033-.137.072-.208.052s-.156-.137-.1-.4ZM19.1,7.371a3.063,3.063,0,0,0-.013.476l.111.026s-.026-.4.045-.43L19.1,7.371m.5.248s-.124.215-.267.235l.228-.046a.669.669,0,0,0,.163-.137l-.124-.052" transform="translate(-13.676 -5.183)" fill="#730000" stroke="#000" stroke-width="0.022"/>
        </g>
        <g id="Group_396" data-name="Group 396">
          <path id="Path_2210" data-name="Path 2210" d="M16.489,6.589l.084.052.091.013s.1.091.208.176c.084.072.084-.013.084-.013l.052.208h.072a2.039,2.039,0,0,0-.02.208l.124-.1.143.124s.1-.091.156-.091a.082.082,0,0,0,.072-.052h.007c-.345-.163-.495-.332-.391-.508.169-.293.449-.1.54-.065l1.263.677s.085-.052.026-.1a.26.26,0,0,1-.072-.234c.02-.052.163.163.234.182s.234.046.234.046l-.007-.065s.208.143.208.215c0,0,.15-.078.1-.124s.228.111.247.2L20,7.26a.68.68,0,0,1,.091-.306.32.32,0,0,1,.137-.124s.065-.111.13-.111a.326.326,0,0,1-.091-.1.236.236,0,0,0-.111-.078,1.039,1.039,0,0,0,.124-.1.1.1,0,0,1,.052-.046.78.78,0,0,0-.254-.143s-.006-.169-.137-.182H20s-.1-.182-.189-.189a.241.241,0,0,1,.111-.072.251.251,0,0,0-.26-.091l.1-.039s-.072-.078-.293-.039a.169.169,0,0,0-.078-.163s-.085.006-.085.072a.293.293,0,0,0-.176-.072c-.1,0,.033.1.033.1s-.13-.085-.208-.059a.269.269,0,0,0-.052-.228.312.312,0,0,0-.124.117l-.026-.065s-.13.156-.156.111a.566.566,0,0,1-.039-.137l-.078.117.013-.163a.464.464,0,0,0-.163.221.29.29,0,0,0-.091.163.084.084,0,0,0-.137,0c-.059.091,0,.072,0,.072a.161.161,0,0,1-.091.045l.013.052a.237.237,0,0,0-.15-.026l.032.078s-.169.013-.176-.124c0,0-.143-.072-.163.006l-.1.065a.158.158,0,0,0-.091-.078c-.065-.02-.013.084-.013.084a.2.2,0,0,0-.1-.117c-.078-.032-.013.072-.013.072s-.1-.085-.052-.15c0,0-.1.091-.052.176l-.065.045s-.033-.032-.026-.059-.111.078-.111.078-.072-.169,0-.169a.147.147,0,0,0-.143.143.78.78,0,0,0-.163.032c-.084.026.059.085.059.085a.35.35,0,0,0-.2.013l.046.059S16.5,6,16.391,6.036s.026.052.026.052a.376.376,0,0,0-.176,0c-.059.026.02.072.02.072a.833.833,0,0,0-.247-.045c-.032.019.072.124.072.124s-.13.032-.156.13l.117.045a.2.2,0,0,0-.078.078c-.026.052.078.026.078.026s-.143.1-.143.182a.192.192,0,0,0,.182-.046c.078-.078.026-.052.026-.052l.007.052s.15-.065.15-.1-.026.052-.026.052l.15-.078.1.065h0Z" transform="translate(-11.755 -4.317)" fill="#289400" stroke="#030" stroke-width="0.022"/>
          <path id="Path_2211" data-name="Path 2211" d="M17.068,4.877l-.033-.143.332.039.059-.137a1.034,1.034,0,0,1,.208.124,1.22,1.22,0,0,1,.4-.045l-.039.143a2.313,2.313,0,0,1,.371.052c.085.033-.039.1-.039.1a1.533,1.533,0,0,1,.456.124c.143.084.143.156.072.176l.176.28s-.28.033-.332.1-.1-.071-.1-.071l-.052.2a1.609,1.609,0,0,1-.247-.156s-.084.1-.033.156l-.319-.208s-.137-.02-.137.1c0,0-.156-.176-.2-.228l-.176.052a.274.274,0,0,0-.117-.091c-.072-.013-.02.091-.02.091l-.1-.124-.1-.123s-.091.124-.163.124-.065-.084-.052-.143-.208-.065-.228,0a.271.271,0,0,1,.176-.332l.247-.065ZM15.8,5.769l-.111.1-.065-.033-.13.143-.026-.078-.072.117-.111-.039-.052.085-.1-.02a.616.616,0,0,1-.137.1c-.052.013,0-.117,0-.117s-.078.13-.137.13-.032-.059-.032-.059-.033.084-.1.1-.033-.065-.033-.065l-.1.078V6.147l-.045-.019s.026-.117.072-.143-.046-.1-.046-.1l.045-.052s-.13-.033-.13-.006c0,0,.065-.176.156-.209l.007-.2a.382.382,0,0,1,.176-.085c.091-.013-.026-.15-.026-.15l.208-.124.026-.15.319.026.065-.137.254.065.215-.111.156.182.234.02s-.006.163-.006.208a2.63,2.63,0,0,1,.312.111,1.759,1.759,0,0,0-.052.2.985.985,0,0,1,.254-.039s.02.182.026.228c0,0,.332.1.352.163a.43.43,0,0,0-.111.1A2.5,2.5,0,0,1,17.1,6.2l-.026.039a.457.457,0,0,0-.176-.1l-.065.143L16.716,6.2l-.072.007s-.059-.072-.1-.072l-.007-.065-.091.059S16.3,6.056,16.3,6.01s.007-.1.007-.1l-.15.1A.3.3,0,0,1,16.13,5.9c.007-.033-.059.078-.059.078A.638.638,0,0,1,16,5.814l-.02.111s-.156-.052-.176-.156h0Z" transform="translate(-12.458 -4.636)" fill="#289400" stroke="#030" stroke-width="0.022"/>
          <path id="Path_2212" data-name="Path 2212" d="M14.4,6.17s.274.137.274.2c0,0,.072-.143.033-.2l.1.072s.032-.13-.007-.169.234-.143.293.033c0,0,.163-.169-.15-.313,0,0-.026-.1.163-.078a.15.15,0,0,0-.059-.091h.182a.625.625,0,0,0-.273-.117c-.156-.026-.059-.045-.065-.078a.56.56,0,0,1,0-.15.226.226,0,0,0-.163.007l.026-.033s-.169-.045-.234-.006a.139.139,0,0,1-.085-.143.153.153,0,0,0-.143.1.322.322,0,0,1-.215.1.511.511,0,0,1-.117-.052l-.078.182-.124-.006.039.072s-.189-.052-.247,0a.308.308,0,0,1,.052.189.733.733,0,0,0-.182.052c-.039.026.052.045.052.045a.605.605,0,0,0-.208.1l.065.052-.078.1.065.013s-.111.033-.169.052.1.033.1.033l-.078.071.124.019a1.929,1.929,0,0,0-.1.384,1.278,1.278,0,0,1,.189-.2l-.117.2a1.025,1.025,0,0,0,.241-.1c.019-.039.039-.072.039-.072l.007.111a.949.949,0,0,0,.1-.163c.007-.045.137.046.137.046V6.378s.117.039.156.046S14,6.4,14,6.4l.111-.013-.02.091a.3.3,0,0,0,.1-.1c.013-.052.052,0,.052,0l.052-.208H14.4Zm-.892.925.1.215a.535.535,0,0,0-.208.1c.019.358-.072.339-.072.339a.353.353,0,0,1-.017.186l.518-.31L13.84,7.6l.612-.287.019.033.176-.1.124.325-.124.072a.915.915,0,0,0,.137.306l.163-.039.176-.065s.007.1.007.065.189-.091.189-.091L15.4,7.9c.065-.006.182-.163.182-.163l.137.052a.347.347,0,0,0,.046-.137c0-.052.169-.052.169-.052l.117.084.15-.124s.046.091.1.1.228.13.228.1a1.1,1.1,0,0,1,.072-.169l.273.111a1.53,1.53,0,0,0-.13-.273s.13-.1.1-.13-.1,0-.1,0l.078-.156h-.1l.032-.039-.169-.072.091-.182a2.55,2.55,0,0,0-.488-.137l.1-.1s-.052-.078-.1-.078a1.36,1.36,0,0,1-.339-.019.734.734,0,0,0-.117-.124l-.169.124L15.481,6.5l-.15.059s0,.085-.02.026a1.063,1.063,0,0,0-.156-.189c-.026.045-.2.254-.2.254s-.026.111-.085.033-.2-.163-.221-.1-.143.137-.169.117-.169-.007-.182.032-.163.163-.163.163a.529.529,0,0,0-.254-.019.38.38,0,0,0-.052.13l-.319.085h0Zm2.943,2.637V9.6l.156.1.091-.1.117.117.072-.117v.189l.176-.156.1.045v-.15s.124-.208.072-.247l.1-.033a2.823,2.823,0,0,0-.228-.209A.233.233,0,0,0,16.992,9a1.046,1.046,0,0,0-.228-.176.119.119,0,0,0-.137.039.249.249,0,0,0-.143-.124c-.084-.019-.084.072-.084.072a.489.489,0,0,0-.15-.1c-.085-.039-.026.078-.026.078l-.3-.091.039.091-.28-.071.032.1-.2-.033-.013.085-.28.052.052.091L15.1,8.945v.124l-.2.072.072.065s-.26.124-.313.163.1.1.1.1l-.28-.039.1.091-.247.228.176.124-.1.156.26.052.1.176L15,10.221v.2l.313-.247s.228.2.247.143a1.689,1.689,0,0,0,.013-.228h.111V9.909l.084.072.143-.209.189.261.143-.332.208.033Zm1.276-.788-.033-.3-.091.091.039-.28L17.5,8.43l.052-.273-.1-.052.026-.13.1-.078.189-.182.436.007.052-.143.313.052c.052.059.215-.117.215-.117h.065l.072.137a.6.6,0,0,1,.332.039l-.124.169.228.019.156.033.163-.052.208-.013.052.085h.2l-.065.078.254.117-.052.052a.907.907,0,0,0,.247.052h.052s.052.124-.02.176a.366.366,0,0,0,.228.209c.156.033.156.033.176.071a.17.17,0,0,1-.176.209v.176a.9.9,0,0,0-.156.176l-.1-.072a.381.381,0,0,0-.091.176s-.228-.3-.313-.313-.072.169-.072.169L19.792,9l-.033.143-.208-.176-.124.084-.221-.228-.215.026.084-.111h-.26l-.052-.228-.039.189-.156-.1-.2.221a.361.361,0,0,1-.059-.13c-.032-.1-.124.124-.124.124l-.072-.163-.084.163a.527.527,0,0,0-.143-.163c-.065-.033-.137.2-.156.3Zm.039.684.013-.1.371-.143.313-.117.156-.072.072.124.091-.176.143.182.078-.1.124.091h.1l.02.137s.26.019.28-.033.052.176.052.176l.247.033.052.28s.124.261.085.365-.137-.137-.137-.137a1.818,1.818,0,0,1-.039.247c-.013.052-.332-.052-.332-.052l-.137.26s-.143-.208-.208-.208-.072.208-.072.208-.208-.247-.3-.352-.1.1-.1.1a1.249,1.249,0,0,1-.137-.293c0-.072-.124-.143-.124-.143a1.461,1.461,0,0,1-.371.313s.02-.156-.032-.208-.208.1-.208.1a.642.642,0,0,1,0-.488Z" transform="translate(-13.138 -4.399)" fill="#289400" stroke="#030" stroke-width="0.022"/>
        </g>
        <g id="Group_397" data-name="Group 397" transform="translate(0.403 0.43)">
          <path id="Path_2213" data-name="Path 2213" d="M19.351,5.84l.033.13a.82.82,0,0,1,.2-.02.662.662,0,0,1-.046.15.426.426,0,0,1,.228.019l-.033.078.182.078-.169.137a1.015,1.015,0,0,1,.326.176.974.974,0,0,1-.2.117c-.026-.013-.007.052.039.111l-.15-.006A.616.616,0,0,1,19.807,7c-.007.052-.247.039-.247.039m.937-.351s.046-.26-.026-.326a.69.69,0,0,0,.28.15c.117.007-.007-.215-.007-.215a1.668,1.668,0,0,0,.241.1c.078.013-.059-.163-.059-.163s.045-.085.176-.007M18.075,5.2a.145.145,0,0,0-.02-.091c-.156-.215.163.163.228.176m.3,0a.424.424,0,0,0,.156.078c.052,0-.033-.208-.059-.234s.189.084.267.1.091-.13.091-.13a1.541,1.541,0,0,1,.293.072m-1.674-.045s-.02-.137-.026-.2m-1.614.847c-.013-.026.065-.143.033-.2a.215.215,0,0,0,.091.046c.039.006.026-.15.026-.15l.052.019s.137-.065.111-.117.091.078.091.078.078-.078.078-.111.091.078.091.078.1-.02.1-.078.124.019.124.019a.225.225,0,0,0,.046-.117m-1.315.651a.265.265,0,0,0-.007-.228m-1.575.657c.007-.065.039-.241.007-.267s.065.026.143.046m.618-.026a.294.294,0,0,0-.247-.117m-1.074.553a.409.409,0,0,0,.033-.221m1.667,3.451.085-.176.1.247.072-.156.026.052.156-.169.169.254m2.715-1.1.111-.221.15.078.072-.215.156.1.091-.2.176.045.013-.143a.614.614,0,0,1,.156.124c.039.052,0-.176,0-.176l.143.065a.092.092,0,0,0-.039-.163" transform="translate(-13.406 -4.922)" fill="none" stroke="#004b00" stroke-width="0.022"/>
          <path id="Path_2214" data-name="Path 2214" d="M18.409,7.723l.156.228.13-.15.117.254.15-.091.215.124.1-.078.234.169.1-.2.208.065.137-.234M14.327,7.2s.091-.156.059-.228.189.124.189.124a.438.438,0,0,0,.019-.228c-.039-.072.26.208.26.208s.052-.241,0-.293.287.072.287.072.137-.039.085-.111.228.1.228.1.065-.176,0-.241.208.085.208.085l-.1-.189.228.013L15.766,6.3m2.018,3.008.15-.072.13.13.143-.228.176.169.026-.169.189.078.039-.1.208.111.019-.156.1.033.02-.1" transform="translate(-12.946 -4.232)" fill="none" stroke="#004b00" stroke-width="0.022"/>
        </g>
      </g>
      <path id="Path_2215" data-name="Path 2215" d="M14.494,14.365a4.656,4.656,0,0,1-.4-.866l2.819-2.481,2.819,2.475a4.309,4.309,0,0,1-.41.886l-.022.036-.212-.082a.374.374,0,0,1-.163.091.242.242,0,0,1-.182-.084.363.363,0,0,1-.247.084.244.244,0,0,1-.176-.091s-.13.1-.221.085a.332.332,0,0,1-.143-.078.217.217,0,0,1-.189.078.712.712,0,0,1-.2-.078,1.275,1.275,0,0,1-.267.085c-.1.02-.2-.091-.2-.091a.633.633,0,0,1-.189.091,1.265,1.265,0,0,1-.247-.091,1.537,1.537,0,0,1-.273.065,1.293,1.293,0,0,1-.267-.084,1.559,1.559,0,0,1-.273.052.762.762,0,0,1-.221-.052.521.521,0,0,1-.241.052.882.882,0,0,1-.163-.052.639.639,0,0,1-.28.052.878.878,0,0,1-.228-.091s-.02.052-.221.091h-.007" transform="translate(7.048 5.509)" fill="#9dd7ff"/>
      <g id="Group_404" data-name="Group 404" transform="translate(20.852 13.674)">
        <path id="Path_2216" data-name="Path 2216" d="M17.014,9.116v2.852l-2.819,2.494a5.614,5.614,0,0,1-.293-1.81V9.116h3.112" transform="translate(-13.901 -9.116)" fill="#fff" stroke="#000" stroke-width="0.03"/>
        <path id="Path_2217" data-name="Path 2217" d="M15.976,9.116v2.852l2.813,2.494a5.612,5.612,0,0,0,.293-1.81V9.116H15.976" transform="translate(-12.864 -9.116)" fill="#ffd83c" stroke="#000" stroke-width="0.03"/>
        <g id="Group_400" data-name="Group 400" transform="translate(1.293 4.064)">
          <path id="Path_2218" data-name="Path 2218" d="M14.764,12.854a2.548,2.548,0,0,0,.58.234,4.126,4.126,0,0,0,1.38.182,3.978,3.978,0,0,0,1-.088c.174-.05.215-.12.215-.12l-.436.443a7.551,7.551,0,0,1-2.071-.111,4.127,4.127,0,0,1-.664-.54Z" transform="translate(-14.764 -11.311)" fill="#730000" stroke="#000" stroke-width="0.022"/>
          <path id="Path_2219" data-name="Path 2219" d="M17.318,12.542s.56.319,0,.931M14.8,13.4l.807-.769-.091,1.029m.423.091V12.033m1.38,1.719V11.929m-.7,1.856v-1.96" transform="translate(-14.746 -11.825)" fill="none" stroke="#000" stroke-width="0.022"/>
          <path id="Path_2220" data-name="Path 2220" d="M15.68,12.114l-.365.117.365.039v-.156m.684-.267-.384.143.384.013Zm.7.1-.384.143.384.019v-.163Zm.228.828c-.02-.078.228-.072.228-.072a.779.779,0,0,1,0,.423l-.208-.039a.959.959,0,0,0-.02-.313Z" transform="translate(-14.488 -11.814)" fill="#ff0018" stroke="#000" stroke-width="0.022"/>
          <g id="Group_399" data-name="Group 399" transform="translate(0.176 0.439)">
            <path id="Path_2221" data-name="Path 2221" d="M14.881,13.151l.684-.664-.033.4s-.351.228-.351.391l-.3-.124m.364.137a.618.618,0,0,1,.267-.313l-.019.417-.247-.1Zm.984-1.153a1.836,1.836,0,0,1,.488,0,1.117,1.117,0,0,0,0,.332s-.384-.091-.54.052a.556.556,0,0,1,.052-.384Zm-.593.072a1.836,1.836,0,0,1,.488,0,1.256,1.256,0,0,0-.02.365s-.313-.176-.469-.033c0,0-.1-.215,0-.332Z" transform="translate(-14.881 -12.118)" fill="#fff" stroke="#000" stroke-width="0.022"/>
            <path id="Path_2222" data-name="Path 2222" d="M15.4,12.571a2.2,2.2,0,0,1,.488,0,1.121,1.121,0,0,0,0,.332s-.365-.085-.521.052C15.371,12.955,15.3,12.694,15.4,12.571Zm.56-.052a3,3,0,0,1,.612-.019.484.484,0,0,0,.02.384s-.436-.117-.6.019c0,0-.137-.26-.033-.384Zm-.592.436.54.039a1.938,1.938,0,0,0-.02.449s-.436-.1-.521.039c0,0-.143-.365,0-.527h0Zm.612,0a4.514,4.514,0,0,1,.684,0,.731.731,0,0,0,.013.56s-.612-.176-.7-.033c0,0-.143-.365,0-.527Zm.716-.82a1.836,1.836,0,0,1,.488,0,1.122,1.122,0,0,0,0,.332s-.384-.091-.54.052A.555.555,0,0,1,16.7,12.135Zm0,.384a2.2,2.2,0,0,1,.488,0,1.123,1.123,0,0,0,0,.332s-.384-.085-.54.052a.555.555,0,0,1,.052-.384Zm.033.4a1.887,1.887,0,0,1,.495,0,2.175,2.175,0,0,0-.039.488s-.319-.15-.469-.019c0,0-.091-.345.013-.469Z" transform="translate(-14.668 -12.118)" fill="#fff" stroke="#000" stroke-width="0.022"/>
            <path id="Path_2223" data-name="Path 2223" d="M16.7,12.676s.091.332.208.371l-.156.189a.546.546,0,0,1-.208-.293.855.855,0,0,0,.156-.267Z" transform="translate(-14.052 -11.838)" fill="#fff" stroke="#000" stroke-width="0.022"/>
          </g>
        </g>
        <g id="Group_401" data-name="Group 401" transform="translate(0.69 6.108)">
          <path id="Path_2224" data-name="Path 2224" d="M19.18,13.319a4.42,4.42,0,0,1-2.4,1.888,4.488,4.488,0,0,1-2.422-1.921l.007-.007c.2-.039.221-.091.221-.091a.882.882,0,0,0,.228.091.643.643,0,0,0,.28-.052.885.885,0,0,0,.163.052.526.526,0,0,0,.241-.052.758.758,0,0,0,.221.052A1.554,1.554,0,0,0,16,13.228a1.3,1.3,0,0,0,.267.084,1.534,1.534,0,0,0,.273-.065,1.267,1.267,0,0,0,.247.091.635.635,0,0,0,.189-.091s.091.111.2.091a1.269,1.269,0,0,0,.267-.085.7.7,0,0,0,.2.078.217.217,0,0,0,.189-.078.328.328,0,0,0,.143.078c.091.02.221-.085.221-.085a.244.244,0,0,0,.176.091.363.363,0,0,0,.247-.084.241.241,0,0,0,.182.084.374.374,0,0,0,.163-.091l.221.072" transform="translate(-14.362 -13.188)" fill="#006ac8"/>
          <path id="Path_2225" data-name="Path 2225" d="M19.024,13.429c-.1.007-.111-.059-.111-.059a.378.378,0,0,1-.254.091.288.288,0,0,1-.189-.1s-.137.111-.228.091a.307.307,0,0,1-.156-.078.233.233,0,0,1-.2.078.543.543,0,0,1-.208-.078,1.84,1.84,0,0,1-.287.091c-.111.02-.2-.1-.2-.1a2.389,2.389,0,0,1-.306.085,1.093,1.093,0,0,1-.241-.085.528.528,0,0,1-.2.078,1.233,1.233,0,0,1-.287-.091,1.644,1.644,0,0,1-.287.052.826.826,0,0,1-.228-.052.607.607,0,0,1-.26.052.894.894,0,0,1-.163-.052.72.72,0,0,1-.293.052.959.959,0,0,1-.241-.091s-.019.045-.234.091h-.007" transform="translate(-14.316 -13.129)" fill="none" stroke="#000" stroke-width="0.022"/>
          <path id="Path_2226" data-name="Path 2226" d="M14.884,13.565s-.018.043-.188.08c0,0-.046.01-.046.01l.042-.008-.048.016a2.981,2.981,0,0,0,.779.731,4.031,4.031,0,0,0,1.231.615,4.766,4.766,0,0,0,1.184-.6,3.44,3.44,0,0,0,.838-.78c-.176.1-.151.1-.242.088a.356.356,0,0,1-.158-.086.247.247,0,0,1-.194.086.605.605,0,0,1-.208-.086.556.556,0,0,1-.288.092.352.352,0,0,1-.2-.1,2.41,2.41,0,0,1-.306.084,1.086,1.086,0,0,1-.24-.084.535.535,0,0,1-.2.078,1.221,1.221,0,0,1-.286-.092,1.636,1.636,0,0,1-.286.052.83.83,0,0,1-.228-.052.579.579,0,0,1-.26.052.911.911,0,0,1-.164-.052.714.714,0,0,1-.292.052.979.979,0,0,1-.242-.09Z" transform="translate(-14.22 -13)" fill="#5ac800" stroke="#000" stroke-width="0.026"/>
          <path id="Path_2227" data-name="Path 2227" d="M16.392,14.766a6.124,6.124,0,0,0,1.137-.573c-.067,0-.263-.061-.192-.081a.283.283,0,0,1-.156.071,1.27,1.27,0,0,1-.28-.091,1.649,1.649,0,0,1-.286.052.831.831,0,0,1-.228-.052.606.606,0,0,1-.26.052.878.878,0,0,1-.163-.052.746.746,0,0,1-.293.052.947.947,0,0,1-.241-.091.954.954,0,0,1-.261.095,3.569,3.569,0,0,0,1.223.619Z" transform="translate(-13.958 -12.756)" fill="#ffd800" stroke="#000" stroke-width="0.026"/>
        </g>
        <g id="Group_403" data-name="Group 403" transform="translate(0.183 0.243)">
          <path id="Path_2228" data-name="Path 2228" d="M16.533,11.959c.127-.1.2-.2.157-.279s-.122.041-.206.016a.67.67,0,0,1-.161-.134c-.074-.082-.169-.156-.223-.226a8.99,8.99,0,0,0-.607-.685c-.1-.062-.074-.3-.142-.371-.006-.051-.663-.7-.9-.937-.095-.07-.145-.115-.311.036-.131.119-.179.241-.006.389l.855.777c.125.121.3.143.372.206l.869.889c.109.095.162.162.1.242-.069.133,0,.151.02.155a.149.149,0,0,0,.112-.026Z" transform="translate(-14.024 -9.278)" fill="#b34b00" stroke="#000" stroke-width="0.022"/>
          <path id="Path_2229" data-name="Path 2229" d="M14.252,9.511l.893.883" transform="translate(-13.91 -9.161)" fill="none" stroke="#000" stroke-width="0.021"/>
          <path id="Path_2230" data-name="Path 2230" d="M15.058,9.977c.014-.027.044-.094.076-.168.013-.029.253-.412.373-.424,0,0,.747.544.748.551,0,.029-.324.518-.353.481,0,0-.876-.368-.844-.44Z" transform="translate(-13.507 -9.224)" fill="#fff" stroke="#000" stroke-width="0.024"/>
          <path id="Path_2231" data-name="Path 2231" d="M15.532,9.948c-.1-.079-.271-.157-.408-.248l-.061.128c.049.055.671.344.773.4a2.378,2.378,0,0,0-.3-.28Z" transform="translate(-13.504 -9.067)" fill="#ccb8c8"/>
          <path id="Path_2232" data-name="Path 2232" d="M15.1,9.689c.08.056.232.152.328.208.184.128.3.269.432.344" transform="translate(-13.484 -9.072)" fill="none" stroke="#000" stroke-width="0.017"/>
          <path id="Path_2233" data-name="Path 2233" d="M14.094,11.949l1.7-2.106a.149.149,0,0,1,.211.132l-1.612,2.2a.428.428,0,0,1-.3-.223Z" transform="translate(-13.988 -9.003)" fill="#782121" stroke="#000" stroke-width="0.022"/>
          <path id="Path_2234" data-name="Path 2234" d="M18.635,12.136a.377.377,0,0,1-.158.058c-.111-.13-.2-.267-.358-.436l-1.7-2.09.176-.169,1.53,1.791a7.857,7.857,0,0,1,.567.658.216.216,0,0,1-.057.19Z" transform="translate(-12.826 -9.168)" fill="#730000" stroke="#000" stroke-width="0.022"/>
          <path id="Path_2235" data-name="Path 2235" d="M17.161,9.9l-.274-.326s-.208.026-.247.137a.687.687,0,0,1-.547.274,1.2,1.2,0,0,0,.573.71s.169-.476.332-.56c0,0,.169-.124.163-.234Z" transform="translate(-12.989 -9.131)" fill="#fff" stroke="#000" stroke-width="0.022"/>
          <path id="Path_2236" data-name="Path 2236" d="M16.432,11.456a.169.169,0,0,0-.137.033c-.052.033-.117.019-.111-.046s0-.052.072-.1a.417.417,0,0,1,.326-.033l-.15.143m1.855-1.85a.144.144,0,0,1,.02-.15c.046-.052.046-.143-.065-.1s-.15.169-.059.358l.1-.111Z" transform="translate(-12.943 -9.243)" fill="#730000" stroke="#000" stroke-width="0.022"/>
          <path id="Path_2237" data-name="Path 2237" d="M16.324,11.417,18.251,9.5l.475.508s-.1-.039-.137-.013.039.124.039.124-.091-.033-.13-.007,0,.137,0,.137-.078-.059-.117-.033,0,.15,0,.15-.1-.032-.13-.007,0,.137,0,.137-.1-.052-.156,0,.026.124.026.124-.13-.052-.182.026a.129.129,0,0,0,.007.15s-.1-.052-.13-.026,0,.15,0,.15-.091-.052-.15.013a.092.092,0,0,0,.007.13s-.084-.052-.13-.026.013.15.013.15-.084-.059-.143,0a.1.1,0,0,0,0,.13.1.1,0,1,0-.143.143s-.1-.052-.143,0,.013.124.013.124-.078-.046-.13-.02,0,.143,0,.143-.078-.085-.111-.039.007.156.007.156-.072-.085-.111-.039.026.137.026.137-.13-.059-.1-.059Z" transform="translate(-12.874 -9.165)" fill="#fff" stroke="#000" stroke-width="0.022"/>
          <path id="Path_2238" data-name="Path 2238" d="M18.051,9.607l-.15.15.033.515s.033-.15.078-.046c0,0,.013-.124.046-.1a3.377,3.377,0,0,1-.006-.515m-.28.28-.111.1.039.515s.033-.2.078-.039c0,0-.007-.13-.007-.176,0,.033,0-.4,0-.4M16.606,11.04l-.1.111.026.313s.033-.2.078-.046c0,0-.013-.13-.013-.176,0,.033.013-.2.013-.2" transform="translate(-12.785 -9.113)" fill="#7e4b7e"/>
          <g id="Group_402" data-name="Group 402" transform="translate(2.385 0.637)">
            <path id="Path_2239" data-name="Path 2239" d="M16.612,9.7c.072.072.274.332.274.332M16.7,9.846a.532.532,0,0,1-.1.208m.129-.183a.3.3,0,0,1-.1.2m.13-.156a.221.221,0,0,1-.052.111m.072-.072c0,.033-.019.039-.026.059m-.215-.183a1.582,1.582,0,0,1-.319.189m.267-.117a.955.955,0,0,1-.208.143m.189-.065a.945.945,0,0,1-.156.111m.117-.033a.371.371,0,0,1-.1.078" transform="translate(-15.306 -9.702)" fill="none" stroke="#7e4b7e" stroke-width="0.039"/>
            <path id="Path_2240" data-name="Path 2240" d="M15.614,10.092a1.864,1.864,0,0,1,.107-.187.628.628,0,0,1,.12-.136" transform="translate(-15.614 -9.669)" fill="none" stroke="#7e4b7e" stroke-linecap="square" stroke-width="0.039"/>
          </g>
        </g>
      </g>
      <g id="Group_406" data-name="Group 406" transform="translate(15.766 9.806)">
        <path id="Path_2241" data-name="Path 2241" d="M11.6,13.831c.1.045,0-.319.032-.456s.319.352.456.417,1.016-.345,1.016-.345l.208-.391.111.319s.241-.28.313-.384,0,.208-.072.313.208.143.176.352.28-.143.28-.143l.807.072a2.75,2.75,0,0,1,.351-.769l.065.313.332-.339a4.394,4.394,0,0,0,2.754,2.618,4.438,4.438,0,0,0,2.682-2.442l.449.463a4.074,4.074,0,0,0,.417-.143,4.742,4.742,0,0,1,.827.267,1.141,1.141,0,0,1,.208.1c.072.052.019-.228.019-.228s.384.072.352.28c0,0,.085-.2.156-.228s.241.176.28.247.86.169.977.241a.381.381,0,0,1,.091.176s.176-.02.313-.02a.2.2,0,0,0-.1.163.259.259,0,0,1-.156.241c-.1.052,0,.091.137.1s0,.2-.28.3c0,0-.065.156.052.208,0,0-.241.02-.28-.052a.8.8,0,0,0-.084.247s-.26-.085-.332-.124c0,0-.1.1-.033.156,0,0-.475-.052-.566-.228,0,0-.169.052-.137.111a1.65,1.65,0,0,0-.436-.228l-.072.117a1.193,1.193,0,0,0-.3-.137c-.065,0-.013.1-.013.1l-.319-.2-.124.2a3.675,3.675,0,0,1-.332-.176c-.065-.052-.084.1-.137.124a.3.3,0,0,0-.247-.124.65.65,0,0,0-.032.228s-.4-.085-.475-.1-.033.085,0,.156a1.9,1.9,0,0,1-.365-.137l-.02.137a.809.809,0,0,1-.3-.072l-.156.215h-.228l-.052.189s-.436-.124-.475-.052a.246.246,0,0,0,.02.176l-.384-.052-.032.156s-.443-.137-.547-.072a.876.876,0,0,1-.228.176c-.084.039,0-.052,0-.052l-.137-.189s-.156.085-.247.052-.365.137-.456.084c0,0,0-.124-.071-.156a.194.194,0,0,0-.241.052s-.052-.072-.143-.208-.208.013-.208.013l-.02-.169-.241-.02a.209.209,0,0,1-.176-.143,2.737,2.737,0,0,1-.423.02l.091-.085a2.5,2.5,0,0,1-.612.065c-.111-.033.117-.176.117-.176s-.469-.117-.56-.137-.593.084-.664.084-.1-.117-.1-.117a.843.843,0,0,1-.228.137s-.085-.208-.032-.228c0,0-.332.091-.352.176,0,0-.084-.137-.072-.2a1.8,1.8,0,0,1-.228.3c-.072.052-.013-.124-.013-.124s-.2.247-.267.267v-.176s-.56.3-.716.261c0,0,0-.124.052-.156l-.352-.02c-.084-.013-.189-.052-.28-.072s.124-.1.267-.065c0,0-.391-.143-.508-.072,0,0-.052-.143.156-.2,0,0-.267-.26-.423-.241a.441.441,0,0,1,.319-.052s-.163-.443-.267-.495a1.343,1.343,0,0,1,.475-.013Z" transform="translate(-10.23 -3.411)" fill="#289400" stroke="#060" stroke-width="0.022"/>
        <g id="Group_405" data-name="Group 405">
          <path id="Path_2242" data-name="Path 2242" d="M11.338,9.318l4.74-2.455a.421.421,0,0,0-.124-.326,30.725,30.725,0,0,1-4.1,1.96,3.5,3.5,0,0,0-1.218.808.51.51,0,0,0-.131.3.739.739,0,0,0,.053.263.177.177,0,0,0,.082.1.115.115,0,0,0,.075.011c.034.006.09.006.169-.131a3.5,3.5,0,0,1,.449-.534Z" transform="translate(-10.511 -6.537)" fill="#730000" stroke="#000" stroke-width="0.022"/>
          <path id="Path_2243" data-name="Path 2243" d="M13.612,6.87l.612-.293s.208.156.189.332a1,1,0,0,0,.547.684,1.728,1.728,0,0,1-1.165.573s.085-.7-.071-.9c0,0-.026.025-.015-.01.022-.068-.015-.3-.11-.351-.012-.006.007-.025.013-.037Z" transform="translate(-8.969 -6.518)" fill="#fff" stroke="#000" stroke-width="0.022"/>
        </g>
      </g>
      <path id="Path_2244" data-name="Path 2244" d="M14.268,6.828c-.13.052-.553.273-.553.273m.352-.143a.706.706,0,0,0,0,.332m-.059-.312a.519.519,0,0,0,.007.306m-.071-.273a.272.272,0,0,0,0,.176M13.89,7.05a.183.183,0,0,0,0,.084m.384-.1a2.508,2.508,0,0,0,.3.436M14.3,7.153a1.293,1.293,0,0,0,.189.313m-.2-.2a1.13,1.13,0,0,0,.13.247m-.13-.117a.42.42,0,0,0,.078.163" transform="translate(6.857 3.414)" fill="none" stroke="#7e4b7e" stroke-width="0.035"/>
      <g id="Group_418" data-name="Group 418" transform="translate(16.33 9.009)">
        <path id="Path_2245" data-name="Path 2245" d="M17.134,6.882l1.741.853c.349.17.474.013.671.1l3.436,1.75c.295.129.46.17.417.323-.007.242.115.246.148.249a.245.245,0,0,0,.189-.075.366.366,0,0,0,.038-.046.187.187,0,0,0,.044-.06c.145-.208.225-.388.073-.506-.173-.081-.193.1-.375.083a2.859,2.859,0,0,1-.443-.208,3.968,3.968,0,0,1-.586-.333c-.219-.041-1.871-.97-2.807-1.436-.1-.084-.155-.395-.352-.5-.058-.084-1.324-.662-1.987-.993-.244-.091-.381-.154-.557.146-.154.294-.116.454.348.655Z" transform="translate(-7.977 -6.006)" fill="#b34b00" stroke="#000" stroke-width="0.022"/>
        <path id="Path_2246" data-name="Path 2246" d="M17.089,6.347l1.949.973" transform="translate(-7.785 -5.836)" fill="none" stroke="#000" stroke-width="0.022"/>
        <g id="Group_411" data-name="Group 411" transform="translate(0 0.298)">
          <path id="Path_2247" data-name="Path 2247" d="M14.292,7.045c-.013.039-.046.013-.046.026a1.637,1.637,0,0,1-.052.286.52.52,0,0,1-.2.169c-.13.039-.286.2-.54.052a.169.169,0,0,1-.039-.033.349.349,0,0,1-.189.4c-.091.046-1.009.528-1.009.528a.594.594,0,0,0-.033.417c.007.039.02.072-.02.1a.819.819,0,0,0-.234.384s-.2-.085-.2-.208.078-.189.1-.28a1.061,1.061,0,0,0,.046-.365c-.026-.072-.143-.1-.189-.124s-.091.026-.085.084.052.052.1.065a.539.539,0,0,0-.052.215l-.592.306s.078.1.1.15a3.785,3.785,0,0,0,.26.938c.176.287.234.208.273.247s.084.084.13.124.247.052.287-.059a.571.571,0,0,1,.2-.267c.124-.1.378-.345.378-.456a2.458,2.458,0,0,1,.13.788,7.051,7.051,0,0,0,1.035.124,2,2,0,0,0,.736-.1,2.445,2.445,0,0,0,.039-.488,2.106,2.106,0,0,0,.137.358c.065.111.137.338.28.352a.309.309,0,0,0,.267-.2v-.43h.553a1.477,1.477,0,0,0,.326.078c.078-.007.124-.078.052-.1l-.026-.019a.453.453,0,0,1,.163.045h.273c.007-.007,0-.026-.007-.033-.02-.078-.163-.143-.267-.189a1.387,1.387,0,0,0-.3-.091,1.265,1.265,0,0,0-.4.026,1.353,1.353,0,0,0-.371.084c-.033.02-.065.026-.052-.059a1.472,1.472,0,0,0-.084-.677.48.48,0,0,1-.052-.332,5.434,5.434,0,0,0,0-.567c-.02-.1-.163-.247-.423-.28a.543.543,0,0,1-.469-.4,2.453,2.453,0,0,1,.052-.592" transform="translate(-10.798 -5.785)" stroke="#000" stroke-width="0.022" fill="url(#radial-gradient)"/>
          <g id="Group_408" data-name="Group 408" transform="translate(2.334)">
            <path id="Path_2248" data-name="Path 2248" d="M12.491,6.582a2.288,2.288,0,0,0-.039.592,1.362,1.362,0,0,0,.13.43.525.525,0,0,0,.176.247c.228.15.443-.013.567-.065a.41.41,0,0,0,.176-.156,2.148,2.148,0,0,0,.052-.286.168.168,0,0,0,.046-.026,1.185,1.185,0,0,0,.078-.2c.033-.065-.039-.137-.117-.124a.631.631,0,0,0,.026-.378c-.013-.039.033-.143-.039-.117A2.586,2.586,0,0,1,12.6,6.6c-.026,0-.046-.052-.084-.045-.007,0-.013.019-.02.032" transform="translate(-12.438 -6.057)" stroke="#000" stroke-width="0.022" fill="url(#radial-gradient-2)"/>
            <path id="Path_2249" data-name="Path 2249" d="M12.469,6.84c-.033-.026-.039-.084,0-.208s0-.13.072-.2.052-.1.1-.124.182-.013.228-.033a.579.579,0,0,1,.189-.059.7.7,0,0,1,.384.039c.1.052.163.182.221.228s.1.234.091.508-.072.221-.072.221-.078-.13-.143-.02a1.35,1.35,0,0,1,.013-.182c.007-.078-.039-.221.007-.319A2.386,2.386,0,0,1,13,6.8c-.2-.013-.469-.059-.482-.1l-.046.143" transform="translate(-12.442 -6.205)" stroke="#000" stroke-width="0.022"/>
            <path id="Path_2250" data-name="Path 2250" d="M12.609,6.554c-.02-.039-.117-.182-.039-.228s.026.176.124.221c0,0-.033.1-.084.007Z" transform="translate(-12.393 -6.146)" fill="#fff" stroke="#fff" stroke-width="0.022"/>
            <path id="Path_2251" data-name="Path 2251" d="M12.749,6.833c-.033.111-.046.137-.059.2m.678.1c.013.039.026.019.058.026m.026-.254c.033-.039.078-.019.052.078" transform="translate(-12.318 -5.891)" fill="none" stroke="#000" stroke-width="0.022"/>
            <path id="Path_2252" data-name="Path 2252" d="M12.478,6.728a1.794,1.794,0,0,1,.176.065c.1.039.039.182.013.273-.013.046-.065.124-.039.163s.072.019.13.026c0-.019.039-.033.052-.033.046-.006.072.032.1.02s.033-.078.02-.111m-.007-.287c.007-.026.065-.052.1-.059a.4.4,0,0,1,.345.033M13,7.529a.449.449,0,0,1-.332-.013m0-.051c.052-.026.072-.052.137-.02a.317.317,0,0,1,.072-.026.24.24,0,0,1,.137.052m-.352.019a.883.883,0,0,1,.345.007" transform="translate(-12.424 -5.943)" fill="none" stroke="#000" stroke-width="0.022"/>
            <g id="Group_407" data-name="Group 407" transform="translate(0.041 0.909)">
              <path id="Path_2253" data-name="Path 2253" d="M12.475,6.84c.046-.006.1-.059.2.02.072.046-.117.091-.085.085-.084.013-.111-.033-.117-.072,0-.013-.013-.033,0-.033Zm.534.052c.046-.091.117-.072.182-.052a.291.291,0,0,1,.1.039c-.072.013-.052.019-.1.045s-.111.039-.15.013C13.028,6.925,13,6.905,13,6.879a.014.014,0,0,0,.013.013Z" transform="translate(-12.47 -6.808)" fill="#fff" stroke="#000" stroke-width="0.013"/>
              <path id="Path_2254" data-name="Path 2254" d="M12.551,6.921a.05.05,0,0,0,.046-.052.05.05,0,1,0-.1,0A.051.051,0,0,0,12.551,6.921Zm.554.013c.026,0,.046-.026.046-.059a.051.051,0,0,0-.052-.052.046.046,0,0,0-.046.052.057.057,0,0,0,.052.059Z" transform="translate(-12.455 -6.811)" stroke="#000" stroke-width="0.013"/>
            </g>
          </g>
          <g id="g" transform="translate(0.57 1.879)">
            <g id="Group_409" data-name="Group 409">
              <path id="Path_2255" data-name="Path 2255" d="M16.5,9.537a.246.246,0,0,0-.117-.085l-.13-.065c-.046-.026-.111-.033-.15-.059m.026.169-.052-.033c-.02-.006-.046-.006-.065-.013s-.007-.013-.013-.013a.223.223,0,0,1-.156-.084m-4.018-.6a.458.458,0,0,1,.215.332.67.67,0,0,0,.065.2m-.84-.5a1.587,1.587,0,0,0,.384.86m-.319-1.368c-.026.072-.059.137.013.189m.925.684c.072-.163.293-.15.293-.306" transform="translate(-11.266 -7.049)" fill="none" stroke="#000" stroke-width="0.022"/>
              <path id="Path_2256" data-name="Path 2256" d="M12.239,9.251a1.809,1.809,0,0,1-.026-.553,2.32,2.32,0,0,0,0-.521s.1.5-.234.6m2.2.8a1.142,1.142,0,0,1,.059-.4c.078-.358-.072-.495-.013-.586a.614.614,0,0,0,.026-.567s.182.671-.287.671-.456-.176-.456-.176" transform="translate(-10.91 -7.173)" fill="none" stroke="#000" stroke-width="0.022"/>
              <path id="Path_2257" data-name="Path 2257" d="M12.135,8.46c0,.137,0,.541.58.541a.842.842,0,0,0,.469-.208m.143-.176a3.068,3.068,0,0,1-.02-.443m-.873-.221a3.684,3.684,0,0,1,.573-.039m.02-.4c.033.143-.019.371.247.4m.28-.456a1.373,1.373,0,0,0-.052.28m.013.176a1.9,1.9,0,0,1,.579-.02m.091,1.458a.984.984,0,0,0,.228.4M12.382,9.02c.013.085-.111.365-.02.593a.788.788,0,0,1-.072.71m.423-1.217a1.733,1.733,0,0,0-.163.3m.423-.1a2.228,2.228,0,0,1-.3.7.384.384,0,0,1,.2.423m.469-1.348c0,.085-.013.1.059.156m.156,0c.084.1.351.417.293.593m-.469-.417a1.533,1.533,0,0,1-.039.573M13.2,9.965a.2.2,0,0,0-.2.176m.559-.2c.072-.02.215.1.215.456m1-.657c-.137.039-.2.111-.156.072a1.294,1.294,0,0,1-.137.1" transform="translate(-10.832 -7.458)" fill="none" stroke="#000" stroke-width="0.022"/>
            </g>
            <path id="Path_2258" data-name="Path 2258" d="M12.386,8.484a.066.066,0,0,0,.072-.059c0-.026-.032-.052-.072-.052a.056.056,0,1,0,0,.111Zm1.478.02a.064.064,0,0,0,.065-.059.059.059,0,0,0-.065-.052c-.039,0-.072.02-.072.052a.066.066,0,0,0,.072.059Z" transform="translate(-10.739 -7)" stroke="#000" stroke-width="0.013"/>
            <path id="Path_2259" data-name="Path 2259" d="M12.11,10.555a3.816,3.816,0,0,1,.326-.97,6.442,6.442,0,0,0,.677.091,3.131,3.131,0,0,0,.736.013c.189-.019.436-.052.436-.052a.891.891,0,0,1,.085.313c.02.332.143,1.771.156,2.156a4.057,4.057,0,0,1,.052.788c0,.612.169,1.856.169,2.52l-.169.033s-.925.072-.925-.052a20.775,20.775,0,0,1,.085-2.7,3.046,3.046,0,0,0-.085-.352,6.981,6.981,0,0,1-.28-.749s-.364,1.029-.384,1.2-.072,2.455-.1,2.644c0,0-.527.4-.6.443a1.285,1.285,0,0,1-.592-.28,13.4,13.4,0,0,1,.293-2.123,1.782,1.782,0,0,0,.039-.664c0-.124.007-1.758.085-2.266Z" transform="translate(-11.055 -6.394)" fill="#fff" stroke="#000" stroke-width="0.022"/>
            <path id="Path_2260" data-name="Path 2260" d="M12.842,12.75a.656.656,0,0,1-.228.371m-.176-3.433a1.332,1.332,0,0,1-.456.7m.911-.625a13.845,13.845,0,0,0-.4,2.9m-.019.456c-.013.137-.085,1.153-.1,1.328m-.052.2a4.536,4.536,0,0,0-.176,1.192m2.064-2.3a4.573,4.573,0,0,0,.228,1.791m-1.185-5.5c-.02.143-.052,1.068-.052,1.14a.3.3,0,0,0,.156.2s-.1.033-.124.384m-.261-.827a5.619,5.619,0,0,1-.2.723m.84-1.628s.313.065.332,0c0,0,.1,1.889.247,2.937m-.716-2.7c0,.124-.039,1.055-.039,1.055m.156.137s.124.176.091.26m-1.14-1.8c.1.033.2.052.2.052m.332.1a2.272,2.272,0,0,0-.039.293m.56,2.488a.287.287,0,0,1,.052.28" transform="translate(-10.908 -6.342)" fill="none" stroke="#000" stroke-width="0.022"/>
            <path id="Path_2261" data-name="Path 2261" d="M12.156,9.681a.643.643,0,0,1,.078-.313s.221.046.534.078a3.929,3.929,0,0,0,.807.033,4.35,4.35,0,0,0,.476-.084,1.13,1.13,0,0,1,.032.352,3.9,3.9,0,0,1-.534.065,5.442,5.442,0,0,1-.925-.052c-.215-.026-.4-.065-.469-.078Z" transform="translate(-10.821 -6.502)" fill="#9b5f00" stroke="#000" stroke-width="0.022"/>
            <path id="Path_2262" data-name="Path 2262" d="M12.291,9.7l.039-.313.065.006-.013.326Zm1.413-.26.007.352.078-.013-.006-.358Zm-1,0-.026.339h.046l.046-.339Z" transform="translate(-10.754 -6.494)" fill="#fff" stroke="#000" stroke-width="0.022"/>
            <path id="Path_2263" data-name="Path 2263" d="M11.832,13.786a2.317,2.317,0,0,0-.065.352c0,.033-.032.208.065.215.072.007.091-.182.091-.182s-.065.208.019.234c.117.026.13-.228.13-.228-.013.072-.091.254.02.273s.15-.247.15-.247-.1.267.019.274.111-.26.111-.26-.059.319.1.293c.084-.013.1-.124.124-.189a.594.594,0,0,0,.013-.423c-.052-.15-.032-.189-.032-.189s-.182.137-.326.228c-.065.039-.417-.15-.417-.15Zm1.9-.28c-.033-.02-.026.117-.039.182s.013.208.234.2a2.238,2.238,0,0,1,.566-.033,1.88,1.88,0,0,0,.449.046.659.659,0,0,0,.234-.033c.046-.019.143.026.189.026s.117-.072.111-.117c-.007-.085-.084-.085-.2-.091a1.871,1.871,0,0,1-.319-.059,1.976,1.976,0,0,0-.365-.13s-.313.013-.377.013a4.1,4.1,0,0,1-.489,0Z" transform="translate(-11.018 -4.44)" fill="#ffa54b" stroke="#000" stroke-width="0.022"/>
          </g>
          <g id="Group_410" data-name="Group 410" transform="translate(0 2.328)">
            <path id="Path_2264" data-name="Path 2264" d="M10.922,8.272c-.032.02-.072-.13.026-.189,0,0,.026-.124.13-.137a.254.254,0,0,1,.208-.1s.143-.1.2-.085a.4.4,0,0,1,.189.182.188.188,0,0,1-.033.156c-.039.039-.065-.007-.072-.059a.121.121,0,0,1-.052.137c-.078.046-.072.013-.078-.039,0,0-.02.1-.072.117s-.084-.026-.124-.026c0,0,.065.052.02.091a.107.107,0,0,1-.13-.006c-.033-.033-.072-.117-.208-.039Z" transform="translate(-10.887 -7.756)" fill="#ffb366" stroke="#000" stroke-width="0.022"/>
            <path id="Path_2265" data-name="Path 2265" d="M11.533,8a.255.255,0,0,0-.26-.182m.143.28c-.02-.026-.026-.052-.046-.078-.059-.1-.182-.091-.287-.117m.156.293c-.039-.026-.052-.078-.091-.1a.379.379,0,0,0-.208-.046" transform="translate(-10.859 -7.726)" fill="none" stroke="#000" stroke-width="0.022"/>
          </g>
        </g>
        <g id="Group_417" data-name="Group 417" transform="translate(9.399 0.357)">
          <path id="Path_2266" data-name="Path 2266" d="M19.529,7.046c.046-.02.033.039.039.059a1.613,1.613,0,0,0,.052.254c.039.072.052.1.117.13.1.059.41.228.625.091a.2.2,0,0,0,.046-.033.34.34,0,0,0,.189.4l1,.527a.617.617,0,0,1,.039.417c-.013.039-.026.072.013.1a.817.817,0,0,1,.241.384s.189-.085.189-.208-.078-.189-.1-.28a1.227,1.227,0,0,1-.039-.365c.026-.072.137-.1.182-.124s.1.026.085.084-.052.052-.1.065a.442.442,0,0,1,.052.215l.6.306s-.078.1-.1.15a4.245,4.245,0,0,1-.267.938c-.176.287-.235.208-.267.247s-.091.085-.137.124-.241.052-.287-.059a.572.572,0,0,0-.2-.267c-.124-.1-.378-.345-.378-.456a2.462,2.462,0,0,0-.13.788,6.926,6.926,0,0,1-1.035.124,2,2,0,0,1-.736-.1,2.453,2.453,0,0,1-.039-.488,2.612,2.612,0,0,1-.13.358c-.072.111-.143.339-.28.352a.319.319,0,0,1-.273-.2v-.43H17.94a1.393,1.393,0,0,1-.326.078c-.078-.007-.117-.078-.052-.1l.026-.019a.452.452,0,0,0-.163.045h-.273c0-.007.007-.026.007-.033.02-.078.163-.143.273-.189a1.34,1.34,0,0,1,.293-.091,1.271,1.271,0,0,1,.4.026,1.308,1.308,0,0,1,.371.085c.033.019.072.026.052-.059a.844.844,0,0,1,.02-.534.565.565,0,0,0,.052-.332c-.013-.111-.072-.358-.072-.469a.628.628,0,0,1,.527-.593c.273-.084.456-.176.443-.338s.039-.449.013-.58" transform="translate(-17.152 -5.845)" stroke="#000" stroke-width="0.022" fill="url(#radial-gradient-3)"/>
          <g id="Group_413" data-name="Group 413" transform="translate(2.223)">
            <path id="Path_2267" data-name="Path 2267" d="M19.872,6.582a1.29,1.29,0,0,1,.072.339c0,.078-.033.091-.007.176a.685.685,0,0,1-.156.508c-.052.084-.091.2-.176.247-.215.137-.475-.026-.612-.085a.239.239,0,0,1-.13-.137,1.9,1.9,0,0,1-.052-.254c0-.02.007-.078-.039-.059a.537.537,0,0,1-.1-.2c-.033-.065.059-.137.13-.124a.629.629,0,0,1-.02-.378c.013-.039-.033-.143.033-.117a2.586,2.586,0,0,0,.951.091c.026,0,.045-.052.084-.045.006,0,.013.02.019.033" transform="translate(-18.617 -6.116)" stroke="#000" stroke-width="0.022" fill="url(#radial-gradient-4)"/>
            <path id="Path_2268" data-name="Path 2268" d="M19.915,6.82c.033-.026.013-.15-.02-.28-.013-.065-.065-.091-.137-.163a.308.308,0,0,0-.143-.091c-.039-.013-.13-.013-.176-.033a.605.605,0,0,0-.241.007.809.809,0,0,0-.3.065.385.385,0,0,0-.208.208.843.843,0,0,0-.052.436c.013.273.065.221.065.221s.072-.1.117-.039c0,0-.007-.143-.02-.228a.833.833,0,0,1,.033-.293,1.948,1.948,0,0,0,.579.111c.2,0,.449-.02.456-.065l.045.143Z" transform="translate(-18.634 -6.244)" stroke="#000" stroke-width="0.022"/>
            <path id="Path_2269" data-name="Path 2269" d="M19.451,6.833c.039.111.007.078.026.15m-.658.13c0,.052-.039.039-.065.039" transform="translate(-18.574 -5.95)" fill="none" stroke="#000" stroke-width="0.022"/>
            <path id="Path_2270" data-name="Path 2270" d="M19.8,6.784c-.059-.046-.169-.013-.221.007-.1.045-.046.143-.013.234.013.045.065.111.033.156s-.046.026-.1.033c.007-.02-.052,0-.071,0-.039-.006-.059.026-.091.013s-.033-.078-.02-.111m.006-.287c0-.026-.084-.052-.176-.059a.306.306,0,0,0-.267.085m.736.573c-.026-.039-.065-.059-.137-.026,0-.013-.1-.026-.1-.026a.284.284,0,0,0-.137.045m.358.039c-.059-.039-.208-.013-.358-.013m.013.052a.448.448,0,0,0,.332,0" transform="translate(-18.513 -5.985)" fill="none" stroke="#000" stroke-width="0.022"/>
            <g id="Group_412" data-name="Group 412" transform="translate(0.447 0.85)">
              <path id="Path_2271" data-name="Path 2271" d="M19.746,6.84c-.046-.006-.065-.059-.2.02-.072.039.117.091.091.085a.084.084,0,0,0,.111-.072c0-.013.013-.033,0-.033Zm-.534.052c0-.052-.117-.072-.182-.052a.258.258,0,0,0-.1.039c.065.013.046.019.1.045s.072.052.15.013a.1.1,0,0,0,.052-.059c-.006.006-.013.013-.02.013Z" transform="translate(-18.932 -6.808)" fill="#fff" stroke="#000" stroke-width="0.013"/>
              <path id="Path_2272" data-name="Path 2272" d="M19.62,6.922a.051.051,0,0,1-.052-.052.053.053,0,0,1,.052-.059.053.053,0,0,1,.046.059A.05.05,0,0,1,19.62,6.922Zm-.56.013c-.026,0-.046-.026-.046-.059a.051.051,0,0,1,.052-.052.046.046,0,0,1,.046.052A.053.053,0,0,1,19.06,6.934Z" transform="translate(-18.891 -6.811)" stroke="#000" stroke-width="0.013"/>
            </g>
          </g>
          <g id="Group_415" data-name="Group 415" transform="translate(5.296 11.89) rotate(180)">
            <g id="Group_414" data-name="Group 414" transform="translate(0 7.106)">
              <path id="Path_2273" data-name="Path 2273" d="M5.235.1a.246.246,0,0,1-.117.085l-.13.065c-.046.026-.111.033-.15.059M4.864.143,4.812.176c-.02.006-.046.006-.065.013S4.74.2,4.734.2a.223.223,0,0,0-.156.084M.56.886A.458.458,0,0,0,.775.554.67.67,0,0,1,.84.358M0,.86A1.587,1.587,0,0,1,.384,0M.065,1.368C.039,1.3.007,1.231.078,1.179M1,.495C1.075.658,1.3.645,1.3.8" transform="translate(0 0.371)" fill="none" stroke="#000" stroke-width="0.022"/>
              <path id="Path_2274" data-name="Path 2274" d="M.26.326A1.809,1.809,0,0,0,.234.879a2.32,2.32,0,0,1,0,.521S.339.9,0,.8M2.2,0a1.142,1.142,0,0,0,.059.4c.078.358-.072.495-.013.586a.614.614,0,0,1,.026.567S2.455.879,1.986.879s-.456.176-.456.176" transform="translate(1.068 0.56)" fill="none" stroke="#000" stroke-width="0.022"/>
              <path id="Path_2275" data-name="Path 2275" d="M0,1.96c0-.137,0-.541.58-.541a.842.842,0,0,1,.469.208m.143.176a3.068,3.068,0,0,0-.02.443M.3,2.468a3.684,3.684,0,0,0,.573.039m.02.4c.033-.143-.019-.371.247-.4m.28.456a1.373,1.373,0,0,1-.052-.28m.013-.176a1.9,1.9,0,0,0,.579.02m.091-1.458a.984.984,0,0,1,.228-.4M.248,1.4C.261,1.316.137,1.036.228.808A.788.788,0,0,0,.156.1M.58,1.315a1.733,1.733,0,0,1-.163-.3m.423.1a2.228,2.228,0,0,0-.3-.7A.384.384,0,0,0,.735,0M1.2,1.348c0-.085-.013-.1.059-.156m.156,0c.084-.1.351-.417.293-.593m-.469.417A1.533,1.533,0,0,0,1.2.443M1.068.456A.2.2,0,0,1,.873.28m.559.2c.072.02.215-.1.215-.456m1,.657c-.137-.039-.2-.111-.156-.072a1.294,1.294,0,0,0-.137-.1" transform="translate(1.302)" fill="none" stroke="#000" stroke-width="0.022"/>
            </g>
            <path id="Path_2276" data-name="Path 2276" d="M.065.02A.066.066,0,0,1,.137.079C.137.1.1.131.065.131A.064.064,0,0,1,0,.078.064.064,0,0,1,.065.02ZM1.544,0a.064.064,0,0,1,.065.059.059.059,0,0,1-.065.052c-.039,0-.072-.02-.072-.052A.066.066,0,0,1,1.544,0Z" transform="translate(1.582 8.565)" stroke="#000" stroke-width="0.013"/>
            <path id="Path_2277" data-name="Path 2277" d="M.42,5.337a3.816,3.816,0,0,0,.326.97,6.442,6.442,0,0,1,.677-.091A3.131,3.131,0,0,1,2.158,6.2c.189.019.436.052.436.052a.891.891,0,0,0,.085-.313c.02-.332.143-1.771.156-2.156A4.057,4.057,0,0,0,2.887,3c0-.612.169-1.856.169-2.52L2.887.446S1.963.374,1.963.5a20.775,20.775,0,0,0,.085,2.7,3.046,3.046,0,0,1-.085.352,6.98,6.98,0,0,0-.28.749S1.318,3.266,1.3,3.09,1.227.635,1.195.446c0,0-.527-.4-.6-.443A1.285,1.285,0,0,0,0,.283,13.4,13.4,0,0,0,.3,2.406a1.782,1.782,0,0,1,.039.664c0,.124.007,1.758.085,2.266Z" transform="translate(0.635 0.572)" fill="#fff" stroke="#000" stroke-width="0.022"/>
            <path id="Path_2278" data-name="Path 2278" d="M.86,3.087a.656.656,0,0,0-.228-.371M.456,6.148A1.332,1.332,0,0,0,0,5.451m.911.625a13.845,13.845,0,0,1-.4-2.9M.488,2.716C.475,2.579.4,1.563.384,1.387m-.052-.2A4.536,4.536,0,0,1,.157,0M2.22,2.3A4.573,4.573,0,0,1,2.448.508m-1.185,5.5c-.02-.143-.052-1.068-.052-1.14a.3.3,0,0,1,.156-.2s-.1-.033-.124-.384m-.261.827a5.619,5.619,0,0,0-.2-.723m.84,1.628s.313-.065.332,0c0,0,.1-1.889.247-2.937m-.716,2.7c0-.124-.039-1.055-.039-1.055m.156-.137s.124-.176.091-.26M.56,6.128c.1-.033.2-.052.2-.052m.332-.1a2.272,2.272,0,0,1-.039-.293m.56-2.488a.287.287,0,0,0,.052-.28" transform="translate(1.074 0.574)" fill="none" stroke="#000" stroke-width="0.022"/>
            <path id="Path_2279" data-name="Path 2279" d="M0,.135A.643.643,0,0,0,.078.448S.3.4.612.369A3.929,3.929,0,0,1,1.419.337a4.35,4.35,0,0,1,.476.084A1.13,1.13,0,0,0,1.927.07,3.9,3.9,0,0,0,1.393,0,5.442,5.442,0,0,0,.469.057C.254.083.065.122,0,.135Z" transform="translate(1.335 6.756)" fill="#9b5f00" stroke="#000" stroke-width="0.022"/>
            <path id="Path_2280" data-name="Path 2280" d="M0,.091.039.4.1.4.091.072Zm1.413.26L1.42,0,1.5.013,1.491.371Zm-1,0L.384.013H.43L.476.352Z" transform="translate(1.537 6.774)" fill="#fff" stroke="#000" stroke-width="0.022"/>
            <path id="Path_2281" data-name="Path 2281" d="M.07.724A2.317,2.317,0,0,1,.005.373C.005.34-.027.164.07.158.142.151.162.34.162.34S.1.132.181.106C.3.08.311.334.311.334.3.262.22.08.331.06S.48.308.48.308.383.041.5.034s.111.26.111.26S.552-.025.708,0c.084.013.1.124.124.189A.594.594,0,0,1,.845.614C.793.763.813.8.813.8S.63.666.487.575C.422.536.07.724.07.724Zm1.9.28c-.033.02-.026-.117-.039-.182s.013-.208.234-.2A2.238,2.238,0,0,0,2.734.66,1.88,1.88,0,0,1,3.183.614a.659.659,0,0,1,.234.033c.046.019.143-.026.189-.026s.117.072.111.117c-.007.085-.084.085-.2.091A1.871,1.871,0,0,0,3.2.887a1.976,1.976,0,0,1-.365.13S2.525,1,2.46,1a4.1,4.1,0,0,0-.489,0Z" transform="translate(0.744 0)" fill="#ffa54b" stroke="#000" stroke-width="0.022"/>
          </g>
          <g id="Group_416" data-name="Group 416" transform="translate(5 2.498)">
            <path id="Path_2282" data-name="Path 2282" d="M21.21,8.43c.033.013.124-.13.033-.2,0,0-.033-.124-.137-.13A.239.239,0,0,0,20.9,8s-.137-.1-.189-.091a.422.422,0,0,0-.2.189.229.229,0,0,0,.033.156c.039.033.065-.007.072-.065a.132.132,0,0,0,.052.143c.078.045.072.006.078-.045,0,0,.02.1.072.124s.085-.026.124-.026c0,0-.065.052-.02.085a.1.1,0,0,0,.13-.007c.039-.026.02-.111.156-.033Z" transform="translate(-20.473 -7.909)" fill="#730000" stroke="#000" stroke-width="0.022"/>
            <path id="Path_2283" data-name="Path 2283" d="M20.586,8.158a.246.246,0,0,1,.26-.182m-.137.28a.433.433,0,0,1,.039-.078c.059-.1.189-.1.293-.117m-.163.286c.039-.026.052-.072.091-.091a.338.338,0,0,1,.208-.046" transform="translate(-20.435 -7.877)" fill="none" stroke="#000" stroke-width="0.022"/>
            <path id="Path_2284" data-name="Path 2284" d="M20.62,7.969a.383.383,0,0,0-.122.146.228.228,0,0,0,.032.156c.035.029.061,0,.07-.05a.124.124,0,0,0,.054.128c.078.045.072.006.078-.046,0,0,.02.1.072.124s.085-.026.124-.026c0,0-.066.052-.02.084a.1.1,0,0,0,.13-.006c.039-.026.019-.11.156-.032.017.007.051-.029.066-.074l-.492-.354Z" transform="translate(-20.481 -7.879)" fill="#730000"/>
            <path id="Path_2285" data-name="Path 2285" d="M20.521,8.05c-.1.165.032.264.074.168-.012.153.1.147.146.1.042.161.117.089.186.074-.078.147.095.1.136.069.059-.087.087-.018.13-.027l.074-.08m-.511-.365a.265.265,0,0,0-.162.237m.311-.141a.265.265,0,0,0-.162.237m.346-.112c-.108.057-.113.11-.16.181" transform="translate(-20.486 -7.869)" fill="none" stroke="#000" stroke-width="0.022"/>
          </g>
        </g>
      </g>
      <path id="Path_2286" data-name="Path 2286" d="M12.382,14.02l-.013-.3.124.1.033-.228c.052-.013.137.091.137.091l-.013-.228.189.208a.559.559,0,0,1,.052-.28.423.423,0,0,1,.143.267c0,.124.124-.176.124-.176l.1.332.084-.124.072.26.156-.228.124.267.28-.02.033.156.124-.137.163.1a1.069,1.069,0,0,1,.208-.039c.072,0,.156.091.156.091a.434.434,0,0,1,.1-.124c.052-.032.124.052.143.1l.1-.189a1.08,1.08,0,0,1,.156.189.781.781,0,0,1,.052-.208c.033-.052.084.02.124.085l.084-.28a.27.27,0,0,1,.156.124c.072.1.072-.156.072-.156a1.421,1.421,0,0,1,.2.351,5.036,5.036,0,0,1-1.838.269c-.895-.119-1.632-.288-1.632-.288m7.391-.032a.713.713,0,0,1,.124-.215s.137.163.137.215a.909.909,0,0,0,.111-.072l.1.1.124-.084.117.1.215-.091.085.091L21.12,14l.124.052.117-.15.111.117.176-.176a.444.444,0,0,1,.1.124.621.621,0,0,0,.176-.124s.137-.052.156.033c0,0,.085-.065.078-.137s.1-.02.13.071c0,0,.039-.143.143-.156a.324.324,0,0,1,.052.241.882.882,0,0,1,.228-.137.761.761,0,0,1-.019.332s.163-.267.2-.176a.747.747,0,0,1,.013.351l.143-.091.052.176.156-.033a8.414,8.414,0,0,1-1.8.059,7.473,7.473,0,0,1-1.688-.391m-.644.647a1.251,1.251,0,0,1-1.1.723,4.228,4.228,0,0,1-2.085-.508,1.233,1.233,0,0,1,.189-.248.713.713,0,0,1,.208.28.714.714,0,0,1,.072-.2s.2.091.228.215a.613.613,0,0,1,.124-.156c.052-.039.1.137.1.241,0,0,.124-.13.2-.137a.385.385,0,0,1,.176.293s.13-.124.176-.1c0,0,.156.1.117.247-.019.078.156-.091.371-.143l.189.143s.176-.234.228-.313c0,0,.143.052.143.137,0,0,.065-.248.117-.273s.124.078.124.15c0,0,.02-.189.124-.228,0,0,.1.072.1.143a.93.93,0,0,1,.2-.267Z" transform="translate(6.185 6.694)" fill="#5ac800"/>
      <path id="Path_2287" data-name="Path 2287" d="M12.382,14.02l-.013-.3.124.1.033-.228c.052-.013.137.091.137.091l-.013-.228.189.208a.558.558,0,0,1,.052-.28.423.423,0,0,1,.143.267c0,.124.124-.176.124-.176l.1.332.084-.124.072.26.156-.228.124.267.28-.02.033.156.124-.137.163.1a1.067,1.067,0,0,1,.208-.039c.072,0,.156.091.156.091a.432.432,0,0,1,.1-.124c.052-.033.124.052.143.1l.1-.189a1.075,1.075,0,0,1,.156.189.782.782,0,0,1,.052-.208c.033-.052.084.02.124.085l.085-.28a.27.27,0,0,1,.156.124c.072.1.072-.156.072-.156a1.43,1.43,0,0,1,.2.352m3.92-.052a.714.714,0,0,1,.124-.215s.137.163.137.215a.908.908,0,0,0,.111-.071l.1.1.124-.084.117.1.215-.091.084.091L21.12,14l.124.052.117-.15.111.117.176-.176a.442.442,0,0,1,.1.124.628.628,0,0,0,.176-.124s.137-.052.156.032c0,0,.084-.065.078-.137s.1-.019.13.072c0,0,.039-.143.143-.156a.324.324,0,0,1,.052.241.89.89,0,0,1,.228-.137.76.76,0,0,1-.019.332s.163-.267.2-.176a.749.749,0,0,1,.013.352l.143-.091.052.176.156-.033m-7.316.53a1.231,1.231,0,0,1,.189-.247.713.713,0,0,1,.208.28.715.715,0,0,1,.072-.2s.2.091.228.215a.614.614,0,0,1,.124-.156c.052-.039.1.137.1.241,0,0,.124-.13.2-.137a.385.385,0,0,1,.176.293s.13-.124.176-.1c0,0,.156.1.117.247-.019.078.156-.091.371-.143l.189.143s.176-.234.228-.313c0,0,.143.052.143.137,0,0,.065-.248.117-.273s.124.078.124.15c0,0,.02-.189.124-.228,0,0,.1.072.1.143a.94.94,0,0,1,.2-.267" transform="translate(6.185 6.694)" fill="none" stroke="#060" stroke-width="0.022"/>
      <g id="Group_419" data-name="Group 419" transform="translate(18.554 21.483)">
        <path id="Path_2288" data-name="Path 2288" d="M17.78,16.966a4.648,4.648,0,0,0,2.806-.84c1.113-.749,1.348-.775,1.53-.762.208.02.514.091.527.274.02.28-.436.4-.7.4a6.416,6.416,0,0,1-.964-.176l-.182.124c.124.059,1.55.534,1.823.085a8.851,8.851,0,0,0,.56-1.192,1.193,1.193,0,0,0-1.009-.56,3.385,3.385,0,0,0-1.843.775,3.645,3.645,0,0,1-2.553.788,3.664,3.664,0,0,1-2.559-.788,3.384,3.384,0,0,0-1.836-.775,1.2,1.2,0,0,0-1.016.56,8.823,8.823,0,0,0,.56,1.192c.273.449,1.7-.026,1.823-.085l-.176-.124a6.585,6.585,0,0,1-.964.176c-.267,0-.723-.124-.7-.4.013-.182.319-.254.527-.274.182-.013.417.013,1.53.762a4.8,4.8,0,0,0,2.813.84" transform="translate(-12.369 -14.322)" fill="#fff"/>
        <path id="Path_2289" data-name="Path 2289" d="M14.641,15.175s0-.124-.02-.306c-.026-.234-.163-.293-.273-.26a.93.93,0,0,0-.215.2v.007a2.072,2.072,0,0,0-.2-.124,1.315,1.315,0,0,1,.423-.241,5.05,5.05,0,0,1,1.25.612,1.045,1.045,0,0,1,.085.6,3.1,3.1,0,0,1-1.048-.482v-.007m-.43.912a.838.838,0,0,0-.2.553c-.007.423.3.443.5.436.241-.007.436-.143.43-.593a4.854,4.854,0,0,1-.729-.4m5.138-.912s.007-.124.026-.306c.026-.234.156-.293.267-.26a.93.93,0,0,1,.215.2v.007a2.061,2.061,0,0,1,.2-.124,1.353,1.353,0,0,0-.417-.241,4.968,4.968,0,0,0-1.257.612,1.165,1.165,0,0,0-.085.6,3.034,3.034,0,0,0,1.048-.482v-.007m.429.912a.839.839,0,0,1,.2.553c.013.423-.3.443-.5.436-.241-.007-.43-.143-.43-.593a4.858,4.858,0,0,0,.729-.4" transform="translate(-11.588 -14.257)" fill="#fff"/>
      </g>
      <path id="Path_2290" data-name="Path 2290" d="M14.39,15.749a6.456,6.456,0,0,1-.957.176c-.267,0-.723-.124-.7-.4.013-.182.319-.254.527-.273.156-.013.358.006,1.133.5m6.414,0a6.411,6.411,0,0,0,.964.176c.26,0,.716-.124.7-.4-.013-.182-.319-.254-.527-.273-.156-.013-.358.006-1.133.5m-5.561-.619c-.072-.052-.143-.1-.209-.156-.1-.072-.2-.137-.3-.208,0,0,.143-.182.215-.2.111-.039.247.019.273.254.02.182.02.313.02.313m-.475,1.837a.585.585,0,0,0,.345.059c.241-.007.436-.143.43-.593a4.028,4.028,0,0,0,.788.267.552.552,0,0,1,.091.293c.02.163-.091.339-.221.326,0,0-.684-.124-1.1-.2a.578.578,0,0,1-.332-.156m5.183-1.837.215-.156c.091-.072.189-.137.293-.208,0,0-.143-.182-.215-.2-.111-.039-.241.019-.267.254-.02.182-.026.313-.026.313m.475,1.837a.585.585,0,0,1-.345.059c-.241-.007-.43-.143-.43-.593a4.058,4.058,0,0,1-.781.267.522.522,0,0,0-.1.293c-.013.163.1.339.221.326,0,0,.69-.124,1.1-.2a.577.577,0,0,0,.332-.156" transform="translate(6.364 7.276)" fill="#69f"/>
      <g id="Group_420" data-name="Group 420" transform="translate(18.554 21.482)">
        <path id="Path_2291" data-name="Path 2291" d="M17.78,16.966a4.65,4.65,0,0,0,2.806-.84c1.113-.749,1.348-.775,1.53-.762.208.02.515.091.527.273.02.28-.436.4-.7.4a6.424,6.424,0,0,1-.964-.176l-.182.124c.124.059,1.55.534,1.823.084a8.819,8.819,0,0,0,.56-1.192,1.193,1.193,0,0,0-1.009-.56,3.385,3.385,0,0,0-1.843.775,3.643,3.643,0,0,1-2.552.788,3.665,3.665,0,0,1-2.559-.788,3.385,3.385,0,0,0-1.836-.775,1.2,1.2,0,0,0-1.016.56,8.816,8.816,0,0,0,.56,1.192c.273.449,1.7-.026,1.823-.084l-.176-.124a6.6,6.6,0,0,1-.964.176c-.267,0-.723-.123-.7-.4.013-.182.319-.254.527-.274.182-.013.417.013,1.53.762a4.794,4.794,0,0,0,2.813.84Z" transform="translate(-12.369 -14.322)" fill="none" stroke="#000" stroke-width="0.03"/>
        <path id="Path_2292" data-name="Path 2292" d="M14.39,15.749a6.458,6.458,0,0,1-.957.176c-.267,0-.723-.124-.7-.4.013-.182.319-.254.527-.273.156-.013.358.006,1.133.5Zm6.413,0a6.413,6.413,0,0,0,.964.176c.26,0,.716-.124.7-.4-.013-.182-.319-.254-.527-.273-.156-.013-.358.007-1.133.5Zm-5.56-.619c-.072-.052-.143-.1-.209-.156-.1-.072-.2-.137-.3-.208,0,0,.143-.182.215-.2.111-.039.247.019.273.254.02.182.02.313.02.313Z" transform="translate(-12.189 -14.206)" fill="none" stroke="#000" stroke-width="0.03"/>
        <path id="Path_2293" data-name="Path 2293" d="M14.641,15.175s0-.124-.02-.306c-.026-.234-.163-.293-.273-.26a.938.938,0,0,0-.215.2v.007a2.125,2.125,0,0,0-.2-.124,1.314,1.314,0,0,1,.423-.241,5.047,5.047,0,0,1,1.25.612,1.046,1.046,0,0,1,.085.6,3.108,3.108,0,0,1-1.049-.482m-.43.905a.839.839,0,0,0-.2.553c-.007.423.3.443.5.436.241-.007.436-.143.43-.593a4.847,4.847,0,0,1-.729-.4Z" transform="translate(-11.588 -14.257)" fill="none" stroke="#000" stroke-width="0.03"/>
        <path id="Path_2294" data-name="Path 2294" d="M14.288,15.606a.773.773,0,0,0-.182.43.27.27,0,0,0,.3.313c.247-.013.345-.351.228-.54Z" transform="translate(-11.501 -13.679)" fill="none" stroke="#000" stroke-width="0.03"/>
        <path id="Path_2295" data-name="Path 2295" d="M14.088,16.967a.586.586,0,0,0,.345.059c.241-.007.436-.143.43-.593a4.035,4.035,0,0,0,.788.267.551.551,0,0,1,.091.293c.02.163-.091.339-.221.325,0,0-.684-.124-1.1-.2a.579.579,0,0,1-.332-.156Zm5.183-1.837.215-.156c.091-.072.189-.137.293-.208,0,0-.143-.182-.215-.2-.111-.039-.241.019-.267.254q-.017.156-.026.313h0Z" transform="translate(-11.51 -14.206)" fill="none" stroke="#000" stroke-width="0.03"/>
        <path id="Path_2296" data-name="Path 2296" d="M17.9,15.175s.007-.124.026-.306c.026-.234.156-.293.267-.26a.936.936,0,0,1,.215.2v.007a2.124,2.124,0,0,1,.2-.124,1.356,1.356,0,0,0-.417-.241,4.961,4.961,0,0,0-1.257.612,1.165,1.165,0,0,0-.085.6,3.047,3.047,0,0,0,1.048-.482m.429.905a.839.839,0,0,1,.2.553c.013.423-.3.443-.5.436-.241-.007-.43-.143-.43-.593a4.848,4.848,0,0,0,.729-.4Z" transform="translate(-10.135 -14.257)" fill="none" stroke="#000" stroke-width="0.03"/>
        <path id="Path_2297" data-name="Path 2297" d="M17.852,15.606a.773.773,0,0,1,.182.43.267.267,0,0,1-.3.313c-.247-.013-.339-.351-.228-.54Z" transform="translate(-9.824 -13.679)" fill="none" stroke="#000" stroke-width="0.03"/>
        <path id="Path_2298" data-name="Path 2298" d="M18.412,16.34a.586.586,0,0,1-.345.059c-.241-.007-.43-.143-.43-.593a4.064,4.064,0,0,1-.781.267.522.522,0,0,0-.1.293c-.013.163.1.339.221.325,0,0,.69-.124,1.1-.2a.579.579,0,0,0,.332-.156Z" transform="translate(-10.175 -13.579)" fill="none" stroke="#000" stroke-width="0.03"/>
      </g>
      <path id="Path_2299" data-name="Path 2299" d="M15.31,16.1s.215.156-.046.352m-.6-.456.658.287m-.548-.137.482.208m-.312-.332.365.163m2.643-.085s-.221.156.039.352m.6-.456-.658.287m.553-.137-.482.208m.306-.332-.358.163" transform="translate(7.333 7.997)" fill="none" stroke="#fff" stroke-width="0.03"/>
      <path id="Path_2300" data-name="Path 2300" d="M13.509,14.842a.134.134,0,0,1,.018.047.173.173,0,0,1,0,.055.156.156,0,0,1-.077.11.2.2,0,0,1-.144.021.245.245,0,0,1-.073-.026.29.29,0,0,1-.059-.04l-.022.025-.031-.006c.01-.063.02-.126.03-.189l.032.006a.4.4,0,0,0,.011.067.22.22,0,0,0,.025.059.157.157,0,0,0,.041.045.16.16,0,0,0,.109.027.082.082,0,0,0,.036-.013.088.088,0,0,0,.025-.027.118.118,0,0,0,.013-.039.114.114,0,0,0-.007-.065.117.117,0,0,0-.048-.054l-.054-.033q-.027-.016-.052-.034a.181.181,0,0,1-.063-.069.142.142,0,0,1-.009-.093.136.136,0,0,1,.024-.056.151.151,0,0,1,.046-.041.168.168,0,0,1,.06-.022.192.192,0,0,1,.067,0,.194.194,0,0,1,.067.025.327.327,0,0,1,.05.038l.021-.023.031.006-.032.183-.032-.006q0-.032-.008-.064a.237.237,0,0,0-.018-.057.13.13,0,0,0-.034-.044.123.123,0,0,0-.057-.025.092.092,0,0,0-.068.012.077.077,0,0,0-.037.052.1.1,0,0,0,.006.062.123.123,0,0,0,.042.048.609.609,0,0,0,.052.034l.049.031a.355.355,0,0,1,.041.031.181.181,0,0,1,.032.037m.8.112-.031-.012a.094.094,0,0,0-.037-.006.055.055,0,0,0-.034.024.378.378,0,0,0-.038.058l-.117.213a.161.161,0,0,1-.056.061.168.168,0,0,1-.072.024.216.216,0,0,1-.073,0,.277.277,0,0,1-.063-.025.286.286,0,0,1-.073-.055.2.2,0,0,1-.041-.064.148.148,0,0,1-.01-.065.138.138,0,0,1,.017-.059l.16-.289a.06.06,0,0,0,.007-.023.047.047,0,0,0-.008-.024.1.1,0,0,0-.018-.02l-.02-.016.013-.025.207.114L14,14.786l-.026-.01-.025-.007a.028.028,0,0,0-.023.005.06.06,0,0,0-.016.019l-.149.27a.222.222,0,0,0-.018.044.118.118,0,0,0-.005.05.113.113,0,0,0,.02.051.163.163,0,0,0,.058.047.177.177,0,0,0,.071.024.124.124,0,0,0,.058-.009.133.133,0,0,0,.042-.028.169.169,0,0,0,.028-.038l.111-.2a.319.319,0,0,0,.029-.066.06.06,0,0,0,0-.041.1.1,0,0,0-.026-.032.236.236,0,0,0-.03-.023l.013-.024.2.112-.013.025m.287.5a.138.138,0,0,1,.014.058.125.125,0,0,1-.018.065.129.129,0,0,1-.049.05.146.146,0,0,1-.062.019.2.2,0,0,1-.066-.006.269.269,0,0,1-.065-.027l-.232-.134.014-.024.026.011a.114.114,0,0,0,.026.008.036.036,0,0,0,.023,0,.048.048,0,0,0,.016-.018l.2-.348a.063.063,0,0,0,.008-.023.037.037,0,0,0-.008-.023.112.112,0,0,0-.019-.021l-.02-.016.014-.024.227.13a.293.293,0,0,1,.048.034.185.185,0,0,1,.035.044.111.111,0,0,1,.015.052.107.107,0,0,1-.015.058.12.12,0,0,1-.036.04.112.112,0,0,1-.046.019.17.17,0,0,1-.049,0,.222.222,0,0,1-.053-.011l0,0a.324.324,0,0,1,.041.037.19.19,0,0,1,.034.049Zm-.042-.121a.1.1,0,0,0,.036-.022.186.186,0,0,0,.029-.038.1.1,0,0,0,.014-.076.107.107,0,0,0-.057-.063l-.028-.016-.028-.015-.108.186.044.025a.168.168,0,0,0,.053.021.085.085,0,0,0,.045,0Zm-.041.182a.108.108,0,0,0,.012-.087.134.134,0,0,0-.068-.076l-.037-.021-.023-.012-.1.171a.041.041,0,0,0,0,.043.106.106,0,0,0,.043.039.117.117,0,0,0,.1.016.145.145,0,0,0,.078-.072Zm1.261.288-.032-.008a.1.1,0,0,0-.037,0,.056.056,0,0,0-.032.027.391.391,0,0,0-.032.062l-.1.223a.162.162,0,0,1-.05.067.171.171,0,0,1-.07.031.215.215,0,0,1-.073,0,.273.273,0,0,1-.065-.018.29.29,0,0,1-.078-.048.206.206,0,0,1-.048-.059.148.148,0,0,1-.017-.063.139.139,0,0,1,.011-.061l.13-.3a.06.06,0,0,0,.005-.023.047.047,0,0,0-.011-.023.107.107,0,0,0-.02-.019l-.022-.014.011-.026.217.093-.011.025-.027-.008-.025,0a.027.027,0,0,0-.023.007.064.064,0,0,0-.014.02l-.121.284a.226.226,0,0,0-.014.045.119.119,0,0,0,0,.05.113.113,0,0,0,.025.049.163.163,0,0,0,.062.041.177.177,0,0,0,.073.017.122.122,0,0,0,.057-.015.137.137,0,0,0,.039-.032.171.171,0,0,0,.025-.04l.09-.211a.328.328,0,0,0,.022-.068.061.061,0,0,0,0-.041.1.1,0,0,0-.029-.029.248.248,0,0,0-.032-.02l.011-.025.213.091-.011.025m.612.719-.24-.07.008-.027.034.007a.105.105,0,0,0,.03,0,.054.054,0,0,0,.022-.012.047.047,0,0,0,.012-.021l.113-.391-.006,0c-.105.135-.213.268-.318.4l-.019-.005c-.013-.173-.029-.345-.042-.518h-.005l-.093.321a.317.317,0,0,0-.014.072.068.068,0,0,0,.008.04.093.093,0,0,0,.031.025.211.211,0,0,0,.032.018l-.008.027-.22-.063.008-.027.038,0a.067.067,0,0,0,.033,0,.059.059,0,0,0,.028-.027.4.4,0,0,0,.026-.072l.079-.275a.117.117,0,0,0,.006-.041.063.063,0,0,0-.009-.029.082.082,0,0,0-.025-.023.136.136,0,0,0-.033-.016l.008-.027.185.054c.012.149.028.3.04.448.076-.1.154-.2.23-.3a.306.306,0,0,0,.024-.036.189.189,0,0,0,.013-.025l.177.051-.008.027L16.5,16h-.026a.029.029,0,0,0-.022.01.062.062,0,0,0-.011.022l-.112.387a.053.053,0,0,0,0,.023.043.043,0,0,0,.013.021.09.09,0,0,0,.023.014l.027.012-.008.027m.582-.177a.139.139,0,0,1,.035.048.124.124,0,0,1,.008.067.134.134,0,0,1-.025.065.153.153,0,0,1-.05.041.2.2,0,0,1-.063.02.269.269,0,0,1-.071,0l-.266-.033,0-.028h.028a.116.116,0,0,0,.027,0,.035.035,0,0,0,.019-.013.048.048,0,0,0,.008-.023l.05-.4a.065.065,0,0,0,0-.024.038.038,0,0,0-.016-.019.111.111,0,0,0-.025-.012l-.024-.007,0-.028.26.033a.287.287,0,0,1,.057.013.178.178,0,0,1,.049.027.113.113,0,0,1,.034.042.109.109,0,0,1,.008.059.116.116,0,0,1-.052.086.177.177,0,0,1-.045.021.227.227,0,0,1-.053.01v0a.335.335,0,0,1,.053.019.187.187,0,0,1,.05.032Zm-.085-.1a.1.1,0,0,0,.025-.034.185.185,0,0,0,.012-.047.1.1,0,0,0-.016-.075.106.106,0,0,0-.077-.036l-.032,0-.033,0c-.009.071-.018.142-.027.213l.05.006a.171.171,0,0,0,.057,0,.086.086,0,0,0,.04-.02Zm.033.184a.109.109,0,0,0-.023-.085A.135.135,0,0,0,16.8,16.3l-.043,0-.026,0-.025.2a.042.042,0,0,0,.015.04.108.108,0,0,0,.055.019.116.116,0,0,0,.094-.022.145.145,0,0,0,.044-.1Zm.762.176h-.153c-.033-.053-.064-.1-.091-.136s-.057-.077-.089-.118h-.058v.177a.065.065,0,0,0,0,.024.031.031,0,0,0,.019.016l.025.005.03,0v.028h-.239v-.028l.028,0a.1.1,0,0,0,.025-.005.034.034,0,0,0,.017-.015.049.049,0,0,0,.005-.025v-.4a.071.071,0,0,0,0-.025.03.03,0,0,0-.019-.016l-.026-.007-.027,0v-.028h.261a.3.3,0,0,1,.068.007.188.188,0,0,1,.057.024.117.117,0,0,1,.039.041.121.121,0,0,1,.015.061.154.154,0,0,1-.01.057.118.118,0,0,1-.03.043.168.168,0,0,1-.043.029.345.345,0,0,1-.055.021l.07.092.068.091a.168.168,0,0,0,.06.053.083.083,0,0,0,.026.008l.026,0c0,.009,0,.019,0,.028Zm-.21-.416a.1.1,0,0,0-.113-.11h-.068v.239h.052a.123.123,0,0,0,.129-.129Zm.862.375-.235.018c0-.009,0-.019,0-.028a.23.23,0,0,0,.051-.012c.013-.005.02-.01.019-.016s0-.005,0-.009a.031.031,0,0,0,0-.009l-.056-.121-.2.015c-.006.019-.011.035-.014.049l-.01.039a.238.238,0,0,0-.005.028.094.094,0,0,0,0,.017c0,.01.01.018.027.022a.2.2,0,0,0,.057.006l0,.028-.213.016c0-.009,0-.019,0-.028l.025-.007a.083.083,0,0,0,.025-.012.1.1,0,0,0,.023-.024.125.125,0,0,0,.015-.033c.022-.072.049-.153.076-.243s.053-.17.074-.24l.032,0c.074.156.151.31.225.466a.1.1,0,0,0,.015.024.087.087,0,0,0,.023.017.079.079,0,0,0,.025.007l.025,0c0,.01,0,.019,0,.028Zm-.244-.211c-.033-.07-.068-.139-.1-.209-.022.074-.046.148-.068.222Zm1.048-.441-.029.008a.211.211,0,0,0-.051-.055.088.088,0,0,0-.06-.025l-.029.005-.038.009-.092.025.059.217.063-.017A.132.132,0,0,0,19,16.063a.072.072,0,0,0,.022-.025.082.082,0,0,0,.007-.03.157.157,0,0,0,0-.04l.029-.008.058.212-.029.008a.191.191,0,0,0-.018-.036.11.11,0,0,0-.023-.027.058.058,0,0,0-.034-.012.153.153,0,0,0-.044.007l-.063.017.05.186a.049.049,0,0,0,.011.021.038.038,0,0,0,.022.011.106.106,0,0,0,.027,0,.183.183,0,0,0,.03,0l.007.027-.237.064-.007-.027.03-.011a.107.107,0,0,0,.024-.011.034.034,0,0,0,.013-.019.054.054,0,0,0,0-.025l-.106-.389a.073.073,0,0,0-.01-.021.036.036,0,0,0-.022-.011H18.7l-.03,0-.007-.027.429-.116.037.135m.631-.048.062.155-.4.193-.012-.025.024-.015a.1.1,0,0,0,.02-.015.034.034,0,0,0,.009-.021.052.052,0,0,0-.006-.025l-.174-.36a.062.062,0,0,0-.014-.019.034.034,0,0,0-.024-.007.106.106,0,0,0-.027,0,.129.129,0,0,0-.027.007l-.012-.025.215-.1.012.025-.024.016a.146.146,0,0,0-.02.017.027.027,0,0,0-.01.023.053.053,0,0,0,.006.024l.163.338a.209.209,0,0,0,.02.035.035.035,0,0,0,.021.015.047.047,0,0,0,.028,0,.384.384,0,0,0,.047-.02l.027-.014.026-.016.02-.017a.039.039,0,0,0,.011-.017.358.358,0,0,0,.011-.066.434.434,0,0,0,0-.067l.025-.012m.3-.554a.279.279,0,0,1,.1.05.343.343,0,0,1,.08.093.332.332,0,0,1,.043.115.277.277,0,0,1,0,.11.263.263,0,0,1-.045.094.279.279,0,0,1-.185.107.255.255,0,0,1-.105-.009.27.27,0,0,1-.1-.051.335.335,0,0,1-.077-.09.331.331,0,0,1-.043-.116.29.29,0,0,1,0-.11.264.264,0,0,1,.045-.1.262.262,0,0,1,.079-.071.268.268,0,0,1,.1-.036.256.256,0,0,1,.1.006Zm.15.372A.262.262,0,0,0,20.2,15.6a.46.46,0,0,0-.043-.092.481.481,0,0,0-.063-.085.262.262,0,0,0-.071-.053.159.159,0,0,0-.074-.017.15.15,0,0,0-.075.022.143.143,0,0,0-.059.06.174.174,0,0,0-.018.078.275.275,0,0,0,.016.085.479.479,0,0,0,.041.089.493.493,0,0,0,.061.083.261.261,0,0,0,.069.053.162.162,0,0,0,.074.019.152.152,0,0,0,.077-.023.154.154,0,0,0,.056-.056.158.158,0,0,0,.02-.076Zm.7-.381-.125.088c-.057-.024-.109-.042-.153-.058s-.091-.029-.14-.044l-.048.034.1.145a.076.076,0,0,0,.017.017.032.032,0,0,0,.025,0,.112.112,0,0,0,.024-.01l.026-.015.016.023-.2.138-.016-.023.021-.018a.1.1,0,0,0,.018-.019.033.033,0,0,0,.005-.022.05.05,0,0,0-.01-.023l-.234-.33a.07.07,0,0,0-.017-.017.028.028,0,0,0-.024,0,.2.2,0,0,0-.049.022l-.016-.023.213-.151a.3.3,0,0,1,.059-.033.181.181,0,0,1,.06-.014.117.117,0,0,1,.056.01.119.119,0,0,1,.048.042.144.144,0,0,1,.025.052.117.117,0,0,1,0,.052.17.17,0,0,1-.018.049.321.321,0,0,1-.033.049l.11.035.108.035a.167.167,0,0,0,.08.009.088.088,0,0,0,.026-.009l.023-.012.016.023Zm-.412-.218a.1.1,0,0,0-.156-.025l-.055.039.139.2.043-.03a.123.123,0,0,0,.03-.18Zm.878-.134.047.158-.441.164-.01-.026.029-.014a.111.111,0,0,0,.023-.014.039.039,0,0,0,.011-.021.049.049,0,0,0,0-.024L20.9,14.8a.065.065,0,0,0-.012-.02.036.036,0,0,0-.023-.009.136.136,0,0,0-.03,0,.143.143,0,0,0-.029.006l-.01-.026L21.2,14.6l.047.126-.028.011a.18.18,0,0,0-.054-.048.084.084,0,0,0-.06-.017l-.028.008-.037.013-.083.031.077.208.06-.022a.125.125,0,0,0,.04-.021.058.058,0,0,0,.017-.026.1.1,0,0,0,0-.034.192.192,0,0,0,0-.036l.028-.01.076.205-.028.01a.211.211,0,0,0-.022-.035.1.1,0,0,0-.025-.023.058.058,0,0,0-.033-.009.139.139,0,0,0-.041.01l-.06.022.058.157a.183.183,0,0,0,.017.036.036.036,0,0,0,.021.016.057.057,0,0,0,.03,0l.049-.016.033-.012a.235.235,0,0,0,.033-.014l.028-.016a.046.046,0,0,0,.017-.019.235.235,0,0,0,.016-.067.365.365,0,0,0,0-.061l.027-.01m.474-.388a.273.273,0,0,1,.07.084.343.343,0,0,1,.037.117.325.325,0,0,1-.006.123.278.278,0,0,1-.047.1.261.261,0,0,1-.078.069.264.264,0,0,1-.1.034.258.258,0,0,1-.111-.007.252.252,0,0,1-.093-.049.273.273,0,0,1-.068-.084.325.325,0,0,1-.036-.113.331.331,0,0,1,.005-.124.289.289,0,0,1,.047-.1.265.265,0,0,1,.179-.1.271.271,0,0,1,.108.007.258.258,0,0,1,.093.047Zm-.007.4a.263.263,0,0,0,.022-.085.486.486,0,0,0,0-.1.465.465,0,0,0-.025-.1A.257.257,0,0,0,21.8,14.6a.161.161,0,0,0-.062-.045.151.151,0,0,0-.078-.009.142.142,0,0,0-.078.032.171.171,0,0,0-.047.064.276.276,0,0,0-.019.084.464.464,0,0,0,0,.1.471.471,0,0,0,.024.1.252.252,0,0,0,.043.076.156.156,0,0,0,.061.047.15.15,0,0,0,.08.009.153.153,0,0,0,.073-.03.159.159,0,0,0,.048-.062Z" transform="translate(6.559 7.249)" stroke="#000" stroke-width="0.03"/>
      <path id="Path_2301" data-name="Path 2301" d="M20.12,9.116v3.536a4.656,4.656,0,0,1-3.106,4.591A4.655,4.655,0,0,1,13.9,12.652V9.116Z" transform="translate(6.951 4.558)" fill="none" stroke="#000" stroke-width="0.043"/>
      <circle id="Ellipse_224" data-name="Ellipse 224" cx="10.42" cy="10.42" r="10.42" transform="translate(13.58 5.516)" fill="none" stroke="#552300" stroke-width="0.175"/>
      <path id="Path_2302" data-name="Path 2302" d="M18.62,3.386c.942-1.011,1.795.157,1.772.7s-.973,1.755-1.833.783c.891.228,1.157-.768,1.608-.778-.451.01-.635-.977-1.546-.709ZM8.81,11.314c-.5-1.287.937-1.527,1.421-1.264s1.153,1.644-.105,1.978c.6-.692-.181-1.37.01-1.775-.191.405-1.164.132-1.326,1.061Zm21.143-1.272c1.291.506.5,1.717-.02,1.894s-2-.265-1.4-1.413c.108.907,1.14.793,1.313,1.206-.173-.413.687-.941.106-1.687ZM13.077,23.667c-1.381-.137-.955-1.516-.5-1.828s2-.286,1.734.98c-.353-.843-1.315-.454-1.595-.8.279.351-.4,1.091.361,1.652Zm13.956-1c.02,1.377-1.409,1.114-1.773.7s-.514-1.937.784-1.822c-.8.444-.3,1.348-.624,1.664.32-.316,1.138.273,1.613-.544ZM9.816,8.7C9.69,7.326,11.135,7.48,11.53,7.863s.662,1.892-.641,1.876c.767-.5.2-1.368.494-1.706-.294.339-1.156-.186-1.566.665ZM11.3,21.565c-1.368-.23-.85-1.576-.376-1.857s2.012-.152,1.664,1.094c-.3-.865-1.281-.541-1.536-.91.255.369-.476,1.062.248,1.673ZM22.11,3.442c1.243-.613,1.621.779,1.4,1.283s-1.538,1.3-1.994.086c.751.527,1.357-.31,1.782-.16-.425-.15-.244-1.137-1.192-1.208Zm2.644,20.951c-.616,1.234-1.766.353-1.9-.179s.434-1.956,1.536-1.265c-.92.031-.892,1.062-1.321,1.2.429-.136.887.759,1.685.246Zm6.035-11.911c1.044.907-.109,1.785-.661,1.777s-1.794-.918-.839-1.8c-.205.89.805,1.127.828,1.574-.022-.447.966-.656.672-1.553ZM13.257,5.229c.312-1.342,1.636-.749,1.89-.263s.034,2-1.2,1.584c.887-.241.62-1.237,1.006-1.468-.386.231-1.04-.535-1.7.147Zm-4.1,11.5c-1.216-.664-.279-1.766.261-1.876s1.951.514,1.208,1.577c.008-.913-1.03-.929-1.149-1.361.118.432-.8.847-.32,1.66Zm17.57-10.64c1.374-.2,1.3,1.242.931,1.654s-1.869.756-1.921-.536c.548.734,1.387.126,1.743.4-.356-.274.126-1.156-.753-1.517ZM18.91,25.714c-1.267.562-1.588-.844-1.35-1.339s1.59-1.233,2,0c-.729-.557-1.369.255-1.787.088C18.187,24.625,17.966,25.6,18.91,25.714Zm11.369-7.683c.572,1.255-.844,1.58-1.343,1.346s-1.25-1.572-.014-1.981c-.558.726.263,1.357.1,1.773.166-.416,1.153-.2,1.26-1.138ZM8.6,13.99c-.8-1.128.535-1.707,1.069-1.569s1.522,1.316.383,1.944c.413-.816-.511-1.285-.425-1.724-.086.439-1.1.409-1.026,1.35Zm7.486,10.89c-1.3.476-1.527-.949-1.256-1.426s1.67-1.124,1.992.13c-.689-.605-1.383.162-1.789-.032.406.194.118,1.156,1.053,1.329ZM15.712,3.942c.772-1.145,1.8-.123,1.861.421s-.685,1.884-1.688,1.058c.916.087,1.022-.938,1.466-1.018-.444.079-.781-.866-1.639-.461ZM29.057,20.754c.083,1.375-1.356,1.177-1.738.782s-.6-1.912.7-1.855c-.783.48-.242,1.361-.547,1.69.3-.329,1.15.221,1.586-.617ZM28.7,7.791c1.36.273.8,1.6.316,1.868S27,9.748,27.391,8.513c.267.874,1.263.581,1.506.958C28.654,9.094,29.407,8.425,28.7,7.791ZM11.474,6.822c.013-1.377,1.435-1.081,1.789-.66s.468,1.948-.828,1.8c.814-.425.337-1.341.664-1.649-.327.308-1.132-.3-1.625.506ZM9.754,19.237c-1.238-.622-.34-1.756.2-1.884s1.967.448,1.261,1.535c-.023-.913-1.062-.894-1.195-1.322.133.428-.772.874-.263,1.67ZM24.623,4.574c1.3-.486,1.535.936,1.268,1.416S24.23,7.128,23.9,5.877c.694.6,1.381-.174,1.789.017-.408-.191-.128-1.155-1.064-1.32ZM21.868,25.56c-1.01.947-1.779-.275-1.719-.82s1.091-1.687,1.883-.66c-.873-.286-1.207.69-1.658.67.45.02.566,1.016,1.494.81Zm8.847-10.533c.947,1.007-.289,1.765-.837,1.7s-1.692-1.091-.653-1.872c-.294.865.687,1.2.665,1.649.023-.447,1.028-.557.825-1.479Z" transform="translate(4.177 1.494)" fill="#007f00"/>
      <path id="Path_2303" data-name="Path 2303" d="M18.558,4.873c.891.228,1.114-.756,1.565-.766C19.86,4.421,19.174,5.222,18.558,4.873Zm.061-1.487c.942-1.011,1.795.157,1.772.7-.765-1.333-1-1.128-1.772-.7Zm-8.493,8.642c.6-.692-.189-1.327,0-1.732C10.3,10.669,10.714,11.635,10.126,12.028ZM8.81,11.314c-.5-1.287.937-1.527,1.421-1.264C8.688,10.14,8.768,10.444,8.81,11.314Zm19.724-.791c.108.907,1.114.757,1.286,1.171C29.43,11.564,28.43,11.219,28.534,10.523Zm1.419-.481c1.291.506.5,1.717-.02,1.894C30.909,10.745,30.629,10.6,29.953,10.042ZM14.31,22.821c-.353-.843-1.279-.427-1.559-.778C13.162,22.062,14.22,22.123,14.31,22.821Zm-1.233.847c-1.381-.137-.955-1.516-.5-1.828C11.964,23.249,12.274,23.315,13.077,23.667ZM26.044,21.55c-.8.444-.282,1.31-.6,1.626C25.414,22.768,25.355,21.719,26.044,21.55Zm.989,1.119c.02,1.377-1.409,1.114-1.773.7C26.74,23.814,26.771,23.5,27.032,22.67ZM10.888,9.738c.767-.5.18-1.328.474-1.667C11.422,8.476,11.562,9.518,10.888,9.738ZM9.816,8.7C9.69,7.326,11.135,7.48,11.53,7.863,10.019,7.534,10.013,7.848,9.816,8.7Zm2.767,12.1c-.3-.865-1.247-.512-1.5-.881C11.49,19.968,12.541,20.1,12.584,20.8Zm-1.288.763c-1.368-.23-.85-1.576-.376-1.857C10.215,21.073,10.519,21.159,11.3,21.565ZM21.52,4.811c.751.527,1.312-.314,1.737-.164-.358.2-1.287.708-1.737.164Zm.589-1.368c1.243-.613,1.621.779,1.4,1.283C23.276,3.209,22.978,3.317,22.11,3.442ZM24.39,22.95c-.92.031-.854,1.038-1.283,1.174C23.27,23.748,23.7,22.788,24.39,22.95Zm.364,1.444c-.616,1.234-1.766.353-1.9-.179C23.968,25.279,24.139,25.015,24.754,24.394Zm4.535-11.932c-.205.89.792,1.085.814,1.532C29.78,13.741,28.954,13.082,29.289,12.462Zm1.5.02c1.044.907-.109,1.785-.661,1.777C31.45,13.464,31.236,13.232,30.789,12.483ZM13.948,6.55c.887-.241.589-1.206.975-1.436C14.852,5.516,14.657,6.549,13.948,6.55Zm-.691-1.321c.312-1.342,1.636-.749,1.89-.263-1.332-.78-1.436-.483-1.89.263Zm-2.636,11.2c.008-.913-1.008-.891-1.126-1.323C9.866,15.284,10.814,15.752,10.622,16.43Zm-1.469.3c-1.216-.664-.279-1.766.261-1.876C8.295,15.911,8.554,16.092,9.153,16.729ZM25.732,7.206c.548.734,1.346.108,1.7.382C27.03,7.668,25.989,7.862,25.732,7.206Zm.991-1.117c1.374-.2,1.3,1.242.931,1.654C27.9,6.229,27.588,6.239,26.723,6.089ZM19.556,24.371c-.729-.557-1.324.26-1.742.093C18.18,24.278,19.128,23.81,19.556,24.371Zm-.646,1.343c-1.267.562-1.588-.844-1.35-1.339C17.735,25.9,18.037,25.8,18.91,25.714ZM28.922,17.4c-.558.726.269,1.313.1,1.729C28.835,18.763,28.359,17.824,28.922,17.4Zm1.357.634c.572,1.255-.844,1.58-1.343,1.346C30.472,19.2,30.374,18.9,30.279,18.031ZM10.053,14.365c.413-.816-.508-1.241-.423-1.68C9.884,13.006,10.527,13.842,10.053,14.365ZM8.6,13.99c-.8-1.128.535-1.707,1.069-1.569C8.2,12.88,8.347,13.156,8.6,13.99Zm8.221,9.593c-.689-.605-1.339.171-1.745-.023C15.457,23.4,16.435,22.994,16.823,23.583Zm-.735,1.3c-1.3.476-1.527-.949-1.256-1.426C14.9,24.986,15.21,24.911,16.088,24.879Zm-.2-19.459c.916.087.982-.92,1.425-1C17.1,4.773,16.548,5.67,15.886,5.421Zm-.173-1.478c.772-1.145,1.8-.123,1.861.421-.966-1.2-1.17-.958-1.861-.421ZM28.017,19.681c-.783.48-.221,1.322-.526,1.651C27.445,20.926,27.337,19.88,28.017,19.681Zm1.039,1.073c.083,1.375-1.356,1.177-1.738.782C28.818,21.911,28.834,21.6,29.057,20.754ZM27.391,8.513c.267.874,1.231.551,1.473.928C28.457,9.381,27.411,9.216,27.391,8.513ZM28.7,7.791c1.36.273.8,1.6.316,1.868C29.768,8.317,29.467,8.222,28.7,7.791Zm-16.267.173c.814-.425.313-1.3.64-1.611C13.094,6.761,13.128,7.812,12.436,7.964Zm-.962-1.142c.013-1.377,1.435-1.081,1.789-.66C11.793,5.685,11.755,6,11.474,6.822Zm-.262,12.065c-.023-.913-1.038-.856-1.171-1.284C10.417,17.769,11.381,18.2,11.212,18.888Zm-1.458.349c-1.238-.622-.34-1.756.2-1.884C8.868,18.448,9.133,18.62,9.754,19.237ZM23.9,5.877c.694.6,1.337-.182,1.745.009C25.267,6.05,24.292,6.462,23.9,5.877Zm.725-1.3c1.3-.486,1.535.936,1.268,1.416C25.807,4.458,25.5,4.535,24.623,4.574ZM22.031,24.08c-.873-.286-1.164.681-1.614.661.284-.3,1.024-1.05,1.614-.661Zm-.164,1.48c-1.01.947-1.779-.275-1.719-.82C20.82,26.121,21.073,25.932,21.868,25.56Zm7.357-10.7c-.294.865.679,1.158.655,1.605C29.584,16.179,28.829,15.441,29.225,14.857Zm1.49.17c.947,1.007-.289,1.765-.837,1.7C31.274,16.069,31.085,15.817,30.715,15.027Z" transform="translate(4.177 1.494)" fill="#005800"/>
    </g>
  </g>
</svg>
