<svg xmlns="http://www.w3.org/2000/svg" xmlns:xlink="http://www.w3.org/1999/xlink" width="32" height="32" viewBox="0 0 32 32">
  <defs>
    <clipPath id="clip-path">
      <circle id="Bosnia_and_Herzegovina" data-name="Bosnia and Herzegovina" cx="16" cy="16" r="16" transform="translate(1357 324)" fill="#fff"/>
    </clipPath>
  </defs>
  <g id="Bosnia_and_Herzegovina-2" data-name="Bosnia and Herzegovina" transform="translate(-1357 -324)" clip-path="url(#clip-path)">
    <g id="Flag_of_Bosnia_and_Herzegovina" transform="translate(1341.842 322.316)">
      <rect id="Rectangle_32" data-name="Rectangle 32" width="64.239" height="32.12" transform="translate(0 1.713)" fill="#002395"/>
      <path id="Path_433" data-name="Path 433" d="M8.48,0H40.6V32.12Z" transform="translate(8.543 1.713)" fill="#fecb00"/>
      <g id="g" transform="translate(8.34 -1.7)">
        <path id="s" d="M5.263,3.82,7.056-1.7,8.85,3.82,4.154.408h5.8Z" transform="translate(-4.154 1.7)" fill="#fff"/>
        <path id="Path_434" data-name="Path 434" d="M5.263,3.82,7.056-1.7,8.85,3.82,4.154.408h5.8Z" transform="translate(-0.139 5.715)" fill="#fff"/>
        <path id="Path_435" data-name="Path 435" d="M5.263,3.82,7.056-1.7,8.85,3.82,4.154.408h5.8Z" transform="translate(3.876 9.73)" fill="#fff"/>
      </g>
      <g id="Group_163" data-name="Group 163" transform="translate(20.385 10.345)">
        <path id="s-2" data-name="s" d="M5.263,3.82,7.056-1.7,8.85,3.82,4.154.408h5.8Z" transform="translate(-4.154 1.7)" fill="#fff"/>
        <path id="Path_436" data-name="Path 436" d="M5.263,3.82,7.056-1.7,8.85,3.82,4.154.408h5.8Z" transform="translate(-0.139 5.715)" fill="#fff"/>
        <path id="Path_437" data-name="Path 437" d="M5.263,3.82,7.056-1.7,8.85,3.82,4.154.408h5.8Z" transform="translate(3.876 9.73)" fill="#fff"/>
      </g>
      <g id="Group_164" data-name="Group 164" transform="translate(32.43 22.39)">
        <path id="s-3" data-name="s" d="M5.263,3.82,7.056-1.7,8.85,3.82,4.154.408h5.8Z" transform="translate(-4.154 1.7)" fill="#fff"/>
        <path id="Path_438" data-name="Path 438" d="M5.263,3.82,7.056-1.7,8.85,3.82,4.154.408h5.8Z" transform="translate(-0.139 5.715)" fill="#fff"/>
        <path id="Path_439" data-name="Path 439" d="M5.263,3.82,7.056-1.7,8.85,3.82,4.154.408h5.8Z" transform="translate(3.876 9.73)" fill="#fff"/>
      </g>
    </g>
  </g>
</svg>
