<svg xmlns="http://www.w3.org/2000/svg" xmlns:xlink="http://www.w3.org/1999/xlink" width="32" height="32" viewBox="0 0 32 32">
  <defs>
    <clipPath id="clip-path">
      <circle id="Brazil" cx="16" cy="16" r="16" transform="translate(877 2007)" fill="#fff"/>
    </clipPath>
    <clipPath id="clip-path-2">
      <circle id="Ellipse_206" data-name="Ellipse 206" cx="8" cy="8" r="8" transform="translate(0 0)"/>
    </clipPath>
    <clipPath id="clip-path-3">
      <path id="Path_1513" data-name="Path 1513" d="M0,.762V0H.686V.762ZM.343.25V.381H.686V.25Z"/>
    </clipPath>
  </defs>
  <g id="Brazil-2" data-name="Brazil" transform="translate(-877 -2007)" clip-path="url(#clip-path)">
    <g id="Flag_of_Brazil" transform="translate(3548.888 3032.625)">
      <rect id="Rectangle_113" data-name="Rectangle 113" width="45.714" height="32" transform="translate(-2678.745 -1025.625)" fill="#009b3a"/>
      <path id="Path_1499" data-name="Path 1499" d="M-258.4-152.886l18.971,12.114,18.972-12.114L-239.424-165Z" transform="translate(-2416.464 -856.739)" fill="#fedf00"/>
      <circle id="Ellipse_205" data-name="Ellipse 205" cx="8" cy="8" r="8" transform="translate(-2663.888 -1017.625)" fill="#002776"/>
      <g id="Group_354" data-name="Group 354" transform="translate(-2663.888 -1017.625)" clip-path="url(#clip-path-2)">
        <path id="Path_1500" data-name="Path 1500" d="M-326.886-27.269A19.428,19.428,0,0,1-307.457-46.7a19.429,19.429,0,0,1,19.429,19.429h-1.144a18.286,18.286,0,0,0-18.286-18.286,18.286,18.286,0,0,0-18.286,18.286Z" transform="translate(310.886 51.269)" fill="#fff"/>
      </g>
      <g id="Group_360" data-name="Group 360" transform="translate(-2663.145 -1012.866)">
        <path id="Path_1501" data-name="Path 1501" d="M.343.762A.363.363,0,0,0,.686.381.363.363,0,0,0,.343,0,.363.363,0,0,0,0,.381.363.363,0,0,0,.343.762m0-.141a.223.223,0,0,0,.2-.24.223.223,0,0,0-.2-.24.223.223,0,0,0-.2.24.223.223,0,0,0,.2.24" transform="translate(0 0.188) rotate(-7)" fill="#009b3a" fill-rule="evenodd"/>
        <g id="Group_355" data-name="Group 355" transform="translate(1.001 0.074) rotate(-4)">
          <path id="Path_1502" data-name="Path 1502" d="M0,.762H.141V.479h.3A.24.24,0,0,0,.446,0H.011ZM.141.339H.435a.1.1,0,0,0,0-.2H.141Z" fill-rule="evenodd"/>
          <path id="Path_1503" data-name="Path 1503" d="M.37.348C.37.24.37,0,.207,0H0C.24,0,.24.24.24.348" transform="translate(0.278 0.414)"/>
        </g>
        <path id="Path_1504" data-name="Path 1504" d="M0,.762H.36A.327.327,0,0,0,.686.435V.327A.327.327,0,0,0,.36,0H0ZM.141.621H.348A.207.207,0,0,0,.555.414V.348A.207.207,0,0,0,.348.141H.141Z" transform="matrix(1, -0.017, 0.017, 1, 2.007, 0.012)" fill="#009b3a" fill-rule="evenodd"/>
        <path id="Path_1505" data-name="Path 1505" d="M0,.762H.686V.62H.131v-.2H.566V.294H.131V.141H.653V0H0Z" transform="translate(3.014 0.003) rotate(2)" fill="#009b3a"/>
        <path id="Path_1506" data-name="Path 1506" d="M0,.762H.131V.24L.283.762H.4L.555.24V.762H.686V0H.495L.342.522.191,0H0Z" transform="translate(4.021 0.046) rotate(5)" fill="#009b3a"/>
        <path id="Path_1507" data-name="Path 1507" d="M0,.686H.572V.555H.131V.381h.36V.25H.131V.131H.558V0H0Z" transform="matrix(0.986, 0.169, -0.169, 0.986, 5.649, 0.307)" fill="#009b3a"/>
        <path id="Path_1508" data-name="Path 1508" d="M0,.762H.141V.479h.3A.239.239,0,0,0,.446,0H.011ZM.141.339H.435a.1.1,0,0,0,0-.2H.141Z" transform="translate(7.17 0.53) rotate(14.481)" fill="#009b3a" fill-rule="evenodd"/>
        <g id="Group_356" data-name="Group 356" transform="translate(8.144 0.79) rotate(17.5)">
          <path id="Path_1509" data-name="Path 1509" d="M0,.762H.141V.479h.3A.24.24,0,0,0,.446,0H.011ZM.141.339H.435a.1.1,0,0,0,0-.2H.141Z" fill-rule="evenodd"/>
          <path id="Path_1510" data-name="Path 1510" d="M.37.348C.37.24.37,0,.207,0H0C.24,0,.24.24.24.348" transform="translate(0.278 0.414)"/>
        </g>
        <path id="Path_1511" data-name="Path 1511" d="M.343.762A.363.363,0,0,0,.686.381.363.363,0,0,0,.343,0,.363.363,0,0,0,0,.381.363.363,0,0,0,.343.762m0-.141a.223.223,0,0,0,.2-.24.223.223,0,0,0-.2-.24.223.223,0,0,0-.2.24.223.223,0,0,0,.2.24" transform="translate(9.101 1.101) rotate(20.5)" fill="#009b3a" fill-rule="evenodd"/>
        <g id="Group_358" data-name="Group 358" transform="translate(10.042 1.462) rotate(23.5)">
          <g id="Group_357" data-name="Group 357" clip-path="url(#clip-path-3)">
            <path id="Path_1512" data-name="Path 1512" d="M.343.762A.363.363,0,0,0,.686.381.363.363,0,0,0,.343,0,.363.363,0,0,0,0,.381.363.363,0,0,0,.343.762m0-.141a.223.223,0,0,0,.2-.24.223.223,0,0,0-.2-.24.223.223,0,0,0-.2.24.223.223,0,0,0,.2.24" transform="translate(0 0)" fill-rule="evenodd"/>
          </g>
          <rect id="Rectangle_114" data-name="Rectangle 114" width="0.288" height="0.109" transform="translate(0.397 0.381)"/>
          <rect id="Rectangle_115" data-name="Rectangle 115" width="0.109" height="0.381" transform="translate(0.577 0.381)"/>
        </g>
        <g id="Group_359" data-name="Group 359" transform="matrix(0.895, 0.446, -0.446, 0.895, 10.963, 1.871)">
          <path id="Path_1514" data-name="Path 1514" d="M0,.762H.141V.479h.3A.24.24,0,0,0,.446,0H.011ZM.141.339H.435a.1.1,0,0,0,0-.2H.141Z" fill-rule="evenodd"/>
          <path id="Path_1515" data-name="Path 1515" d="M.37.348C.37.24.37,0,.207,0H0C.24,0,.24.24.24.348" transform="translate(0.278 0.414)"/>
        </g>
        <path id="Path_1516" data-name="Path 1516" d="M0,.762H.686V.62H.131v-.2H.566V.294H.131V.141H.653V0H0Z" transform="translate(11.86 2.328) rotate(29.5)" fill="#009b3a"/>
        <path id="Path_1517" data-name="Path 1517" d="M.171.523C.171.6.245.637.354.637S.514.6.514.552C.514.4.006.5.008.223.011-.011.278,0,.375,0S.658.044.657.231H.49C.49.15.414.12.327.12S.182.134.182.212c0,.127.5.044.5.313,0,.2-.2.237-.343.237C.218.762,0,.713,0,.523Z" transform="matrix(0.843, 0.537, -0.537, 0.843, 12.733, 2.832)" fill="#009b3a"/>
        <path id="Path_1518" data-name="Path 1518" d="M.171.523C.171.6.245.637.354.637S.514.6.514.552C.514.4.006.5.008.223.011-.011.278,0,.376,0S.658.044.657.231H.49C.49.15.414.12.327.12S.182.134.182.212c0,.127.5.044.5.313,0,.2-.2.237-.343.237C.218.763,0,.713,0,.523Z" transform="matrix(0.814, 0.581, -0.581, 0.814, 13.578, 3.38)" fill="#009b3a"/>
        <path id="Path_1519" data-name="Path 1519" d="M.343.762A.363.363,0,0,0,.686.381.363.363,0,0,0,.343,0,.363.363,0,0,0,0,.381.363.363,0,0,0,.343.762m0-.141a.223.223,0,0,0,.2-.24.223.223,0,0,0-.2-.24.223.223,0,0,0-.2.24.223.223,0,0,0,.2.24" transform="translate(14.393 3.971) rotate(38.5)" fill="#009b3a" fill-rule="evenodd"/>
      </g>
    </g>
  </g>
</svg>
