<svg xmlns="http://www.w3.org/2000/svg" xmlns:xlink="http://www.w3.org/1999/xlink" width="32" height="32" viewBox="0 0 32 32">
  <defs>
    <clipPath id="clip-path">
      <circle id="Cambodia" cx="16" cy="16" r="16" transform="translate(397 1361)" fill="#fff"/>
    </clipPath>
  </defs>
  <g id="Cambodia-2" data-name="Cambodia" transform="translate(-397 -1361)" clip-path="url(#clip-path)">
    <g id="Flag_of_Cambodia" transform="translate(388 1361)">
      <path id="Path_1225" data-name="Path 1225" d="M0,0H50V32H0Z" fill="#032ea1"/>
      <path id="Path_1226" data-name="Path 1226" d="M0,5.12H50v16H0Z" transform="translate(0 2.88)" fill="#e00025"/>
      <g id="Group_298" data-name="Group 298" transform="translate(14.67 9.417)">
        <g id="Group_290" data-name="Group 290" transform="translate(2.263 5.665)">
          <path id="Path_1227" data-name="Path 1227" d="M7.118,31.921h9.1v3.5h-9.1Z" transform="translate(-3.557 -31.921)" fill="#fff" stroke="#000" stroke-linejoin="bevel" stroke-width="0.049"/>
          <path id="Path_1228" data-name="Path 1228" d="M15.752,33.593h.287v1.32h-.287Zm-8.634-.652h9.1v.407h-9.1Zm0-.552h9.1v.359h-9.1Z" transform="translate(-3.557 -31.658)" fill="#fff" stroke="#000" stroke-linejoin="bevel" stroke-width="0.049"/>
          <path id="Path_1229" data-name="Path 1229" d="M7.118,32.036h9.1v.348h-9.1Z" transform="translate(-3.557 -31.857)" fill="#fff" stroke="#000" stroke-linejoin="bevel" stroke-width="0.048"/>
          <path id="Path_1230" data-name="Path 1230" d="M9.489,33.159h.287v1.32H9.489Zm3.919,0h.287v1.32h-.287Zm-6.244,0h.287v1.32H7.164Zm.562,0h.287v1.32H7.726Zm.6,0h.287v1.32H8.326Zm.6,0h.287v1.32H8.926Zm5.026,0h.287v1.32h-.287Zm.6,0h.287v1.32h-.287Zm.6,0h.287v1.32h-.287Z" transform="translate(-3.531 -31.225)" fill="#fff" stroke="#000" stroke-linejoin="bevel" stroke-width="0.049"/>
          <path id="Path_1231" data-name="Path 1231" d="M4.839,34.434a.747.747,0,0,0,.354-.426H20.638a.747.747,0,0,0,.354.426Z" transform="translate(-4.839 -30.747)" fill="#fff" stroke="#000" stroke-width="0.049"/>
        </g>
        <path id="Path_1232" data-name="Path 1232" d="M10.621,28.628s-.012-.329.18-.333.18.333.18.333Zm-1,4.363v-.443c-.006-.221-.221-.237-.227-.4a.764.764,0,0,1,.036-.353c.087.324.244.264.244.131,0-.116-.089-.224-.273-.506a.575.575,0,0,1,.06-.474c.032.246.068.363.174.363.064,0,.117-.042.117-.165,0-.157-.106-.236-.158-.378a.4.4,0,0,1,.082-.43c.043.242.03.339.138.339.217-.069,0-.383-.046-.462s.072-.277.072-.277c.069.215.091.233.166.213.094-.025.082-.164-.033-.277a.181.181,0,0,1,.013-.262c.078.152.178.143.187.053l-.063-.351h1.38l-.068.34c-.02.1.112.118.193-.041a.181.181,0,0,1,.013.262c-.115.113-.127.252-.033.277.074.02.1,0,.166-.213a.327.327,0,0,1,.072.277c-.046.079-.263.394-.046.462.108,0,.095-.1.138-.339a.4.4,0,0,1,.082.43c-.052.142-.158.221-.158.378,0,.123.053.165.117.165.106,0,.142-.118.174-.363a.575.575,0,0,1,.06.474c-.183.282-.273.39-.273.506,0,.133.158.193.244-.131a.765.765,0,0,1,.036.353c-.006.161-.221.177-.227.4v.443Zm.578-3.682-.032-.25h1.267l-.032.25Zm.085-.255-.027-.206h1.088l-.027.206Zm.173-.213-.018-.206h.725l-.018.206ZM13.1,37.648c-.162-.062-.4-.234-.4-.406V35.3l.211-.269H8.689l.2.269v1.944a.5.5,0,0,1-.324.406Z" transform="translate(-0.479 -28.295)" fill="#fff" stroke="#000" stroke-width="0.049"/>
        <path id="Path_1233" data-name="Path 1233" d="M9.126,33.159h.287v1.32H9.126Zm2.426,0h.287v1.32h-.287Z" transform="translate(-0.165 -25.559)" fill="#fff" stroke="#000" stroke-linejoin="bevel" stroke-width="0.049"/>
        <path id="Path_1234" data-name="Path 1234" d="M8.6,31.19V33.4h4.322v-.477l.006-1.736a.336.336,0,0,0-.208.23v.942h-3.9v-.942a.375.375,0,0,0-.22-.23Z" transform="translate(-0.462 -26.667)" fill="#fff" stroke="#000" stroke-width="0.049"/>
        <path id="Path_1235" data-name="Path 1235" d="M12.088,35.307c-.141-.062-.449-.234-.449-.406V32.726c.03-.121.195-.193.3-.269H9.074c.136.072.288.132.343.269V34.9c0,.172-.243.343-.384.406Z" transform="translate(-0.218 -25.954)" fill="#fff" stroke="#000" stroke-width="0.049"/>
        <path id="Path_1236" data-name="Path 1236" d="M12.635,33.091V31.524h-.393v-.153H9.135v.153H8.742v1.567Zm-1,2.826c-.138-.062-.34-.234-.34-.406V33.655l.114-.169H9.99l.114.169v1.857c0,.172-.2.343-.34.406Z" transform="translate(-0.381 -26.565)" fill="#fff" stroke="#000" stroke-width="0.049"/>
        <path id="Path_1237" data-name="Path 1237" d="M9.764,32.725h.717v2.43H9.764Z" transform="translate(0.194 -25.804)" fill="#fff" stroke="#000" stroke-width="0.05"/>
        <path id="Path_1238" data-name="Path 1238" d="M11.245,32.492c0-.16.467-.167.707-.3H9.076c.24.136.694.148.694.3l.1.311,1.191.048Z" transform="translate(-0.193 -26.105)" fill="#fff" stroke="#000" stroke-linejoin="bevel" stroke-width="0.049"/>
        <path id="Path_1239" data-name="Path 1239" d="M11.808,31.538c0-.392.016-.543.137-.543v1.246a1.2,1.2,0,0,0-.506.484H9.582a1.2,1.2,0,0,0-.506-.484V31c.148,0,.149.158.149.543Zm.137-.161a.47.47,0,0,1,.388-.5v.4c-.148-.006-.219.126-.219.324s.119.2.119.2v1.135h-.288Z" transform="translate(-0.193 -26.843)" fill="#fff" stroke="#000" stroke-width="0.049"/>
        <path id="Path_1240" data-name="Path 1240" d="M9.216,31.378a.47.47,0,0,0-.388-.5v.4c.148-.006.219.126.219.324s-.119.2-.119.2v1.135h.288Z" transform="translate(-0.332 -26.843)" fill="#fff" stroke="#000" stroke-width="0.049"/>
        <g id="Group_291" data-name="Group 291" transform="translate(8.362 1.438)">
          <path id="Path_1241" data-name="Path 1241" d="M9.764,29.216h1.37M9.6,29.644h1.674m-1.836.519h1.992M9.269,30.8h2.363m-2.417.723h2.434" transform="translate(-8.477 -29.216)" fill="none" stroke="#000" stroke-width="0.041"/>
          <path id="Path_1242" data-name="Path 1242" d="M8.742,32.2h3.893m-2.658,0H11.42v.53H9.978Z" transform="translate(-8.742 -27.537)" fill="none" stroke="#000" stroke-width="0.049"/>
        </g>
        <g id="Group_292" data-name="Group 292" transform="translate(9.337 1.179)">
          <path id="Path_1243" data-name="Path 1243" d="M9.417,32.8a1.692,1.692,0,0,1,.214,1.062h1.387a1.691,1.691,0,0,1,.214-1.062Zm.78-3.29-.19-.1v-.28c.078.023.165.033.173.157.027-.177.076-.168.153-.237.077.069.125.06.152.237.009-.124.1-.133.174-.157v.28l-.19.1Z" transform="translate(-9.338 -29.05)" fill="#fff" stroke="#000" stroke-width="0.049"/>
          <path id="Path_1244" data-name="Path 1244" d="M10.022,29.879l-.316-.217V29.4c.111.026.235.036.247.172a.523.523,0,0,1,.217-.37.523.523,0,0,1,.217.37c.012-.136.136-.146.247-.172v.258l-.316.217Z" transform="translate(-9.175 -28.962)" fill="#fff" stroke="#000" stroke-width="0.049"/>
          <path id="Path_1245" data-name="Path 1245" d="M10.091,30.451l-.363-.319v-.379c.127.038.27.053.284.252a.822.822,0,0,1,.25-.543.821.821,0,0,1,.25.543c.014-.2.157-.215.284-.253v.379l-.363.319Zm.67.423-.328.454h-.372l-.328-.454Zm-1.218.762c.164.09.225.269.242.6h.924c.018-.336.078-.514.242-.6Z" transform="translate(-9.267 -28.818)" fill="#fff" stroke="#000" stroke-width="0.049"/>
          <path id="Path_1246" data-name="Path 1246" d="M10.971,30.679v-.456a.417.417,0,0,0-.3.261,1.224,1.224,0,0,0-.417-.674,1.223,1.223,0,0,0-.416.674.415.415,0,0,0-.3-.261v.456Z" transform="translate(-9.272 -28.623)" fill="#fff" stroke="#000" stroke-linejoin="bevel" stroke-width="0.049"/>
          <path id="Path_1247" data-name="Path 1247" d="M11.065,31.167v-.456a.447.447,0,0,0-.331.261,1.21,1.21,0,0,0-.457-.674,1.209,1.209,0,0,0-.457.674.444.444,0,0,0-.331-.261v.456Z" transform="translate(-9.297 -28.348)" fill="#fff" stroke="#000" stroke-linejoin="bevel" stroke-width="0.049"/>
          <path id="Path_1248" data-name="Path 1248" d="M11.327,31.843v-.526a.76.76,0,0,0-.412.3,1.3,1.3,0,0,0-.568-.861,1.33,1.33,0,0,0-.568.861.77.77,0,0,0-.412-.3v.526Z" transform="translate(-9.367 -28.088)" fill="#fff" stroke="#000" stroke-linejoin="bevel" stroke-width="0.049"/>
          <path id="Path_1249" data-name="Path 1249" d="M11.17,32.723v-.541a.617.617,0,0,0-.3.377,1.645,1.645,0,0,0-.562-1.288,1.645,1.645,0,0,0-.562,1.288c-.061-.122-.115-.3-.3-.377v.541Z" transform="translate(-9.325 -27.8)" fill="#fff" stroke="#000" stroke-linejoin="bevel" stroke-width="0.049"/>
          <path id="Path_1250" data-name="Path 1250" d="M10.991,33.14V32.6c-.2.047-.209.119-.271.24a1.015,1.015,0,0,0-.462-.851,1.015,1.015,0,0,0-.462.851c-.062-.121-.07-.194-.271-.24v.541Z" transform="translate(-9.278 -27.398)" fill="#fff" stroke="#000" stroke-width="0.049"/>
        </g>
        <g id="a" transform="translate(2.253 2.312)">
          <path id="Path_1251" data-name="Path 1251" d="M5.2,35.27V33.635a.642.642,0,0,0-.363-.429v-1.44l.3.162.342,1.5V35.27Z" transform="translate(-4.833 -28.655)" fill="#fff" stroke="#000" stroke-width="0.049"/>
          <path id="Path_1252" data-name="Path 1252" d="M5.2,35.312V33.671a.642.642,0,0,0-.363-.429V31.7c.2,0,.3.262.3.262l.342,1.5V35.3Z" transform="translate(-4.833 -28.691)" fill="#fff" stroke="#000" stroke-width="0.049"/>
          <path id="Path_1253" data-name="Path 1253" d="M4.929,35.223c.138-.062.34-.234.34-.406V32.774l-.095-.169H8.656l-.136.169v2.044a.489.489,0,0,0,.277.406Z" transform="translate(-4.779 -28.182)" fill="#fff" stroke="#000" stroke-width="0.049"/>
          <path id="Path_1254" data-name="Path 1254" d="M7.843,35.223c-.138-.062-.34-.234-.34-.406V32.874l.29-.269H5.426l.29.269v1.944c0,.172-.2.343-.34.406Z" transform="translate(-4.528 -28.182)" fill="#fff" stroke="#000" stroke-width="0.049"/>
          <path id="Path_1255" data-name="Path 1255" d="M7.392,35.156c-.138-.062-.34-.234-.34-.406V32.994l.19-.269h-1.5l.19.269v1.757c0,.172-.2.343-.34.406Z" transform="translate(-4.409 -28.115)" fill="#fff" stroke="#000" stroke-width="0.049"/>
          <path id="Path_1256" data-name="Path 1256" d="M5.935,32.725h.719v2.431H5.935Z" transform="translate(-4.213 -28.115)" fill="#fff" stroke="#000" stroke-width="0.049"/>
          <path id="Path_1257" data-name="Path 1257" d="M5.4,34.052h.287v1.32H5.4Zm2.46,0h.287v1.32H7.858Zm-2.7-2.226H5.5v1.353H5.153Zm0-.254H5.5v.251H5.153Z" transform="translate(-4.653 -28.764)" fill="#fff" stroke="#000" stroke-linejoin="bevel" stroke-width="0.049"/>
          <path id="Path_1258" data-name="Path 1258" d="M6.972,31.921h.493v1.044H6.972Z" transform="translate(-3.63 -28.567)" fill="#fff" stroke="#000" stroke-linejoin="bevel" stroke-width="0.053"/>
          <path id="Path_1259" data-name="Path 1259" d="M5.565,34.18V31.865c.1,0,.114.339.34.339.118,0,.105-.14.039-.255a.515.515,0,0,1-.033-.5c.068.2.249.263.216.138-.058-.215-.224-.25-.1-.584.043.278.222.266.179.1-.049-.182-.15-.257-.025-.514.07.292.164.275.164.094,0-.268-.01-.556.336-.664,0,0,.02-.245.145-.245s.145.245.145.245c.346.107.336.4.336.664,0,.181.094.2.164-.094.125.257.024.332-.025.514-.044.162.135.174.178-.1.124.334-.041.369-.1.584-.033.125.148.062.216-.138a.516.516,0,0,1-.033.5c-.066.114-.079.255.039.255.226,0,.241-.339.34-.339V34.18Zm-.541-1.749V34.2h.2V32.426a.177.177,0,0,0-.2,0Z" transform="translate(-4.726 -29.775)" fill="#fff" stroke="#000" stroke-width="0.049"/>
          <path id="Path_1260" data-name="Path 1260" d="M5.028,32.4a.866.866,0,0,1,.558.623H5.028Zm3.453-.529v1.153h.163V31.873A.172.172,0,0,0,8.481,31.876Z" transform="translate(-4.723 -28.605)" fill="#fff" stroke="#000" stroke-width="0.049"/>
          <path id="Path_1261" data-name="Path 1261" d="M7.543,32.2a.866.866,0,0,0-.558.623h.558Z" transform="translate(-3.622 -28.41)" fill="#fff" stroke="#000" stroke-width="0.049"/>
          <g id="Group_293" data-name="Group 293" transform="translate(1.302 0.661)">
            <path id="Path_1262" data-name="Path 1262" d="M6.472,30.636l.145-.122v-.156a.153.153,0,0,0-.121.075.4.4,0,0,0-.2-.235.394.394,0,0,0-.205.231.149.149,0,0,0-.121-.071v.156l.145.122Z" transform="translate(-5.499 -30.198)" fill="#fff" stroke="#000" stroke-width="0.049"/>
            <path id="Path_1263" data-name="Path 1263" d="M6.549,30.912l.067-.146v-.2a.153.153,0,0,0-.121.076.4.4,0,0,0-.2-.238.4.4,0,0,0-.205.234.149.149,0,0,0-.121-.072v.2l.068.146Z" transform="translate(-5.499 -30.083)" fill="#fff" stroke="#000" stroke-width="0.049"/>
            <path id="Path_1264" data-name="Path 1264" d="M6.616,31.318l.216-.263V30.8a.225.225,0,0,0-.18.128c-.05-.178-.158-.217-.3-.3-.146.086-.255.119-.3.3a.217.217,0,0,0-.18-.122v.259l.215.263Z" transform="translate(-5.556 -29.959)" fill="#fff" stroke="#000" stroke-width="0.049"/>
            <path id="Path_1265" data-name="Path 1265" d="M6.721,31.715s.251-.219.266-.34V31.1a.316.316,0,0,0-.261.151.585.585,0,0,0-.337-.4.585.585,0,0,0-.337.4A.316.316,0,0,0,5.79,31.1v.277a1.219,1.219,0,0,0,.266.34Z" transform="translate(-5.597 -29.834)" fill="#fff" stroke="#000" stroke-width="0.049"/>
            <path id="Path_1266" data-name="Path 1266" d="M6.9,32.542s.344-.381.352-.529V31.58a.481.481,0,0,0-.346.284,1.22,1.22,0,0,0-.446-.781,1.219,1.219,0,0,0-.446.781.481.481,0,0,0-.346-.284v.432a2.139,2.139,0,0,0,.352.529Z" transform="translate(-5.666 -29.7)" fill="#fff" stroke="#000" stroke-width="0.049"/>
            <path id="Path_1267" data-name="Path 1267" d="M6.9,32.854a2.646,2.646,0,0,0,.352-.429v-.432a.481.481,0,0,0-.346.284,1.112,1.112,0,0,0-.446-.736,1.111,1.111,0,0,0-.446.737.481.481,0,0,0-.346-.284v.432a4,4,0,0,0,.352.429Z" transform="translate(-5.666 -29.443)" fill="#fff" stroke="#000" stroke-width="0.049"/>
            <path id="Path_1268" data-name="Path 1268" d="M6.943,32.927A1.274,1.274,0,0,0,6.37,32a1.274,1.274,0,0,0-.573.931Z" transform="translate(-5.593 -29.186)" fill="#fff" stroke="#000" stroke-width="0.049"/>
            <path id="Path_1269" data-name="Path 1269" d="M7.229,33.032v-.541a.813.813,0,0,0-.42.3,1.209,1.209,0,0,0-.372-.614,1.184,1.184,0,0,0-.35.614.812.812,0,0,0-.42-.3v.541Z" transform="translate(-5.666 -29.082)" fill="#fff" stroke="#000" stroke-width="0.049"/>
          </g>
        </g>
        <g id="Group_295" data-name="Group 295" transform="translate(18.409 9.353) rotate(180)">
          <path id="Path_1270" data-name="Path 1270" d="M.363,0V1.635A.642.642,0,0,1,0,2.064V3.5l.3-.162.342-1.5V0Z" transform="translate(0 0.426)" fill="#fff" stroke="#000" stroke-width="0.049"/>
          <path id="Path_1271" data-name="Path 1271" d="M.363,0V1.642A.642.642,0,0,1,0,2.071V3.61c.2,0,.3-.262.3-.262l.342-1.5V.013Z" transform="translate(0 0.419)" fill="#fff" stroke="#000" stroke-width="0.049"/>
          <path id="Path_1272" data-name="Path 1272" d="M0,0C.138.062.34.234.34.406V2.449l-.095.169H3.727l-.136-.169V.406A.489.489,0,0,1,3.868,0Z" transform="translate(0.15 0)" fill="#fff" stroke="#000" stroke-width="0.049"/>
          <path id="Path_1273" data-name="Path 1273" d="M2.468,0c-.138.062-.34.234-.34.406V2.349l.29.269H.05l.29-.269V.406C.34.234.138.062,0,0Z" transform="translate(0.848 0)" fill="#fff" stroke="#000" stroke-width="0.049"/>
          <path id="Path_1274" data-name="Path 1274" d="M1.8,0c-.138.062-.34.234-.34.406V2.163l.19.269H.15l.19-.269V.406C.34.234.138.062,0,0Z" transform="translate(1.179 0)" fill="#fff" stroke="#000" stroke-width="0.049"/>
          <path id="Path_1275" data-name="Path 1275" d="M0,2.431H.719V0H0Z" transform="translate(1.722)" fill="#fff" stroke="#000" stroke-width="0.049"/>
          <path id="Path_1276" data-name="Path 1276" d="M.245,1.32H.532V0H.245Zm2.46,0h.287V0H2.7ZM0,3.545H.346V2.192H0ZM0,3.8H.344V3.548H0Z" transform="translate(0.5 0.433)" fill="#fff" stroke="#000" stroke-linejoin="bevel" stroke-width="0.049"/>
          <path id="Path_1277" data-name="Path 1277" d="M0,1.044H.493V0H0Z" transform="translate(3.342 2.643)" fill="#fff" stroke="#000" stroke-linejoin="bevel" stroke-width="0.053"/>
          <path id="Path_1278" data-name="Path 1278" d="M.541.018V2.333c.1,0,.114-.339.34-.339.118,0,.105.14.039.255a.515.515,0,0,0-.033.5c.068-.2.249-.263.216-.138-.058.215-.224.25-.1.584.043-.278.222-.266.179-.1-.049.182-.15.257-.025.514.07-.292.164-.275.164-.094,0,.268-.01.556.336.664,0,0,.02.245.145.245s.145-.245.145-.245c.346-.107.336-.4.336-.664,0-.181.094-.2.164.094.125-.257.024-.332-.025-.514-.044-.162.135-.174.178.1.124-.334-.041-.369-.1-.584-.033-.125.148-.062.216.138a.516.516,0,0,0-.033-.5c-.066-.114-.079-.255.039-.255.226,0,.241.339.34.339V.017ZM0,1.766V0H.2V1.771a.177.177,0,0,1-.2,0Z" transform="translate(0.298 2.619)" fill="#fff" stroke="#000" stroke-width="0.049"/>
          <path id="Path_1279" data-name="Path 1279" d="M0,.624A.866.866,0,0,0,.558,0H0Zm3.453.529V0h.163V1.155A.172.172,0,0,1,3.453,1.153Z" transform="translate(0.305 2.618)" fill="#fff" stroke="#000" stroke-width="0.049"/>
          <path id="Path_1280" data-name="Path 1280" d="M.558.623A.866.866,0,0,1,0,0H.558Z" transform="translate(3.363 2.627)" fill="#fff" stroke="#000" stroke-width="0.049"/>
          <g id="Group_294" data-name="Group 294" transform="translate(1.302 2.431)">
            <path id="Path_1281" data-name="Path 1281" d="M.507,0,.653.122V.278A.153.153,0,0,1,.531.2a.4.4,0,0,1-.2.235A.394.394,0,0,1,.121.207.149.149,0,0,1,0,.278V.122L.145,0Z" transform="translate(0.465 3.511)" fill="#fff" stroke="#000" stroke-width="0.049"/>
            <path id="Path_1282" data-name="Path 1282" d="M.585,0,.653.146v.2A.153.153,0,0,1,.531.273a.4.4,0,0,1-.2.238A.4.4,0,0,1,.121.277.149.149,0,0,1,0,.349v-.2L.068,0Z" transform="translate(0.465 3.12)" fill="#fff" stroke="#000" stroke-width="0.049"/>
            <path id="Path_1283" data-name="Path 1283" d="M.754,0,.969.263V.522A.225.225,0,0,1,.789.394C.739.572.631.611.484.7.338.611.23.578.18.4A.217.217,0,0,1,0,.522V.263L.215,0Z" transform="translate(0.307 2.59)" fill="#fff" stroke="#000" stroke-width="0.049"/>
            <path id="Path_1284" data-name="Path 1284" d="M.93,0s.251.219.266.34V.617A.316.316,0,0,1,.935.466.585.585,0,0,1,.6.871a.585.585,0,0,1-.337-.4A.316.316,0,0,1,0,.617V.34A1.219,1.219,0,0,1,.266,0Z" transform="translate(0.193 2.069)" fill="#fff" stroke="#000" stroke-width="0.049"/>
            <path id="Path_1285" data-name="Path 1285" d="M1.231,0s.344.381.352.529V.962A.481.481,0,0,1,1.237.678a1.219,1.219,0,0,1-.446.781A1.219,1.219,0,0,1,.346.678.481.481,0,0,1,0,.962V.529A2.139,2.139,0,0,1,.352,0Z" transform="translate(0 1.107)" fill="#fff" stroke="#000" stroke-width="0.049"/>
            <path id="Path_1286" data-name="Path 1286" d="M1.231,0a2.646,2.646,0,0,1,.352.429V.862A.481.481,0,0,1,1.237.578a1.112,1.112,0,0,1-.446.736A1.111,1.111,0,0,1,.346.578.481.481,0,0,1,0,.862V.429A4,4,0,0,1,.352,0Z" transform="translate(0 0.538)" fill="#fff" stroke="#000" stroke-width="0.049"/>
            <path id="Path_1287" data-name="Path 1287" d="M1.146,0A1.274,1.274,0,0,1,.573.931,1.274,1.274,0,0,1,0,0Z" transform="translate(0.203 0.208)" fill="#fff" stroke="#000" stroke-width="0.049"/>
            <path id="Path_1288" data-name="Path 1288" d="M1.562,0V.541a.813.813,0,0,1-.42-.3A1.209,1.209,0,0,1,.77.852,1.184,1.184,0,0,1,.42.237a.812.812,0,0,1-.42.3V0Z" fill="#fff" stroke="#000" stroke-width="0.049"/>
          </g>
        </g>
        <g id="Group_296" data-name="Group 296" transform="translate(0 9.331)">
          <path id="Path_1289" data-name="Path 1289" d="M5.246,34.267v.494H22.2v-.494Zm-.307.5v.644H22.5v-.644ZM22.5,35.41l-17.565,0-.513,0v.85H23.017v-.85Zm-18.6.855v1H23.535v-1Zm19.627,1v0H3.908v0H3.391v1H24.052v-1Z" transform="translate(-3.391 -34.267)" fill="#fff" stroke="#000" stroke-width="0.049"/>
          <path id="Path_1290" data-name="Path 1290" d="M5.755,34.269h1.28v3.995H5.755Z" transform="translate(-2.061 -34.266)" fill="#fff" stroke="#000" stroke-width="0.054"/>
          <path id="Path_1291" data-name="Path 1291" d="M5.937,34.269H6.65v3.995H5.937Z" transform="translate(-1.959 -34.266)" fill="#fff" stroke="#000" stroke-width="0.053"/>
          <path id="Path_1292" data-name="Path 1292" d="M9.578,34.269h1.28v3.995H9.578Z" transform="translate(0.09 -34.266)" fill="#fff" stroke="#000" stroke-width="0.054"/>
          <path id="Path_1293" data-name="Path 1293" d="M9.765,34.269h.713v3.995H9.765Z" transform="translate(0.195 -34.266)" fill="#fff" stroke="#000" stroke-width="0.053"/>
          <path id="Path_1294" data-name="Path 1294" d="M13.424,34.269H14.7v3.995h-1.28Z" transform="translate(2.253 -34.266)" fill="#fff" stroke="#000" stroke-width="0.054"/>
          <path id="Path_1295" data-name="Path 1295" d="M13.605,34.269h.713v3.995h-.713Z" transform="translate(2.355 -34.266)" fill="#fff" stroke="#000" stroke-width="0.053"/>
        </g>
        <g id="Group_297" data-name="Group 297" transform="translate(2.617 8.927)">
          <path id="Path_1296" data-name="Path 1296" d="M5.065,34.009H20.511m-14.1,3.9h.74m-.74-.5h.74m-.74-.5h.74m-.74-.5h.74m-.74-.5h.74m-.74-.5h.74m-.74-.5h.74m5.259,3H13.1m-.689-.5H13.1m-.689-.5H13.1m-.689-.5H13.1m-.689-.5H13.1m-.689-.5H13.1m-.689-.5H13.1m5.3,3h.74m-.74-.5h.74m-.74-.5h.74m-.74-.5h.74m-.74-.5h.74m-.74-.5h.74m-.74-.5h.74" transform="translate(-5.065 -34.009)" fill="none" stroke="#000" stroke-width="0.049"/>
        </g>
      </g>
    </g>
  </g>
</svg>
