<svg xmlns="http://www.w3.org/2000/svg" xmlns:xlink="http://www.w3.org/1999/xlink" width="32" height="32" viewBox="0 0 32 32">
  <defs>
    <clipPath id="clip-path">
      <circle id="Canada" cx="16" cy="16" r="16" transform="translate(233 2007)" fill="#fff"/>
    </clipPath>
  </defs>
  <g id="Canada-2" data-name="Canada" transform="translate(-233 -2007)" clip-path="url(#clip-path)">
    <g id="Flag_of_Canada" transform="translate(216 2006.05)">
      <path id="Path_1297" data-name="Path 1297" d="M0,0H16.475l.68.68H48.746l.68-.68H65.9V32.95H49.426l-.68-.68H17.155l-.68.68H0Z" fill="red"/>
      <path id="Path_1298" data-name="Path 1298" d="M8,0H40.95V32.95H8ZM25.093,30.41l-.309-5.924a.652.652,0,0,1,.762-.673l5.9,1.037-.8-2.2a.446.446,0,0,1,.137-.5l6.46-5.231-1.455-.68a.446.446,0,0,1-.233-.542l1.277-3.927-3.721.789a.446.446,0,0,1-.5-.261l-.721-1.7-2.9,3.117a.446.446,0,0,1-.762-.391l1.4-7.222-2.245,1.3a.446.446,0,0,1-.625-.185L24.475,2.746,22.2,7.222a.446.446,0,0,1-.625.185l-2.245-1.3,1.4,7.222a.446.446,0,0,1-.762.391l-2.9-3.117-.721,1.7a.446.446,0,0,1-.5.261l-3.721-.789L13.4,15.7a.446.446,0,0,1-.233.542l-1.455.68,6.46,5.231a.446.446,0,0,1,.137.5l-.8,2.2,5.9-1.037a.652.652,0,0,1,.762.673l-.309,5.924Z" transform="translate(8.475)" fill="#fff"/>
    </g>
  </g>
</svg>
