<svg xmlns="http://www.w3.org/2000/svg" xmlns:xlink="http://www.w3.org/1999/xlink" width="32" height="32" viewBox="0 0 32 32">
  <defs>
    <clipPath id="clip-path">
      <circle id="China" cx="16" cy="16" r="16" transform="translate(477 1231)" fill="#fff"/>
    </clipPath>
  </defs>
  <g id="China-2" data-name="China" transform="translate(-477 -1231)" clip-path="url(#clip-path)">
    <g id="Flag_of_the_People_s_Republic_of_China" data-name="Flag_of_the_People&apos;s_Republic_of_China" transform="translate(477 1231)">
      <rect id="Rectangle_76" data-name="Rectangle 76" width="48" height="32" fill="#de2910"/>
      <path id="Path_1129" data-name="Path 1129" d="M1.522-3.2,4.343,5.483-3.043.117h9.13L-1.3,5.483Z" transform="translate(9.478 13.4)" fill="#ffde00"/>
      <path id="Path_1130" data-name="Path 1130" d="M1.522,0l.94,2.894L0,1.106H3.043L.581,2.894Z" transform="translate(18.226 8.132) rotate(23.036)" fill="#ffde00"/>
      <path id="Path_1131" data-name="Path 1131" d="M1.522,0l.94,2.894L0,1.106H3.043L.581,2.894Z" transform="translate(22.289 11.194) rotate(45.87)" fill="#ffde00"/>
      <path id="Path_1132" data-name="Path 1132" d="M1.522,0l.94,2.894L0,1.106H3.043L.581,2.894Z" transform="translate(23.181 16.222) rotate(69.945)" fill="#ffde00"/>
      <path id="Path_1133" data-name="Path 1133" d="M1.522,0l.94,2.894L0,1.106H3.043L.581,2.894Z" transform="translate(18.141 19.366) rotate(20.66)" fill="#ffde00"/>
    </g>
  </g>
</svg>
