<svg xmlns="http://www.w3.org/2000/svg" xmlns:xlink="http://www.w3.org/1999/xlink" width="32" height="32" viewBox="0 0 32 32">
  <defs>
    <clipPath id="clip-path">
      <circle id="Guatemala" cx="16" cy="16" r="16" transform="translate(397 2137)" fill="#fff"/>
    </clipPath>
    <radialGradient id="radial-gradient" cx="0.162" cy="0.477" r="0.879" gradientTransform="translate(0.052) scale(0.896 1)" gradientUnits="objectBoundingBox">
      <stop offset="0.216" stop-color="#f9f0aa"/>
      <stop offset="1" stop-color="#b07e09"/>
    </radialGradient>
    <radialGradient id="radial-gradient-2" cx="0.297" cy="0.776" r="1.021" gradientTransform="translate(0.037) scale(0.925 1)" xlink:href="#radial-gradient"/>
    <radialGradient id="radial-gradient-3" cx="0.361" cy="0.775" r="1.589" gradientTransform="translate(0.2) scale(0.599 1)" xlink:href="#radial-gradient"/>
    <radialGradient id="radial-gradient-4" cx="0.52" cy="0.495" r="1.054" gradientTransform="translate(0.036) scale(0.928 1)" xlink:href="#radial-gradient"/>
    <linearGradient id="linear-gradient" x1="0.498" y1="0.572" x2="0.475" y2="-0.249" gradientUnits="objectBoundingBox">
      <stop offset="0.216" stop-color="#b07e09" stop-opacity="0"/>
      <stop offset="1" stop-color="#b07e09"/>
    </linearGradient>
    <linearGradient id="linear-gradient-2" x1="0.485" y1="0.355" x2="0.522" y2="1.256" xlink:href="#linear-gradient"/>
    <radialGradient id="radial-gradient-5" cx="0.237" cy="0.749" r="1.042" gradientTransform="translate(0.035) scale(0.93 1)" xlink:href="#radial-gradient"/>
    <linearGradient id="linear-gradient-3" x1="0.426" y1="0.688" x2="0.819" y2="-0.262" gradientTransform="matrix(1, 0, 0, 1, 0, 0)" xlink:href="#radial-gradient"/>
    <linearGradient id="linear-gradient-4" x1="0.48" y1="-0.131" x2="0.528" y2="1.917" gradientTransform="matrix(1, 0, 0, 1, 0, 0)" xlink:href="#radial-gradient"/>
    <radialGradient id="radial-gradient-6" cx="0.251" cy="-0.209" r="0.017" gradientTransform="translate(0.091) scale(0.818 1)" gradientUnits="objectBoundingBox">
      <stop offset="0.259" stop-color="#a50a0a"/>
      <stop offset="1" stop-color="#4c0505"/>
    </radialGradient>
    <radialGradient id="radial-gradient-7" cx="0.496" cy="0.499" r="0.477" gradientTransform="translate(-0.813 0.308) scale(1.047 1.047)" gradientUnits="objectBoundingBox">
      <stop offset="0" stop-color="#fff"/>
      <stop offset="1" stop-color="#fff" stop-opacity="0"/>
    </radialGradient>
  </defs>
  <g id="Guatemala-2" data-name="Guatemala" transform="translate(-397 -2137)" clip-path="url(#clip-path)">
    <g id="Flag_of_Guatemala" transform="translate(387.4 2137)">
      <path id="Path_3289" data-name="Path 3289" d="M0,0H51.2V32H0Z" fill="#4997d0"/>
      <path id="Path_3290" data-name="Path 3290" d="M10.667,0H27.733V32H10.667Z" transform="translate(6.4)" fill="#fff"/>
      <g id="Group_456" data-name="Group 456" transform="translate(19.995 11.202)">
        <g id="Group_431" data-name="Group 431" transform="translate(0 0.226)">
          <g id="Group_424" data-name="Group 424" transform="translate(0.891 1.245)">
            <path id="Path_3291" data-name="Path 3291" d="M16.281,15.38a1.491,1.491,0,0,0,.322-.1m.118-.216a.7.7,0,0,1,.16.247m-.433-.271a.821.821,0,0,1,.167.221M13.971,7.982a.567.567,0,0,1-.255.183M13.7,8.155a1.371,1.371,0,0,1,0-.234m-.106.268c.006.02.023.075.036.108m.108.049c-.02,0-.081.014-.108.018m-.211-.047a3.981,3.981,0,0,0,.028.417m-.1-.051a.315.315,0,0,0,.082.1m-.245.345a.756.756,0,0,1,.07.211m.2-.247a.81.81,0,0,0-.1.082m.085.234a.838.838,0,0,1-.183.113m-.2,2.155a.852.852,0,0,0,.211.25m.031.09a.426.426,0,0,1-.157-.052m.234.448.09.052m-.023.185a.971.971,0,0,1,.2.206m-.077.152a.633.633,0,0,1,.173.057m-.057.129.113,0m.064-.287a2.079,2.079,0,0,1-.026.227m.054.085.023-.088m.25.32-.008.173m2.091,1.488-.062.085m-.129-.209-.036-.1" transform="translate(-13.054 -7.92)" fill="none" stroke="#24420e" stroke-width="0.015"/>
          </g>
          <g id="Group_429" data-name="Group 429">
            <path id="Path_3292" data-name="Path 3292" d="M18.068,15.92a.445.445,0,0,0-.175-.142,4.017,4.017,0,0,0-1.286-.386,1.571,1.571,0,0,1-.325-.17c-.265-.126-.559-.175-.817-.3a.416.416,0,0,1-.112-.082c-.1-.119-.287-.155-.4-.265a4.483,4.483,0,0,1-1.161-1.363,4.69,4.69,0,0,1-.617-2.145,7.87,7.87,0,0,1,.08-1.442,5.578,5.578,0,0,1,.822-1.937L14,7.727a5.536,5.536,0,0,0-.824,1.937,7.87,7.87,0,0,0-.08,1.442,4.711,4.711,0,0,0,.617,2.148,4.582,4.582,0,0,0,1.161,1.363c.115.108.3.144.4.265a.534.534,0,0,0,.112.082c.257.129.552.178.817.3a1.461,1.461,0,0,0,.325.17,4.083,4.083,0,0,1,1.286.386.428.428,0,0,1,.175.142l.072-.044" transform="translate(-12.137 -6.817)" fill="#406325" stroke="#24420e" stroke-width="0.005"/>
            <g id="Group_425" data-name="Group 425" transform="translate(0.004 1.335)">
              <path id="Path_3293" data-name="Path 3293" d="M13.577,11.525a2.5,2.5,0,0,1-.011-1.255C13.92,10.963,13.8,11.536,13.577,11.525Zm2.446,2.421a2.548,2.548,0,0,0-1.166.608C15.661,14.559,16.138,14.163,16.023,13.945Zm.4-.229a3.207,3.207,0,0,1-.748-1.413C16.478,12.881,16.682,13.6,16.421,13.717Z" transform="translate(-11.904 -6.601)" fill="#67923d" stroke="#24420e" stroke-width="0.005"/>
              <path id="Path_3294" data-name="Path 3294" d="M16.285,14.9a2.939,2.939,0,0,1-.85-1.214C16.246,14.126,16.512,14.762,16.285,14.9Zm-.83-.362a2.889,2.889,0,0,0-.4-1.386C14.894,14.034,15.211,14.626,15.455,14.541ZM14,13.246a2.249,2.249,0,0,1,.025-1.12C14.318,12.75,14.2,13.258,14,13.246Zm-.731-4.1a2.725,2.725,0,0,1,1.119-.85C14.026,9.076,13.425,9.356,13.268,9.148Z" transform="translate(-12.038 -7.783)" fill="#67923d" stroke="#24420e" stroke-width="0.005"/>
              <path id="Path_3295" data-name="Path 3295" d="M13.767,9.045a2.761,2.761,0,0,1,.926-1.068C14.494,8.813,13.963,9.213,13.767,9.045Zm1.483,5.288a2.929,2.929,0,0,1-.389-1.406C15.462,13.595,15.5,14.273,15.25,14.333Zm-1.528-1.945a2.439,2.439,0,0,1-1.222-.338C13.274,11.883,13.795,12.161,13.722,12.388Zm-.118-.516a2.108,2.108,0,0,1,.553-.889C14.1,11.621,13.759,11.976,13.6,11.872Zm2.738,3.122a3.045,3.045,0,0,0-1.393.726C15.909,15.728,16.478,15.255,16.341,14.994Z" transform="translate(-12.499 -7.977)" fill="#67923d" stroke="#24420e" stroke-width="0.005"/>
            </g>
            <g id="Group_426" data-name="Group 426">
              <path id="Path_3296" data-name="Path 3296" d="M14.169,13.257c.225.011.342-.554-.014-1.247A4.207,4.207,0,0,1,14.169,13.257Zm.6,1.066a2.6,2.6,0,0,0-1.158-.594C14.081,14.373,14.668,14.534,14.765,14.323Zm-1.3-2.826a3.031,3.031,0,0,0-.786-1.278C12.758,11.135,13.239,11.643,13.463,11.5Zm.447,1.829a2.313,2.313,0,0,0-1.117-.252C13.334,13.518,13.872,13.526,13.91,13.326ZM13.411,12a2.242,2.242,0,0,0-.9-.731C12.8,11.932,13.287,12.175,13.411,12Zm.146-2.535a2.861,2.861,0,0,0-.392-1.342C13.012,8.974,13.321,9.547,13.557,9.467Zm.238-.8a2.624,2.624,0,0,0-.028-1.3C13.426,8.089,13.563,8.683,13.8,8.671Z" transform="translate(-12.489 -7.006)" fill="#406325" stroke="#24420e" stroke-width="0.005"/>
              <path id="Path_3297" data-name="Path 3297" d="M13.884,8.4a2.148,2.148,0,0,0,.186-1.038C13.684,7.879,13.7,8.371,13.884,8.4Zm.317-.327a2.071,2.071,0,0,0,.484-.93C14.166,7.513,14.034,7.987,14.2,8.072Zm-.856,2.3a2.144,2.144,0,0,0-.536-.977C12.831,10.189,13.142,10.488,13.345,10.376Zm1.737,4.575a2.831,2.831,0,0,0-1.374-.316C14.377,15.187,15.034,15.2,15.082,14.951Zm.644.279c-.242.085-.557-.5-.4-1.38A4.952,4.952,0,0,0,15.725,15.23Zm.709.595c.113.218-.357.61-1.162.6A4.263,4.263,0,0,0,16.435,15.825Zm.394-.238c.259-.12.059-.829-.747-1.406A5.316,5.316,0,0,1,16.829,15.586Z" transform="translate(-12.31 -7.142)" fill="#406325" stroke="#24420e" stroke-width="0.005"/>
              <path id="Path_3298" data-name="Path 3298" d="M16.283,14.9c.228-.142-.037-.77-.848-1.207A4.961,4.961,0,0,1,16.283,14.9ZM14,13.243c.2.012.318-.494.025-1.116A3.712,3.712,0,0,1,14,13.243ZM13.267,9.15c.157.208.75-.07,1.111-.849A4.585,4.585,0,0,1,13.267,9.15Z" transform="translate(-12.035 -6.447)" fill="#406325" stroke="#24420e" stroke-width="0.005"/>
              <path id="Path_3299" data-name="Path 3299" d="M13.774,9.044c.2.168.722-.229.921-1.065A4.732,4.732,0,0,1,13.774,9.044Zm1.478,5.285c.253-.06.211-.735-.387-1.4A4.829,4.829,0,0,1,15.253,14.329Zm-1.54-1.945c.075-.226-.443-.5-1.216-.334A4.145,4.145,0,0,1,13.713,12.384Zm-.1-.513c.155.1.489-.249.549-.886A3.658,3.658,0,0,1,13.61,11.872ZM16.34,15c.137.26-.425.729-1.389.721A5.092,5.092,0,0,0,16.34,15Z" transform="translate(-12.497 -6.64)" fill="#406325" stroke="#24420e" stroke-width="0.005"/>
              <path id="Path_3300" data-name="Path 3300" d="M13.652,11.193a2.4,2.4,0,0,0-.906-.845C13.01,11.076,13.506,11.37,13.652,11.193Z" transform="translate(-12.347 -5.218)" fill="#406325" stroke="#24420e" stroke-width="0.005"/>
            </g>
            <g id="Group_427" data-name="Group 427" transform="translate(0.019 0.005)">
              <path id="Path_3301" data-name="Path 3301" d="M13.424,10.322a2.225,2.225,0,0,1,1.045-.473C14.04,10.4,13.512,10.517,13.424,10.322Zm1.337,4.138c-.1.209-.677.049-1.154-.595A4.5,4.5,0,0,0,14.761,14.46Zm-1.3-2.829c-.224.145-.7-.359-.783-1.274A5.071,5.071,0,0,0,13.46,11.631Zm.449,1.831c-.041.2-.57.191-1.113-.252A3.949,3.949,0,0,0,13.909,13.462Zm-.5-1.331c-.124.173-.6-.068-.9-.728A3.815,3.815,0,0,0,13.405,12.132ZM13.552,9.6c-.236.083-.542-.484-.389-1.334A4.614,4.614,0,0,0,13.552,9.6Zm.238-.793c-.23.012-.366-.577-.025-1.3A4.556,4.556,0,0,0,13.791,8.8Zm.269-.409c-.185-.028-.2-.515.188-1.033A3.531,3.531,0,0,0,14.06,8.394Zm.319-.324c-.167-.088-.037-.556.482-.925A3.532,3.532,0,0,0,14.378,8.07Z" transform="translate(-12.509 -7.145)" fill="#67923d" stroke="#24420e" stroke-width="0.005"/>
              <path id="Path_3302" data-name="Path 3302" d="M13.381,9.53c-.2.112-.511-.187-.533-.977A3.1,3.1,0,0,0,13.381,9.53Zm1.737,4.576c-.047.247-.7.235-1.369-.314A4.671,4.671,0,0,0,15.118,14.106Zm-.436-.506a2.183,2.183,0,0,1-.36-1.026C14.8,13.04,14.868,13.543,14.683,13.6Zm-.9-1.333a2.365,2.365,0,0,1-.156-1.224C14.067,11.673,14.014,12.248,13.782,12.267Zm-.14,0c-.146.176-.636-.115-.9-.844A4.125,4.125,0,0,0,13.642,12.272Z" transform="translate(-12.369 -6.301)" fill="#67923d" stroke="#24420e" stroke-width="0.005"/>
            </g>
            <g id="Group_428" data-name="Group 428" transform="translate(0.694 2.713)">
              <path id="Path_3303" data-name="Path 3303" d="M13.079,9.311c.086.193.611.082,1.04-.474C13.48,9.2,13.227,9.357,13.079,9.311Zm.5,2.777c.231-.02.284-.589-.156-1.218A3.878,3.878,0,0,1,13.577,12.088Zm.9,1.339c.185-.057.12-.557-.358-1.023A3.594,3.594,0,0,1,14.482,13.427Z" transform="translate(-12.842 -8.837)" fill="#406325" stroke="#24420e" stroke-width="0.005"/>
              <path id="Path_3304" data-name="Path 3304" d="M13.267,10.237a2.193,2.193,0,0,0-.229-1.363C12.786,9.7,13.025,10.292,13.267,10.237Z" transform="translate(-12.931 -8.816)" fill="#406325" stroke="#24420e" stroke-width="0.005"/>
            </g>
            <path id="Path_3305" data-name="Path 3305" d="M13.258,10.334c-.314.071-.461-.642-.218-1.444A5.766,5.766,0,0,0,13.258,10.334Z" transform="translate(-12.244 -6.093)" fill="#67923d" stroke="#24420e" stroke-width="0.005"/>
            <path id="Path_3306" data-name="Path 3306" d="M13.092,10.285a2.787,2.787,0,0,1,.475-1.318C13.675,9.81,13.329,10.37,13.092,10.285Z" transform="translate(-12.141 -6.047)" fill="#67923d" stroke="#24420e" stroke-width="0.005"/>
            <path id="Path_3307" data-name="Path 3307" d="M13.095,10.278c.235.087.579-.467.471-1.31A4.778,4.778,0,0,1,13.095,10.278Z" transform="translate(-12.138 -6.046)" fill="#406325" stroke="#24420e" stroke-width="0.005"/>
            <path id="Path_3308" data-name="Path 3308" d="M13.138,10.581a2.671,2.671,0,0,1,.563-1.26C13.745,10.183,13.363,10.7,13.138,10.581Z" transform="translate(-12.112 -5.834)" fill="#67923d" stroke="#24420e" stroke-width="0.005"/>
            <path id="Path_3309" data-name="Path 3309" d="M13.14,10.584c.226.118.6-.393.558-1.255A4.6,4.6,0,0,1,13.14,10.584Z" transform="translate(-12.111 -5.829)" fill="#406325" stroke="#24420e" stroke-width="0.005"/>
          </g>
          <g id="Group_430" data-name="Group 430" transform="translate(0.87 1.406)">
            <circle id="Ellipse_225" data-name="Ellipse 225" cx="0.058" cy="0.058" r="0.058" transform="translate(0.241 0.51)" fill="#ba1f3e" stroke="#511124" stroke-width="0.006"/>
            <circle id="Ellipse_226" data-name="Ellipse 226" cx="0.058" cy="0.058" r="0.058" transform="translate(0.688 0.179)" fill="#ba1f3e" stroke="#511124" stroke-width="0.006"/>
            <circle id="Ellipse_227" data-name="Ellipse 227" cx="0.058" cy="0.058" r="0.058" transform="translate(0.493)" fill="#ba1f3e" stroke="#511124" stroke-width="0.006"/>
            <circle id="Ellipse_228" data-name="Ellipse 228" cx="0.068" cy="0.068" r="0.068" transform="translate(0 3.798)" fill="#ba1f3e" stroke="#511124" stroke-width="0.007"/>
            <circle id="Ellipse_229" data-name="Ellipse 229" cx="0.068" cy="0.068" r="0.068" transform="translate(0.135 2.946)" fill="#ba1f3e" stroke="#511124" stroke-width="0.007"/>
            <circle id="Ellipse_230" data-name="Ellipse 230" cx="0.068" cy="0.068" r="0.068" transform="translate(0.838 4.936)" fill="#ba1f3e" stroke="#511124" stroke-width="0.007"/>
            <circle id="Ellipse_231" data-name="Ellipse 231" cx="0.068" cy="0.068" r="0.068" transform="translate(0.527 5.042)" fill="#ba1f3e" stroke="#511124" stroke-width="0.007"/>
            <circle id="Ellipse_232" data-name="Ellipse 232" cx="0.068" cy="0.068" r="0.068" transform="translate(2.891 6.706)" fill="#ba1f3e" stroke="#511124" stroke-width="0.007"/>
            <circle id="Ellipse_233" data-name="Ellipse 233" cx="0.068" cy="0.068" r="0.068" transform="translate(3.046 7.083)" fill="#ba1f3e" stroke="#511124" stroke-width="0.007"/>
          </g>
        </g>
        <g id="Group_439" data-name="Group 439" transform="translate(5.306 0.313)">
          <g id="Group_432" data-name="Group 432" transform="translate(1.103 1.123)">
            <path id="Path_3310" data-name="Path 3310" d="M20.027,9.073c.033.033.063.043.122.1M19.8,8.163a1.851,1.851,0,0,0-.049-.265m.184.159a.609.609,0,0,1-.057.294m-.222-.028a1.247,1.247,0,0,0,.28.208m.2.065a1,1,0,0,1-.036.317m.017.081.07-.121m-.1.652a.327.327,0,0,1,.187.186m.025-.069.087-.117m.091,1.639a1.279,1.279,0,0,1-.131.186m-.211,0a1,1,0,0,0,.138.215m.131.313a.7.7,0,0,1-.237.215m.007.24a1.29,1.29,0,0,0-.2.251m.45-1.076-.113.046m-.074-.4.067.059m-.5,1.994a.455.455,0,0,0-.113,0m-.106-.1.033.087m-.411.273a1.043,1.043,0,0,0,.011.3m.23-.481.055.12m.2-.011-.135.022m-1.646,1.348-.049.093m.635-.209a.843.843,0,0,1-.219-.011m-.291.317a1.455,1.455,0,0,0-.157-.051m-.786.142a1.177,1.177,0,0,0-.164.219m-.029-.244c-.13.067-.17.2-.237.31m.149.153a2.8,2.8,0,0,1-.284-.109m.894-.036a1.158,1.158,0,0,0-.381-.078m.574-.018a1.608,1.608,0,0,0-.548-.007m.415-.139-.075-.031m-.295.293-.124-.069m3.09-2.624a.97.97,0,0,0-.2.206m.1-4.247-.115-.039" transform="translate(-16.502 -7.898)" fill="none" stroke="#24420e" stroke-width="0.015"/>
          </g>
          <g id="Group_437" data-name="Group 437">
            <path id="Path_3311" data-name="Path 3311" d="M15.813,15.917a.445.445,0,0,1,.175-.142,4.017,4.017,0,0,1,1.286-.386,1.571,1.571,0,0,0,.325-.17c.265-.126.559-.175.817-.3a.416.416,0,0,0,.112-.082c.1-.119.287-.155.4-.265A4.484,4.484,0,0,0,20.091,13.2a4.692,4.692,0,0,0,.617-2.145,7.87,7.87,0,0,0-.08-1.442,5.578,5.578,0,0,0-.822-1.937l.07.044A5.537,5.537,0,0,1,20.7,9.661a7.87,7.87,0,0,1,.08,1.442,4.712,4.712,0,0,1-.617,2.148A4.583,4.583,0,0,1,19,14.614c-.115.108-.3.144-.4.265a.532.532,0,0,1-.112.082c-.257.129-.552.178-.817.3a1.459,1.459,0,0,1-.325.17,4.081,4.081,0,0,0-1.286.386.428.428,0,0,0-.175.142l-.072-.044" transform="translate(-15.813 -6.906)" fill="#406325" stroke="#24420e" stroke-width="0.005"/>
            <g id="Group_433" data-name="Group 433" transform="translate(1.956 1.434)">
              <path id="Path_3312" data-name="Path 3312" d="M18.56,11.692a2.863,2.863,0,0,0-.079-1.437C18.126,11.075,18.3,11.722,18.56,11.692Z" transform="translate(-16.289 -6.795)" fill="#406325" stroke="#24420e" stroke-width="0.005"/>
              <path id="Path_3313" data-name="Path 3313" d="M18.294,13.163a2.249,2.249,0,0,0-.025-1.12C17.974,12.667,18.094,13.175,18.294,13.163Zm.9-3.955a2.5,2.5,0,0,0-1.027-.78C18.494,9.142,19.046,9.4,19.19,9.209Z" transform="translate(-16.402 -7.891)" fill="#406325" stroke="#24420e" stroke-width="0.005"/>
              <path id="Path_3314" data-name="Path 3314" d="M19.015,8.983a2.3,2.3,0,0,0-.772-.89C18.409,8.789,18.851,9.123,19.015,8.983Zm.253.8a1.932,1.932,0,0,0-.907-.41C18.732,9.852,19.191,9.95,19.267,9.781Zm-.149,2.471a2.165,2.165,0,0,0,1.085-.3C19.515,11.8,19.053,12.05,19.118,12.252Zm-.008-.3a2.108,2.108,0,0,0-.424-.956C18.656,11.634,18.942,12.032,19.11,11.951Z" transform="translate(-16.311 -8.093)" fill="#406325" stroke="#24420e" stroke-width="0.005"/>
              <path id="Path_3315" data-name="Path 3315" d="M19.856,10.52a2.671,2.671,0,0,0-.563-1.26C19.249,10.123,19.631,10.638,19.856,10.52Zm-2.821,4.014a2.545,2.545,0,0,0,1.178.582C17.744,14.464,17.143,14.314,17.036,14.535Z" transform="translate(-17.036 -7.392)" fill="#406325" stroke="#24420e" stroke-width="0.005"/>
            </g>
            <g id="Group_434" data-name="Group 434" transform="translate(1.359)">
              <path id="Path_3316" data-name="Path 3316" d="M19.526,12.251c-.257.029-.431-.61-.074-1.429A4.818,4.818,0,0,0,19.526,12.251ZM16.679,14.58a2.548,2.548,0,0,1,1.166.608C17.041,15.194,16.564,14.8,16.679,14.58Zm0-.423a3.019,3.019,0,0,1,.934-1.181C17.421,13.889,16.881,14.337,16.679,14.156Zm1.134-.226a2.888,2.888,0,0,1,.4-1.386C18.376,13.423,18.058,14.016,17.814,13.931Zm1.145-.775a2.6,2.6,0,0,1,1.158-.594C19.642,13.205,19.056,13.366,18.958,13.155Zm1.375-2.841a2.387,2.387,0,0,1,.619-1.006C20.889,10.029,20.51,10.429,20.334,10.315Z" transform="translate(-16.662 -5.93)" fill="#67923d" stroke="#24420e" stroke-width="0.005"/>
              <path id="Path_3317" data-name="Path 3317" d="M18.823,13.612a2.7,2.7,0,0,1,1.3-.294C19.494,13.834,18.868,13.844,18.823,13.612Zm.548-1.308a2.356,2.356,0,0,1,.947-.768C20.008,12.23,19.5,12.485,19.371,12.3Zm-.079-2.43a2.863,2.863,0,0,1,.532-1.293c.062.861-.305,1.4-.531,1.293Zm-.37-1.382a2.157,2.157,0,0,1,0-1.071C19.213,8.006,19.113,8.5,18.922,8.492ZM18.7,8.375A2.653,2.653,0,0,1,18.141,7.2C18.768,7.691,18.909,8.282,18.7,8.375Z" transform="translate(-15.775 -7.197)" fill="#67923d" stroke="#24420e" stroke-width="0.005"/>
              <path id="Path_3318" data-name="Path 3318" d="M19.558,9.679a2.144,2.144,0,0,1,.758-.816C20.1,9.624,19.727,9.837,19.558,9.679Zm-1.819,4.795a3.212,3.212,0,0,1,1.559-.359C18.538,14.742,17.793,14.753,17.739,14.474Zm.764-1.111c-.2.012-.318-.494-.025-1.116A3.71,3.71,0,0,0,18.5,13.362Zm.9-3.95c-.144.191-.688-.064-1.02-.779A4.2,4.2,0,0,0,19.4,9.412Zm-.091-.43c-.164.14-.6-.191-.768-.888A3.94,3.94,0,0,0,19.312,8.982Zm.261.8c-.075.168-.53.071-.9-.411C19.224,9.687,19.444,9.823,19.572,9.784Zm-.143,2.465c-.067-.2.393-.444,1.08-.3A3.682,3.682,0,0,0,19.429,12.248Zm-.021-.3c-.167.078-.45-.314-.421-.954A3.663,3.663,0,0,0,19.408,11.949Z" transform="translate(-16.016 -6.658)" fill="#67923d" stroke="#24420e" stroke-width="0.005"/>
              <path id="Path_3319" data-name="Path 3319" d="M19.85,10.524c-.226.118-.6-.393-.558-1.255A4.6,4.6,0,0,0,19.85,10.524Zm-2.81,4c.108-.221.7-.073,1.172.581A4.26,4.26,0,0,0,17.04,14.527Z" transform="translate(-16.436 -5.953)" fill="#67923d" stroke="#24420e" stroke-width="0.005"/>
            </g>
            <g id="Group_435" data-name="Group 435" transform="translate(1.357 0.002)">
              <path id="Path_3320" data-name="Path 3320" d="M17.385,12.712c.242.085.557-.5.4-1.38A4.952,4.952,0,0,1,17.385,12.712Z" transform="translate(-16.227 -4.717)" fill="#406325" stroke="#24420e" stroke-width="0.005"/>
              <path id="Path_3321" data-name="Path 3321" d="M18.368,14.913a2.929,2.929,0,0,0,.244-1.438C18.082,14.2,18.11,14.879,18.368,14.913Zm-1.69.935c-.113.218.357.61,1.162.6A4.263,4.263,0,0,1,16.678,15.848Zm.009-.429c.2.178.736-.264.928-1.178A5.009,5.009,0,0,1,16.686,15.419Zm2.278-.995c.1.209.677.049,1.154-.595A4.5,4.5,0,0,1,18.964,14.424Zm1.373-2.844c.176.115.551-.283.617-1A3.991,3.991,0,0,1,20.337,11.58Zm-.623,2.033c.048.232.664.223,1.3-.293A4.6,4.6,0,0,1,19.714,13.613Zm.553-1.314c.131.182.633-.071.942-.765A4,4,0,0,1,20.266,12.3Zm-.081-2.43c.226.108.59-.424.528-1.285A4.616,4.616,0,0,1,20.186,9.869Zm-.371-1.38c.189,0,.289-.482-.007-1.066A3.738,3.738,0,0,1,19.815,8.489Zm-.226-.119c.212-.093.071-.678-.556-1.172A4.359,4.359,0,0,1,19.589,8.369Zm.619,1.849c.169.158.541-.057.755-.818C20.547,9.939,20.286,10.21,20.208,10.219Zm-1.818,4.8c.054.28.8.266,1.554-.357A5.3,5.3,0,0,1,18.39,15.014Z" transform="translate(-16.661 -7.198)" fill="#406325" stroke="#24420e" stroke-width="0.005"/>
              <path id="Path_3322" data-name="Path 3322" d="M18.021,12.856a2.184,2.184,0,0,0,.19-1.071C17.811,12.323,17.829,12.829,18.021,12.856Zm1.045-1.526a2.366,2.366,0,0,0,.156-1.224C18.781,10.736,18.835,11.311,19.066,11.33Z" transform="translate(-15.924 -5.453)" fill="#406325" stroke="#24420e" stroke-width="0.005"/>
            </g>
            <g id="Group_436" data-name="Group 436" transform="translate(1.6 0.682)">
              <path id="Path_3323" data-name="Path 3323" d="M18.274,14.655c-.258-.034-.284-.71.243-1.433A4.83,4.83,0,0,0,18.274,14.655Zm1.875-3.644a1.987,1.987,0,0,1,.354-1.2C20.64,10.577,20.361,11.087,20.15,11.011Zm-1.485,3.333c-.192-.027-.208-.531.189-1.067A3.6,3.6,0,0,0,18.665,14.344Zm1.246-5.559a2.341,2.341,0,0,1,.066-1.161C20.259,8.277,20.117,8.8,19.911,8.784Zm-3.1,6.408a3.057,3.057,0,0,1,1-1.169C17.585,14.952,17.013,15.385,16.813,15.192Zm2.908-2.218a2.4,2.4,0,0,1,.906-.845C20.363,12.857,19.867,13.15,19.721,12.974Zm-.006-.162c-.231-.02-.284-.589.156-1.218A3.878,3.878,0,0,0,19.715,12.812Z" transform="translate(-16.813 -7.623)" fill="#67923d" stroke="#24420e" stroke-width="0.005"/>
            </g>
            <path id="Path_3324" data-name="Path 3324" d="M18.9,10.28c.275.1.484-.527.352-1.275A5.225,5.225,0,0,1,18.9,10.28Z" transform="translate(-13.961 -6.112)" fill="#406325" stroke="#24420e" stroke-width="0.005"/>
            <path id="Path_3325" data-name="Path 3325" d="M20.191,11.086a2.789,2.789,0,0,0-.475-1.318C19.608,10.611,19.954,11.172,20.191,11.086Zm-.278-2.305c.2.018.345-.5.063-1.157A4.066,4.066,0,0,1,19.913,8.781Zm-3.1,6.406c.2.193.766-.236,1-1.165a5.159,5.159,0,0,1-1,1.165Zm2.914-2.213c.146.176.636-.115.9-.844A4.125,4.125,0,0,1,19.731,12.974Z" transform="translate(-15.211 -6.94)" fill="#406325" stroke="#24420e" stroke-width="0.005"/>
            <path id="Path_3326" data-name="Path 3326" d="M19.106,10.276c-.235.087-.579-.467-.471-1.31A4.777,4.777,0,0,0,19.106,10.276Z" transform="translate(-14.132 -6.135)" fill="#67923d" stroke="#24420e" stroke-width="0.005"/>
          </g>
          <g id="Group_438" data-name="Group 438" transform="translate(1.66 1.721)">
            <circle id="Ellipse_234" data-name="Ellipse 234" cx="0.058" cy="0.058" r="0.058" transform="translate(3.094 0.301)" fill="#ba1f3e" stroke="#511124" stroke-width="0.007"/>
            <circle id="Ellipse_235" data-name="Ellipse 235" cx="0.058" cy="0.058" r="0.058" transform="translate(3.297 0.937)" fill="#ba1f3e" stroke="#511124" stroke-width="0.007"/>
            <circle id="Ellipse_236" data-name="Ellipse 236" cx="0.068" cy="0.068" r="0.068" transform="translate(3.358 2.926)" fill="#ba1f3e" stroke="#511124" stroke-width="0.007"/>
            <circle id="Ellipse_237" data-name="Ellipse 237" cx="0.068" cy="0.068" r="0.068" transform="translate(3.085 2.552)" fill="#ba1f3e" stroke="#511124" stroke-width="0.007"/>
            <circle id="Ellipse_238" data-name="Ellipse 238" cx="0.068" cy="0.068" r="0.068" transform="translate(2.299 4.679)" fill="#ba1f3e" stroke="#511124" stroke-width="0.007"/>
            <circle id="Ellipse_239" data-name="Ellipse 239" cx="0.068" cy="0.068" r="0.068" transform="translate(2.635 4.824)" fill="#ba1f3e" stroke="#511124" stroke-width="0.007"/>
            <circle id="Ellipse_240" data-name="Ellipse 240" cx="0.068" cy="0.068" r="0.068" transform="translate(0.373 6.55)" fill="#ba1f3e" stroke="#511124" stroke-width="0.007"/>
            <circle id="Ellipse_241" data-name="Ellipse 241" cx="0.068" cy="0.068" r="0.068" transform="translate(0 6.819)" fill="#ba1f3e" stroke="#511124" stroke-width="0.007"/>
            <circle id="Ellipse_242" data-name="Ellipse 242" cx="0.058" cy="0.058" r="0.058" transform="translate(2.691)" fill="#ba1f3e" stroke="#511124" stroke-width="0.007"/>
          </g>
        </g>
        <g id="b" transform="translate(1.471 0.537)">
          <path id="Path_3327" data-name="Path 3327" d="M14.475,11.223a.1.1,0,0,0,.113.11c.021,0,.033-.031.007-.026a.071.071,0,0,1-.064-.02.089.089,0,0,1-.021-.1l-.035.038h0Z" transform="translate(-12.781 -5.027)" fill="#8c959d" stroke="#485654" stroke-width="0.004"/>
          <path id="Path_3328" data-name="Path 3328" d="M14.675,11.377c-.054.062-.137.089-.183.044a.086.086,0,0,1-.025-.1l-.06.066a.235.235,0,0,0,.091.094.2.2,0,0,0,.214-.083c.039-.048.083-.129.052-.192a.213.213,0,0,0-.1-.091l-.055.059a.085.085,0,0,1,.09.017c.068.055.029.133-.02.189Z" transform="translate(-12.821 -5.071)" fill="#8c959d"/>
          <path id="Path_3329" data-name="Path 3329" d="M14.677,11.379a.214.214,0,0,1-.062.051.131.131,0,0,1-.079.017.079.079,0,0,1-.038-.016.126.126,0,0,1-.027-.031.086.086,0,0,1-.013-.039.089.089,0,0,1,.007-.041l.007,0-.059.066v-.005a.269.269,0,0,0,.056.069.135.135,0,0,0,.037.023.107.107,0,0,0,.043.007.186.186,0,0,0,.084-.025A.272.272,0,0,0,14.7,11.4a.33.33,0,0,0,.05-.074.174.174,0,0,0,.02-.085.1.1,0,0,0-.012-.041.163.163,0,0,0-.027-.035.223.223,0,0,0-.073-.05h0l-.055.058,0-.006a.078.078,0,0,1,.04-.006.1.1,0,0,1,.038.013.1.1,0,0,1,.049.061.114.114,0,0,1-.011.077.271.271,0,0,1-.045.064h0Zm0,0a.283.283,0,0,0,.042-.065.111.111,0,0,0,.009-.075.1.1,0,0,0-.048-.057.078.078,0,0,0-.072-.005l0-.006.054-.059,0,0h0a.223.223,0,0,1,.077.051.176.176,0,0,1,.029.037.109.109,0,0,1,.013.045.185.185,0,0,1-.02.091.341.341,0,0,1-.051.077.279.279,0,0,1-.072.058.2.2,0,0,1-.089.026.117.117,0,0,1-.047-.008.146.146,0,0,1-.04-.025.267.267,0,0,1-.057-.073l0,0,0,0,.06-.065.007,0a.076.076,0,0,0,0,.074.121.121,0,0,0,.025.03.075.075,0,0,0,.035.016.128.128,0,0,0,.077-.015.221.221,0,0,0,.063-.049Z" transform="translate(-12.824 -5.073)" fill="#485654"/>
          <path id="Path_3330" data-name="Path 3330" d="M19.43,8.308l-2.141,2.107c-.163.162-2.025,1.94-2.192,2.1-.059.071-.226.259-.243.285-.114.123-.237.284-.384.428-.026.033-.061.021-.092.039a1.246,1.246,0,0,0-.269.233l-.651.72c-.042.046-.053.074-.025.1l.353.472c.066.065.141.1.17.044.168-.29.585-.734.742-1.084a4.806,4.806,0,0,1,.3-.682c.1-.115.382-.412.63-.678l.05-.053.051-.054c1.254-1.277,2.7-2.829,3.761-3.923-.041-.041-.015-.017-.056-.055Z" transform="translate(-13.416 -6.754)" fill="#6c301e" stroke="#351710" stroke-linejoin="round" stroke-width="0.007"/>
          <path id="Path_3331" data-name="Path 3331" d="M14.453,10.965a.222.222,0,0,1-.152-.075.277.277,0,0,0,.184.018l-.032.057Z" transform="translate(-12.885 -5.204)" fill="#8c959d" stroke="#485654" stroke-width="0.004"/>
          <path id="Path_3332" data-name="Path 3332" d="M21.142,7.337l-1.7,1.4c-.016.02-.033.014-.05,0l-.154-.129a.054.054,0,0,0,0-.006.076.076,0,0,0,0-.025l.076-.077c.009-.012.006-.017-.007-.029l-.031-.032c-.012-.009-.022,0-.034.009l-.076.079a.075.075,0,0,0-.072.073c-1.026,1-1.909,1.89-2.93,2.873l-1.2,1.149a2.435,2.435,0,0,1-.352.235.3.3,0,0,0-.1.082l-.1.29c-.031.064-.13.213-.134.224.126.127.12.118.206.2.1-.108.357-.379.593-.632.019-.02.02-.023.044-.052a.7.7,0,0,0-.074-.088l-.064-.058-.033-.029c-.009-.008.013-.024.023-.034,1.411-1.364,2.931-2.864,4.175-4.085a.075.075,0,0,0,.055-.005l.149.171a.074.074,0,0,0,.093.021l1.7-1.522Z" transform="translate(-12.899 -7.337)" fill="#b2b6ba" stroke="#485654" stroke-width="0.007"/>
          <path id="Path_3333" data-name="Path 3333" d="M14.365,11.12a.143.143,0,0,0,.032,0,.08.08,0,0,0,.031-.009h0c.012-.043.025-.085.038-.127s.027-.084.04-.126h0a.079.079,0,0,0-.039-.026.08.08,0,0,1,.041.025h0c-.012.043-.025.085-.038.127s-.026.084-.04.126h0a.075.075,0,0,1-.032.007.153.153,0,0,1-.032,0Z" transform="translate(-12.847 -5.237)" fill="#485654"/>
          <circle id="Ellipse_243" data-name="Ellipse 243" cx="0.033" cy="0.033" r="0.033" transform="translate(1.871 5.729)" fill="none" stroke="#485654" stroke-width="0.005"/>
          <circle id="Ellipse_244" data-name="Ellipse 244" cx="0.033" cy="0.033" r="0.033" transform="translate(1.671 5.928)" fill="none" stroke="#485654" stroke-width="0.005"/>
          <path id="Path_3334" data-name="Path 3334" d="M14.734,10.779a.7.7,0,0,1-.093-.087.617.617,0,0,1,.048.041A.627.627,0,0,1,14.734,10.779Z" transform="translate(-12.681 -5.324)" fill="#485654"/>
          <path id="Path_3335" data-name="Path 3335" d="M16.739,8.647l.186.182.034-.031-.186-.182Z" transform="translate(-11.423 -6.569)" fill="#8c959d" stroke="#485654" stroke-width="0.004"/>
        </g>
        <g id="Group_440" data-name="Group 440" transform="translate(9.5 8.824) rotate(-177.159)">
          <path id="Path_3336" data-name="Path 3336" d="M0,.112A.1.1,0,0,1,.114,0c.021,0,.033.031.007.026a.071.071,0,0,0-.064.02.089.089,0,0,0-.021.1L0,.112H0Z" transform="translate(1.693 1.804)" fill="#8c959d" stroke="#485654" stroke-width="0.004"/>
          <path id="Path_3337" data-name="Path 3337" d="M.268.111C.213.049.131.022.085.067a.086.086,0,0,0-.025.1L0,.1A.235.235,0,0,1,.091.009.2.2,0,0,1,.305.093C.345.141.389.222.357.285a.213.213,0,0,1-.1.091L.2.317A.085.085,0,0,0,.288.3C.356.245.316.167.268.111h0Z" transform="translate(1.586 1.694)" fill="#8c959d"/>
          <path id="Path_3338" data-name="Path 3338" d="M.273.116A.214.214,0,0,0,.211.065.131.131,0,0,0,.133.049.079.079,0,0,0,.095.064.126.126,0,0,0,.068.1.086.086,0,0,0,.054.135.089.089,0,0,0,.062.176l.007,0L.009.105V.111A.269.269,0,0,1,.065.041.135.135,0,0,1,.1.018.107.107,0,0,1,.145.011.186.186,0,0,1,.229.036.272.272,0,0,1,.3.092a.33.33,0,0,1,.05.074.174.174,0,0,1,.02.085A.1.1,0,0,1,.356.292.163.163,0,0,1,.329.327a.223.223,0,0,1-.073.05h0L.206.32.2.326a.078.078,0,0,0,.04.006A.1.1,0,0,0,.28.319.1.1,0,0,0,.329.258.114.114,0,0,0,.318.181.271.271,0,0,0,.273.117h0Zm0,0A.283.283,0,0,1,.316.182.111.111,0,0,1,.324.257.1.1,0,0,1,.276.313.078.078,0,0,1,.2.319L.2.325.254.384l0,0h0A.223.223,0,0,0,.337.334.176.176,0,0,0,.365.3.109.109,0,0,0,.379.252.185.185,0,0,0,.358.161.341.341,0,0,0,.307.084.279.279,0,0,0,.234.026.2.2,0,0,0,.145,0,.117.117,0,0,0,.1.008a.146.146,0,0,0-.04.025A.267.267,0,0,0,0,.106l0,0,0,0,.06.065.007,0A.08.08,0,0,1,.062.135.079.079,0,0,1,.073.1.121.121,0,0,1,.1.069.075.075,0,0,1,.133.053.128.128,0,0,1,.21.068.221.221,0,0,1,.273.116Z" transform="translate(1.58 1.689)" fill="#485654"/>
          <path id="Path_3339" data-name="Path 3339" d="M6.013,6.557,3.873,4.45c-.163-.162-2.025-1.94-2.192-2.1-.059-.071-.226-.259-.243-.285-.114-.123-.237-.284-.384-.428C1.027,1.6.993,1.614.961,1.6a1.246,1.246,0,0,1-.269-.233L.04.643C0,.6-.013.569.016.543L.369.071C.434.006.51-.027.539.027c.168.29.585.734.742,1.084a4.806,4.806,0,0,0,.3.682c.1.115.382.412.63.678l.05.053.051.054C3.561,3.856,5.012,5.408,6.069,6.5c-.041.041-.015.017-.056.055Z" transform="translate(0 0)" fill="#6c301e" stroke="#351710" stroke-linejoin="round" stroke-width="0.007"/>
          <path id="Path_3340" data-name="Path 3340" d="M.152,0A.222.222,0,0,0,0,.075.277.277,0,0,1,.184.057L.152,0Z" transform="translate(1.416 2.351)" fill="#8c959d" stroke="#485654" stroke-width="0.004"/>
          <path id="Path_3341" data-name="Path 3341" d="M6.864,6.314l-1.7-1.4c-.016-.02-.033-.014-.05,0l-.154.129a.055.055,0,0,1,0,.006.076.076,0,0,1,0,.025l.076.077c.009.012.006.017-.007.029L5,5.213c-.012.009-.022,0-.034-.009l-.076-.079a.075.075,0,0,1-.072-.073c-1.026-1-1.909-1.89-2.93-2.873L.681,1.03A2.435,2.435,0,0,0,.329.795a.3.3,0,0,1-.1-.082l-.1-.29C.1.359,0,.209,0,.2.126.072.12.081.206,0,.3.108.563.379.8.632c.019.02.02.023.044.052A.7.7,0,0,1,.769.772L.705.83.672.859C.663.868.684.883.694.894,2.106,2.258,3.625,3.757,4.869,4.979a.075.075,0,0,1,.055.005l.149-.171a.074.074,0,0,1,.093-.021l1.7,1.522Z" transform="translate(1.38 1.798)" fill="#b2b6ba" stroke="#485654" stroke-width="0.007"/>
          <path id="Path_3342" data-name="Path 3342" d="M0,0A.143.143,0,0,1,.032,0,.08.08,0,0,1,.063.011h0C.074.052.087.094.1.136s.027.084.04.126h0A.079.079,0,0,1,.1.288.08.08,0,0,0,.143.263h0C.131.219.119.177.106.135S.079.051.065.009h0A.075.075,0,0,0,.032,0,.153.153,0,0,0,0,0Z" transform="translate(1.518 2.226)" fill="#485654"/>
          <circle id="Ellipse_245" data-name="Ellipse 245" cx="0.033" cy="0.033" r="0.033" transform="translate(1.871 2.317)" fill="none" stroke="#485654" stroke-width="0.005"/>
          <circle id="Ellipse_246" data-name="Ellipse 246" cx="0.033" cy="0.033" r="0.033" transform="translate(1.671 2.117)" fill="none" stroke="#485654" stroke-width="0.005"/>
          <path id="Path_3343" data-name="Path 3343" d="M.093,0A.617.617,0,0,0,.044.041.618.618,0,0,0,0,.087.617.617,0,0,0,.048.046.627.627,0,0,0,.093,0Z" transform="translate(1.96 2.657)" fill="#485654"/>
          <path id="Path_3344" data-name="Path 3344" d="M0,.182.186,0,.22.031.034.213Z" transform="translate(5.316 5.852)" fill="#8c959d" stroke="#485654" stroke-width="0.004"/>
        </g>
        <g id="Group_441" data-name="Group 441" transform="translate(1.588 8.199)">
          <path id="Path_3345" data-name="Path 3345" d="M15.048,12.211a2.977,2.977,0,0,0-1.558.05C14.358,12.687,15.065,12.5,15.048,12.211Zm4.748.177a2.977,2.977,0,0,1,1.558.05C20.486,12.863,19.779,12.681,19.8,12.388Z" transform="translate(-13.489 -12.126)" fill="#67923d" stroke="#24420e" stroke-width="0.005"/>
          <path id="Path_3346" data-name="Path 3346" d="M15.04,12.183c.017.294-.682.474-1.551.048A4.984,4.984,0,0,0,15.04,12.183Zm4.764.175c-.017.294.682.474,1.551.048A4.927,4.927,0,0,1,19.8,12.358Z" transform="translate(-13.49 -12.091)" fill="#406325" stroke="#24420e" stroke-width="0.005"/>
        </g>
        <g id="c" transform="translate(3.066 4.367)">
          <path id="Path_3347" data-name="Path 3347" d="M18.472,13.36a12.666,12.666,0,0,0-4.059-3.626,2.044,2.044,0,0,1,.782.317,17.41,17.41,0,0,1,3.5,3.191,1.88,1.88,0,0,1-.184.163l-.042-.044Z" transform="translate(-14.413 -9.729)" fill="#b2b6ba" stroke="#485654" stroke-width="0.007"/>
          <path id="Path_3348" data-name="Path 3348" d="M18.581,13.346l-.077.074a14.871,14.871,0,0,0-4.089-3.687,13.72,13.72,0,0,1,4.162,3.608l0,0Z" transform="translate(-14.412 -9.729)" fill="#8c959d"/>
          <path id="Path_3349" data-name="Path 3349" d="M18.582,13.348l-.077.075h0c-.284-.364-.585-.714-.9-1.052s-.641-.665-.98-.978-.69-.613-1.057-.894q-.274-.211-.562-.4a6.434,6.434,0,0,0-.594-.354l.005-.01a7.192,7.192,0,0,1,1.193.708,11.233,11.233,0,0,1,1.068.887c.339.316.662.647.977.987s.62.688.925,1.036Zm0,0c-.306-.347-.613-.694-.929-1.032s-.64-.67-.979-.985a11.233,11.233,0,0,0-1.069-.885,7.183,7.183,0,0,0-1.193-.706l.005-.01a6.419,6.419,0,0,1,.594.356q.288.193.562.4c.366.281.717.582,1.056.9s.665.641.979.98.613.691.9,1.056h0l.077-.074Z" transform="translate(-14.413 -9.731)" fill="#485654"/>
          <g id="Group_442" data-name="Group 442" transform="translate(3.903 3.368)">
            <path id="Path_3350" data-name="Path 3350" d="M17.489,11.836a.975.975,0,0,0-.28.119.263.263,0,0,1-.191.177l-.032-.041a.007.007,0,0,0-.009,0l-.031.018a.082.082,0,0,0-.089.052c-.02.052.021.12.065.164s.074.057.131.049a.182.182,0,0,0,.1-.081,3.387,3.387,0,0,0,.6.567c.112,0,.172-.07.134-.149a.061.061,0,0,0-.071-.035.056.056,0,0,0,0-.024c.131-.121.187-.271.049-.527-.119-.215-.251-.288-.378-.287h0Zm.333.242c.023.04.037.074.055.11a.306.306,0,0,1-.124.411.018.018,0,0,0-.011,0c.022-.037-.044-.115-.078-.087.016-.04-.036-.108-.078-.09.022-.038-.028-.1-.076-.081a.062.062,0,0,0-.066-.089.066.066,0,0,0-.072-.085.083.083,0,0,0-.027-.077,1.82,1.82,0,0,1,.183-.146c.145-.063.235.057.295.134h0Z" transform="translate(-16.852 -11.836)" fill="#fab81c" stroke="#6c301e" stroke-width="0.007"/>
            <path id="Path_3351" data-name="Path 3351" d="M17.509,12.121a.049.049,0,0,1-.031-.059c.009-.018.037-.023.065-.009s.043.04.034.058a.051.051,0,0,1-.067.01h0Z" transform="translate(-16.478 -11.71)" fill="#fab81c" stroke="#6c301e" stroke-width="0.004"/>
            <path id="Path_3352" data-name="Path 3352" d="M17.5,12.087a.049.049,0,0,1-.031-.059c.009-.018.037-.023.065-.009s.043.04.034.058a.051.051,0,0,1-.067.01h0Z" transform="translate(-16.484 -11.731)" fill="#fab81c" stroke="#6c301e" stroke-width="0.004"/>
            <path id="Path_3353" data-name="Path 3353" d="M17.478,12.049a.049.049,0,0,1-.031-.059c.009-.018.037-.023.065-.009s.043.04.034.058a.051.051,0,0,1-.067.01h0Z" transform="translate(-16.497 -11.753)" fill="#fab81c" stroke="#6c301e" stroke-width="0.004"/>
            <path id="Path_3354" data-name="Path 3354" d="M17.452,12.015a.049.049,0,0,1-.031-.059c.009-.018.037-.023.065-.009s.043.04.034.058a.051.051,0,0,1-.067.01Z" transform="translate(-16.512 -11.774)" fill="#fab81c" stroke="#6c301e" stroke-width="0.004"/>
            <path id="Path_3355" data-name="Path 3355" d="M17.418,11.984a.049.049,0,0,1-.031-.059s0-.007,0-.006.034.01.032-.007-.008-.012,0-.008a.113.113,0,0,1,.034.012c.028.013.043.04.034.058a.051.051,0,0,1-.067.01Z" transform="translate(-16.533 -11.795)" fill="#fab81c" stroke="#6c301e" stroke-width="0.004"/>
          </g>
          <g id="Group_443" data-name="Group 443" transform="translate(4.207 3.62)">
            <path id="Path_3356" data-name="Path 3356" d="M17.042,12.2a.329.329,0,0,1,.187-.2m-.175.216a.231.231,0,0,0,.2-.138m-.14.215c.088.02.176-.065.21-.128m-.13.213a.222.222,0,0,0,.2-.127m-.119.209a.234.234,0,0,0,.194-.129m-.117.2a.209.209,0,0,0,.193-.111m-.106.186a.193.193,0,0,0,.184-.1m-.089.177a.169.169,0,0,0,.167-.1" transform="translate(-17.042 -11.993)" fill="#fab81c"/>
          </g>
          <g id="Group_444" data-name="Group 444" transform="translate(4.207 3.62)">
            <path id="Path_3357" data-name="Path 3357" d="M17.042,12.2a.379.379,0,0,1,.029-.065.4.4,0,0,1,.041-.059.3.3,0,0,1,.053-.049.179.179,0,0,1,.065-.03.212.212,0,0,0-.062.034.319.319,0,0,0-.051.049.494.494,0,0,0-.074.12Zm.012.013a.124.124,0,0,0,.063-.01.26.26,0,0,0,.056-.032.3.3,0,0,0,.048-.043.2.2,0,0,0,.036-.053.169.169,0,0,1-.033.056.282.282,0,0,1-.048.045.244.244,0,0,1-.058.031.112.112,0,0,1-.064.006Zm.063.077a.136.136,0,0,0,.064,0,.2.2,0,0,0,.057-.029.3.3,0,0,0,.049-.043.335.335,0,0,0,.04-.052.25.25,0,0,1-.036.055.278.278,0,0,1-.049.045.2.2,0,0,1-.06.029.121.121,0,0,1-.065,0Zm.079.084a.225.225,0,0,0,.061-.01.2.2,0,0,0,.055-.027.25.25,0,0,0,.046-.041.351.351,0,0,0,.037-.05.243.243,0,0,1-.08.1.193.193,0,0,1-.057.027.18.18,0,0,1-.062.005Zm.081.082a.219.219,0,0,0,.113-.041.274.274,0,0,0,.046-.039.223.223,0,0,0,.036-.049.18.18,0,0,1-.032.052.254.254,0,0,1-.046.041.227.227,0,0,1-.055.028.163.163,0,0,1-.061.008Zm.078.075a.378.378,0,0,0,.057-.01.246.246,0,0,0,.054-.021.194.194,0,0,0,.047-.034.187.187,0,0,0,.035-.046.154.154,0,0,1-.032.05.188.188,0,0,1-.047.036.241.241,0,0,1-.114.025Zm.087.076A.245.245,0,0,0,17.5,12.6a.213.213,0,0,0,.051-.019.2.2,0,0,0,.044-.031.166.166,0,0,0,.034-.043.135.135,0,0,1-.031.046.191.191,0,0,1-.045.033.2.2,0,0,1-.053.018A.181.181,0,0,1,17.443,12.6Zm.095.077a.208.208,0,0,0,.051-.006.176.176,0,0,0,.086-.053.215.215,0,0,0,.03-.042.163.163,0,0,1-.066.08.157.157,0,0,1-.049.019.161.161,0,0,1-.052,0Z" transform="translate(-17.042 -11.993)" fill="#6c301e"/>
          </g>
        </g>
        <g id="Group_448" data-name="Group 448" transform="translate(8.02 8.861) rotate(-176.592)">
          <path id="Path_3358" data-name="Path 3358" d="M4.059.044A12.666,12.666,0,0,1,0,3.671a2.044,2.044,0,0,0,.782-.317A17.41,17.41,0,0,0,4.284.163,1.879,1.879,0,0,0,4.1,0L4.059.044Z" transform="translate(0 0.715)" fill="#b2b6ba" stroke="#485654" stroke-width="0.007"/>
          <path id="Path_3359" data-name="Path 3359" d="M4.166.074,4.089,0A14.871,14.871,0,0,1,0,3.687,13.72,13.72,0,0,0,4.162.079l0,0Z" transform="translate(0.002 0.698)" fill="#8c959d"/>
          <path id="Path_3360" data-name="Path 3360" d="M4.169.075,4.092,0h0c-.284.364-.585.714-.9,1.052s-.641.665-.98.978-.69.613-1.057.894q-.274.211-.562.4A6.434,6.434,0,0,1,0,3.682l.005.01A7.192,7.192,0,0,0,1.2,2.984,11.233,11.233,0,0,0,2.267,2.1c.339-.316.662-.647.977-.987s.62-.688.925-1.036Zm0,0c-.306.347-.613.694-.929,1.032s-.64.67-.979.985a11.232,11.232,0,0,1-1.069.885A7.183,7.183,0,0,1,0,3.682l.005.01A6.419,6.419,0,0,0,.6,3.337q.288-.193.562-.4c.366-.281.717-.582,1.056-.9s.665-.641.979-.98S3.809.365,4.092,0h0l.077.074Z" transform="translate(0 0.698)" fill="#485654"/>
          <g id="Group_445" data-name="Group 445" transform="translate(3.903 0)">
            <path id="Path_3361" data-name="Path 3361" d="M.637,1.022A.975.975,0,0,1,.356.9.263.263,0,0,0,.165.727L.133.768a.007.007,0,0,1-.009,0L.094.752A.082.082,0,0,1,.005.7C-.015.648.026.58.071.535S.145.478.2.486A.182.182,0,0,1,.3.567,3.387,3.387,0,0,1,.9,0c.112,0,.172.07.134.149A.061.061,0,0,1,.967.184a.056.056,0,0,1,0,.024c.131.121.187.271.049.527C.9.95.764,1.023.637,1.022h0ZM.97.78c.023-.04.037-.074.055-.11A.306.306,0,0,0,.9.26a.018.018,0,0,1-.011,0C.911.3.844.373.811.346.827.386.775.454.733.436.755.474.7.538.657.517A.062.062,0,0,1,.591.606.066.066,0,0,1,.519.691.083.083,0,0,1,.492.768,1.819,1.819,0,0,0,.675.915C.82.977.91.857.97.78h0Z" transform="translate(0)" fill="#fab81c" stroke="#6c301e" stroke-width="0.007"/>
            <path id="Path_3362" data-name="Path 3362" d="M.034.008A.049.049,0,0,0,0,.066C.012.085.04.089.068.076S.111.036.1.018A.051.051,0,0,0,.034.007h0Z" transform="translate(0.997 0.604)" fill="#fab81c" stroke="#6c301e" stroke-width="0.004"/>
            <path id="Path_3363" data-name="Path 3363" d="M.034.008A.049.049,0,0,0,0,.066C.012.085.04.09.068.076S.111.036.1.018A.051.051,0,0,0,.034.008h0Z" transform="translate(0.981 0.658)" fill="#fab81c" stroke="#6c301e" stroke-width="0.004"/>
            <path id="Path_3364" data-name="Path 3364" d="M.034.008A.049.049,0,0,0,0,.066C.012.085.04.09.068.076S.111.036.1.018A.051.051,0,0,0,.034.007h0Z" transform="translate(0.948 0.718)" fill="#fab81c" stroke="#6c301e" stroke-width="0.004"/>
            <path id="Path_3365" data-name="Path 3365" d="M.034.008A.049.049,0,0,0,0,.066C.012.085.04.089.068.076S.111.036.1.018A.051.051,0,0,0,.034.007Z" transform="translate(0.906 0.773)" fill="#fab81c" stroke="#6c301e" stroke-width="0.004"/>
            <path id="Path_3366" data-name="Path 3366" d="M.034.008A.049.049,0,0,0,0,.067s0,.007,0,.006S.04.063.038.08.03.092.034.088A.113.113,0,0,0,.068.076C.1.062.111.036.1.018A.051.051,0,0,0,.034.008Z" transform="translate(0.851 0.825)" fill="#fab81c" stroke="#6c301e" stroke-width="0.004"/>
          </g>
          <g id="Group_446" data-name="Group 446" transform="translate(4.207 0.082)">
            <path id="Path_3367" data-name="Path 3367" d="M0,.485a.329.329,0,0,0,.187.2M.012.471a.231.231,0,0,1,.2.138M.076.394c.088-.02.176.065.21.128M.155.31a.222.222,0,0,1,.2.127M.236.228A.234.234,0,0,1,.43.357M.314.153A.209.209,0,0,1,.507.264M.4.078a.193.193,0,0,1,.184.1M.5,0A.169.169,0,0,1,.663.1" transform="translate(0 0)" fill="#fab81c"/>
          </g>
          <g id="Group_447" data-name="Group 447" transform="translate(4.207 0.081)">
            <path id="Path_3368" data-name="Path 3368" d="M0,.486A.379.379,0,0,0,.029.551.4.4,0,0,0,.07.61.3.3,0,0,0,.122.659a.179.179,0,0,0,.065.03A.212.212,0,0,1,.125.655.319.319,0,0,1,.074.606.494.494,0,0,1,0,.486ZM.012.472a.124.124,0,0,1,.063.01A.26.26,0,0,1,.131.514.3.3,0,0,1,.179.557.2.2,0,0,1,.215.61.169.169,0,0,0,.183.554.282.282,0,0,0,.135.509.244.244,0,0,0,.077.478.112.112,0,0,0,.012.472ZM.076.395A.136.136,0,0,1,.14.4.2.2,0,0,1,.2.429.3.3,0,0,1,.246.472a.334.334,0,0,1,.04.052A.25.25,0,0,0,.249.469.278.278,0,0,0,.2.424.2.2,0,0,0,.141.4a.121.121,0,0,0-.065,0ZM.155.311A.224.224,0,0,1,.216.32.2.2,0,0,1,.271.347.25.25,0,0,1,.318.388a.351.351,0,0,1,.037.05.243.243,0,0,0-.08-.1A.193.193,0,0,0,.218.316.181.181,0,0,0,.155.311ZM.236.229A.219.219,0,0,1,.348.27.274.274,0,0,1,.394.309.223.223,0,0,1,.43.358.18.18,0,0,0,.4.306.254.254,0,0,0,.352.265.227.227,0,0,0,.3.237.163.163,0,0,0,.236.229ZM.314.154a.378.378,0,0,1,.057.01A.246.246,0,0,1,.425.185.194.194,0,0,1,.472.219.187.187,0,0,1,.507.265.154.154,0,0,0,.475.215.188.188,0,0,0,.428.18.241.241,0,0,0,.314.154ZM.4.079A.245.245,0,0,1,.455.085.213.213,0,0,1,.506.1.2.2,0,0,1,.551.135.166.166,0,0,1,.585.178.135.135,0,0,0,.554.132.191.191,0,0,0,.509.1.2.2,0,0,0,.456.081.181.181,0,0,0,.4.079ZM.5,0A.208.208,0,0,1,.547.008.176.176,0,0,1,.633.06.215.215,0,0,1,.663.1.163.163,0,0,0,.6.023.157.157,0,0,0,.548,0,.161.161,0,0,0,.5,0Z" transform="translate(0 0)" fill="#6c301e"/>
          </g>
        </g>
        <g id="Group_449" data-name="Group 449" transform="translate(1.788 0.644)">
          <path id="Path_3369" data-name="Path 3369" d="M13.657,8.359A2.8,2.8,0,0,0,14.7,7.4c-.832.222-1.214.765-1.039.956Zm7.773.251a2.67,2.67,0,0,0-.83-1.062C20.747,8.356,21.235,8.762,21.43,8.61Z" transform="translate(-13.614 -7.403)" fill="#406325" stroke="#24420e" stroke-width="0.005"/>
          <path id="Path_3370" data-name="Path 3370" d="M13.657,8.357c-.177-.191.2-.729,1.031-.95A4.578,4.578,0,0,0,13.657,8.357Zm7.773.251c-.195.154-.678-.248-.826-1.054A4.374,4.374,0,0,0,21.43,8.608Z" transform="translate(-13.615 -7.401)" fill="#67923d" stroke="#24420e" stroke-width="0.005"/>
        </g>
        <g id="Group_451" data-name="Group 451" transform="translate(3.487 1.565)">
          <path id="Path_3371" data-name="Path 3371" d="M15.237,10.979s-.328.035-.42-.418c-.1-.485.283-.536.283-.536s.432-.042.7-.049l.119.958-.683.045Z" transform="translate(-14.602 -6.78)" stroke="#999270" stroke-width="0.005" fill="url(#radial-gradient)"/>
          <path id="Path_3372" data-name="Path 3372" d="M15.2,10.725s-.213.041-.256-.3c-.031-.239.117-.272.117-.272l.493.083,0,.44-.355.046Z" transform="translate(-14.52 -6.672)" stroke="#999270" stroke-width="0.005" fill="url(#radial-gradient-2)"/>
          <path id="Path_3373" data-name="Path 3373" d="M15.013,10.173s.315-.023.479-.044l.068.3-.379.024s-.026-.275-.169-.284Z" transform="translate(-14.474 -6.689)" stroke="#999270" stroke-width="0.005" fill="url(#radial-gradient-3)"/>
          <path id="Path_3374" data-name="Path 3374" d="M14.972,10.041a.36.36,0,0,1,.454.346.468.468,0,0,1-.248.454l.74-.078-.067-.8-.249.021a4.429,4.429,0,0,0-.63.057Z" transform="translate(-14.499 -6.788)" stroke="#999270" stroke-width="0.005" fill="url(#radial-gradient-4)"/>
          <path id="Path_3375" data-name="Path 3375" d="M15.311,12.161s2.768-.186,3.052-.175c.84-.461,0-2.27-.712-3.282.081-.228-1.592-.741-2.349-.695l-.275.019c-.41.044-.415.57-.247.9s1.617,2.94.594,3.217l-.063.013Z" transform="translate(-14.676 -7.962)" fill="#f9f0aa" stroke="#999270" stroke-width="0.005"/>
          <path id="Path_3376" data-name="Path 3376" d="M18.276,9.774A7.912,7.912,0,0,0,17.651,8.7c.081-.228-1.592-.741-2.349-.695l-.275.019c-.41.044-.415.57-.247.9.051.1.229.429.419.839" transform="translate(-14.676 -7.962)" stroke="#999270" stroke-width="0.005" fill="url(#linear-gradient)"/>
          <path id="Path_3377" data-name="Path 3377" d="M15.224,9.5c.3.781.462,1.606-.088,1.755l-.063.013s2.768-.186,3.052-.175c.455-.25.416-.9.171-1.6" transform="translate(-14.438 -7.069)" stroke="#999270" stroke-width="0.005" fill="url(#linear-gradient-2)"/>
          <path id="Path_3378" data-name="Path 3378" d="M15.005,8.126c-.2,0-.248.19-.246.31.007.315.246.33.246.33l.318-.018.152-.649Z" transform="translate(-14.626 -7.906)" stroke="#999270" stroke-width="0.005" fill="url(#radial-gradient-5)"/>
          <path id="Path_3379" data-name="Path 3379" d="M14.913,8.127l.471-.026.048.485-.41.018S15.155,8.216,14.913,8.127Z" transform="translate(-14.534 -7.905)" stroke="#999270" stroke-width="0.005" fill="url(#linear-gradient-3)"/>
          <path id="Path_3380" data-name="Path 3380" d="M17.512,8.722c.357-.057.352-.537.108-.729-.827-.03-1.914-.008-2.7.051a.339.339,0,0,1,.366.347.437.437,0,0,1-.163.373.37.37,0,0,1-.208.078,1.35,1.35,0,0,0,.192,0c.039,0,.136-.014.163-.018a14.6,14.6,0,0,1,2.239-.1h0Z" transform="translate(-14.534 -7.979)" stroke="#999270" stroke-width="0.005" fill="url(#linear-gradient-4)"/>
          <g id="Group_450" data-name="Group 450" transform="translate(0.9 1.328)">
            <path id="Path_3381" data-name="Path 3381" d="M15.308,8.977c-.008-.018-.017-.04-.039-.043s-.034,0-.03-.021a.125.125,0,0,1,.042,0c.03,0,.059-.006.089-.008s.014.029-.006.025-.009.03,0,.043c.024.055.047.111.071.166a.049.049,0,0,0,.039.032.109.109,0,0,0,.058-.006c.017-.011.013-.033.011-.05s.029-.015.026,0,.015.046.024.068-.015.008-.022.009l-.159.012c-.017,0-.042.015-.053-.005s.027-.009.032-.025a.15.15,0,0,0-.016-.049l-.062-.147Zm.258-.018c-.007-.017-.016-.038-.037-.042s-.035,0-.033-.02.024,0,.036,0a.746.746,0,0,0,.094-.008c.016,0,.021.028,0,.024s-.02.022-.012.035c.025.061.051.121.077.182.006.013.013.029.029.031s.035,0,.038.017-.023.006-.034.009a.35.35,0,0,0-.083.006c-.012,0-.029,0-.03-.014s.031,0,.033-.021a.222.222,0,0,0-.018-.049l-.061-.144ZM15.8,9c0,.012.022,0,.031,0a.028.028,0,0,0,.028-.027.09.09,0,0,0-.034-.063.087.087,0,0,0-.063-.009c0,.008.005.016.008.024Zm.036.085a.169.169,0,0,0,.03.054.065.065,0,0,0,.045,0,.024.024,0,0,0,.021-.032.094.094,0,0,0-.066-.077.13.13,0,0,0-.049,0c0,.008,0,.015.007.023l.012.028Zm-.108-.126c-.008-.019-.017-.041-.037-.049s-.034,0-.037-.017.03,0,.043-.009a.427.427,0,0,1,.138,0,.1.1,0,0,1,.077.085.049.049,0,0,1-.031.045c0-.007.02,0,.027,0a.119.119,0,0,1,.073.061.065.065,0,0,1,0,.07.106.106,0,0,1-.077.023.708.708,0,0,0-.12.009c-.014,0-.024-.026,0-.024s.022-.022.013-.036l-.068-.162Zm.4-.1c.017,0,.019.017.024.028s.015.029.019.044c-.015.015-.027-.008-.033-.019a.041.041,0,0,0-.037-.024.443.443,0,0,0-.065,0c-.008.008,0,.021.006.031s.019.048.03.071c.014,0,.033,0,.043-.011s-.014-.04.011-.034.014.032.022.047.02.039.026.059c-.014.015-.028-.007-.033-.019s-.033-.016-.051-.016,0,.009,0,.015a.692.692,0,0,0,.035.079c.011.018.035.016.053.015s.039,0,.049-.018-.015-.04.007-.044.018.02.023.032.01.029.015.044-.015.007-.023.009l-.163.01c-.016,0-.043.013-.048-.011s.034-.007.029-.029a.378.378,0,0,0-.02-.053c-.02-.048-.039-.1-.06-.144-.008-.016-.02-.033-.039-.034s-.032-.007-.025-.022.038,0,.057,0l.148-.009Zm.123.07c-.008-.019-.016-.041-.036-.05s-.039,0-.037-.021.035,0,.052,0a.419.419,0,0,1,.128,0,.114.114,0,0,1,.084.1.048.048,0,0,1-.037.046c-.016,0,.012.005.017.01a.182.182,0,0,1,.075.079c0,.012.028.037.031.013s.034,0,.026.014a.034.034,0,0,1-.036.031.066.066,0,0,1-.061-.033.438.438,0,0,0-.067-.089.047.047,0,0,0-.044-.008c0,.007,0,.015.006.022a.461.461,0,0,0,.029.065.055.055,0,0,0,.05.019c.019,0,.014.031-.007.023a.453.453,0,0,0-.093,0c-.014.007-.046,0-.035-.02.015,0,.036-.009.026-.028-.018-.047-.037-.092-.056-.139l-.014-.033Zm.075.048c.007.017.032.008.046.006s.019-.027.012-.041-.02-.055-.047-.064-.045-.011-.047.008.023.056.034.084l0,.007Zm.385.092c.006.014.011.033.029.035s.035,0,.038.018-.023.006-.034.008a.379.379,0,0,0-.086,0c-.012,0-.029,0-.028-.017s.035,0,.033-.021a.472.472,0,0,0-.022-.061l-.061-.154c-.005-.016-.024-.016-.037-.015s-.036,0-.036.022.012.033,0,.039-.019-.015-.023-.026-.014-.033-.021-.049.017-.009.026-.01l.22-.009a.024.024,0,0,1,.028.025.511.511,0,0,0,.022.052c-.006.018-.027,0-.03-.01a.065.065,0,0,0-.05-.038c-.014,0-.034,0-.043.008a.131.131,0,0,0,.012.036l.065.165Zm.2-.049c-.01,0-.005.013-.006.02a.365.365,0,0,0,0,.045c.007.017.028.012.042.017s.009.027-.007.021a.224.224,0,0,0-.068,0c-.013.007-.038-.007-.026-.021s.024-.005.026-.018a.484.484,0,0,0,0-.067v-.2c.006-.015.027,0,.032.009.064.081.126.162.192.242a.058.058,0,0,0,.041.022c.014,0,.021.028,0,.023a.372.372,0,0,0-.082,0c-.012,0-.026.006-.037,0s0-.023.01-.021,0-.025-.006-.035-.02-.027-.031-.04a.074.074,0,0,0-.03,0l-.056,0Zm.063-.027c.01,0,0-.008,0-.013L16.9,8.887s0,.009,0,.014c0,.03,0,.06,0,.09l.071,0Zm.163-.1c-.008-.021-.019-.047-.044-.052s-.037-.009-.024-.023c.029,0,.059,0,.088,0a.255.255,0,0,1,.111.011A.232.232,0,0,1,17.421,9a.085.085,0,0,1-.033.088.217.217,0,0,1-.132.018.51.51,0,0,0-.075,0c-.016,0-.018-.027,0-.024s.019-.023.012-.036l-.06-.161Zm.105.133a.109.109,0,0,0,.03.052.1.1,0,0,0,.052,0,.048.048,0,0,0,.038-.049.228.228,0,0,0-.034-.113.142.142,0,0,0-.1-.073.166.166,0,0,0-.053,0c0,.007,0,.015,0,.021Zm-1.126.662a.05.05,0,0,0,.043.034c.014,0,.037,0,.038.019s-.028,0-.041.007a.46.46,0,0,0-.083,0,.144.144,0,0,1-.045,0c-.013-.006-.01-.025.006-.023s.032-.007.033-.024a.169.169,0,0,0-.015-.043c-.021-.049-.041-.1-.061-.147,0-.017-.024-.018-.038-.015s-.033.007-.036-.012.027-.013.037-.021.033-.014.05-.019.017.008.02.017l.091.219Zm.04-.241c.036,0,.073,0,.109,0,.016,0,.005-.027.02-.025s.017.025.018.039a.028.028,0,0,1-.03.031c-.028,0-.057,0-.085,0,.006.022.015.043.024.064,0-.007.025-.008.034-.01a.148.148,0,0,1,.139.082.079.079,0,0,1,0,.082.109.109,0,0,1-.085.03.085.085,0,0,1-.072-.029c-.009-.011-.007-.036.012-.034s.035.014.033.032.028.008.041.007a.03.03,0,0,0,.03-.03.129.129,0,0,0-.024-.073.084.084,0,0,0-.069-.037c-.016,0-.029.008-.044.008s-.018-.02-.023-.031q-.019-.048-.035-.1a.008.008,0,0,1,.009-.01Zm.365.054c-.009-.021-.02-.047-.045-.052s-.038-.009-.025-.023c.03,0,.06,0,.089,0a.242.242,0,0,1,.112.009.232.232,0,0,1,.156.181.083.083,0,0,1-.034.083.221.221,0,0,1-.129.02.515.515,0,0,0-.072.007c-.016,0-.019-.027,0-.025s.018-.024.011-.036Zm.108.131a.111.111,0,0,0,.031.052.1.1,0,0,0,.052,0,.048.048,0,0,0,.036-.05.233.233,0,0,0-.037-.113.141.141,0,0,0-.1-.071.159.159,0,0,0-.052,0c0,.007,0,.015.005.021l.064.16ZM16.97,9.4c.017,0,.019.016.023.027s.013.029.018.044c-.01.017-.027,0-.031-.015s-.019-.028-.036-.027a.514.514,0,0,0-.066,0c-.012.005,0,.021,0,.03s.018.049.029.072a.075.075,0,0,0,.043-.008c.009-.011-.014-.039.011-.036s.015.03.022.045.019.04.026.061c-.009.018-.029,0-.032-.016s-.028-.019-.044-.019-.02,0-.012.011a.75.75,0,0,0,.035.082c.011.019.035.016.053.016s.039,0,.05-.017-.011-.035,0-.043.022.015.025.028a.485.485,0,0,0,.015.048c0,.011-.015.007-.023.008L16.92,9.7c-.015,0-.037.011-.046-.006s.027-.01.028-.028a.124.124,0,0,0-.013-.046c-.02-.052-.04-.1-.061-.155-.007-.017-.019-.035-.039-.036s-.032-.007-.024-.022.039,0,.058,0L16.97,9.4Zm-1.455.762c.008.026.036.037.059.044a.245.245,0,0,1,.115.062.108.108,0,0,1,.026.072.064.064,0,0,1-.049.053.133.133,0,0,1-.093-.005c-.014-.006-.009.025-.027.014s-.009-.03-.016-.043a.482.482,0,0,0-.021-.051c0-.017.026-.008.026.005a.107.107,0,0,0,.087.06c.019,0,.043-.01.045-.031a.075.075,0,0,0-.046-.063c-.034-.018-.073-.023-.106-.043a.1.1,0,0,1-.051-.086.055.055,0,0,1,.041-.048.14.14,0,0,1,.084,0c.013.007.018-.015.032,0s0,.025.01.036.014.029.018.044-.025,0-.028-.011a.074.074,0,0,0-.052-.043.057.057,0,0,0-.054.015.031.031,0,0,0,0,.027Zm.357-.088c.017,0,.018.017.022.028s.011.028.015.043-.026,0-.029-.011-.018-.031-.036-.029a.515.515,0,0,0-.065,0c-.012.005,0,.021,0,.031s.016.049.025.072a.078.078,0,0,0,.043-.01c.01-.011-.01-.032.007-.037s.018.024.023.036.018.045.025.069-.028,0-.029-.013a.037.037,0,0,0-.042-.02c-.01,0-.023,0-.015.011a.841.841,0,0,0,.029.081.036.036,0,0,0,.039.017.091.091,0,0,0,.061-.015c.013-.012,0-.031.005-.045s.028,0,.027.018a.518.518,0,0,0,.014.055c0,.011-.016.008-.024.009-.054,0-.109.007-.163.012-.015,0-.036.013-.046,0s.024-.011.029-.027-.005-.031-.009-.046c-.018-.052-.035-.1-.053-.157-.006-.016-.017-.035-.037-.035s-.032-.007-.023-.021.038,0,.057,0l.148-.011Zm.223.221a.048.048,0,0,0,.033.037c.013,0,.035,0,.039.015s-.026.008-.038.011a.335.335,0,0,0-.081.006c-.012,0-.029.006-.032-.01s.025-.008.031-.021a.073.073,0,0,0-.007-.041c-.018-.054-.035-.107-.054-.161-.006-.016-.014-.036-.034-.038s-.034,0-.03-.02.026,0,.038,0c.039,0,.077-.01.116-.008a.1.1,0,0,1,.093.065.067.067,0,0,1,0,.068.127.127,0,0,1-.084.033c-.011,0,0,.01,0,.016l.017.051Zm-.03-.092a.1.1,0,0,0,.036,0,.029.029,0,0,0,.021-.037.12.12,0,0,0-.029-.063.067.067,0,0,0-.059-.009c-.007.007,0,.017,0,.025Zm.328.076c0,.014.009.033.026.035s.035,0,.037.017-.023.006-.034.008a.378.378,0,0,0-.086.006c-.012,0-.029,0-.026-.017s.035,0,.034-.022a.425.425,0,0,0-.018-.06l-.051-.155c0-.017-.023-.015-.036-.014s-.033,0-.037.019,0,.028,0,.042-.025,0-.024-.018a.352.352,0,0,0-.018-.053c0-.013.016-.012.026-.013l.221-.013a.022.022,0,0,1,.026.025.469.469,0,0,0,.018.052c0,.015-.026.007-.027-.006a.062.062,0,0,0-.047-.041.072.072,0,0,0-.046.007c0,.011,0,.021.007.032l.056.17Zm.112-.175c-.006-.016-.012-.037-.03-.042s-.035,0-.033-.019.022,0,.032-.006a.662.662,0,0,0,.1-.006c.014-.006.026.022.008.022s-.029.01-.024.025.017.056.026.084.025.078.038.117a.03.03,0,0,0,.027.024c.013,0,.035,0,.031.02s-.026,0-.038,0a.415.415,0,0,0-.086.006c-.012.005-.029-.007-.021-.02s.035,0,.033-.02a.646.646,0,0,0-.019-.064Zm.307-.085c.017,0,.018.016.022.028s.011.029.015.043-.026,0-.028-.012-.018-.031-.036-.03a.515.515,0,0,0-.066,0c-.012.005,0,.021,0,.03s.015.049.024.072a.077.077,0,0,0,.043-.009c.011-.01-.01-.032.008-.037s.018.024.023.037.017.045.024.069-.028,0-.028-.011a.036.036,0,0,0-.039-.023c-.008,0-.027,0-.019.009s.016.056.028.083a.036.036,0,0,0,.039.018.093.093,0,0,0,.062-.014c.013-.012,0-.031.006-.045s.028,0,.026.019a.5.5,0,0,0,.013.054c0,.01-.015.007-.023.009-.055,0-.11.005-.165.009-.015,0-.034.011-.045,0s.02-.013.027-.026,0-.029-.006-.043c-.017-.053-.034-.106-.051-.159-.006-.017-.017-.037-.038-.038s-.032-.007-.023-.022.038,0,.056,0l.15-.008Zm.107.051a.036.036,0,0,0-.039-.033c-.02.005-.027-.03,0-.023a.375.375,0,0,1,.082,0c.013.014.023.031.035.046l.116.155c-.008,0,0-.01,0-.016l.019-.189c.015-.012.039-.007.057-.011s.049-.007.04.019c-.018,0-.041.012-.029.034.019.064.039.127.059.191,0,.022.026.029.046.028s.018.03,0,.023a.448.448,0,0,0-.095,0c-.014,0-.044,0-.034-.019.016,0,.042-.008.031-.031-.017-.057-.035-.113-.052-.169,0,.005,0,.014,0,.02-.005.053-.012.105-.016.158,0,.014,0,.031,0,.043s-.021-.006-.027-.015l-.152-.2c.005,0,0,.011.007.016.016.051.031.1.049.154a.042.042,0,0,0,.045.027c.02.01.005.029-.012.021a.312.312,0,0,0-.08,0c-.017,0-.018-.027,0-.024s.017-.028.012-.043l-.055-.175h0Zm.466.045c0,.012.019,0,.028.005s.033-.009.034-.027a.081.081,0,0,0-.027-.063.086.086,0,0,0-.062-.01c0,.008,0,.016,0,.024l.022.071Zm.026.085a.151.151,0,0,0,.024.055.066.066,0,0,0,.045,0,.026.026,0,0,0,.025-.027.088.088,0,0,0-.048-.08.128.128,0,0,0-.057,0c-.006.005,0,.015,0,.023Zm-.095-.128c-.006-.018-.012-.041-.031-.05s-.034,0-.035-.018.029,0,.041-.007a.458.458,0,0,1,.142,0,.09.09,0,0,1,.068.083.054.054,0,0,1-.037.046c0-.007.019,0,.027.005a.106.106,0,0,1,.065.058.068.068,0,0,1,0,.071.1.1,0,0,1-.078.024.774.774,0,0,0-.126.006c-.015,0-.021-.027,0-.024s.025-.02.017-.035l-.049-.163Zm.267-.009c-.006-.018-.012-.041-.031-.05s-.037,0-.035-.02.035,0,.051-.006a.921.921,0,0,1,.108,0,.108.108,0,0,1,.093.077.053.053,0,0,1-.019.064c0,.005-.028.011-.024.01a.143.143,0,0,1,.075.068.193.193,0,0,0,.025.043c.014.011.016-.009.018-.017.019-.009.028.017.021.031a.046.046,0,0,1-.057.022.062.062,0,0,1-.04-.034.394.394,0,0,0-.055-.086.046.046,0,0,0-.045-.011c0,.007,0,.015,0,.023a.5.5,0,0,0,.021.063.049.049,0,0,0,.047.022c.017,0,.018.03,0,.023a.533.533,0,0,0-.1,0c-.012,0-.028.007-.036-.005s.022-.012.03-.025a.083.083,0,0,0-.007-.044l-.043-.145Zm.07.049c.005.017.03.008.043.008a.026.026,0,0,0,.021-.032.11.11,0,0,0-.029-.067.076.076,0,0,0-.058-.009c-.008.007,0,.018,0,.027Zm.367-.135c.017,0,.017.016.02.027s.01.029.014.044-.026,0-.027-.011-.016-.031-.033-.032a.507.507,0,0,0-.069,0c-.012,0,0,.02,0,.03s.013.049.021.073a.1.1,0,0,0,.042-.005c.015-.009-.006-.031.01-.037s.02.021.023.034a.714.714,0,0,0,.022.072c-.007.015-.028,0-.028-.012a.034.034,0,0,0-.036-.023c-.007,0-.03-.006-.023.007a.857.857,0,0,0,.026.084.037.037,0,0,0,.038.019.1.1,0,0,0,.063-.012c.014-.011,0-.031.008-.045s.028,0,.026.019a.5.5,0,0,0,.011.054c0,.01-.016.007-.024.008l-.166,0c-.014,0-.032.008-.044,0s.016-.016.025-.025,0-.027,0-.04c-.016-.055-.031-.109-.047-.164-.005-.016-.015-.036-.034-.039S17.8,10,17.811,9.983a.231.231,0,0,1,.052,0l.157,0Zm-1.75.7c0-.02-.012-.045-.034-.051s-.034,0-.027-.021a.233.233,0,0,1,.053,0,.418.418,0,0,1,.131,0,.189.189,0,0,1,.138.126.132.132,0,0,1-.012.119.148.148,0,0,1-.118.046.467.467,0,0,0-.1.006c-.013.008-.034,0-.023-.019s.036-.008.032-.028-.013-.054-.019-.081l-.023-.093Zm.088.13a.1.1,0,0,0,.022.05.082.082,0,0,0,.049,0,.059.059,0,0,0,.047-.05.209.209,0,0,0-.02-.119.11.11,0,0,0-.077-.065.159.159,0,0,0-.062,0c0,.006,0,.015,0,.022Zm.376-.236c.017,0,.017.016.019.027s.009.029.011.043-.026,0-.027-.01-.014-.031-.032-.031a.494.494,0,0,0-.068,0c-.012,0,0,.021,0,.03s.011.049.018.072A.082.082,0,0,0,16.7,10.7c.011-.01-.007-.033.011-.037s.016.024.02.037.013.045.018.069-.028,0-.027-.011a.032.032,0,0,0-.038-.022c-.008,0-.026,0-.02.009a.809.809,0,0,0,.022.083c.005.016.023.019.037.018a.091.091,0,0,0,.065-.016c.013-.012,0-.032.009-.044s.026.008.024.022a.477.477,0,0,0,.009.052c0,.011-.016.008-.025.009l-.164.01c-.014,0-.029.008-.042,0s.005-.022.017-.023.014-.024.01-.036c-.014-.058-.027-.115-.042-.173,0-.016-.013-.036-.032-.037s-.032,0-.025-.021a.221.221,0,0,1,.052,0Zm.346.219a.039.039,0,0,0,.032.033c.013.005.032,0,.039.013s-.021.013-.031.013a.541.541,0,0,0-.092,0,.27.27,0,0,1-.046,0,.012.012,0,0,1,.008-.024c.014,0,.034-.007.038-.023a.144.144,0,0,0-.007-.042c-.012-.049-.023-.1-.034-.147,0-.017-.021-.018-.034-.016s-.031.009-.035-.009.025-.014.036-.022.039-.015.059-.02.016.008.017.017Zm.2-.177c0-.019-.015-.042-.037-.045a.035.035,0,0,0-.041.018.049.049,0,0,0,.02.055.278.278,0,0,0,.048.024c0-.006.013-.019.013-.03a.077.077,0,0,0,0-.022Zm.045.154a.08.08,0,0,0-.053-.051c-.01,0-.024-.015-.03-.009a.056.056,0,0,0-.017.059.065.065,0,0,0,.054.053.041.041,0,0,0,.046-.025A.051.051,0,0,0,17.322,10.768Zm.047-.011a.064.064,0,0,1-.025.069.128.128,0,0,1-.108.012.089.089,0,0,1-.063-.068.065.065,0,0,1,.027-.07c.005-.005.026-.008.009-.012a.1.1,0,0,1-.058-.065.062.062,0,0,1,.029-.068.105.105,0,0,1,.138.036.06.06,0,0,1,0,.065.054.054,0,0,1-.03.024.111.111,0,0,1,.065.042.088.088,0,0,1,.015.034Zm.174.03a.027.027,0,0,0,.029-.021c0-.01,0-.033.014-.032s.015.02.016.032a.068.068,0,0,1-.018.061.082.082,0,0,1-.045.005.61.61,0,0,0-.09,0c-.013,0-.026.015-.038.005s0-.028,0-.041a.189.189,0,0,1,.059-.082.085.085,0,0,0,.025-.124.056.056,0,0,0-.075-.017.029.029,0,0,0-.012.04c.011.009.032,0,.037.019a.021.021,0,0,1-.016.032.048.048,0,0,1-.051-.037.064.064,0,0,1,.026-.075.118.118,0,0,1,.09-.009.091.091,0,0,1,.065.061.084.084,0,0,1,0,.071c-.02.038-.061.057-.088.089a.034.034,0,0,0-.01.031c0-.011.021-.007.031-.009S17.525,10.787,17.543,10.787Zm.21-.022a.039.039,0,0,0,.031.034c.012.005.03,0,.038.012s-.018.015-.029.014a.577.577,0,0,0-.095,0,.267.267,0,0,1-.046,0,.012.012,0,0,1,.008-.023c.014,0,.034-.006.038-.023a.142.142,0,0,0-.006-.042c-.01-.049-.02-.1-.031-.148,0-.015-.017-.018-.029-.017s-.03.009-.038,0,.018-.018.029-.023.043-.015.065-.02.016.008.017.017l.046.22Z" transform="translate(-15.239 -8.809)" fill="#b07e09"/>
          </g>
        </g>
        <g id="Group_452" data-name="Group 452" transform="translate(5.014)">
          <path id="Path_3382" data-name="Path 3382" d="M15.941,7.314l-.2.239c-.064.279.1.49.408.673a.967.967,0,0,0,.871.07l-.731-.7Z" transform="translate(-15.574 -6.813)" stroke="#4c0505" stroke-width="0.007" fill="url(#radial-gradient-6)"/>
          <path id="Path_3383" data-name="Path 3383" d="M17.479,14.694l-.109-.129a5.374,5.374,0,0,1-1.74,1.524A4.017,4.017,0,0,0,17.479,14.694Zm-.823,1.9c.284-.575.626-1.149.971-1.724l-.114-.141a5.253,5.253,0,0,0-.857,1.864Zm2.226-6.107a3.335,3.335,0,0,0-.23-.7,4.229,4.229,0,0,0-.631-.9,6.752,6.752,0,0,0-1.7-1.453l0-.007,0,0h.009l-.009-.011h.025l-.014-.014h.023L16.342,7.4h.025l-.017-.017h.026l-.015-.019.021,0-.02-.021.029-.006-.024-.015.026,0L16.371,7.3l.031-.01-.028-.016.035-.015-.034-.024.036-.012-.039-.016.033-.017-.038-.007.026-.03-.037,0,.017-.032-.036,0,0,0,.02-.024-.036.006.016-.033-.035.017.01-.038-.033.023.005-.038-.031.027,0-.037-.027.028,0-.039-.027.033,0-.038-.021.03L16.167,7l-.018.036L16.14,7l-.017.038L16.115,7l-.015.038L16.089,7l-.011.036-.008-.032-.013.038-.012-.036-.013.041-.016-.037-.007.044-.019-.036,0,.042-.02-.032v.042l-.022-.03,0,.037-.023-.019.011.04-.028-.016.011.035-.023-.013.008.034-.021-.007.011.025,0,0-.016,0,.009.02a.483.483,0,0,0-.019.187c0,.012.032.025.037.032a.053.053,0,0,1,.012.035.825.825,0,0,0-.169.4c.068-.086.139-.192.238-.192-.049.082-.072.329-.017.367l.041-.072a.36.36,0,0,0,.021.124.82.82,0,0,1,.051-.093.368.368,0,0,0,.038.177.238.238,0,0,1,.086-.084.37.37,0,0,0-.021.144.864.864,0,0,1,.1-.134.463.463,0,0,0,.022.241c.021-.111.03-.122.081-.169a1.205,1.205,0,0,0,.008.25c.047-.089.078-.077.106-.134a.781.781,0,0,0,0,.251.239.239,0,0,1,.1-.142c0,.117.03.1-.043.2a.409.409,0,0,0,.192-.044c-.027.063-.019.112-.047.157a.63.63,0,0,0,.155-.124c-.022.072-.081.144-.052.216a.172.172,0,0,1,.12-.133c-.008.038-.013.116-.068.154.13.013.182-.075.247-.144a.256.256,0,0,0,.083.232c-.018-.13.013-.1.072-.181a.5.5,0,0,0,.18.321.323.323,0,0,1-.031-.259c.015.079.09.173.108.248a.718.718,0,0,1,.051-.216,1.081,1.081,0,0,1,.072.3.91.91,0,0,0,.062-.165A2.789,2.789,0,0,1,17.84,12.9c.414-.28.521-.724.752-1.1a4.669,4.669,0,0,1-.721,1.462,3.989,3.989,0,0,0,.7-.953,9.01,9.01,0,0,1-1.057,2.066q.126.137.252.277.11-.183.219-.365a4.683,4.683,0,0,0,.9-3.794Z" transform="translate(-15.631 -7.001)" fill="#448127" stroke="#34541f" stroke-width="0.007"/>
        </g>
        <path id="Path_3384" data-name="Path 3384" d="M15.814,7.176a.19.19,0,0,0-.113.077.666.666,0,0,0,.134.014c.014,0,.018-.019.015-.031l-.007-.051c0-.012-.032-.011-.047,0Z" transform="translate(-10.574 -6.896)" fill="#eac102" stroke="#a08307" stroke-width="0.007"/>
        <path id="Path_3385" data-name="Path 3385" d="M15.7,7.234a.527.527,0,0,1,.056-.016.52.52,0,0,1,.057-.01.524.524,0,0,1-.056.016A.53.53,0,0,1,15.7,7.234Z" transform="translate(-10.574 -6.877)" fill="#a08307"/>
        <ellipse id="Ellipse_247" data-name="Ellipse 247" cx="0.041" cy="0.043" rx="0.041" ry="0.043" transform="translate(5.44 0.244)" stroke="#000" stroke-width="0.003"/>
        <ellipse id="Ellipse_248" data-name="Ellipse 248" cx="0.018" cy="0.019" rx="0.018" ry="0.019" transform="translate(5.473 0.26)" fill="url(#radial-gradient-7)"/>
        <g id="Group_453" data-name="Group 453" transform="translate(5.036 0.573)">
          <path id="Path_3386" data-name="Path 3386" d="M16.649,15.462q.037-.12.081-.237t.1-.232c.067-.153.142-.3.221-.45s.162-.292.249-.435q.065-.107.131-.214l.134-.212-.129.215q-.064.107-.128.215c-.084.144-.168.289-.246.436s-.154.3-.223.448q-.052.114-.1.23t-.087.235Zm-1-.5q.132-.059.26-.127t.251-.144a3.843,3.843,0,0,0,.466-.342,4.516,4.516,0,0,0,.414-.4c.065-.071.128-.144.19-.219s.122-.15.181-.226q-.086.116-.177.229t-.187.221a4.368,4.368,0,0,1-.413.407,3.73,3.73,0,0,1-.469.341q-.124.076-.253.142t-.263.122Zm1.988-1.565c.041-.057.079-.117.117-.176s.075-.119.112-.179q.109-.181.211-.366t.2-.373l.2-.375-.093.19-.1.189q-.1.189-.2.374c-.069.123-.139.245-.214.365s-.152.238-.237.35Zm.314-1.339a3.113,3.113,0,0,0,.25-.342,3.211,3.211,0,0,0,.2-.372,3.871,3.871,0,0,0,.265-.8q.012-.052.022-.1.026-.157.037-.315a2.894,2.894,0,0,0,0-.424,2.7,2.7,0,0,0-.066-.418,2.846,2.846,0,0,0-.128-.4,2.852,2.852,0,0,1,.134.4,2.692,2.692,0,0,1,.068.419,2.889,2.889,0,0,1,0,.425q-.01.159-.036.317-.01.052-.022.1a3.878,3.878,0,0,1-.27.8,3.194,3.194,0,0,1-.205.372,3.105,3.105,0,0,1-.255.339Z" transform="translate(-15.645 -6.452)" fill="#34541f"/>
          <path id="Path_3387" data-name="Path 3387" d="M17.029,11.807a1.913,1.913,0,0,0,.261-.312,2.776,2.776,0,0,0,.2-.353c.059-.122.112-.248.161-.374.025-.063.049-.127.073-.191l.018-.048c.006-.016.011-.032.016-.048.01-.032.019-.065.031-.1h0a2.223,2.223,0,0,0,.043-.409,2.445,2.445,0,0,0-.03-.411,3.086,3.086,0,0,0-.092-.4q-.059-.2-.136-.39.08.19.142.388a3.074,3.074,0,0,1,.095.4,2.448,2.448,0,0,1,.033.412,2.21,2.21,0,0,1-.042.411h0c-.012.031-.021.064-.031.1-.005.016-.01.033-.016.049l-.018.048q-.036.1-.074.19c-.05.126-.1.252-.164.374a2.756,2.756,0,0,1-.2.353,1.918,1.918,0,0,1-.266.309Z" transform="translate(-14.814 -6.51)" fill="#34541f"/>
          <path id="Path_3388" data-name="Path 3388" d="M16.835,13.47l.191-.267.095-.134c.031-.045.064-.088.092-.135.057-.093.106-.191.155-.289s.1-.2.144-.294c.095-.2.187-.395.265-.6a4.016,4.016,0,0,0,.184-.627c.045-.213.076-.43.1-.647a3.114,3.114,0,0,0,0-.653,2.793,2.793,0,0,0-.145-.637,3.876,3.876,0,0,0-.272-.6,3.868,3.868,0,0,1,.277.593,2.8,2.8,0,0,1,.148.638,3.124,3.124,0,0,1,0,.655c-.024.217-.054.434-.1.648a4.027,4.027,0,0,1-.186.628c-.079.2-.171.4-.267.6-.048.1-.1.2-.145.294s-.1.2-.156.289c-.029.047-.062.09-.094.135l-.1.133c-.064.089-.128.177-.193.265Z" transform="translate(-14.93 -6.618)" fill="#34541f"/>
          <path id="Path_3389" data-name="Path 3389" d="M17.483,14.371c.126-.2.251-.41.371-.618s.239-.417.345-.632a4.367,4.367,0,0,0,.267-.668q.052-.172.088-.349.018-.088.032-.177t.025-.178a5.5,5.5,0,0,0,.049-.718,3.892,3.892,0,0,0-.064-.716,3.069,3.069,0,0,0-.212-.686,2.88,2.88,0,0,0-.371-.615,2.884,2.884,0,0,1,.376.613,3.07,3.07,0,0,1,.215.687,3.908,3.908,0,0,1,.066.717,5.5,5.5,0,0,1-.047.719q-.012.089-.026.178t-.032.177q-.037.177-.089.349a4.38,4.38,0,0,1-.269.668c-.107.216-.226.424-.347.632s-.248.411-.376.615ZM16,7.359a.423.423,0,0,1,.076.006.755.755,0,0,1,.074.016,1,1,0,0,1,.143.051,1.38,1.38,0,0,1,.261.155,1.91,1.91,0,0,1,.227.2q.053.055.1.113c.032.039.064.079.094.119q-.048-.059-.1-.116t-.1-.11a2.014,2.014,0,0,0-.228-.2,1.428,1.428,0,0,0-.258-.156,1.011,1.011,0,0,0-.141-.054A.617.617,0,0,0,16,7.359Z" transform="translate(-15.431 -7.359)" fill="#34541f"/>
        </g>
        <g id="Group_454" data-name="Group 454" transform="translate(5.873 0.862)">
          <path id="Path_3390" data-name="Path 3390" d="M16.613,7.723a.846.846,0,0,1,.252.237.847.847,0,0,1-.43-.248" transform="translate(-16.008 -7.436)" fill="#448127"/>
          <path id="Path_3391" data-name="Path 3391" d="M16.613,7.723a.77.77,0,0,1,.074.047c.023.017.046.035.068.055a.693.693,0,0,1,.062.062.544.544,0,0,1,.053.07l.007.012-.013,0a.776.776,0,0,1-.121-.038.837.837,0,0,1-.114-.055.736.736,0,0,1-.194-.16.809.809,0,0,0,.2.153.977.977,0,0,0,.114.053.768.768,0,0,0,.119.036l-.006.009a.6.6,0,0,0-.052-.069.849.849,0,0,0-.06-.062q-.031-.03-.066-.057t-.07-.052Z" transform="translate(-16.008 -7.436)" fill="#34541f"/>
          <path id="Path_3392" data-name="Path 3392" d="M16.319,7.69s.385.246.441.265a.588.588,0,0,0-.269-.265" transform="translate(-16.077 -7.449)" fill="#448127"/>
          <path id="Path_3393" data-name="Path 3393" d="M16.319,7.69l.221.133.11.066.056.032a.543.543,0,0,0,.056.029l-.007.007a.569.569,0,0,0-.049-.081.688.688,0,0,0-.061-.074.573.573,0,0,0-.072-.063.493.493,0,0,0-.082-.049.45.45,0,0,1,.085.045.525.525,0,0,1,.075.062.589.589,0,0,1,.063.073.58.58,0,0,1,.051.083l.007.013-.013-.006a1.012,1.012,0,0,1-.114-.062l-.11-.067q-.109-.069-.216-.141Z" transform="translate(-16.077 -7.449)" fill="#34541f"/>
          <path id="Path_3394" data-name="Path 3394" d="M16.482,7.612s.2.085.246.234a1.933,1.933,0,0,1-.425-.232" transform="translate(-16.086 -7.496)" fill="#448127"/>
          <path id="Path_3395" data-name="Path 3395" d="M16.482,7.612a.569.569,0,0,1,.15.09.382.382,0,0,1,.061.064.257.257,0,0,1,.041.078l0,.012-.011,0-.111-.05q-.055-.025-.109-.053T16.4,7.688c-.017-.011-.034-.022-.051-.034a.226.226,0,0,1-.045-.041.247.247,0,0,0,.047.038l.052.031c.035.02.071.039.108.056q.109.053.221.1l-.008.007a.258.258,0,0,0-.039-.075.416.416,0,0,0-.058-.063.578.578,0,0,0-.069-.053.676.676,0,0,0-.075-.044Z" transform="translate(-16.086 -7.496)" fill="#34541f"/>
          <path id="Path_3396" data-name="Path 3396" d="M16.225,7.708a1.788,1.788,0,0,0,.459.254.7.7,0,0,0-.287-.253" transform="translate(-16.133 -7.438)" fill="#448127"/>
          <path id="Path_3397" data-name="Path 3397" d="M16.225,7.708l.111.072c.037.024.074.047.112.069s.076.044.115.064c.02.01.039.019.06.027a.2.2,0,0,0,.062.016l0,.008a.659.659,0,0,0-.057-.077.838.838,0,0,0-.067-.07.693.693,0,0,0-.075-.061.586.586,0,0,0-.084-.049.571.571,0,0,1,.164.1.685.685,0,0,1,.069.069.658.658,0,0,1,.059.078l.005.009h-.01a.2.2,0,0,1-.066-.016q-.031-.013-.06-.028-.059-.031-.115-.066t-.111-.072C16.3,7.76,16.26,7.735,16.225,7.708Z" transform="translate(-16.133 -7.438)" fill="#34541f"/>
          <path id="Path_3398" data-name="Path 3398" d="M16.225,7.795s.185.156.289.156a.7.7,0,0,0-.287-.253" transform="translate(-16.133 -7.445)" fill="#448127"/>
          <path id="Path_3399" data-name="Path 3399" d="M16.225,7.795l.068.048c.023.016.046.031.07.044a.6.6,0,0,0,.073.038.29.29,0,0,0,.039.013.149.149,0,0,0,.04.006l0,.008a.661.661,0,0,0-.057-.077.838.838,0,0,0-.067-.07.693.693,0,0,0-.075-.06.587.587,0,0,0-.084-.049.571.571,0,0,1,.164.1.686.686,0,0,1,.069.069.673.673,0,0,1,.059.078l.005.008h-.01a.209.209,0,0,1-.082-.021.61.61,0,0,1-.074-.039c-.024-.015-.046-.031-.069-.048s-.044-.035-.064-.053Z" transform="translate(-16.133 -7.445)" fill="#34541f"/>
          <path id="Path_3400" data-name="Path 3400" d="M16.168,7.539s.384.273.43.421a2.009,2.009,0,0,1-.412-.24" transform="translate(-16.168 -7.539)" fill="#448127"/>
          <path id="Path_3401" data-name="Path 3401" d="M16.168,7.539q.063.043.123.09t.118.1a1.372,1.372,0,0,1,.11.106.65.65,0,0,1,.049.059.245.245,0,0,1,.037.068l0,.012L16.6,7.966l-.108-.053q-.054-.027-.106-.056t-.1-.061l-.049-.035a.24.24,0,0,1-.044-.041.262.262,0,0,0,.045.039l.05.032c.034.021.069.04.1.058q.106.056.215.106l-.008.007a.249.249,0,0,0-.035-.065.643.643,0,0,0-.047-.059c-.034-.037-.07-.072-.108-.106s-.076-.067-.115-.1-.079-.064-.119-.094Z" transform="translate(-16.168 -7.539)" fill="#34541f"/>
        </g>
        <g id="Group_455" data-name="Group 455" transform="translate(2.649 8.427)">
          <path id="Path_3402" data-name="Path 3402" d="M15.243,12.39a2.248,2.248,0,0,1-1.091.256C14.683,12.2,15.2,12.194,15.243,12.39Zm3.721.237a2.545,2.545,0,0,0,1.252.4C19.653,12.45,19.037,12.392,18.963,12.627Z" transform="translate(-14.152 -12.267)" fill="#406325" stroke="#24420e" stroke-width="0.005"/>
          <path id="Path_3403" data-name="Path 3403" d="M15.24,12.389c-.038-.2-.558-.184-1.087.255A3.711,3.711,0,0,1,15.24,12.389Zm3.729.235c.073-.235.682-.178,1.246.4A4.258,4.258,0,0,0,18.969,12.624Z" transform="translate(-14.152 -12.268)" fill="#67923d" stroke="#24420e" stroke-width="0.005"/>
        </g>
      </g>
    </g>
  </g>
</svg>
