<svg xmlns="http://www.w3.org/2000/svg" xmlns:xlink="http://www.w3.org/1999/xlink" width="32" height="32" viewBox="0 0 32 32">
  <defs>
    <clipPath id="clip-path">
      <circle id="Honduras" cx="16" cy="16" r="16" transform="translate(477 2137)" fill="#fff"/>
    </clipPath>
  </defs>
  <g id="Honduras-2" data-name="Honduras" transform="translate(-477 -2137)" clip-path="url(#clip-path)">
    <g id="Flag_of_Honduras" transform="translate(461 2137)">
      <rect id="Rectangle_115" data-name="Rectangle 115" width="64" height="32" fill="#0073cf"/>
      <rect id="Rectangle_116" data-name="Rectangle 116" width="64" height="10" transform="translate(0 11)" fill="#fff"/>
      <g id="star" transform="translate(30.048 14.222)">
        <g id="cone" transform="translate(1.107 0)">
          <path id="triangle" d="M0,0V1.778H.889Z" transform="translate(0.845 0) rotate(18)" fill="#0073cf"/>
          <path id="use12" d="M0,1.778V0H.889Z" transform="translate(1.395 1.691) rotate(162)" fill="#0073cf"/>
        </g>
        <g id="use14" transform="translate(3.382 0.424) rotate(72)">
          <path id="triangle-2" data-name="triangle" d="M0,0V1.778H.889Z" transform="translate(0.845 0) rotate(18)" fill="#0073cf"/>
          <path id="use12-2" data-name="use12" d="M0,1.778V0H.889Z" transform="translate(1.395 1.691) rotate(162)" fill="#0073cf"/>
        </g>
        <g id="use16" transform="translate(0 2.032) rotate(-72)">
          <path id="triangle-3" data-name="triangle" d="M0,0V1.778H.889Z" transform="translate(0.845 0) rotate(18)" fill="#0073cf"/>
          <path id="use12-3" data-name="use12" d="M0,1.778V0H.889Z" transform="translate(1.395 1.691) rotate(162)" fill="#0073cf"/>
        </g>
        <g id="use18" transform="matrix(-0.809, 0.588, -0.588, -0.809, 3.681, 2.719)">
          <path id="triangle-4" data-name="triangle" d="M0,0V1.778H.889Z" transform="translate(0.845 0) rotate(18)" fill="#0073cf"/>
          <path id="use12-4" data-name="use12" d="M0,1.778V0H.889Z" transform="translate(1.395 1.691) rotate(162)" fill="#0073cf"/>
        </g>
        <g id="use20" transform="matrix(-0.809, -0.588, 0.588, -0.809, 1.591, 3.713)">
          <path id="triangle-5" data-name="triangle" d="M0,0V1.778H.889Z" transform="translate(0.845 0) rotate(18)" fill="#0073cf"/>
          <path id="use12-5" data-name="use12" d="M0,1.778V0H.889Z" transform="translate(1.395 1.691) rotate(162)" fill="#0073cf"/>
        </g>
      </g>
      <g id="Group_457" data-name="Group 457" transform="translate(38.937 11.378)">
        <g id="cone-2" data-name="cone" transform="translate(1.107 0)">
          <path id="triangle-6" data-name="triangle" d="M0,0V1.778H.889Z" transform="translate(0.845 0) rotate(18)" fill="#0073cf"/>
          <path id="use12-6" data-name="use12" d="M0,1.778V0H.889Z" transform="translate(1.395 1.691) rotate(162)" fill="#0073cf"/>
        </g>
        <g id="use14-2" data-name="use14" transform="translate(3.382 0.424) rotate(72)">
          <path id="triangle-7" data-name="triangle" d="M0,0V1.778H.889Z" transform="translate(0.845 0) rotate(18)" fill="#0073cf"/>
          <path id="use12-7" data-name="use12" d="M0,1.778V0H.889Z" transform="translate(1.395 1.691) rotate(162)" fill="#0073cf"/>
        </g>
        <g id="use16-2" data-name="use16" transform="translate(0 2.032) rotate(-72)">
          <path id="triangle-8" data-name="triangle" d="M0,0V1.778H.889Z" transform="translate(0.845 0) rotate(18)" fill="#0073cf"/>
          <path id="use12-8" data-name="use12" d="M0,1.778V0H.889Z" transform="translate(1.395 1.691) rotate(162)" fill="#0073cf"/>
        </g>
        <g id="use18-2" data-name="use18" transform="matrix(-0.809, 0.588, -0.588, -0.809, 3.681, 2.719)">
          <path id="triangle-9" data-name="triangle" d="M0,0V1.778H.889Z" transform="translate(0.845 0) rotate(18)" fill="#0073cf"/>
          <path id="use12-9" data-name="use12" d="M0,1.778V0H.889Z" transform="translate(1.395 1.691) rotate(162)" fill="#0073cf"/>
        </g>
        <g id="use20-2" data-name="use20" transform="matrix(-0.809, -0.588, 0.588, -0.809, 1.591, 3.713)">
          <path id="triangle-10" data-name="triangle" d="M0,0V1.778H.889Z" transform="translate(0.845 0) rotate(18)" fill="#0073cf"/>
          <path id="use12-10" data-name="use12" d="M0,1.778V0H.889Z" transform="translate(1.395 1.691) rotate(162)" fill="#0073cf"/>
        </g>
      </g>
      <g id="Group_458" data-name="Group 458" transform="translate(38.937 16.711)">
        <g id="cone-3" data-name="cone" transform="translate(1.107 0)">
          <path id="triangle-11" data-name="triangle" d="M0,0V1.778H.889Z" transform="translate(0.845 0) rotate(18)" fill="#0073cf"/>
          <path id="use12-11" data-name="use12" d="M0,1.778V0H.889Z" transform="translate(1.395 1.691) rotate(162)" fill="#0073cf"/>
        </g>
        <g id="use14-3" data-name="use14" transform="translate(3.382 0.424) rotate(72)">
          <path id="triangle-12" data-name="triangle" d="M0,0V1.778H.889Z" transform="translate(0.845 0) rotate(18)" fill="#0073cf"/>
          <path id="use12-12" data-name="use12" d="M0,1.778V0H.889Z" transform="translate(1.395 1.691) rotate(162)" fill="#0073cf"/>
        </g>
        <g id="use16-3" data-name="use16" transform="translate(0 2.032) rotate(-72)">
          <path id="triangle-13" data-name="triangle" d="M0,0V1.778H.889Z" transform="translate(0.845 0) rotate(18)" fill="#0073cf"/>
          <path id="use12-13" data-name="use12" d="M0,1.778V0H.889Z" transform="translate(1.395 1.691) rotate(162)" fill="#0073cf"/>
        </g>
        <g id="use18-3" data-name="use18" transform="matrix(-0.809, 0.588, -0.588, -0.809, 3.681, 2.719)">
          <path id="triangle-14" data-name="triangle" d="M0,0V1.778H.889Z" transform="translate(0.845 0) rotate(18)" fill="#0073cf"/>
          <path id="use12-14" data-name="use12" d="M0,1.778V0H.889Z" transform="translate(1.395 1.691) rotate(162)" fill="#0073cf"/>
        </g>
        <g id="use20-3" data-name="use20" transform="matrix(-0.809, -0.588, 0.588, -0.809, 1.591, 3.713)">
          <path id="triangle-15" data-name="triangle" d="M0,0V1.778H.889Z" transform="translate(0.845 0) rotate(18)" fill="#0073cf"/>
          <path id="use12-15" data-name="use12" d="M0,1.778V0H.889Z" transform="translate(1.395 1.691) rotate(162)" fill="#0073cf"/>
        </g>
      </g>
      <g id="Group_459" data-name="Group 459" transform="translate(21.159 11.378)">
        <g id="cone-4" data-name="cone" transform="translate(1.107 0)">
          <path id="triangle-16" data-name="triangle" d="M0,0V1.778H.889Z" transform="translate(0.845 0) rotate(18)" fill="#0073cf"/>
          <path id="use12-16" data-name="use12" d="M0,1.778V0H.889Z" transform="translate(1.395 1.691) rotate(162)" fill="#0073cf"/>
        </g>
        <g id="use14-4" data-name="use14" transform="translate(3.382 0.424) rotate(72)">
          <path id="triangle-17" data-name="triangle" d="M0,0V1.778H.889Z" transform="translate(0.845 0) rotate(18)" fill="#0073cf"/>
          <path id="use12-17" data-name="use12" d="M0,1.778V0H.889Z" transform="translate(1.395 1.691) rotate(162)" fill="#0073cf"/>
        </g>
        <g id="use16-4" data-name="use16" transform="translate(0 2.032) rotate(-72)">
          <path id="triangle-18" data-name="triangle" d="M0,0V1.778H.889Z" transform="translate(0.845 0) rotate(18)" fill="#0073cf"/>
          <path id="use12-18" data-name="use12" d="M0,1.778V0H.889Z" transform="translate(1.395 1.691) rotate(162)" fill="#0073cf"/>
        </g>
        <g id="use18-4" data-name="use18" transform="matrix(-0.809, 0.588, -0.588, -0.809, 3.681, 2.719)">
          <path id="triangle-19" data-name="triangle" d="M0,0V1.778H.889Z" transform="translate(0.845 0) rotate(18)" fill="#0073cf"/>
          <path id="use12-19" data-name="use12" d="M0,1.778V0H.889Z" transform="translate(1.395 1.691) rotate(162)" fill="#0073cf"/>
        </g>
        <g id="use20-4" data-name="use20" transform="matrix(-0.809, -0.588, 0.588, -0.809, 1.591, 3.713)">
          <path id="triangle-20" data-name="triangle" d="M0,0V1.778H.889Z" transform="translate(0.845 0) rotate(18)" fill="#0073cf"/>
          <path id="use12-20" data-name="use12" d="M0,1.778V0H.889Z" transform="translate(1.395 1.691) rotate(162)" fill="#0073cf"/>
        </g>
      </g>
      <g id="Group_460" data-name="Group 460" transform="translate(21.159 16.711)">
        <g id="cone-5" data-name="cone" transform="translate(1.107 0)">
          <path id="triangle-21" data-name="triangle" d="M0,0V1.778H.889Z" transform="translate(0.845 0) rotate(18)" fill="#0073cf"/>
          <path id="use12-21" data-name="use12" d="M0,1.778V0H.889Z" transform="translate(1.395 1.691) rotate(162)" fill="#0073cf"/>
        </g>
        <g id="use14-5" data-name="use14" transform="translate(3.382 0.424) rotate(72)">
          <path id="triangle-22" data-name="triangle" d="M0,0V1.778H.889Z" transform="translate(0.845 0) rotate(18)" fill="#0073cf"/>
          <path id="use12-22" data-name="use12" d="M0,1.778V0H.889Z" transform="translate(1.395 1.691) rotate(162)" fill="#0073cf"/>
        </g>
        <g id="use16-5" data-name="use16" transform="translate(0 2.032) rotate(-72)">
          <path id="triangle-23" data-name="triangle" d="M0,0V1.778H.889Z" transform="translate(0.845 0) rotate(18)" fill="#0073cf"/>
          <path id="use12-23" data-name="use12" d="M0,1.778V0H.889Z" transform="translate(1.395 1.691) rotate(162)" fill="#0073cf"/>
        </g>
        <g id="use18-5" data-name="use18" transform="matrix(-0.809, 0.588, -0.588, -0.809, 3.681, 2.719)">
          <path id="triangle-24" data-name="triangle" d="M0,0V1.778H.889Z" transform="translate(0.845 0) rotate(18)" fill="#0073cf"/>
          <path id="use12-24" data-name="use12" d="M0,1.778V0H.889Z" transform="translate(1.395 1.691) rotate(162)" fill="#0073cf"/>
        </g>
        <g id="use20-5" data-name="use20" transform="matrix(-0.809, -0.588, 0.588, -0.809, 1.591, 3.713)">
          <path id="triangle-25" data-name="triangle" d="M0,0V1.778H.889Z" transform="translate(0.845 0) rotate(18)" fill="#0073cf"/>
          <path id="use12-25" data-name="use12" d="M0,1.778V0H.889Z" transform="translate(1.395 1.691) rotate(162)" fill="#0073cf"/>
        </g>
      </g>
    </g>
  </g>
</svg>
