<svg xmlns="http://www.w3.org/2000/svg" xmlns:xlink="http://www.w3.org/1999/xlink" width="32" height="32" viewBox="0 0 32 32">
  <defs>
    <clipPath id="clip-path">
      <circle id="India" cx="16" cy="16" r="16" transform="translate(1117 1231)" fill="#fff"/>
    </clipPath>
  </defs>
  <g id="India-2" data-name="India" transform="translate(-1117 -1231)" clip-path="url(#clip-path)">
    <g id="Flag_of_India" transform="translate(1109 1231)">
      <rect id="Rectangle_88" data-name="Rectangle 88" width="48" height="32" fill="#f93"/>
      <rect id="Rectangle_89" data-name="Rectangle 89" width="48" height="10.667" transform="translate(0 10.667)" fill="#fff"/>
      <rect id="Rectangle_90" data-name="Rectangle 90" width="48" height="10.667" transform="translate(0 21.333)" fill="#128807"/>
      <g id="Group_284" data-name="Group 284" transform="translate(16.533 6.943)">
        <circle id="Ellipse_174" data-name="Ellipse 174" cx="4.267" cy="4.267" r="4.267" transform="translate(3.201 4.79)" fill="#008"/>
        <circle id="Ellipse_175" data-name="Ellipse 175" cx="3.733" cy="3.733" r="3.733" transform="translate(3.734 5.324)" fill="#fff"/>
        <circle id="Ellipse_176" data-name="Ellipse 176" cx="0.747" cy="0.747" r="0.747" transform="translate(6.721 8.31)" fill="#008"/>
        <g id="d" transform="translate(0.683 6.069)">
          <g id="c" transform="translate(3.531 2.647)">
            <g id="b" transform="translate(2.163 0.576)">
              <g id="a" transform="translate(0.962 0.043)">
                <circle id="Ellipse_177" data-name="Ellipse 177" cx="0.187" cy="0.187" r="0.187" transform="matrix(0.991, 0.131, -0.131, 0.991, 3.669, 0)" fill="#008"/>
                <path id="Path_1151" data-name="Path 1151" d="M.043,3.591l.128-2.24L.043.284-.085,1.351Z" transform="translate(0.085 -0.136)" fill="#008"/>
              </g>
              <g id="Group_261" data-name="Group 261" transform="matrix(0.966, 0.259, -0.259, 0.966, 0.894, 0)">
                <circle id="Ellipse_178" data-name="Ellipse 178" cx="0.187" cy="0.187" r="0.187" transform="matrix(0.991, 0.131, -0.131, 0.991, 3.669, 0)" fill="#008"/>
                <path id="Path_1152" data-name="Path 1152" d="M.128,3.307l.128-2.24L.128,0,0,1.067Z" transform="translate(0 0.149)" fill="#008"/>
              </g>
            </g>
            <g id="Group_263" data-name="Group 263" transform="matrix(0.866, 0.5, -0.5, 0.866, 2.192, 0)">
              <g id="a-2" data-name="a" transform="translate(0.962 0.043)">
                <circle id="Ellipse_179" data-name="Ellipse 179" cx="0.187" cy="0.187" r="0.187" transform="matrix(0.991, 0.131, -0.131, 0.991, 3.669, 0)" fill="#008"/>
                <path id="Path_1153" data-name="Path 1153" d="M.128,3.307l.128-2.24L.128,0,0,1.067Z" transform="translate(0 0.149)" fill="#008"/>
              </g>
              <g id="Group_262" data-name="Group 262" transform="matrix(0.966, 0.259, -0.259, 0.966, 0.894, 0)">
                <circle id="Ellipse_180" data-name="Ellipse 180" cx="0.187" cy="0.187" r="0.187" transform="matrix(0.991, 0.131, -0.131, 0.991, 3.669, 0)" fill="#008"/>
                <path id="Path_1154" data-name="Path 1154" d="M.128,3.307l.128-2.24L.128,0,0,1.067Z" transform="translate(0 0.149)" fill="#008"/>
              </g>
            </g>
          </g>
          <g id="Group_267" data-name="Group 267" transform="matrix(0.5, 0.866, -0.866, 0.5, 5.453, 0)">
            <g id="b-2" data-name="b" transform="translate(2.163 0.576)">
              <g id="a-3" data-name="a" transform="translate(0.962 0.043)">
                <circle id="Ellipse_181" data-name="Ellipse 181" cx="0.187" cy="0.187" r="0.187" transform="matrix(0.991, 0.131, -0.131, 0.991, 3.669, 0)" fill="#008"/>
                <path id="Path_1155" data-name="Path 1155" d="M.128,3.307l.128-2.24L.128,0,0,1.067Z" transform="translate(0 0.149)" fill="#008"/>
              </g>
              <g id="Group_264" data-name="Group 264" transform="matrix(0.966, 0.259, -0.259, 0.966, 0.894, 0)">
                <circle id="Ellipse_182" data-name="Ellipse 182" cx="0.187" cy="0.187" r="0.187" transform="matrix(0.991, 0.131, -0.131, 0.991, 3.669, 0)" fill="#008"/>
                <path id="Path_1156" data-name="Path 1156" d="M.128,3.307l.128-2.24L.128,0,0,1.067Z" transform="translate(0 0.149)" fill="#008"/>
              </g>
            </g>
            <g id="Group_266" data-name="Group 266" transform="matrix(0.866, 0.5, -0.5, 0.866, 2.192, 0)">
              <g id="a-4" data-name="a" transform="translate(0.962 0.043)">
                <circle id="Ellipse_183" data-name="Ellipse 183" cx="0.187" cy="0.187" r="0.187" transform="matrix(0.991, 0.131, -0.131, 0.991, 3.669, 0)" fill="#008"/>
                <path id="Path_1157" data-name="Path 1157" d="M.128,3.307l.128-2.24L.128,0,0,1.067Z" transform="translate(0 0.149)" fill="#008"/>
              </g>
              <g id="Group_265" data-name="Group 265" transform="matrix(0.966, 0.259, -0.259, 0.966, 0.894, 0)">
                <circle id="Ellipse_184" data-name="Ellipse 184" cx="0.187" cy="0.187" r="0.187" transform="matrix(0.991, 0.131, -0.131, 0.991, 3.669, 0)" fill="#008"/>
                <path id="Path_1158" data-name="Path 1158" d="M.128,3.307l.128-2.24L.128,0,0,1.067Z" transform="translate(0 0.149)" fill="#008"/>
              </g>
            </g>
          </g>
        </g>
        <g id="Group_275" data-name="Group 275" transform="matrix(-0.5, 0.866, -0.866, -0.5, 13.447, 4.676)">
          <g id="c-2" data-name="c" transform="translate(3.531 2.647)">
            <g id="b-3" data-name="b" transform="translate(2.163 0.576)">
              <g id="a-5" data-name="a" transform="translate(0.962 0.043)">
                <circle id="Ellipse_185" data-name="Ellipse 185" cx="0.187" cy="0.187" r="0.187" transform="matrix(0.991, 0.131, -0.131, 0.991, 3.669, 0)" fill="#008"/>
                <path id="Path_1159" data-name="Path 1159" d="M.128,3.307l.128-2.24L.128,0,0,1.067Z" transform="translate(0 0.149)" fill="#008"/>
              </g>
              <g id="Group_268" data-name="Group 268" transform="matrix(0.966, 0.259, -0.259, 0.966, 0.894, 0)">
                <circle id="Ellipse_186" data-name="Ellipse 186" cx="0.187" cy="0.187" r="0.187" transform="matrix(0.991, 0.131, -0.131, 0.991, 3.669, 0)" fill="#008"/>
                <path id="Path_1160" data-name="Path 1160" d="M.128,3.307l.128-2.24L.128,0,0,1.067Z" transform="translate(0 0.149)" fill="#008"/>
              </g>
            </g>
            <g id="Group_270" data-name="Group 270" transform="matrix(0.866, 0.5, -0.5, 0.866, 2.192, 0)">
              <g id="a-6" data-name="a" transform="translate(0.962 0.043)">
                <circle id="Ellipse_187" data-name="Ellipse 187" cx="0.187" cy="0.187" r="0.187" transform="matrix(0.991, 0.131, -0.131, 0.991, 3.669, 0)" fill="#008"/>
                <path id="Path_1161" data-name="Path 1161" d="M.128,3.307l.128-2.24L.128,0,0,1.067Z" transform="translate(0 0.149)" fill="#008"/>
              </g>
              <g id="Group_269" data-name="Group 269" transform="matrix(0.966, 0.259, -0.259, 0.966, 0.894, 0)">
                <circle id="Ellipse_188" data-name="Ellipse 188" cx="0.187" cy="0.187" r="0.187" transform="matrix(0.991, 0.131, -0.131, 0.991, 3.669, 0)" fill="#008"/>
                <path id="Path_1162" data-name="Path 1162" d="M.128,3.307l.128-2.24L.128,0,0,1.067Z" transform="translate(0 0.149)" fill="#008"/>
              </g>
            </g>
          </g>
          <g id="Group_274" data-name="Group 274" transform="matrix(0.5, 0.866, -0.866, 0.5, 5.453, 0)">
            <g id="b-4" data-name="b" transform="translate(2.163 0.576)">
              <g id="a-7" data-name="a" transform="translate(0.962 0.043)">
                <circle id="Ellipse_189" data-name="Ellipse 189" cx="0.187" cy="0.187" r="0.187" transform="matrix(0.991, 0.131, -0.131, 0.991, 3.669, 0)" fill="#008"/>
                <path id="Path_1163" data-name="Path 1163" d="M.128,3.307l.128-2.24L.128,0,0,1.067Z" transform="translate(0 0.149)" fill="#008"/>
              </g>
              <g id="Group_271" data-name="Group 271" transform="matrix(0.966, 0.259, -0.259, 0.966, 0.894, 0)">
                <circle id="Ellipse_190" data-name="Ellipse 190" cx="0.187" cy="0.187" r="0.187" transform="matrix(0.991, 0.131, -0.131, 0.991, 3.669, 0)" fill="#008"/>
                <path id="Path_1164" data-name="Path 1164" d="M.128,3.307l.128-2.24L.128,0,0,1.067Z" transform="translate(0 0.149)" fill="#008"/>
              </g>
            </g>
            <g id="Group_273" data-name="Group 273" transform="matrix(0.866, 0.5, -0.5, 0.866, 2.192, 0)">
              <g id="a-8" data-name="a" transform="translate(0.962 0.043)">
                <circle id="Ellipse_191" data-name="Ellipse 191" cx="0.187" cy="0.187" r="0.187" transform="matrix(0.991, 0.131, -0.131, 0.991, 3.669, 0)" fill="#008"/>
                <path id="Path_1165" data-name="Path 1165" d="M.128,3.307l.128-2.24L.128,0,0,1.067Z" transform="translate(0 0.149)" fill="#008"/>
              </g>
              <g id="Group_272" data-name="Group 272" transform="matrix(0.966, 0.259, -0.259, 0.966, 0.894, 0)">
                <circle id="Ellipse_192" data-name="Ellipse 192" cx="0.187" cy="0.187" r="0.187" transform="matrix(0.991, 0.131, -0.131, 0.991, 3.669, 0)" fill="#008"/>
                <path id="Path_1166" data-name="Path 1166" d="M.128,3.307l.128-2.24L.128,0,0,1.067Z" transform="translate(0 0.149)" fill="#008"/>
              </g>
            </g>
          </g>
        </g>
        <g id="Group_283" data-name="Group 283" transform="matrix(-0.5, -0.866, 0.866, -0.5, 8.272, 16.426)">
          <g id="c-3" data-name="c" transform="translate(3.531 2.647)">
            <g id="b-5" data-name="b" transform="translate(2.163 0.576)">
              <g id="a-9" data-name="a" transform="translate(0.962 0.043)">
                <circle id="Ellipse_193" data-name="Ellipse 193" cx="0.187" cy="0.187" r="0.187" transform="matrix(0.991, 0.131, -0.131, 0.991, 3.669, 0)" fill="#008"/>
                <path id="Path_1167" data-name="Path 1167" d="M.128,3.307l.128-2.24L.128,0,0,1.067Z" transform="translate(0 0.149)" fill="#008"/>
              </g>
              <g id="Group_276" data-name="Group 276" transform="matrix(0.966, 0.259, -0.259, 0.966, 0.894, 0)">
                <circle id="Ellipse_194" data-name="Ellipse 194" cx="0.187" cy="0.187" r="0.187" transform="matrix(0.991, 0.131, -0.131, 0.991, 3.669, 0)" fill="#008"/>
                <path id="Path_1168" data-name="Path 1168" d="M.128,3.307l.128-2.24L.128,0,0,1.067Z" transform="translate(0 0.149)" fill="#008"/>
              </g>
            </g>
            <g id="Group_278" data-name="Group 278" transform="matrix(0.866, 0.5, -0.5, 0.866, 2.192, 0)">
              <g id="a-10" data-name="a" transform="translate(0.962 0.043)">
                <circle id="Ellipse_195" data-name="Ellipse 195" cx="0.187" cy="0.187" r="0.187" transform="matrix(0.991, 0.131, -0.131, 0.991, 3.669, 0)" fill="#008"/>
                <path id="Path_1169" data-name="Path 1169" d="M.128,3.307l.128-2.24L.128,0,0,1.067Z" transform="translate(0 0.149)" fill="#008"/>
              </g>
              <g id="Group_277" data-name="Group 277" transform="matrix(0.966, 0.259, -0.259, 0.966, 0.894, 0)">
                <circle id="Ellipse_196" data-name="Ellipse 196" cx="0.187" cy="0.187" r="0.187" transform="matrix(0.991, 0.131, -0.131, 0.991, 3.669, 0)" fill="#008"/>
                <path id="Path_1170" data-name="Path 1170" d="M.128,3.307l.128-2.24L.128,0,0,1.067Z" transform="translate(0 0.149)" fill="#008"/>
              </g>
            </g>
          </g>
          <g id="Group_282" data-name="Group 282" transform="matrix(0.5, 0.866, -0.866, 0.5, 5.453, 0)">
            <g id="b-6" data-name="b" transform="translate(2.163 0.576)">
              <g id="a-11" data-name="a" transform="translate(0.962 0.043)">
                <circle id="Ellipse_197" data-name="Ellipse 197" cx="0.187" cy="0.187" r="0.187" transform="matrix(0.991, 0.131, -0.131, 0.991, 3.669, 0)" fill="#008"/>
                <path id="Path_1171" data-name="Path 1171" d="M.128,3.307l.128-2.24L.128,0,0,1.067Z" transform="translate(0 0.149)" fill="#008"/>
              </g>
              <g id="Group_279" data-name="Group 279" transform="matrix(0.966, 0.259, -0.259, 0.966, 0.894, 0)">
                <circle id="Ellipse_198" data-name="Ellipse 198" cx="0.187" cy="0.187" r="0.187" transform="matrix(0.991, 0.131, -0.131, 0.991, 3.669, 0)" fill="#008"/>
                <path id="Path_1172" data-name="Path 1172" d="M.128,3.307l.128-2.24L.128,0,0,1.067Z" transform="translate(0 0.149)" fill="#008"/>
              </g>
            </g>
            <g id="Group_281" data-name="Group 281" transform="matrix(0.866, 0.5, -0.5, 0.866, 2.192, 0)">
              <g id="a-12" data-name="a" transform="translate(0.962 0.043)">
                <circle id="Ellipse_199" data-name="Ellipse 199" cx="0.187" cy="0.187" r="0.187" transform="matrix(0.991, 0.131, -0.131, 0.991, 3.669, 0)" fill="#008"/>
                <path id="Path_1173" data-name="Path 1173" d="M.128,3.307l.128-2.24L.128,0,0,1.067Z" transform="translate(0 0.149)" fill="#008"/>
              </g>
              <g id="Group_280" data-name="Group 280" transform="matrix(0.966, 0.259, -0.259, 0.966, 0.894, 0)">
                <circle id="Ellipse_200" data-name="Ellipse 200" cx="0.187" cy="0.187" r="0.187" transform="matrix(0.991, 0.131, -0.131, 0.991, 3.669, 0)" fill="#008"/>
                <path id="Path_1174" data-name="Path 1174" d="M.128,3.307l.128-2.24L.128,0,0,1.067Z" transform="translate(0 0.149)" fill="#008"/>
              </g>
            </g>
          </g>
        </g>
      </g>
    </g>
  </g>
</svg>
