<svg xmlns="http://www.w3.org/2000/svg" xmlns:xlink="http://www.w3.org/1999/xlink" width="32" height="32" viewBox="0 0 32 32">
  <defs>
    <clipPath id="clip-path">
      <circle id="Korea" cx="16" cy="16" r="16" transform="translate(237 1361)" fill="#fff"/>
    </clipPath>
  </defs>
  <g id="Korea-2" data-name="Korea" transform="translate(-237 -1361)" clip-path="url(#clip-path)">
    <g id="Flag_of_South_Korea" transform="translate(245.028 1371.206)">
      <rect id="Rectangle_100" data-name="Rectangle 100" width="48.311" height="32.208" transform="translate(-16 -10.667)" fill="#fff"/>
      <g id="Group_287" data-name="Group 287" transform="translate(-10.268 2.832) rotate(-56.31)">
        <g id="b2" transform="translate(4.81 2.774)">
          <path id="b" d="M0,0H6.714M0,1.678H6.714M0,3.357H6.714" transform="translate(0 0)" stroke="#000" stroke-width="0.889"/>
          <path id="Path_1218" data-name="Path 1218" d="M0,0H6.714M0,1.678H6.714M0,3.357H6.714" transform="translate(0 24.616)" stroke="#000" stroke-width="0.889"/>
        </g>
        <path id="Path_1219" data-name="Path 1219" d="M0,0V6.71" transform="translate(8.052 28.182)" stroke="#fff" stroke-width="0.444"/>
        <circle id="Ellipse_202" data-name="Ellipse 202" cx="8.052" cy="8.052" r="8.052" transform="translate(0 8.723)" fill="#cd2e3a"/>
        <path id="Path_1220" data-name="Path 1220" d="M8.052,0a4.026,4.026,0,1,0,0,8.052,4.026,4.026,0,1,1,0,8.052,8.052,8.052,0,1,1,0-16.1Z" transform="translate(0 8.723)" fill="#0047a0"/>
      </g>
      <g id="Group_289" data-name="Group 289" transform="translate(-1.407 15.834) rotate(-123.69)">
        <g id="Group_288" data-name="Group 288" transform="translate(0 0)">
          <path id="b-2" data-name="b" d="M0,0H6.54M0,1.635H6.54M0,3.27H6.54" transform="translate(0 0)" stroke="#000" stroke-width="0.889"/>
          <path id="Path_1221" data-name="Path 1221" d="M0,0H6.54M0,1.635H6.54M0,3.27H6.54" transform="translate(0 23.981)" stroke="#000" stroke-width="0.889"/>
        </g>
        <path id="Path_1222" data-name="Path 1222" d="M0,0V1.635M0,22.073v1.908m0,1.635v1.635" transform="translate(3.27 0.818)" stroke="#fff" stroke-width="0.444"/>
      </g>
    </g>
  </g>
</svg>
