<svg xmlns="http://www.w3.org/2000/svg" xmlns:xlink="http://www.w3.org/1999/xlink" width="32" height="32" viewBox="0 0 32 32">
  <defs>
    <clipPath id="clip-path">
      <circle id="Kosovo" cx="16" cy="16" r="16" transform="translate(1037 454)" fill="#fff"/>
    </clipPath>
  </defs>
  <g id="Kosovo-2" data-name="Kosovo" transform="translate(-1037 -454)" clip-path="url(#clip-path)">
    <g id="Flag_of_Kosovo" transform="translate(1030.6 454)">
      <path id="Path_447" data-name="Path 447" d="M0,0H44.8V32H0Z" fill="#244aa5"/>
      <path id="Path_448" data-name="Path 448" d="M5,6.634a.659.659,0,0,1,.113-.063c.03-.007.138-.041.138-.041a.337.337,0,0,1,.105-.035.226.226,0,0,1,.138.077.58.58,0,0,0,.144.1s.083.028.1,0a.107.107,0,0,1,.091-.049c.039,0,.045-.035.045-.063a.164.164,0,0,1,.045-.1A.244.244,0,0,1,6.012,6.4s.083-.035.091-.084.091-.084.138-.091,0-.028.122-.015.138-.028.144-.063,0-.071.077-.063.113.007.113-.035.069-.063-.053-.1-.113-.007-.122-.063,0-.049-.083-.056S6.4,5.785,6.4,5.742A.309.309,0,0,0,6.35,5.65c-.016-.028-.061-.028-.061-.069s-.008-.063-.053-.063-.061,0-.061-.041.008-.077.053-.077a.06.06,0,0,0,.061-.077,1,1,0,0,1-.008-.133l.061-.071a2.269,2.269,0,0,0,.2-.175.06.06,0,0,1,.105.007.374.374,0,0,0,.069.1c.022.028.091.007.105-.021a.9.9,0,0,1,.063-.187.356.356,0,0,0,.079-.127c.01-.045.03-.082.079-.082s.079-.063.079-.1A.081.081,0,0,1,7.2,4.45c.059-.009.089-.045.109.009s.041.054.079.073.1.045.128.019.045-.073.089-.045.073,0,.083-.054.02-.127.02-.127.01-.037.079-.037.02-.045.059-.073.041-.054.089-.037.128-.022.089-.067-.128-.118-.079-.174.069-.146.02-.155-.12.009-.128-.045-.03-.091.03-.1.158-.009.188-.037.128-.045.128-.127.03-.091.041-.136a.243.243,0,0,0-.03-.185.832.832,0,0,1-.109-.136.174.174,0,0,0-.109-.091C7.917,2.9,7.866,2.9,7.866,2.85s.041.009.041-.11S7.828,2.6,7.828,2.6l-.12-.073a2.094,2.094,0,0,0-.268-.056c-.057,0-.122-.06-.057-.1a.12.12,0,0,0,.057-.157.161.161,0,0,0-.13-.112c-.089-.022-.113-.045-.073-.1s.049-.09.1-.052a.2.2,0,0,0,.195.022c.065-.03.089-.052.122-.022s.073.06.122.015a.179.179,0,0,1,.178-.03.265.265,0,0,0,.17,0c.032-.015.1-.067.1-.1a.165.165,0,0,1,.081-.1c.041-.022.089-.1.13-.1s.057-.045.057-.075a.467.467,0,0,1,.041-.112.109.109,0,0,1,.146-.007.35.35,0,0,0,.13.06.313.313,0,0,0,.122,0,.163.163,0,0,1,.154.007.289.289,0,0,0,.138.037.49.49,0,0,0,.016-.09c0-.03.016-.082-.016-.1s-.073-.052-.008-.1a.149.149,0,0,1,.13-.037c.065,0,.105.007.154.007s.13.045.13.09a.116.116,0,0,0,.073.1c.041.022.089.045.073.082s-.016.067.032.06.065.022.065.06.016.06.065.075.073.045.073.082a.2.2,0,0,0,.008.1.586.586,0,0,0,.065.1s.089.1-.024.052-.138-.075-.178-.067a.14.14,0,0,0-.065.03.477.477,0,0,1-.1.015c-.041,0-.081.082-.016.1s.089.03.089.082-.024.037-.057.075-.057.015-.113.015-.073.045-.073.09.024.037.049.075a.063.063,0,0,0,.105.007c.041-.037.073-.06.1.007s.057.067.105.067A.168.168,0,0,0,10,2.5c.041-.022.089,0,.1.06s.049.067.089.09.065.037.073.075.032.052.073.03.105-.037.13-.007.065.09.065.09l.008.075.154.052a.206.206,0,0,1,.016.067c0,.03.024.045.065.037a.535.535,0,0,1,.113,0s.057-.022.057-.067.024-.06.065-.06.13.03.154-.015a.128.128,0,0,1,.154-.037l.2.082s-.016.007.032.082a.176.176,0,0,0,.138.075.372.372,0,0,0,.024.1.1.1,0,0,0,.13.015.287.287,0,0,1,.146-.067c.049,0,.081,0,.081-.03s-.049-.052-.049-.1.049-.045.057-.09.057,0,.089.022.073.06.073.09a.274.274,0,0,0,.105.149c.041.015.146.022.178-.015s.113-.052.105.037-.024.1.032.127a.106.106,0,0,1,.016.164c-.049.03-.065.037-.065.09s-.016.112.024.142.065.052.065.082a1.137,1.137,0,0,0,.049.164.813.813,0,0,1,.016.164c-.008.03-.024.082.049.075s.089-.007.089.052.024.082-.016.1-.065.1-.024.112a.12.12,0,0,1,.081.067c.008.03.073.082.113.052s.049-.045.081-.052.057-.03.024-.067-.041-.075-.008-.1.049-.1.049-.1a.062.062,0,0,1,.105,0c.057.067.065.045.105.045s.057.037.057.075.081.03.081.09.016.2.016.2,0,.082.049.112.041.037.016.075a.239.239,0,0,0-.016.127c0,.03.016.045-.024.075a.081.081,0,0,0-.032.112c.024.045.016.075.081.127s.057.075.057.112.065.09.065.127.049.082.089.09a.145.145,0,0,1,.089.112c0,.037.008.134.008.134s-.008.022.041.022.081.052.1-.007.065-.067.1-.082.1-.045.13-.022a.181.181,0,0,0,.105.022c.032,0,.186.007.186.007s.041-.007.065.052.1.127.057.157-.041.09.008.09.1,0,.1.037.008.067.049.045.065-.03.081,0,.049.03.089.052.057.007.081-.022a.369.369,0,0,1,.122-.06.545.545,0,0,1,.178-.015,1.13,1.13,0,0,1,.113.045.209.209,0,0,1,.016.119c-.016.045-.032.037-.016.1s-.016.075-.049.067-.065-.007-.065.052-.032.075-.032.127,0,.045-.032.067-.041.06.008.067.032.06.032.09-.008.1-.008.1.008.037-.049.037-.105-.007-.113.03-.073.1-.016.134.041.06.008.075a.061.061,0,0,0,.008.112c.065.022.057.045.016.075s-.122.052-.122.1-.016.045-.065.052-.073.067-.016.142.073.06.113.06.041-.06.041-.06.138.007.178.007a.251.251,0,0,0,.13-.022c.032-.022.122-.06.122.007s.016.06.057.09.049.007.081.052.041.007.065-.045.073-.1.113-.045.041.045.089.045.065.022.065.06.049.037.105.03.065.03.089.067.032.03.065.03a.1.1,0,0,0,.089-.03c.024-.03.057-.067.089-.022a.063.063,0,0,0,.113-.015c.016-.052.089-.1.13-.037a.135.135,0,0,0,.113.067c.041.007.1.007.122.045s.105.1.049.142-.122.1-.073.119a.216.216,0,0,1,.113.067.389.389,0,0,0,.186.06.157.157,0,0,0,.146-.03c.057-.045.113-.045.105.015a.263.263,0,0,0,.024.127.589.589,0,0,1,.041.134c0,.037-.008.045.065.09s.065.075.122.03.073-.067.073-.1V8.613a.405.405,0,0,0,.113-.037c.032-.022.162-.09.195-.06a.092.092,0,0,0,.105.007.386.386,0,0,1,.13-.015.207.207,0,0,0,.154-.045c.065-.052.065-.037.105,0a.079.079,0,0,1,.016.112.065.065,0,0,0,.057.1c.057,0,.073.03.073.067a.537.537,0,0,0,.016.119c.008.03.008.045.1.067s.073.075.089.112.016.067-.032.067a.064.064,0,0,0-.073.06c-.008.037-.081.052-.081.052L18.766,9.2a.105.105,0,0,0-.073.03c-.024.03-.073.09-.041.142s.032.082,0,.1-.049.134-.081.112-.073.007-.105.022-.024.119.041.157a.176.176,0,0,1,.081.09l.073.112a.192.192,0,0,0-.041.06c-.016.037-.065.112-.016.127s.024.1-.024.1-.105-.022-.113.037-.032.045-.081.037-.17-.037-.2.022-.041.082-.1.075-.032.09-.016.127a.381.381,0,0,0,.073.09.145.145,0,0,1,.049.112c0,.075-.032.067-.065.015s-.1-.045-.105.015-.016.149-.073.149a.115.115,0,0,0-.105.045.268.268,0,0,0-.065.112.058.058,0,0,1-.049.067c-.041.007-.049.09-.049.09s-.1.015-.105.052.008.1-.073.1a.206.206,0,0,0-.154.1.075.075,0,0,0,0,.1c.032.037.057.157.1.179s.073.03.065.09-.057.1.008.1.105.015.081.067-.024.06-.073.082-.073.022-.073.082.016.06-.024.082-.041.052-.041.1-.016.03-.065.082a.143.143,0,0,1-.154.037c-.041-.015-.049-.015-.057-.06s-.081-.045-.122-.037a.3.3,0,0,0-.1.052s-.073.045-.041.082.016.1-.041.09-.186.06-.227-.007-.154-.112-.17-.022.049.082.041.172-.024.09-.057.119a.132.132,0,0,0-.041.09c-.008.037-.016.119.041.149a.192.192,0,0,1,.081.157c0,.045,0,.09.057.09s.105-.007.113-.06a.066.066,0,0,1,.13.022c.008.1.008.157.049.2a1.114,1.114,0,0,0,.105.127.814.814,0,0,1,.087.213c-.079.017-.1.119-.15.14-.028.011-.059,0-.085.021s-.02.043-.049.056c-.059.026-.049-.065-.12-.032s-.071.1-.164.073c-.049-.017-.079-.207-.093-.252a.933.933,0,0,0-.075-.129c-.055-.082-.164,0-.2-.024-.055-.037-.03-.1-.113-.108-.168-.011-.049.1-.12.129-.136.049-.136-.127-.237-.047-.039.03.061.049.036.1s-.12.108-.113.159c.008.069.083.09.105.147.061.153-.041.259-.193.14-.085-.067-.1-.192-.233-.183-.03,0-.041.034-.071.037s-.055-.028-.087-.019c-.049.017-.006.05-.016.078a.828.828,0,0,0-.075.069c-.036.049-.024.091-.077.131s-.079.013-.128.065-.055.134-.12.187c-.032.026-.055-.078-.1-.009a.2.2,0,0,0-.016.028.049.049,0,0,0,0,.052c.085.164-.093.226-.148.342-.024.049.043.093.016.131s-.1.1-.1.121a.2.2,0,0,1-.028.067c-.014.015-.063.007-.067.03s.051.047.065.063-.008.049,0,.054c.091.091.036.063.083.144.006.011.034-.009.045.021s-.022.026-.01.058c0,.009.067.093.067.1,0,.028-.124.086-.152.086-.077,0,.067-.159-.059-.159-.055,0-.059.125-.073.138a.282.282,0,0,1-.069,0c-.081,0-.134.1-.166.11s-.065-.011-.1-.006-.071.037-.1.037-.03-.013-.047-.022a.906.906,0,0,0-.144-.043c-.022-.007-.065.028-.079.019s.018-.063-.043-.1a.546.546,0,0,1-.051-.118.554.554,0,0,0,.032-.222c-.012-.077-.132-.142-.164-.2s-.047-.17-.093-.2a.431.431,0,0,1-.124-.149c-.008-.015.016-.041,0-.067s-.059-.039-.069-.077,0-.127-.034-.147a2.033,2.033,0,0,0-.347-.058.106.106,0,0,1-.081-.026c-.01-.009-.026-.049-.034-.049a.553.553,0,0,0-.077.013c-.018,0-.049-.011-.065,0-.079.054-.1.123-.174.181s-.162.056-.239.123c-.049.043-.081.146-.13.194-.02.021-.053,0-.061.009-.041.05-.1.08-.138.127-.008.009-.006.028-.016.035l-.087.022c-.022,0-.065,0-.083,0-.041.013-.039.056-.176.084a.128.128,0,0,0-.036.017c-.016.011-.028.028-.045.039s-.041-.006-.059,0c-.034.006-.055.035-.087.039-.073.009-.191-.034-.247-.011-.034.013-.13.119-.164.131s-.039,0-.063-.011c-.012.015-.041.131-.051.157,0,0-.156.133-.168.147s-.028.047-.053.071a.1.1,0,0,1-.069.032.749.749,0,0,1-.111-.03,1.357,1.357,0,0,0-.288-.006c-.055.011-.039.168-.174.183-.079.009-.152.024-.233.032a.178.178,0,0,0-.105-.021c-.018.006-.077.065-.077.084v.034c0,.006.016.026.014.028a1.107,1.107,0,0,0-.122.133.1.1,0,0,1-.024.032c-.018.013-.111.049-.12.065-.022.056.065.108.057.131-.024.073-.122.142-.152.209-.012.028.032.121.03.153a2,2,0,0,0-.036.286.617.617,0,0,0,.018.114c.01.017.032.026.047.041a2.056,2.056,0,0,1,.126.246c.02.155-.2.1-.075.256A.718.718,0,0,0,9,18.009c.028.028.195.149.2.162s-.134.045-.158.069c-.065.063-.12.181-.182.246-.039.041-.073,0-.124.091-.018.035,0,.116-.022.138s-.059-.011-.091,0c-.014.006-.022.047-.036.058a1.6,1.6,0,0,1-.391.189c-.016-.007-.034-.062-.036-.078a.176.176,0,0,0-.041-.073.21.21,0,0,0-.292,0c-.02.022-.022.056-.049.078-.045.037-.1.071-.138.108-.008.007-.032.035-.043.034-.032,0-.111-.093-.132-.118-.036-.043-.142-.146-.152-.194a1.821,1.821,0,0,0-.184-.5l.081,0c.091-.062.065-.213.229-.153.02-.028.018-.058.057-.078.014-.007.041-.015.049-.028a.749.749,0,0,0,.063-.487c-.051-.075-.1-.071-.144-.194-.012-.034.01-.073,0-.11s-.063-.207-.071-.22-.045-.034-.047-.043a2.034,2.034,0,0,1-.008-.222c-.055-.149-.239-.245-.249-.261-.022-.035-.045-.082-.069-.121a.482.482,0,0,1-.045-.116c-.006-.021-.036-.037-.039-.06,0-.039.107-.121.1-.19,0-.022-.071-.09-.057-.127s.085-.127.083-.17-.111-.183-.126-.245c-.006-.03.043-.054.03-.075s-.128-.129-.146-.159.043-.052,0-.093-.006-.024-.016-.056-.053-.067-.069-.1-.111-.383-.109-.4c-.016-.024-.045-.045-.059-.069s-.02-.071-.032-.09c0,0-.109-.034-.13-.065s-.02-.112-.049-.155c-.014-.021-.036-.017-.053-.032s-.012-.032-.022-.045c-.032-.045-.1,0-.142-.168a1.165,1.165,0,0,1-.164-.127c-.01-.009-.016-.021-.028-.026a.493.493,0,0,1-.136-.052.811.811,0,0,1-.14-.011c-.012-.007-.024-.054-.032-.056-.057-.011-.15-.006-.2-.047s-.047-.2-.116-.174a.048.048,0,0,0-.028-.006c-.045-.058-.2-.065-.261-.1-.018-.011-.077,0-.077-.019a.228.228,0,0,0,.012-.09c-.034-.034-.057-.073-.081-.1-.059-.013-.036-.019-.073-.041-.1-.007-.111.009-.176.069-.016.015-.049.019-.069.03s-.045.08-.093.052a.222.222,0,0,1-.039-.035c-.028-.024-.045-.011-.059-.056-.083-.045-.312.11-.367,0-.039-.021-.067.006-.1-.028-.016-.017.045-.2-.122-.28.039-.03.079-.05.116-.078.01-.021,0-.052,0-.073a.922.922,0,0,0,.014-.116c-.006-.022-.03-.041-.039-.067s0-.06-.012-.088a.153.153,0,0,0-.053-.026.779.779,0,0,1-.124-.1c-.008-.009-.014-.026-.024-.034-.03-.022-.13-.052-.126-.1,0-.015.022-.017.028-.032s0-.043.016-.06c.047-.063.15-.035.134-.153-.008-.052-.045-.1-.055-.153-.018-.013-.02-.035-.036-.049-.1-.009-.087-.114-.124-.138-.107-.073-.191-.028-.071-.172.016-.047-.1-.121-.128-.147-.043-.041-.022-.127-.039-.172-.008-.022-.079-.062-.1-.093-.006-.009-.024-.058-.034-.063l0-.015c.022-.017.01-.05,0-.073s-.045-.009-.055-.019a1.061,1.061,0,0,0-.343-.177c-.034-.013-.024-.041-.053-.054a1.808,1.808,0,0,0-.209-.084c-.02-.006-.034-.082-.049-.106a.5.5,0,0,0-.061-.065c0-.071-.041-.08-.1-.118,0-.009-.006-.032-.006-.043s.036-.133.043-.149.045-.05.039-.08a.989.989,0,0,0-.03-.161c-.055-.146-.12-.127-.085-.317.008-.039-.006-.062.024-.1,0,0,.014-.021.016-.024.018-.017.069-.045.079-.058.03-.041.049-.134.087-.164s.109-.065.124-.084.03-.062.02-.08A.194.194,0,0,0,2.5,8.9a.541.541,0,0,0-.075-.034c-.008-.009-.022-.021-.022-.034L2.39,8.818a.535.535,0,0,1-.1-.034.908.908,0,0,1-.122-.037c-.065-.037-.138-.14-.2-.155A.726.726,0,0,0,1.75,8.6c-.053,0-.053-.028-.1-.041s-.014.03-.144-.011c-.016-.013.008-.058.01-.075-.02-.006-.045.006-.069,0-.107-.026-.067-.123-.1-.187-.012-.015-.057-.011-.077-.013a.012.012,0,0,1-.006-.015l.01-.007c.018-.028-.047-.1-.045-.108s.136-.043.154-.045-.012-.032-.014-.049a.31.31,0,0,1,.032-.119l0-.011c-.036-.021-.049-.05-.081-.075,0-.017.024-.028.028-.045.063-.174.16-.035.245-.2a.531.531,0,0,0,.041-.08l.016,0c.016,0,.039.017.055.011a.106.106,0,0,1,.059-.028l.03.007c.158-.034.122-.091.213-.157a.774.774,0,0,1,.128-.035,1.205,1.205,0,0,0,.148.093c.047.019.207.052.233.067s.041.063.071.08c.091.049.039-.034.126-.017a1.438,1.438,0,0,1,.245.127.156.156,0,0,0,.065-.006,1.207,1.207,0,0,1,.182-.026c.016.006.041.021.057.024s.036-.039.051-.037c.061.009.063.034.144.026,0,0,.043-.228.081-.239.022-.006.083.054.1.058s0-.047,0-.05a1.291,1.291,0,0,1-.049-.172c0-.007.041.011.059.006a.325.325,0,0,0,.138-.062s.073-.1.075-.106-.018-.056-.008-.069.049-.026.067-.045.03-.071.067-.09c.144-.013.195-.125.324-.14a.362.362,0,0,1,.043,0l.026.043a.326.326,0,0,0,.109.06c.012,0,.018-.022.03-.026a.169.169,0,0,0,.107-.063s-.016-.026-.008-.041a.836.836,0,0,1,.111-.086.282.282,0,0,1,.1,0c.018.007.02.035.041.039s.063-.007.079,0S4.976,6.632,5,6.63Z" transform="translate(12.709 8.544)" fill="#d0a650"/>
      <g id="b" transform="translate(22.805 4.577)">
        <path id="Path_449" data-name="Path 449" d="M.522-1.371,1.65,2.1-1.3-.045H2.348L-.607,2.1Z" transform="translate(1.304 1.371)" fill="#fff"/>
        <path id="Path_450" data-name="Path 450" d="M.522-1.371,1.65,2.1-1.3-.045H2.348L-.607,2.1Z" transform="translate(5.699 2.146)" fill="#fff"/>
        <path id="Path_451" data-name="Path 451" d="M.522-1.371,1.65,2.1-1.3-.045H2.348L-.607,2.1Z" transform="translate(9.892 3.673)" fill="#fff"/>
      </g>
      <g id="Group_165" data-name="Group 165" transform="translate(21.995 10.352) rotate(180)">
        <path id="Path_452" data-name="Path 452" d="M1.826,3.473,2.955,0,0,2.147H3.652L.7,0Z" transform="translate(0 2.301)" fill="#fff"/>
        <path id="Path_453" data-name="Path 453" d="M1.826,3.473,2.955,0,0,2.147H3.652L.7,0Z" transform="translate(4.395 1.526)" fill="#fff"/>
        <path id="Path_454" data-name="Path 454" d="M1.826,3.473,2.955,0,0,2.147H3.652L.7,0Z" transform="translate(8.588 0)" fill="#fff"/>
      </g>
    </g>
  </g>
</svg>
