<svg xmlns="http://www.w3.org/2000/svg" xmlns:xlink="http://www.w3.org/1999/xlink" width="32" height="32" viewBox="0 0 32 32">
  <defs>
    <clipPath id="clip-path">
      <circle id="Malaysia" cx="16" cy="16" r="16" transform="translate(1037 1231)" fill="#fff"/>
    </clipPath>
  </defs>
  <g id="Malaysia-2" data-name="Malaysia" transform="translate(-1037 -1231)" clip-path="url(#clip-path)">
    <g id="Flag_of_Malaysia" transform="translate(1037 1231)">
      <g id="Group_260" data-name="Group 260">
        <path id="Path_1146" data-name="Path 1146" d="M0,0H64V32H0Z" fill="#fff"/>
        <path id="Path_1147" data-name="Path 1147" d="M1.143.571H62.857m0,4.571H1.143m0,4.571H62.857m0,4.571H1.143" transform="translate(1.143 0.571)" fill="none" stroke="#c00" stroke-width="1.143"/>
        <path id="Path_1148" data-name="Path 1148" d="M0,0H32V19.429H0Z" fill="#006"/>
        <path id="Path_1149" data-name="Path 1149" d="M0,9.714H64m0,4.571H0m0,4.571H64" transform="translate(0 9.714)" fill="none" stroke="#c00" stroke-width="1.143"/>
      </g>
      <path id="Path_1150" data-name="Path 1150" d="M16.856,2.286l.51,3.486,1.971-2.919L18.28,6.214l3.043-1.776L18.913,7.01l3.514-.281L19.142,8l3.286,1.271-3.514-.281,2.41,2.571L18.28,9.786l1.057,3.362-1.971-2.919-.51,3.486-.51-3.486-1.971,2.919,1.057-3.362-3.043,1.776L14.8,8.991l-3.514.281L14.57,8,11.284,6.729,14.8,7.01l-2.41-2.571,3.043,1.776L14.375,2.852l1.971,2.919ZM14,2.429a6.1,6.1,0,1,0,0,11.143A6.857,6.857,0,1,1,14,2.429Z" transform="translate(3.144 1.143)" fill="#fc0"/>
    </g>
  </g>
</svg>
