<svg xmlns="http://www.w3.org/2000/svg" xmlns:xlink="http://www.w3.org/1999/xlink" width="32" height="32" viewBox="0 0 32 32">
  <defs>
    <clipPath id="clip-path">
      <circle id="North-East" cx="16" cy="16" r="16" transform="translate(477 2007)" fill="#fff"/>
    </clipPath>
  </defs>
  <g id="Midwest" transform="translate(-477 -2007)" clip-path="url(#clip-path)">
    <g id="Flag_of_the_United_States" transform="translate(468.6 2007)">
      <rect id="Rectangle_105" data-name="Rectangle 105" width="60.8" height="32" fill="#b22234"/>
      <path id="Path_1339" data-name="Path 1339" d="M0,1.943H60.8m0,4.923H0m0,4.923H60.8m0,4.923H0m0,4.923H60.8m0,4.923H0" transform="translate(0 1.749)" stroke="#fff" stroke-width="1.296"/>
      <rect id="Rectangle_106" data-name="Rectangle 106" width="24.32" height="17.231" fill="#3c3b6e"/>
      <g id="Group_320" data-name="Group 320" transform="translate(1.09 0.738)">
        <g id="s18">
          <g id="s9">
            <g id="s5">
              <g id="s4">
                <path id="s" d="M1.51.389,2.089,2.17.574,1.069H2.447L.931,2.17Z" transform="translate(-0.574 -0.389)" fill="#fff"/>
                <path id="Path_1340" data-name="Path 1340" d="M1.51.389,2.089,2.17.574,1.069H2.447L.931,2.17Z" transform="translate(-0.574 3.057)" fill="#fff"/>
                <path id="Path_1341" data-name="Path 1341" d="M1.51.389,2.089,2.17.574,1.069H2.447L.931,2.17Z" transform="translate(-0.574 6.504)" fill="#fff"/>
                <path id="Path_1342" data-name="Path 1342" d="M1.51.389,2.089,2.17.574,1.069H2.447L.931,2.17Z" transform="translate(-0.574 9.95)" fill="#fff"/>
              </g>
              <path id="Path_1343" data-name="Path 1343" d="M1.51.389,2.089,2.17.574,1.069H2.447L.931,2.17Z" transform="translate(-0.574 13.396)" fill="#fff"/>
            </g>
            <g id="Group_310" data-name="Group 310" transform="translate(2.027 1.723)">
              <path id="s-2" data-name="s" d="M1.51.389,2.089,2.17.574,1.069H2.447L.931,2.17Z" transform="translate(-0.574 -0.389)" fill="#fff"/>
              <path id="Path_1344" data-name="Path 1344" d="M1.51.389,2.089,2.17.574,1.069H2.447L.931,2.17Z" transform="translate(-0.574 3.057)" fill="#fff"/>
              <path id="Path_1345" data-name="Path 1345" d="M1.51.389,2.089,2.17.574,1.069H2.447L.931,2.17Z" transform="translate(-0.574 6.504)" fill="#fff"/>
              <path id="Path_1346" data-name="Path 1346" d="M1.51.389,2.089,2.17.574,1.069H2.447L.931,2.17Z" transform="translate(-0.574 9.95)" fill="#fff"/>
            </g>
          </g>
          <g id="Group_312" data-name="Group 312" transform="translate(4.053)">
            <g id="s5-2" data-name="s5" transform="translate(0)">
              <g id="s4-2" data-name="s4">
                <path id="s-3" data-name="s" d="M1.51.389,2.089,2.17.574,1.069H2.447L.931,2.17Z" transform="translate(-0.574 -0.389)" fill="#fff"/>
                <path id="Path_1347" data-name="Path 1347" d="M1.51.389,2.089,2.17.574,1.069H2.447L.931,2.17Z" transform="translate(-0.574 3.057)" fill="#fff"/>
                <path id="Path_1348" data-name="Path 1348" d="M1.51.389,2.089,2.17.574,1.069H2.447L.931,2.17Z" transform="translate(-0.574 6.504)" fill="#fff"/>
                <path id="Path_1349" data-name="Path 1349" d="M1.51.389,2.089,2.17.574,1.069H2.447L.931,2.17Z" transform="translate(-0.574 9.95)" fill="#fff"/>
              </g>
              <path id="Path_1350" data-name="Path 1350" d="M1.51.389,2.089,2.17.574,1.069H2.447L.931,2.17Z" transform="translate(-0.574 13.396)" fill="#fff"/>
            </g>
            <g id="Group_311" data-name="Group 311" transform="translate(2.027 1.723)">
              <path id="s-4" data-name="s" d="M1.51.389,2.089,2.17.574,1.069H2.447L.931,2.17Z" transform="translate(-0.574 -0.389)" fill="#fff"/>
              <path id="Path_1351" data-name="Path 1351" d="M1.51.389,2.089,2.17.574,1.069H2.447L.931,2.17Z" transform="translate(-0.574 3.057)" fill="#fff"/>
              <path id="Path_1352" data-name="Path 1352" d="M1.51.389,2.089,2.17.574,1.069H2.447L.931,2.17Z" transform="translate(-0.574 6.504)" fill="#fff"/>
              <path id="Path_1353" data-name="Path 1353" d="M1.51.389,2.089,2.17.574,1.069H2.447L.931,2.17Z" transform="translate(-0.574 9.95)" fill="#fff"/>
            </g>
          </g>
        </g>
        <g id="Group_316" data-name="Group 316" transform="translate(8.107)">
          <g id="s9-2" data-name="s9" transform="translate(0)">
            <g id="s5-3" data-name="s5">
              <g id="s4-3" data-name="s4">
                <path id="s-5" data-name="s" d="M1.51.389,2.089,2.17.574,1.069H2.447L.931,2.17Z" transform="translate(-0.574 -0.389)" fill="#fff"/>
                <path id="Path_1354" data-name="Path 1354" d="M1.51.389,2.089,2.17.574,1.069H2.447L.931,2.17Z" transform="translate(-0.574 3.057)" fill="#fff"/>
                <path id="Path_1355" data-name="Path 1355" d="M1.51.389,2.089,2.17.574,1.069H2.447L.931,2.17Z" transform="translate(-0.574 6.504)" fill="#fff"/>
                <path id="Path_1356" data-name="Path 1356" d="M1.51.389,2.089,2.17.574,1.069H2.447L.931,2.17Z" transform="translate(-0.574 9.95)" fill="#fff"/>
              </g>
              <path id="Path_1357" data-name="Path 1357" d="M1.51.389,2.089,2.17.574,1.069H2.447L.931,2.17Z" transform="translate(-0.574 13.396)" fill="#fff"/>
            </g>
            <g id="Group_313" data-name="Group 313" transform="translate(2.027 1.723)">
              <path id="s-6" data-name="s" d="M1.51.389,2.089,2.17.574,1.069H2.447L.931,2.17Z" transform="translate(-0.574 -0.389)" fill="#fff"/>
              <path id="Path_1358" data-name="Path 1358" d="M1.51.389,2.089,2.17.574,1.069H2.447L.931,2.17Z" transform="translate(-0.574 3.057)" fill="#fff"/>
              <path id="Path_1359" data-name="Path 1359" d="M1.51.389,2.089,2.17.574,1.069H2.447L.931,2.17Z" transform="translate(-0.574 6.504)" fill="#fff"/>
              <path id="Path_1360" data-name="Path 1360" d="M1.51.389,2.089,2.17.574,1.069H2.447L.931,2.17Z" transform="translate(-0.574 9.95)" fill="#fff"/>
            </g>
          </g>
          <g id="Group_315" data-name="Group 315" transform="translate(4.053)">
            <g id="s5-4" data-name="s5" transform="translate(0)">
              <g id="s4-4" data-name="s4">
                <path id="s-7" data-name="s" d="M1.51.389,2.089,2.17.574,1.069H2.447L.931,2.17Z" transform="translate(-0.574 -0.389)" fill="#fff"/>
                <path id="Path_1361" data-name="Path 1361" d="M1.51.389,2.089,2.17.574,1.069H2.447L.931,2.17Z" transform="translate(-0.574 3.057)" fill="#fff"/>
                <path id="Path_1362" data-name="Path 1362" d="M1.51.389,2.089,2.17.574,1.069H2.447L.931,2.17Z" transform="translate(-0.574 6.504)" fill="#fff"/>
                <path id="Path_1363" data-name="Path 1363" d="M1.51.389,2.089,2.17.574,1.069H2.447L.931,2.17Z" transform="translate(-0.574 9.95)" fill="#fff"/>
              </g>
              <path id="Path_1364" data-name="Path 1364" d="M1.51.389,2.089,2.17.574,1.069H2.447L.931,2.17Z" transform="translate(-0.574 13.396)" fill="#fff"/>
            </g>
            <g id="Group_314" data-name="Group 314" transform="translate(2.027 1.723)">
              <path id="s-8" data-name="s" d="M1.51.389,2.089,2.17.574,1.069H2.447L.931,2.17Z" transform="translate(-0.574 -0.389)" fill="#fff"/>
              <path id="Path_1365" data-name="Path 1365" d="M1.51.389,2.089,2.17.574,1.069H2.447L.931,2.17Z" transform="translate(-0.574 3.057)" fill="#fff"/>
              <path id="Path_1366" data-name="Path 1366" d="M1.51.389,2.089,2.17.574,1.069H2.447L.931,2.17Z" transform="translate(-0.574 6.504)" fill="#fff"/>
              <path id="Path_1367" data-name="Path 1367" d="M1.51.389,2.089,2.17.574,1.069H2.447L.931,2.17Z" transform="translate(-0.574 9.95)" fill="#fff"/>
            </g>
          </g>
        </g>
        <g id="Group_318" data-name="Group 318" transform="translate(16.213)">
          <g id="s5-5" data-name="s5" transform="translate(0)">
            <g id="s4-5" data-name="s4">
              <path id="s-9" data-name="s" d="M1.51.389,2.089,2.17.574,1.069H2.447L.931,2.17Z" transform="translate(-0.574 -0.389)" fill="#fff"/>
              <path id="Path_1368" data-name="Path 1368" d="M1.51.389,2.089,2.17.574,1.069H2.447L.931,2.17Z" transform="translate(-0.574 3.057)" fill="#fff"/>
              <path id="Path_1369" data-name="Path 1369" d="M1.51.389,2.089,2.17.574,1.069H2.447L.931,2.17Z" transform="translate(-0.574 6.504)" fill="#fff"/>
              <path id="Path_1370" data-name="Path 1370" d="M1.51.389,2.089,2.17.574,1.069H2.447L.931,2.17Z" transform="translate(-0.574 9.95)" fill="#fff"/>
            </g>
            <path id="Path_1371" data-name="Path 1371" d="M1.51.389,2.089,2.17.574,1.069H2.447L.931,2.17Z" transform="translate(-0.574 13.396)" fill="#fff"/>
          </g>
          <g id="Group_317" data-name="Group 317" transform="translate(2.027 1.723)">
            <path id="s-10" data-name="s" d="M1.51.389,2.089,2.17.574,1.069H2.447L.931,2.17Z" transform="translate(-0.574 -0.389)" fill="#fff"/>
            <path id="Path_1372" data-name="Path 1372" d="M1.51.389,2.089,2.17.574,1.069H2.447L.931,2.17Z" transform="translate(-0.574 3.057)" fill="#fff"/>
            <path id="Path_1373" data-name="Path 1373" d="M1.51.389,2.089,2.17.574,1.069H2.447L.931,2.17Z" transform="translate(-0.574 6.504)" fill="#fff"/>
            <path id="Path_1374" data-name="Path 1374" d="M1.51.389,2.089,2.17.574,1.069H2.447L.931,2.17Z" transform="translate(-0.574 9.95)" fill="#fff"/>
          </g>
        </g>
        <g id="Group_319" data-name="Group 319" transform="translate(20.267)">
          <g id="s4-6" data-name="s4" transform="translate(0)">
            <path id="s-11" data-name="s" d="M1.51.389,2.089,2.17.574,1.069H2.447L.931,2.17Z" transform="translate(-0.574 -0.389)" fill="#fff"/>
            <path id="Path_1375" data-name="Path 1375" d="M1.51.389,2.089,2.17.574,1.069H2.447L.931,2.17Z" transform="translate(-0.574 3.057)" fill="#fff"/>
            <path id="Path_1376" data-name="Path 1376" d="M1.51.389,2.089,2.17.574,1.069H2.447L.931,2.17Z" transform="translate(-0.574 6.504)" fill="#fff"/>
            <path id="Path_1377" data-name="Path 1377" d="M1.51.389,2.089,2.17.574,1.069H2.447L.931,2.17Z" transform="translate(-0.574 9.95)" fill="#fff"/>
          </g>
          <path id="Path_1378" data-name="Path 1378" d="M1.51.389,2.089,2.17.574,1.069H2.447L.931,2.17Z" transform="translate(-0.574 13.396)" fill="#fff"/>
        </g>
      </g>
    </g>
  </g>
</svg>
