<svg xmlns="http://www.w3.org/2000/svg" xmlns:xlink="http://www.w3.org/1999/xlink" width="32" height="32" viewBox="0 0 32 32">
  <defs>
    <clipPath id="clip-path">
      <circle id="Myanmar" cx="16" cy="16" r="16" transform="translate(1357 1231)" fill="#fff"/>
    </clipPath>
  </defs>
  <g id="Myanmar-2" data-name="Myanmar" transform="translate(-1357 -1231)" clip-path="url(#clip-path)">
    <g id="Flag_of_Myanmar" transform="translate(1349 1231)">
      <rect id="Rectangle_97" data-name="Rectangle 97" width="48" height="32" fill="#fecb00"/>
      <rect id="Rectangle_98" data-name="Rectangle 98" width="48" height="21.333" transform="translate(0 10.667)" fill="#34b233"/>
      <rect id="Rectangle_99" data-name="Rectangle 99" width="48" height="10.667" transform="translate(0 21.333)" fill="#ea2839"/>
      <g id="Group_286" data-name="Group 286" transform="translate(11.601 5.333)">
        <path id="pt" d="M-2.554,3.931,1.277-7.861,5.109,3.931Z" transform="translate(11.122 7.861)" fill="#fff"/>
        <path id="Path_1214" data-name="Path 1214" d="M0,11.792,3.831,0,7.663,11.792Z" transform="matrix(-0.809, -0.588, 0.588, -0.809, 8.567, 23.584)" fill="#fff"/>
        <path id="Path_1215" data-name="Path 1215" d="M0,11.792,3.831,0,7.663,11.792Z" transform="translate(0 11.792) rotate(-72)" fill="#fff"/>
        <path id="Path_1216" data-name="Path 1216" d="M0,11.792,3.831,0,7.663,11.792Z" transform="translate(22.43 4.504) rotate(72)" fill="#fff"/>
        <path id="Path_1217" data-name="Path 1217" d="M0,11.792,3.831,0,7.663,11.792Z" transform="matrix(-0.809, 0.588, -0.588, -0.809, 22.43, 19.08)" fill="#fff"/>
      </g>
    </g>
  </g>
</svg>
