<svg xmlns="http://www.w3.org/2000/svg" xmlns:xlink="http://www.w3.org/1999/xlink" width="32" height="32" viewBox="0 0 32 32">
  <defs>
    <clipPath id="clip-path">
      <circle id="New_Caledonia" data-name="New Caledonia" cx="16" cy="16" r="16" transform="translate(397 1231)" fill="#fff"/>
    </clipPath>
    <clipPath id="clip-path-2">
      <path id="path30" d="M0-9.041H113.266v32H0Z" transform="translate(0 9.041)"/>
    </clipPath>
  </defs>
  <g id="New_Caledonia-2" data-name="New Caledonia" transform="translate(-397 -1231)" clip-path="url(#clip-path)">
    <g id="g10" transform="translate(342.367 1240.041)">
      <path id="path18" d="M13.928,22.943H77.9V-9.041H13.928Z" transform="translate(35.37)" fill="#009543"/>
      <path id="path20" d="M13.928,12.282H77.9V-9.041H13.928Z" transform="translate(35.37)" fill="#ed4135"/>
      <path id="path22" d="M13.928,1.621H77.9V-9.041H13.928Z" transform="translate(35.37)" fill="#0035ad"/>
      <g id="g24" transform="translate(0 -9.041)">
        <g id="g26" clip-path="url(#clip-path-2)">
          <g id="g32" transform="translate(60.138 5.51)">
            <path id="path34" d="M7.521,0A10.482,10.482,0,1,1-2.961,10.482,10.482,10.482,0,0,1,7.521,0" transform="translate(2.961)" fill="#fae600"/>
          </g>
          <g id="g36" transform="translate(60.138 5.51)">
            <path id="path38" d="M7.521,0A10.482,10.482,0,1,1-2.961,10.482,10.482,10.482,0,0,1,7.521,0Z" transform="translate(2.961)" fill="none" stroke="#000" stroke-width="0.183"/>
          </g>
          <g id="g40" transform="translate(68.844 5.544)">
            <path id="path42" d="M1.275,0V17.911M-.5,9.382H3.052M-.5,12.012H3.052" transform="translate(0.502)" stroke="#000" stroke-width="0.22"/>
          </g>
          <g id="g44" transform="translate(66.385 22.988)">
            <path id="path46" d="M.011,1.886A11.915,11.915,0,0,0,8.3,1.994S6.785.356,6.009-.284a4.051,4.051,0,0,0-3.744,0C1.63.216-.189,2.059.011,1.886" transform="translate(0.004 0.743)"/>
          </g>
          <g id="g48" transform="translate(69.448 19.119)">
            <path id="path50" d="M.841,0c.648,0,1.173.764,1.173,1.706S1.489,3.412.841,3.412-.331,2.648-.331,1.706.194,0,.841,0" transform="translate(0.331)"/>
          </g>
          <g id="g52" transform="translate(69.199 15.341)">
            <path id="path54" d="M1.02,0C1.8,0,2.441.4,2.441.9s-.636.9-1.422.9S-.4,1.4-.4.9.235,0,1.02,0" transform="translate(0.402)"/>
          </g>
          <g id="g56" transform="translate(69.199 10.661)">
            <path id="path58" d="M1.02,0A1.422,1.422,0,1,1-.4,1.422,1.422,1.422,0,0,1,1.02,0" transform="translate(0.402)"/>
          </g>
          <g id="g60" transform="translate(69.103 6.787)">
            <path id="path62" d="M2.313,0s.123.2-.136.671A4.615,4.615,0,0,1-.541,3.142c-.26.211-.37.2-.37.2.019-.191.036-.972.049-1.048C-.673,1.25.9,1.264,2.133.2c.193-.167.179-.2.179-.2Z" transform="translate(0.911 0)"/>
          </g>
          <g id="g64" transform="translate(68.169 11.585)">
            <path id="path66" d="M0,0A6.635,6.635,0,0,1,.32,1.6C.386,2.878,1.612,2.914,2.452,2.914V2.2A1.553,1.553,0,0,1,.817,1.173,8.033,8.033,0,0,0,0,0"/>
          </g>
          <g id="g68" transform="translate(68.133 17.982)">
            <path id="path70" d="M0,2.8A7.877,7.877,0,0,0,.971.958,1.689,1.689,0,0,1,2.488-.109V-1.1C1.135-1.1.487-.6.418.13A21.552,21.552,0,0,1,0,2.8" transform="translate(0 1.104)"/>
          </g>
          <g id="g72" transform="translate(70.621 11.585)">
            <path id="path74" d="M1.759,0a6.631,6.631,0,0,0-.32,1.6C1.373,2.878.147,2.914-.693,2.914V2.2A1.553,1.553,0,0,0,.942,1.173,8.036,8.036,0,0,1,1.759,0" transform="translate(0.693)"/>
          </g>
          <g id="g76" transform="translate(70.621 17.982)">
            <path id="path78" d="M1.785,2.8A7.871,7.871,0,0,1,.814.958,1.689,1.689,0,0,0-.7-.109V-1.1C.65-1.1,1.3-.6,1.366.13A21.523,21.523,0,0,0,1.785,2.8" transform="translate(0.703 1.104)"/>
          </g>
        </g>
      </g>
    </g>
  </g>
</svg>
