<svg xmlns="http://www.w3.org/2000/svg" xmlns:xlink="http://www.w3.org/1999/xlink" width="32" height="32" viewBox="0 0 32 32">
  <defs>
    <clipPath id="clip-path">
      <circle id="New_Zealand" data-name="New Zealand" cx="16" cy="16" r="16" transform="translate(317 1231)" fill="#fff"/>
    </clipPath>
    <clipPath id="clip-path-2">
      <path id="Path_1043" data-name="Path 1043" d="M0,0H32V16H0Z"/>
    </clipPath>
    <clipPath id="clip-path-3">
      <path id="Path_1044" data-name="Path 1044" d="M0,0,16,8H0ZM16,0H32L16,8Zm0,8H32v8Zm0,0v8H0Z"/>
    </clipPath>
  </defs>
  <g id="New_Zealand-2" data-name="New Zealand" transform="translate(-317 -1231)" clip-path="url(#clip-path)">
    <g id="Flag_of_New_Zealand" transform="translate(317 1231)">
      <rect id="Rectangle_75" data-name="Rectangle 75" width="64" height="32" fill="#012169"/>
      <g id="Flag_of_the_United_Kingdom">
        <g id="Group_215" data-name="Group 215" clip-path="url(#clip-path-2)">
          <path id="Saint_Andrews_Cross" d="M0,0,32,16M0,16,32,0" stroke="#fff" stroke-width="1.6"/>
        </g>
        <g id="Group_216" data-name="Group 216" clip-path="url(#clip-path-3)">
          <path id="Saint_Patricks_Cross" d="M0,0,32,16M0,16,32,0" stroke="#c8102e" stroke-width="1.067"/>
        </g>
        <g id="Saint_Georges_Cross">
          <g id="Group_217" data-name="Group 217" clip-path="url(#clip-path-2)">
            <path id="Path_1045" data-name="Path 1045" d="M16,0V16M0,8H32" stroke="#fff" stroke-width="2.667"/>
          </g>
          <g id="Group_218" data-name="Group 218" clip-path="url(#clip-path-2)">
            <path id="Path_1047" data-name="Path 1047" d="M16,0V16M0,8H32" stroke="#c8102e" stroke-width="1.6"/>
          </g>
        </g>
      </g>
      <g id="Southern_Cross" transform="translate(37.441 3.551)">
        <g id="Gamma_Crucis" transform="translate(-22.813 14)">
          <g id="Group_223" data-name="Group 223" transform="translate(0 0)">
            <g id="Arm" transform="translate(1.122 0.557)">
              <path id="Path_1049" data-name="Path 1049" d="M0,0V.623L1.247,0Z" transform="translate(0.128 0.504)" fill="#fff"/>
              <path id="Path_1050" data-name="Path 1050" d="M0,.623V0L1.247.623Z" transform="matrix(0.809, -0.588, 0.588, 0.809, 0, 0.733)" fill="#fff"/>
            </g>
            <g id="Group_219" data-name="Group 219" transform="translate(1.379 1.795) rotate(180)">
              <path id="Path_1051" data-name="Path 1051" d="M0,.623V0L1.247.623Z" transform="translate(0.128 0.109)" fill="#fff"/>
              <path id="Path_1052" data-name="Path 1052" d="M0,0V.623L1.247,0Z" transform="matrix(0.809, 0.588, -0.588, 0.809, 0.366, 0)" fill="#fff"/>
            </g>
            <g id="Group_220" data-name="Group 220" transform="translate(2.076 1.064) rotate(72)">
              <path id="Path_1053" data-name="Path 1053" d="M0,0V.623L1.247,0Z" transform="translate(0.128 0.504)" fill="#fff"/>
              <path id="Path_1054" data-name="Path 1054" d="M0,.623V0L1.247.623Z" transform="matrix(0.809, -0.588, 0.588, 0.809, 0, 0.733)" fill="#fff"/>
            </g>
            <g id="Group_221" data-name="Group 221" transform="translate(0.346 1.308) rotate(-72)">
              <path id="Path_1055" data-name="Path 1055" d="M0,0V.623L1.247,0Z" transform="translate(0.128 0.504)" fill="#fff"/>
              <path id="Path_1056" data-name="Path 1056" d="M0,.623V0L1.247.623Z" transform="matrix(0.809, -0.588, 0.588, 0.809, 0, 0.733)" fill="#fff"/>
            </g>
            <g id="Group_222" data-name="Group 222" transform="translate(1.602 1.446) rotate(108)">
              <path id="Path_1057" data-name="Path 1057" d="M0,.623V0L1.247.623Z" transform="translate(0.128 0.109)" fill="#fff"/>
              <path id="Path_1058" data-name="Path 1058" d="M0,0V.623L1.247,0Z" transform="matrix(0.809, 0.588, -0.588, 0.809, 0.366, 0)" fill="#fff"/>
            </g>
          </g>
          <g id="Group_228" data-name="Group 228" transform="translate(0.424 0.498)">
            <g id="Arm-2" data-name="Arm" transform="translate(0.741 0.368)">
              <path id="Path_1059" data-name="Path 1059" d="M0,0V.412L.824,0Z" transform="translate(0.085 0.333)" fill="#c8102e"/>
              <path id="Path_1060" data-name="Path 1060" d="M0,.412V0L.824.412Z" transform="matrix(0.809, -0.588, 0.588, 0.809, 0, 0.484)" fill="#c8102e"/>
            </g>
            <g id="Group_224" data-name="Group 224" transform="translate(0.911 1.186) rotate(180)">
              <path id="Path_1061" data-name="Path 1061" d="M0,.412V0L.824.412Z" transform="translate(0.085 0.072)" fill="#c8102e"/>
              <path id="Path_1062" data-name="Path 1062" d="M0,0V.412L.824,0Z" transform="matrix(0.809, 0.588, -0.588, 0.809, 0.242, 0)" fill="#c8102e"/>
            </g>
            <g id="Group_225" data-name="Group 225" transform="translate(1.372 0.703) rotate(72)">
              <path id="Path_1063" data-name="Path 1063" d="M0,0V.412L.824,0Z" transform="translate(0.085 0.333)" fill="#c8102e"/>
              <path id="Path_1064" data-name="Path 1064" d="M0,.412V0L.824.412Z" transform="matrix(0.809, -0.588, 0.588, 0.809, 0, 0.484)" fill="#c8102e"/>
            </g>
            <g id="Group_226" data-name="Group 226" transform="translate(0.228 0.864) rotate(-72)">
              <path id="Path_1065" data-name="Path 1065" d="M0,0V.412L.824,0Z" transform="translate(0.085 0.333)" fill="#c8102e"/>
              <path id="Path_1066" data-name="Path 1066" d="M0,.412V0L.824.412Z" transform="matrix(0.809, -0.588, 0.588, 0.809, 0, 0.484)" fill="#c8102e"/>
            </g>
            <g id="Group_227" data-name="Group 227" transform="translate(1.058 0.956) rotate(108)">
              <path id="Path_1067" data-name="Path 1067" d="M0,.412V0L.824.412Z" transform="translate(0.085 0.072)" fill="#c8102e"/>
              <path id="Path_1068" data-name="Path 1068" d="M0,0V.412L.824,0Z" transform="matrix(0.809, 0.588, -0.588, 0.809, 0.242, 0)" fill="#c8102e"/>
            </g>
          </g>
        </g>
        <g id="Group_249" data-name="Group 249" transform="translate(-17.255 16.514) rotate(82)">
          <g id="Delta_Crucis" transform="translate(0.179 0)">
            <g id="Group_233" data-name="Group 233" transform="translate(0 2.203) rotate(-82)">
              <g id="Arm-3" data-name="Arm" transform="translate(0.998 0.496)">
                <path id="Path_1069" data-name="Path 1069" d="M0,0V.555L1.11,0Z" transform="translate(0.114 0.449)" fill="#fff"/>
                <path id="Path_1070" data-name="Path 1070" d="M0,.555V0L1.11.555Z" transform="matrix(0.809, -0.588, 0.588, 0.809, 0, 0.652)" fill="#fff"/>
              </g>
              <g id="Group_229" data-name="Group 229" transform="translate(1.227 1.597) rotate(180)">
                <path id="Path_1071" data-name="Path 1071" d="M0,.555V0L1.11.555Z" transform="translate(0.114 0.097)" fill="#fff"/>
                <path id="Path_1072" data-name="Path 1072" d="M0,0V.555L1.11,0Z" transform="matrix(0.809, 0.588, -0.588, 0.809, 0.326, 0)" fill="#fff"/>
              </g>
              <g id="Group_230" data-name="Group 230" transform="translate(1.847 0.947) rotate(72)">
                <path id="Path_1073" data-name="Path 1073" d="M0,0V.555L1.11,0Z" transform="translate(0.114 0.449)" fill="#fff"/>
                <path id="Path_1074" data-name="Path 1074" d="M0,.555V0L1.11.555Z" transform="matrix(0.809, -0.588, 0.588, 0.809, 0, 0.652)" fill="#fff"/>
              </g>
              <g id="Group_231" data-name="Group 231" transform="translate(0.308 1.164) rotate(-72)">
                <path id="Path_1075" data-name="Path 1075" d="M0,0V.555L1.11,0Z" transform="translate(0.114 0.449)" fill="#fff"/>
                <path id="Path_1076" data-name="Path 1076" d="M0,.555V0L1.11.555Z" transform="matrix(0.809, -0.588, 0.588, 0.809, 0, 0.652)" fill="#fff"/>
              </g>
              <g id="Group_232" data-name="Group 232" transform="translate(1.425 1.287) rotate(108)">
                <path id="Path_1077" data-name="Path 1077" d="M0,.555V0L1.11.555Z" transform="translate(0.114 0.097)" fill="#fff"/>
                <path id="Path_1078" data-name="Path 1078" d="M0,0V.555L1.11,0Z" transform="matrix(0.809, 0.588, -0.588, 0.809, 0.326, 0)" fill="#fff"/>
              </g>
            </g>
            <g id="Group_238" data-name="Group 238" transform="translate(0.552 1.853) rotate(-82)">
              <g id="Arm-4" data-name="Arm" transform="translate(0.618 0.307)">
                <path id="Path_1079" data-name="Path 1079" d="M0,0V.343L.687,0Z" transform="translate(0.071 0.278)" fill="#c8102e"/>
                <path id="Path_1080" data-name="Path 1080" d="M0,.343V0L.687.343Z" transform="matrix(0.809, -0.588, 0.588, 0.809, 0, 0.404)" fill="#c8102e"/>
              </g>
              <g id="Group_234" data-name="Group 234" transform="translate(0.759 0.988) rotate(180)">
                <path id="Path_1081" data-name="Path 1081" d="M0,.343V0L.687.343Z" transform="translate(0.071 0.06)" fill="#c8102e"/>
                <path id="Path_1082" data-name="Path 1082" d="M0,0V.343L.687,0Z" transform="matrix(0.809, 0.588, -0.588, 0.809, 0.202, 0)" fill="#c8102e"/>
              </g>
              <g id="Group_235" data-name="Group 235" transform="translate(1.143 0.586) rotate(72)">
                <path id="Path_1083" data-name="Path 1083" d="M0,0V.343L.687,0Z" transform="translate(0.071 0.278)" fill="#c8102e"/>
                <path id="Path_1084" data-name="Path 1084" d="M0,.343V0L.687.343Z" transform="matrix(0.809, -0.588, 0.588, 0.809, 0, 0.404)" fill="#c8102e"/>
              </g>
              <g id="Group_236" data-name="Group 236" transform="translate(0.19 0.72) rotate(-72)">
                <path id="Path_1085" data-name="Path 1085" d="M0,0V.343L.687,0Z" transform="translate(0.071 0.278)" fill="#c8102e"/>
                <path id="Path_1086" data-name="Path 1086" d="M0,.343V0L.687.343Z" transform="matrix(0.809, -0.588, 0.588, 0.809, 0, 0.404)" fill="#c8102e"/>
              </g>
              <g id="Group_237" data-name="Group 237" transform="translate(0.882 0.796) rotate(108)">
                <path id="Path_1087" data-name="Path 1087" d="M0,.343V0L.687.343Z" transform="translate(0.071 0.06)" fill="#c8102e"/>
                <path id="Path_1088" data-name="Path 1088" d="M0,0V.343L.687,0Z" transform="matrix(0.809, 0.588, -0.588, 0.809, 0.202, 0)" fill="#c8102e"/>
              </g>
            </g>
          </g>
          <g id="Beta_Crucis" transform="translate(0 6.982)">
            <g id="Group_243" data-name="Group 243" transform="translate(0 2.476) rotate(-82)">
              <g id="Arm-5" data-name="Arm" transform="translate(1.122 0.557)">
                <path id="Path_1089" data-name="Path 1089" d="M0,0V.623L1.247,0Z" transform="translate(0.128 0.504)" fill="#fff"/>
                <path id="Path_1090" data-name="Path 1090" d="M0,.623V0L1.247.623Z" transform="matrix(0.809, -0.588, 0.588, 0.809, 0, 0.733)" fill="#fff"/>
              </g>
              <g id="Group_239" data-name="Group 239" transform="translate(1.379 1.795) rotate(180)">
                <path id="Path_1091" data-name="Path 1091" d="M0,.623V0L1.247.623Z" transform="translate(0.128 0.109)" fill="#fff"/>
                <path id="Path_1092" data-name="Path 1092" d="M0,0V.623L1.247,0Z" transform="matrix(0.809, 0.588, -0.588, 0.809, 0.366, 0)" fill="#fff"/>
              </g>
              <g id="Group_240" data-name="Group 240" transform="translate(2.076 1.064) rotate(72)">
                <path id="Path_1093" data-name="Path 1093" d="M0,0V.623L1.247,0Z" transform="translate(0.128 0.504)" fill="#fff"/>
                <path id="Path_1094" data-name="Path 1094" d="M0,.623V0L1.247.623Z" transform="matrix(0.809, -0.588, 0.588, 0.809, 0, 0.733)" fill="#fff"/>
              </g>
              <g id="Group_241" data-name="Group 241" transform="translate(0.346 1.308) rotate(-72)">
                <path id="Path_1095" data-name="Path 1095" d="M0,0V.623L1.247,0Z" transform="translate(0.128 0.504)" fill="#fff"/>
                <path id="Path_1096" data-name="Path 1096" d="M0,.623V0L1.247.623Z" transform="matrix(0.809, -0.588, 0.588, 0.809, 0, 0.733)" fill="#fff"/>
              </g>
              <g id="Group_242" data-name="Group 242" transform="translate(1.602 1.446) rotate(108)">
                <path id="Path_1097" data-name="Path 1097" d="M0,.623V0L1.247.623Z" transform="translate(0.128 0.109)" fill="#fff"/>
                <path id="Path_1098" data-name="Path 1098" d="M0,0V.623L1.247,0Z" transform="matrix(0.809, 0.588, -0.588, 0.809, 0.366, 0)" fill="#fff"/>
              </g>
            </g>
            <g id="Group_248" data-name="Group 248" transform="translate(0.552 2.125) rotate(-82)">
              <g id="Arm-6" data-name="Arm" transform="translate(0.741 0.368)">
                <path id="Path_1099" data-name="Path 1099" d="M0,0V.412L.824,0Z" transform="translate(0.085 0.333)" fill="#c8102e"/>
                <path id="Path_1100" data-name="Path 1100" d="M0,.412V0L.824.412Z" transform="matrix(0.809, -0.588, 0.588, 0.809, 0, 0.484)" fill="#c8102e"/>
              </g>
              <g id="Group_244" data-name="Group 244" transform="translate(0.911 1.186) rotate(180)">
                <path id="Path_1101" data-name="Path 1101" d="M0,.412V0L.824.412Z" transform="translate(0.085 0.072)" fill="#c8102e"/>
                <path id="Path_1102" data-name="Path 1102" d="M0,0V.412L.824,0Z" transform="matrix(0.809, 0.588, -0.588, 0.809, 0.242, 0)" fill="#c8102e"/>
              </g>
              <g id="Group_245" data-name="Group 245" transform="translate(1.372 0.703) rotate(72)">
                <path id="Path_1103" data-name="Path 1103" d="M0,0V.412L.824,0Z" transform="translate(0.085 0.333)" fill="#c8102e"/>
                <path id="Path_1104" data-name="Path 1104" d="M0,.412V0L.824.412Z" transform="matrix(0.809, -0.588, 0.588, 0.809, 0, 0.484)" fill="#c8102e"/>
              </g>
              <g id="Group_246" data-name="Group 246" transform="translate(0.228 0.864) rotate(-72)">
                <path id="Path_1105" data-name="Path 1105" d="M0,0V.412L.824,0Z" transform="translate(0.085 0.333)" fill="#c8102e"/>
                <path id="Path_1106" data-name="Path 1106" d="M0,.412V0L.824.412Z" transform="matrix(0.809, -0.588, 0.588, 0.809, 0, 0.484)" fill="#c8102e"/>
              </g>
              <g id="Group_247" data-name="Group 247" transform="translate(1.058 0.956) rotate(108)">
                <path id="Path_1107" data-name="Path 1107" d="M0,.412V0L.824.412Z" transform="translate(0.085 0.072)" fill="#c8102e"/>
                <path id="Path_1108" data-name="Path 1108" d="M0,0V.412L.824,0Z" transform="matrix(0.809, 0.588, -0.588, 0.809, 0.242, 0)" fill="#c8102e"/>
              </g>
            </g>
          </g>
        </g>
        <g id="Alpha_Crucis" transform="translate(-22.951 23.725)">
          <g id="Group_254" data-name="Group 254" transform="translate(0 0)">
            <g id="Arm-7" data-name="Arm" transform="translate(1.246 0.619)">
              <path id="Path_1109" data-name="Path 1109" d="M0,0V.692L1.384,0Z" transform="translate(0.142 0.56)" fill="#fff"/>
              <path id="Path_1110" data-name="Path 1110" d="M0,.692V0L1.384.692Z" transform="matrix(0.809, -0.588, 0.588, 0.809, 0, 0.814)" fill="#fff"/>
            </g>
            <g id="Group_250" data-name="Group 250" transform="translate(1.53 1.992) rotate(180)">
              <path id="Path_1111" data-name="Path 1111" d="M0,.692V0L1.384.692Z" transform="translate(0.142 0.122)" fill="#fff"/>
              <path id="Path_1112" data-name="Path 1112" d="M0,0V.692L1.384,0Z" transform="matrix(0.809, 0.588, -0.588, 0.809, 0.407, 0)" fill="#fff"/>
            </g>
            <g id="Group_251" data-name="Group 251" transform="translate(2.304 1.181) rotate(72)">
              <path id="Path_1113" data-name="Path 1113" d="M0,0V.692L1.384,0Z" transform="translate(0.142 0.56)" fill="#fff"/>
              <path id="Path_1114" data-name="Path 1114" d="M0,.692V0L1.384.692Z" transform="matrix(0.809, -0.588, 0.588, 0.809, 0, 0.814)" fill="#fff"/>
            </g>
            <g id="Group_252" data-name="Group 252" transform="translate(0.384 1.452) rotate(-72)">
              <path id="Path_1115" data-name="Path 1115" d="M0,0V.692L1.384,0Z" transform="translate(0.142 0.56)" fill="#fff"/>
              <path id="Path_1116" data-name="Path 1116" d="M0,.692V0L1.384.692Z" transform="matrix(0.809, -0.588, 0.588, 0.809, 0, 0.814)" fill="#fff"/>
            </g>
            <g id="Group_253" data-name="Group 253" transform="translate(1.778 1.605) rotate(108)">
              <path id="Path_1117" data-name="Path 1117" d="M0,.692V0L1.384.692Z" transform="translate(0.142 0.122)" fill="#fff"/>
              <path id="Path_1118" data-name="Path 1118" d="M0,0V.692L1.384,0Z" transform="matrix(0.809, 0.588, -0.588, 0.809, 0.407, 0)" fill="#fff"/>
            </g>
          </g>
          <g id="Group_259" data-name="Group 259" transform="translate(0.424 0.498)">
            <g id="Arm-8" data-name="Arm" transform="translate(0.865 0.43)">
              <path id="Path_1119" data-name="Path 1119" d="M0,0V.481L.961,0Z" transform="translate(0.099 0.389)" fill="#c8102e"/>
              <path id="Path_1120" data-name="Path 1120" d="M0,.481V0L.961.481Z" transform="matrix(0.809, -0.588, 0.588, 0.809, 0, 0.565)" fill="#c8102e"/>
            </g>
            <g id="Group_255" data-name="Group 255" transform="translate(1.063 1.384) rotate(180)">
              <path id="Path_1121" data-name="Path 1121" d="M0,.481V0L.961.481Z" transform="translate(0.099 0.084)" fill="#c8102e"/>
              <path id="Path_1122" data-name="Path 1122" d="M0,0V.481L.961,0Z" transform="matrix(0.809, 0.588, -0.588, 0.809, 0.282, 0)" fill="#c8102e"/>
            </g>
            <g id="Group_256" data-name="Group 256" transform="translate(1.6 0.82) rotate(72)">
              <path id="Path_1123" data-name="Path 1123" d="M0,0V.481L.961,0Z" transform="translate(0.099 0.389)" fill="#c8102e"/>
              <path id="Path_1124" data-name="Path 1124" d="M0,.481V0L.961.481Z" transform="matrix(0.809, -0.588, 0.588, 0.809, 0, 0.565)" fill="#c8102e"/>
            </g>
            <g id="Group_257" data-name="Group 257" transform="translate(0.266 1.008) rotate(-72)">
              <path id="Path_1125" data-name="Path 1125" d="M0,0V.481L.961,0Z" transform="translate(0.099 0.389)" fill="#c8102e"/>
              <path id="Path_1126" data-name="Path 1126" d="M0,.481V0L.961.481Z" transform="matrix(0.809, -0.588, 0.588, 0.809, 0, 0.565)" fill="#c8102e"/>
            </g>
            <g id="Group_258" data-name="Group 258" transform="translate(1.235 1.115) rotate(108)">
              <path id="Path_1127" data-name="Path 1127" d="M0,.481V0L.961.481Z" transform="translate(0.099 0.084)" fill="#c8102e"/>
              <path id="Path_1128" data-name="Path 1128" d="M0,0V.481L.961,0Z" transform="matrix(0.809, 0.588, -0.588, 0.809, 0.282, 0)" fill="#c8102e"/>
            </g>
          </g>
        </g>
      </g>
    </g>
  </g>
</svg>
