<svg xmlns="http://www.w3.org/2000/svg" xmlns:xlink="http://www.w3.org/1999/xlink" width="32" height="32" viewBox="0 0 32 32">
  <defs>
    <clipPath id="clip-path">
      <circle id="Nicaragua" cx="16" cy="16" r="16" transform="translate(557 2137)" fill="#fff"/>
    </clipPath>
    <clipPath id="clip-path-2">
      <path id="Path_3559" data-name="Path 3559" d="M17.359,7.244l-3.4,5.884h6.795Z" transform="translate(-13.962 -7.244)"/>
    </clipPath>
    <linearGradient id="linear-gradient" x1="0.373" y1="0.753" x2="0.563" y2="0.173" gradientUnits="objectBoundingBox">
      <stop offset="0" stop-color="#510000"/>
      <stop offset="0.3" stop-color="#8a0000"/>
      <stop offset="1" stop-color="#a00"/>
    </linearGradient>
    <linearGradient id="linear-gradient-2" x1="0.639" y1="0.658" x2="0.79" y2="0.196" gradientUnits="objectBoundingBox">
      <stop offset="0" stop-color="#ff2a2a"/>
      <stop offset="1" stop-color="red"/>
    </linearGradient>
    <linearGradient id="linear-gradient-3" y1="-2.916" x2="1.711" y2="-2.916" gradientUnits="objectBoundingBox">
      <stop offset="0" stop-color="#025"/>
      <stop offset="0.5" stop-color="#04a"/>
      <stop offset="1" stop-color="#025"/>
    </linearGradient>
    <linearGradient id="linear-gradient-12" x1="-0.061" y1="1.957" x2="1.859" y2="1.957" xlink:href="#linear-gradient-3"/>
    <linearGradient id="linear-gradient-13" x1="-0.211" y1="0.445" x2="-0.211" y2="0.625" gradientUnits="objectBoundingBox">
      <stop offset="0" stop-color="#f5f549"/>
      <stop offset="1" stop-color="#97c924"/>
    </linearGradient>
    <linearGradient id="linear-gradient-15" x1="0.269" y1="0.445" x2="0.269" y2="0.625" xlink:href="#linear-gradient-13"/>
    <linearGradient id="linear-gradient-16" x1="0.582" y1="0.445" x2="0.582" y2="0.625" xlink:href="#linear-gradient-13"/>
    <linearGradient id="linear-gradient-18" x1="0" y1="0" x2="1" y2="0" xlink:href="#linear-gradient-3"/>
  </defs>
  <g id="Nicaragua-2" data-name="Nicaragua" transform="translate(-557 -2137)" clip-path="url(#clip-path)">
    <g id="Flag_of_Nicaragua" transform="translate(546.333 2137)">
      <path id="Path_3404" data-name="Path 3404" d="M0,0H53.333V32H0Z" fill="#0067c6"/>
      <path id="Path_3405" data-name="Path 3405" d="M0,6.4H53.333V17.067H0Z" transform="translate(0 4.267)" fill="#fff"/>
      <g id="Group_461" data-name="Group 461" transform="translate(21.867 11.2)">
        <path id="Path_3406" data-name="Path 3406" d="M13.12,11.484l.532.036c0-.026,0-.052.005-.078l-.209-.014c.005-.085.012-.171.016-.257l.222-.161.007-.1-.234.17a.157.157,0,0,0-.094-.132.154.154,0,0,0-.151.014.231.231,0,0,0-.07.171c-.009.116-.016.233-.024.349Zm.081-.073c.006-.087.01-.175.019-.262a.171.171,0,0,1,.052-.12.068.068,0,0,1,.1.033.472.472,0,0,1,.012.21l-.01.152-.171-.011Zm-.012-.745.519.121.118-.505-.074-.017-.1.43-.158-.037.09-.388-.073-.017-.09.388-.14-.033.1-.414-.074-.017-.114.489Zm.187-.7.5.175.026-.074-.2-.069c.026-.076.054-.152.078-.228a.243.243,0,0,0-.007-.195.151.151,0,0,0-.267.026,1.76,1.76,0,0,0-.087.226l-.048.139Zm.1-.049c.027-.076.051-.152.081-.227.018-.04.04-.087.086-.1a.068.068,0,0,1,.081.059.47.47,0,0,1-.044.2l-.042.12Zm.181-.6c.095.055.189.112.285.166a.185.185,0,0,0,.179.013.431.431,0,0,0,.163-.2.232.232,0,0,0,.013-.211.487.487,0,0,0-.178-.135l-.184-.108-.039.067c.09.053.181.105.271.159a.134.134,0,0,1,.071.126.4.4,0,0,1-.08.169.135.135,0,0,1-.132.063.539.539,0,0,1-.148-.072l-.181-.106-.039.067Zm.384-.628.424.324.2-.257a.214.214,0,0,0,.047-.192.164.164,0,0,0-.137-.1.136.136,0,0,0-.075.025.11.11,0,0,0-.084-.125.167.167,0,0,0-.169.063c-.049.053-.09.114-.135.17l-.068.089Zm.107-.016c.05-.063.1-.129.148-.191.024-.027.063-.057.1-.038a.064.064,0,0,1,.026.089.957.957,0,0,1-.1.15l-.058.076-.113-.086Zm.173.132c.051-.066.1-.134.154-.2.028-.029.063-.066.107-.057a.07.07,0,0,1,.052.087.644.644,0,0,1-.115.181l-.066.087-.131-.1Zm.2-.682.366.388.314-.3-.052-.055L14.9,8.4l-.006.006,0,0-.31-.328Zm.47-.411.325.423.063-.049-.325-.423Zm.478-.324a.449.449,0,0,0-.128.116.258.258,0,0,0-.053.14.24.24,0,0,0,.039.142.274.274,0,0,0,.105.1.239.239,0,0,0,.143.026.43.43,0,0,0,.174-.069.36.36,0,0,0,.133-.135.23.23,0,0,0,.022-.157l-.074.029c.019.107-.049.158-.126.207a.208.208,0,0,1-.31-.042c-.075-.124.007-.227.109-.293.073-.045.144-.076.213-.033l.058-.051a.213.213,0,0,0-.136-.037.361.361,0,0,0-.17.06Zm.63-.315-.056.6.083-.033.017-.185h0l.27-.109.141.122.083-.033-.455-.392-.083.033Zm.073.061.177.153-.2.08.021-.234Zm1.1-.391.033.532c.1-.006.193-.011.289-.019a.312.312,0,0,0,.208-.089.287.287,0,0,0,.047-.277.235.235,0,0,0-.18-.158,1.049,1.049,0,0,0-.246,0l-.151.009Zm.082.071c.077,0,.153-.012.23-.012a.2.2,0,0,1,.122.037.182.182,0,0,1,.078.167.179.179,0,0,1-.13.161.889.889,0,0,1-.126.018l-.149.009-.024-.381Zm.661-.1-.03.532.518.03,0-.076-.441-.025.009-.162.4.023,0-.075-.4-.023.008-.143.424.024,0-.076-.5-.029Zm1.393.222-.193.5.069.027.153-.394.008-.02.009.023.184.529.09.035.193-.5-.069-.027-.153.394-.008.02-.008-.023-.184-.529Zm.716.308-.242.475L19.8,7.689l.242-.475Zm.4.236a.449.449,0,0,0-.159-.068.257.257,0,0,0-.149.01.24.24,0,0,0-.113.095.274.274,0,0,0-.045.137.238.238,0,0,0,.036.141.43.43,0,0,0,.135.13A.36.36,0,0,0,20.4,8a.23.23,0,0,0,.152-.045L20.5,7.895c-.089.062-.164.021-.241-.029a.208.208,0,0,1-.091-.3c.082-.12.209-.088.312-.023.072.047.13.1.119.18l.071.031a.212.212,0,0,0-.023-.139.361.361,0,0,0-.126-.129Zm.508.383-.558.222.068.059.173-.069h0l.22.191-.044.181.068.059.142-.583-.068-.059Zm-.021.093-.056.228-.162-.14.218-.087Zm.424.278-.412.339.05.06.162-.133c.055.066.108.133.164.2q-.026.135-.051.269l.063.076.054-.284a.155.155,0,0,0,.169.027.148.148,0,0,0,.092-.12.29.29,0,0,0-.089-.188Zm-.009.108c.058.071.118.14.173.213.025.038.057.091.028.135a.075.075,0,0,1-.109.01.891.891,0,0,1-.159-.17l-.065-.079.132-.109Zm.633.74-.6.027.045.078.186-.009h0l.145.252-.1.156.045.078.325-.5ZM22,9.169l-.127.2L21.77,9.18,22,9.169Zm.393.625a.4.4,0,0,0-.175-.228.251.251,0,0,0-.3.062.318.318,0,0,0-.048.264.566.566,0,0,0,.137.277l-.04.014.026.071.25-.09-.1-.27-.058.021.071.2-.085.03a.466.466,0,0,1-.138-.253.228.228,0,0,1,.037-.211.192.192,0,0,1,.245-.029.387.387,0,0,1,.135.226.177.177,0,0,1-.031.168c-.012.009.007.021.01.032l.02.034a.188.188,0,0,0,.072-.149.46.46,0,0,0-.03-.166Zm.153.416-.3.058a.273.273,0,0,0-.124.052.166.166,0,0,0-.054.1.426.426,0,0,0,.005.161v0a.425.425,0,0,0,.055.151.166.166,0,0,0,.087.072.273.273,0,0,0,.135,0l.3-.058-.015-.076-.291.057c-.131.025-.175-.043-.2-.161h0c-.023-.117-.008-.2.122-.223l.291-.057-.015-.076Zm.164.908-.552-.236.006.089.171.073h0l.021.29-.159.1.006.089.512-.313-.006-.089Zm-.081.051-.2.122-.015-.214.216.092Zm-9.1,1.329-.077.02.086.325.077-.02Zm8.775,0,.077.02-.085.325-.077-.02Zm-7.95,1.368-.6.069.05.074L14,13.987h0l.162.242-.09.163.05.074.29-.526Zm-.045.084-.114.205-.119-.178Zm.273.242-.38.355.051.054.32-.3-.168.462.058.062.459-.139-.315.294.051.054.38-.355-.077-.082-.467.139.175-.452Zm.554.565-.321.426.415.312.046-.061-.353-.266.1-.13.318.239.045-.06-.318-.239.086-.115.34.256.046-.061Zm.522.382-.251.471.069.037.1-.185c.076.04.151.082.227.12q.028.134.055.268l.087.047-.059-.283a.155.155,0,0,0,.166-.039.149.149,0,0,0,.04-.141c-.019-.069-.087-.106-.145-.14l-.289-.154Zm.033.1c.08.044.163.085.241.131.036.025.083.058.078.108a.072.072,0,0,1-.091.058.776.776,0,0,1-.213-.094l-.1-.052.081-.151Zm.569.211-.2.494.074.03.2-.494Zm.481.166a.449.449,0,0,0-.171-.024.258.258,0,0,0-.141.049.24.24,0,0,0-.084.121.274.274,0,0,0-.008.144.239.239,0,0,0,.071.127.43.43,0,0,0,.164.09.36.36,0,0,0,.189.017.23.23,0,0,0,.135-.083l-.069-.038c-.07.083-.153.063-.24.035-.133-.046-.2-.14-.165-.265s.179-.139.3-.1c.081.027.151.062.161.143l.076.012a.212.212,0,0,0-.058-.129.361.361,0,0,0-.155-.092Zm.536.12-.349.489.089.013.108-.152h0l.288.042.06.176.089.013-.2-.567Zm.032.09.076.222-.212-.031.136-.191Zm1.218-.086a.449.449,0,0,0-.161.063.258.258,0,0,0-.1.112.24.24,0,0,0-.014.146.274.274,0,0,0,.063.13.238.238,0,0,0,.124.076.431.431,0,0,0,.187,0,.36.36,0,0,0,.173-.078.23.23,0,0,0,.077-.139H18.8c-.02.107-.1.13-.192.148-.139.025-.246-.022-.274-.15s.088-.209.207-.235c.084-.016.162-.02.21.045l.072-.027a.212.212,0,0,0-.114-.084.362.362,0,0,0-.18,0Zm.356-.063.152.511.5-.148-.022-.073-.423.126-.046-.156.381-.113-.021-.072-.381.113-.041-.138.407-.121-.022-.073Zm.577-.181.224.484.067-.031-.187-.4c.173.078.344.159.516.238.011.01.023,0,.034,0l.067-.031-.224-.484L19.9,15.3l.187.4c-.177-.08-.354-.163-.53-.244l-.087.04Zm.586-.275.042.063.191-.125.007,0,0,.005.248.377.065-.043-.248-.377,0-.005.007,0,.191-.126-.042-.063Zm.537-.367.361.392.057-.053-.142-.154c.063-.058.127-.115.188-.175l.272.036.073-.067L21.11,14.8a.155.155,0,0,0,.017-.17A.148.148,0,0,0,21,14.544a.29.29,0,0,0-.183.1l-.232.214Zm.109,0c.068-.061.133-.126.2-.185.036-.027.087-.062.133-.035a.075.075,0,0,1,.016.108.891.891,0,0,1-.161.169l-.075.069Zm.512-.624.239.551.057-.069-.074-.171h0l.184-.225.182.039.057-.069-.587-.125-.057.069Zm.093.019.229.049-.136.166-.094-.215Zm.139-.321.447.29.235-.362-.064-.041-.188.29,0,.007-.006,0-.378-.245Z" transform="translate(-13.12 -6.72)" fill="#c8a400"/>
      </g>
      <g id="Group_518" data-name="Group 518" transform="translate(23.269 12.073)" clip-path="url(#clip-path-2)">
        <path id="Path_3407" data-name="Path 3407" d="M17,7.245l-1.679,2.909L14.5,11.578h5l-.785-1.359L17,7.245Z" transform="translate(-13.603 -7.243)" fill="#fff"/>
        <g id="d" transform="translate(0.363 0.002)">
          <g id="c" transform="translate(2.909)">
            <path id="Path_3408" data-name="Path 3408" d="M16.05,7.245l-.126.218.126,2.932.126-2.932Z" transform="translate(-15.925 -7.245)" fill="#17c0eb" stroke="#17c0eb" stroke-width="0.004" opacity="0.62"/>
            <path id="Path_3409" data-name="Path 3409" d="M16,8.879H16L16,9.045l.007-.166Z" transform="translate(-15.877 -6.156)" fill="#fff"/>
          </g>
          <g id="Group_462" data-name="Group 462" transform="translate(5.991 2.057) rotate(72)">
            <path id="Path_3410" data-name="Path 3410" d="M.126,0,0,.218.126,3.15.251.218Z" transform="translate(0 0)" fill="#17c0eb" stroke="#17c0eb" stroke-width="0.004" opacity="0.62"/>
            <path id="Path_3411" data-name="Path 3411" d="M.007,0H0L.007.166.014,0Z" transform="translate(0.119 2.724)" fill="#fff"/>
          </g>
          <g id="Group_463" data-name="Group 463" transform="matrix(-0.809, 0.588, -0.588, -0.809, 4.987, 5.624)">
            <path id="Path_3412" data-name="Path 3412" d="M.126,0,0,.218.126,3.15.251.218Z" fill="#17c0eb" stroke="#17c0eb" stroke-width="0.004" opacity="0.62"/>
            <path id="Path_3413" data-name="Path 3413" d="M.007,0H0L.007.166.014,0Z" transform="translate(0.119 2.724)" fill="#fff"/>
          </g>
          <g id="Group_464" data-name="Group 464" transform="matrix(-0.809, -0.588, 0.588, -0.809, 1.285, 5.772)">
            <path id="Path_3414" data-name="Path 3414" d="M.126,0,0,.218.126,3.15.251.218Z" fill="#17c0eb" stroke="#17c0eb" stroke-width="0.004" opacity="0.62"/>
            <path id="Path_3415" data-name="Path 3415" d="M.007,0H0L.007.166.014,0Z" transform="translate(0.119 2.724)" fill="#fff"/>
          </g>
          <g id="Group_465" data-name="Group 465" transform="translate(0 2.296) rotate(-72)">
            <path id="Path_3416" data-name="Path 3416" d="M.126,0,0,.218.126,3.15.251.218Z" fill="#17c0eb" stroke="#17c0eb" stroke-width="0.004" opacity="0.62"/>
            <path id="Path_3417" data-name="Path 3417" d="M.007,0H0L.007.166.014,0Z" transform="translate(0.119 2.724)" fill="#fff"/>
          </g>
        </g>
        <g id="Group_470" data-name="Group 470" transform="translate(0.831 -0.39) rotate(8)">
          <g id="c-2" data-name="c" transform="translate(2.909 0)">
            <path id="Path_3418" data-name="Path 3418" d="M.126,0,0,.218.126,3.15.251.218Z" fill="#17c0eb" stroke="#17c0eb" stroke-width="0.004" opacity="0.62"/>
            <path id="Path_3419" data-name="Path 3419" d="M.007,0H0L.007.166.014,0Z" transform="translate(0.119 2.724)" fill="#fff"/>
          </g>
          <g id="Group_466" data-name="Group 466" transform="translate(5.991 2.057) rotate(72)">
            <path id="Path_3420" data-name="Path 3420" d="M.126,0,0,.218.126,3.15.251.218Z" transform="translate(0 0)" fill="#17c0eb" stroke="#17c0eb" stroke-width="0.004" opacity="0.62"/>
            <path id="Path_3421" data-name="Path 3421" d="M.007,0H0L.007.166.014,0Z" transform="translate(0.119 2.724)" fill="#fff"/>
          </g>
          <g id="Group_467" data-name="Group 467" transform="matrix(-0.809, 0.588, -0.588, -0.809, 4.987, 5.624)">
            <path id="Path_3422" data-name="Path 3422" d="M.126,0,0,.218.126,3.15.251.218Z" transform="translate(0 0)" fill="#17c0eb" stroke="#17c0eb" stroke-width="0.004" opacity="0.62"/>
            <path id="Path_3423" data-name="Path 3423" d="M.007,0H0L.007.166.014,0Z" transform="translate(0.119 2.724)" fill="#fff"/>
          </g>
          <g id="Group_468" data-name="Group 468" transform="matrix(-0.809, -0.588, 0.588, -0.809, 1.285, 5.772)">
            <path id="Path_3424" data-name="Path 3424" d="M.126,0,0,.218.126,3.15.251.218Z" fill="#17c0eb" stroke="#17c0eb" stroke-width="0.004" opacity="0.62"/>
            <path id="Path_3425" data-name="Path 3425" d="M.007,0H0L.007.166.014,0Z" transform="translate(0.119 2.724)" fill="#fff"/>
          </g>
          <g id="Group_469" data-name="Group 469" transform="translate(0 2.296) rotate(-72)">
            <path id="Path_3426" data-name="Path 3426" d="M.126,0,0,.218.126,3.15.251.218Z" fill="#17c0eb" stroke="#17c0eb" stroke-width="0.004" opacity="0.62"/>
            <path id="Path_3427" data-name="Path 3427" d="M.007,0H0L.007.166.014,0Z" transform="translate(0.119 2.724)" fill="#fff"/>
          </g>
        </g>
        <g id="Group_475" data-name="Group 475" transform="translate(1.349 -0.713) rotate(16)">
          <g id="c-3" data-name="c" transform="translate(2.909 0)">
            <path id="Path_3428" data-name="Path 3428" d="M.126,0,0,.218.126,3.15.251.218Z" fill="#17c0eb" stroke="#17c0eb" stroke-width="0.004" opacity="0.62"/>
            <path id="Path_3429" data-name="Path 3429" d="M.007,0H0L.007.166.014,0Z" transform="translate(0.119 2.724)" fill="#fff"/>
          </g>
          <g id="Group_471" data-name="Group 471" transform="translate(5.991 2.057) rotate(72)">
            <path id="Path_3430" data-name="Path 3430" d="M.126,0,0,.218.126,3.15.251.218Z" transform="translate(0 0)" fill="#17c0eb" stroke="#17c0eb" stroke-width="0.004" opacity="0.62"/>
            <path id="Path_3431" data-name="Path 3431" d="M.007,0H0L.007.166.014,0Z" transform="translate(0.119 2.724)" fill="#fff"/>
          </g>
          <g id="Group_472" data-name="Group 472" transform="matrix(-0.809, 0.588, -0.588, -0.809, 4.987, 5.624)">
            <path id="Path_3432" data-name="Path 3432" d="M.126,0,0,.218.126,3.15.251.218Z" fill="#17c0eb" stroke="#17c0eb" stroke-width="0.004" opacity="0.62"/>
            <path id="Path_3433" data-name="Path 3433" d="M.007,0H0L.007.166.014,0Z" transform="translate(0.119 2.724)" fill="#fff"/>
          </g>
          <g id="Group_473" data-name="Group 473" transform="matrix(-0.809, -0.588, 0.588, -0.809, 1.285, 5.772)">
            <path id="Path_3434" data-name="Path 3434" d="M.126,0,0,.218.126,3.15.251.218Z" fill="#17c0eb" stroke="#17c0eb" stroke-width="0.004" opacity="0.62"/>
            <path id="Path_3435" data-name="Path 3435" d="M.007,0H0L.007.166.014,0Z" transform="translate(0.119 2.724)" fill="#fff"/>
          </g>
          <g id="Group_474" data-name="Group 474" transform="translate(0 2.296) rotate(-72)">
            <path id="Path_3436" data-name="Path 3436" d="M.126,0,0,.218.126,3.15.251.218Z" fill="#17c0eb" stroke="#17c0eb" stroke-width="0.004" opacity="0.62"/>
            <path id="Path_3437" data-name="Path 3437" d="M.007,0H0L.007.166.014,0Z" transform="translate(0.119 2.724)" fill="#fff"/>
          </g>
        </g>
        <g id="Group_480" data-name="Group 480" transform="matrix(0.914, 0.407, -0.407, 0.914, 1.907, -0.96)">
          <g id="c-4" data-name="c" transform="translate(2.909 0)">
            <path id="Path_3438" data-name="Path 3438" d="M.126,0,0,.218.126,3.15.251.218Z" fill="#17c0eb" stroke="#17c0eb" stroke-width="0.004" opacity="0.62"/>
            <path id="Path_3439" data-name="Path 3439" d="M.007,0H0L.007.166.014,0Z" transform="translate(0.119 2.724)" fill="#fff"/>
          </g>
          <g id="Group_476" data-name="Group 476" transform="translate(5.991 2.057) rotate(72)">
            <path id="Path_3440" data-name="Path 3440" d="M.126,0,0,.218.126,3.15.251.218Z" fill="#17c0eb" stroke="#17c0eb" stroke-width="0.004" opacity="0.62"/>
            <path id="Path_3441" data-name="Path 3441" d="M.007,0H0L.007.166.014,0Z" transform="translate(0.119 2.724)" fill="#fff"/>
          </g>
          <g id="Group_477" data-name="Group 477" transform="matrix(-0.809, 0.588, -0.588, -0.809, 4.987, 5.624)">
            <path id="Path_3442" data-name="Path 3442" d="M.126,0,0,.218.126,3.15.251.218Z" fill="#17c0eb" stroke="#17c0eb" stroke-width="0.004" opacity="0.62"/>
            <path id="Path_3443" data-name="Path 3443" d="M.007,0H0L.007.166.014,0Z" transform="translate(0.119 2.724)" fill="#fff"/>
          </g>
          <g id="Group_478" data-name="Group 478" transform="matrix(-0.809, -0.588, 0.588, -0.809, 1.285, 5.772)">
            <path id="Path_3444" data-name="Path 3444" d="M.126,0,0,.218.126,3.15.251.218Z" fill="#17c0eb" stroke="#17c0eb" stroke-width="0.004" opacity="0.62"/>
            <path id="Path_3445" data-name="Path 3445" d="M.007,0H0L.007.166.014,0Z" transform="translate(0.119 2.724)" fill="#fff"/>
          </g>
          <g id="Group_479" data-name="Group 479" transform="translate(0 2.296) rotate(-72)">
            <path id="Path_3446" data-name="Path 3446" d="M.126,0,0,.218.126,3.15.251.218Z" fill="#17c0eb" stroke="#17c0eb" stroke-width="0.004" opacity="0.62"/>
            <path id="Path_3447" data-name="Path 3447" d="M.007,0H0L.007.166.014,0Z" transform="translate(0.119 2.724)" fill="#fff"/>
          </g>
        </g>
        <g id="Group_485" data-name="Group 485" transform="translate(2.493 -1.128) rotate(32)">
          <g id="c-5" data-name="c" transform="translate(2.909 0)">
            <path id="Path_3448" data-name="Path 3448" d="M.126,0,0,.218.126,3.15.251.218Z" fill="#17c0eb" stroke="#17c0eb" stroke-width="0.004" opacity="0.62"/>
            <path id="Path_3449" data-name="Path 3449" d="M.007,0H0L.007.166.014,0Z" transform="translate(0.119 2.724)" fill="#fff"/>
          </g>
          <g id="Group_481" data-name="Group 481" transform="translate(5.991 2.057) rotate(72)">
            <path id="Path_3450" data-name="Path 3450" d="M.126,0,0,.218.126,3.15.251.218Z" fill="#17c0eb" stroke="#17c0eb" stroke-width="0.004" opacity="0.62"/>
            <path id="Path_3451" data-name="Path 3451" d="M.007,0H0L.007.166.014,0Z" transform="translate(0.119 2.724)" fill="#fff"/>
          </g>
          <g id="Group_482" data-name="Group 482" transform="matrix(-0.809, 0.588, -0.588, -0.809, 4.987, 5.624)">
            <path id="Path_3452" data-name="Path 3452" d="M.126,0,0,.218.126,3.15.251.218Z" transform="translate(0 0)" fill="#17c0eb" stroke="#17c0eb" stroke-width="0.004" opacity="0.62"/>
            <path id="Path_3453" data-name="Path 3453" d="M.007,0H0L.007.166.014,0Z" transform="translate(0.119 2.724)" fill="#fff"/>
          </g>
          <g id="Group_483" data-name="Group 483" transform="matrix(-0.809, -0.588, 0.588, -0.809, 1.285, 5.772)">
            <path id="Path_3454" data-name="Path 3454" d="M.126,0,0,.218.126,3.15.251.218Z" fill="#17c0eb" stroke="#17c0eb" stroke-width="0.004" opacity="0.62"/>
            <path id="Path_3455" data-name="Path 3455" d="M.007,0H0L.007.166.014,0Z" transform="translate(0.119 2.724)" fill="#fff"/>
          </g>
          <g id="Group_484" data-name="Group 484" transform="translate(0 2.296) rotate(-72)">
            <path id="Path_3456" data-name="Path 3456" d="M.126,0,0,.218.126,3.15.251.218Z" fill="#17c0eb" stroke="#17c0eb" stroke-width="0.004" opacity="0.62"/>
            <path id="Path_3457" data-name="Path 3457" d="M.007,0H0L.007.166.014,0Z" transform="translate(0.119 2.724)" fill="#fff"/>
          </g>
        </g>
        <g id="Group_490" data-name="Group 490" transform="matrix(0.766, 0.643, -0.643, 0.766, 3.098, -1.212)">
          <g id="c-6" data-name="c" transform="translate(2.909 0)">
            <path id="Path_3458" data-name="Path 3458" d="M.126,0,0,.218.126,3.15.251.218Z" fill="#17c0eb" stroke="#17c0eb" stroke-width="0.004" opacity="0.62"/>
            <path id="Path_3459" data-name="Path 3459" d="M.007,0H0L.007.166.014,0Z" transform="translate(0.119 2.724)" fill="#fff"/>
          </g>
          <g id="Group_486" data-name="Group 486" transform="translate(5.991 2.057) rotate(72)">
            <path id="Path_3460" data-name="Path 3460" d="M.126,0,0,.218.126,3.15.251.218Z" fill="#17c0eb" stroke="#17c0eb" stroke-width="0.004" opacity="0.62"/>
            <path id="Path_3461" data-name="Path 3461" d="M.007,0H0L.007.166.014,0Z" transform="translate(0.119 2.724)" fill="#fff"/>
          </g>
          <g id="Group_487" data-name="Group 487" transform="matrix(-0.809, 0.588, -0.588, -0.809, 4.987, 5.624)">
            <path id="Path_3462" data-name="Path 3462" d="M.126,0,0,.218.126,3.15.251.218Z" transform="translate(0 0)" fill="#17c0eb" stroke="#17c0eb" stroke-width="0.004" opacity="0.62"/>
            <path id="Path_3463" data-name="Path 3463" d="M.007,0H0L.007.166.014,0Z" transform="translate(0.119 2.724)" fill="#fff"/>
          </g>
          <g id="Group_488" data-name="Group 488" transform="matrix(-0.809, -0.588, 0.588, -0.809, 1.285, 5.772)">
            <path id="Path_3464" data-name="Path 3464" d="M.126,0,0,.218.126,3.15.251.218Z" fill="#17c0eb" stroke="#17c0eb" stroke-width="0.004" opacity="0.62"/>
            <path id="Path_3465" data-name="Path 3465" d="M.007,0H0L.007.166.014,0Z" transform="translate(0.119 2.724)" fill="#fff"/>
          </g>
          <g id="Group_489" data-name="Group 489" transform="translate(0 2.296) rotate(-72)">
            <path id="Path_3466" data-name="Path 3466" d="M.126,0,0,.218.126,3.15.251.218Z" fill="#17c0eb" stroke="#17c0eb" stroke-width="0.004" opacity="0.62"/>
            <path id="Path_3467" data-name="Path 3467" d="M.007,0H0L.007.166.014,0Z" transform="translate(0.119 2.724)" fill="#fff"/>
          </g>
        </g>
        <g id="Group_495" data-name="Group 495" transform="translate(3.708 -1.211) rotate(48)">
          <g id="c-7" data-name="c" transform="translate(2.909 0)">
            <path id="Path_3468" data-name="Path 3468" d="M.126,0,0,.218.126,3.15.251.218Z" fill="#17c0eb" stroke="#17c0eb" stroke-width="0.004" opacity="0.62"/>
            <path id="Path_3469" data-name="Path 3469" d="M.007,0H0L.007.166.014,0Z" transform="translate(0.119 2.724)" fill="#fff"/>
          </g>
          <g id="Group_491" data-name="Group 491" transform="translate(5.991 2.057) rotate(72)">
            <path id="Path_3470" data-name="Path 3470" d="M.126,0,0,.218.126,3.15.251.218Z" transform="translate(0 0)" fill="#17c0eb" stroke="#17c0eb" stroke-width="0.004" opacity="0.62"/>
            <path id="Path_3471" data-name="Path 3471" d="M.007,0H0L.007.166.014,0Z" transform="translate(0.119 2.724)" fill="#fff"/>
          </g>
          <g id="Group_492" data-name="Group 492" transform="matrix(-0.809, 0.588, -0.588, -0.809, 4.987, 5.624)">
            <path id="Path_3472" data-name="Path 3472" d="M.126,0,0,.218.126,3.15.251.218Z" fill="#17c0eb" stroke="#17c0eb" stroke-width="0.004" opacity="0.62"/>
            <path id="Path_3473" data-name="Path 3473" d="M.007,0H0L.007.166.014,0Z" transform="translate(0.119 2.724)" fill="#fff"/>
          </g>
          <g id="Group_493" data-name="Group 493" transform="matrix(-0.809, -0.588, 0.588, -0.809, 1.285, 5.772)">
            <path id="Path_3474" data-name="Path 3474" d="M.126,0,0,.218.126,3.15.251.218Z" fill="#17c0eb" stroke="#17c0eb" stroke-width="0.004" opacity="0.62"/>
            <path id="Path_3475" data-name="Path 3475" d="M.007,0H0L.007.166.014,0Z" transform="translate(0.119 2.724)" fill="#fff"/>
          </g>
          <g id="Group_494" data-name="Group 494" transform="translate(0 2.296) rotate(-72)">
            <path id="Path_3476" data-name="Path 3476" d="M.126,0,0,.218.126,3.15.251.218Z" fill="#17c0eb" stroke="#17c0eb" stroke-width="0.004" opacity="0.62"/>
            <path id="Path_3477" data-name="Path 3477" d="M.007,0H0L.007.166.014,0Z" transform="translate(0.119 2.724)" fill="#fff"/>
          </g>
        </g>
        <g id="Group_500" data-name="Group 500" transform="translate(4.312 -1.125) rotate(56)">
          <g id="c-8" data-name="c" transform="translate(2.909 0)">
            <path id="Path_3478" data-name="Path 3478" d="M.126,0,0,.218.126,3.15.251.218Z" fill="#17c0eb" stroke="#17c0eb" stroke-width="0.004" opacity="0.62"/>
            <path id="Path_3479" data-name="Path 3479" d="M.007,0H0L.007.166.014,0Z" transform="translate(0.119 2.724)" fill="#fff"/>
          </g>
          <g id="Group_496" data-name="Group 496" transform="translate(5.991 2.057) rotate(72)">
            <path id="Path_3480" data-name="Path 3480" d="M.126,0,0,.218.126,3.15.251.218Z" transform="translate(0 0)" fill="#17c0eb" stroke="#17c0eb" stroke-width="0.004" opacity="0.62"/>
            <path id="Path_3481" data-name="Path 3481" d="M.007,0H0L.007.166.014,0Z" transform="translate(0.119 2.724)" fill="#fff"/>
          </g>
          <g id="Group_497" data-name="Group 497" transform="matrix(-0.809, 0.588, -0.588, -0.809, 4.987, 5.624)">
            <path id="Path_3482" data-name="Path 3482" d="M.126,0,0,.218.126,3.15.251.218Z" transform="translate(0 0)" fill="#17c0eb" stroke="#17c0eb" stroke-width="0.004" opacity="0.62"/>
            <path id="Path_3483" data-name="Path 3483" d="M.007,0H0L.007.166.014,0Z" transform="translate(0.119 2.724)" fill="#fff"/>
          </g>
          <g id="Group_498" data-name="Group 498" transform="matrix(-0.809, -0.588, 0.588, -0.809, 1.285, 5.772)">
            <path id="Path_3484" data-name="Path 3484" d="M.126,0,0,.218.126,3.15.251.218Z" fill="#17c0eb" stroke="#17c0eb" stroke-width="0.004" opacity="0.62"/>
            <path id="Path_3485" data-name="Path 3485" d="M.007,0H0L.007.166.014,0Z" transform="translate(0.119 2.724)" fill="#fff"/>
          </g>
          <g id="Group_499" data-name="Group 499" transform="translate(0 2.296) rotate(-72)">
            <path id="Path_3486" data-name="Path 3486" d="M.126,0,0,.218.126,3.15.251.218Z" fill="#17c0eb" stroke="#17c0eb" stroke-width="0.004" opacity="0.62"/>
            <path id="Path_3487" data-name="Path 3487" d="M.007,0H0L.007.166.014,0Z" transform="translate(0.119 2.724)" fill="#fff"/>
          </g>
        </g>
        <g id="Group_505" data-name="Group 505" transform="matrix(0.438, 0.899, -0.899, 0.438, 4.898, -0.957)">
          <g id="c-9" data-name="c" transform="translate(2.909 0)">
            <path id="Path_3488" data-name="Path 3488" d="M.126,0,0,.218.126,3.15.251.218Z" fill="#17c0eb" stroke="#17c0eb" stroke-width="0.004" opacity="0.62"/>
            <path id="Path_3489" data-name="Path 3489" d="M.007,0H0L.007.166.014,0Z" transform="translate(0.119 2.724)" fill="#fff"/>
          </g>
          <g id="Group_501" data-name="Group 501" transform="translate(5.991 2.057) rotate(72)">
            <path id="Path_3490" data-name="Path 3490" d="M.126,0,0,.218.126,3.15.251.218Z" transform="translate(0 0)" fill="#17c0eb" stroke="#17c0eb" stroke-width="0.004" opacity="0.62"/>
            <path id="Path_3491" data-name="Path 3491" d="M.007,0H0L.007.166.014,0Z" transform="translate(0.119 2.724)" fill="#fff"/>
          </g>
          <g id="Group_502" data-name="Group 502" transform="matrix(-0.809, 0.588, -0.588, -0.809, 4.987, 5.624)">
            <path id="Path_3492" data-name="Path 3492" d="M.126,0,0,.218.126,3.15.251.218Z" transform="translate(0 0)" fill="#17c0eb" stroke="#17c0eb" stroke-width="0.004" opacity="0.62"/>
            <path id="Path_3493" data-name="Path 3493" d="M.007,0H0L.007.166.014,0Z" transform="translate(0.119 2.724)" fill="#fff"/>
          </g>
          <g id="Group_503" data-name="Group 503" transform="matrix(-0.809, -0.588, 0.588, -0.809, 1.285, 5.772)">
            <path id="Path_3494" data-name="Path 3494" d="M.126,0,0,.218.126,3.15.251.218Z" fill="#17c0eb" stroke="#17c0eb" stroke-width="0.004" opacity="0.62"/>
            <path id="Path_3495" data-name="Path 3495" d="M.007,0H0L.007.166.014,0Z" transform="translate(0.119 2.724)" fill="#fff"/>
          </g>
          <g id="Group_504" data-name="Group 504" transform="translate(0 2.296) rotate(-72)">
            <path id="Path_3496" data-name="Path 3496" d="M.126,0,0,.218.126,3.15.251.218Z" fill="#17c0eb" stroke="#17c0eb" stroke-width="0.004" opacity="0.62"/>
            <path id="Path_3497" data-name="Path 3497" d="M.007,0H0L.007.166.014,0Z" transform="translate(0.119 2.724)" fill="#fff"/>
          </g>
        </g>
        <g id="Group_506" data-name="Group 506" transform="translate(1.031 2.105)">
          <path id="Path_3498" data-name="Path 3498" d="M16.947,8.507A2.359,2.359,0,0,0,15.4,9.08l-.782,1.355a2.385,2.385,0,0,0-.04.44h.268a2.1,2.1,0,0,1,4.2,0h.268a2.392,2.392,0,0,0-.04-.44L18.492,9.08A2.36,2.36,0,0,0,16.947,8.507Z" transform="translate(-14.58 -8.507)" fill="red"/>
          <path id="Path_3499" data-name="Path 3499" d="M16.93,8.533a2.318,2.318,0,0,0-1.615.653L14.673,10.3a2.325,2.325,0,0,0-.068.56h.227a2.1,2.1,0,1,1,4.2,0h.227a2.337,2.337,0,0,0-.068-.562l-.642-1.11A2.318,2.318,0,0,0,16.93,8.533Z" transform="translate(-14.563 -8.49)" fill="#f60"/>
          <path id="Path_3500" data-name="Path 3500" d="M16.913,8.559a2.275,2.275,0,0,0-1.7.763l-.465.8a2.279,2.279,0,0,0-.113.713h.183a2.1,2.1,0,0,1,4.2,0h.183a2.278,2.278,0,0,0-.113-.713l-.465-.805a2.275,2.275,0,0,0-1.7-.763Z" transform="translate(-14.546 -8.472)" fill="#ff0"/>
          <path id="Path_3501" data-name="Path 3501" d="M16.9,8.584a2.238,2.238,0,0,0-1.862.995l-.15.26a2.23,2.23,0,0,0-.228.985H14.8a2.1,2.1,0,1,1,4.2,0h.142a2.231,2.231,0,0,0-.228-.984l-.152-.263a2.236,2.236,0,0,0-1.86-.993Z" transform="translate(-14.529 -8.456)" fill="lime"/>
          <path id="Path_3502" data-name="Path 3502" d="M16.879,8.61a2.2,2.2,0,0,0-2.2,2.2h.1a2.1,2.1,0,0,1,4.2,0h.1A2.2,2.2,0,0,0,16.879,8.61Z" transform="translate(-14.512 -8.438)" fill="#0cf"/>
          <path id="Path_3503" data-name="Path 3503" d="M16.861,8.635a2.154,2.154,0,0,0-2.153,2.155h.072a2.082,2.082,0,0,1,4.163,0h.073A2.156,2.156,0,0,0,16.861,8.635Z" transform="translate(-14.495 -8.422)" fill="blue"/>
          <path id="Path_3504" data-name="Path 3504" d="M16.845,8.661a2.111,2.111,0,0,0-2.111,2.111c0,.013,0,.026,0,.039h.043q0-.02,0-.039a2.069,2.069,0,0,1,4.137,0c0,.013,0,.026,0,.039h.043c0-.013,0-.026,0-.039A2.111,2.111,0,0,0,16.845,8.661Z" transform="translate(-14.478 -8.404)" fill="purple"/>
        </g>
        <g id="Group_507" data-name="Group 507" transform="translate(3.131 2.831)">
          <path id="Path_3505" data-name="Path 3505" d="M16.067,9.233c-.034-.007-.065-.026-.095-.033a.117.117,0,0,0-.039.111c.014.007.017.019.047.046s.026.041.025.1c0,.027,0,.084.031.09s.05-.018.058-.062a.256.256,0,0,1,.037-.091C16.147,9.3,16.121,9.266,16.067,9.233Z" transform="translate(-15.779 -8.771)" fill="#510000"/>
          <path id="Path_3506" data-name="Path 3506" d="M15.955,9.16c-.032,0-.081.054-.1.025a.076.076,0,0,1,0-.075.257.257,0,0,1,.116-.124c.127-.075.207-.051.271.057a.694.694,0,0,1,.12.286c0,.027.015.075-.008.1-.072.074-.245-.077-.347-.053-.034.008-.073.033-.106.012s0-.053.015-.069a.278.278,0,0,0,.074-.169c0-.024,0,.01-.028.01Z" transform="translate(-15.839 -8.943)" fill="red"/>
          <path id="Path_3507" data-name="Path 3507" d="M15.942,9.059c-.058.024-.052.057-.081.085a.063.063,0,0,0,.073-.016.152.152,0,0,1,.036-.019.437.437,0,0,0-.036.036.278.278,0,0,0-.071.1.25.25,0,0,0-.02.1.153.153,0,0,0,.084.066c.108.043.129.13.239.13.086,0,.072-.056.141-.044s.091-.037.034-.066a.747.747,0,0,0-.287,0,1.227,1.227,0,0,1-.008-.235c-.005-.094-.033-.1,0-.175C16.018,9.062,15.981,9.055,15.942,9.059Z" transform="translate(-15.839 -8.894)" fill="url(#linear-gradient)"/>
          <path id="Path_3508" data-name="Path 3508" d="M16.031,8.953a.131.131,0,0,0,0,.032c0,.018.009.037.015.053a.421.421,0,0,1,.013.049c0,.019.021.027.037.039s0,.055.017.057.026-.057.026-.067a.2.2,0,0,0,0-.035q-.011-.024-.023-.047h0l-.01-.017a.224.224,0,0,0-.042-.046l0,0-.014-.01-.01-.006Z" transform="translate(-15.715 -8.935)" fill="#ff2a2a"/>
          <path id="Path_3509" data-name="Path 3509" d="M16.17,9.231c-.038-.01-.076-.029-.109-.039-.064-.019-.132-.06-.18-.043-.017.007-.015.024-.021.049s-.032.07-.007.057.133.039.165.059a.134.134,0,0,1,.058.055.39.39,0,0,1,0,.122c0,.03.006.1.037.106s.057-.017.07-.066a.309.309,0,0,1,.04-.1.1.1,0,0,1,.07-.046c.03-.006.074.025.074-.011s-.02-.046-.012-.078-.021-.02-.045-.031c-.055-.017-.105-.022-.143-.032Z" transform="translate(-15.837 -8.808)" fill="url(#linear-gradient-2)"/>
          <path id="Path_3510" data-name="Path 3510" d="M16.019,9.318c-.017-.009-.123-.079-.162-.057-.012.007-.017,0-.017-.014a.2.2,0,0,1,.01-.046.113.113,0,0,1,.028-.057c.037-.031.121.031.166.047C16.039,9.215,16.018,9.317,16.019,9.318Z" transform="translate(-15.84 -8.814)" fill="#910000"/>
          <path id="Path_3511" data-name="Path 3511" d="M16.087,9.367c.049-.085.08-.075.139-.073.02,0,.025-.018.021-.036-.015.033-.089,0-.129.014-.084.037-.068.2-.108.217C16.052,9.524,16.07,9.4,16.087,9.367Z" transform="translate(-15.726 -8.732)" fill="#ff3a3a"/>
        </g>
        <g id="Group_510" data-name="Group 510" transform="translate(0.365 4.324)">
          <path id="Path_3512" data-name="Path 3512" d="M14.712,9.845l-.531.919h6.064l-.531-.919h-5Z" transform="translate(-14.181 -9.835)" fill="#fff"/>
          <g id="i" transform="translate(0.073 0.622)">
            <path id="h" d="M14.5,10.284a2.021,2.021,0,0,0-.251.019l-.026.045c.13-.012.251-.035.381-.038.176,0,.335.044.522.044.081,0,.161,0,.241,0,.187,0,.346-.04.522-.044s.336.044.523.044c.081,0,.169,0,.242,0,.187,0,.345-.04.521-.044s.334.044.521.044c.082,0,.162,0,.242,0,.187,0,.346-.04.522-.044s.335.044.522.044c.081,0,.162,0,.242,0,.187,0,.345-.04.521-.044.136,0,.262.028.4.039l-.027-.048a1.927,1.927,0,0,0-.233-.017c-.082,0-.162,0-.243,0-.187,0-.345.04-.521.044s-.335-.044-.522-.044c-.081,0-.162,0-.241,0-.187,0-.346.04-.522.044s-.335-.044-.522-.044c-.081,0-.162,0-.243,0-.187,0-.345.04-.521.044s-.334-.044-.521-.044c-.081,0-.161,0-.241,0-.187,0-.346.04-.522.044s-.335-.044-.522-.044c-.081,0-.162,0-.243,0Z" transform="translate(-14.224 -10.165)" fill="url(#linear-gradient-3)"/>
            <path id="Path_3513" data-name="Path 3513" d="M14.5,10.284a2.021,2.021,0,0,0-.251.019l-.026.045c.13-.012.251-.035.381-.038.176,0,.335.044.522.044.081,0,.161,0,.241,0,.187,0,.346-.04.522-.044s.336.044.523.044c.081,0,.169,0,.242,0,.187,0,.345-.04.521-.044s.334.044.521.044c.082,0,.162,0,.242,0,.187,0,.346-.04.522-.044s.335.044.522.044c.081,0,.162,0,.242,0,.187,0,.345-.04.521-.044.136,0,.262.028.4.039l-.027-.048a1.927,1.927,0,0,0-.233-.017c-.082,0-.162,0-.243,0-.187,0-.345.04-.521.044s-.335-.044-.522-.044c-.081,0-.162,0-.241,0-.187,0-.346.04-.522.044s-.335-.044-.522-.044c-.081,0-.162,0-.243,0-.187,0-.345.04-.521.044s-.334-.044-.521-.044c-.081,0-.161,0-.241,0-.187,0-.346.04-.522.044s-.335-.044-.522-.044c-.081,0-.162,0-.243,0Z" transform="translate(-14.224 -10.224)" fill="url(#linear-gradient-3)"/>
            <path id="Path_3514" data-name="Path 3514" d="M14.5,10.284a2.021,2.021,0,0,0-.251.019l-.026.045c.13-.012.251-.035.381-.038.176,0,.335.044.522.044.081,0,.161,0,.241,0,.187,0,.346-.04.522-.044s.336.044.523.044c.081,0,.169,0,.242,0,.187,0,.345-.04.521-.044s.334.044.521.044c.082,0,.162,0,.242,0,.187,0,.346-.04.522-.044s.335.044.522.044c.081,0,.162,0,.242,0,.187,0,.345-.04.521-.044.136,0,.262.028.4.039l-.027-.048a1.927,1.927,0,0,0-.233-.017c-.082,0-.162,0-.243,0-.187,0-.345.04-.521.044s-.335-.044-.522-.044c-.081,0-.162,0-.241,0-.187,0-.346.04-.522.044s-.335-.044-.522-.044c-.081,0-.162,0-.243,0-.187,0-.345.04-.521.044s-.334-.044-.521-.044c-.081,0-.161,0-.241,0-.187,0-.346.04-.522.044s-.335-.044-.522-.044c-.081,0-.162,0-.243,0Z" transform="translate(-14.224 -10.283)" fill="url(#linear-gradient-3)"/>
          </g>
          <g id="Group_508" data-name="Group 508" transform="translate(0.073 0.444)">
            <path id="h-2" data-name="h" d="M14.5,10.284a2.021,2.021,0,0,0-.251.019l-.026.045c.13-.012.251-.035.381-.038.176,0,.335.044.522.044.081,0,.161,0,.241,0,.187,0,.346-.04.522-.044s.336.044.523.044c.081,0,.169,0,.242,0,.187,0,.345-.04.521-.044s.334.044.521.044c.082,0,.162,0,.242,0,.187,0,.346-.04.522-.044s.335.044.522.044c.081,0,.162,0,.242,0,.187,0,.345-.04.521-.044.136,0,.262.028.4.039l-.027-.048a1.927,1.927,0,0,0-.233-.017c-.082,0-.162,0-.243,0-.187,0-.345.04-.521.044s-.335-.044-.522-.044c-.081,0-.162,0-.241,0-.187,0-.346.04-.522.044s-.335-.044-.522-.044c-.081,0-.162,0-.243,0-.187,0-.345.04-.521.044s-.334-.044-.521-.044c-.081,0-.161,0-.241,0-.187,0-.346.04-.522.044s-.335-.044-.522-.044c-.081,0-.162,0-.243,0Z" transform="translate(-14.224 -10.165)" fill="url(#linear-gradient-3)"/>
            <path id="Path_3515" data-name="Path 3515" d="M14.5,10.284a2.021,2.021,0,0,0-.251.019l-.026.045c.13-.012.251-.035.381-.038.176,0,.335.044.522.044.081,0,.161,0,.241,0,.187,0,.346-.04.522-.044s.336.044.523.044c.081,0,.169,0,.242,0,.187,0,.345-.04.521-.044s.334.044.521.044c.082,0,.162,0,.242,0,.187,0,.346-.04.522-.044s.335.044.522.044c.081,0,.162,0,.242,0,.187,0,.345-.04.521-.044.136,0,.262.028.4.039l-.027-.048a1.927,1.927,0,0,0-.233-.017c-.082,0-.162,0-.243,0-.187,0-.345.04-.521.044s-.335-.044-.522-.044c-.081,0-.162,0-.241,0-.187,0-.346.04-.522.044s-.335-.044-.522-.044c-.081,0-.162,0-.243,0-.187,0-.345.04-.521.044s-.334-.044-.521-.044c-.081,0-.161,0-.241,0-.187,0-.346.04-.522.044s-.335-.044-.522-.044c-.081,0-.162,0-.243,0Z" transform="translate(-14.224 -10.224)" fill="url(#linear-gradient-3)"/>
            <path id="Path_3516" data-name="Path 3516" d="M14.5,10.284a2.021,2.021,0,0,0-.251.019l-.026.045c.13-.012.251-.035.381-.038.176,0,.335.044.522.044.081,0,.161,0,.241,0,.187,0,.346-.04.522-.044s.336.044.523.044c.081,0,.169,0,.242,0,.187,0,.345-.04.521-.044s.334.044.521.044c.082,0,.162,0,.242,0,.187,0,.346-.04.522-.044s.335.044.522.044c.081,0,.162,0,.242,0,.187,0,.345-.04.521-.044.136,0,.262.028.4.039l-.027-.048a1.927,1.927,0,0,0-.233-.017c-.082,0-.162,0-.243,0-.187,0-.345.04-.521.044s-.335-.044-.522-.044c-.081,0-.162,0-.241,0-.187,0-.346.04-.522.044s-.335-.044-.522-.044c-.081,0-.162,0-.243,0-.187,0-.345.04-.521.044s-.334-.044-.521-.044c-.081,0-.161,0-.241,0-.187,0-.346.04-.522.044s-.335-.044-.522-.044c-.081,0-.162,0-.243,0Z" transform="translate(-14.224 -10.283)" fill="url(#linear-gradient-3)"/>
          </g>
          <g id="Group_509" data-name="Group 509" transform="translate(0.073 0.266)">
            <path id="h-3" data-name="h" d="M14.5,10.284a2.021,2.021,0,0,0-.251.019l-.026.045c.13-.012.251-.035.381-.038.176,0,.335.044.522.044.081,0,.161,0,.241,0,.187,0,.346-.04.522-.044s.336.044.523.044c.081,0,.169,0,.242,0,.187,0,.345-.04.521-.044s.334.044.521.044c.082,0,.162,0,.242,0,.187,0,.346-.04.522-.044s.335.044.522.044c.081,0,.162,0,.242,0,.187,0,.345-.04.521-.044.136,0,.262.028.4.039l-.027-.048a1.927,1.927,0,0,0-.233-.017c-.082,0-.162,0-.243,0-.187,0-.345.04-.521.044s-.335-.044-.522-.044c-.081,0-.162,0-.241,0-.187,0-.346.04-.522.044s-.335-.044-.522-.044c-.081,0-.162,0-.243,0-.187,0-.345.04-.521.044s-.334-.044-.521-.044c-.081,0-.161,0-.241,0-.187,0-.346.04-.522.044s-.335-.044-.522-.044c-.081,0-.162,0-.243,0Z" transform="translate(-14.224 -10.165)" fill="url(#linear-gradient-3)"/>
            <path id="Path_3517" data-name="Path 3517" d="M14.5,10.284a2.021,2.021,0,0,0-.251.019l-.026.045c.13-.012.251-.035.381-.038.176,0,.335.044.522.044.081,0,.161,0,.241,0,.187,0,.346-.04.522-.044s.336.044.523.044c.081,0,.169,0,.242,0,.187,0,.345-.04.521-.044s.334.044.521.044c.082,0,.162,0,.242,0,.187,0,.346-.04.522-.044s.335.044.522.044c.081,0,.162,0,.242,0,.187,0,.345-.04.521-.044.136,0,.262.028.4.039l-.027-.048a1.927,1.927,0,0,0-.233-.017c-.082,0-.162,0-.243,0-.187,0-.345.04-.521.044s-.335-.044-.522-.044c-.081,0-.162,0-.241,0-.187,0-.346.04-.522.044s-.335-.044-.522-.044c-.081,0-.162,0-.243,0-.187,0-.345.04-.521.044s-.334-.044-.521-.044c-.081,0-.161,0-.241,0-.187,0-.346.04-.522.044s-.335-.044-.522-.044c-.081,0-.162,0-.243,0Z" transform="translate(-14.224 -10.224)" fill="url(#linear-gradient-3)"/>
            <path id="Path_3518" data-name="Path 3518" d="M14.5,10.284a2.021,2.021,0,0,0-.251.019l-.026.045c.13-.012.251-.035.381-.038.176,0,.335.044.522.044.081,0,.161,0,.241,0,.187,0,.346-.04.522-.044s.336.044.523.044c.081,0,.169,0,.242,0,.187,0,.345-.04.521-.044s.334.044.521.044c.082,0,.162,0,.242,0,.187,0,.346-.04.522-.044s.335.044.522.044c.081,0,.162,0,.242,0,.187,0,.345-.04.521-.044.136,0,.262.028.4.039l-.027-.048a1.927,1.927,0,0,0-.233-.017c-.082,0-.162,0-.243,0-.187,0-.345.04-.521.044s-.335-.044-.522-.044c-.081,0-.162,0-.241,0-.187,0-.346.04-.522.044s-.335-.044-.522-.044c-.081,0-.162,0-.243,0-.187,0-.345.04-.521.044s-.334-.044-.521-.044c-.081,0-.161,0-.241,0-.187,0-.346.04-.522.044s-.335-.044-.522-.044c-.081,0-.162,0-.243,0Z" transform="translate(-14.224 -10.283)" fill="url(#linear-gradient-3)"/>
          </g>
          <path id="Path_3519" data-name="Path 3519" d="M14.56,9.839l-.007.011h5l-.007-.011Zm-.012.02-.007.012h5.026l-.007-.012H14.549Zm-.011.018-.011.019h5.056l-.011-.019H14.538Zm-.017.029-.013.023H19.6l-.013-.023H14.521Zm-.021.037-.013.023h5.137l-.013-.023Zm-.021.037L14.465,10h5.179l-.013-.023Zm-.021.037-.013.023h5.222l-.013-.023Zm-.023.04-.016.028h5.273l-.016-.028H14.434Zm.346.039c.184.035.2,0,.2,0Zm4.347,0s.018.035.2,0Z" transform="translate(-14.023 -9.839)" fill="url(#linear-gradient-12)"/>
        </g>
        <g id="Group_514" data-name="Group 514" transform="translate(0.239 3.769)">
          <g id="k" transform="translate(3.037)">
            <path id="Path_3520" data-name="Path 3520" d="M17.682,9.505a.134.134,0,0,0-.119.046,1.43,1.43,0,0,1-1.205,1.138h-.431v.574h3.281l-.33-.584A1.5,1.5,0,0,1,17.8,9.551a.137.137,0,0,0-.12-.046Z" transform="translate(-15.927 -9.505)" fill="url(#linear-gradient-13)"/>
            <path id="Path_3521" data-name="Path 3521" d="M17.673,9.519a.152.152,0,0,0-.082.019c-.014.009-.017.015-.017.015h0a1.793,1.793,0,0,1-.444.784,1.11,1.11,0,0,1-.779.364h-.409v.529h3.246l-.3-.536a1.163,1.163,0,0,1-.664-.357,1.792,1.792,0,0,1-.444-.784h0a.057.057,0,0,0-.018-.014.15.15,0,0,0-.082-.02Z" transform="translate(-15.918 -9.496)" fill="#97c924"/>
            <path id="Path_3522" data-name="Path 3522" d="M17.406,9.519l.022,0c0,.161,0,.433,0,.576a.723.723,0,0,1-.107.344c-.029.083-.053.051-.125.152a1.359,1.359,0,0,1-.274.065,2.086,2.086,0,0,1-.581.007,1.23,1.23,0,0,0,.521-.326,1.63,1.63,0,0,0,.114-.128,1.794,1.794,0,0,0,.161-.239c.019-.033.037-.067.053-.1.025-.052.047-.1.067-.157.007-.018.013-.036.019-.053.012-.035.022-.071.032-.106h0s0-.007.017-.015a.119.119,0,0,1,.031-.013h0a.192.192,0,0,1,.05-.006Z" transform="translate(-15.651 -9.496)" fill="#ede71f"/>
            <path id="Path_3523" data-name="Path 3523" d="M17.22,9.565a1.571,1.571,0,0,1-.354.95.413.413,0,0,1-.3.12A2.051,2.051,0,0,0,17.22,9.565Z" transform="translate(-15.502 -9.466)" fill="#c6cb24"/>
            <path id="Path_3524" data-name="Path 3524" d="M17.032,9.9a1.657,1.657,0,0,1-.471.536,1.448,1.448,0,0,1-.15,0,1.4,1.4,0,0,0,.621-.538Z" transform="translate(-15.604 -9.244)" fill="#9ecb34"/>
          </g>
          <g id="Group_511" data-name="Group 511" transform="translate(2.218)">
            <path id="Path_3525" data-name="Path 3525" d="M17.682,9.505a.134.134,0,0,0-.119.046,1.43,1.43,0,0,1-1.205,1.138h-.431v.574h3.281l-.33-.584A1.5,1.5,0,0,1,17.8,9.551a.137.137,0,0,0-.12-.046Z" transform="translate(-15.927 -9.505)" fill="url(#linear-gradient-13)"/>
            <path id="Path_3526" data-name="Path 3526" d="M17.673,9.519a.152.152,0,0,0-.082.019c-.014.009-.017.015-.017.015h0a1.793,1.793,0,0,1-.444.784,1.11,1.11,0,0,1-.779.364h-.409v.529h3.246l-.3-.536a1.163,1.163,0,0,1-.664-.357,1.792,1.792,0,0,1-.444-.784h0a.057.057,0,0,0-.018-.014.15.15,0,0,0-.082-.02Z" transform="translate(-15.918 -9.496)" fill="#97c924"/>
            <path id="Path_3527" data-name="Path 3527" d="M17.406,9.519l.022,0c0,.161,0,.433,0,.576a.723.723,0,0,1-.107.344c-.029.083-.053.051-.125.152a1.359,1.359,0,0,1-.274.065,2.086,2.086,0,0,1-.581.007,1.23,1.23,0,0,0,.521-.326,1.63,1.63,0,0,0,.114-.128,1.794,1.794,0,0,0,.161-.239c.019-.033.037-.067.053-.1.025-.052.047-.1.067-.157.007-.018.013-.036.019-.053.012-.035.022-.071.032-.106h0s0-.007.017-.015a.119.119,0,0,1,.031-.013h0a.192.192,0,0,1,.05-.006Z" transform="translate(-15.651 -9.496)" fill="#ede71f"/>
            <path id="Path_3528" data-name="Path 3528" d="M17.22,9.565a1.571,1.571,0,0,1-.354.95.413.413,0,0,1-.3.12A2.051,2.051,0,0,0,17.22,9.565Z" transform="translate(-15.502 -9.466)" fill="#c6cb24"/>
            <path id="Path_3529" data-name="Path 3529" d="M17.032,9.9a1.657,1.657,0,0,1-.471.536,1.448,1.448,0,0,1-.15,0,1.4,1.4,0,0,0,.621-.538Z" transform="translate(-15.604 -9.244)" fill="#9ecb34"/>
          </g>
          <g id="Group_512" data-name="Group 512" transform="translate(1.401 0)">
            <path id="Path_3530" data-name="Path 3530" d="M16.821,9.552a1.429,1.429,0,0,0,1.2,1.138h.431v.574H14.946v-.574h.431a1.43,1.43,0,0,0,1.205-1.138.178.178,0,0,1,.239,0Z" transform="translate(-14.946 -9.505)" fill="url(#linear-gradient-15)"/>
            <path id="Path_3531" data-name="Path 3531" d="M16.692,9.519a.15.15,0,0,1,.082.02.059.059,0,0,1,.018.014h0a1.792,1.792,0,0,0,.444.784,1.112,1.112,0,0,0,.78.364h.407v.529H14.96V10.7h.409a1.11,1.11,0,0,0,.779-.364,1.792,1.792,0,0,0,.444-.784h0s0-.007.017-.015A.153.153,0,0,1,16.692,9.519Z" transform="translate(-14.937 -9.496)" fill="#97c924"/>
            <path id="Path_3532" data-name="Path 3532" d="M16.388,9.521l-.013,0h0a.117.117,0,0,0-.031.013c-.014.009-.017.015-.017.015h0c-.009.036-.02.071-.032.107-.006.018-.012.035-.019.053-.02.053-.042.105-.067.157q-.025.051-.053.1a1.793,1.793,0,0,1-.161.239,1.639,1.639,0,0,1-.114.128,1.229,1.229,0,0,1-.521.326.755.755,0,0,0,.349-.024,1.866,1.866,0,0,0,.322-.065.315.315,0,0,0,.077-.152,1.276,1.276,0,0,0,.178-.356,1.434,1.434,0,0,0,.1-.545Z" transform="translate(-14.67 -9.495)" fill="#ede71f"/>
            <path id="Path_3533" data-name="Path 3533" d="M16.239,9.565a1.571,1.571,0,0,1-.354.95.413.413,0,0,1-.3.12A2.051,2.051,0,0,0,16.239,9.565Z" transform="translate(-14.521 -9.466)" fill="#c6cb24"/>
            <path id="Path_3534" data-name="Path 3534" d="M16.051,9.9a1.656,1.656,0,0,1-.471.536,1.448,1.448,0,0,1-.15,0,1.4,1.4,0,0,0,.621-.538Z" transform="translate(-14.623 -9.244)" fill="#9ecb34"/>
            <path id="Path_3535" data-name="Path 3535" d="M16.031,9.523h0a.118.118,0,0,1,.03.013c.014.009.017.015.017.015h0c.009.035.02.071.032.106.006.018.012.035.019.053.02.053.042.105.067.157.017.034.034.068.053.1a1.794,1.794,0,0,0,.161.239,1.637,1.637,0,0,0,.114.128,1.279,1.279,0,0,0,.521.347c-.386,0-.554-.034-.695-.214a1,1,0,0,1-.221-.37,2.007,2.007,0,0,1-.1-.576Z" transform="translate(-14.223 -9.494)" fill="#ede71f"/>
            <path id="Path_3536" data-name="Path 3536" d="M16.047,9.565a1.4,1.4,0,0,0,.351.887.413.413,0,0,0,.3.12A1.658,1.658,0,0,1,16.047,9.565Z" transform="translate(-14.212 -9.466)" fill="#c6cb24"/>
          </g>
          <g id="l" transform="translate(0.823)">
            <path id="Path_3537" data-name="Path 3537" d="M16.121,9.505a.137.137,0,0,0-.12.046,1.8,1.8,0,0,1-1.147,1.27l-.255.442h2.614v-.605a1.55,1.55,0,0,1-.973-1.107.134.134,0,0,0-.119-.046Z" transform="translate(-14.599 -9.505)" fill="url(#linear-gradient-16)"/>
            <path id="Path_3538" data-name="Path 3538" d="M16.116,9.519a.15.15,0,0,0-.082.02.057.057,0,0,0-.018.014h0a2.311,2.311,0,0,1-.431.8,1.372,1.372,0,0,1-.749.484l-.228.394H17.17v-.57a1.237,1.237,0,0,1-.509-.323,1.792,1.792,0,0,1-.444-.784h0s0-.007-.017-.015a.153.153,0,0,0-.082-.019Z" transform="translate(-14.594 -9.496)" fill="#97c924"/>
            <path id="Path_3539" data-name="Path 3539" d="M15.845,9.565c-.033.482-.3,1.091-.6,1.2a1.881,1.881,0,0,1-.332.054A1.917,1.917,0,0,0,15.845,9.565Z" transform="translate(-14.393 -9.466)" fill="#93bc30"/>
            <path id="Path_3540" data-name="Path 3540" d="M15.521,9.519l-.022,0c0,.161,0,.433,0,.576a.724.724,0,0,0,.107.344.244.244,0,0,0,.011.026c.022.058.038.078.122.142a1.185,1.185,0,0,0,.79.215c-.061-.048-.126-.091-.183-.132a1.392,1.392,0,0,0,.241-.027,1.23,1.23,0,0,1-.521-.326q-.039-.04-.075-.083l-.032-.043a1.867,1.867,0,0,1-.168-.241q-.028-.05-.053-.1a1.815,1.815,0,0,1-.086-.21q-.018-.053-.032-.106h0s0-.007-.017-.015a.118.118,0,0,0-.031-.013h0A.193.193,0,0,0,15.521,9.519Z" transform="translate(-13.999 -9.496)" fill="#ede71f"/>
            <path id="Path_3541" data-name="Path 3541" d="M15.534,9.565a1.571,1.571,0,0,0,.354.95.413.413,0,0,0,.3.12A2.05,2.05,0,0,1,15.534,9.565Z" transform="translate(-13.975 -9.466)" fill="#ccd11e"/>
            <path id="Path_3542" data-name="Path 3542" d="M15.668,9.832a1.863,1.863,0,0,0,.776.8,1.14,1.14,0,0,0,.135,0A2.074,2.074,0,0,1,15.668,9.832Z" transform="translate(-13.886 -9.288)" fill="#9ecb34"/>
          </g>
          <g id="Group_513" data-name="Group 513" transform="translate(0)">
            <path id="Path_3543" data-name="Path 3543" d="M16.121,9.505a.137.137,0,0,0-.12.046,1.8,1.8,0,0,1-1.147,1.27l-.255.442h2.614v-.605a1.55,1.55,0,0,1-.973-1.107.134.134,0,0,0-.119-.046Z" transform="translate(-14.599 -9.505)" fill="url(#linear-gradient-16)"/>
            <path id="Path_3544" data-name="Path 3544" d="M16.116,9.519a.15.15,0,0,0-.082.02.057.057,0,0,0-.018.014h0a2.311,2.311,0,0,1-.431.8,1.372,1.372,0,0,1-.749.484l-.228.394H17.17v-.57a1.237,1.237,0,0,1-.509-.323,1.792,1.792,0,0,1-.444-.784h0s0-.007-.017-.015a.153.153,0,0,0-.082-.019Z" transform="translate(-14.594 -9.496)" fill="#97c924"/>
            <path id="Path_3545" data-name="Path 3545" d="M15.845,9.565c-.033.482-.3,1.091-.6,1.2a1.881,1.881,0,0,1-.332.054A1.917,1.917,0,0,0,15.845,9.565Z" transform="translate(-14.393 -9.466)" fill="#93bc30"/>
            <path id="Path_3546" data-name="Path 3546" d="M15.521,9.519l-.022,0c0,.161,0,.433,0,.576a.724.724,0,0,0,.107.344.244.244,0,0,0,.011.026c.022.058.038.078.122.142a1.185,1.185,0,0,0,.79.215c-.061-.048-.126-.091-.183-.132a1.392,1.392,0,0,0,.241-.027,1.23,1.23,0,0,1-.521-.326q-.039-.04-.075-.083l-.032-.043a1.867,1.867,0,0,1-.168-.241q-.028-.05-.053-.1a1.815,1.815,0,0,1-.086-.21q-.018-.053-.032-.106h0s0-.007-.017-.015a.118.118,0,0,0-.031-.013h0A.193.193,0,0,0,15.521,9.519Z" transform="translate(-13.999 -9.496)" fill="#ede71f"/>
            <path id="Path_3547" data-name="Path 3547" d="M15.534,9.565a1.571,1.571,0,0,0,.354.95.413.413,0,0,0,.3.12A2.05,2.05,0,0,1,15.534,9.565Z" transform="translate(-13.975 -9.466)" fill="#ccd11e"/>
            <path id="Path_3548" data-name="Path 3548" d="M15.668,9.832a1.863,1.863,0,0,0,.776.8,1.14,1.14,0,0,0,.135,0A2.074,2.074,0,0,1,15.668,9.832Z" transform="translate(-13.886 -9.288)" fill="#9ecb34"/>
          </g>
        </g>
        <g id="Group_517" data-name="Group 517" transform="translate(0.002 5.159)">
          <path id="Path_3549" data-name="Path 3549" d="M20.372,10.392c-.031.011-.236-.01-.343,0l-.068.018c-.06,0-.119,0-.178,0-.192,0-.355.051-.537.051s-.345-.051-.537-.051c-.06,0-.119,0-.178,0-.192,0-.355.051-.537.051s-.345-.051-.537-.051c-.06,0-.12,0-.179,0-.192,0-.354.051-.536.051s-.344-.051-.536-.051h-.178c-.192,0-.354.051-.537.051s-.345-.051-.537-.051h-.178c-.154,0-.332.032-.477.045l-.335.579h6.792Z" transform="translate(-13.962 -10.307)" fill="#fff"/>
          <path id="Path_3550" data-name="Path 3550" d="M19.822,10.34H19.79c-.173.005-.3.059-.6.059s-.332-.054-.671-.047c-.317.007-.45.067-.622.065a5.747,5.747,0,0,0-.667-.015c-.215.023-.471.068-.639.069a5.9,5.9,0,0,0-.635-.017,4.036,4.036,0,0,1-.59.079c-.232,0-.484-.037-.68-.037a3.265,3.265,0,0,0-.538.077l-.045.078c.12-.014.456-.065.576-.068s.572.026.818.017.275-.063.566-.063c.2,0,.356.021.564.021.13,0,.248-.066.445-.066l.149,0a3.736,3.736,0,0,1,.643.012c.177.009.291-.033.475-.039.08,0,.16,0,.239-.008.185-.006.343.034.516.033s.341-.049.526-.055c.081,0,.16,0,.239-.008a2.5,2.5,0,0,1,.441.027l-.045-.077c-.127,0-.283-.034-.436-.034Z" transform="translate(-13.867 -10.34)" fill="url(#linear-gradient-18)"/>
          <g id="n" transform="translate(0.016 0.483)">
            <path id="m" d="M14.7,10.712c-.184,0-.341.045-.515.05A1.7,1.7,0,0,1,14,10.744l-.026.045c.026,0,.052,0,.079,0,.08,0,.159,0,.239,0,.184,0,.34-.045.514-.05s.331.05.516.05c.08,0,.16,0,.239,0,.184,0,.342-.045.516-.05s.332.05.517.05c.08,0,.16,0,.238,0,.184,0,.341-.045.515-.05s.33.05.515.05c.081,0,.16,0,.239,0,.184,0,.342-.045.516-.05s.331.05.516.05c.08,0,.16,0,.238,0,.184,0,.341-.045.515-.05s.331.05.516.05c.08,0,.16,0,.239,0,.032,0,.064,0,.095,0l-.025-.043a1.6,1.6,0,0,1-.173.016c-.174,0-.33-.05-.515-.05-.081,0-.16,0-.239,0-.184,0-.341.045-.515.05s-.331-.05-.516-.05c-.08,0-.16,0-.239,0-.184,0-.342.045-.516.05s-.331-.05-.516-.05c-.08,0-.16,0-.239,0-.184,0-.341.045-.515.05s-.33-.05-.515-.05c-.08,0-.159,0-.239,0-.185,0-.342.046-.516.05s-.331-.05-.516-.05c-.08,0-.16,0-.239,0Z" transform="translate(-13.972 -10.574)" fill="url(#linear-gradient-18)"/>
            <path id="Path_3551" data-name="Path 3551" d="M14.7,10.712c-.184,0-.341.045-.515.05A1.7,1.7,0,0,1,14,10.744l-.026.045c.026,0,.052,0,.079,0,.08,0,.159,0,.239,0,.184,0,.34-.045.514-.05s.331.05.516.05c.08,0,.16,0,.239,0,.184,0,.342-.045.516-.05s.332.05.517.05c.08,0,.16,0,.238,0,.184,0,.341-.045.515-.05s.33.05.515.05c.081,0,.16,0,.239,0,.184,0,.342-.045.516-.05s.331.05.516.05c.08,0,.16,0,.238,0,.184,0,.341-.045.515-.05s.331.05.516.05c.08,0,.16,0,.239,0,.032,0,.064,0,.095,0l-.025-.043a1.6,1.6,0,0,1-.173.016c-.174,0-.33-.05-.515-.05-.081,0-.16,0-.239,0-.184,0-.341.045-.515.05s-.331-.05-.516-.05c-.08,0-.16,0-.239,0-.184,0-.342.045-.516.05s-.331-.05-.516-.05c-.08,0-.16,0-.239,0-.184,0-.341.045-.515.05s-.33-.05-.515-.05c-.08,0-.159,0-.239,0-.185,0-.342.046-.516.05s-.331-.05-.516-.05c-.08,0-.16,0-.239,0Z" transform="translate(-13.972 -10.643)" fill="url(#linear-gradient-18)"/>
            <path id="Path_3552" data-name="Path 3552" d="M14.7,10.712c-.184,0-.341.045-.515.05A1.7,1.7,0,0,1,14,10.744l-.026.045c.026,0,.052,0,.079,0,.08,0,.159,0,.239,0,.184,0,.34-.045.514-.05s.331.05.516.05c.08,0,.16,0,.239,0,.184,0,.342-.045.516-.05s.332.05.517.05c.08,0,.16,0,.238,0,.184,0,.341-.045.515-.05s.33.05.515.05c.081,0,.16,0,.239,0,.184,0,.342-.045.516-.05s.331.05.516.05c.08,0,.16,0,.238,0,.184,0,.341-.045.515-.05s.331.05.516.05c.08,0,.16,0,.239,0,.032,0,.064,0,.095,0l-.025-.043a1.6,1.6,0,0,1-.173.016c-.174,0-.33-.05-.515-.05-.081,0-.16,0-.239,0-.184,0-.341.045-.515.05s-.331-.05-.516-.05c-.08,0-.16,0-.239,0-.184,0-.342.045-.516.05s-.331-.05-.516-.05c-.08,0-.16,0-.239,0-.184,0-.341.045-.515.05s-.33-.05-.515-.05c-.08,0-.159,0-.239,0-.185,0-.342.046-.516.05s-.331-.05-.516-.05c-.08,0-.16,0-.239,0Z" transform="translate(-13.972 -10.712)" fill="url(#linear-gradient-18)"/>
          </g>
          <g id="Group_515" data-name="Group 515" transform="translate(0.016 0.277)">
            <path id="m-2" data-name="m" d="M14.7,10.712c-.184,0-.341.045-.515.05A1.7,1.7,0,0,1,14,10.744l-.026.045c.026,0,.052,0,.079,0,.08,0,.159,0,.239,0,.184,0,.34-.045.514-.05s.331.05.516.05c.08,0,.16,0,.239,0,.184,0,.342-.045.516-.05s.332.05.517.05c.08,0,.16,0,.238,0,.184,0,.341-.045.515-.05s.33.05.515.05c.081,0,.16,0,.239,0,.184,0,.342-.045.516-.05s.331.05.516.05c.08,0,.16,0,.238,0,.184,0,.341-.045.515-.05s.331.05.516.05c.08,0,.16,0,.239,0,.032,0,.064,0,.095,0l-.025-.043a1.6,1.6,0,0,1-.173.016c-.174,0-.33-.05-.515-.05-.081,0-.16,0-.239,0-.184,0-.341.045-.515.05s-.331-.05-.516-.05c-.08,0-.16,0-.239,0-.184,0-.342.045-.516.05s-.331-.05-.516-.05c-.08,0-.16,0-.239,0-.184,0-.341.045-.515.05s-.33-.05-.515-.05c-.08,0-.159,0-.239,0-.185,0-.342.046-.516.05s-.331-.05-.516-.05c-.08,0-.16,0-.239,0Z" transform="translate(-13.972 -10.574)" fill="url(#linear-gradient-18)"/>
            <path id="Path_3553" data-name="Path 3553" d="M14.7,10.712c-.184,0-.341.045-.515.05A1.7,1.7,0,0,1,14,10.744l-.026.045c.026,0,.052,0,.079,0,.08,0,.159,0,.239,0,.184,0,.34-.045.514-.05s.331.05.516.05c.08,0,.16,0,.239,0,.184,0,.342-.045.516-.05s.332.05.517.05c.08,0,.16,0,.238,0,.184,0,.341-.045.515-.05s.33.05.515.05c.081,0,.16,0,.239,0,.184,0,.342-.045.516-.05s.331.05.516.05c.08,0,.16,0,.238,0,.184,0,.341-.045.515-.05s.331.05.516.05c.08,0,.16,0,.239,0,.032,0,.064,0,.095,0l-.025-.043a1.6,1.6,0,0,1-.173.016c-.174,0-.33-.05-.515-.05-.081,0-.16,0-.239,0-.184,0-.341.045-.515.05s-.331-.05-.516-.05c-.08,0-.16,0-.239,0-.184,0-.342.045-.516.05s-.331-.05-.516-.05c-.08,0-.16,0-.239,0-.184,0-.341.045-.515.05s-.33-.05-.515-.05c-.08,0-.159,0-.239,0-.185,0-.342.046-.516.05s-.331-.05-.516-.05c-.08,0-.16,0-.239,0Z" transform="translate(-13.972 -10.643)" fill="url(#linear-gradient-18)"/>
            <path id="Path_3554" data-name="Path 3554" d="M14.7,10.712c-.184,0-.341.045-.515.05A1.7,1.7,0,0,1,14,10.744l-.026.045c.026,0,.052,0,.079,0,.08,0,.159,0,.239,0,.184,0,.34-.045.514-.05s.331.05.516.05c.08,0,.16,0,.239,0,.184,0,.342-.045.516-.05s.332.05.517.05c.08,0,.16,0,.238,0,.184,0,.341-.045.515-.05s.33.05.515.05c.081,0,.16,0,.239,0,.184,0,.342-.045.516-.05s.331.05.516.05c.08,0,.16,0,.238,0,.184,0,.341-.045.515-.05s.331.05.516.05c.08,0,.16,0,.239,0,.032,0,.064,0,.095,0l-.025-.043a1.6,1.6,0,0,1-.173.016c-.174,0-.33-.05-.515-.05-.081,0-.16,0-.239,0-.184,0-.341.045-.515.05s-.331-.05-.516-.05c-.08,0-.16,0-.239,0-.184,0-.342.045-.516.05s-.331-.05-.516-.05c-.08,0-.16,0-.239,0-.184,0-.341.045-.515.05s-.33-.05-.515-.05c-.08,0-.159,0-.239,0-.185,0-.342.046-.516.05s-.331-.05-.516-.05c-.08,0-.16,0-.239,0Z" transform="translate(-13.972 -10.712)" fill="url(#linear-gradient-18)"/>
          </g>
          <g id="Group_516" data-name="Group 516" transform="translate(0.016 0.071)">
            <path id="m-3" data-name="m" d="M14.7,10.712c-.184,0-.341.045-.515.05A1.7,1.7,0,0,1,14,10.744l-.026.045c.026,0,.052,0,.079,0,.08,0,.159,0,.239,0,.184,0,.34-.045.514-.05s.331.05.516.05c.08,0,.16,0,.239,0,.184,0,.342-.045.516-.05s.332.05.517.05c.08,0,.16,0,.238,0,.184,0,.341-.045.515-.05s.33.05.515.05c.081,0,.16,0,.239,0,.184,0,.342-.045.516-.05s.331.05.516.05c.08,0,.16,0,.238,0,.184,0,.341-.045.515-.05s.331.05.516.05c.08,0,.16,0,.239,0,.032,0,.064,0,.095,0l-.025-.043a1.6,1.6,0,0,1-.173.016c-.174,0-.33-.05-.515-.05-.081,0-.16,0-.239,0-.184,0-.341.045-.515.05s-.331-.05-.516-.05c-.08,0-.16,0-.239,0-.184,0-.342.045-.516.05s-.331-.05-.516-.05c-.08,0-.16,0-.239,0-.184,0-.341.045-.515.05s-.33-.05-.515-.05c-.08,0-.159,0-.239,0-.185,0-.342.046-.516.05s-.331-.05-.516-.05c-.08,0-.16,0-.239,0Z" transform="translate(-13.972 -10.574)" fill="url(#linear-gradient-18)"/>
            <path id="Path_3555" data-name="Path 3555" d="M14.7,10.712c-.184,0-.341.045-.515.05A1.7,1.7,0,0,1,14,10.744l-.026.045c.026,0,.052,0,.079,0,.08,0,.159,0,.239,0,.184,0,.34-.045.514-.05s.331.05.516.05c.08,0,.16,0,.239,0,.184,0,.342-.045.516-.05s.332.05.517.05c.08,0,.16,0,.238,0,.184,0,.341-.045.515-.05s.33.05.515.05c.081,0,.16,0,.239,0,.184,0,.342-.045.516-.05s.331.05.516.05c.08,0,.16,0,.238,0,.184,0,.341-.045.515-.05s.331.05.516.05c.08,0,.16,0,.239,0,.032,0,.064,0,.095,0l-.025-.043a1.6,1.6,0,0,1-.173.016c-.174,0-.33-.05-.515-.05-.081,0-.16,0-.239,0-.184,0-.341.045-.515.05s-.331-.05-.516-.05c-.08,0-.16,0-.239,0-.184,0-.342.045-.516.05s-.331-.05-.516-.05c-.08,0-.16,0-.239,0-.184,0-.341.045-.515.05s-.33-.05-.515-.05c-.08,0-.159,0-.239,0-.185,0-.342.046-.516.05s-.331-.05-.516-.05c-.08,0-.16,0-.239,0Z" transform="translate(-13.972 -10.643)" fill="url(#linear-gradient-18)"/>
            <path id="Path_3556" data-name="Path 3556" d="M14.7,10.712c-.184,0-.341.045-.515.05A1.7,1.7,0,0,1,14,10.744l-.026.045c.026,0,.052,0,.079,0,.08,0,.159,0,.239,0,.184,0,.34-.045.514-.05s.331.05.516.05c.08,0,.16,0,.239,0,.184,0,.342-.045.516-.05s.332.05.517.05c.08,0,.16,0,.238,0,.184,0,.341-.045.515-.05s.33.05.515.05c.081,0,.16,0,.239,0,.184,0,.342-.045.516-.05s.331.05.516.05c.08,0,.16,0,.238,0,.184,0,.341-.045.515-.05s.331.05.516.05c.08,0,.16,0,.239,0,.032,0,.064,0,.095,0l-.025-.043a1.6,1.6,0,0,1-.173.016c-.174,0-.33-.05-.515-.05-.081,0-.16,0-.239,0-.184,0-.341.045-.515.05s-.331-.05-.516-.05c-.08,0-.16,0-.239,0-.184,0-.342.045-.516.05s-.331-.05-.516-.05c-.08,0-.16,0-.239,0-.184,0-.341.045-.515.05s-.33-.05-.515-.05c-.08,0-.159,0-.239,0-.185,0-.342.046-.516.05s-.331-.05-.516-.05c-.08,0-.16,0-.239,0Z" transform="translate(-13.972 -10.712)" fill="url(#linear-gradient-18)"/>
          </g>
        </g>
        <path id="Path_3557" data-name="Path 3557" d="M14.255,10.463l-.129.224a3.611,3.611,0,0,1,.567-.091c.2,0,.431.048.663.049a4.043,4.043,0,0,0,.59-.079,5.84,5.84,0,0,1,.635.029c.168,0,.423-.058.639-.081a5.958,5.958,0,0,1,.672.02c.26,0,.3-.063.617-.07.34-.008.371.047.671.047a4.544,4.544,0,0,0,.622-.06,3.5,3.5,0,0,1,.443.006l-.1-.173h0l-5.4.119Z" transform="translate(-13.852 -5.218)" fill="#97c924"/>
        <path id="Path_3558" data-name="Path 3558" d="M17.6,10.389s.145.008.205.015l.158.013-.02-.026C17.915,10.4,17.709,10.382,17.6,10.389Z" transform="translate(-11.534 -5.148)" fill="#fff"/>
      </g>
      <path id="Path_3560" data-name="Path 3560" d="M17.387,7.2l-1.714,2.97L13.92,13.2h6.933l-1.715-2.97Zm0,.16,1.683,2.915,1.645,2.849H14.059l1.683-2.914Z" transform="translate(9.28 4.797)" fill="#c8a400"/>
    </g>
  </g>
</svg>
