<svg xmlns="http://www.w3.org/2000/svg" xmlns:xlink="http://www.w3.org/1999/xlink" width="32" height="32" viewBox="0 0 32 32">
  <defs>
    <clipPath id="clip-path">
      <circle id="North-East" cx="16" cy="16" r="16" transform="translate(477 2007)" fill="#fff"/>
    </clipPath>
  </defs>
  <g id="North_East" data-name="North East" transform="translate(-477 -2007)" clip-path="url(#clip-path)">
    <g id="Flag_of_the_United_States" transform="translate(468.6 2007)">
      <rect id="Rectangle_103" data-name="Rectangle 103" width="60.8" height="32" fill="#b22234"/>
      <path id="Path_1299" data-name="Path 1299" d="M0,1.943H60.8m0,4.923H0m0,4.923H60.8m0,4.923H0m0,4.923H60.8m0,4.923H0" transform="translate(0 1.749)" stroke="#fff" stroke-width="1.296"/>
      <rect id="Rectangle_104" data-name="Rectangle 104" width="24.32" height="17.231" fill="#3c3b6e"/>
      <g id="Group_309" data-name="Group 309" transform="translate(1.09 0.738)">
        <g id="s18">
          <g id="s9">
            <g id="s5">
              <g id="s4">
                <path id="s" d="M1.51.389,2.089,2.17.574,1.069H2.447L.931,2.17Z" transform="translate(-0.574 -0.389)" fill="#fff"/>
                <path id="Path_1300" data-name="Path 1300" d="M1.51.389,2.089,2.17.574,1.069H2.447L.931,2.17Z" transform="translate(-0.574 3.057)" fill="#fff"/>
                <path id="Path_1301" data-name="Path 1301" d="M1.51.389,2.089,2.17.574,1.069H2.447L.931,2.17Z" transform="translate(-0.574 6.504)" fill="#fff"/>
                <path id="Path_1302" data-name="Path 1302" d="M1.51.389,2.089,2.17.574,1.069H2.447L.931,2.17Z" transform="translate(-0.574 9.95)" fill="#fff"/>
              </g>
              <path id="Path_1303" data-name="Path 1303" d="M1.51.389,2.089,2.17.574,1.069H2.447L.931,2.17Z" transform="translate(-0.574 13.396)" fill="#fff"/>
            </g>
            <g id="Group_299" data-name="Group 299" transform="translate(2.027 1.723)">
              <path id="s-2" data-name="s" d="M1.51.389,2.089,2.17.574,1.069H2.447L.931,2.17Z" transform="translate(-0.574 -0.389)" fill="#fff"/>
              <path id="Path_1304" data-name="Path 1304" d="M1.51.389,2.089,2.17.574,1.069H2.447L.931,2.17Z" transform="translate(-0.574 3.057)" fill="#fff"/>
              <path id="Path_1305" data-name="Path 1305" d="M1.51.389,2.089,2.17.574,1.069H2.447L.931,2.17Z" transform="translate(-0.574 6.504)" fill="#fff"/>
              <path id="Path_1306" data-name="Path 1306" d="M1.51.389,2.089,2.17.574,1.069H2.447L.931,2.17Z" transform="translate(-0.574 9.95)" fill="#fff"/>
            </g>
          </g>
          <g id="Group_301" data-name="Group 301" transform="translate(4.053)">
            <g id="s5-2" data-name="s5" transform="translate(0)">
              <g id="s4-2" data-name="s4">
                <path id="s-3" data-name="s" d="M1.51.389,2.089,2.17.574,1.069H2.447L.931,2.17Z" transform="translate(-0.574 -0.389)" fill="#fff"/>
                <path id="Path_1307" data-name="Path 1307" d="M1.51.389,2.089,2.17.574,1.069H2.447L.931,2.17Z" transform="translate(-0.574 3.057)" fill="#fff"/>
                <path id="Path_1308" data-name="Path 1308" d="M1.51.389,2.089,2.17.574,1.069H2.447L.931,2.17Z" transform="translate(-0.574 6.504)" fill="#fff"/>
                <path id="Path_1309" data-name="Path 1309" d="M1.51.389,2.089,2.17.574,1.069H2.447L.931,2.17Z" transform="translate(-0.574 9.95)" fill="#fff"/>
              </g>
              <path id="Path_1310" data-name="Path 1310" d="M1.51.389,2.089,2.17.574,1.069H2.447L.931,2.17Z" transform="translate(-0.574 13.396)" fill="#fff"/>
            </g>
            <g id="Group_300" data-name="Group 300" transform="translate(2.027 1.723)">
              <path id="s-4" data-name="s" d="M1.51.389,2.089,2.17.574,1.069H2.447L.931,2.17Z" transform="translate(-0.574 -0.389)" fill="#fff"/>
              <path id="Path_1311" data-name="Path 1311" d="M1.51.389,2.089,2.17.574,1.069H2.447L.931,2.17Z" transform="translate(-0.574 3.057)" fill="#fff"/>
              <path id="Path_1312" data-name="Path 1312" d="M1.51.389,2.089,2.17.574,1.069H2.447L.931,2.17Z" transform="translate(-0.574 6.504)" fill="#fff"/>
              <path id="Path_1313" data-name="Path 1313" d="M1.51.389,2.089,2.17.574,1.069H2.447L.931,2.17Z" transform="translate(-0.574 9.95)" fill="#fff"/>
            </g>
          </g>
        </g>
        <g id="Group_305" data-name="Group 305" transform="translate(8.107)">
          <g id="s9-2" data-name="s9" transform="translate(0)">
            <g id="s5-3" data-name="s5">
              <g id="s4-3" data-name="s4">
                <path id="s-5" data-name="s" d="M1.51.389,2.089,2.17.574,1.069H2.447L.931,2.17Z" transform="translate(-0.574 -0.389)" fill="#fff"/>
                <path id="Path_1314" data-name="Path 1314" d="M1.51.389,2.089,2.17.574,1.069H2.447L.931,2.17Z" transform="translate(-0.574 3.057)" fill="#fff"/>
                <path id="Path_1315" data-name="Path 1315" d="M1.51.389,2.089,2.17.574,1.069H2.447L.931,2.17Z" transform="translate(-0.574 6.504)" fill="#fff"/>
                <path id="Path_1316" data-name="Path 1316" d="M1.51.389,2.089,2.17.574,1.069H2.447L.931,2.17Z" transform="translate(-0.574 9.95)" fill="#fff"/>
              </g>
              <path id="Path_1317" data-name="Path 1317" d="M1.51.389,2.089,2.17.574,1.069H2.447L.931,2.17Z" transform="translate(-0.574 13.396)" fill="#fff"/>
            </g>
            <g id="Group_302" data-name="Group 302" transform="translate(2.027 1.723)">
              <path id="s-6" data-name="s" d="M1.51.389,2.089,2.17.574,1.069H2.447L.931,2.17Z" transform="translate(-0.574 -0.389)" fill="#fff"/>
              <path id="Path_1318" data-name="Path 1318" d="M1.51.389,2.089,2.17.574,1.069H2.447L.931,2.17Z" transform="translate(-0.574 3.057)" fill="#fff"/>
              <path id="Path_1319" data-name="Path 1319" d="M1.51.389,2.089,2.17.574,1.069H2.447L.931,2.17Z" transform="translate(-0.574 6.504)" fill="#fff"/>
              <path id="Path_1320" data-name="Path 1320" d="M1.51.389,2.089,2.17.574,1.069H2.447L.931,2.17Z" transform="translate(-0.574 9.95)" fill="#fff"/>
            </g>
          </g>
          <g id="Group_304" data-name="Group 304" transform="translate(4.053)">
            <g id="s5-4" data-name="s5" transform="translate(0)">
              <g id="s4-4" data-name="s4">
                <path id="s-7" data-name="s" d="M1.51.389,2.089,2.17.574,1.069H2.447L.931,2.17Z" transform="translate(-0.574 -0.389)" fill="#fff"/>
                <path id="Path_1321" data-name="Path 1321" d="M1.51.389,2.089,2.17.574,1.069H2.447L.931,2.17Z" transform="translate(-0.574 3.057)" fill="#fff"/>
                <path id="Path_1322" data-name="Path 1322" d="M1.51.389,2.089,2.17.574,1.069H2.447L.931,2.17Z" transform="translate(-0.574 6.504)" fill="#fff"/>
                <path id="Path_1323" data-name="Path 1323" d="M1.51.389,2.089,2.17.574,1.069H2.447L.931,2.17Z" transform="translate(-0.574 9.95)" fill="#fff"/>
              </g>
              <path id="Path_1324" data-name="Path 1324" d="M1.51.389,2.089,2.17.574,1.069H2.447L.931,2.17Z" transform="translate(-0.574 13.396)" fill="#fff"/>
            </g>
            <g id="Group_303" data-name="Group 303" transform="translate(2.027 1.723)">
              <path id="s-8" data-name="s" d="M1.51.389,2.089,2.17.574,1.069H2.447L.931,2.17Z" transform="translate(-0.574 -0.389)" fill="#fff"/>
              <path id="Path_1325" data-name="Path 1325" d="M1.51.389,2.089,2.17.574,1.069H2.447L.931,2.17Z" transform="translate(-0.574 3.057)" fill="#fff"/>
              <path id="Path_1326" data-name="Path 1326" d="M1.51.389,2.089,2.17.574,1.069H2.447L.931,2.17Z" transform="translate(-0.574 6.504)" fill="#fff"/>
              <path id="Path_1327" data-name="Path 1327" d="M1.51.389,2.089,2.17.574,1.069H2.447L.931,2.17Z" transform="translate(-0.574 9.95)" fill="#fff"/>
            </g>
          </g>
        </g>
        <g id="Group_307" data-name="Group 307" transform="translate(16.213)">
          <g id="s5-5" data-name="s5" transform="translate(0)">
            <g id="s4-5" data-name="s4">
              <path id="s-9" data-name="s" d="M1.51.389,2.089,2.17.574,1.069H2.447L.931,2.17Z" transform="translate(-0.574 -0.389)" fill="#fff"/>
              <path id="Path_1328" data-name="Path 1328" d="M1.51.389,2.089,2.17.574,1.069H2.447L.931,2.17Z" transform="translate(-0.574 3.057)" fill="#fff"/>
              <path id="Path_1329" data-name="Path 1329" d="M1.51.389,2.089,2.17.574,1.069H2.447L.931,2.17Z" transform="translate(-0.574 6.504)" fill="#fff"/>
              <path id="Path_1330" data-name="Path 1330" d="M1.51.389,2.089,2.17.574,1.069H2.447L.931,2.17Z" transform="translate(-0.574 9.95)" fill="#fff"/>
            </g>
            <path id="Path_1331" data-name="Path 1331" d="M1.51.389,2.089,2.17.574,1.069H2.447L.931,2.17Z" transform="translate(-0.574 13.396)" fill="#fff"/>
          </g>
          <g id="Group_306" data-name="Group 306" transform="translate(2.027 1.723)">
            <path id="s-10" data-name="s" d="M1.51.389,2.089,2.17.574,1.069H2.447L.931,2.17Z" transform="translate(-0.574 -0.389)" fill="#fff"/>
            <path id="Path_1332" data-name="Path 1332" d="M1.51.389,2.089,2.17.574,1.069H2.447L.931,2.17Z" transform="translate(-0.574 3.057)" fill="#fff"/>
            <path id="Path_1333" data-name="Path 1333" d="M1.51.389,2.089,2.17.574,1.069H2.447L.931,2.17Z" transform="translate(-0.574 6.504)" fill="#fff"/>
            <path id="Path_1334" data-name="Path 1334" d="M1.51.389,2.089,2.17.574,1.069H2.447L.931,2.17Z" transform="translate(-0.574 9.95)" fill="#fff"/>
          </g>
        </g>
        <g id="Group_308" data-name="Group 308" transform="translate(20.267)">
          <g id="s4-6" data-name="s4" transform="translate(0)">
            <path id="s-11" data-name="s" d="M1.51.389,2.089,2.17.574,1.069H2.447L.931,2.17Z" transform="translate(-0.574 -0.389)" fill="#fff"/>
            <path id="Path_1335" data-name="Path 1335" d="M1.51.389,2.089,2.17.574,1.069H2.447L.931,2.17Z" transform="translate(-0.574 3.057)" fill="#fff"/>
            <path id="Path_1336" data-name="Path 1336" d="M1.51.389,2.089,2.17.574,1.069H2.447L.931,2.17Z" transform="translate(-0.574 6.504)" fill="#fff"/>
            <path id="Path_1337" data-name="Path 1337" d="M1.51.389,2.089,2.17.574,1.069H2.447L.931,2.17Z" transform="translate(-0.574 9.95)" fill="#fff"/>
          </g>
          <path id="Path_1338" data-name="Path 1338" d="M1.51.389,2.089,2.17.574,1.069H2.447L.931,2.17Z" transform="translate(-0.574 13.396)" fill="#fff"/>
        </g>
      </g>
    </g>
  </g>
</svg>
