<svg xmlns="http://www.w3.org/2000/svg" xmlns:xlink="http://www.w3.org/1999/xlink" width="32" height="32" viewBox="0 0 32 32">
  <defs>
    <clipPath id="clip-path">
      <circle id="North_Macedonia" data-name="North Macedonia" cx="16" cy="16" r="16" transform="translate(1117 454)" fill="#fff"/>
    </clipPath>
  </defs>
  <g id="North_Macedonia-2" data-name="North Macedonia" transform="translate(-1117 -454)" clip-path="url(#clip-path)">
    <g id="Flag_of_North_Macedonia" transform="translate(1117 462)">
      <path id="Path_455" data-name="Path 455" d="M-16-8H48V24H-16Z" fill="#d82126"/>
      <path id="Path_456" data-name="Path 456" d="M-16,11.2V4.8l64,6.4V4.8ZM12.8-8h6.4L16,4.571Zm6.4,32H12.8L16,11.429ZM-16-8h9.6L18.939,9.765Zm0,32h9.6L18.939,6.235ZM48-8H38.4L13.061,9.765Zm0,32H38.4L13.061,6.235Z" fill="#f8e92e"/>
      <circle id="Ellipse_129" data-name="Ellipse 129" cx="5.714" cy="5.714" r="5.714" transform="translate(10.286 2.286)" fill="#d82126"/>
      <circle id="Ellipse_130" data-name="Ellipse 130" cx="4.571" cy="4.571" r="4.571" transform="translate(11.429 3.429)" fill="#f8e92e"/>
    </g>
  </g>
</svg>
