<svg xmlns="http://www.w3.org/2000/svg" xmlns:xlink="http://www.w3.org/1999/xlink" width="32" height="32" viewBox="0 0 32 32">
  <defs>
    <clipPath id="clip-path">
      <circle id="Panama" cx="16" cy="16" r="16" transform="translate(637 2137)" fill="#fff"/>
    </clipPath>
  </defs>
  <g id="panama-2" data-name="panama" transform="translate(-637 -2137)" clip-path="url(#clip-path)">
    <g id="Flag_of_Panama" transform="translate(629 2137)">
      <path id="Path_3561" data-name="Path 3561" d="M0,0H48V32H0Z" fill="#fff"/>
      <g id="Group_523" data-name="Group 523" transform="translate(0 4)">
        <g id="c" transform="translate(13.608 2)">
          <g id="b" transform="translate(2.49)">
            <path id="a" d="M0,0V4H2Z" transform="translate(1.902 0) rotate(18)" fill="#005293"/>
            <path id="Path_3562" data-name="Path 3562" d="M0,4V0H2Z" transform="translate(3.138 3.804) rotate(162)" fill="#005293"/>
          </g>
          <g id="Group_519" data-name="Group 519" transform="translate(7.609 0.955) rotate(72)">
            <path id="a-2" data-name="a" d="M0,0V4H2Z" transform="translate(1.902 0) rotate(18)" fill="#005293"/>
            <path id="Path_3563" data-name="Path 3563" d="M0,4V0H2Z" transform="translate(3.138 3.804) rotate(162)" fill="#005293"/>
          </g>
          <g id="Group_520" data-name="Group 520" transform="matrix(-0.809, 0.588, -0.588, -0.809, 8.282, 6.118)">
            <path id="a-3" data-name="a" d="M0,0V4H2Z" transform="translate(1.902 0) rotate(18)" fill="#005293"/>
            <path id="Path_3564" data-name="Path 3564" d="M0,4V0H2Z" transform="translate(3.138 3.804) rotate(162)" fill="#005293"/>
          </g>
          <g id="Group_521" data-name="Group 521" transform="matrix(-0.809, -0.588, 0.588, -0.809, 3.58, 8.354)">
            <path id="a-4" data-name="a" d="M0,0V4H2Z" transform="translate(1.902 0) rotate(18)" fill="#005293"/>
            <path id="Path_3565" data-name="Path 3565" d="M0,4V0H2Z" transform="translate(3.138 3.804) rotate(162)" fill="#005293"/>
          </g>
          <g id="Group_522" data-name="Group 522" transform="translate(0 4.573) rotate(-72)">
            <path id="a-5" data-name="a" d="M0,0V4H2Z" transform="translate(1.902 0) rotate(18)" fill="#005293"/>
            <path id="Path_3566" data-name="Path 3566" d="M0,4V0H2Z" transform="translate(3.138 3.804) rotate(162)" fill="#005293"/>
          </g>
        </g>
        <path id="Path_3567" data-name="Path 3567" d="M0,10.667H24v16H0Z" transform="translate(0 1.333)" fill="#005293"/>
      </g>
      <g id="Group_529" data-name="Group 529" transform="translate(24)">
        <path id="Path_3568" data-name="Path 3568" d="M16,0H40V16H16Z" transform="translate(-16)" fill="#d21034"/>
        <g id="Group_528" data-name="Group 528" transform="translate(2.608 18)">
          <g id="b-2" data-name="b" transform="translate(2.49)">
            <path id="a-6" data-name="a" d="M0,0V4H2Z" transform="translate(1.902 0) rotate(18)" fill="#005293"/>
            <path id="Path_3569" data-name="Path 3569" d="M0,4V0H2Z" transform="translate(3.138 3.804) rotate(162)" fill="#005293"/>
          </g>
          <g id="Group_524" data-name="Group 524" transform="translate(7.609 0.955) rotate(72)">
            <path id="a-7" data-name="a" d="M0,0V4H2Z" transform="translate(1.902 0) rotate(18)" fill="#005293"/>
            <path id="Path_3570" data-name="Path 3570" d="M0,4V0H2Z" transform="translate(3.138 3.804) rotate(162)" fill="#005293"/>
          </g>
          <g id="Group_525" data-name="Group 525" transform="matrix(-0.809, 0.588, -0.588, -0.809, 8.282, 6.118)">
            <path id="a-8" data-name="a" d="M0,0V4H2Z" transform="translate(1.902 0) rotate(18)" fill="#005293"/>
            <path id="Path_3571" data-name="Path 3571" d="M0,4V0H2Z" transform="translate(3.138 3.804) rotate(162)" fill="#005293"/>
          </g>
          <g id="Group_526" data-name="Group 526" transform="matrix(-0.809, -0.588, 0.588, -0.809, 3.58, 8.354)">
            <path id="a-9" data-name="a" d="M0,0V4H2Z" transform="translate(1.902 0) rotate(18)" fill="#005293"/>
            <path id="Path_3572" data-name="Path 3572" d="M0,4V0H2Z" transform="translate(3.138 3.804) rotate(162)" fill="#005293"/>
          </g>
          <g id="Group_527" data-name="Group 527" transform="translate(0 4.573) rotate(-72)">
            <path id="a-10" data-name="a" d="M0,0V4H2Z" transform="translate(1.902 0) rotate(18)" fill="#005293"/>
            <path id="Path_3573" data-name="Path 3573" d="M0,4V0H2Z" transform="translate(3.138 3.804) rotate(162)" fill="#005293"/>
          </g>
        </g>
      </g>
    </g>
  </g>
</svg>
