<svg xmlns="http://www.w3.org/2000/svg" xmlns:xlink="http://www.w3.org/1999/xlink" width="32" height="32" viewBox="0 0 32 32">
  <defs>
    <clipPath id="clip-path">
      <circle id="Paraguay" cx="16" cy="16" r="16" transform="translate(1117 2007)" fill="#fff"/>
    </clipPath>
  </defs>
  <g id="Paraguay-2" data-name="Paraguay" transform="translate(-1117 -2007)" clip-path="url(#clip-path)">
    <g id="Flag_of_Paraguay" transform="translate(1103.909 2007)">
      <path id="Path_1532" data-name="Path 1532" d="M0,0H58.182V32H0Z" fill="#0038a8"/>
      <path id="Path_1533" data-name="Path 1533" d="M0,0H58.182V21.333H0Z" fill="#fff"/>
      <path id="Path_1534" data-name="Path 1534" d="M0,0H58.182V10.667H0Z" fill="#d52b1e"/>
      <path id="Path_1535" data-name="Path 1535" d="M21.881,10.624a4.056,4.056,0,1,1-4.056-4.055A4.056,4.056,0,0,1,21.881,10.624Z" transform="translate(11.266 5.375)" fill="#fff" stroke="#000" stroke-miterlimit="10" stroke-width="0.098"/>
      <path id="Path_1536" data-name="Path 1536" d="M17.123,8.454c-.1,0-.1.1-.1.1s0-.032,0,0,.016.124.089.131.1-.083.1-.126c0-.017-.006-.111-.093-.113" transform="translate(13.929 6.917)" fill="#009b3a" stroke="#000" stroke-width="0.026"/>
      <path id="Path_1537" data-name="Path 1537" d="M14.9,11.86l-.035-.058a.224.224,0,0,0-.027-.033.04.04,0,0,0-.027-.013.048.048,0,0,0-.032.006.045.045,0,0,0-.024.033.093.093,0,0,0,.019.058l.035.06Zm.343-.02L14.8,12.1l-.135-.226a.381.381,0,0,1-.046-.1.115.115,0,0,1,.008-.078.142.142,0,0,1,.06-.064.153.153,0,0,1,.072-.022.145.145,0,0,1,.069.018.221.221,0,0,1,.046.037.168.168,0,0,1-.005-.045.292.292,0,0,1,.011-.035.344.344,0,0,1,.015-.035l.089-.142.091.154-.091.153a.126.126,0,0,0-.019.045.072.072,0,0,0,.009.039l.008.013.179-.106Zm-.777-.359-.135-.4.1-.035.084.252.078-.026-.079-.234.1-.033.078.233.1-.031-.086-.26.11-.038.137.41Zm.014-.819-.005-.038a.1.1,0,0,0-.023-.062.055.055,0,0,0-.043-.014.063.063,0,0,0-.038.02.079.079,0,0,0-.009.062l0,.045Zm-.2.184-.031-.262a.185.185,0,0,1,.025-.133.156.156,0,0,1,.111-.056.158.158,0,0,1,.126.032.208.208,0,0,1,.06.137l.01.086.189-.022.019.158Zm-.018-1,.016-.158.3.033a.268.268,0,0,1,.083.023.172.172,0,0,1,.066.052.182.182,0,0,1,.036.068.316.316,0,0,1,0,.112.577.577,0,0,1-.014.08.207.207,0,0,1-.029.071.187.187,0,0,1-.049.05.161.161,0,0,1-.062.027.282.282,0,0,1-.088.005l-.3-.032.016-.158.311.034a.082.082,0,0,0,.1-.077.086.086,0,0,0-.016-.066.088.088,0,0,0-.063-.03Zm.51-.431.027-.076a.093.093,0,0,0,0-.06.048.048,0,0,0-.031-.028.044.044,0,0,0-.04,0,.09.09,0,0,0-.033.05l-.027.076Zm-.19-.067.023-.064a.077.077,0,0,0,0-.054.042.042,0,0,0-.03-.025.044.044,0,0,0-.038,0,.076.076,0,0,0-.028.043l-.024.066Zm-.242.085.1-.281a.166.166,0,0,1,.073-.1.122.122,0,0,1,.1-.007.124.124,0,0,1,.064.053.136.136,0,0,1,.014.063.137.137,0,0,1,.069-.061.127.127,0,0,1,.086,0,.142.142,0,0,1,.061.041.152.152,0,0,1,.031.065.18.18,0,0,1,0,.062c-.008.036-.013.059-.017.07l-.09.258Zm.261-.657.083-.135.33.2.129-.211.108.066-.21.346Zm.339-.5.1-.121.391.331-.1.121Zm.711-.276.133-.057a.265.265,0,0,1,.028.1.2.2,0,0,1-.019.093.314.314,0,0,1-.074.088.338.338,0,0,1-.121.069.226.226,0,0,1-.126-.007.3.3,0,0,1-.129-.1.27.27,0,0,1-.073-.193.3.3,0,0,1,.246-.242.224.224,0,0,1,.14.039l-.088.114a.106.106,0,0,0-.034-.016.077.077,0,0,0-.043,0,.09.09,0,0,0-.039.019.093.093,0,0,0-.036.086.188.188,0,0,0,.047.091.2.2,0,0,0,.095.073.1.1,0,0,0,.113-.085.158.158,0,0,0-.021-.079m.519-.308-.134-.139.034.19Zm.08.084-.161.082.016.087-.144.073L15.9,7.468l.154-.079.4.37-.148.075Zm.624-.535.039.277.039-.006a.16.16,0,0,0,.069-.021.076.076,0,0,0,.026-.043.226.226,0,0,0,0-.089.173.173,0,0,0-.042-.106.114.114,0,0,0-.092-.017ZM16.7,7.143l.233-.034a.283.283,0,0,1,.113,0,.186.186,0,0,1,.079.044.222.222,0,0,1,.051.075.36.36,0,0,1,.027.1.315.315,0,0,1,0,.128.217.217,0,0,1-.04.083.171.171,0,0,1-.065.05.356.356,0,0,1-.092.028l-.233.033Zm.7-.1.423.031-.008.109-.265-.02-.006.081.246.018-.009.1-.244-.017-.007.1.273.02-.009.116-.431-.032Zm.652.06.152.042-.105.373.238.067-.035.121-.39-.111Zm.865.569.033.021a.1.1,0,0,0,.062.022.048.048,0,0,0,.038-.024.063.063,0,0,0,.01-.043A.086.086,0,0,0,19.02,7.6l-.038-.026Zm-.013-.27.22.145a.179.179,0,0,1,.084.1.15.15,0,0,1-.028.121.156.156,0,0,1-.105.075.2.2,0,0,1-.143-.042l-.072-.048-.1.159-.133-.088Zm.556.782.089-.171-.17.092Zm-.054.1-.129-.126L19.2,8.2l-.115-.113.237-.109.261-.121.123.121-.223.5-.118-.117Zm.476.222.036.057a.212.212,0,0,0,.028.032.042.042,0,0,0,.028.012.044.044,0,0,0,.03-.008.048.048,0,0,0,.024-.033.094.094,0,0,0-.021-.057l-.037-.058Zm-.343.03.432-.276.142.222a.437.437,0,0,1,.051.1.125.125,0,0,1-.007.078.142.142,0,0,1-.057.065.135.135,0,0,1-.072.024.156.156,0,0,1-.07-.014.265.265,0,0,1-.047-.037.18.18,0,0,1,.007.045.28.28,0,0,1-.009.035.188.188,0,0,1-.015.036l-.084.145-.1-.151.087-.155a.108.108,0,0,0,.017-.046.057.057,0,0,0-.011-.039L19.8,8.561l-.176.112Zm.606.69.154-.116-.192.011Zm-.093.069-.062-.17-.087.006-.056-.152.548.006.059.162-.416.357-.057-.157Zm.245.545.106-.014.031.244-.217.026a.487.487,0,0,1-.08-.115.4.4,0,0,1-.033-.125.3.3,0,0,1,.013-.151.215.215,0,0,1,.08-.1.312.312,0,0,1,.136-.048.287.287,0,0,1,.149.016.225.225,0,0,1,.106.088.318.318,0,0,1,.042.136.353.353,0,0,1,0,.128.153.153,0,0,1-.039.076.2.2,0,0,1-.075.051l-.046-.148a.082.082,0,0,0,.04-.038.105.105,0,0,0,.008-.058.109.109,0,0,0-.046-.078.177.177,0,0,0-.118-.016.185.185,0,0,0-.114.045.117.117,0,0,0-.024.092.165.165,0,0,0,.014.049.32.32,0,0,0,.033.053l.048-.007Zm.325.769-.018.157-.3-.034a.258.258,0,0,1-.084-.024.185.185,0,0,1-.066-.052.182.182,0,0,1-.035-.067.334.334,0,0,1,0-.113c0-.025.008-.052.014-.081a.207.207,0,0,1,.03-.071.2.2,0,0,1,.049-.049.177.177,0,0,1,.063-.026.267.267,0,0,1,.088,0l.3.035-.018.157-.311-.036a.09.09,0,0,0-.068.016.086.086,0,0,0-.03.061.085.085,0,0,0,.016.066.093.093,0,0,0,.062.031Zm-.472.583.193.007-.156-.114Zm-.115-.006.058-.17-.072-.051.053-.153.421.35-.058.164-.546.013.054-.157Zm.283.472-.089.152h-.2l.1.177-.089.15-.156-.323-.185-.109.081-.137.185.11Z" transform="translate(11.643 5.763)"/>
      <path id="Path_1538" data-name="Path 1538" d="M20.923,10.328a3.4,3.4,0,1,1-3.4-3.394,3.4,3.4,0,0,1,3.4,3.394Z" transform="translate(11.563 5.673)" fill="none" stroke="#000" stroke-miterlimit="10" stroke-width="0.039"/>
      <path id="Path_1539" data-name="Path 1539" d="M19.663,9.93A2.527,2.527,0,1,1,17.137,7.4,2.526,2.526,0,0,1,19.663,9.93Z" transform="translate(11.953 6.058)" fill="none" stroke="#000" stroke-miterlimit="10" stroke-width="0.039"/>
      <path id="Path_1540" data-name="Path 1540" d="M16.385,8.294,16.6,8.9l.642.014-.512.389.186.616-.529-.366-.529.366.185-.616-.512-.389.643-.014Z" transform="translate(12.705 6.786)" fill="#fedf00" stroke="#000" stroke-width="0.016"/>
      <path id="Path_1541" data-name="Path 1541" d="M17.027,10.071a.43.43,0,0,1-.13.031c-.023,0-.114,0-.152.005-.021,0-.062.007-.083.007-.186-.021.3-.018.365-.044m-.486-.144c.012-.022.073-.157.095-.2s.073-.138.1-.18c.016-.023.076-.088.091-.059a1.023,1.023,0,0,0-.233.357.881.881,0,0,1-.053.087c-.012.015-.007.044-.027.047s-.006.006-.006.006.018-.039.031-.062Zm.7.1A.929.929,0,0,1,17.1,10a.7.7,0,0,0-.213-.029.583.583,0,0,0-.2.046.5.5,0,0,1-.137.024s-.044.007-.023,0,.087-.063.087-.063l.044-.06c.013,0,.234-.295.21-.373.034-.058.074-.16.059-.178a.642.642,0,0,0-.209.086.361.361,0,0,0-.084.156c-.012.043-.076.079-.076.079a.461.461,0,0,0-.107.252c-.018.1-.253.148-.253.148s-.065.024-.007.043c.01,0,.036.046.056.047s.174-.059.2-.054q.074.017.147.04a.215.215,0,0,0,.14.014.287.287,0,0,1,.138,0,.251.251,0,0,0,.115,0,.917.917,0,0,0,.1-.051s.082-.035.129-.058.019-.032.019-.032" transform="translate(13.23 7.661)" fill="#009b3a" stroke="#000" stroke-width="0.02"/>
      <path id="Path_1542" data-name="Path 1542" d="M16.777,10.015s-.323-.169-.341-.173-.147-.077-.209-.1a.434.434,0,0,0-.13-.017.969.969,0,0,0-.14.027l.08.033s.075.037.112.057c.053.028.055.062.055.062l.293.129.059.043s.054-.075.22-.064" transform="translate(13.056 7.96)" fill="#009b3a" stroke="#000" stroke-width="0.016"/>
      <path id="Path_1543" data-name="Path 1543" d="M16.76,9.7c.1-.091.151-.22.235-.291.014.01.014.026,0,.054s-.037.038-.046.052a1.2,1.2,0,0,0-.082.091.175.175,0,0,1-.072.083c-.044.026-.03.068-.034.086s-.072.068-.1.128c-.006.063-.009.036-.047.059A2.647,2.647,0,0,0,16.76,9.7m-.228.287c-.007.014-.207.128-.144.111s.248-.083.3-.107a.543.543,0,0,0,.151-.135,1.76,1.76,0,0,0,.228-.251c.026-.058.049-.138-.054-.319a.232.232,0,0,1-.055.068,1.012,1.012,0,0,1-.095.073l-.066.063s-.234.43-.265.5" transform="translate(13.398 7.601)" fill="#009b3a" stroke="#000" stroke-width="0.021"/>
      <path id="Path_1544" data-name="Path 1544" d="M17.208,10.078l-.139-.011c-.012,0-.082-.01-.185-.01a.2.2,0,0,0-.166.063c-.029.032-.109.1-.109.1l.043,0a.267.267,0,0,1,.214-.053.459.459,0,0,0,.176-.034c.1-.037.1,0,.087,0a.541.541,0,0,1-.155.031c-.077,0-.145.019-.176.019s-.256.062-.256.062.244.014.271.023a.137.137,0,0,0,.1-.011.73.73,0,0,1,.174-.06.343.343,0,0,0,.085-.034.162.162,0,0,0,.048-.057c.024-.042-.013-.031-.013-.031m.12-.67a.511.511,0,0,1,.095-.163.329.329,0,0,1,.091-.042c.01,0,.08-.007-.008.017a.182.182,0,0,0-.107.068.525.525,0,0,1-.114.214.429.429,0,0,0-.068.1l-.045.016a.526.526,0,0,0,.157-.21Zm.4-.048a.232.232,0,0,0-.063.029.38.38,0,0,0-.193.151.414.414,0,0,1-.167.1.884.884,0,0,0-.181.11s-.032.007-.026.022.03,0,.03,0a1.078,1.078,0,0,0,.295-.082.379.379,0,0,0,.139-.141c.024-.036.05-.1.051-.06,0,.115-.175.227-.253.261a.816.816,0,0,1-.17.037c-.072.013-.115.009-.11-.007s.016-.028.035-.05c.034-.041.117-.055.178-.084a.529.529,0,0,0,.174-.12.209.209,0,0,0,.057-.091.673.673,0,0,1,.053-.173c.088-.108.1-.143.105-.191,0-.011-.046.026-.07.039a.516.516,0,0,1-.162.053c-.1.025-.1.088-.112.118a.239.239,0,0,1-.063.071.364.364,0,0,0-.083.117c-.013.029-.036.05-.054.047a.851.851,0,0,1,.049-.248.446.446,0,0,0,.016-.124c0-.022,0-.079-.037-.085S17.123,9,17.123,9c-.091.079-.04.218-.03.3a1.043,1.043,0,0,1-.019.232c.088.038.019.144-.009.179s-.083.041-.108.072-.21.288-.21.288L16.977,10s.021,0-.013-.022.011-.121.041-.145a.143.143,0,0,1,.132-.012.5.5,0,0,0,.236-.035.544.544,0,0,0,.207-.165,1.344,1.344,0,0,0,.112-.179c.019-.032.054-.094.033-.087" transform="translate(13.535 7.362)" fill="#009b3a" stroke="#000" stroke-width="0.02"/>
      <path id="Path_1545" data-name="Path 1545" d="M16.883,9.6c.017-.007.02-.01.052-.045a.056.056,0,0,0-.045-.091c-.024,0-.049,0-.1.059s.022.086.047.089a.105.105,0,0,0,.042-.011" transform="translate(13.728 7.741)" fill="#009b3a" stroke="#000" stroke-width="0.022"/>
      <path id="Path_1546" data-name="Path 1546" d="M16.787,9.338c-.03.051-.047.109-.023.127a.1.1,0,0,0,.044.022.154.154,0,0,0,.1-.068c.028-.042.052-.089-.006-.118a.077.077,0,0,0-.111.037" transform="translate(13.706 7.601)" fill="#009b3a" stroke="#000" stroke-width="0.023"/>
      <path id="Path_1547" data-name="Path 1547" d="M16.965,9.029s0-.008-.015-.029a.853.853,0,0,1-.071-.09.168.168,0,0,0-.084.132.786.786,0,0,1,0,.155.5.5,0,0,1-.038.125.238.238,0,0,0,.012.174c.005.025.031.1.031.1a.2.2,0,0,1,.033-.018.258.258,0,0,1,.043,0,.344.344,0,0,0,.039-.107.8.8,0,0,0-.017-.149.42.42,0,0,1,0-.2.185.185,0,0,1,.071-.1" transform="translate(13.701 7.29)" fill="#009b3a" stroke="#000" stroke-width="0.02"/>
      <path id="Path_1548" data-name="Path 1548" d="M16.954,9.113a.091.091,0,0,0,.054-.041.138.138,0,0,0,.017-.081.073.073,0,0,0-.13-.021c-.067.136.059.142.059.142" transform="translate(13.807 7.312)" fill="#009b3a" stroke="#000" stroke-width="0.022"/>
      <path id="Path_1549" data-name="Path 1549" d="M17.144,8.926c-.083,0-.123.153-.123.153a.147.147,0,0,1-.057.065c-.047.029-.019.071-.019.144a.773.773,0,0,1-.052.2l-.019.044s0,.033.032-.027c.051-.1.107-.077.128-.186.013-.081.148-.107.148-.107l-.038-.007c-.14-.066.008-.229.032-.258s.05-.029-.032-.025" transform="translate(13.805 7.302)" fill="#009b3a" stroke="#000" stroke-width="0.026"/>
      <path id="Path_1550" data-name="Path 1550" d="M17.012,9.057c-.038.081.07.085.095.071A.232.232,0,0,0,17.14,9.1c.044-.063,0-.105-.019-.111s-.069-.013-.108.073" transform="translate(13.913 7.347)" fill="#009b3a" stroke="#000" stroke-width="0.022"/>
      <path id="Path_1551" data-name="Path 1551" d="M16.964,9.163c.028.053.107.2.126.19s0-.036,0-.036a.489.489,0,0,0-.015-.088.557.557,0,0,0-.035-.15.773.773,0,0,1-.106-.149.521.521,0,0,1,0-.2c0-.014.009,0,0-.019a.849.849,0,0,0-.112-.068.658.658,0,0,1,0,.109c0,.017-.006.037-.008.066s.015.063.055.144.07.151.1.2m.6-.7a.607.607,0,0,1-.039.058c-.011.011-.173.15-.182.156s-.093.033-.17.242a.859.859,0,0,0-.044.4l.038,0,.006-.02.022-.121A.628.628,0,0,1,17.3,9a.725.725,0,0,0,.066-.127,1.908,1.908,0,0,1,.108-.227c0,.073-.275.521-.3.673l.082-.013a2.023,2.023,0,0,0,.209-.267.717.717,0,0,0,.094-.265c.01-.056.008-.31.008-.31" transform="translate(13.756 6.927)" fill="#009b3a" stroke="#000" stroke-width="0.02"/>
      <path id="Path_1552" data-name="Path 1552" d="M16.955,8.842a.245.245,0,0,0-.074-.05,1.224,1.224,0,0,1,.01.122c0,.046,0,.124,0,.166a.351.351,0,0,0,.007.177,1.191,1.191,0,0,0,.088.142,1.93,1.93,0,0,1,.062.253,3.367,3.367,0,0,1,0-.368.8.8,0,0,0,0-.266.433.433,0,0,0-.09-.175m.191-.28A.464.464,0,0,0,17.2,8.41a.856.856,0,0,0,.006-.123c0-.025-.011-.067,0-.07s0,.013.007.05c0,.013-.006.049-.008.095a.4.4,0,0,1-.02.117c-.014.044,0,.093-.01.106s-.035.066-.035.066a.232.232,0,0,0-.013.081c0,.04,0,.082,0,.082a.084.084,0,0,1,.059-.04s.009-.066.009-.087a1.481,1.481,0,0,1,.04-.2.572.572,0,0,0,0-.29,1.3,1.3,0,0,1-.014-.137.264.264,0,0,0-.062.15c-.007.036.008.133,0,.236a2.282,2.282,0,0,1-.064.3" transform="translate(13.811 6.597)" fill="#009b3a" stroke="#000" stroke-width="0.02"/>
      <path id="Path_1553" data-name="Path 1553" d="M17.028,8.338l0,0a.011.011,0,0,0,0,0" transform="translate(13.93 6.822)" fill="#009b3a" stroke="#000" stroke-width="0.02"/>
      <path id="Path_1554" data-name="Path 1554" d="M17.152,8.094c.021,0,.021.023.017.041a.422.422,0,0,0,0,.06.634.634,0,0,0,.016.082.145.145,0,0,1,.015.087c0,.033-.038.072-.026.128a.545.545,0,0,0,.038.086.41.41,0,0,1,.006.1.1.1,0,0,0,.02.058s-.024.044-.031-.011a.47.47,0,0,0-.023-.12.259.259,0,0,1-.007-.2.182.182,0,0,0,.009-.063c0-.028-.017-.076-.021-.106s0-.073,0-.091m-.11.264a.406.406,0,0,0,.057.133.828.828,0,0,1,.045.111.375.375,0,0,1,.009.052c0,.007,0,.056,0,.056v.02s-.111-.065-.16-.1-.1-.083-.139-.112a.406.406,0,0,1-.136-.236l-.044-.04a.376.376,0,0,0,.124.331.787.787,0,0,0,.2.126c.106.049.092.093.136.186a1.406,1.406,0,0,1,.076.175c0,.029-.012.429-.012.429l0,.036a2.085,2.085,0,0,1,.143-.413s-.092-.014-.085-.159l-.016-.1a.382.382,0,0,1,.016-.187A.68.68,0,0,0,17.3,8.48c-.009-.068-.012-.088-.02-.153a2.292,2.292,0,0,0-.058-.263.634.634,0,0,0-.035-.1c0-.014-.014-.061-.029-.062s-.022.06-.022.06-.019.066-.023.084a1.034,1.034,0,0,0-.056.218c0,.022,0,.08-.007.088a.222.222,0,0,0,0,.054" transform="translate(13.651 6.467)" fill="#009b3a" stroke="#000" stroke-width="0.02"/>
      <path id="Path_1555" data-name="Path 1555" d="M17.177,8.887a.266.266,0,0,0-.033-.054.576.576,0,0,0-.2-.134c-.126-.063-.159-.166-.223-.208a.271.271,0,0,0-.086-.03s.056.077.069.1a.306.306,0,0,0,.091.122.483.483,0,0,0,.207.1.817.817,0,0,1,.179.1m-.4-.6a.684.684,0,0,0,.1.207.993.993,0,0,0,.305.226.887.887,0,0,0-.077-.219.681.681,0,0,0-.332-.22s0-.006,0,.005m.288.062c.054-.118-.107-.231-.153-.314.017-.013.037.022.055.045l.1.137.023-.108L16.9,7.939c0,.025-.062.046-.062.046-.029.162.227.368.227.368" transform="translate(13.607 6.495)" fill="#009b3a" stroke="#000" stroke-width="0.02"/>
      <path id="Path_1556" data-name="Path 1556" d="M16.716,8.057a.191.191,0,0,1-.063.021l.026.069.015.019s.06.087.1.1a.568.568,0,0,1,.307.167,1.962,1.962,0,0,1-.261-.372l-.024-.092-.068,0s.019.064-.028.086" transform="translate(13.625 6.518)" fill="#009b3a" stroke="#000" stroke-width="0.02"/>
      <path id="Path_1557" data-name="Path 1557" d="M16.315,7.968a.673.673,0,0,0,.1.076.929.929,0,0,0,.251.112l.133.017a.063.063,0,0,1,.058-.054L16.7,8.1a.43.43,0,0,1-.3-.149.787.787,0,0,0,.368.154c.488-.048-.147-.06-.2-.1a.522.522,0,0,1-.108-.1l-.143-.006s-.07,0,0,.058" transform="translate(13.321 6.471)" fill="#009b3a" stroke="#000" stroke-width="0.02"/>
      <path id="Path_1558" data-name="Path 1558" d="M16.656,8.221c.032,0,.054-.008.061-.043a.061.061,0,0,0-.055-.077.071.071,0,0,0-.09.038c-.02.047.053.077.053.077a.066.066,0,0,0,.031,0m.055-.28c-.041,0-.055.034-.047.1s.112.037.112.037l.019-.01s.014-.011.006-.063-.049-.064-.091-.064m.166.047h0" transform="translate(13.556 6.497)" fill="#009b3a" stroke="#000" stroke-width="0.02"/>
      <path id="Path_1559" data-name="Path 1559" d="M16.941,8.2l.015,0c.021-.008.042-.059.042-.059a.071.071,0,0,0-.038-.086c-.083-.016-.085.056-.085.056-.023.095.054.094.066.093m-.368-.325a.228.228,0,0,0,.056.085,1.073,1.073,0,0,1,.084.093c.019.027.083.148.083.148a.024.024,0,0,0,.016-.011.606.606,0,0,0-.048-.175.413.413,0,0,0-.085-.112.779.779,0,0,1-.063-.076,3.032,3.032,0,0,1,.25.378s-.005-.1-.011-.153a.457.457,0,0,0-.072-.227.253.253,0,0,0-.123-.1c-.042-.015-.091-.036-.144-.053s-.013.033.008.075a.491.491,0,0,1,.05.127" transform="translate(13.49 6.279)" fill="#009b3a" stroke="#000" stroke-width="0.02"/>
      <path id="Path_1560" data-name="Path 1560" d="M16.5,8.075a.293.293,0,0,0,.19.094c.113.018.122.01.122.01s.059-.028.029-.053a1.136,1.136,0,0,1-.4-.257s.014-.013.071.044a.668.668,0,0,0,.076.067,1.21,1.21,0,0,0,.147.087.651.651,0,0,0,.112.036s.011-.024.022-.027-.006-.04-.076-.1a.555.555,0,0,1-.1-.11s-.082-.018-.172-.033c-.067-.011-.192-.108-.19-.081a.448.448,0,0,0,.053.165.66.66,0,0,0,.12.156" transform="translate(13.359 6.341)" fill="#009b3a" stroke="#000" stroke-width="0.02"/>
      <path id="Path_1561" data-name="Path 1561" d="M16.143,9.786c-.049.014-.416.152-.416.152l-.1.041a.348.348,0,0,1,.25.039l.408-.189s0-.006-.011-.014a.192.192,0,0,0-.129-.03" transform="translate(12.784 8.004)" fill="#009b3a" stroke="#000" stroke-width="0.016"/>
      <path id="Path_1562" data-name="Path 1562" d="M15.617,9.906s-.005.012,0,.015.015.016.107.027a.237.237,0,0,0,.17-.025c.019-.021-.231-.059-.279-.017" transform="translate(12.776 8.089)" fill="#009b3a" stroke="#000" stroke-width="0.017"/>
      <path id="Path_1563" data-name="Path 1563" d="M15.364,9.412,15.347,9.3a1.826,1.826,0,0,0-.057-.372c-.007-.014,0-.046-.026-.046-.043,0-.043.1-.048.189a1.028,1.028,0,0,0,.3.812Z" transform="translate(12.443 7.264)" fill="#009b3a" stroke="#000" stroke-width="0.022"/>
      <path id="Path_1564" data-name="Path 1564" d="M16.3,9.96s-.039-.009-.014-.039a.2.2,0,0,1,.107-.044.338.338,0,0,1,.082.011c.029.007.07.033.058.052a.136.136,0,0,1-.106.04.339.339,0,0,1-.091-.007L16.3,9.96" transform="translate(13.321 8.081)" fill="#009b3a" stroke="#000" stroke-width="0.021"/>
      <path id="Path_1565" data-name="Path 1565" d="M17.139,11.507s-.126-.058-.246-.116a1.155,1.155,0,0,1-.479-.38,1.911,1.911,0,0,0-.343-.4c-.036-.026-.041-.036-.054-.017s0,.03.006.047c.034.055.117.159.147.215.052.1.158.208.157.273,0,.009-.031-.006-.031-.006a.622.622,0,0,1-.351-.388,1.278,1.278,0,0,1-.059-.393,1.175,1.175,0,0,0-.132-.429c0-.005-.059-.1-.067-.076a.406.406,0,0,0,.01.124l.01.112s-.008.25-.008.265-.063.171.2.433c0,0,0,.045-.032.005a.86.86,0,0,1-.275-.417,1.124,1.124,0,0,1-.023-.584.952.952,0,0,0,.088-.507c0-.02-.01-.08-.023-.064s-.029.106-.044.14-.052.092-.061.124a.476.476,0,0,0-.093.294.982.982,0,0,0,.053.269c.007.023.025.082.014.088s-.048-.07-.048-.07a.859.859,0,0,1-.065-.6,1.788,1.788,0,0,1,.37-.523s.215-.178.259-.22c.017-.016.013-.028.007-.026a.821.821,0,0,0-.612.592s-.008.021-.018.016,0-.029,0-.029a.947.947,0,0,1,.346-.508c.279-.174.246-.148.338-.2a.517.517,0,0,0,.175-.192.3.3,0,0,0,.029-.085c0-.011-.015,0-.021.022a.451.451,0,0,1-.2.163c-.118.041-.215-.017-.334.114a1.751,1.751,0,0,0-.214.316s-.031.047-.038.046.006-.05.006-.05.159-.338.287-.406a2.545,2.545,0,0,0,.315-.192,3.622,3.622,0,0,0,.3-.3c.012-.013.093-.1.111-.122s.037-.036.033-.04-.089.029-.089.029a1.329,1.329,0,0,0-.684.512.656.656,0,0,1-.056.072.216.216,0,0,0-.042.077c-.017-.014.148-.221.148-.221l.029-.134a1.138,1.138,0,0,1,.152-.343c.01-.013.071-.074.081-.087s-.039.019-.028.01a.953.953,0,0,0-.393.638.386.386,0,0,1-.095.2.633.633,0,0,0-.113.286q-.017.087-.036.173s0,.051-.013.047-.011-.046-.011-.046a3.326,3.326,0,0,1,.069-.347c.028-.079.046-.133.046-.133a.872.872,0,0,1,.028-.309,2.2,2.2,0,0,1,.147-.252.7.7,0,0,0,.063-.2c0-.014-.009,0-.027.037a.882.882,0,0,1-.15.215.817.817,0,0,0-.248.525s0,.146-.024.376a1.533,1.533,0,0,0,.017.42c.012.058.035.058.021.066s.006,0-.015-.043a.577.577,0,0,1-.045-.245c0-.2.018-.369.018-.369a.816.816,0,0,0-.124-.48c-.007-.008.024.067.038.142a.833.833,0,0,1-.023.271,1.169,1.169,0,0,0-.068.474,2.343,2.343,0,0,0,.177.517s.062.073.007,0a2.6,2.6,0,0,1-.176-.362.965.965,0,0,0-.164-.259,1.275,1.275,0,0,0-.146-.1s-.058-.044-.014.015.082.13.1.166a1.951,1.951,0,0,1,.124.234c.036.079.119.311.119.311l.053.147a.644.644,0,0,1,.138.1,1.007,1.007,0,0,1,.191.324.624.624,0,0,0,.093.152s-.013.025-.068-.07a1.713,1.713,0,0,0-.238-.417,1.345,1.345,0,0,0-.366-.216s.171.3.214.352c.072.085.176.205.2.237s.189.231.213.263a.77.77,0,0,0,.082.092c.042.045.168.128.178.141s0,0-.006-.005c-.056-.033-.123-.086-.191-.131a1.518,1.518,0,0,1-.512-.4c-.042-.073-.062-.1-.077-.094a.97.97,0,0,0,.412.631s.322.143.394.187a1.645,1.645,0,0,1,.155.088c.021.017-.019.016-.022.016a1.481,1.481,0,0,1-.568-.124s-.065-.045-.012.018a.741.741,0,0,0,.278.24,1.66,1.66,0,0,0,.463.112,4.068,4.068,0,0,1,.425.024c.054.018.146.077.2.094s.193.071.193.071a.681.681,0,0,0,.067.032c.026.01.134.009.142-.011s-.031-.046-.031-.046" transform="translate(12.087 6.315)" fill="#009b3a" stroke="#000" stroke-width="0.016"/>
      <path id="Path_1566" data-name="Path 1566" d="M17.128,8.5c.033.012.047.109.047.109s0-.056,0-.083-.013-.131-.013-.131l-.029.021a.211.211,0,0,0-.054.076.117.117,0,0,1,.052.008" transform="translate(13.971 6.871)" fill="#009b3a" stroke="#000" stroke-width="0.02"/>
    </g>
  </g>
</svg>
