<svg xmlns="http://www.w3.org/2000/svg" xmlns:xlink="http://www.w3.org/1999/xlink" width="32" height="32" viewBox="0 0 32 32">
  <defs>
    <clipPath id="clip-path">
      <circle id="Philippines" cx="16" cy="16" r="16" transform="translate(797 1231)" fill="#fff"/>
    </clipPath>
  </defs>
  <g id="Philippines-2" data-name="Philippines" transform="translate(-797 -1231)" clip-path="url(#clip-path)">
    <g id="Flag_of_the_Philippines" transform="translate(787 1231)">
      <rect id="Rectangle_83" data-name="Rectangle 83" width="64" height="32" fill="#0038a8"/>
      <rect id="Rectangle_84" data-name="Rectangle 84" width="64" height="16" transform="translate(0 16)" fill="#ce1126"/>
      <path id="Path_1140" data-name="Path 1140" d="M27.713,16,0,32V0" fill="#fff"/>
      <path id="Path_1141" data-name="Path 1141" d="M1.225,1.386l.963.832L3.3,1.6,2.809,2.777l.929.871L2.469,3.541,1.928,4.693l-.29-1.24L.375,3.295l1.089-.659Z" transform="translate(0.375 1.386)" fill="#fcd116"/>
      <path id="Path_1142" data-name="Path 1142" d="M12.636,7.155l.026,1.273,1.2.418-1.2.418-.026,1.273-.769-1.014-1.219.369.727-1.045L10.648,7.8l1.219.369Z" transform="translate(10.648 7.155)" fill="#fcd116"/>
      <path id="Path_1143" data-name="Path 1143" d="M1.928,12.961l.541,1.152,1.269-.107-.929.871L3.3,16.05l-1.115-.614-.963.832.239-1.25L.375,14.359,1.638,14.2Z" transform="translate(0.375 12.961)" fill="#fcd116"/>
      <path id="Path_1144" data-name="Path 1144" d="M8.356,4.622l-.415.415.206,3.147q-.105.007-.208.02L7.56,5.333l-.339.339.51,2.567a3.181,3.181,0,0,0-1.154.478L5.124,6.541h-.48l1.763,2.3c-.055.043-.109.087-.161.133L4.166,6.6H3.579v.588L5.95,9.268q-.069.079-.133.162l-2.3-1.764v.48L5.7,9.6a3.181,3.181,0,0,0-.478,1.153l-2.567-.51-.339.339,2.872.378q-.013.1-.02.208l-3.147-.206-.415.415.415.415,3.147-.206c0,.07.011.14.02.209l-2.872.378.339.339L5.217,12a3.181,3.181,0,0,0,.478,1.154L3.519,14.609v.48l2.3-1.763c.043.055.087.109.133.161l-2.372,2.08v.588h.588l2.08-2.372q.079.069.162.133l-1.764,2.3h.48l1.454-2.176a3.177,3.177,0,0,0,1.153.479l-.51,2.566.339.339.378-2.872q.1.013.208.02L7.94,17.718l.415.415.415-.415-.206-3.147q.105-.007.208-.02l.378,2.872.339-.339-.51-2.567a3.181,3.181,0,0,0,1.154-.478l1.454,2.176h.48l-1.763-2.3c.055-.043.109-.087.161-.133l2.08,2.372h.588v-.588l-2.372-2.08q.069-.079.133-.162l2.3,1.764v-.48l-2.176-1.454A3.181,3.181,0,0,0,11.494,12l2.567.51.339-.339L11.529,11.8q.013-.1.02-.208l3.147.206.415-.415-.415-.415-3.147.206q-.007-.105-.02-.208l2.872-.378-.339-.339-2.567.51A3.181,3.181,0,0,0,11.016,9.6l2.176-1.454v-.48l-2.3,1.763c-.043-.055-.087-.109-.133-.161l2.372-2.08V6.6h-.588l-2.08,2.372q-.079-.069-.162-.133l1.764-2.3h-.48L10.133,8.717A3.181,3.181,0,0,0,8.98,8.239l.51-2.567-.339-.339L8.773,8.2q-.1-.013-.208-.02l.206-3.147Z" transform="translate(1.6 4.622)" fill="#fcd116"/>
    </g>
  </g>
</svg>
