<svg xmlns="http://www.w3.org/2000/svg" xmlns:xlink="http://www.w3.org/1999/xlink" width="32" height="32" viewBox="0 0 32 32">
  <defs>
    <clipPath id="clip-path">
      <circle id="Ellipse_3" data-name="Ellipse 3" cx="16" cy="16" r="16" transform="translate(307 218)" fill="#fff"/>
    </clipPath>
  </defs>
  <g id="Portugal" transform="translate(-307 -218)" clip-path="url(#clip-path)">
    <g id="Portugal-2" data-name="Portugal" transform="translate(304 218)">
      <rect id="Rectangle_27" data-name="Rectangle 27" width="48" height="32" fill="red"/>
      <rect id="Rectangle_28" data-name="Rectangle 28" width="19.2" height="32" fill="#060"/>
      <g id="Group_65" data-name="Group 65" transform="translate(11.173 7.964)">
        <path id="Path_310" data-name="Path 310" stroke="#000" d="M21.5,17.013C19.081,16.94,8,10.023,7.923,8.921L8.535,7.9c1.1,1.6,12.429,8.325,13.542,8.086L21.5,17.013" fill="#ff0" transform="translate(-7.212 -4.013)" stroke-linecap="round" stroke-linejoin="round" stroke-width="0.031" fill-rule="evenodd"/>
        <path id="Path_311" data-name="Path 311" stroke="#000" d="M8.441,7.871c-.217.583,2.892,2.505,6.632,4.78s6.965,3.68,7.2,3.479a2.1,2.1,0,0,0,.108-.2c-.045.068-.154.089-.324.04a37.606,37.606,0,0,1-6.91-3.48c-3.264-1.979-6.1-3.8-6.545-4.579a.47.47,0,0,1-.048-.228H8.548l-.094.164-.013.026h0ZM21.59,17.155c-.041.074-.117.077-.263.061-.9-.1-3.647-1.434-6.893-3.377-3.777-2.261-6.9-4.321-6.558-4.859l.092-.163.018.006c-.3.912,6.156,4.606,6.536,4.842,3.738,2.316,6.889,3.668,7.168,3.317l-.1.174h0Z" fill="#ff0" transform="translate(-7.247 -4.123)" stroke-linecap="round" stroke-linejoin="round" stroke-width="0.031" fill-rule="evenodd"/>
        <path id="Path_312" data-name="Path 312" stroke="#000" d="M15.17,9.6a22.818,22.818,0,0,0,7.122-1.015l-.37-.6c-1.015.562-4.017.932-6.772.987-3.259-.03-5.559-.333-6.712-1.107l-.349.64A17.6,17.6,0,0,0,15.17,9.6" fill="#ff0" transform="translate(-7.129 -4.03)" stroke-linecap="round" stroke-linejoin="round" stroke-width="0.031" fill-rule="evenodd"/>
        <path id="Path_313" data-name="Path 313" stroke="#000" d="M22.424,8.627a10.384,10.384,0,0,1-2.83.766,29.253,29.253,0,0,1-4.4.318,31.223,31.223,0,0,1-4.215-.267,12.283,12.283,0,0,1-2.957-.783c.032-.063.052-.107.082-.166a12.8,12.8,0,0,0,2.9.769,30.86,30.86,0,0,0,4.182.267,29.379,29.379,0,0,0,4.369-.324A7.1,7.1,0,0,0,22.3,8.42l.12.206h0Zm-.325-.61a8.559,8.559,0,0,1-2.706.728,29.114,29.114,0,0,1-4.181.293,28.175,28.175,0,0,1-4.039-.26,11.141,11.141,0,0,1-2.816-.71c.031-.054.063-.107.1-.161a9.614,9.614,0,0,0,2.738.7,28.914,28.914,0,0,0,4.021.25,28.745,28.745,0,0,0,4.151-.3,7.23,7.23,0,0,0,2.618-.739l.118.2h0Z" fill="#ff0" transform="translate(-7.162 -4.053)" stroke-linecap="round" stroke-linejoin="round" stroke-width="0.031" fill-rule="evenodd"/>
        <path id="Path_314" data-name="Path 314" stroke="#000" d="M7.516,11.217c1.488.8,4.792,1.2,7.92,1.231,2.847,0,6.557-.44,7.944-1.175l-.038-.8c-.434.678-4.409,1.329-7.936,1.3S8.6,11.2,7.509,10.5l.006.719" fill="#ff0" transform="translate(-7.418 -2.728)" stroke-linecap="round" stroke-linejoin="round" stroke-width="0.031" fill-rule="evenodd"/>
        <path id="Path_315" data-name="Path 315" stroke="#000" d="M23.485,11.126v.191a8.718,8.718,0,0,1-3.155.891,32.557,32.557,0,0,1-4.9.336,30.756,30.756,0,0,1-4.652-.32,11.606,11.606,0,0,1-3.328-.9V11.1a11.849,11.849,0,0,0,3.353.944,30.586,30.586,0,0,0,4.625.318,32.4,32.4,0,0,0,4.874-.333,10.127,10.127,0,0,0,3.181-.906h0Zm0-.679v.191a8.722,8.722,0,0,1-3.155.891,32.558,32.558,0,0,1-4.9.336,30.737,30.737,0,0,1-4.652-.32,11.6,11.6,0,0,1-3.328-.9v-.223a11.846,11.846,0,0,0,3.353.944,30.564,30.564,0,0,0,4.625.318,32.373,32.373,0,0,0,4.874-.334,10.127,10.127,0,0,0,3.181-.906h0Z" fill="#ff0" transform="translate(-7.448 -2.752)" stroke-linecap="round" stroke-linejoin="round" stroke-width="0.031" fill-rule="evenodd"/>
        <path id="Path_316" data-name="Path 316" stroke="#000" d="M15.113,14.249A27.271,27.271,0,0,1,8.14,13.166l.451.707a18.727,18.727,0,0,0,6.554,1.07,16.764,16.764,0,0,0,6.474-1.057l.463-.732a24.652,24.652,0,0,1-6.97,1.1" fill="#ff0" transform="translate(-7.103 -1.387)" stroke-linecap="round" stroke-linejoin="round" stroke-width="0.031" fill-rule="evenodd"/>
        <path id="Path_317" data-name="Path 317" stroke="#000" d="M21.841,13.752c-.068.1-.137.207-.208.306a18.211,18.211,0,0,1-2.448.628,22.166,22.166,0,0,1-4.022.368,19.289,19.289,0,0,1-6.68-1.144l-.094-.162.015-.024.16.062a21.485,21.485,0,0,0,6.616,1.092,22.551,22.551,0,0,0,3.943-.364,11.551,11.551,0,0,0,2.662-.731l.055-.031h0Zm.4-.662.005.006c-.051.086-.1.173-.157.261A17.024,17.024,0,0,1,19,14.045a24.439,24.439,0,0,1-3.8.323,26.048,26.048,0,0,1-7.063-1.056l-.089-.171A29.792,29.792,0,0,0,15.2,14.19a26.45,26.45,0,0,0,3.772-.324,19.492,19.492,0,0,0,3.081-.684l-.012-.016.2-.075h0Z" fill="#ff0" transform="translate(-7.15 -1.419)" stroke-linecap="round" stroke-linejoin="round" stroke-width="0.029" fill-rule="evenodd"/>
        <path id="Path_318" data-name="Path 318" stroke="#000" d="M22.554,13.116a7.637,7.637,0,0,1-2.069,5.162A7.446,7.446,0,0,1,15.4,20.387,7.54,7.54,0,0,1,10.416,18.3,7.585,7.585,0,0,1,8.351,13.24a7.16,7.16,0,0,1,2.5-5.342,7.474,7.474,0,0,1,4.81-1.7,7.366,7.366,0,0,1,5.322,2.667,7.435,7.435,0,0,1,1.57,4.255ZM15.419,5.409a7.9,7.9,0,1,1-7.914,7.9,7.946,7.946,0,0,1,7.914-7.9" fill="#ff0" transform="translate(-7.421 -5.259)" stroke-linecap="round" stroke-linejoin="round" stroke-width="0.031" fill-rule="evenodd"/>
        <path id="Path_319" data-name="Path 319" stroke="#000" d="M15.435,5.391a7.922,7.922,0,1,1-7.921,7.922,7.937,7.937,0,0,1,7.921-7.922ZM7.689,13.313a7.747,7.747,0,1,0,7.747-7.748,7.778,7.778,0,0,0-7.747,7.748Z" fill="#ff0" transform="translate(-7.416 -5.268)" stroke-linecap="round" stroke-linejoin="round" stroke-width="0.031" fill-rule="evenodd"/>
        <path id="Path_320" data-name="Path 320" stroke="#000" d="M15.218,5.83a7.256,7.256,0,1,1-7.255,7.256A7.285,7.285,0,0,1,15.218,5.83ZM8.137,13.086A7.081,7.081,0,1,0,15.218,6a7.11,7.11,0,0,0-7.081,7.082Z" fill="#ff0" transform="translate(-7.192 -5.049)" stroke-linecap="round" stroke-linejoin="round" stroke-width="0.031" fill-rule="evenodd"/>
        <path id="Path_321" data-name="Path 321" stroke="#000" d="M13.239,5.37H12.56V21.286h.681Z" fill="#ff0" transform="translate(-4.893 -5.279)" stroke-linecap="round" stroke-linejoin="round" stroke-width="0.031" fill-rule="evenodd"/>
        <path id="Path_322" data-name="Path 322" stroke="#000" d="M13.192,5.309h.173v16.1h-.173V5.309Zm-.674,0h.174v16.1h-.174V5.309Z" fill="#ff0" transform="translate(-4.914 -5.309)" stroke-linecap="round" stroke-linejoin="round" stroke-width="0.031" fill-rule="evenodd"/>
        <path id="Path_323" data-name="Path 323" stroke="#000" d="M23.372,11.595v-.588l-.479-.446-2.72-.72-3.92-.4-4.72.24-3.36.8-.678.5v.589L9.213,10.8l4.08-.64h3.92l2.88.32,2,.48Z" fill="#ff0" transform="translate(-7.426 -3.244)" stroke-linecap="round" stroke-linejoin="round" stroke-width="0.031" fill-rule="evenodd"/>
        <path id="Path_324" data-name="Path 324" stroke="#000" d="M15.472,10.081a27.461,27.461,0,0,1,5.125.458,5.959,5.959,0,0,1,2.888,1.086v.207a6.342,6.342,0,0,0-2.921-1.117,27.3,27.3,0,0,0-5.092-.454,28.334,28.334,0,0,0-5.2.464c-1.13.224-2.636.669-2.824,1.109v-.215c.1-.3,1.225-.758,2.8-1.073a28.459,28.459,0,0,1,5.224-.463Zm0-.679a27.479,27.479,0,0,1,5.125.458,5.961,5.961,0,0,1,2.888,1.086v.207a6.343,6.343,0,0,0-2.921-1.117,27.282,27.282,0,0,0-5.092-.454,28.235,28.235,0,0,0-5.19.464c-1.09.207-2.658.67-2.833,1.109v-.215c.1-.3,1.248-.771,2.8-1.073A28.471,28.471,0,0,1,15.472,9.4Z" fill="#ff0" transform="translate(-7.449 -3.263)" stroke-linecap="round" stroke-linejoin="round" stroke-width="0.031" fill-rule="evenodd"/>
        <path id="Path_325" data-name="Path 325" stroke="#000" d="M15.122,7.091a17.04,17.04,0,0,1,6.7,1.015l.429.742a17.208,17.208,0,0,0-7.12-1.038c-2.708.017-5.6.3-7.054,1.073l.512-.857c1.192-.618,4-.931,6.538-.935" fill="#ff0" transform="translate(-7.137 -4.418)" stroke-linecap="round" stroke-linejoin="round" stroke-width="0.031" fill-rule="evenodd"/>
        <path id="Path_326" data-name="Path 326" stroke="#000" d="M15.177,7.726a26.749,26.749,0,0,1,4.6.323,8.383,8.383,0,0,1,2.515.741l.127.225a9.214,9.214,0,0,0-2.667-.792,25.793,25.793,0,0,0-4.576-.316,26.524,26.524,0,0,0-4.638.314A8.182,8.182,0,0,0,8.041,9l.125-.238A8.319,8.319,0,0,1,10.5,8.047a27.236,27.236,0,0,1,4.674-.321h0Zm0-.679a26.114,26.114,0,0,1,4.436.308,7.192,7.192,0,0,1,2.3.751l.186.3a6.074,6.074,0,0,0-2.558-.871,28.251,28.251,0,0,0-4.361-.309,26.527,26.527,0,0,0-4.46.329A7.262,7.262,0,0,0,8.5,8.234l.164-.247a7.923,7.923,0,0,1,2.024-.612,26.719,26.719,0,0,1,4.489-.328Z" fill="#ff0" transform="translate(-7.153 -4.44)" stroke-linecap="round" stroke-linejoin="round" stroke-width="0.031" fill-rule="evenodd"/>
        <path id="Path_327" data-name="Path 327" stroke="#000" d="M19.087,13.19a20.676,20.676,0,0,0-3.937-.3c-4.913.058-6.5,1.009-6.693,1.3l-.367-.6c1.251-.907,3.926-1.415,7.087-1.363a24.979,24.979,0,0,1,4.25.367l-.339.6" fill="#ff0" transform="translate(-7.128 -1.853)" stroke-linecap="round" stroke-linejoin="round" stroke-width="0.031" fill-rule="evenodd"/>
        <path id="Path_328" data-name="Path 328" stroke="#000" d="M15.145,12.84a23.815,23.815,0,0,1,4,.318l-.094.166a20.888,20.888,0,0,0-3.9-.3,18.875,18.875,0,0,0-5.243.613c-.5.14-1.338.464-1.423.732l-.093-.154c.027-.158.531-.486,1.473-.751a19.016,19.016,0,0,1,5.282-.624h0Zm.062-.688a24.521,24.521,0,0,1,4.3.373l-.1.172a22.419,22.419,0,0,0-4.193-.366,20.124,20.124,0,0,0-5.5.643c-.566.165-1.544.522-1.576.8l-.093-.165c.021-.256.867-.591,1.629-.812a20.208,20.208,0,0,1,5.535-.649Z" fill="#ff0" transform="translate(-7.151 -1.887)" stroke-linecap="round" stroke-linejoin="round" stroke-width="0.029" fill-rule="evenodd"/>
        <path id="Path_329" data-name="Path 329" stroke="#000" d="M22.211,15.95l-.59.916-1.7-1.506-4.4-2.96-4.96-2.72L7.99,8.8l.549-1.018.186-.1,1.6.4,5.28,2.72,3.04,1.92,2.56,1.84,1.04,1.2Z" fill="#ff0" transform="translate(-7.178 -4.124)" stroke-linecap="round" stroke-linejoin="round" stroke-width="0.031" fill-rule="evenodd"/>
        <path id="Path_330" data-name="Path 330" stroke="#000" d="M7.961,8.85c.452-.306,3.771,1.172,7.244,3.267s6.774,4.474,6.475,4.918l-.1.155-.045.036c.01-.007.059-.068,0-.232-.148-.486-2.5-2.359-6.392-4.712-3.8-2.265-6.963-3.63-7.28-3.24l.1-.191h0ZM22.4,15.964c.286-.564-2.793-2.884-6.611-5.142-3.905-2.213-6.72-3.516-7.234-3.128L8.438,7.9c0,.011,0-.014.028-.033a.5.5,0,0,1,.318-.077c.885.013,3.413,1.177,6.96,3.21,1.554.905,6.566,4.119,6.547,5.023,0,.078.006.094-.023.132l.127-.194h0Z" fill="#ff0" transform="translate(-7.242 -4.15)" stroke-linecap="round" stroke-linejoin="round" stroke-width="0.031" fill-rule="evenodd"/>
      </g>
      <g id="Group_76" data-name="Group 76" transform="translate(14.447 10.539)">
        <path id="Path_331" data-name="Path 331" d="M9.632,13.368a4.785,4.785,0,0,0,4.741,4.746,4.757,4.757,0,0,0,4.757-4.742h0V7.037l-9.5-.011v6.342h0Z" transform="translate(-9.631 -7.026)" fill="#fff" stroke="#000" stroke-width="0.036"/>
        <path id="Path_332" data-name="Path 332" d="M9.75,13.306v0a4.511,4.511,0,0,0,1.342,3.2,4.548,4.548,0,0,0,6.435.007,4.511,4.511,0,0,0,1.336-3.2h0V7.168H9.756l-.006,6.14m7.282-4.3v3.911l0,.414h0a2.985,2.985,0,0,1-.019.339,2.656,2.656,0,0,1-.78,1.577,2.72,2.72,0,0,1-1.924.8A2.75,2.75,0,0,1,11.6,13.318V9l5.435.01h0Z" transform="translate(-9.572 -6.955)" fill="red" stroke="#000" stroke-width="0.027"/>
        <g id="castle3" transform="translate(0.369 0.33)">
          <g id="castle">
            <path id="Path_333" data-name="Path 333" d="M10.143,8.419a.556.556,0,0,1,.326-.548.548.548,0,0,1,.337.552l-.664,0" transform="translate(-9.744 -6.933)" fill="#ff0"/>
            <path id="Path_334" data-name="Path 334" d="M9.981,7.878l-.055.508h.331a.451.451,0,0,1,.326-.488.489.489,0,0,1,.327.488h.332l-.06-.511-1.2,0h0Z" transform="translate(-9.853 -6.932)" fill="#ff0" stroke="#000" stroke-width="0.027"/>
            <path id="Path_335" data-name="Path 335" d="M9.929,8.217h1.356a.064.064,0,0,1,0,.125H9.929a.064.064,0,0,1,0-.125Z" transform="translate(-9.877 -6.761)" fill="#ff0" stroke="#000" stroke-width="0.027"/>
            <path id="Path_336" data-name="Path 336" d="M10.241,8.328a.35.35,0,0,1,.182-.34.355.355,0,0,1,.189.34h-.371" transform="translate(-9.696 -6.875)" fill="#ff0" stroke="#000" stroke-width="0.027"/>
            <path id="Path_337" data-name="Path 337" d="M9.948,7.736h1.3a.057.057,0,0,1,0,.113h-1.3a.057.057,0,0,1,0-.113Z" transform="translate(-9.867 -7.001)" fill="#ff0" stroke="#000" stroke-width="0.027"/>
            <path id="Path_338" data-name="Path 338" d="M9.965,7.812h1.243a.057.057,0,0,1,0,.113H9.965a.057.057,0,0,1,0-.113Z" transform="translate(-9.857 -6.963)" fill="#ff0" stroke="#000" stroke-width="0.027"/>
            <path id="Path_339" data-name="Path 339" d="M10.217,7.247h.1v.07h.072V7.246h.1v.071h.072V7.246h.1v.161a.042.042,0,0,1-.044.042h-.353a.045.045,0,0,1-.046-.042V7.247h0Z" transform="translate(-9.708 -7.246)" fill="#ff0" stroke="#000" stroke-width="0.027"/>
            <path id="Path_340" data-name="Path 340" d="M10.571,7.391l.022.516h-.344l.023-.516h.3" transform="translate(-9.692 -7.174)" fill="#ff0" stroke="#000" stroke-width="0.027"/>
            <path id="cp1" d="M10.29,7.55l.011.278H9.97L9.98,7.55h.31Z" transform="translate(-9.831 -7.094)" fill="#ff0" stroke="#000" stroke-width="0.027"/>
            <path id="Path_341" data-name="Path 341" d="M10.29,7.55l.011.278H9.97L9.98,7.55h.31Z" transform="translate(-8.982 -7.094)" fill="#ff0" stroke="#000" stroke-width="0.027"/>
            <path id="cp2" d="M9.936,7.416h.1v.07h.07V7.415h.1v.071h.07V7.415h.1v.161a.041.041,0,0,1-.043.041H9.981a.045.045,0,0,1-.045-.042V7.416h0Z" transform="translate(-9.848 -7.162)" fill="#ff0" stroke="#000" stroke-width="0.027"/>
            <path id="Path_342" data-name="Path 342" d="M9.936,7.416h.1v.07h.07V7.415h.1v.071h.07V7.415h.1v.161a.041.041,0,0,1-.043.041H9.981a.045.045,0,0,1-.045-.042V7.416h0Z" transform="translate(-8.999 -7.162)" fill="#ff0" stroke="#000" stroke-width="0.027"/>
            <path id="Path_343" data-name="Path 343" d="M10.341,7.512a.035.035,0,1,1,.069,0v.123h-.069V7.512" transform="translate(-9.645 -7.132)"/>
            <path id="cp3" d="M10.057,7.63a.033.033,0,1,1,.066,0v.095h-.066V7.63" transform="translate(-9.788 -7.072)"/>
            <path id="Path_344" data-name="Path 344" d="M10.057,7.63a.033.033,0,1,1,.066,0v.095h-.066V7.63" transform="translate(-8.936 -7.072)" stroke="#000" stroke-width="0.027"/>
          </g>
          <g id="Group_66" data-name="Group 66" transform="translate(0 3.706)">
            <path id="Path_345" data-name="Path 345" d="M10.143,8.419a.556.556,0,0,1,.326-.548.548.548,0,0,1,.337.552l-.664,0" transform="translate(-9.744 -6.933)" fill="#ff0"/>
            <path id="Path_346" data-name="Path 346" d="M9.981,7.878l-.055.508h.331a.451.451,0,0,1,.326-.488.489.489,0,0,1,.327.488h.332l-.06-.511-1.2,0h0Z" transform="translate(-9.853 -6.932)" fill="#ff0" stroke="#000" stroke-width="0.027"/>
            <path id="Path_347" data-name="Path 347" d="M9.929,8.217h1.356a.064.064,0,0,1,0,.125H9.929a.064.064,0,0,1,0-.125Z" transform="translate(-9.877 -6.761)" fill="#ff0" stroke="#000" stroke-width="0.027"/>
            <path id="Path_348" data-name="Path 348" d="M10.241,8.328a.35.35,0,0,1,.182-.34.355.355,0,0,1,.189.34h-.371" transform="translate(-9.696 -6.875)" fill="#ff0" stroke="#000" stroke-width="0.027"/>
            <path id="Path_349" data-name="Path 349" d="M9.948,7.736h1.3a.057.057,0,0,1,0,.113h-1.3a.057.057,0,0,1,0-.113Z" transform="translate(-9.867 -7.001)" fill="#ff0" stroke="#000" stroke-width="0.027"/>
            <path id="Path_350" data-name="Path 350" d="M9.965,7.812h1.243a.057.057,0,0,1,0,.113H9.965a.057.057,0,0,1,0-.113Z" transform="translate(-9.857 -6.963)" fill="#ff0" stroke="#000" stroke-width="0.027"/>
            <path id="Path_351" data-name="Path 351" d="M10.217,7.247h.1v.07h.072V7.246h.1v.071h.072V7.246h.1v.161a.042.042,0,0,1-.044.042h-.353a.045.045,0,0,1-.046-.042V7.247h0Z" transform="translate(-9.708 -7.246)" fill="#ff0" stroke="#000" stroke-width="0.027"/>
            <path id="Path_352" data-name="Path 352" d="M10.571,7.391l.022.516h-.344l.023-.516h.3" transform="translate(-9.692 -7.174)" fill="#ff0" stroke="#000" stroke-width="0.027"/>
            <path id="cp1-2" data-name="cp1" d="M10.29,7.55l.011.278H9.97L9.98,7.55h.31Z" transform="translate(-9.831 -7.094)" fill="#ff0" stroke="#000" stroke-width="0.027"/>
            <path id="Path_353" data-name="Path 353" d="M10.29,7.55l.011.278H9.97L9.98,7.55h.31Z" transform="translate(-8.982 -7.094)" fill="#ff0" stroke="#000" stroke-width="0.027"/>
            <path id="cp2-2" data-name="cp2" d="M9.936,7.416h.1v.07h.07V7.415h.1v.071h.07V7.415h.1v.161a.041.041,0,0,1-.043.041H9.981a.045.045,0,0,1-.045-.042V7.416h0Z" transform="translate(-9.848 -7.162)" fill="#ff0" stroke="#000" stroke-width="0.027"/>
            <path id="Path_354" data-name="Path 354" d="M9.936,7.416h.1v.07h.07V7.415h.1v.071h.07V7.415h.1v.161a.041.041,0,0,1-.043.041H9.981a.045.045,0,0,1-.045-.042V7.416h0Z" transform="translate(-8.999 -7.162)" fill="#ff0" stroke="#000" stroke-width="0.027"/>
            <path id="Path_355" data-name="Path 355" d="M10.341,7.512a.035.035,0,1,1,.069,0v.123h-.069V7.512" transform="translate(-9.645 -7.132)"/>
            <path id="cp3-2" data-name="cp3" d="M10.057,7.63a.033.033,0,1,1,.066,0v.095h-.066V7.63" transform="translate(-9.788 -7.072)"/>
            <path id="Path_356" data-name="Path 356" d="M10.057,7.63a.033.033,0,1,1,.066,0v.095h-.066V7.63" transform="translate(-8.936 -7.072)" stroke="#000" stroke-width="0.027"/>
          </g>
          <g id="Group_67" data-name="Group 67" transform="translate(0.509 8.285) rotate(-45.202)">
            <path id="Path_357" data-name="Path 357" d="M0,.548A.556.556,0,0,1,.326,0,.548.548,0,0,1,.664.552L0,.548" transform="translate(0.399 0.938)" fill="#ff0"/>
            <path id="Path_358" data-name="Path 358" d="M.055,0,0,.511H.331A.451.451,0,0,1,.657.023.489.489,0,0,1,.984.511h.332L1.256,0,.055,0h0Z" transform="translate(0.074 0.943)" fill="#ff0" stroke="#000" stroke-width="0.027"/>
            <path id="Path_359" data-name="Path 359" d="M.052,0H1.408A.058.058,0,0,1,1.46.063a.058.058,0,0,1-.052.063H.052A.058.058,0,0,1,0,.063.058.058,0,0,1,.052,0Z" transform="translate(0 1.456)" fill="#ff0" stroke="#000" stroke-width="0.027"/>
            <path id="Path_360" data-name="Path 360" d="M0,.34A.35.35,0,0,1,.182,0,.355.355,0,0,1,.371.34H0" transform="translate(0.545 1.114)" fill="#ff0" stroke="#000" stroke-width="0.027"/>
            <path id="Path_361" data-name="Path 361" d="M.05,0h1.3A.054.054,0,0,1,1.4.056a.054.054,0,0,1-.05.056H.05A.054.054,0,0,1,0,.056.054.054,0,0,1,.05,0Z" transform="translate(0.031 0.735)" fill="#ff0" stroke="#000" stroke-width="0.027"/>
            <path id="Path_362" data-name="Path 362" d="M.048,0H1.291a.053.053,0,0,1,.048.056.053.053,0,0,1-.048.056H.048A.053.053,0,0,1,0,.056.053.053,0,0,1,.048,0Z" transform="translate(0.06 0.849)" fill="#ff0" stroke="#000" stroke-width="0.027"/>
            <path id="Path_363" data-name="Path 363" d="M0,0H.1v.07H.17V0h.1V.071H.342V0h.1V.161A.042.042,0,0,1,.4.2H.046A.045.045,0,0,1,0,.16V0H0Z" transform="translate(0.509 0)" fill="#ff0" stroke="#000" stroke-width="0.027"/>
            <path id="Path_364" data-name="Path 364" d="M.322,0,.344.517H0L.023,0h.3" transform="translate(0.557 0.215)" fill="#ff0" stroke="#000" stroke-width="0.027"/>
            <path id="cp1-3" data-name="cp1" d="M.32,0,.33.278H0L.009,0H.32Z" transform="translate(0.14 0.456)" fill="#ff0" stroke="#000" stroke-width="0.027"/>
            <path id="Path_365" data-name="Path 365" d="M.32,0,.33.278H0L.009,0H.32Z" transform="translate(0.988 0.456)" fill="#ff0" stroke="#000" stroke-width="0.027"/>
            <path id="cp2-3" data-name="cp2" d="M0,0H.1v.07h.07V0h.1V.071h.07V0h.1V.161A.041.041,0,0,1,.39.2H.045A.045.045,0,0,1,0,.161V0H0Z" transform="translate(0.088 0.253)" fill="#ff0" stroke="#000" stroke-width="0.027"/>
            <path id="Path_366" data-name="Path 366" d="M0,0H.1v.07h.07V0h.1V.071h.07V0h.1V.161A.041.041,0,0,1,.39.2H.045A.045.045,0,0,1,0,.161V0H0Z" transform="translate(0.937 0.253)" fill="#ff0" stroke="#000" stroke-width="0.027"/>
            <path id="Path_367" data-name="Path 367" d="M0,.038a.035.035,0,1,1,.069,0V.161H0V.038" transform="translate(0.696 0.342)"/>
            <path id="cp3-3" data-name="cp3" d="M0,.037a.033.033,0,1,1,.066,0V.132H0V.037" transform="translate(0.27 0.521)"/>
            <path id="Path_368" data-name="Path 368" d="M0,.037a.033.033,0,1,1,.066,0V.132H0V.037" transform="translate(1.121 0.521)" stroke="#000" stroke-width="0.027"/>
          </g>
        </g>
        <g id="Group_68" data-name="Group 68" transform="translate(4.026 0.33)">
          <path id="Path_369" data-name="Path 369" d="M10.143,8.419a.556.556,0,0,1,.326-.548.548.548,0,0,1,.337.552l-.664,0" transform="translate(-9.744 -6.933)" fill="#ff0"/>
          <path id="Path_370" data-name="Path 370" d="M9.981,7.878l-.055.508h.331a.451.451,0,0,1,.326-.488.489.489,0,0,1,.327.488h.332l-.06-.511-1.2,0h0Z" transform="translate(-9.853 -6.932)" fill="#ff0" stroke="#000" stroke-width="0.027"/>
          <path id="Path_371" data-name="Path 371" d="M9.929,8.217h1.356a.064.064,0,0,1,0,.125H9.929a.064.064,0,0,1,0-.125Z" transform="translate(-9.877 -6.761)" fill="#ff0" stroke="#000" stroke-width="0.027"/>
          <path id="Path_372" data-name="Path 372" d="M10.241,8.328a.35.35,0,0,1,.182-.34.355.355,0,0,1,.189.34h-.371" transform="translate(-9.696 -6.875)" fill="#ff0" stroke="#000" stroke-width="0.027"/>
          <path id="Path_373" data-name="Path 373" d="M9.948,7.736h1.3a.057.057,0,0,1,0,.113h-1.3a.057.057,0,0,1,0-.113Z" transform="translate(-9.867 -7.001)" fill="#ff0" stroke="#000" stroke-width="0.027"/>
          <path id="Path_374" data-name="Path 374" d="M9.965,7.812h1.243a.057.057,0,0,1,0,.113H9.965a.057.057,0,0,1,0-.113Z" transform="translate(-9.857 -6.963)" fill="#ff0" stroke="#000" stroke-width="0.027"/>
          <path id="Path_375" data-name="Path 375" d="M10.217,7.247h.1v.07h.072V7.246h.1v.071h.072V7.246h.1v.161a.042.042,0,0,1-.044.042h-.353a.045.045,0,0,1-.046-.042V7.247h0Z" transform="translate(-9.708 -7.246)" fill="#ff0" stroke="#000" stroke-width="0.027"/>
          <path id="Path_376" data-name="Path 376" d="M10.571,7.391l.022.516h-.344l.023-.516h.3" transform="translate(-9.692 -7.174)" fill="#ff0" stroke="#000" stroke-width="0.027"/>
          <path id="cp1-4" data-name="cp1" d="M10.29,7.55l.011.278H9.97L9.98,7.55h.31Z" transform="translate(-9.831 -7.094)" fill="#ff0" stroke="#000" stroke-width="0.027"/>
          <path id="Path_377" data-name="Path 377" d="M10.29,7.55l.011.278H9.97L9.98,7.55h.31Z" transform="translate(-8.982 -7.094)" fill="#ff0" stroke="#000" stroke-width="0.027"/>
          <path id="cp2-4" data-name="cp2" d="M9.936,7.416h.1v.07h.07V7.415h.1v.071h.07V7.415h.1v.161a.041.041,0,0,1-.043.041H9.981a.045.045,0,0,1-.045-.042V7.416h0Z" transform="translate(-9.848 -7.162)" fill="#ff0" stroke="#000" stroke-width="0.027"/>
          <path id="Path_378" data-name="Path 378" d="M9.936,7.416h.1v.07h.07V7.415h.1v.071h.07V7.415h.1v.161a.041.041,0,0,1-.043.041H9.981a.045.045,0,0,1-.045-.042V7.416h0Z" transform="translate(-8.999 -7.162)" fill="#ff0" stroke="#000" stroke-width="0.027"/>
          <path id="Path_379" data-name="Path 379" d="M10.341,7.512a.035.035,0,1,1,.069,0v.123h-.069V7.512" transform="translate(-9.645 -7.132)"/>
          <path id="cp3-4" data-name="cp3" d="M10.057,7.63a.033.033,0,1,1,.066,0v.095h-.066V7.63" transform="translate(-9.788 -7.072)"/>
          <path id="Path_380" data-name="Path 380" d="M10.057,7.63a.033.033,0,1,1,.066,0v.095h-.066V7.63" transform="translate(-8.936 -7.072)" stroke="#000" stroke-width="0.027"/>
        </g>
        <g id="Group_71" data-name="Group 71" transform="translate(9.12 9.729) rotate(180)">
          <g id="castle-2" data-name="castle" transform="translate(0 7.818)">
            <path id="Path_381" data-name="Path 381" d="M0,0A.556.556,0,0,0,.326.552.548.548,0,0,0,.664,0L0,0" transform="translate(0.399 0.092)" fill="#ff0"/>
            <path id="Path_382" data-name="Path 382" d="M.055.508,0,0H.331A.451.451,0,0,0,.657.488.489.489,0,0,0,.984,0h.332l-.06.511-1.2,0h0Z" transform="translate(0.074 0.127)" fill="#ff0" stroke="#000" stroke-width="0.027"/>
            <path id="Path_383" data-name="Path 383" d="M.052.125H1.408A.058.058,0,0,0,1.46.063.058.058,0,0,0,1.408,0H.052A.058.058,0,0,0,0,.063.058.058,0,0,0,.052.125Z" transform="translate(0 0)" fill="#ff0" stroke="#000" stroke-width="0.027"/>
            <path id="Path_384" data-name="Path 384" d="M0,0A.35.35,0,0,0,.182.34.355.355,0,0,0,.371,0H0" transform="translate(0.545 0.128)" fill="#ff0" stroke="#000" stroke-width="0.027"/>
            <path id="Path_385" data-name="Path 385" d="M.05.113h1.3A.054.054,0,0,0,1.4.056.054.054,0,0,0,1.349,0H.05A.054.054,0,0,0,0,.056.054.054,0,0,0,.05.113Z" transform="translate(0.031 0.733)" fill="#ff0" stroke="#000" stroke-width="0.027"/>
            <path id="Path_386" data-name="Path 386" d="M.048.113H1.291A.053.053,0,0,0,1.338.056.053.053,0,0,0,1.291,0H.048A.053.053,0,0,0,0,.056.053.053,0,0,0,.048.113Z" transform="translate(0.06 0.62)" fill="#ff0" stroke="#000" stroke-width="0.027"/>
            <path id="Path_387" data-name="Path 387" d="M0,.2H.1V.131H.17V.2h.1V.131H.342V.2h.1V.042A.042.042,0,0,0,.4,0H.046A.045.045,0,0,0,0,.042V.2H0Z" transform="translate(0.509 1.378)" fill="#ff0" stroke="#000" stroke-width="0.027"/>
            <path id="Path_388" data-name="Path 388" d="M.322.516.344,0H0L.023.517h.3" transform="translate(0.557 0.848)" fill="#ff0" stroke="#000" stroke-width="0.027"/>
            <path id="cp1-5" data-name="cp1" d="M.32.278.33,0H0L.009.278H.32Z" transform="translate(0.14 0.847)" fill="#ff0" stroke="#000" stroke-width="0.027"/>
            <path id="Path_389" data-name="Path 389" d="M.32.278.33,0H0L.009.278H.32Z" transform="translate(0.988 0.847)" fill="#ff0" stroke="#000" stroke-width="0.027"/>
            <path id="cp2-5" data-name="cp2" d="M0,.2H.1V.131h.07V.2h.1V.131h.07V.2h.1V.041A.041.041,0,0,0,.39,0H.045A.045.045,0,0,0,0,.042V.2H0Z" transform="translate(0.088 1.126)" fill="#ff0" stroke="#000" stroke-width="0.027"/>
            <path id="Path_390" data-name="Path 390" d="M0,.2H.1V.131h.07V.2h.1V.131h.07V.2h.1V.041A.041.041,0,0,0,.39,0H.045A.045.045,0,0,0,0,.042V.2H0Z" transform="translate(0.937 1.126)" fill="#ff0" stroke="#000" stroke-width="0.027"/>
            <path id="Path_391" data-name="Path 391" d="M0,.123a.035.035,0,1,0,.069,0V0H0V.123" transform="translate(0.696 1.078)"/>
            <path id="cp3-5" data-name="cp3" d="M0,.095a.033.033,0,1,0,.066,0V0H0V.095" transform="translate(0.27 0.928)"/>
            <path id="Path_392" data-name="Path 392" d="M0,.095a.033.033,0,1,0,.066,0V0H0V.095" transform="translate(1.121 0.928)" stroke="#000" stroke-width="0.027"/>
          </g>
          <g id="Group_69" data-name="Group 69" transform="translate(0 4.112)">
            <path id="Path_393" data-name="Path 393" d="M0,0A.556.556,0,0,0,.326.552.548.548,0,0,0,.664,0L0,0" transform="translate(0.399 0.092)" fill="#ff0"/>
            <path id="Path_394" data-name="Path 394" d="M.055.508,0,0H.331A.451.451,0,0,0,.657.488.489.489,0,0,0,.984,0h.332l-.06.511-1.2,0h0Z" transform="translate(0.074 0.127)" fill="#ff0" stroke="#000" stroke-width="0.027"/>
            <path id="Path_395" data-name="Path 395" d="M.052.125H1.408A.058.058,0,0,0,1.46.063.058.058,0,0,0,1.408,0H.052A.058.058,0,0,0,0,.063.058.058,0,0,0,.052.125Z" transform="translate(0 0)" fill="#ff0" stroke="#000" stroke-width="0.027"/>
            <path id="Path_396" data-name="Path 396" d="M0,0A.35.35,0,0,0,.182.34.355.355,0,0,0,.371,0H0" transform="translate(0.545 0.128)" fill="#ff0" stroke="#000" stroke-width="0.027"/>
            <path id="Path_397" data-name="Path 397" d="M.05.113h1.3A.054.054,0,0,0,1.4.056.054.054,0,0,0,1.349,0H.05A.054.054,0,0,0,0,.056.054.054,0,0,0,.05.113Z" transform="translate(0.031 0.733)" fill="#ff0" stroke="#000" stroke-width="0.027"/>
            <path id="Path_398" data-name="Path 398" d="M.048.113H1.291A.053.053,0,0,0,1.338.056.053.053,0,0,0,1.291,0H.048A.053.053,0,0,0,0,.056.053.053,0,0,0,.048.113Z" transform="translate(0.06 0.62)" fill="#ff0" stroke="#000" stroke-width="0.027"/>
            <path id="Path_399" data-name="Path 399" d="M0,.2H.1V.131H.17V.2h.1V.131H.342V.2h.1V.042A.042.042,0,0,0,.4,0H.046A.045.045,0,0,0,0,.042V.2H0Z" transform="translate(0.509 1.378)" fill="#ff0" stroke="#000" stroke-width="0.027"/>
            <path id="Path_400" data-name="Path 400" d="M.322.516.344,0H0L.023.517h.3" transform="translate(0.557 0.848)" fill="#ff0" stroke="#000" stroke-width="0.027"/>
            <path id="cp1-6" data-name="cp1" d="M.32.278.33,0H0L.009.278H.32Z" transform="translate(0.14 0.847)" fill="#ff0" stroke="#000" stroke-width="0.027"/>
            <path id="Path_401" data-name="Path 401" d="M.32.278.33,0H0L.009.278H.32Z" transform="translate(0.988 0.847)" fill="#ff0" stroke="#000" stroke-width="0.027"/>
            <path id="cp2-6" data-name="cp2" d="M0,.2H.1V.131h.07V.2h.1V.131h.07V.2h.1V.041A.041.041,0,0,0,.39,0H.045A.045.045,0,0,0,0,.042V.2H0Z" transform="translate(0.088 1.126)" fill="#ff0" stroke="#000" stroke-width="0.027"/>
            <path id="Path_402" data-name="Path 402" d="M0,.2H.1V.131h.07V.2h.1V.131h.07V.2h.1V.041A.041.041,0,0,0,.39,0H.045A.045.045,0,0,0,0,.042V.2H0Z" transform="translate(0.937 1.126)" fill="#ff0" stroke="#000" stroke-width="0.027"/>
            <path id="Path_403" data-name="Path 403" d="M0,.123a.035.035,0,1,0,.069,0V0H0V.123" transform="translate(0.696 1.078)"/>
            <path id="cp3-6" data-name="cp3" d="M0,.095a.033.033,0,1,0,.066,0V0H0V.095" transform="translate(0.27 0.928)"/>
            <path id="Path_404" data-name="Path 404" d="M0,.095a.033.033,0,1,0,.066,0V0H0V.095" transform="translate(1.121 0.928)" stroke="#000" stroke-width="0.027"/>
          </g>
          <g id="Group_70" data-name="Group 70" transform="translate(1.631 0) rotate(45.202)">
            <path id="Path_405" data-name="Path 405" d="M0,0A.556.556,0,0,0,.326.552.548.548,0,0,0,.664,0L0,0" transform="translate(0.399 0.092)" fill="#ff0"/>
            <path id="Path_406" data-name="Path 406" d="M.055.508,0,0H.331A.451.451,0,0,0,.657.488.489.489,0,0,0,.984,0h.332l-.06.511-1.2,0h0Z" transform="translate(0.074 0.127)" fill="#ff0" stroke="#000" stroke-width="0.027"/>
            <path id="Path_407" data-name="Path 407" d="M.052.125H1.408A.058.058,0,0,0,1.46.063.058.058,0,0,0,1.408,0H.052A.058.058,0,0,0,0,.063.058.058,0,0,0,.052.125Z" transform="translate(0 0)" fill="#ff0" stroke="#000" stroke-width="0.027"/>
            <path id="Path_408" data-name="Path 408" d="M0,0A.35.35,0,0,0,.182.34.355.355,0,0,0,.371,0H0" transform="translate(0.545 0.128)" fill="#ff0" stroke="#000" stroke-width="0.027"/>
            <path id="Path_409" data-name="Path 409" d="M.05.113h1.3A.054.054,0,0,0,1.4.056.054.054,0,0,0,1.349,0H.05A.053.053,0,0,0,0,.056.054.054,0,0,0,.05.113Z" transform="translate(0.031 0.733)" fill="#ff0" stroke="#000" stroke-width="0.027"/>
            <path id="Path_410" data-name="Path 410" d="M.048.113H1.291A.053.053,0,0,0,1.338.056.053.053,0,0,0,1.291,0H.048A.053.053,0,0,0,0,.056.053.053,0,0,0,.048.113Z" transform="translate(0.06 0.62)" fill="#ff0" stroke="#000" stroke-width="0.027"/>
            <path id="Path_411" data-name="Path 411" d="M0,.2H.1V.131H.17V.2h.1V.131H.342V.2h.1V.042A.042.042,0,0,0,.4,0H.046A.045.045,0,0,0,0,.042V.2H0Z" transform="translate(0.509 1.378)" fill="#ff0" stroke="#000" stroke-width="0.027"/>
            <path id="Path_412" data-name="Path 412" d="M.322.516.344,0H0L.023.517h.3" transform="translate(0.557 0.848)" fill="#ff0" stroke="#000" stroke-width="0.027"/>
            <path id="cp1-7" data-name="cp1" d="M.32.278.33,0H0L.009.278H.32Z" transform="translate(0.14 0.847)" fill="#ff0" stroke="#000" stroke-width="0.027"/>
            <path id="Path_413" data-name="Path 413" d="M.32.278.33,0H0L.009.278H.32Z" transform="translate(0.988 0.847)" fill="#ff0" stroke="#000" stroke-width="0.027"/>
            <path id="cp2-7" data-name="cp2" d="M0,.2H.1V.131h.07V.2h.1V.131h.07V.2h.1V.041A.041.041,0,0,0,.39,0H.045A.045.045,0,0,0,0,.042V.2H0Z" transform="translate(0.088 1.126)" fill="#ff0" stroke="#000" stroke-width="0.027"/>
            <path id="Path_414" data-name="Path 414" d="M0,.2H.1V.131h.07V.2h.1V.131h.07V.2h.1V.041A.041.041,0,0,0,.39,0H.045A.045.045,0,0,0,0,.042V.2H0Z" transform="translate(0.937 1.126)" fill="#ff0" stroke="#000" stroke-width="0.027"/>
            <path id="Path_415" data-name="Path 415" d="M0,.123a.035.035,0,1,0,.069,0V0H0V.123" transform="translate(0.696 1.078)"/>
            <path id="cp3-7" data-name="cp3" d="M0,.095a.033.033,0,1,0,.066,0V0H0V.095" transform="translate(0.27 0.928)"/>
            <path id="Path_416" data-name="Path 416" d="M0,.095a.033.033,0,1,0,.066,0V0H0V.095" transform="translate(1.121 0.928)" stroke="#000" stroke-width="0.027"/>
          </g>
        </g>
        <g id="quina" transform="translate(4.164 4.793)">
          <path id="Path_417" data-name="Path 417" d="M12.407,11.082h0a.667.667,0,0,0,.177.455.569.569,0,0,0,.848,0,.667.667,0,0,0,.176-.455v-.861h-1.2l0,.861" transform="translate(-12.407 -10.221)" fill="#039"/>
          <circle id="Ellipse_103" data-name="Ellipse 103" cx="0.119" cy="0.119" r="0.119" transform="translate(0.156 0.209)" fill="#fff"/>
          <circle id="Ellipse_104" data-name="Ellipse 104" cx="0.119" cy="0.119" r="0.119" transform="translate(0.822 0.209)" fill="#fff"/>
          <circle id="Ellipse_105" data-name="Ellipse 105" cx="0.119" cy="0.119" r="0.119" transform="translate(0.488 0.529)" fill="#fff"/>
          <circle id="Ellipse_106" data-name="Ellipse 106" cx="0.119" cy="0.119" r="0.119" transform="translate(0.156 0.863)" fill="#fff"/>
          <circle id="Ellipse_107" data-name="Ellipse 107" cx="0.119" cy="0.119" r="0.119" transform="translate(0.821 0.862)" fill="#fff"/>
        </g>
        <g id="Group_72" data-name="Group 72" transform="translate(4.164 2.711)">
          <path id="Path_418" data-name="Path 418" d="M12.407,11.082h0a.667.667,0,0,0,.177.455.569.569,0,0,0,.848,0,.667.667,0,0,0,.176-.455v-.861h-1.2l0,.861" transform="translate(-12.407 -10.221)" fill="#039"/>
          <circle id="Ellipse_108" data-name="Ellipse 108" cx="0.119" cy="0.119" r="0.119" transform="translate(0.156 0.209)" fill="#fff"/>
          <circle id="Ellipse_109" data-name="Ellipse 109" cx="0.119" cy="0.119" r="0.119" transform="translate(0.822 0.209)" fill="#fff"/>
          <circle id="Ellipse_110" data-name="Ellipse 110" cx="0.119" cy="0.119" r="0.119" transform="translate(0.488 0.529)" fill="#fff"/>
          <circle id="Ellipse_111" data-name="Ellipse 111" cx="0.119" cy="0.119" r="0.119" transform="translate(0.156 0.863)" fill="#fff"/>
          <circle id="Ellipse_112" data-name="Ellipse 112" cx="0.119" cy="0.119" r="0.119" transform="translate(0.821 0.862)" fill="#fff"/>
        </g>
        <g id="Group_73" data-name="Group 73" transform="translate(2.5 4.793)">
          <path id="Path_419" data-name="Path 419" d="M12.407,11.082h0a.667.667,0,0,0,.177.455.569.569,0,0,0,.848,0,.667.667,0,0,0,.176-.455v-.861h-1.2l0,.861" transform="translate(-12.407 -10.221)" fill="#039"/>
          <circle id="Ellipse_113" data-name="Ellipse 113" cx="0.119" cy="0.119" r="0.119" transform="translate(0.156 0.209)" fill="#fff"/>
          <circle id="Ellipse_114" data-name="Ellipse 114" cx="0.119" cy="0.119" r="0.119" transform="translate(0.822 0.209)" fill="#fff"/>
          <circle id="Ellipse_115" data-name="Ellipse 115" cx="0.119" cy="0.119" r="0.119" transform="translate(0.488 0.529)" fill="#fff"/>
          <circle id="Ellipse_116" data-name="Ellipse 116" cx="0.119" cy="0.119" r="0.119" transform="translate(0.156 0.863)" fill="#fff"/>
          <circle id="Ellipse_117" data-name="Ellipse 117" cx="0.119" cy="0.119" r="0.119" transform="translate(0.821 0.862)" fill="#fff"/>
        </g>
        <g id="Group_74" data-name="Group 74" transform="translate(5.824 4.793)">
          <path id="Path_420" data-name="Path 420" d="M12.407,11.082h0a.667.667,0,0,0,.177.455.569.569,0,0,0,.848,0,.667.667,0,0,0,.176-.455v-.861h-1.2l0,.861" transform="translate(-12.407 -10.221)" fill="#039"/>
          <circle id="Ellipse_118" data-name="Ellipse 118" cx="0.119" cy="0.119" r="0.119" transform="translate(0.156 0.209)" fill="#fff"/>
          <circle id="Ellipse_119" data-name="Ellipse 119" cx="0.119" cy="0.119" r="0.119" transform="translate(0.822 0.209)" fill="#fff"/>
          <circle id="Ellipse_120" data-name="Ellipse 120" cx="0.119" cy="0.119" r="0.119" transform="translate(0.488 0.529)" fill="#fff"/>
          <circle id="Ellipse_121" data-name="Ellipse 121" cx="0.119" cy="0.119" r="0.119" transform="translate(0.156 0.863)" fill="#fff"/>
          <circle id="Ellipse_122" data-name="Ellipse 122" cx="0.119" cy="0.119" r="0.119" transform="translate(0.821 0.862)" fill="#fff"/>
        </g>
        <g id="Group_75" data-name="Group 75" transform="translate(4.164 6.855)">
          <path id="Path_421" data-name="Path 421" d="M12.407,11.082h0a.667.667,0,0,0,.177.455.569.569,0,0,0,.848,0,.667.667,0,0,0,.176-.455v-.861h-1.2l0,.861" transform="translate(-12.407 -10.221)" fill="#039"/>
          <circle id="Ellipse_123" data-name="Ellipse 123" cx="0.119" cy="0.119" r="0.119" transform="translate(0.156 0.209)" fill="#fff"/>
          <circle id="Ellipse_124" data-name="Ellipse 124" cx="0.119" cy="0.119" r="0.119" transform="translate(0.822 0.209)" fill="#fff"/>
          <circle id="Ellipse_125" data-name="Ellipse 125" cx="0.119" cy="0.119" r="0.119" transform="translate(0.488 0.529)" fill="#fff"/>
          <circle id="Ellipse_126" data-name="Ellipse 126" cx="0.119" cy="0.119" r="0.119" transform="translate(0.156 0.863)" fill="#fff"/>
          <circle id="Ellipse_127" data-name="Ellipse 127" cx="0.119" cy="0.119" r="0.119" transform="translate(0.821 0.862)" fill="#fff"/>
        </g>
      </g>
    </g>
  </g>
</svg>
