<svg xmlns="http://www.w3.org/2000/svg" xmlns:xlink="http://www.w3.org/1999/xlink" width="32" height="32" viewBox="0 0 32 32">
  <defs>
    <clipPath id="clip-path">
      <circle id="Singapore" cx="16" cy="16" r="16" transform="translate(717 1231)" fill="#fff"/>
    </clipPath>
  </defs>
  <g id="Singapore-2" data-name="Singapore" transform="translate(-717 -1231)" clip-path="url(#clip-path)">
    <g id="Flag_of_Singapore" transform="translate(717 1231)">
      <rect id="Rectangle_81" data-name="Rectangle 81" width="48" height="32" fill="#ed2939"/>
      <rect id="Rectangle_82" data-name="Rectangle 82" width="48" height="16" transform="translate(0 16)" fill="#fff"/>
      <path id="Path_1134" data-name="Path 1134" d="M14.987,7.339A6.017,6.017,0,1,1,8.97,1.322a6.017,6.017,0,0,1,6.017,6.017Z" transform="translate(3.477 0.661)" fill="#fff"/>
      <path id="Path_1135" data-name="Path 1135" d="M16.026,7.229A5.686,5.686,0,1,1,10.34,1.543a5.686,5.686,0,0,1,5.686,5.686Z" transform="translate(4.327 0.771)" fill="#ed2939"/>
      <path id="star" d="M8.174,6.312l-.817-.627-.817.627L6.854,5.3l-.82-.623,1.012,0,.31-1.012L7.667,4.68l1.012,0-.82.624Z" transform="translate(5.017 1.834)" fill="#fff"/>
      <path id="Path_1136" data-name="Path 1136" d="M8.174,6.312l-.817-.627-.817.627L6.854,5.3l-.82-.623,1.012,0,.31-1.012L7.667,4.68l1.012,0-.82.624Z" transform="translate(11.43 1.834)" fill="#fff"/>
      <path id="Path_1137" data-name="Path 1137" d="M8.174,6.312l-.817-.627-.817.627L6.854,5.3l-.82-.623,1.012,0,.31-1.012L7.667,4.68l1.012,0-.82.624Z" transform="translate(8.227 -0.547)" fill="#fff"/>
      <path id="Path_1138" data-name="Path 1138" d="M8.174,6.312l-.817-.627-.817.627L6.854,5.3l-.82-.623,1.012,0,.31-1.012L7.667,4.68l1.012,0-.82.624Z" transform="translate(6.217 5.642)" fill="#fff"/>
      <path id="Path_1139" data-name="Path 1139" d="M8.174,6.312l-.817-.627-.817.627L6.854,5.3l-.82-.623,1.012,0,.31-1.012L7.667,4.68l1.012,0-.82.624Z" transform="translate(10.23 5.642)" fill="#fff"/>
    </g>
  </g>
</svg>
