<svg xmlns="http://www.w3.org/2000/svg" xmlns:xlink="http://www.w3.org/1999/xlink" width="32" height="32" viewBox="0 0 32 32">
  <defs>
    <clipPath id="clip-path">
      <circle id="Slovenia" cx="16" cy="16" r="16" transform="translate(557 585)" fill="#fff"/>
    </clipPath>
  </defs>
  <g id="Slovenia-2" data-name="Slovenia" transform="translate(-557 -585)" clip-path="url(#clip-path)">
    <g id="Flag_of_Slovenia" transform="translate(557 585)">
      <path id="Path_584" data-name="Path 584" d="M0,0H64V32H0Z" fill="#fff"/>
      <path id="Path_585" data-name="Path 585" d="M0,5.333H64V26.667H0Z" transform="translate(0 5.333)" fill="#0000bf"/>
      <path id="Path_586" data-name="Path 586" d="M0,10.667H64V21.333H0Z" transform="translate(0 10.667)" fill="#d50000"/>
      <path id="Path_587" data-name="Path 587" d="M6.211,3.076q-.148.065-.293.135l.306,4.84a5.448,5.448,0,0,0,3.87,4.874h0a5.448,5.448,0,0,0,3.87-4.874l.306-4.84q-.146-.07-.294-.135h0L13.664,8.03a5.146,5.146,0,0,1-3.57,4.579h0A5.146,5.146,0,0,1,6.524,8.03L6.211,3.076h0" transform="translate(5.918 3.076)" fill="#d50000"/>
      <path id="Path_588" data-name="Path 588" d="M13.83,3.485a9.624,9.624,0,0,0-7.766,0l.313,4.954a5.146,5.146,0,0,0,3.57,4.579h0a5.146,5.146,0,0,0,3.57-4.579" transform="translate(6.064 2.667)" fill="#0000bf"/>
      <g id="Group_182" data-name="Group 182" transform="translate(14.508 5.719)">
        <path id="Path_589" data-name="Path 589" d="M2.526,1.394,2.7,1.159l-.289.031L2.292.924l-.117.266-.289-.031.172.235-.172.235L2.174,1.6l.117.266L2.409,1.6l.289.031" transform="translate(-0.788 0.538)" fill="#ffdf00"/>
        <path id="Path_590" data-name="Path 590" d="M1.978.663,2.15.428,1.861.459,1.743.193,1.626.459,1.337.428l.172.235L1.337.9,1.626.866l.117.266L1.861.866,2.15.9" transform="translate(-1.337 -0.193)" fill="#ffdf00"/>
        <path id="Path_591" data-name="Path 591" d="M3.075.663,3.246.428,2.957.459,2.84.193,2.722.459,2.433.428,2.6.663,2.433.9,2.722.866l.117.266L2.957.866,3.246.9" transform="translate(-0.24 -0.193)" fill="#ffdf00"/>
      </g>
      <g id="Group_183" data-name="Group 183" transform="translate(12.879 8.695)">
        <path id="Path_592" data-name="Path 592" d="M12.7,7.48,11.138,5.391l-.626.835-.94-1.879-.94,1.879-.626-.835L6.44,7.48a1.044,1.044,0,0,0,1.566.9h0a1.044,1.044,0,0,1,1.044,0,1.044,1.044,0,0,0,.522.14h0a1.044,1.044,0,0,0,.522-.14,1.044,1.044,0,0,1,1.044,0h0a1.044,1.044,0,0,0,1.566-.9" transform="translate(-6.44 -4.347)" fill="#fff"/>
        <path id="Path_593" data-name="Path 593" d="M6.625,6.514q.108.214.237.417a0,0,0,0,0,0,0,1.044,1.044,0,0,0,.959-.044h0a1.043,1.043,0,0,1,.522-.14h0a1.043,1.043,0,0,1,.522.14,1.044,1.044,0,0,0,1.044,0h0a1.043,1.043,0,0,1,.522-.14h0a1.043,1.043,0,0,1,.522.14,1.044,1.044,0,0,0,.958.044q.129-.2.237-.417h0A1.047,1.047,0,0,0,12,6.586h0a1.044,1.044,0,0,1-1.044,0,1.044,1.044,0,0,0-.522-.14h0a1.044,1.044,0,0,0-.522.14h0a1.044,1.044,0,0,1-1.044,0,1.044,1.044,0,0,0-.522-.14h0a1.043,1.043,0,0,0-.522.14h0a1.044,1.044,0,0,1-1.044,0,1.046,1.046,0,0,0-.151-.072s0,0,0,0" transform="translate(-6.254 -2.248)" fill="#fff"/>
        <path id="Path_594" data-name="Path 594" d="M11.387,7.014A4.849,4.849,0,0,1,9.133,8.619h0A4.848,4.848,0,0,1,6.879,7.014a1.044,1.044,0,0,0,.688-.127h0a1.043,1.043,0,0,1,.522-.14h0a1.043,1.043,0,0,1,.522.14,1.044,1.044,0,0,0,1.044,0h0a1.043,1.043,0,0,1,.522-.14h0a1.043,1.043,0,0,1,.522.14,1.044,1.044,0,0,0,.688.127h0" transform="translate(-6.001 -1.947)" fill="#fff"/>
      </g>
    </g>
  </g>
</svg>
