<svg xmlns="http://www.w3.org/2000/svg" xmlns:xlink="http://www.w3.org/1999/xlink" width="32" height="32" viewBox="0 0 32 32">
  <defs>
    <clipPath id="clip-path">
      <circle id="Slovakia" cx="16" cy="16" r="16" transform="translate(477 585)" fill="#fff"/>
    </clipPath>
  </defs>
  <g id="Slovakia-2" data-name="Slovakia" transform="translate(-477 -585)" clip-path="url(#clip-path)">
    <g id="Flag_of_Slovakia" transform="translate(472 585)">
      <rect id="Rectangle_60" data-name="Rectangle 60" width="48" height="32" fill="#ee1c25"/>
      <rect id="Rectangle_61" data-name="Rectangle 61" width="48" height="21.333" fill="#0b4ea2"/>
      <rect id="Rectangle_62" data-name="Rectangle 62" width="48" height="10.667" fill="#fff"/>
      <g id="Group_181" data-name="Group 181" transform="translate(7.52 7.52)">
        <path id="_x3C_Path_x3E_" d="M18.479,5.013H5.3l-.045.43c-.01.093-.241,2.345-.241,7.29a8.845,8.845,0,0,0,2.334,6.092,13.675,13.675,0,0,0,4.333,3.1l.208.1.208-.1a13.677,13.677,0,0,0,4.333-3.1,8.845,8.845,0,0,0,2.334-6.092c0-4.945-.231-7.2-.241-7.29l-.045-.43Z" transform="translate(-5.013 -5.013)" fill="#fff"/>
        <path id="Path_581" data-name="Path 581" d="M11.729,21.333c-2.631-1.268-6.4-3.783-6.4-8.76s.238-7.24.238-7.24H17.887s.238,2.263.238,7.24-3.764,7.493-6.4,8.76Z" transform="translate(-4.853 -4.853)" fill="#ee1c25"/>
        <path id="Path_582" data-name="Path 582" d="M11.461,11.076A10.238,10.238,0,0,0,14.8,10.7s-.033.443-.033.959.033.959.033.959a10.744,10.744,0,0,0-3.341-.378V14.99H10.336V12.241A10.744,10.744,0,0,0,7,12.619s.033-.443.033-.959S7,10.7,7,10.7a10.238,10.238,0,0,0,3.341.375V9.349a7.9,7.9,0,0,0-2.643.379s.033-.443.033-.959-.033-.959-.033-.959a7.9,7.9,0,0,0,2.64.379,15.353,15.353,0,0,0-.352-2.471s.655.051.917.051.917-.051.917-.051a15.363,15.363,0,0,0-.352,2.471,7.9,7.9,0,0,0,2.64-.379s-.033.443-.033.959.033.959.033.959a7.9,7.9,0,0,0-2.643-.379v1.726Z" transform="translate(-4.022 -4.66)" fill="#fff"/>
        <path id="Path_583" data-name="Path 583" d="M11.3,11.7c-1.325,0-2.035,1.838-2.035,1.838a1.625,1.625,0,0,0-1.475-.872A2.081,2.081,0,0,0,6.18,13.921,12.158,12.158,0,0,0,11.3,18.149a12.159,12.159,0,0,0,5.126-4.228,2.081,2.081,0,0,0-1.614-1.253,1.629,1.629,0,0,0-1.477.872S12.63,11.7,11.3,11.7Z" transform="translate(-4.43 -1.669)" fill="#0b4ea2"/>
      </g>
    </g>
  </g>
</svg>
