<svg xmlns="http://www.w3.org/2000/svg" xmlns:xlink="http://www.w3.org/1999/xlink" width="32" height="32" viewBox="0 0 32 32">
  <defs>
    <clipPath id="clip-path">
      <circle id="North-East" cx="16" cy="16" r="16" transform="translate(477 2007)" fill="#fff"/>
    </clipPath>
  </defs>
  <g id="South_East" data-name="South East" transform="translate(-477 -2007)" clip-path="url(#clip-path)">
    <g id="Flag_of_the_United_States" transform="translate(468.6 2007)">
      <rect id="Rectangle_107" data-name="Rectangle 107" width="60.8" height="32" fill="#b22234"/>
      <path id="Path_1379" data-name="Path 1379" d="M0,1.943H60.8m0,4.923H0m0,4.923H60.8m0,4.923H0m0,4.923H60.8m0,4.923H0" transform="translate(0 1.749)" stroke="#fff" stroke-width="1.296"/>
      <rect id="Rectangle_108" data-name="Rectangle 108" width="24.32" height="17.231" fill="#3c3b6e"/>
      <g id="Group_331" data-name="Group 331" transform="translate(1.09 0.738)">
        <g id="s18">
          <g id="s9">
            <g id="s5">
              <g id="s4">
                <path id="s" d="M1.51.389,2.089,2.17.574,1.069H2.447L.931,2.17Z" transform="translate(-0.574 -0.389)" fill="#fff"/>
                <path id="Path_1380" data-name="Path 1380" d="M1.51.389,2.089,2.17.574,1.069H2.447L.931,2.17Z" transform="translate(-0.574 3.057)" fill="#fff"/>
                <path id="Path_1381" data-name="Path 1381" d="M1.51.389,2.089,2.17.574,1.069H2.447L.931,2.17Z" transform="translate(-0.574 6.504)" fill="#fff"/>
                <path id="Path_1382" data-name="Path 1382" d="M1.51.389,2.089,2.17.574,1.069H2.447L.931,2.17Z" transform="translate(-0.574 9.95)" fill="#fff"/>
              </g>
              <path id="Path_1383" data-name="Path 1383" d="M1.51.389,2.089,2.17.574,1.069H2.447L.931,2.17Z" transform="translate(-0.574 13.396)" fill="#fff"/>
            </g>
            <g id="Group_321" data-name="Group 321" transform="translate(2.027 1.723)">
              <path id="s-2" data-name="s" d="M1.51.389,2.089,2.17.574,1.069H2.447L.931,2.17Z" transform="translate(-0.574 -0.389)" fill="#fff"/>
              <path id="Path_1384" data-name="Path 1384" d="M1.51.389,2.089,2.17.574,1.069H2.447L.931,2.17Z" transform="translate(-0.574 3.057)" fill="#fff"/>
              <path id="Path_1385" data-name="Path 1385" d="M1.51.389,2.089,2.17.574,1.069H2.447L.931,2.17Z" transform="translate(-0.574 6.504)" fill="#fff"/>
              <path id="Path_1386" data-name="Path 1386" d="M1.51.389,2.089,2.17.574,1.069H2.447L.931,2.17Z" transform="translate(-0.574 9.95)" fill="#fff"/>
            </g>
          </g>
          <g id="Group_323" data-name="Group 323" transform="translate(4.053)">
            <g id="s5-2" data-name="s5" transform="translate(0)">
              <g id="s4-2" data-name="s4">
                <path id="s-3" data-name="s" d="M1.51.389,2.089,2.17.574,1.069H2.447L.931,2.17Z" transform="translate(-0.574 -0.389)" fill="#fff"/>
                <path id="Path_1387" data-name="Path 1387" d="M1.51.389,2.089,2.17.574,1.069H2.447L.931,2.17Z" transform="translate(-0.574 3.057)" fill="#fff"/>
                <path id="Path_1388" data-name="Path 1388" d="M1.51.389,2.089,2.17.574,1.069H2.447L.931,2.17Z" transform="translate(-0.574 6.504)" fill="#fff"/>
                <path id="Path_1389" data-name="Path 1389" d="M1.51.389,2.089,2.17.574,1.069H2.447L.931,2.17Z" transform="translate(-0.574 9.95)" fill="#fff"/>
              </g>
              <path id="Path_1390" data-name="Path 1390" d="M1.51.389,2.089,2.17.574,1.069H2.447L.931,2.17Z" transform="translate(-0.574 13.396)" fill="#fff"/>
            </g>
            <g id="Group_322" data-name="Group 322" transform="translate(2.027 1.723)">
              <path id="s-4" data-name="s" d="M1.51.389,2.089,2.17.574,1.069H2.447L.931,2.17Z" transform="translate(-0.574 -0.389)" fill="#fff"/>
              <path id="Path_1391" data-name="Path 1391" d="M1.51.389,2.089,2.17.574,1.069H2.447L.931,2.17Z" transform="translate(-0.574 3.057)" fill="#fff"/>
              <path id="Path_1392" data-name="Path 1392" d="M1.51.389,2.089,2.17.574,1.069H2.447L.931,2.17Z" transform="translate(-0.574 6.504)" fill="#fff"/>
              <path id="Path_1393" data-name="Path 1393" d="M1.51.389,2.089,2.17.574,1.069H2.447L.931,2.17Z" transform="translate(-0.574 9.95)" fill="#fff"/>
            </g>
          </g>
        </g>
        <g id="Group_327" data-name="Group 327" transform="translate(8.107)">
          <g id="s9-2" data-name="s9" transform="translate(0)">
            <g id="s5-3" data-name="s5">
              <g id="s4-3" data-name="s4">
                <path id="s-5" data-name="s" d="M1.51.389,2.089,2.17.574,1.069H2.447L.931,2.17Z" transform="translate(-0.574 -0.389)" fill="#fff"/>
                <path id="Path_1394" data-name="Path 1394" d="M1.51.389,2.089,2.17.574,1.069H2.447L.931,2.17Z" transform="translate(-0.574 3.057)" fill="#fff"/>
                <path id="Path_1395" data-name="Path 1395" d="M1.51.389,2.089,2.17.574,1.069H2.447L.931,2.17Z" transform="translate(-0.574 6.504)" fill="#fff"/>
                <path id="Path_1396" data-name="Path 1396" d="M1.51.389,2.089,2.17.574,1.069H2.447L.931,2.17Z" transform="translate(-0.574 9.95)" fill="#fff"/>
              </g>
              <path id="Path_1397" data-name="Path 1397" d="M1.51.389,2.089,2.17.574,1.069H2.447L.931,2.17Z" transform="translate(-0.574 13.396)" fill="#fff"/>
            </g>
            <g id="Group_324" data-name="Group 324" transform="translate(2.027 1.723)">
              <path id="s-6" data-name="s" d="M1.51.389,2.089,2.17.574,1.069H2.447L.931,2.17Z" transform="translate(-0.574 -0.389)" fill="#fff"/>
              <path id="Path_1398" data-name="Path 1398" d="M1.51.389,2.089,2.17.574,1.069H2.447L.931,2.17Z" transform="translate(-0.574 3.057)" fill="#fff"/>
              <path id="Path_1399" data-name="Path 1399" d="M1.51.389,2.089,2.17.574,1.069H2.447L.931,2.17Z" transform="translate(-0.574 6.504)" fill="#fff"/>
              <path id="Path_1400" data-name="Path 1400" d="M1.51.389,2.089,2.17.574,1.069H2.447L.931,2.17Z" transform="translate(-0.574 9.95)" fill="#fff"/>
            </g>
          </g>
          <g id="Group_326" data-name="Group 326" transform="translate(4.053)">
            <g id="s5-4" data-name="s5" transform="translate(0)">
              <g id="s4-4" data-name="s4">
                <path id="s-7" data-name="s" d="M1.51.389,2.089,2.17.574,1.069H2.447L.931,2.17Z" transform="translate(-0.574 -0.389)" fill="#fff"/>
                <path id="Path_1401" data-name="Path 1401" d="M1.51.389,2.089,2.17.574,1.069H2.447L.931,2.17Z" transform="translate(-0.574 3.057)" fill="#fff"/>
                <path id="Path_1402" data-name="Path 1402" d="M1.51.389,2.089,2.17.574,1.069H2.447L.931,2.17Z" transform="translate(-0.574 6.504)" fill="#fff"/>
                <path id="Path_1403" data-name="Path 1403" d="M1.51.389,2.089,2.17.574,1.069H2.447L.931,2.17Z" transform="translate(-0.574 9.95)" fill="#fff"/>
              </g>
              <path id="Path_1404" data-name="Path 1404" d="M1.51.389,2.089,2.17.574,1.069H2.447L.931,2.17Z" transform="translate(-0.574 13.396)" fill="#fff"/>
            </g>
            <g id="Group_325" data-name="Group 325" transform="translate(2.027 1.723)">
              <path id="s-8" data-name="s" d="M1.51.389,2.089,2.17.574,1.069H2.447L.931,2.17Z" transform="translate(-0.574 -0.389)" fill="#fff"/>
              <path id="Path_1405" data-name="Path 1405" d="M1.51.389,2.089,2.17.574,1.069H2.447L.931,2.17Z" transform="translate(-0.574 3.057)" fill="#fff"/>
              <path id="Path_1406" data-name="Path 1406" d="M1.51.389,2.089,2.17.574,1.069H2.447L.931,2.17Z" transform="translate(-0.574 6.504)" fill="#fff"/>
              <path id="Path_1407" data-name="Path 1407" d="M1.51.389,2.089,2.17.574,1.069H2.447L.931,2.17Z" transform="translate(-0.574 9.95)" fill="#fff"/>
            </g>
          </g>
        </g>
        <g id="Group_329" data-name="Group 329" transform="translate(16.213)">
          <g id="s5-5" data-name="s5" transform="translate(0)">
            <g id="s4-5" data-name="s4">
              <path id="s-9" data-name="s" d="M1.51.389,2.089,2.17.574,1.069H2.447L.931,2.17Z" transform="translate(-0.574 -0.389)" fill="#fff"/>
              <path id="Path_1408" data-name="Path 1408" d="M1.51.389,2.089,2.17.574,1.069H2.447L.931,2.17Z" transform="translate(-0.574 3.057)" fill="#fff"/>
              <path id="Path_1409" data-name="Path 1409" d="M1.51.389,2.089,2.17.574,1.069H2.447L.931,2.17Z" transform="translate(-0.574 6.504)" fill="#fff"/>
              <path id="Path_1410" data-name="Path 1410" d="M1.51.389,2.089,2.17.574,1.069H2.447L.931,2.17Z" transform="translate(-0.574 9.95)" fill="#fff"/>
            </g>
            <path id="Path_1411" data-name="Path 1411" d="M1.51.389,2.089,2.17.574,1.069H2.447L.931,2.17Z" transform="translate(-0.574 13.396)" fill="#fff"/>
          </g>
          <g id="Group_328" data-name="Group 328" transform="translate(2.027 1.723)">
            <path id="s-10" data-name="s" d="M1.51.389,2.089,2.17.574,1.069H2.447L.931,2.17Z" transform="translate(-0.574 -0.389)" fill="#fff"/>
            <path id="Path_1412" data-name="Path 1412" d="M1.51.389,2.089,2.17.574,1.069H2.447L.931,2.17Z" transform="translate(-0.574 3.057)" fill="#fff"/>
            <path id="Path_1413" data-name="Path 1413" d="M1.51.389,2.089,2.17.574,1.069H2.447L.931,2.17Z" transform="translate(-0.574 6.504)" fill="#fff"/>
            <path id="Path_1414" data-name="Path 1414" d="M1.51.389,2.089,2.17.574,1.069H2.447L.931,2.17Z" transform="translate(-0.574 9.95)" fill="#fff"/>
          </g>
        </g>
        <g id="Group_330" data-name="Group 330" transform="translate(20.267)">
          <g id="s4-6" data-name="s4" transform="translate(0)">
            <path id="s-11" data-name="s" d="M1.51.389,2.089,2.17.574,1.069H2.447L.931,2.17Z" transform="translate(-0.574 -0.389)" fill="#fff"/>
            <path id="Path_1415" data-name="Path 1415" d="M1.51.389,2.089,2.17.574,1.069H2.447L.931,2.17Z" transform="translate(-0.574 3.057)" fill="#fff"/>
            <path id="Path_1416" data-name="Path 1416" d="M1.51.389,2.089,2.17.574,1.069H2.447L.931,2.17Z" transform="translate(-0.574 6.504)" fill="#fff"/>
            <path id="Path_1417" data-name="Path 1417" d="M1.51.389,2.089,2.17.574,1.069H2.447L.931,2.17Z" transform="translate(-0.574 9.95)" fill="#fff"/>
          </g>
          <path id="Path_1418" data-name="Path 1418" d="M1.51.389,2.089,2.17.574,1.069H2.447L.931,2.17Z" transform="translate(-0.574 13.396)" fill="#fff"/>
        </g>
      </g>
    </g>
  </g>
</svg>
