<svg xmlns="http://www.w3.org/2000/svg" xmlns:xlink="http://www.w3.org/1999/xlink" width="32" height="32" viewBox="0 0 32 32">
  <defs>
    <clipPath id="clip-path">
      <circle id="Sri_Lanka" data-name="Sri Lanka" cx="16" cy="16" r="16" transform="translate(1277 1231)" fill="#fff"/>
    </clipPath>
  </defs>
  <g id="Sri_Lankka" data-name="Sri Lankka" transform="translate(-1277 -1231)" clip-path="url(#clip-path)">
    <g id="Flag_of_Sri_Lanka" transform="translate(1251 1231)">
      <rect id="Rectangle_93" data-name="Rectangle 93" width="64" height="32" fill="#ffbe29"/>
      <rect id="Rectangle_94" data-name="Rectangle 94" width="17.6" height="26.667" transform="translate(2.667 2.667)" fill="#eb7400"/>
      <rect id="Rectangle_95" data-name="Rectangle 95" width="8.8" height="26.667" transform="translate(2.667 2.667)" fill="#00534e"/>
      <rect id="Rectangle_96" data-name="Rectangle 96" width="38.667" height="26.667" transform="translate(22.933 2.667)" fill="#8d153a"/>
      <path id="leaf" d="M28.963,12.428a3.56,3.56,0,0,0,.763,1.039c.593.446,1.81.413,2.327.933.619.613-.048,1.423-.042,1.493l.034.428s-.417.005-.593.032c-.264.041-.367.256-.859.224-1.237-.08-1.187-1.195-1.257-2.147-.062-.363-.206-.835-.288-1.2a5.407,5.407,0,0,1-.085-.806Z" transform="translate(28.963 12.428)" fill="#ffbe29" stroke="#000" stroke-width="0.057"/>
      <path id="Path_1175" data-name="Path 1175" d="M0,4.153A3.56,3.56,0,0,1,.763,3.114c.593-.446,1.81-.413,2.327-.933C3.709,1.568,3.042.758,3.048.688L3.082.26S2.664.255,2.489.227C2.224.186,2.121-.029,1.629,0,.393.083.442,1.2.372,2.15c-.062.363-.206.835-.288,1.2A5.407,5.407,0,0,0,0,4.153Z" transform="translate(26.608 29.01) rotate(180)" fill="#ffbe29" stroke="#000" stroke-width="0.057"/>
      <path id="Path_1176" data-name="Path 1176" d="M28.963-10.352a3.56,3.56,0,0,1,.763-1.039c.593-.446,1.81-.413,2.327-.933.619-.613-.048-1.423-.042-1.493l.034-.428s-.417-.005-.593-.032c-.264-.041-.367-.256-.859-.224-1.237.08-1.187,1.195-1.257,2.147-.062.363-.206.835-.288,1.2a5.407,5.407,0,0,0-.085.806Z" transform="translate(28.963 17.495)" fill="#ffbe29" stroke="#000" stroke-width="0.057"/>
      <path id="Path_1177" data-name="Path 1177" d="M0,0A3.56,3.56,0,0,0,.763,1.039c.593.446,1.81.413,2.327.933.619.613-.048,1.423-.042,1.493l.034.428s-.417.005-.593.032c-.264.041-.367.256-.859.224C.393,4.07.442,2.956.372,2,.31,1.641.167,1.168.085.806A5.407,5.407,0,0,1,0,0Z" transform="translate(26.608 7.143) rotate(180)" fill="#ffbe29" stroke="#000" stroke-width="0.057"/>
      <g id="Group_285" data-name="Group 285" transform="translate(30.148 5.482)">
        <path id="Path_1178" data-name="Path 1178" d="M19.16,22.2l.232-.134.1.134a.573.573,0,0,0,.742,0l.186-.139.156.139a.7.7,0,0,0,.832,0c.171-.127.195-.13.308-.033a1.056,1.056,0,0,0,.439.146c.314.041.319.038.5-.237a.615.615,0,0,0,.141-.548c-.024-.148-.051-.387-.058-.53-.014-.26-.012-.261.366-.393a5.1,5.1,0,0,0,.537-.217,2.058,2.058,0,0,0,.568-.667.8.8,0,0,0-.362-.087c-.791-.089-.925-.514-.411-1.3a7.234,7.234,0,0,0,1.348-3.338c0-.357.022-.477.068-.4a4.509,4.509,0,0,1-.657,2.6l-.2.384.2-.045c.107-.025.739-.291,1.4-.592A6.75,6.75,0,0,1,29.214,16a2.529,2.529,0,0,1,2.1.965,6.408,6.408,0,0,0,1.375,1.071c1.385.867,1.443.942,1.509,1.962s.034,1.089-.748,1.262c-.668.148-1.087.459-1.2.892-.06.231.066.238.4.021l.247-.159.11.159c.144.209.451.209.706,0l.192-.157.2.157a.513.513,0,0,0,.827-.12c.022-.059.081-.04.2.064.223.194.8.277.857.125a.467.467,0,0,0-.1-.319,1.867,1.867,0,0,1-.441-1.009c-.006-.378.107-.56.537-.868.522-.373.684-.855.286-.855-.245,0-.492-.217-.65-.57a3.693,3.693,0,0,1,.223-2.862,5.755,5.755,0,0,0,.545-2.52,2.5,2.5,0,0,0-.184-1.266,4.542,4.542,0,0,0-.461-.816l-.275-.367.353-.293a1.662,1.662,0,0,0-.441-2.921A2.186,2.186,0,0,0,34.191,7.4a10.164,10.164,0,0,0-1.416.122,9.826,9.826,0,0,1-1.418.12c-.679,0-.794-.014-1.055-.153s-.319-.214-.373-.55a.2.2,0,0,0-.107-.153c-.093-.029-.521.343-.584.507-.031.081-.057.076-.148-.033a1.339,1.339,0,0,1-.189-.367c-.108-.327.025-.573.409-.756l.3-.143-.176-.109a.952.952,0,0,0-1.2.3.555.555,0,0,1-.153.192,1.31,1.31,0,0,1-.267-.223.776.776,0,0,1,.32-1.343c.334-.11.63-.026.692.2.094.34.386-.107.334-.511-.035-.269-.03-.278.156-.278a1.673,1.673,0,0,1,.979.6,1.145,1.145,0,0,1-.034,1.151l-.171.283.223-.045a1.306,1.306,0,0,0,.807-.516,1.19,1.19,0,0,0,.038-1.043c-.146-.266-.13-.308.087-.218a1.23,1.23,0,0,1,.712.61.622.622,0,0,1,.068.595,1.709,1.709,0,0,1-.219.488c-.119.158-.123.184-.028.184a1.285,1.285,0,0,0,.675-.306,1.369,1.369,0,0,0,.214-.385l.094-.257.108.2a1.679,1.679,0,0,0,.811.681c.389.167.551.176.348.02a1.666,1.666,0,0,1-.313-.919,5.044,5.044,0,0,1,1.176.9,1.988,1.988,0,0,0,1.453.68.765.765,0,0,0,.758-1.133A.468.468,0,0,0,36.3,5.7a.377.377,0,0,0-.1.36c.038.163.023.184-.125.184-.195,0-.578-.249-1.259-.817A10.176,10.176,0,0,0,31.6,3.559a7.066,7.066,0,0,0-2.428-.131,3.967,3.967,0,0,0-1.819.88,1.676,1.676,0,0,0-.031,2.474l.2.242-.139.215a.932.932,0,0,0,.043,1.046.959.959,0,0,0,.224.249c.023,0,.049-.088.057-.2a.547.547,0,0,1,.337-.526c.18-.065.3-.034,1.123.3a7.323,7.323,0,0,0,3.817.064A4.247,4.247,0,0,1,35,8.193a.992.992,0,0,1,.352,1.655c-.225.254-.443.357-1.172.557a5.46,5.46,0,0,1-1.949.15,8.373,8.373,0,0,0-1.906.1,8.558,8.558,0,0,1-2.175.074l-1.623-.041.18.149a2.831,2.831,0,0,0,.311.224c.122.07.118.08-.064.147a1.9,1.9,0,0,1-.527.072h-.333l-.045.283a1.018,1.018,0,0,0,0,.4c.04.1.025.112-.078.075-.07-.025-.265-.076-.433-.111a2.665,2.665,0,0,1-.5-.162c-.183-.089-.2-.087-.27.032a2.633,2.633,0,0,1-.707.526c-.013,0-.031-.081-.038-.18a2.605,2.605,0,0,0-.181-.572c-.092-.216-.188-.451-.213-.523-.038-.109-.056-.114-.1-.033a1.407,1.407,0,0,0-.1.327,1.551,1.551,0,0,1-.189.455l-.145.226L23,11.835c-.1-.207-.265-.422-.324-.422-.02,0-.055.066-.076.147a1.584,1.584,0,0,1-.533.638c-.035,0-.064-.132-.064-.294s-.031-.294-.069-.294-.069.042-.069.093c0,.124-.334.5-.447.5a.287.287,0,0,0-.175.1c-.123.141-.224.121-.172-.034a.767.767,0,0,0-.035-.376l-.1-.318c-.016-.051-.136-.037-.39.044-.41.131-.547.108-.336-.057a1.238,1.238,0,0,0,.26-.465.8.8,0,0,1,.217-.385c.074-.023.071.005-.017.124a.576.576,0,0,0-.114.254.835.835,0,0,1-.1.29c-.057.1-.094.2-.08.213a1.2,1.2,0,0,0,.347-.132l.322-.155v.138a2.441,2.441,0,0,0,.086.446l.085.308.219-.1a.942.942,0,0,0,.437-.755c0-.141.081-.119.114.03.01.044.06.209.113.366l.095.286.15-.181a1.534,1.534,0,0,0,.23-.434c.076-.241.2-.345.2-.17,0,.126.345.579.411.54a1.061,1.061,0,0,0,.142-.378c.1-.393.25-.66.349-.6a.068.068,0,0,1,.032.093,1.9,1.9,0,0,0,.176.568l.26.632c.043.1.081.089.33-.131a1.553,1.553,0,0,0,.313-.341c.026-.076.06-.074.205.017a2.508,2.508,0,0,0,.938.279,1.366,1.366,0,0,0,.045-.4l.009-.364.2.041a1.834,1.834,0,0,0,.5,0l.308-.044-.275-.188a1.512,1.512,0,0,1-.339-.3.455.455,0,0,0-.325-.132c-.411-.035-1.141-.444-1.141-.64,0-.037.1.026.224.139a1.541,1.541,0,0,0,.987.409h.249l-.154-.2a1.187,1.187,0,0,1-.186-.524c-.03-.292-.061-.339-.366-.551a3.514,3.514,0,0,1-.5-.425l-.171-.193-.087.229c-.048.126-.107.229-.131.229a.711.711,0,0,1-.205-.164.726.726,0,0,0-.2-.163.84.84,0,0,0-.176.269l-.136.268-.1-.155a2.362,2.362,0,0,0-.3-.335c-.109-.1-.166-.18-.127-.18a.925.925,0,0,1,.3.229l.228.229.093-.168a.6.6,0,0,0,.051-.376c-.036-.18-.031-.191.038-.078a1.627,1.627,0,0,0,.3.307l.217.176.149-.274c.149-.273.15-.273.218-.11a4.161,4.161,0,0,0,1.3,1.068q.129.073-.109-.5a1.267,1.267,0,0,1-.076-.406c0-.181-.052-.261-.283-.437a1.091,1.091,0,0,1-.5-.845,1.174,1.174,0,0,0-.13-.41c-.068-.089-.079-.039-.061.269a1.629,1.629,0,0,1-.06.574l-.082.2-.064-.164a1.033,1.033,0,0,0-.344-.348c-.154-.1-.263-.2-.241-.222s.181.071.353.2c.262.2.32.225.356.136A2.439,2.439,0,0,0,25.07,6.7c-.041-.16-.038-.159.16.038a1.117,1.117,0,0,1,.288.621,1.029,1.029,0,0,0,.474.76,2.055,2.055,0,0,0,.413.317c.014-.013.041-.5.06-1.077.037-1.112,0-1.376-.273-1.719l-.138-.176.216-.233a1.592,1.592,0,0,0,.468-.881l.046-.271-.244.231a.626.626,0,0,1-.527.231.523.523,0,0,1-.473-.2,1.984,1.984,0,0,0-.829-.48c-.117-.034-.155-.019-.155.06a1.218,1.218,0,0,1-.143.371l-.143.266-.3-.3a1.442,1.442,0,0,0-.565-.366c-.415-.109-.437-.1-.437.211,0,.469-.2.556-.561.245a1.123,1.123,0,0,0-1.024-.232l-.4.044.072.182c.06.152.047.216-.083.388a1.017,1.017,0,0,1-.9.4,1.564,1.564,0,0,0-.539.089,2.161,2.161,0,0,1-.566.125,3,3,0,0,0-.495.079c-.1.037-.11.007-.078-.219a.518.518,0,0,0-.567-.6c-.486,0-.711.435-.52,1.009.037.11.085.285.107.387a2.309,2.309,0,0,0,.51.657,5.771,5.771,0,0,1,.543.6.9.9,0,0,0,.295.251l.222.123L18.95,7.4c-.032-.261.025-.3.164-.118a1.223,1.223,0,0,0,.28.236c.165.1.19.1.19.015a1.016,1.016,0,0,1,.075-.285l.075-.184.129.251a4.961,4.961,0,0,0,.514.7c.411.475.661,1.006.532,1.129-.052.05-.194.046-.487-.013a2.478,2.478,0,0,0-.625-.054c-.238.033-.256,0-.11-.181s.13-.225-.173-.225a6.317,6.317,0,0,1-1.556-.3c-.325-.129-.4-.1-.5.212-.043.139-.122.39-.175.559l-.1.306.352-.034a3.682,3.682,0,0,0,.553-.094.564.564,0,0,1,.223-.039.756.756,0,0,1-.11.266l-.132.245.219-.045a2.061,2.061,0,0,0,.4-.134c.176-.085.19-.079.329.144.171.274.307.263.338-.028s.13-.256.316.142c.179.383.365.518.4.291a.544.544,0,0,1,.214-.273c.214-.151.375-.106.468.131s-.118.5-.739.874a4.3,4.3,0,0,0-2.174,3.1,3.512,3.512,0,0,0,1.562,3.291c.558.421,1.445.866,1.389.7a3.71,3.71,0,0,1,.013-2.326c.037-.035.024.109-.028.319a4.624,4.624,0,0,0,.388,2.867c.451,1.322.388,1.887-.25,2.26-.2.12-.337.14-.888.133-.6-.007-.663,0-.855.158a1.568,1.568,0,0,0-.427.862c0,.123.137.107.405-.048Z" transform="translate(-12.96 -2.106)" fill="#ffbe29" stroke="#000" stroke-width="0.148"/>
        <path id="Path_1179" data-name="Path 1179" d="M23.267,15.843l.251-.161.17.161a.459.459,0,0,0,.7-.013c.094-.1.178-.162.187-.147l.093.157c.053.091.162.137.359.151.237.017.3-.006.395-.142l.112-.162.247.159c.676.434,1.036-.021.734-.929-.154-.461-.069-.721.426-1.308a1.865,1.865,0,0,0,.38-.587c0-.12-.039-.136-.316-.131s-.344-.023-.483-.177a.6.6,0,0,1,.04-.856l.2-.254L26.4,11.36a6,6,0,0,1-.795-.707,2.572,2.572,0,0,0-1.759-.9l-.466-.041v.353a2.725,2.725,0,0,0,.8,1.631,2.481,2.481,0,0,1,.735,2.072l.023.93-.191.182c-.173.164-.251.185-.809.217-.531.031-.643.058-.8.2a.868.868,0,0,0-.333.537c-.037.148-.022.18.084.18a1,1,0,0,0,.381-.161Z" transform="translate(-7.365 4.225)" fill="#ffbe29" stroke="#000" stroke-width="0.148"/>
        <path id="Path_1180" data-name="Path 1180" d="M16.616,13.636a.581.581,0,0,0,.108-.287c0-.118.053-.149.311-.186l.311-.044-.207-.165c-.246-.2-.269-.35-.052-.35a.868.868,0,0,0,.638-.391.261.261,0,0,0-.037-.233c-.121-.138-.349-.118-.392.036s-.122.165-.294,0a.814.814,0,0,1-.012-1.052c.12-.14.118-.149-.034-.293s-.281-.463-.2-.536a.5.5,0,0,1,.288.041c.19.065.265.066.344,0,.237-.187-.02-.426-.4-.373-.153.021-.216,0-.238-.079-.017-.06-.151-.139-.3-.177-.27-.068-.272-.067-.272.118,0,.2-.116.242-.337.111-.179-.106-.354-.024-.354.167s.179.266.5.246c.247-.016.256.167.022.431l-.168.189.133.192a.865.865,0,0,1-.035.989l-.169.184-.111-.147c-.154-.2-.365-.191-.423.027-.038.143-.007.208.172.36a.774.774,0,0,0,.39.185c.234,0,.224.184-.018.369l-.19.145.294.046c.161.025.294.072.294.1,0,.125.2.513.269.513.038,0,.117-.065.176-.145Z" transform="translate(-14.933 4.028)" fill="#ffbe29" stroke="#000" stroke-width="0.148"/>
        <path id="Path_1181" data-name="Path 1181" d="M19.64,13.161a2.209,2.209,0,0,0,.844-.715,1.619,1.619,0,0,0-.354-.389,3.961,3.961,0,0,1-.971-1.36c-.06-.19-.351-.516-1.171-1.311L16.9,8.328l-.314.08a2.769,2.769,0,0,1-.469.082c-.146,0-.144.011.051.161l.205.159.288-.16c.279-.155.289-.156.323-.031a.383.383,0,0,1-.1.292c-.075.09-.117.192-.095.227s-.049.108-.16.162c-.2.1-.347.43-.185.43.145,0,.466-.4.429-.529-.019-.069-.01-.139.02-.157.125-.073.117.237-.01.39-.075.09-.117.192-.095.227s-.049.108-.16.162c-.2.1-.347.43-.187.43s.472-.378.433-.519c-.02-.074-.013-.149.018-.167.084-.049.129.2.058.316a.229.229,0,0,0,0,.222.386.386,0,0,1-.13.444c-.055.032-.018.1.116.2.194.146.2.162.2.807,0,.539.022.679.121.772s.121.106.121,0,.194-.245.352-.245a3.516,3.516,0,0,1,.649.55,3.018,3.018,0,0,0,.731.58l.221.039a1.227,1.227,0,0,0,.311-.092Z" transform="translate(-14.136 2.847)" fill="#ffbe29" stroke="#000" stroke-width="0.148"/>
        <path id="Path_1182" data-name="Path 1182" d="M16.729,9.654c0-.174-.359-.359-.788-.408-.346-.039-.352-.037-.352.136,0,.143.054.2.294.3.384.167.846.15.846-.032Z" transform="translate(-14.559 3.744)" fill="#ffbe29" stroke="#000" stroke-width="0.148"/>
        <path id="Path_1183" data-name="Path 1183" d="M16.5,9.606c.175-.159.258-.347.153-.347-.121,0-.442.288-.442.4C16.211,9.825,16.27,9.814,16.5,9.606Z" transform="translate(-13.938 3.777)" fill="#ffbe29" stroke="#000" stroke-width="0.148"/>
        <path id="Path_1184" data-name="Path 1184" d="M16.819,9.4c.015-.1-.046-.164-.228-.246a1.48,1.48,0,0,0-.974-.17c-.208.164-.069.383.267.423a2.047,2.047,0,0,1,.408.092C16.55,9.6,16.8,9.554,16.819,9.4Z" transform="translate(-14.629 3.467)" fill="#ffbe29" stroke="#000" stroke-width="0.148"/>
        <path id="Path_1185" data-name="Path 1185" d="M16.9,9.186c.021-.14-.068-.19-.8-.447-.545-.192-.787-.1-.612.23.061.115.163.168.391.2a4.313,4.313,0,0,1,.516.111c.3.095.48.061.5-.1Z" transform="translate(-14.713 3.157)" fill="#ffbe29" stroke="#000" stroke-width="0.148"/>
        <path id="Path_1186" data-name="Path 1186" d="M16.507,8.836a.721.721,0,0,0,.2-.293c0-.16-.435.123-.491.32-.067.236.041.226.29-.027Z" transform="translate(-13.951 3.014)" fill="#ffbe29" stroke="#000" stroke-width="0.148"/>
        <path id="Path_1187" data-name="Path 1187" d="M16.813,8.876c.024-.159-.241-.3-.762-.414-.382-.081-.551-.035-.523.143.016.1.143.168.5.281.578.18.752.178.78-.009Z" transform="translate(-14.623 2.942)" fill="#ffbe29" stroke="#000" stroke-width="0.148"/>
        <path id="Path_1188" data-name="Path 1188" d="M17.774,8.92c.668-.3.726-1.047.1-1.244-.262-.082-.428-.038-.529.139-.077.136-.025.382.079.382.035,0,.064.046.064.1,0,.26-1.02.378-1.438.166-.147-.074-.211-.268-.089-.268.091,0,.155-.2.108-.336-.064-.19-.255-.256-.532-.183-.626.164-.609.9.029,1.212a3.368,3.368,0,0,0,2.211.03Z" transform="translate(-15.074 2.155)" fill="#ffbe29" stroke="#000" stroke-width="0.148"/>
        <path id="Path_1189" data-name="Path 1189" d="M16.913,13.24c.039-.037.022-.093-.043-.144-.142-.112-.134-.278.021-.468.117-.143.132-.356.172-2.511.069-3.713.345-6.505.709-7.175.145-.267.125-.268-.25-.013A3.614,3.614,0,0,0,16.348,4.3c-.614,1.155-.828,2.708-.828,6.025,0,1.883.013,2.129.12,2.306a.357.357,0,0,1,.036.41c-.046.116-.067.228-.047.247a2.094,2.094,0,0,0,1.284-.044Z" transform="translate(-14.628 -2.741)" fill="#ffbe29" stroke="#000" stroke-width="0.148"/>
        <path id="Path_1190" data-name="Path 1190" d="M20.794,6.993a.741.741,0,0,0-.1-.36c-.121-.258-.169-.3-.341-.3a6.5,6.5,0,0,1-2.3-.639c-.516-.23-.694-.283-.756-.224-.158.149.1.5.51.69a6.4,6.4,0,0,0,1.827.369c.266,0,.273.012.121.231l-.112.161.3.008a3.013,3.013,0,0,1,.509.058c.3.071.3.071.341.007Z" transform="translate(-12.898 -0.034)" fill="#ffbe29" stroke="#000" stroke-width="0.148"/>
        <path id="Path_1191" data-name="Path 1191" d="M22.064,8.043c0-.1-.282-.356-.567-.524-.224-.132-.261-.136-.262-.028,0,.163-.146.572-.2.572-.032,0-.08-.08-.105-.178a1.571,1.571,0,0,0-.242-.428l-.194-.25-.151.232c-.141.216-.386.428-.494.428-.026,0-.031-.114-.011-.253s0-.271-.041-.3-.077-.016-.077.019A1.217,1.217,0,0,1,19.3,7.8c-.03,0-.071-.11-.092-.245s-.057-.348-.08-.474.026-.041.107.19l.149.419.163-.255a1.117,1.117,0,0,0,.163-.341c0-.047.031-.068.067-.046a.82.82,0,0,1,.114.375l.047.336.179-.2a2.9,2.9,0,0,0,.257-.322c.076-.123.08-.123.232.006a1.589,1.589,0,0,1,.29.382c.075.138.146.241.158.229a1.593,1.593,0,0,0,.061-.317c.021-.162.04-.3.042-.308a3.107,3.107,0,0,1,.737.479c.126.112.246.188.266.169a1.122,1.122,0,0,0,.037-.368A.526.526,0,0,0,22,7c-.2-.178-.2-.179-.279-.049-.1.169-.208.172-.208,0a1.281,1.281,0,0,0-.475-.591c-.025,0-.1.1-.176.229a.671.671,0,0,1-.171.229,2.084,2.084,0,0,1-.628-.7c0-.085.036-.063.129.079a2.109,2.109,0,0,0,.314.358c.207.18.282.136.361-.211.023-.1.062-.18.088-.18a2.1,2.1,0,0,1,.616.654l.065.164.049-.18c.06-.22.127-.228.224-.027a1.534,1.534,0,0,0,.443.387l.369.235.074-.236c.041-.13.095-.2.12-.166a1.014,1.014,0,0,1-.131.533.82.82,0,0,1-.266-.155L22.272,7.2v.318a2.327,2.327,0,0,1-.043.466c-.045.158-.164.2-.164.061Z" transform="translate(-11.021 0.589)" stroke="#000" stroke-width="0.148"/>
        <path id="Path_1192" data-name="Path 1192" d="M19.924,6.388c-.439-.367-.506-.45-.5-.624l.01-.185.029.179a.752.752,0,0,0,.281.376l.252.2.155-.179a.678.678,0,0,0,.158-.261c0-.117.025-.107.322.15.264.229.268.23.307.082a.778.778,0,0,0-.017-.346c-.086-.3-.069-.341.061-.162a3.2,3.2,0,0,0,.233.279c.109.113.116.111.157-.033a1.525,1.525,0,0,0,.043-.336V5.338l.238.27c.222.252.243.261.311.141a.96.96,0,0,0,.074-.378c0-.177.019-.222.065-.155a.859.859,0,0,1-.116.681l-.1.188-.131-.2c-.168-.261-.223-.257-.331.025-.1.266-.168.286-.267.082-.064-.132-.076-.116-.122.162l-.051.309-.3-.235-.3-.235-.136.155a.565.565,0,0,0-.138.237c0,.1-.076.1-.187.008Z" transform="translate(-10.721 -0.295)" stroke="#000" stroke-width="0.148"/>
        <path id="Path_1193" data-name="Path 1193" d="M21.752,5.269c-.16-.144-.27-.281-.245-.305s.054-.031.063-.015.14.153.29.305c.346.351.275.361-.109.015Z" transform="translate(-8.645 -0.541)" stroke="#000" stroke-width="0.148"/>
        <path id="Path_1194" data-name="Path 1194" d="M19.077,5.2c-.145-.2-.135-.327.042-.54.128-.154.186-.175.41-.146a2.4,2.4,0,0,1,.685.281,2.147,2.147,0,0,0,.765.289,1.314,1.314,0,0,0,.34.019,2.459,2.459,0,0,0-.173-.281c-.226-.338-.218-.375.037-.172a1.786,1.786,0,0,0,1.271.248l.341-.01-.2-.2c-.277-.273-.191-.3.114-.033.287.249.269.266-.334.326a2.283,2.283,0,0,1-.761-.051c-.343-.087-.356-.086-.291.029.037.066.1.12.135.12a.071.071,0,0,1,.067.075c0,.126-.74.015-1.094-.164-.808-.409-.91-.445-1.1-.384a.425.425,0,0,0-.251.231.311.311,0,0,0,.538.295c.056-.085.043-.142-.055-.245-.135-.141-.122-.161.06-.095.129.047.146.357.026.47a.431.431,0,0,1-.569-.067Z" transform="translate(-11.172 -1.009)" stroke="#000" stroke-width="0.148"/>
        <path id="Path_1195" data-name="Path 1195" d="M20.638,4.738c-.1-.1-.022-.119.431-.128a2.246,2.246,0,0,0,1.3-.357c.322-.2.409-.163.1.047a2.613,2.613,0,0,1-1.133.385c-.2.022-.435.052-.515.067a.28.28,0,0,1-.19-.015Z" transform="translate(-9.549 -1.362)" stroke="#000" stroke-width="0.148"/>
      </g>
      <g id="lion" transform="translate(30.148 5.482)">
        <path id="Path_1196" data-name="Path 1196" d="M19.16,22.2l.232-.134.1.134a.573.573,0,0,0,.742,0l.186-.139.156.139a.7.7,0,0,0,.832,0c.171-.127.195-.13.308-.033a1.056,1.056,0,0,0,.439.146c.314.041.319.038.5-.237a.615.615,0,0,0,.141-.548c-.024-.148-.051-.387-.058-.53-.014-.26-.012-.261.366-.393a5.1,5.1,0,0,0,.537-.217,2.058,2.058,0,0,0,.568-.667.8.8,0,0,0-.362-.087c-.791-.089-.925-.514-.411-1.3a7.234,7.234,0,0,0,1.348-3.338c0-.357.022-.477.068-.4a4.509,4.509,0,0,1-.657,2.6l-.2.384.2-.045c.107-.025.739-.291,1.4-.592A6.75,6.75,0,0,1,29.214,16a2.529,2.529,0,0,1,2.1.965,6.408,6.408,0,0,0,1.375,1.071c1.385.867,1.443.942,1.509,1.962s.034,1.089-.748,1.262c-.668.148-1.087.459-1.2.892-.06.231.066.238.4.021l.247-.159.11.159c.144.209.451.209.706,0l.192-.157.2.157a.513.513,0,0,0,.827-.12c.022-.059.081-.04.2.064.223.194.8.277.857.125a.467.467,0,0,0-.1-.319,1.867,1.867,0,0,1-.441-1.009c-.006-.378.107-.56.537-.868.522-.373.684-.855.286-.855-.245,0-.492-.217-.65-.57a3.693,3.693,0,0,1,.223-2.862,5.755,5.755,0,0,0,.545-2.52,2.5,2.5,0,0,0-.184-1.266,4.542,4.542,0,0,0-.461-.816l-.275-.367.353-.293a1.662,1.662,0,0,0-.441-2.921A2.186,2.186,0,0,0,34.191,7.4a10.164,10.164,0,0,0-1.416.122,9.826,9.826,0,0,1-1.418.12c-.679,0-.794-.014-1.055-.153s-.319-.214-.373-.55a.2.2,0,0,0-.107-.153c-.093-.029-.521.343-.584.507-.031.081-.057.076-.148-.033a1.339,1.339,0,0,1-.189-.367c-.108-.327.025-.573.409-.756l.3-.143-.176-.109a.952.952,0,0,0-1.2.3.555.555,0,0,1-.153.192,1.31,1.31,0,0,1-.267-.223.776.776,0,0,1,.32-1.343c.334-.11.63-.026.692.2.094.34.386-.107.334-.511-.035-.269-.03-.278.156-.278a1.673,1.673,0,0,1,.979.6,1.145,1.145,0,0,1-.034,1.151l-.171.283.223-.045a1.306,1.306,0,0,0,.807-.516,1.19,1.19,0,0,0,.038-1.043c-.146-.266-.13-.308.087-.218a1.23,1.23,0,0,1,.712.61.622.622,0,0,1,.068.595,1.709,1.709,0,0,1-.219.488c-.119.158-.123.184-.028.184a1.285,1.285,0,0,0,.675-.306,1.369,1.369,0,0,0,.214-.385l.094-.257.108.2a1.679,1.679,0,0,0,.811.681c.389.167.551.176.348.02a1.666,1.666,0,0,1-.313-.919,5.044,5.044,0,0,1,1.176.9,1.988,1.988,0,0,0,1.453.68.765.765,0,0,0,.758-1.133A.468.468,0,0,0,36.3,5.7a.377.377,0,0,0-.1.36c.038.163.023.184-.125.184-.195,0-.578-.249-1.259-.817A10.176,10.176,0,0,0,31.6,3.559a7.066,7.066,0,0,0-2.428-.131,3.967,3.967,0,0,0-1.819.88,1.676,1.676,0,0,0-.031,2.474l.2.242-.139.215a.932.932,0,0,0,.043,1.046.959.959,0,0,0,.224.249c.023,0,.049-.088.057-.2a.547.547,0,0,1,.337-.526c.18-.065.3-.034,1.123.3a7.323,7.323,0,0,0,3.817.064A4.247,4.247,0,0,1,35,8.193a.992.992,0,0,1,.352,1.655c-.225.254-.443.357-1.172.557a5.46,5.46,0,0,1-1.949.15,8.373,8.373,0,0,0-1.906.1,8.558,8.558,0,0,1-2.175.074l-1.623-.041.18.149a2.831,2.831,0,0,0,.311.224c.122.07.118.08-.064.147a1.9,1.9,0,0,1-.527.072h-.333l-.045.283a1.018,1.018,0,0,0,0,.4c.04.1.025.112-.078.075-.07-.025-.265-.076-.433-.111a2.665,2.665,0,0,1-.5-.162c-.183-.089-.2-.087-.27.032a2.633,2.633,0,0,1-.707.526c-.013,0-.031-.081-.038-.18a2.605,2.605,0,0,0-.181-.572c-.092-.216-.188-.451-.213-.523-.038-.109-.056-.114-.1-.033a1.407,1.407,0,0,0-.1.327,1.551,1.551,0,0,1-.189.455l-.145.226L23,11.835c-.1-.207-.265-.422-.324-.422-.02,0-.055.066-.076.147a1.584,1.584,0,0,1-.533.638c-.035,0-.064-.132-.064-.294s-.031-.294-.069-.294-.069.042-.069.093c0,.124-.334.5-.447.5a.287.287,0,0,0-.175.1c-.123.141-.224.121-.172-.034a.767.767,0,0,0-.035-.376l-.1-.318c-.016-.051-.136-.037-.39.044-.41.131-.547.108-.336-.057a1.238,1.238,0,0,0,.26-.465.8.8,0,0,1,.217-.385c.074-.023.071.005-.017.124a.576.576,0,0,0-.114.254.835.835,0,0,1-.1.29c-.057.1-.094.2-.08.213a1.2,1.2,0,0,0,.347-.132l.322-.155v.138a2.441,2.441,0,0,0,.086.446l.085.308.219-.1a.942.942,0,0,0,.437-.755c0-.141.081-.119.114.03.01.044.06.209.113.366l.095.286.15-.181a1.534,1.534,0,0,0,.23-.434c.076-.241.2-.345.2-.17,0,.126.345.579.411.54a1.061,1.061,0,0,0,.142-.378c.1-.393.25-.66.349-.6a.068.068,0,0,1,.032.093,1.9,1.9,0,0,0,.176.568l.26.632c.043.1.081.089.33-.131a1.553,1.553,0,0,0,.313-.341c.026-.076.06-.074.205.017a2.508,2.508,0,0,0,.938.279,1.366,1.366,0,0,0,.045-.4l.009-.364.2.041a1.834,1.834,0,0,0,.5,0l.308-.044-.275-.188a1.512,1.512,0,0,1-.339-.3.455.455,0,0,0-.325-.132c-.411-.035-1.141-.444-1.141-.64,0-.037.1.026.224.139a1.541,1.541,0,0,0,.987.409h.249l-.154-.2a1.187,1.187,0,0,1-.186-.524c-.03-.292-.061-.339-.366-.551a3.514,3.514,0,0,1-.5-.425l-.171-.193-.087.229c-.048.126-.107.229-.131.229a.711.711,0,0,1-.205-.164.726.726,0,0,0-.2-.163.84.84,0,0,0-.176.269l-.136.268-.1-.155a2.362,2.362,0,0,0-.3-.335c-.109-.1-.166-.18-.127-.18a.925.925,0,0,1,.3.229l.228.229.093-.168a.6.6,0,0,0,.051-.376c-.036-.18-.031-.191.038-.078a1.627,1.627,0,0,0,.3.307l.217.176.149-.274c.149-.273.15-.273.218-.11a4.161,4.161,0,0,0,1.3,1.068q.129.073-.109-.5a1.267,1.267,0,0,1-.076-.406c0-.181-.052-.261-.283-.437a1.091,1.091,0,0,1-.5-.845,1.174,1.174,0,0,0-.13-.41c-.068-.089-.079-.039-.061.269a1.629,1.629,0,0,1-.06.574l-.082.2-.064-.164a1.033,1.033,0,0,0-.344-.348c-.154-.1-.263-.2-.241-.222s.181.071.353.2c.262.2.32.225.356.136A2.439,2.439,0,0,0,25.07,6.7c-.041-.16-.038-.159.16.038a1.117,1.117,0,0,1,.288.621,1.029,1.029,0,0,0,.474.76,2.055,2.055,0,0,0,.413.317c.014-.013.041-.5.06-1.077.037-1.112,0-1.376-.273-1.719l-.138-.176.216-.233a1.592,1.592,0,0,0,.468-.881l.046-.271-.244.231a.626.626,0,0,1-.527.231.523.523,0,0,1-.473-.2,1.984,1.984,0,0,0-.829-.48c-.117-.034-.155-.019-.155.06a1.218,1.218,0,0,1-.143.371l-.143.266-.3-.3a1.442,1.442,0,0,0-.565-.366c-.415-.109-.437-.1-.437.211,0,.469-.2.556-.561.245a1.123,1.123,0,0,0-1.024-.232l-.4.044.072.182c.06.152.047.216-.083.388a1.017,1.017,0,0,1-.9.4,1.564,1.564,0,0,0-.539.089,2.161,2.161,0,0,1-.566.125,3,3,0,0,0-.495.079c-.1.037-.11.007-.078-.219a.518.518,0,0,0-.567-.6c-.486,0-.711.435-.52,1.009.037.11.085.285.107.387a2.309,2.309,0,0,0,.51.657,5.771,5.771,0,0,1,.543.6.9.9,0,0,0,.295.251l.222.123L18.95,7.4c-.032-.261.025-.3.164-.118a1.223,1.223,0,0,0,.28.236c.165.1.19.1.19.015a1.016,1.016,0,0,1,.075-.285l.075-.184.129.251a4.961,4.961,0,0,0,.514.7c.411.475.661,1.006.532,1.129-.052.05-.194.046-.487-.013a2.478,2.478,0,0,0-.625-.054c-.238.033-.256,0-.11-.181s.13-.225-.173-.225a6.317,6.317,0,0,1-1.556-.3c-.325-.129-.4-.1-.5.212-.043.139-.122.39-.175.559l-.1.306.352-.034a3.682,3.682,0,0,0,.553-.094.564.564,0,0,1,.223-.039.756.756,0,0,1-.11.266l-.132.245.219-.045a2.061,2.061,0,0,0,.4-.134c.176-.085.19-.079.329.144.171.274.307.263.338-.028s.13-.256.316.142c.179.383.365.518.4.291a.544.544,0,0,1,.214-.273c.214-.151.375-.106.468.131s-.118.5-.739.874a4.3,4.3,0,0,0-2.174,3.1,3.512,3.512,0,0,0,1.562,3.291c.558.421,1.445.866,1.389.7a3.71,3.71,0,0,1,.013-2.326c.037-.035.024.109-.028.319a4.624,4.624,0,0,0,.388,2.867c.451,1.322.388,1.887-.25,2.26-.2.12-.337.14-.888.133-.6-.007-.663,0-.855.158a1.568,1.568,0,0,0-.427.862c0,.123.137.107.405-.048Z" transform="translate(-12.96 -2.106)" fill="#ffbe29"/>
        <path id="Path_1197" data-name="Path 1197" d="M23.267,15.843l.251-.161.17.161a.459.459,0,0,0,.7-.013c.094-.1.178-.162.187-.147l.093.157c.053.091.162.137.359.151.237.017.3-.006.395-.142l.112-.162.247.159c.676.434,1.036-.021.734-.929-.154-.461-.069-.721.426-1.308a1.865,1.865,0,0,0,.38-.587c0-.12-.039-.136-.316-.131s-.344-.023-.483-.177a.6.6,0,0,1,.04-.856l.2-.254L26.4,11.36a6,6,0,0,1-.795-.707,2.572,2.572,0,0,0-1.759-.9l-.466-.041v.353a2.725,2.725,0,0,0,.8,1.631,2.481,2.481,0,0,1,.735,2.072l.023.93-.191.182c-.173.164-.251.185-.809.217-.531.031-.643.058-.8.2a.868.868,0,0,0-.333.537c-.037.148-.022.18.084.18a1,1,0,0,0,.381-.161Z" transform="translate(-7.365 4.225)" fill="#ffbe29"/>
        <path id="Path_1198" data-name="Path 1198" d="M16.616,13.636a.581.581,0,0,0,.108-.287c0-.118.053-.149.311-.186l.311-.044-.207-.165c-.246-.2-.269-.35-.052-.35a.868.868,0,0,0,.638-.391.261.261,0,0,0-.037-.233c-.121-.138-.349-.118-.392.036s-.122.165-.294,0a.814.814,0,0,1-.012-1.052c.12-.14.118-.149-.034-.293s-.281-.463-.2-.536a.5.5,0,0,1,.288.041c.19.065.265.066.344,0,.237-.187-.02-.426-.4-.373-.153.021-.216,0-.238-.079-.017-.06-.151-.139-.3-.177-.27-.068-.272-.067-.272.118,0,.2-.116.242-.337.111-.179-.106-.354-.024-.354.167s.179.266.5.246c.247-.016.256.167.022.431l-.168.189.133.192a.865.865,0,0,1-.035.989l-.169.184-.111-.147c-.154-.2-.365-.191-.423.027-.038.143-.007.208.172.36a.774.774,0,0,0,.39.185c.234,0,.224.184-.018.369l-.19.145.294.046c.161.025.294.072.294.1,0,.125.2.513.269.513.038,0,.117-.065.176-.145Z" transform="translate(-14.933 4.028)" fill="#ffbe29"/>
        <path id="Path_1199" data-name="Path 1199" d="M19.64,13.161a2.209,2.209,0,0,0,.844-.715,1.619,1.619,0,0,0-.354-.389,3.961,3.961,0,0,1-.971-1.36c-.06-.19-.351-.516-1.171-1.311L16.9,8.328l-.314.08a2.769,2.769,0,0,1-.469.082c-.146,0-.144.011.051.161l.205.159.288-.16c.279-.155.289-.156.323-.031a.383.383,0,0,1-.1.292c-.075.09-.117.192-.095.227s-.049.108-.16.162c-.2.1-.347.43-.185.43.145,0,.466-.4.429-.529-.019-.069-.01-.139.02-.157.125-.073.117.237-.01.39-.075.09-.117.192-.095.227s-.049.108-.16.162c-.2.1-.347.43-.187.43s.472-.378.433-.519c-.02-.074-.013-.149.018-.167.084-.049.129.2.058.316a.229.229,0,0,0,0,.222.386.386,0,0,1-.13.444c-.055.032-.018.1.116.2.194.146.2.162.2.807,0,.539.022.679.121.772s.121.106.121,0,.194-.245.352-.245a3.516,3.516,0,0,1,.649.55,3.018,3.018,0,0,0,.731.58l.221.039a1.227,1.227,0,0,0,.311-.092Z" transform="translate(-14.136 2.847)" fill="#ffbe29"/>
        <path id="Path_1200" data-name="Path 1200" d="M16.729,9.654c0-.174-.359-.359-.788-.408-.346-.039-.352-.037-.352.136,0,.143.054.2.294.3.384.167.846.15.846-.032Z" transform="translate(-14.559 3.744)" fill="#ffbe29"/>
        <path id="Path_1201" data-name="Path 1201" d="M16.5,9.606c.175-.159.258-.347.153-.347-.121,0-.442.288-.442.4C16.211,9.825,16.27,9.814,16.5,9.606Z" transform="translate(-13.938 3.777)" fill="#ffbe29"/>
        <path id="Path_1202" data-name="Path 1202" d="M16.819,9.4c.015-.1-.046-.164-.228-.246a1.48,1.48,0,0,0-.974-.17c-.208.164-.069.383.267.423a2.047,2.047,0,0,1,.408.092C16.55,9.6,16.8,9.554,16.819,9.4Z" transform="translate(-14.629 3.467)" fill="#ffbe29"/>
        <path id="Path_1203" data-name="Path 1203" d="M16.9,9.186c.021-.14-.068-.19-.8-.447-.545-.192-.787-.1-.612.23.061.115.163.168.391.2a4.313,4.313,0,0,1,.516.111c.3.095.48.061.5-.1Z" transform="translate(-14.713 3.157)" fill="#ffbe29"/>
        <path id="Path_1204" data-name="Path 1204" d="M16.507,8.836a.721.721,0,0,0,.2-.293c0-.16-.435.123-.491.32-.067.236.041.226.29-.027Z" transform="translate(-13.951 3.014)" fill="#ffbe29"/>
        <path id="Path_1205" data-name="Path 1205" d="M16.813,8.876c.024-.159-.241-.3-.762-.414-.382-.081-.551-.035-.523.143.016.1.143.168.5.281.578.18.752.178.78-.009Z" transform="translate(-14.623 2.942)" fill="#ffbe29"/>
        <path id="Path_1206" data-name="Path 1206" d="M17.774,8.92c.668-.3.726-1.047.1-1.244-.262-.082-.428-.038-.529.139-.077.136-.025.382.079.382.035,0,.064.046.064.1,0,.26-1.02.378-1.438.166-.147-.074-.211-.268-.089-.268.091,0,.155-.2.108-.336-.064-.19-.255-.256-.532-.183-.626.164-.609.9.029,1.212a3.368,3.368,0,0,0,2.211.03Z" transform="translate(-15.074 2.155)" fill="#ffbe29"/>
        <path id="Path_1207" data-name="Path 1207" d="M16.913,13.24c.039-.037.022-.093-.043-.144-.142-.112-.134-.278.021-.468.117-.143.132-.356.172-2.511.069-3.713.345-6.505.709-7.175.145-.267.125-.268-.25-.013A3.614,3.614,0,0,0,16.348,4.3c-.614,1.155-.828,2.708-.828,6.025,0,1.883.013,2.129.12,2.306a.357.357,0,0,1,.036.41c-.046.116-.067.228-.047.247a2.094,2.094,0,0,0,1.284-.044Z" transform="translate(-14.628 -2.741)" fill="#ffbe29"/>
        <path id="Path_1208" data-name="Path 1208" d="M20.794,6.993a.741.741,0,0,0-.1-.36c-.121-.258-.169-.3-.341-.3a6.5,6.5,0,0,1-2.3-.639c-.516-.23-.694-.283-.756-.224-.158.149.1.5.51.69a6.4,6.4,0,0,0,1.827.369c.266,0,.273.012.121.231l-.112.161.3.008a3.013,3.013,0,0,1,.509.058c.3.071.3.071.341.007Z" transform="translate(-12.898 -0.034)" fill="#ffbe29"/>
        <path id="Path_1209" data-name="Path 1209" d="M22.064,8.043c0-.1-.282-.356-.567-.524-.224-.132-.261-.136-.262-.028,0,.163-.146.572-.2.572-.032,0-.08-.08-.105-.178a1.571,1.571,0,0,0-.242-.428l-.194-.25-.151.232c-.141.216-.386.428-.494.428-.026,0-.031-.114-.011-.253s0-.271-.041-.3-.077-.016-.077.019A1.217,1.217,0,0,1,19.3,7.8c-.03,0-.071-.11-.092-.245s-.057-.348-.08-.474.026-.041.107.19l.149.419.163-.255a1.117,1.117,0,0,0,.163-.341c0-.047.031-.068.067-.046a.82.82,0,0,1,.114.375l.047.336.179-.2a2.9,2.9,0,0,0,.257-.322c.076-.123.08-.123.232.006a1.589,1.589,0,0,1,.29.382c.075.138.146.241.158.229a1.593,1.593,0,0,0,.061-.317c.021-.162.04-.3.042-.308a3.107,3.107,0,0,1,.737.479c.126.112.246.188.266.169a1.122,1.122,0,0,0,.037-.368A.526.526,0,0,0,22,7c-.2-.178-.2-.179-.279-.049-.1.169-.208.172-.208,0a1.281,1.281,0,0,0-.475-.591c-.025,0-.1.1-.176.229a.671.671,0,0,1-.171.229,2.084,2.084,0,0,1-.628-.7c0-.085.036-.063.129.079a2.109,2.109,0,0,0,.314.358c.207.18.282.136.361-.211.023-.1.062-.18.088-.18a2.1,2.1,0,0,1,.616.654l.065.164.049-.18c.06-.22.127-.228.224-.027a1.534,1.534,0,0,0,.443.387l.369.235.074-.236c.041-.13.095-.2.12-.166a1.014,1.014,0,0,1-.131.533.82.82,0,0,1-.266-.155L22.272,7.2v.318a2.327,2.327,0,0,1-.043.466c-.045.158-.164.2-.164.061Z" transform="translate(-11.021 0.589)"/>
        <path id="Path_1210" data-name="Path 1210" d="M19.924,6.388c-.439-.367-.506-.45-.5-.624l.01-.185.029.179a.752.752,0,0,0,.281.376l.252.2.155-.179a.678.678,0,0,0,.158-.261c0-.117.025-.107.322.15.264.229.268.23.307.082a.778.778,0,0,0-.017-.346c-.086-.3-.069-.341.061-.162a3.2,3.2,0,0,0,.233.279c.109.113.116.111.157-.033a1.525,1.525,0,0,0,.043-.336V5.338l.238.27c.222.252.243.261.311.141a.96.96,0,0,0,.074-.378c0-.177.019-.222.065-.155a.859.859,0,0,1-.116.681l-.1.188-.131-.2c-.168-.261-.223-.257-.331.025-.1.266-.168.286-.267.082-.064-.132-.076-.116-.122.162l-.051.309-.3-.235-.3-.235-.136.155a.565.565,0,0,0-.138.237c0,.1-.076.1-.187.008Z" transform="translate(-10.721 -0.295)"/>
        <path id="Path_1211" data-name="Path 1211" d="M21.752,5.269c-.16-.144-.27-.281-.245-.305s.054-.031.063-.015.14.153.29.305c.346.351.275.361-.109.015Z" transform="translate(-8.645 -0.541)"/>
        <path id="Path_1212" data-name="Path 1212" d="M19.077,5.2c-.145-.2-.135-.327.042-.54.128-.154.186-.175.41-.146a2.4,2.4,0,0,1,.685.281,2.147,2.147,0,0,0,.765.289,1.314,1.314,0,0,0,.34.019,2.459,2.459,0,0,0-.173-.281c-.226-.338-.218-.375.037-.172a1.786,1.786,0,0,0,1.271.248l.341-.01-.2-.2c-.277-.273-.191-.3.114-.033.287.249.269.266-.334.326a2.283,2.283,0,0,1-.761-.051c-.343-.087-.356-.086-.291.029.037.066.1.12.135.12a.071.071,0,0,1,.067.075c0,.126-.74.015-1.094-.164-.808-.409-.91-.445-1.1-.384a.425.425,0,0,0-.251.231.311.311,0,0,0,.538.295c.056-.085.043-.142-.055-.245-.135-.141-.122-.161.06-.095.129.047.146.357.026.47a.431.431,0,0,1-.569-.067Z" transform="translate(-11.172 -1.009)"/>
        <path id="Path_1213" data-name="Path 1213" d="M20.638,4.738c-.1-.1-.022-.119.431-.128a2.246,2.246,0,0,0,1.3-.357c.322-.2.409-.163.1.047a2.613,2.613,0,0,1-1.133.385c-.2.022-.435.052-.515.067a.28.28,0,0,1-.19-.015Z" transform="translate(-9.549 -1.362)"/>
      </g>
    </g>
  </g>
</svg>
