<svg xmlns="http://www.w3.org/2000/svg" xmlns:xlink="http://www.w3.org/1999/xlink" width="32" height="32" viewBox="0 0 32 32">
  <defs>
    <clipPath id="clip-path">
      <circle id="Taiwan" cx="16" cy="16" r="16" transform="translate(317 1361)" fill="#fff"/>
    </clipPath>
  </defs>
  <g id="Taiwan-2" data-name="Taiwan" transform="translate(-317 -1361)" clip-path="url(#clip-path)">
    <g id="Flag_of_the_Republic_of_China" transform="translate(324.146 1366.059)">
      <rect id="Rectangle_101" data-name="Rectangle 101" width="48.311" height="32.208" transform="translate(-8 -5.267)" fill="#fe0000"/>
      <rect id="Rectangle_102" data-name="Rectangle 102" width="24.156" height="16.104" transform="translate(-8 -5.267)" fill="#000095"/>
      <path id="four_rays" d="M3.649,2.039,2.039,8.078.429,2.039,2.039-4m0,7.649,6.039-1.61L2.039.429-4,2.039" transform="translate(2.039 0.746)" fill="#fff"/>
      <path id="Path_1223" data-name="Path 1223" d="M7.649,6.039l-1.61,6.039L4.429,6.039,6.039,0m0,7.649,6.039-1.61L6.039,4.429,0,6.039" transform="matrix(0.866, 0.5, -0.5, 0.866, 1.867, -5.464)" fill="#fff"/>
      <path id="Path_1224" data-name="Path 1224" d="M7.649,6.039l-1.61,6.039L4.429,6.039,6.039,0m0,7.649,6.039-1.61L6.039,4.429,0,6.039" transform="matrix(0.5, 0.866, -0.866, 0.5, 6.288, -5.464)" fill="#fff"/>
      <circle id="Ellipse_203" data-name="Ellipse 203" cx="3.422" cy="3.422" r="3.422" transform="translate(0.656 -0.637)" fill="#000095"/>
      <circle id="Ellipse_204" data-name="Ellipse 204" cx="3.019" cy="3.019" r="3.019" transform="translate(1.058 -0.234)" fill="#fff"/>
    </g>
  </g>
</svg>
