<svg xmlns="http://www.w3.org/2000/svg" xmlns:xlink="http://www.w3.org/1999/xlink" width="32" height="32" viewBox="0 0 32 32">
  <defs>
    <clipPath id="clip-path">
      <circle id="UK" cx="16" cy="16" r="16" transform="translate(1197 324)" fill="#fff"/>
    </clipPath>
    <clipPath id="clip-path-2">
      <path id="Path_432" data-name="Path 432" d="M0,0V32H64V0Z"/>
    </clipPath>
    <clipPath id="clip-path-3">
      <path id="Path_429" data-name="Path 429" d="M32,16H64V32Zm0,0V32H0Zm0,0H0V0Zm0,0V0H64Z"/>
    </clipPath>
  </defs>
  <g id="UK-2" data-name="UK" transform="translate(-1197 -324)" clip-path="url(#clip-path)">
    <g id="Flag_of_the_United_Kingdom" transform="translate(1181 324)" clip-path="url(#clip-path-2)">
      <path id="Path_426" data-name="Path 426" d="M0,0V32H64V0Z" fill="#012169"/>
      <path id="Path_427" data-name="Path 427" d="M0,0,64,32M64,0,0,32" stroke="#fff" stroke-width="3.2"/>
      <g id="Group_162" data-name="Group 162" clip-path="url(#clip-path-3)">
        <path id="Path_428" data-name="Path 428" d="M0,0,64,32M64,0,0,32" stroke="#c8102e" stroke-width="2.133"/>
      </g>
      <path id="Path_430" data-name="Path 430" d="M32,0V32M0,16H64" stroke="#fff" stroke-width="5.333"/>
      <path id="Path_431" data-name="Path 431" d="M32,0V32M0,16H64" stroke="#c8102e" stroke-width="3.2"/>
    </g>
  </g>
</svg>
