<svg xmlns="http://www.w3.org/2000/svg" xmlns:xlink="http://www.w3.org/1999/xlink" width="32" height="32" viewBox="0 0 32 32">
  <defs>
    <clipPath id="clip-path">
      <circle id="North-East" cx="16" cy="16" r="16" transform="translate(477 2007)" fill="#fff"/>
    </clipPath>
  </defs>
  <g id="US_South" data-name="US South" transform="translate(-477 -2007)" clip-path="url(#clip-path)">
    <g id="Flag_of_the_United_States" transform="translate(468.6 2007)">
      <rect id="Rectangle_109" data-name="Rectangle 109" width="60.8" height="32" fill="#b22234"/>
      <path id="Path_1419" data-name="Path 1419" d="M0,1.943H60.8m0,4.923H0m0,4.923H60.8m0,4.923H0m0,4.923H60.8m0,4.923H0" transform="translate(0 1.749)" stroke="#fff" stroke-width="1.296"/>
      <rect id="Rectangle_110" data-name="Rectangle 110" width="24.32" height="17.231" fill="#3c3b6e"/>
      <g id="Group_342" data-name="Group 342" transform="translate(1.09 0.738)">
        <g id="s18">
          <g id="s9">
            <g id="s5">
              <g id="s4">
                <path id="s" d="M1.51.389,2.089,2.17.574,1.069H2.447L.931,2.17Z" transform="translate(-0.574 -0.389)" fill="#fff"/>
                <path id="Path_1420" data-name="Path 1420" d="M1.51.389,2.089,2.17.574,1.069H2.447L.931,2.17Z" transform="translate(-0.574 3.057)" fill="#fff"/>
                <path id="Path_1421" data-name="Path 1421" d="M1.51.389,2.089,2.17.574,1.069H2.447L.931,2.17Z" transform="translate(-0.574 6.504)" fill="#fff"/>
                <path id="Path_1422" data-name="Path 1422" d="M1.51.389,2.089,2.17.574,1.069H2.447L.931,2.17Z" transform="translate(-0.574 9.95)" fill="#fff"/>
              </g>
              <path id="Path_1423" data-name="Path 1423" d="M1.51.389,2.089,2.17.574,1.069H2.447L.931,2.17Z" transform="translate(-0.574 13.396)" fill="#fff"/>
            </g>
            <g id="Group_332" data-name="Group 332" transform="translate(2.027 1.723)">
              <path id="s-2" data-name="s" d="M1.51.389,2.089,2.17.574,1.069H2.447L.931,2.17Z" transform="translate(-0.574 -0.389)" fill="#fff"/>
              <path id="Path_1424" data-name="Path 1424" d="M1.51.389,2.089,2.17.574,1.069H2.447L.931,2.17Z" transform="translate(-0.574 3.057)" fill="#fff"/>
              <path id="Path_1425" data-name="Path 1425" d="M1.51.389,2.089,2.17.574,1.069H2.447L.931,2.17Z" transform="translate(-0.574 6.504)" fill="#fff"/>
              <path id="Path_1426" data-name="Path 1426" d="M1.51.389,2.089,2.17.574,1.069H2.447L.931,2.17Z" transform="translate(-0.574 9.95)" fill="#fff"/>
            </g>
          </g>
          <g id="Group_334" data-name="Group 334" transform="translate(4.053)">
            <g id="s5-2" data-name="s5" transform="translate(0)">
              <g id="s4-2" data-name="s4">
                <path id="s-3" data-name="s" d="M1.51.389,2.089,2.17.574,1.069H2.447L.931,2.17Z" transform="translate(-0.574 -0.389)" fill="#fff"/>
                <path id="Path_1427" data-name="Path 1427" d="M1.51.389,2.089,2.17.574,1.069H2.447L.931,2.17Z" transform="translate(-0.574 3.057)" fill="#fff"/>
                <path id="Path_1428" data-name="Path 1428" d="M1.51.389,2.089,2.17.574,1.069H2.447L.931,2.17Z" transform="translate(-0.574 6.504)" fill="#fff"/>
                <path id="Path_1429" data-name="Path 1429" d="M1.51.389,2.089,2.17.574,1.069H2.447L.931,2.17Z" transform="translate(-0.574 9.95)" fill="#fff"/>
              </g>
              <path id="Path_1430" data-name="Path 1430" d="M1.51.389,2.089,2.17.574,1.069H2.447L.931,2.17Z" transform="translate(-0.574 13.396)" fill="#fff"/>
            </g>
            <g id="Group_333" data-name="Group 333" transform="translate(2.027 1.723)">
              <path id="s-4" data-name="s" d="M1.51.389,2.089,2.17.574,1.069H2.447L.931,2.17Z" transform="translate(-0.574 -0.389)" fill="#fff"/>
              <path id="Path_1431" data-name="Path 1431" d="M1.51.389,2.089,2.17.574,1.069H2.447L.931,2.17Z" transform="translate(-0.574 3.057)" fill="#fff"/>
              <path id="Path_1432" data-name="Path 1432" d="M1.51.389,2.089,2.17.574,1.069H2.447L.931,2.17Z" transform="translate(-0.574 6.504)" fill="#fff"/>
              <path id="Path_1433" data-name="Path 1433" d="M1.51.389,2.089,2.17.574,1.069H2.447L.931,2.17Z" transform="translate(-0.574 9.95)" fill="#fff"/>
            </g>
          </g>
        </g>
        <g id="Group_338" data-name="Group 338" transform="translate(8.107)">
          <g id="s9-2" data-name="s9" transform="translate(0)">
            <g id="s5-3" data-name="s5">
              <g id="s4-3" data-name="s4">
                <path id="s-5" data-name="s" d="M1.51.389,2.089,2.17.574,1.069H2.447L.931,2.17Z" transform="translate(-0.574 -0.389)" fill="#fff"/>
                <path id="Path_1434" data-name="Path 1434" d="M1.51.389,2.089,2.17.574,1.069H2.447L.931,2.17Z" transform="translate(-0.574 3.057)" fill="#fff"/>
                <path id="Path_1435" data-name="Path 1435" d="M1.51.389,2.089,2.17.574,1.069H2.447L.931,2.17Z" transform="translate(-0.574 6.504)" fill="#fff"/>
                <path id="Path_1436" data-name="Path 1436" d="M1.51.389,2.089,2.17.574,1.069H2.447L.931,2.17Z" transform="translate(-0.574 9.95)" fill="#fff"/>
              </g>
              <path id="Path_1437" data-name="Path 1437" d="M1.51.389,2.089,2.17.574,1.069H2.447L.931,2.17Z" transform="translate(-0.574 13.396)" fill="#fff"/>
            </g>
            <g id="Group_335" data-name="Group 335" transform="translate(2.027 1.723)">
              <path id="s-6" data-name="s" d="M1.51.389,2.089,2.17.574,1.069H2.447L.931,2.17Z" transform="translate(-0.574 -0.389)" fill="#fff"/>
              <path id="Path_1438" data-name="Path 1438" d="M1.51.389,2.089,2.17.574,1.069H2.447L.931,2.17Z" transform="translate(-0.574 3.057)" fill="#fff"/>
              <path id="Path_1439" data-name="Path 1439" d="M1.51.389,2.089,2.17.574,1.069H2.447L.931,2.17Z" transform="translate(-0.574 6.504)" fill="#fff"/>
              <path id="Path_1440" data-name="Path 1440" d="M1.51.389,2.089,2.17.574,1.069H2.447L.931,2.17Z" transform="translate(-0.574 9.95)" fill="#fff"/>
            </g>
          </g>
          <g id="Group_337" data-name="Group 337" transform="translate(4.053)">
            <g id="s5-4" data-name="s5" transform="translate(0)">
              <g id="s4-4" data-name="s4">
                <path id="s-7" data-name="s" d="M1.51.389,2.089,2.17.574,1.069H2.447L.931,2.17Z" transform="translate(-0.574 -0.389)" fill="#fff"/>
                <path id="Path_1441" data-name="Path 1441" d="M1.51.389,2.089,2.17.574,1.069H2.447L.931,2.17Z" transform="translate(-0.574 3.057)" fill="#fff"/>
                <path id="Path_1442" data-name="Path 1442" d="M1.51.389,2.089,2.17.574,1.069H2.447L.931,2.17Z" transform="translate(-0.574 6.504)" fill="#fff"/>
                <path id="Path_1443" data-name="Path 1443" d="M1.51.389,2.089,2.17.574,1.069H2.447L.931,2.17Z" transform="translate(-0.574 9.95)" fill="#fff"/>
              </g>
              <path id="Path_1444" data-name="Path 1444" d="M1.51.389,2.089,2.17.574,1.069H2.447L.931,2.17Z" transform="translate(-0.574 13.396)" fill="#fff"/>
            </g>
            <g id="Group_336" data-name="Group 336" transform="translate(2.027 1.723)">
              <path id="s-8" data-name="s" d="M1.51.389,2.089,2.17.574,1.069H2.447L.931,2.17Z" transform="translate(-0.574 -0.389)" fill="#fff"/>
              <path id="Path_1445" data-name="Path 1445" d="M1.51.389,2.089,2.17.574,1.069H2.447L.931,2.17Z" transform="translate(-0.574 3.057)" fill="#fff"/>
              <path id="Path_1446" data-name="Path 1446" d="M1.51.389,2.089,2.17.574,1.069H2.447L.931,2.17Z" transform="translate(-0.574 6.504)" fill="#fff"/>
              <path id="Path_1447" data-name="Path 1447" d="M1.51.389,2.089,2.17.574,1.069H2.447L.931,2.17Z" transform="translate(-0.574 9.95)" fill="#fff"/>
            </g>
          </g>
        </g>
        <g id="Group_340" data-name="Group 340" transform="translate(16.213)">
          <g id="s5-5" data-name="s5" transform="translate(0)">
            <g id="s4-5" data-name="s4">
              <path id="s-9" data-name="s" d="M1.51.389,2.089,2.17.574,1.069H2.447L.931,2.17Z" transform="translate(-0.574 -0.389)" fill="#fff"/>
              <path id="Path_1448" data-name="Path 1448" d="M1.51.389,2.089,2.17.574,1.069H2.447L.931,2.17Z" transform="translate(-0.574 3.057)" fill="#fff"/>
              <path id="Path_1449" data-name="Path 1449" d="M1.51.389,2.089,2.17.574,1.069H2.447L.931,2.17Z" transform="translate(-0.574 6.504)" fill="#fff"/>
              <path id="Path_1450" data-name="Path 1450" d="M1.51.389,2.089,2.17.574,1.069H2.447L.931,2.17Z" transform="translate(-0.574 9.95)" fill="#fff"/>
            </g>
            <path id="Path_1451" data-name="Path 1451" d="M1.51.389,2.089,2.17.574,1.069H2.447L.931,2.17Z" transform="translate(-0.574 13.396)" fill="#fff"/>
          </g>
          <g id="Group_339" data-name="Group 339" transform="translate(2.027 1.723)">
            <path id="s-10" data-name="s" d="M1.51.389,2.089,2.17.574,1.069H2.447L.931,2.17Z" transform="translate(-0.574 -0.389)" fill="#fff"/>
            <path id="Path_1452" data-name="Path 1452" d="M1.51.389,2.089,2.17.574,1.069H2.447L.931,2.17Z" transform="translate(-0.574 3.057)" fill="#fff"/>
            <path id="Path_1453" data-name="Path 1453" d="M1.51.389,2.089,2.17.574,1.069H2.447L.931,2.17Z" transform="translate(-0.574 6.504)" fill="#fff"/>
            <path id="Path_1454" data-name="Path 1454" d="M1.51.389,2.089,2.17.574,1.069H2.447L.931,2.17Z" transform="translate(-0.574 9.95)" fill="#fff"/>
          </g>
        </g>
        <g id="Group_341" data-name="Group 341" transform="translate(20.267)">
          <g id="s4-6" data-name="s4" transform="translate(0)">
            <path id="s-11" data-name="s" d="M1.51.389,2.089,2.17.574,1.069H2.447L.931,2.17Z" transform="translate(-0.574 -0.389)" fill="#fff"/>
            <path id="Path_1455" data-name="Path 1455" d="M1.51.389,2.089,2.17.574,1.069H2.447L.931,2.17Z" transform="translate(-0.574 3.057)" fill="#fff"/>
            <path id="Path_1456" data-name="Path 1456" d="M1.51.389,2.089,2.17.574,1.069H2.447L.931,2.17Z" transform="translate(-0.574 6.504)" fill="#fff"/>
            <path id="Path_1457" data-name="Path 1457" d="M1.51.389,2.089,2.17.574,1.069H2.447L.931,2.17Z" transform="translate(-0.574 9.95)" fill="#fff"/>
          </g>
          <path id="Path_1458" data-name="Path 1458" d="M1.51.389,2.089,2.17.574,1.069H2.447L.931,2.17Z" transform="translate(-0.574 13.396)" fill="#fff"/>
        </g>
      </g>
    </g>
  </g>
</svg>
