<svg xmlns="http://www.w3.org/2000/svg" xmlns:xlink="http://www.w3.org/1999/xlink" width="32" height="32" viewBox="0 0 32 32">
  <defs>
    <clipPath id="clip-path">
      <circle id="North-East" cx="16" cy="16" r="16" transform="translate(477 2007)" fill="#fff"/>
    </clipPath>
  </defs>
  <g id="US_West" data-name="US West" transform="translate(-477 -2007)" clip-path="url(#clip-path)">
    <g id="Flag_of_the_United_States" transform="translate(468.6 2007)">
      <rect id="Rectangle_111" data-name="Rectangle 111" width="60.8" height="32" fill="#b22234"/>
      <path id="Path_1459" data-name="Path 1459" d="M0,1.943H60.8m0,4.923H0m0,4.923H60.8m0,4.923H0m0,4.923H60.8m0,4.923H0" transform="translate(0 1.749)" stroke="#fff" stroke-width="1.296"/>
      <rect id="Rectangle_112" data-name="Rectangle 112" width="24.32" height="17.231" fill="#3c3b6e"/>
      <g id="Group_353" data-name="Group 353" transform="translate(1.09 0.738)">
        <g id="s18">
          <g id="s9">
            <g id="s5">
              <g id="s4">
                <path id="s" d="M1.51.389,2.089,2.17.574,1.069H2.447L.931,2.17Z" transform="translate(-0.574 -0.389)" fill="#fff"/>
                <path id="Path_1460" data-name="Path 1460" d="M1.51.389,2.089,2.17.574,1.069H2.447L.931,2.17Z" transform="translate(-0.574 3.057)" fill="#fff"/>
                <path id="Path_1461" data-name="Path 1461" d="M1.51.389,2.089,2.17.574,1.069H2.447L.931,2.17Z" transform="translate(-0.574 6.504)" fill="#fff"/>
                <path id="Path_1462" data-name="Path 1462" d="M1.51.389,2.089,2.17.574,1.069H2.447L.931,2.17Z" transform="translate(-0.574 9.95)" fill="#fff"/>
              </g>
              <path id="Path_1463" data-name="Path 1463" d="M1.51.389,2.089,2.17.574,1.069H2.447L.931,2.17Z" transform="translate(-0.574 13.396)" fill="#fff"/>
            </g>
            <g id="Group_343" data-name="Group 343" transform="translate(2.027 1.723)">
              <path id="s-2" data-name="s" d="M1.51.389,2.089,2.17.574,1.069H2.447L.931,2.17Z" transform="translate(-0.574 -0.389)" fill="#fff"/>
              <path id="Path_1464" data-name="Path 1464" d="M1.51.389,2.089,2.17.574,1.069H2.447L.931,2.17Z" transform="translate(-0.574 3.057)" fill="#fff"/>
              <path id="Path_1465" data-name="Path 1465" d="M1.51.389,2.089,2.17.574,1.069H2.447L.931,2.17Z" transform="translate(-0.574 6.504)" fill="#fff"/>
              <path id="Path_1466" data-name="Path 1466" d="M1.51.389,2.089,2.17.574,1.069H2.447L.931,2.17Z" transform="translate(-0.574 9.95)" fill="#fff"/>
            </g>
          </g>
          <g id="Group_345" data-name="Group 345" transform="translate(4.053)">
            <g id="s5-2" data-name="s5" transform="translate(0)">
              <g id="s4-2" data-name="s4">
                <path id="s-3" data-name="s" d="M1.51.389,2.089,2.17.574,1.069H2.447L.931,2.17Z" transform="translate(-0.574 -0.389)" fill="#fff"/>
                <path id="Path_1467" data-name="Path 1467" d="M1.51.389,2.089,2.17.574,1.069H2.447L.931,2.17Z" transform="translate(-0.574 3.057)" fill="#fff"/>
                <path id="Path_1468" data-name="Path 1468" d="M1.51.389,2.089,2.17.574,1.069H2.447L.931,2.17Z" transform="translate(-0.574 6.504)" fill="#fff"/>
                <path id="Path_1469" data-name="Path 1469" d="M1.51.389,2.089,2.17.574,1.069H2.447L.931,2.17Z" transform="translate(-0.574 9.95)" fill="#fff"/>
              </g>
              <path id="Path_1470" data-name="Path 1470" d="M1.51.389,2.089,2.17.574,1.069H2.447L.931,2.17Z" transform="translate(-0.574 13.396)" fill="#fff"/>
            </g>
            <g id="Group_344" data-name="Group 344" transform="translate(2.027 1.723)">
              <path id="s-4" data-name="s" d="M1.51.389,2.089,2.17.574,1.069H2.447L.931,2.17Z" transform="translate(-0.574 -0.389)" fill="#fff"/>
              <path id="Path_1471" data-name="Path 1471" d="M1.51.389,2.089,2.17.574,1.069H2.447L.931,2.17Z" transform="translate(-0.574 3.057)" fill="#fff"/>
              <path id="Path_1472" data-name="Path 1472" d="M1.51.389,2.089,2.17.574,1.069H2.447L.931,2.17Z" transform="translate(-0.574 6.504)" fill="#fff"/>
              <path id="Path_1473" data-name="Path 1473" d="M1.51.389,2.089,2.17.574,1.069H2.447L.931,2.17Z" transform="translate(-0.574 9.95)" fill="#fff"/>
            </g>
          </g>
        </g>
        <g id="Group_349" data-name="Group 349" transform="translate(8.107)">
          <g id="s9-2" data-name="s9" transform="translate(0)">
            <g id="s5-3" data-name="s5">
              <g id="s4-3" data-name="s4">
                <path id="s-5" data-name="s" d="M1.51.389,2.089,2.17.574,1.069H2.447L.931,2.17Z" transform="translate(-0.574 -0.389)" fill="#fff"/>
                <path id="Path_1474" data-name="Path 1474" d="M1.51.389,2.089,2.17.574,1.069H2.447L.931,2.17Z" transform="translate(-0.574 3.057)" fill="#fff"/>
                <path id="Path_1475" data-name="Path 1475" d="M1.51.389,2.089,2.17.574,1.069H2.447L.931,2.17Z" transform="translate(-0.574 6.504)" fill="#fff"/>
                <path id="Path_1476" data-name="Path 1476" d="M1.51.389,2.089,2.17.574,1.069H2.447L.931,2.17Z" transform="translate(-0.574 9.95)" fill="#fff"/>
              </g>
              <path id="Path_1477" data-name="Path 1477" d="M1.51.389,2.089,2.17.574,1.069H2.447L.931,2.17Z" transform="translate(-0.574 13.396)" fill="#fff"/>
            </g>
            <g id="Group_346" data-name="Group 346" transform="translate(2.027 1.723)">
              <path id="s-6" data-name="s" d="M1.51.389,2.089,2.17.574,1.069H2.447L.931,2.17Z" transform="translate(-0.574 -0.389)" fill="#fff"/>
              <path id="Path_1478" data-name="Path 1478" d="M1.51.389,2.089,2.17.574,1.069H2.447L.931,2.17Z" transform="translate(-0.574 3.057)" fill="#fff"/>
              <path id="Path_1479" data-name="Path 1479" d="M1.51.389,2.089,2.17.574,1.069H2.447L.931,2.17Z" transform="translate(-0.574 6.504)" fill="#fff"/>
              <path id="Path_1480" data-name="Path 1480" d="M1.51.389,2.089,2.17.574,1.069H2.447L.931,2.17Z" transform="translate(-0.574 9.95)" fill="#fff"/>
            </g>
          </g>
          <g id="Group_348" data-name="Group 348" transform="translate(4.053)">
            <g id="s5-4" data-name="s5" transform="translate(0)">
              <g id="s4-4" data-name="s4">
                <path id="s-7" data-name="s" d="M1.51.389,2.089,2.17.574,1.069H2.447L.931,2.17Z" transform="translate(-0.574 -0.389)" fill="#fff"/>
                <path id="Path_1481" data-name="Path 1481" d="M1.51.389,2.089,2.17.574,1.069H2.447L.931,2.17Z" transform="translate(-0.574 3.057)" fill="#fff"/>
                <path id="Path_1482" data-name="Path 1482" d="M1.51.389,2.089,2.17.574,1.069H2.447L.931,2.17Z" transform="translate(-0.574 6.504)" fill="#fff"/>
                <path id="Path_1483" data-name="Path 1483" d="M1.51.389,2.089,2.17.574,1.069H2.447L.931,2.17Z" transform="translate(-0.574 9.95)" fill="#fff"/>
              </g>
              <path id="Path_1484" data-name="Path 1484" d="M1.51.389,2.089,2.17.574,1.069H2.447L.931,2.17Z" transform="translate(-0.574 13.396)" fill="#fff"/>
            </g>
            <g id="Group_347" data-name="Group 347" transform="translate(2.027 1.723)">
              <path id="s-8" data-name="s" d="M1.51.389,2.089,2.17.574,1.069H2.447L.931,2.17Z" transform="translate(-0.574 -0.389)" fill="#fff"/>
              <path id="Path_1485" data-name="Path 1485" d="M1.51.389,2.089,2.17.574,1.069H2.447L.931,2.17Z" transform="translate(-0.574 3.057)" fill="#fff"/>
              <path id="Path_1486" data-name="Path 1486" d="M1.51.389,2.089,2.17.574,1.069H2.447L.931,2.17Z" transform="translate(-0.574 6.504)" fill="#fff"/>
              <path id="Path_1487" data-name="Path 1487" d="M1.51.389,2.089,2.17.574,1.069H2.447L.931,2.17Z" transform="translate(-0.574 9.95)" fill="#fff"/>
            </g>
          </g>
        </g>
        <g id="Group_351" data-name="Group 351" transform="translate(16.213)">
          <g id="s5-5" data-name="s5" transform="translate(0)">
            <g id="s4-5" data-name="s4">
              <path id="s-9" data-name="s" d="M1.51.389,2.089,2.17.574,1.069H2.447L.931,2.17Z" transform="translate(-0.574 -0.389)" fill="#fff"/>
              <path id="Path_1488" data-name="Path 1488" d="M1.51.389,2.089,2.17.574,1.069H2.447L.931,2.17Z" transform="translate(-0.574 3.057)" fill="#fff"/>
              <path id="Path_1489" data-name="Path 1489" d="M1.51.389,2.089,2.17.574,1.069H2.447L.931,2.17Z" transform="translate(-0.574 6.504)" fill="#fff"/>
              <path id="Path_1490" data-name="Path 1490" d="M1.51.389,2.089,2.17.574,1.069H2.447L.931,2.17Z" transform="translate(-0.574 9.95)" fill="#fff"/>
            </g>
            <path id="Path_1491" data-name="Path 1491" d="M1.51.389,2.089,2.17.574,1.069H2.447L.931,2.17Z" transform="translate(-0.574 13.396)" fill="#fff"/>
          </g>
          <g id="Group_350" data-name="Group 350" transform="translate(2.027 1.723)">
            <path id="s-10" data-name="s" d="M1.51.389,2.089,2.17.574,1.069H2.447L.931,2.17Z" transform="translate(-0.574 -0.389)" fill="#fff"/>
            <path id="Path_1492" data-name="Path 1492" d="M1.51.389,2.089,2.17.574,1.069H2.447L.931,2.17Z" transform="translate(-0.574 3.057)" fill="#fff"/>
            <path id="Path_1493" data-name="Path 1493" d="M1.51.389,2.089,2.17.574,1.069H2.447L.931,2.17Z" transform="translate(-0.574 6.504)" fill="#fff"/>
            <path id="Path_1494" data-name="Path 1494" d="M1.51.389,2.089,2.17.574,1.069H2.447L.931,2.17Z" transform="translate(-0.574 9.95)" fill="#fff"/>
          </g>
        </g>
        <g id="Group_352" data-name="Group 352" transform="translate(20.267)">
          <g id="s4-6" data-name="s4" transform="translate(0)">
            <path id="s-11" data-name="s" d="M1.51.389,2.089,2.17.574,1.069H2.447L.931,2.17Z" transform="translate(-0.574 -0.389)" fill="#fff"/>
            <path id="Path_1495" data-name="Path 1495" d="M1.51.389,2.089,2.17.574,1.069H2.447L.931,2.17Z" transform="translate(-0.574 3.057)" fill="#fff"/>
            <path id="Path_1496" data-name="Path 1496" d="M1.51.389,2.089,2.17.574,1.069H2.447L.931,2.17Z" transform="translate(-0.574 6.504)" fill="#fff"/>
            <path id="Path_1497" data-name="Path 1497" d="M1.51.389,2.089,2.17.574,1.069H2.447L.931,2.17Z" transform="translate(-0.574 9.95)" fill="#fff"/>
          </g>
          <path id="Path_1498" data-name="Path 1498" d="M1.51.389,2.089,2.17.574,1.069H2.447L.931,2.17Z" transform="translate(-0.574 13.396)" fill="#fff"/>
        </g>
      </g>
    </g>
  </g>
</svg>
