<svg xmlns="http://www.w3.org/2000/svg" xmlns:xlink="http://www.w3.org/1999/xlink" width="32" height="32" viewBox="0 0 32 32">
  <defs>
    <clipPath id="clip-path">
      <circle id="Venezuela" cx="16" cy="16" r="16" transform="translate(1117 2137)" fill="#fff"/>
    </clipPath>
  </defs>
  <g id="Venezuela-2" data-name="Venezuela" transform="translate(-1117 -2137)" clip-path="url(#clip-path)">
    <g id="Flag_of_Venezuela" transform="translate(1109 2137)">
      <path id="Path_5562" data-name="Path 5562" d="M0,0H48V32H0Z" fill="#cf142b"/>
      <path id="Path_5563" data-name="Path 5563" d="M0,0H48V21.333H0Z" fill="#00247d"/>
      <path id="Path_5564" data-name="Path 5564" d="M0,0H48V10.667H0Z" fill="#fc0"/>
      <g id="Group_721" data-name="Group 721" transform="translate(13.054 8.374)">
        <g id="s4" transform="translate(10.623 2.968)">
          <g id="s2" transform="translate(0 0)">
            <g id="Group_682" data-name="Group 682" transform="translate(0.572 0) rotate(10)">
              <g id="f" transform="translate(0.914 0)">
                <g id="t">
                  <path id="o" d="M0,0V1.333H.8Z" transform="translate(0.761 0) rotate(18)" fill="#fff"/>
                  <path id="Path_5565" data-name="Path 5565" d="M0,1.333V0H.8Z" transform="translate(1.173 1.268) rotate(162)" fill="#fff"/>
                </g>
                <g id="Group_678" data-name="Group 678" transform="translate(1.794 0.198) rotate(72)">
                  <path id="o-2" data-name="o" d="M0,0V1.333H.8Z" transform="translate(0.761 0) rotate(18)" fill="#fff"/>
                  <path id="Path_5566" data-name="Path 5566" d="M0,1.333V0H.8Z" transform="translate(1.173 1.268) rotate(162)" fill="#fff"/>
                </g>
              </g>
              <g id="Group_679" data-name="Group 679" transform="translate(0.171 1.645) rotate(-72)">
                <path id="o-3" data-name="o" d="M0,0V1.333H.8Z" transform="translate(0.761 0) rotate(18)" fill="#fff"/>
                <path id="Path_5567" data-name="Path 5567" d="M0,1.333V0H.8Z" transform="translate(1.173 1.268) rotate(162)" fill="#fff"/>
              </g>
              <g id="Group_681" data-name="Group 681" transform="matrix(-0.809, 0.588, -0.588, -0.809, 3.074, 1.965)">
                <g id="t-2" data-name="t" transform="translate(0 0)">
                  <path id="o-4" data-name="o" d="M0,0V1.333H.8Z" transform="translate(0.761 0) rotate(18)" fill="#fff"/>
                  <path id="Path_5568" data-name="Path 5568" d="M0,1.333V0H.8Z" transform="translate(1.173 1.268) rotate(162)" fill="#fff"/>
                </g>
                <g id="Group_680" data-name="Group 680" transform="translate(1.794 0.198) rotate(72)">
                  <path id="o-5" data-name="o" d="M0,0V1.333H.8Z" transform="translate(0.761 0) rotate(18)" fill="#fff"/>
                  <path id="Path_5569" data-name="Path 5569" d="M0,1.333V0H.8Z" transform="translate(1.173 1.268) rotate(162)" fill="#fff"/>
                </g>
              </g>
            </g>
            <g id="Group_687" data-name="Group 687" transform="matrix(0.866, 0.5, -0.5, 0.866, 4.339, 0.752)">
              <g id="f-2" data-name="f" transform="translate(0.914 0)">
                <g id="t-3" data-name="t" transform="translate(0)">
                  <path id="o-6" data-name="o" d="M0,0V1.333H.8Z" transform="translate(0.761 0) rotate(18)" fill="#fff"/>
                  <path id="Path_5570" data-name="Path 5570" d="M0,1.333V0H.8Z" transform="translate(1.173 1.268) rotate(162)" fill="#fff"/>
                </g>
                <g id="Group_683" data-name="Group 683" transform="translate(1.794 0.198) rotate(72)">
                  <path id="o-7" data-name="o" d="M0,0V1.333H.8Z" transform="translate(0.761 0) rotate(18)" fill="#fff"/>
                  <path id="Path_5571" data-name="Path 5571" d="M0,1.333V0H.8Z" transform="translate(1.173 1.268) rotate(162)" fill="#fff"/>
                </g>
              </g>
              <g id="Group_684" data-name="Group 684" transform="translate(0.171 1.645) rotate(-72)">
                <path id="o-8" data-name="o" d="M0,0V1.333H.8Z" transform="translate(0.761 0) rotate(18)" fill="#fff"/>
                <path id="Path_5572" data-name="Path 5572" d="M0,1.333V0H.8Z" transform="translate(1.173 1.268) rotate(162)" fill="#fff"/>
              </g>
              <g id="Group_686" data-name="Group 686" transform="matrix(-0.809, 0.588, -0.588, -0.809, 3.074, 1.965)">
                <g id="t-4" data-name="t" transform="translate(0 0)">
                  <path id="o-9" data-name="o" d="M0,0V1.333H.8Z" transform="translate(0.761 0) rotate(18)" fill="#fff"/>
                  <path id="Path_5573" data-name="Path 5573" d="M0,1.333V0H.8Z" transform="translate(1.173 1.268) rotate(162)" fill="#fff"/>
                </g>
                <g id="Group_685" data-name="Group 685" transform="translate(1.794 0.198) rotate(72)">
                  <path id="o-10" data-name="o" d="M0,0V1.333H.8Z" transform="translate(0.761 0) rotate(18)" fill="#fff"/>
                  <path id="Path_5574" data-name="Path 5574" d="M0,1.333V0H.8Z" transform="translate(1.173 1.268) rotate(162)" fill="#fff"/>
                </g>
              </g>
            </g>
          </g>
          <g id="Group_698" data-name="Group 698" transform="matrix(0.766, 0.643, -0.643, 0.766, 7.184, 2.38)">
            <g id="Group_692" data-name="Group 692" transform="translate(0.572 0) rotate(10)">
              <g id="f-3" data-name="f" transform="translate(0.914 0)">
                <g id="t-5" data-name="t" transform="translate(0)">
                  <path id="o-11" data-name="o" d="M0,0V1.333H.8Z" transform="translate(0.761 0) rotate(18)" fill="#fff"/>
                  <path id="Path_5575" data-name="Path 5575" d="M0,1.333V0H.8Z" transform="translate(1.173 1.268) rotate(162)" fill="#fff"/>
                </g>
                <g id="Group_688" data-name="Group 688" transform="translate(1.794 0.198) rotate(72)">
                  <path id="o-12" data-name="o" d="M0,0V1.333H.8Z" transform="translate(0.761 0) rotate(18)" fill="#fff"/>
                  <path id="Path_5576" data-name="Path 5576" d="M0,1.333V0H.8Z" transform="translate(1.173 1.268) rotate(162)" fill="#fff"/>
                </g>
              </g>
              <g id="Group_689" data-name="Group 689" transform="translate(0.171 1.645) rotate(-72)">
                <path id="o-13" data-name="o" d="M0,0V1.333H.8Z" transform="translate(0.761 0) rotate(18)" fill="#fff"/>
                <path id="Path_5577" data-name="Path 5577" d="M0,1.333V0H.8Z" transform="translate(1.173 1.268) rotate(162)" fill="#fff"/>
              </g>
              <g id="Group_691" data-name="Group 691" transform="matrix(-0.809, 0.588, -0.588, -0.809, 3.074, 1.965)">
                <g id="t-6" data-name="t" transform="translate(0 0)">
                  <path id="o-14" data-name="o" d="M0,0V1.333H.8Z" transform="translate(0.761 0) rotate(18)" fill="#fff"/>
                  <path id="Path_5578" data-name="Path 5578" d="M0,1.333V0H.8Z" transform="translate(1.173 1.268) rotate(162)" fill="#fff"/>
                </g>
                <g id="Group_690" data-name="Group 690" transform="translate(1.794 0.198) rotate(72)">
                  <path id="o-15" data-name="o" d="M0,0V1.333H.8Z" transform="translate(0.761 0) rotate(18)" fill="#fff"/>
                  <path id="Path_5579" data-name="Path 5579" d="M0,1.333V0H.8Z" transform="translate(1.173 1.268) rotate(162)" fill="#fff"/>
                </g>
              </g>
            </g>
            <g id="Group_697" data-name="Group 697" transform="matrix(0.866, 0.5, -0.5, 0.866, 4.339, 0.752)">
              <g id="f-4" data-name="f" transform="translate(0.914 0)">
                <g id="t-7" data-name="t" transform="translate(0)">
                  <path id="o-16" data-name="o" d="M0,0V1.333H.8Z" transform="translate(0.761 0) rotate(18)" fill="#fff"/>
                  <path id="Path_5580" data-name="Path 5580" d="M0,1.333V0H.8Z" transform="translate(1.173 1.268) rotate(162)" fill="#fff"/>
                </g>
                <g id="Group_693" data-name="Group 693" transform="translate(1.794 0.198) rotate(72)">
                  <path id="o-17" data-name="o" d="M0,0V1.333H.8Z" transform="translate(0.761 0) rotate(18)" fill="#fff"/>
                  <path id="Path_5581" data-name="Path 5581" d="M0,1.333V0H.8Z" transform="translate(1.173 1.268) rotate(162)" fill="#fff"/>
                </g>
              </g>
              <g id="Group_694" data-name="Group 694" transform="translate(0.171 1.645) rotate(-72)">
                <path id="o-18" data-name="o" d="M0,0V1.333H.8Z" transform="translate(0.761 0) rotate(18)" fill="#fff"/>
                <path id="Path_5582" data-name="Path 5582" d="M0,1.333V0H.8Z" transform="translate(1.173 1.268) rotate(162)" fill="#fff"/>
              </g>
              <g id="Group_696" data-name="Group 696" transform="matrix(-0.809, 0.588, -0.588, -0.809, 3.074, 1.965)">
                <g id="t-8" data-name="t" transform="translate(0 0)">
                  <path id="o-19" data-name="o" d="M0,0V1.333H.8Z" transform="translate(0.761 0) rotate(18)" fill="#fff"/>
                  <path id="Path_5583" data-name="Path 5583" d="M0,1.333V0H.8Z" transform="translate(1.173 1.268) rotate(162)" fill="#fff"/>
                </g>
                <g id="Group_695" data-name="Group 695" transform="translate(1.794 0.198) rotate(72)">
                  <path id="o-20" data-name="o" d="M0,0V1.333H.8Z" transform="translate(0.761 0) rotate(18)" fill="#fff"/>
                  <path id="Path_5584" data-name="Path 5584" d="M0,1.333V0H.8Z" transform="translate(1.173 1.268) rotate(162)" fill="#fff"/>
                </g>
              </g>
            </g>
          </g>
        </g>
        <g id="Group_720" data-name="Group 720" transform="translate(0 12.424) rotate(-80)">
          <g id="s2-2" data-name="s2" transform="translate(0 0)">
            <g id="Group_703" data-name="Group 703" transform="translate(0.572 0) rotate(10)">
              <g id="f-5" data-name="f" transform="translate(0.914 0)">
                <g id="t-9" data-name="t" transform="translate(0)">
                  <path id="o-21" data-name="o" d="M0,0V1.333H.8Z" transform="translate(0.761 0) rotate(18)" fill="#fff"/>
                  <path id="Path_5585" data-name="Path 5585" d="M0,1.333V0H.8Z" transform="translate(1.173 1.268) rotate(162)" fill="#fff"/>
                </g>
                <g id="Group_699" data-name="Group 699" transform="translate(1.794 0.198) rotate(72)">
                  <path id="o-22" data-name="o" d="M0,0V1.333H.8Z" transform="translate(0.761 0) rotate(18)" fill="#fff"/>
                  <path id="Path_5586" data-name="Path 5586" d="M0,1.333V0H.8Z" transform="translate(1.173 1.268) rotate(162)" fill="#fff"/>
                </g>
              </g>
              <g id="Group_700" data-name="Group 700" transform="translate(0.171 1.645) rotate(-72)">
                <path id="o-23" data-name="o" d="M0,0V1.333H.8Z" transform="translate(0.761 0) rotate(18)" fill="#fff"/>
                <path id="Path_5587" data-name="Path 5587" d="M0,1.333V0H.8Z" transform="translate(1.173 1.268) rotate(162)" fill="#fff"/>
              </g>
              <g id="Group_702" data-name="Group 702" transform="matrix(-0.809, 0.588, -0.588, -0.809, 3.074, 1.965)">
                <g id="t-10" data-name="t" transform="translate(0 0)">
                  <path id="o-24" data-name="o" d="M0,0V1.333H.8Z" transform="translate(0.761 0) rotate(18)" fill="#fff"/>
                  <path id="Path_5588" data-name="Path 5588" d="M0,1.333V0H.8Z" transform="translate(1.173 1.268) rotate(162)" fill="#fff"/>
                </g>
                <g id="Group_701" data-name="Group 701" transform="translate(1.794 0.198) rotate(72)">
                  <path id="o-25" data-name="o" d="M0,0V1.333H.8Z" transform="translate(0.761 0) rotate(18)" fill="#fff"/>
                  <path id="Path_5589" data-name="Path 5589" d="M0,1.333V0H.8Z" transform="translate(1.173 1.268) rotate(162)" fill="#fff"/>
                </g>
              </g>
            </g>
            <g id="Group_708" data-name="Group 708" transform="matrix(0.866, 0.5, -0.5, 0.866, 4.339, 0.752)">
              <g id="f-6" data-name="f" transform="translate(0.914 0)">
                <g id="t-11" data-name="t">
                  <path id="o-26" data-name="o" d="M0,0V1.333H.8Z" transform="translate(0.761 0) rotate(18)" fill="#fff"/>
                  <path id="Path_5590" data-name="Path 5590" d="M0,1.333V0H.8Z" transform="translate(1.173 1.268) rotate(162)" fill="#fff"/>
                </g>
                <g id="Group_704" data-name="Group 704" transform="translate(1.794 0.198) rotate(72)">
                  <path id="o-27" data-name="o" d="M0,0V1.333H.8Z" transform="translate(0.761 0) rotate(18)" fill="#fff"/>
                  <path id="Path_5591" data-name="Path 5591" d="M0,1.333V0H.8Z" transform="translate(1.173 1.268) rotate(162)" fill="#fff"/>
                </g>
              </g>
              <g id="Group_705" data-name="Group 705" transform="translate(0.171 1.645) rotate(-72)">
                <path id="o-28" data-name="o" d="M0,0V1.333H.8Z" transform="translate(0.761 0) rotate(18)" fill="#fff"/>
                <path id="Path_5592" data-name="Path 5592" d="M0,1.333V0H.8Z" transform="translate(1.173 1.268) rotate(162)" fill="#fff"/>
              </g>
              <g id="Group_707" data-name="Group 707" transform="matrix(-0.809, 0.588, -0.588, -0.809, 3.074, 1.965)">
                <g id="t-12" data-name="t" transform="translate(0 0)">
                  <path id="o-29" data-name="o" d="M0,0V1.333H.8Z" transform="translate(0.761 0) rotate(18)" fill="#fff"/>
                  <path id="Path_5593" data-name="Path 5593" d="M0,1.333V0H.8Z" transform="translate(1.173 1.268) rotate(162)" fill="#fff"/>
                </g>
                <g id="Group_706" data-name="Group 706" transform="translate(1.794 0.198) rotate(72)">
                  <path id="o-30" data-name="o" d="M0,0V1.333H.8Z" transform="translate(0.761 0) rotate(18)" fill="#fff"/>
                  <path id="Path_5594" data-name="Path 5594" d="M0,1.333V0H.8Z" transform="translate(1.173 1.268) rotate(162)" fill="#fff"/>
                </g>
              </g>
            </g>
          </g>
          <g id="Group_719" data-name="Group 719" transform="matrix(0.766, 0.643, -0.643, 0.766, 7.184, 2.38)">
            <g id="Group_713" data-name="Group 713" transform="translate(0.572 0) rotate(10)">
              <g id="f-7" data-name="f" transform="translate(0.914 0)">
                <g id="t-13" data-name="t" transform="translate(0)">
                  <path id="o-31" data-name="o" d="M0,0V1.333H.8Z" transform="translate(0.761 0) rotate(18)" fill="#fff"/>
                  <path id="Path_5595" data-name="Path 5595" d="M0,1.333V0H.8Z" transform="translate(1.173 1.268) rotate(162)" fill="#fff"/>
                </g>
                <g id="Group_709" data-name="Group 709" transform="translate(1.794 0.198) rotate(72)">
                  <path id="o-32" data-name="o" d="M0,0V1.333H.8Z" transform="translate(0.761 0) rotate(18)" fill="#fff"/>
                  <path id="Path_5596" data-name="Path 5596" d="M0,1.333V0H.8Z" transform="translate(1.173 1.268) rotate(162)" fill="#fff"/>
                </g>
              </g>
              <g id="Group_710" data-name="Group 710" transform="translate(0.171 1.645) rotate(-72)">
                <path id="o-33" data-name="o" d="M0,0V1.333H.8Z" transform="translate(0.761 0) rotate(18)" fill="#fff"/>
                <path id="Path_5597" data-name="Path 5597" d="M0,1.333V0H.8Z" transform="translate(1.173 1.268) rotate(162)" fill="#fff"/>
              </g>
              <g id="Group_712" data-name="Group 712" transform="matrix(-0.809, 0.588, -0.588, -0.809, 3.074, 1.965)">
                <g id="t-14" data-name="t" transform="translate(0 0)">
                  <path id="o-34" data-name="o" d="M0,0V1.333H.8Z" transform="translate(0.761 0) rotate(18)" fill="#fff"/>
                  <path id="Path_5598" data-name="Path 5598" d="M0,1.333V0H.8Z" transform="translate(1.173 1.268) rotate(162)" fill="#fff"/>
                </g>
                <g id="Group_711" data-name="Group 711" transform="translate(1.794 0.198) rotate(72)">
                  <path id="o-35" data-name="o" d="M0,0V1.333H.8Z" transform="translate(0.761) rotate(18)" fill="#fff"/>
                  <path id="Path_5599" data-name="Path 5599" d="M0,1.333V0H.8Z" transform="translate(1.173 1.268) rotate(162)" fill="#fff"/>
                </g>
              </g>
            </g>
            <g id="Group_718" data-name="Group 718" transform="matrix(0.866, 0.5, -0.5, 0.866, 4.339, 0.752)">
              <g id="f-8" data-name="f" transform="translate(0.914 0)">
                <g id="t-15" data-name="t">
                  <path id="o-36" data-name="o" d="M0,0V1.333H.8Z" transform="translate(0.761 0) rotate(18)" fill="#fff"/>
                  <path id="Path_5600" data-name="Path 5600" d="M0,1.333V0H.8Z" transform="translate(1.173 1.268) rotate(162)" fill="#fff"/>
                </g>
                <g id="Group_714" data-name="Group 714" transform="translate(1.794 0.198) rotate(72)">
                  <path id="o-37" data-name="o" d="M0,0V1.333H.8Z" transform="translate(0.761 0) rotate(18)" fill="#fff"/>
                  <path id="Path_5601" data-name="Path 5601" d="M0,1.333V0H.8Z" transform="translate(1.173 1.268) rotate(162)" fill="#fff"/>
                </g>
              </g>
              <g id="Group_715" data-name="Group 715" transform="translate(0.171 1.645) rotate(-72)">
                <path id="o-38" data-name="o" d="M0,0V1.333H.8Z" transform="translate(0.761 0) rotate(18)" fill="#fff"/>
                <path id="Path_5602" data-name="Path 5602" d="M0,1.333V0H.8Z" transform="translate(1.173 1.268) rotate(162)" fill="#fff"/>
              </g>
              <g id="Group_717" data-name="Group 717" transform="matrix(-0.809, 0.588, -0.588, -0.809, 3.074, 1.965)">
                <g id="t-16" data-name="t" transform="translate(0 0)">
                  <path id="o-39" data-name="o" d="M0,0V1.333H.8Z" transform="translate(0.761 0) rotate(18)" fill="#fff"/>
                  <path id="Path_5603" data-name="Path 5603" d="M0,1.333V0H.8Z" transform="translate(1.173 1.268) rotate(162)" fill="#fff"/>
                </g>
                <g id="Group_716" data-name="Group 716" transform="translate(1.794 0.198) rotate(72)">
                  <path id="o-40" data-name="o" d="M0,0V1.333H.8Z" transform="translate(0.761 0) rotate(18)" fill="#fff"/>
                  <path id="Path_5604" data-name="Path 5604" d="M0,1.333V0H.8Z" transform="translate(1.173 1.268) rotate(162)" fill="#fff"/>
                </g>
              </g>
            </g>
          </g>
        </g>
      </g>
    </g>
  </g>
</svg>
