<svg xmlns="http://www.w3.org/2000/svg" width="40" height="40" viewBox="0 0 40 40"><g><g><g><path fill="none" stroke="#1d1d1b" stroke-miterlimit="50" stroke-width="2" d="M23.005 23.885v0l-1.725-5.747v0l5.641-1.693v0l1.726 5.746v0z"/></g><g><path fill="none" stroke="#1d1d1b" stroke-miterlimit="50" stroke-width="2" d="M21 28l10-3"/></g><g><path fill="none" stroke="#1d1d1b" stroke-miterlimit="50" stroke-width="2" d="M15 28a3 3 0 1 1 6 0 3 3 0 0 1-6 0z"/></g><g><path fill="none" stroke="#1d1d1b" stroke-miterlimit="50" stroke-width="2" d="M11 12v0l3 2v0l3 12v0"/></g></g><g><g><path fill="none" stroke="#1d1d1b" stroke-miterlimit="50" stroke-width="2" d="M1 20C1 9.507 9.507 1 20 1s19 8.507 19 19-8.507 19-19 19S1 30.493 1 20z"/></g></g></g></svg>