<svg xmlns="http://www.w3.org/2000/svg" xmlns:xlink="http://www.w3.org/1999/xlink" viewBox="0 0 181.24 679"><defs><style>.b2a545e1-6e05-4582-8485-443ecf5f6303{fill:#303030;}.f981185d-dd62-41f1-a70e-edce5e255334{fill:url(#f9337bda-2b8f-43b7-81fd-e73ec3eaef3c);}</style><linearGradient id="f9337bda-2b8f-43b7-81fd-e73ec3eaef3c" x1="88.72" y1="79.79" x2="92.58" y2="669.51" gradientUnits="userSpaceOnUse"><stop offset="0" stop-color="#beffff"/><stop offset="0.69" stop-color="#75adfb"/><stop offset="1" stop-color="#5855ff"/></linearGradient></defs><title>amall_comtainer</title><g id="eae3c322-5c6c-4433-b089-f05b44aaa7a3" data-name="Layer 2"><g id="bc56c119-4073-429d-b2fa-4bef3a1b0a04" data-name="Layer 19"><path class="b2a545e1-6e05-4582-8485-443ecf5f6303" d="M90.47,13.8c-12.78,0-26-2-26-5.33s13.22-5.33,26-5.33,26,2,26,5.33S103.25,13.8,90.47,13.8Zm0-10.16C75.21,3.64,65,6.14,65,8.47s10.24,4.83,25.5,4.83S116,10.8,116,8.47,105.72,3.64,90.47,3.64Z"/></g><g id="af0714e3-989f-476c-bf53-2c882d3855f2" data-name="Layer 17"><path class="f981185d-dd62-41f1-a70e-edce5e255334" d="M17.12,232.43a90.43,90.43,0,0,0,0,17.62C18.3,261,20.8,276.31,22.54,288c1.86,12.52.93,12.87.93,16.94,0,2.43-4.06,12.2-10.84,28.46A59.58,59.58,0,0,0,9,351.7c-1.25,6.21.93,262.25.93,281.22s39.89,36.59,81.9,36.59,79.38-17.62,79.38-38S173,447.92,173,359.83c0-23.94-13.56-40.66-14.91-51.5s0-13.55,0-13.55,6.77-46.76,6.77-59c0-6-11.46-47.94-23-85.38-11.8-38.17-23-70.48-23-70.48H61.84L44.22,135.53,28,187.71,18.67,222A56.83,56.83,0,0,0,17.12,232.43Z"/><path class="b2a545e1-6e05-4582-8485-443ecf5f6303" d="M181,347.18c-.62-6-3.61-12.56-6.77-19.46-4.12-9-8.38-18.25-8.38-28.06,0-6.66,1.46-14.35,3.15-23.26,2.77-14.54,5.9-31,3.73-48.89C169,197,128.6,84.12,120.54,61.8A26.16,26.16,0,0,1,119,52.91V48c5.47-2.09,8.75-4.8,8.75-7.8V35.92c0-2.49-2.35-4.8-6.78-6.72V27.11a3.79,3.79,0,0,0,1.35-2.62c0-.33.42-3.23-.85-4.69a2.53,2.53,0,0,0-.5-.43V8.81C121,3.09,105.25,0,90.47,0,76.28,0,61.25,2.85,60.06,8.13H60V19.37a2.53,2.53,0,0,0-.5.43c-1.26,1.46-.89,4.36-.85,4.6A3.91,3.91,0,0,0,60,27.15v2c-4.57,1.94-7,4.29-7,6.82v4.25c0,3.09,3.48,5.88,9.26,8v6.11a18.36,18.36,0,0,1-1.1,6.27C53,83,12.27,196.68,8.52,227.51c-2.17,17.86,1,34.35,3.73,48.89,1.69,8.91,3.15,16.6,3.15,23.26,0,9.81-4.26,19.09-8.37,28.06C3.86,334.62.87,341.14.26,347.18c-.94,9.23.89,146.9,2,229.16.4,30.37.69,52.32.7,57.49C3,645,11.8,656.27,27.16,664.72,43.9,673.93,67.11,679,92.5,679c54.59,0,85.36-26.44,85.76-44.71C178.55,621.19,182.28,360.26,181,347.18ZM90.47,1.36c17.17,0,29.14,3.92,29.14,7.45s-12,7.45-29.14,7.45S61.33,12.34,61.33,8.81,73.3,1.36,90.47,1.36ZM61.33,11.56c4.11,3.95,16.93,6.06,29.14,6.06s25-2.11,29.14-6.06V19c0,3.53-12,7.46-29.14,7.46S61.33,22.5,61.33,19ZM60,24.3c-.1-.67-.2-2.75.52-3.61,2.8,4.62,16.75,7.09,30,7.09s27.17-2.47,30-7.08c.73.85.63,2.88.52,3.7,0,3.7-12.52,7.82-30.49,7.82-13.41,0-25.47-2.4-29.35-5.82h0A2.84,2.84,0,0,1,60,24.3Zm59.64,3.88v6.38c0,3.53-12,7.45-29.14,7.45s-29.14-3.92-29.14-7.45V28.23c4.94,3.23,16.27,5.34,29.14,5.34C105.26,33.57,115.16,31.15,119.61,28.18ZM60,30.58v4c0,5.72,15.71,8.81,30.5,8.81S121,40.28,121,34.56V30.68c3.49,1.61,5.42,3.45,5.42,5.24,0,4.9-14.47,10.16-36,10.16s-36-5.26-36-10.16C54.33,34.09,56.34,32.22,60,30.58Zm-5.64,9.59V39.12c4.65,5.26,20.56,8.32,36,8.32s31.38-3.06,36-8.32v1.05c0,5.14-14.47,10.65-36,10.65S54.33,45.31,54.33,40.17Zm57.28,9.93v5.11A27.74,27.74,0,0,0,113,64c7.94,23.72,47.64,143.1,50.07,163.75,1.64,13.93-1.2,31.73-3.71,47.43-1.65,10.28-3.07,19.17-3.07,25.67,0,7.05,3.58,15.44,7.36,24.33,3.38,7.93,6.87,16.12,7.55,23.18.85,8.67-.07,118.58-.74,198.82-.32,39-.61,72.65-.61,85.15,0,8.73-13.61,22.25-22.41,22.25-6.57,0-12.12-5.4-18.55-11.67-8.91-8.68-20-19.5-38.37-19.5-18.7,0-30.22,11.09-39.48,20-6.24,6-11.62,11.18-17.44,11.18-3.74,0-9.37-2.69-14-6.7-5.36-4.63-8.43-10.11-8.43-15,0-17.12-.44-57.78-.94-104.85-.86-80.28-1.83-171.27-1-179.63.68-7.06,4.17-15.25,7.55-23.18,3.78-8.89,7.36-17.28,7.36-24.33,0-6.5-1.42-15.39-3.07-25.67-2.51-15.7-5.35-33.5-3.71-47.43C19.8,207.12,59.5,87.74,67.44,64a27.74,27.74,0,0,0,1.43-8.81L68.8,50a100.42,100.42,0,0,0,21.55,2.15A101.56,101.56,0,0,0,111.61,50.1Zm65.3,584.16c-.2,9-8.44,19.67-21.5,27.82-11.4,7.1-31.56,15.56-62.91,15.56-54.4,0-88.14-22.74-88.2-43.81,0-5.18-.31-27.13-.71-57.51-1.09-82.23-2.91-219.85-2-229,.59-5.82,3.53-12.24,6.65-19,4.18-9.1,8.5-18.52,8.5-28.63,0-6.79-1.47-14.53-3.18-23.51-2.75-14.45-5.86-30.83-3.71-48.47C13.6,197,54.29,83.45,62.4,61a19.55,19.55,0,0,0,1.18-6.73V48.62c1.22.4,2.55.76,3.94,1.1v5.49a26.19,26.19,0,0,1-1.37,8.38C58.21,87.33,18.46,206.83,16,227.61c-1.66,14.12,1.2,32,3.72,47.8,1.57,9.81,3.05,19.07,3.05,25.46,0,6.77-3.52,15-7.25,23.8-3.41,8-6.94,16.31-7.65,23.57-.82,8.44.15,99.47,1,179.78.5,47.07.93,87.72.93,104.84,0,5.32,3.25,11.18,8.91,16.07,4.87,4.2,10.86,7,14.9,7C40,656,45.57,650.6,52,644.4c9.08-8.74,20.38-19.61,38.54-19.61,17.81,0,28.23,10.15,37.43,19.11,6.64,6.47,12.37,12.06,19.49,12.06,9.55,0,23.77-14.12,23.77-23.61,0-12.49.28-46.15.61-85.13.67-80.28,1.58-190.23.73-199-.7-7.26-4.23-15.55-7.65-23.57-3.73-8.76-7.25-17-7.25-23.8,0-6.39,1.48-15.65,3.05-25.46,2.52-15.78,5.38-33.68,3.72-47.8-2.44-20.78-42.19-140.28-50.13-164A26.19,26.19,0,0,1,113,55.21V49.78c1.67-.4,3.24-.84,4.67-1.33v4.46a27.36,27.36,0,0,0,1.64,9.35c8,22.3,48.39,135.07,52.08,165.42,2.14,17.64-1,34-3.72,48.47-1.7,9-3.17,16.72-3.17,23.51,0,10.11,4.32,19.53,8.5,28.63,3.11,6.79,6.06,13.21,6.65,19C180.87,359.81,177.39,612.52,176.91,634.26Z"/></g></g></svg>