<svg xmlns="http://www.w3.org/2000/svg" xmlns:xlink="http://www.w3.org/1999/xlink" viewBox="0 0 592.75 1407.5"><defs><style>.cls-1,.cls-2,.cls-5{stroke:#000;}.cls-1,.cls-2,.cls-4,.cls-5,.cls-6{stroke-miterlimit:10;}.cls-1,.cls-2,.cls-6{stroke-width:0.5px;}.cls-1{fill:url(#linear-gradient);}.cls-2,.cls-4,.cls-5,.cls-6{fill:none;}.cls-3{fill:#f5f5f5;}.cls-4,.cls-6{stroke:#333;}.cls-4,.cls-5{stroke-width:0.3px;}</style><linearGradient id="linear-gradient" x1="301.46" y1="-147.62" x2="306.74" y2="657.47" gradientTransform="translate(602.11 711) rotate(180)" gradientUnits="userSpaceOnUse"><stop offset="0" stop-color="#29a8df"/><stop offset="0.52" stop-color="#0071b9"/><stop offset="1" stop-color="#2e318f"/></linearGradient></defs><title>Illustrations_water_coolers</title><g id="Layer_2" data-name="Layer 2"><g id="grid"><path class="cls-1" d="M381.61,882.25c40.58-21.21,108.52-53.46,135-81,25-26,29-37.19,29-71,0-12,10-17.15,10-31,0-13-11-20-11-31v-22c0-13,10-11,10-27,0-17-10-14-10-33v-312c0-10,7-11,7-24s-7-16-7-24v-46c0-11,8.31-20.82,5-44-3.5-24.5-62-123-259-119s-241,83-246,127c0,24,7,23,7,43,0,10.18,0,21.92.09,34.93,0,5.92-6.09,14.07-6.09,23.07,0,15,6,18,6,27,.57,90.27,2,209.16,2,313,0,25-10,25-10,40,0,13,9,15,9,23,0,14.35,1,12.45,1,25,0,6.42-10,14-10,26,0,16,10,20.54,10,27,0,27,11,60,33,79,44,38,89,56,128,76S337.61,905.25,381.61,882.25Z"/><ellipse class="cls-2" cx="300.37" cy="1078.56" rx="60.26" ry="32.19"/><path class="cls-2" d="M355.84,1079c0-16.11-24.91-28.27-55.55-28.27S244.9,1062.91,244.9,1079s24.84,29.17,55.47,29.17S355.84,1095.13,355.84,1079Z"/><path class="cls-2" d="M357.67,1028.87c0-17-25.93-29.89-57.81-29.89s-57.65,12.86-57.65,29.89"/><path class="cls-2" d="M357.92,989.47c0-17-26.18-29.82-58.06-29.82s-57.65,12.86-57.65,29.89"/><path class="cls-2" d="M560.61,745.25c0-76.75-117.08-134.84-260.73-134.84S40.61,665.5,40.61,742.25"/><path class="cls-2" d="M559.61,731.25c9-13,6.1-34.67,3-43-23.62-63.57-136-110-263-110s-236.15,38.55-259,102c-3,8.37-15,28,0,53"/><path class="cls-2" d="M558.61,652.25c9-8,8.43-36.81,5-45-23-55-138-99-264-99s-239.15,38.55-262,102c-2.37,6.58-3,20.43,0,35,.83,4,2.5,5.56,4,9"/><path class="cls-2" d="M557.61,286.25c7-11,7.1-36.67,4-45-23.62-63.57-134-113-261-113s-239.15,46.55-262,110c-3,8.37-3,26,4,42"/><path class="cls-2" d="M558.61,657.25c0-53-103.47-114.84-258.73-114.84S41.61,608.25,41.61,657.25"/><path class="cls-2" d="M558.61,301.25c0-81.42-114.63-134.06-257.73-134.06S41.61,222.25,41.61,293.25"/><path class="cls-2" d="M355.18,1057.16c-4.47-14-27.39-24.7-54.81-24.7-27.61,0-50.7,10.59-55,24.7"/><path class="cls-2" d="M354.26,1036.12c0-16.61-24.89-28.81-54.18-28.81s-54.67,12.25-54.67,27.9"/><line class="cls-2" x1="240.84" y1="1073.62" x2="245.41" y2="1057.16"/><line class="cls-2" x1="359.75" y1="1072.71" x2="355.02" y2="1056.67"/><line class="cls-2" x1="245.41" y1="1034.29" x2="244.82" y2="1058.53"/><line class="cls-2" x1="354.26" y1="1035.21" x2="354.84" y2="1055.92"/><path class="cls-2" d="M356.61,941.25c19-73.87,204-97.42,204-197"/><path class="cls-2" d="M245.61,942.25c-18.51-72.42-205-89.8-205-200"/><path class="cls-2" d="M245.61,952.25"/><line class="cls-2" x1="242.22" y1="1028.32" x2="242.22" y2="988.56"/><line class="cls-2" x1="357.61" y1="1027.75" x2="357.92" y2="989.31"/><line class="cls-2" x1="41.61" y1="677.75" x2="41.61" y2="655.75"/><line class="cls-2" x1="558.61" y1="679.75" x2="558.61" y2="655.75"/><line class="cls-2" x1="41.67" y1="600.75" x2="41.61" y2="291.75"/><line class="cls-2" x1="558.67" y1="597.75" x2="558.67" y2="300.75"/><path class="cls-2" d="M43.6,227.42l-.34-38.24C47.61,118.25,170.05,67.26,299.88,66.75c127.73-.5,257.73,52.4,257.73,135.5v30.3"/><path class="cls-2" d="M43.61,187.25s-17-15-13-53C47.61,51.25,155,0,300.61.25s265.15,67.9,265,151c0,0-1,25-9.86,35.16"/><path class="cls-2" d="M190.61,717.25c7,19,47,80,50,93,1,6,10,8,9-2-1-13-43-78-49-96a194.2,194.2,0,0,1-7.3-32.45,5.82,5.82,0,0,0-6.35-5h0a4.49,4.49,0,0,0-4,4.85C183.58,687.27,185.48,703.33,190.61,717.25Z"/><path class="cls-2" d="M410,719.25c-8.85,23.93-49,78.78-50.21,93-1,6-10,8-9-2,1.21-15.76,41.55-73.15,49.2-96a194,194,0,0,0,7.34-32.45,5.82,5.82,0,0,1,6.37-5h0a4.5,4.5,0,0,1,4.06,4.85C417.08,689.27,415.16,705.33,410,719.25Z"/><line class="cls-2" x1="355.61" y1="980.75" x2="355.61" y2="958.75"/><polyline class="cls-2" points="246.61 977.75 246.61 966.82 246.61 959.75"/><path class="cls-2" d="M242.61,954.25c0-21,23.84-33,57.34-33s60.66,12,60.66,34"/><path class="cls-2" d="M246.61,960.25c0-16.57,23-29,53-29,29,0,56,11.43,56,28"/><path class="cls-2" d="M242.61,1025.25c-1,3-1,10,2.43,11.82"/><path class="cls-2" d="M357.61,1027.25c0,1,0,7-3.29,9.47"/><path class="cls-2" d="M246.46,966.93a17.7,17.7,0,0,1-3.85-10.68c0-16.57,24.42-31,57-31s61,14.43,61,31c0,4.27-1.75,8.33-4.91,12"/><path class="cls-3" d="M581,966.25c-5-6-9-11-9-11l-16.22-12.2L528,930.25l-30-13s-40-54-195.79-55.46c0,0-88.21-.54-146.21,20.46C113.13,897.77,95.94,914.39,89.89,922l-.89.25s-70,23-78,41c-3.06,6.9-11.19,23.11-11,45,1,114,0,399,0,399H592v-407C591,985.25,586,972.25,581,966.25Z"/><path class="cls-2" d="M0,1406.85l592,.4.49-398.5c0-42-22-58-44-69C509.94,920.47,430.28,883.58,298,883.58c-109.87,0-205.26,34.72-256.82,58C2.5,955.75.31,987.26.41,1008s0,399.25,0,399.25"/><path class="cls-2" d="M498.5,917.75s-41.15-56.81-202.9-56c-60,.3-103.85,8.66-135.31,19.06-53.38,17.65-71,41.18-71,41.18"/><path class="cls-2" d="M119.5,1406.75s21-397.41,177.8-397.41S476,1406.85,476,1406.85"/><path class="cls-4" d="M104.5,1405.74S127.19,976,296.79,976,490,1407.25,490,1407.25"/><path class="cls-2" d="M.41,998.43s114-74.41,296-74.41S591.6,998.43,591.6,998.43"/><path class="cls-5" d="M.41,1019.43s114-74.41,296-74.41,295.19,74.41,295.19,74.41"/><path class="cls-2" d="M296.5,1045.75c-36,0-57.59,31.45-67.14,49.91-3.09,6,1.14,11.09,8.14,13.09,0,0,31,7,60,7s59-7,59-7c7-2,11.11-7.22,7.92-13.19C354.51,1077.09,332.47,1045.75,296.5,1045.75Z"/><path class="cls-2" d="M198.5,1236.25l-.22-75.89a7.11,7.11,0,0,1,7.11-7.11h56.5a7.11,7.11,0,0,1,7.11,7.11v76"/><path class="cls-2" d="M326.5,1236.25l-.22-73.89a7.11,7.11,0,0,1,7.11-7.11h56.5a7.11,7.11,0,0,1,7.11,7.11v73.89"/><rect class="cls-2" x="198.5" y="1189.75" width="70.5" height="16.5" rx="5"/><path class="cls-2" d="M440.5,1406.75c-.81-39.23-12.94-127.52-17.75-159.15a13.35,13.35,0,0,0-13.21-11.35H183.31a13.36,13.36,0,0,0-13.19,11.22c-4.53,27.8-15.62,101.76-15.62,158.28"/><circle class="cls-2" cx="282.32" cy="1086.02" r="4.31"/><circle class="cls-2" cx="298" cy="1086.02" r="4.31"/><circle class="cls-2" cx="313.69" cy="1086.02" r="4.31"/><line class="cls-6" x1="198.5" y1="1194.75" x2="269.5" y2="1194.75"/><rect class="cls-2" x="326.5" y="1189.75" width="70.5" height="16.5" rx="5"/><line class="cls-6" x1="326.5" y1="1194.75" x2="397.5" y2="1194.75"/><path class="cls-2" d="M206.81,1236.35v10.94c0,3,2.44,5.46,4.46,5.46H253c4,0,6.46-2.44,6.46-5.46v-10.7"/><path class="cls-2" d="M336.81,1236.35v10.94c0,3,2.44,5.46,4.46,5.46H383c4,0,6.46-2.44,6.46-5.46v-10.7"/><circle class="cls-2" cx="302.88" cy="1344.13" r="30"/><circle class="cls-5" cx="302.88" cy="1344.13" r="22.25"/></g></g></svg>