<svg xmlns="http://www.w3.org/2000/svg" width="324" height="662" viewBox="0 0 324 662"><defs><linearGradient id="j967a" x1="161.12" x2="164.31" y1="153.4" y2="639.38" gradientUnits="userSpaceOnUse"><stop offset="0" stop-color="#29a8df"/><stop offset=".52" stop-color="#0071b9"/><stop offset="1" stop-color="#2e318f"/></linearGradient></defs><g><g><path fill="url(#j967a)" d="M112.254 139.142c-24.495 12.803-65.5 32.27-81.49 48.894-15.09 15.694-17.504 22.455-17.504 42.858 0 7.243-6.037 10.352-6.037 18.712 0 7.847 6.64 12.073 6.64 18.712v13.28c0 7.847-6.036 6.64-6.036 16.298 0 10.262 6.036 8.45 6.036 19.92v188.331c0 6.037-4.225 6.64-4.225 14.487s4.225 9.658 4.225 14.487v27.767c0 6.64-5.016 12.574-3.018 26.56 2.113 14.789 37.425 74.246 156.34 71.831 118.914-2.414 145.473-50.1 148.492-76.66 0-14.487-4.226-13.884-4.226-25.956 0-6.145 0-13.232-.048-21.085 0-3.573 3.67-8.493 3.67-13.926 0-9.054-3.586-10.865-3.622-16.297-.344-54.49-1.207-126.255-1.207-188.936 0-15.09 6.036-15.09 6.036-24.145 0-7.847-5.433-9.054-5.433-13.883 0-8.662-.603-7.515-.603-15.09 0-3.876 6.036-8.451 6.036-15.695 0-9.658-6.036-12.392-6.036-16.298 0-16.298-6.64-36.217-19.92-47.686-26.56-22.938-53.723-33.803-77.264-45.876-23.541-12.072-74.246-14.487-100.806-.604z"/><path fill="none" stroke="#000" stroke-miterlimit="50" stroke-width=".5" d="M112.254 139.142c-24.495 12.803-65.5 32.27-81.49 48.894-15.09 15.694-17.504 22.455-17.504 42.858 0 7.243-6.037 10.352-6.037 18.712 0 7.847 6.64 12.073 6.64 18.712v13.28c0 7.847-6.036 6.64-6.036 16.298 0 10.262 6.036 8.45 6.036 19.92v188.331c0 6.037-4.225 6.64-4.225 14.487s4.225 9.658 4.225 14.487v27.767c0 6.64-5.016 12.574-3.018 26.56 2.113 14.789 37.425 74.246 156.34 71.831 118.914-2.414 145.473-50.1 148.492-76.66 0-14.487-4.226-13.884-4.226-25.956 0-6.145 0-13.232-.048-21.085 0-3.573 3.67-8.493 3.67-13.926 0-9.054-3.586-10.865-3.622-16.297-.344-54.49-1.207-126.255-1.207-188.936 0-15.09 6.036-15.09 6.036-24.145 0-7.847-5.433-9.054-5.433-13.883 0-8.662-.603-7.515-.603-15.09 0-3.876 6.036-8.451 6.036-15.695 0-9.658-6.036-12.392-6.036-16.298 0-16.298-6.64-36.217-19.92-47.686-26.56-22.938-53.723-33.803-77.264-45.876-23.541-12.072-74.246-14.487-100.806-.604z"/></g><g><path fill="none" stroke="#000" stroke-miterlimit="50" stroke-width=".5" d="M124.924 20.644c0-10.73 16.286-19.43 36.375-19.43 20.09 0 36.375 8.7 36.375 19.43 0 10.732-16.286 19.431-36.375 19.431-20.09 0-36.375-8.7-36.375-19.43z"/></g><g><path fill="none" stroke="#000" stroke-miterlimit="50" stroke-width=".5" d="M127.816 20.379c0 9.724 15.036 17.064 33.525 17.064 18.49 0 33.435-7.352 33.435-17.064S179.788 2.759 161.3 2.759c-18.49 0-33.483 7.883-33.483 17.62z"/></g><g><path fill="none" stroke="#000" stroke-miterlimit="50" stroke-width=".5" d="M126.711 50.639c0 10.261 15.646 18.042 34.89 18.042 19.243 0 34.823-7.763 34.823-18.042"/></g><g><path fill="none" stroke="#000" stroke-miterlimit="50" stroke-width=".5" d="M126.554 74.422c0 10.261 15.803 18 35.047 18 19.243 0 34.823-7.763 34.823-18.043"/></g><g><path fill="none" stroke="#000" stroke-miterlimit="50" stroke-width=".5" d="M4.205 221.84c0 46.328 70.673 81.392 157.39 81.392 86.717 0 156.496-33.254 156.496-79.582"/></g><g><path fill="none" stroke="#000" stroke-miterlimit="50" stroke-width=".5" d="M4.809 230.29c-5.433 7.847-3.676 20.928-1.811 25.956 14.264 38.373 82.093 66.399 158.754 66.399 76.66 0 142.546-23.27 156.339-61.57 1.81-5.052 9.054-16.902 0-31.992"/></g><g><path fill="none" stroke="#000" stroke-miterlimit="50" stroke-width=".5" d="M5.412 277.977C-.02 282.806.33 300.196 2.394 305.14c13.884 33.2 83.3 59.759 159.358 59.759 76.057 0 144.357-23.27 158.15-61.57 1.43-3.966 1.81-12.332 0-21.127-.495-2.415-1.503-3.356-2.415-5.433"/></g><g><path fill="none" stroke="#000" stroke-miterlimit="50" stroke-width=".5" d="M6.016 498.904c-4.225 6.64-4.28 22.135-2.414 27.163 14.263 38.373 80.886 68.21 157.546 68.21s144.357-28.099 158.15-66.4c1.811-5.051 1.811-15.693-2.414-25.351"/></g><g><path fill="none" stroke="#000" stroke-miterlimit="50" stroke-width=".5" d="M5.412 274.958c0 31.993 62.458 69.32 156.183 69.32s155.892-39.742 155.892-69.32"/></g><g><path fill="none" stroke="#000" stroke-miterlimit="50" stroke-width=".5" d="M5.412 489.85c0 49.147 69.194 80.922 155.58 80.922 86.384 0 156.495-33.236 156.495-76.094"/></g><g><path fill="none" stroke="#000" stroke-miterlimit="50" stroke-width=".5" d="M128.214 33.562c2.698 8.45 16.528 14.91 33.085 14.91 16.66 0 30.598-6.393 33.17-14.91"/></g><g><path fill="none" stroke="#000" stroke-miterlimit="50" stroke-width=".5" d="M128.764 46.262c0 10.027 15.03 17.39 32.704 17.39s33-7.394 33-16.834"/></g><g><path fill="none" stroke="#000" stroke-miterlimit="50" stroke-width=".5" d="M197.233 23.626l-2.765 9.936"/></g><g><path fill="none" stroke="#000" stroke-miterlimit="50" stroke-width=".5" d="M125.45 24.176l2.855 9.688"/></g><g><path fill="none" stroke="#000" stroke-miterlimit="50" stroke-width=".5" d="M194.468 47.367l.356-14.632"/></g><g><path fill="none" stroke="#000" stroke-miterlimit="50" stroke-width=".5" d="M128.764 46.818l-.345-12.507"/></g><g><path fill="none" stroke="#000" stroke-miterlimit="50" stroke-width=".5" d="M127.345 103.528c-11.469 44.59-123.14 58.806-123.14 118.915"/></g><g><path fill="none" stroke="#000" stroke-miterlimit="50" stroke-width=".5" d="M194.348 102.925C205.527 146.639 318.09 157.13 318.09 223.65"/></g><g><path fill="none" stroke="#000" stroke-miterlimit="50" stroke-width=".5" d="M196.394 50.97v24.007"/></g><g><path fill="none" stroke="#000" stroke-miterlimit="50" stroke-width=".5" d="M126.741 51.315l-.187 23.203"/></g><g><path fill="none" stroke="#000" stroke-miterlimit="50" stroke-width=".5" d="M317.487 262.584v13.28"/></g><g><path fill="none" stroke="#000" stroke-miterlimit="50" stroke-width=".5" d="M5.412 261.377v14.487"/></g><g><path fill="none" stroke="#000" stroke-miterlimit="50" stroke-width=".5" d="M317.457 309.063l.03 186.52"/></g><g><path fill="none" stroke="#000" stroke-miterlimit="50" stroke-width=".5" d="M5.382 310.874v179.277"/></g><g><path fill="none" stroke="#000" stroke-miterlimit="50" stroke-width=".5" d="M316.286 534.415v0l.205 23.083c-2.625 42.815-76.533 73.594-154.896 73.902-77.107.302-155.579-31.63-155.579-81.792v-18.29 0"/></g><g><path fill="none" stroke="#000" stroke-miterlimit="50" stroke-width=".5" d="M227.547 238.74c-4.225-11.468-28.37-48.29-30.181-56.136-.604-3.622-6.037-4.83-5.433 1.207.604 7.847 25.956 47.083 29.578 57.948a117.262 117.262 0 0 1 4.412 19.594 3.501 3.501 0 0 0 3.827 3.018h0a2.71 2.71 0 0 0 2.415-2.928c-.368-4.605-1.521-14.3-4.618-22.702z"/></g><g><path fill="none" stroke="#000" stroke-miterlimit="50" stroke-width=".5" d="M95.111 237.534c5.342-14.445 29.578-47.554 30.308-56.138.604-3.622 6.037-4.829 5.433 1.208-.736 9.513-25.087 44.155-29.704 57.948a116.881 116.881 0 0 0-4.425 19.593 3.52 3.52 0 0 1-3.845 3.019v0a2.716 2.716 0 0 1-2.45-2.928c.422-4.606 1.569-14.3 4.683-22.702z"/></g><g><path fill="none" stroke="#000" stroke-miterlimit="50" stroke-width=".5" d="M127.949 79.685v13.28"/></g><g><path fill="none" stroke="#000" stroke-miterlimit="50" stroke-width=".5" d="M193.744 81.496v10.865"/></g><g><path fill="none" stroke="#000" stroke-miterlimit="50" stroke-width=".5" d="M196.158 95.681c0 12.676-14.384 19.92-34.612 19.92-20.227 0-36.615-7.244-36.615-20.523"/></g><g><path fill="none" stroke="#000" stroke-miterlimit="50" stroke-width=".5" d="M193.744 92.06c0 10.002-13.883 17.505-31.992 17.505-17.505 0-33.803-6.9-33.803-16.902"/></g><g><path fill="none" stroke="#000" stroke-miterlimit="50" stroke-width=".5" d="M196.158 52.824c.604-1.811.604-6.036-1.46-7.135"/></g><g><path fill="none" stroke="#000" stroke-miterlimit="50" stroke-width=".5" d="M126.741 51.617c0-.604 0-4.226 1.992-5.717"/></g><g><path fill="none" stroke="#000" stroke-miterlimit="50" stroke-width=".5" d="M193.834 88.027a10.684 10.684 0 0 1 2.324 6.447c0 10.002-14.734 18.712-34.406 18.712-19.672 0-36.821-8.71-36.821-18.712 0-2.577 1.062-5.028 2.963-7.243"/></g><g><path fill="#1c989c" d="M196.74 50.031a3 3 0 1 1-1.854 5.706 3 3 0 0 1 1.855-5.706z"/></g><g><path fill="#1c989c" d="M128.138 7.859a3 3 0 1 1 5.032 3.268 3 3 0 0 1-5.032-3.268z"/></g><g><path fill="#1c989c" d="M35.055 172.72a3 3 0 1 1 4.663-3.777 3 3 0 0 1-4.663 3.776z"/></g><g><path fill="#1c989c" d="M294.15 174.859a3 3 0 1 1 1.35 5.846 3 3 0 0 1-1.35-5.846z"/></g></g></svg>