<svg xmlns="http://www.w3.org/2000/svg" width="11" height="14" viewBox="0 0 11 14"><g><g><path fill="#a4a4a4" d="M9.943 11.64a.522.522 0 0 1-.52.52h-7.45a.522.522 0 0 1-.52-.52V2.443c0-.288.233-.521.52-.521h1.564v-.495a.522.522 0 0 1 1.042 0V5.1a.522.522 0 0 1-1.042 0V2.964H2.495V5.1c0 .862.7 1.563 1.563 1.563.862 0 1.563-.7 1.563-1.563V1.922h3.801c.287 0 .521.233.521.52zM5.522.88A1.566 1.566 0 0 0 4.058-.138c-.67 0-1.242.423-1.464 1.016h-.62C1.11.88.41 1.581.41 2.443v9.197c0 .862.701 1.563 1.563 1.563h7.45c.861 0 1.562-.701 1.562-1.563V2.443c0-.862-.701-1.564-1.563-1.564z"/></g></g></svg>