<svg xmlns="http://www.w3.org/2000/svg" viewBox="0 0 36 36"><defs><style>.cls-1{fill:#00247d;}.cls-2{fill:#f0f0f0;}.cls-3{fill:#fff;}.cls-4{fill:#d32030;}.cls-5{fill:#e7e7e7;}.cls-6{fill:#cf142b;}</style></defs><title>United Kingdom_icon </title><g id="Layer_2" data-name="Layer 2"><g id="Layer_2-2" data-name="Layer 2"><path class="cls-1" d="M3.17,7.8A18.15,18.15,0,0,0,.59,13.41H8.78Z"/><path class="cls-1" d="M13,.72A17.85,17.85,0,0,0,7.27,3.55L13,9.23Z"/><path class="cls-1" d="M7.7,32.75A17.65,17.65,0,0,0,13,35.28V27.49Z"/><path class="cls-1" d="M.8,23.31a17.91,17.91,0,0,0,2.67,5.31l5.31-5.31Z"/><path class="cls-2" d="M3.47,7.38l-.3.42,5.61,5.61H.59c-.13.51-.24,1-.33,1.54H11Z"/><path class="cls-3" d="M7.28,32.46l.42.29L13,27.49v7.79c.5.15,1,.27,1.54.38V25.24Z"/><path class="cls-2" d="M.4,21.77a15.1,15.1,0,0,0,.4,1.54h8L3.47,28.62a19.27,19.27,0,0,0,1.91,2.22l9.07-9.07Z"/><path class="cls-2" d="M13,.72V9.23L7.27,3.55A18.22,18.22,0,0,0,5.08,5.48L14.5,14.9V.34C14,.45,13.46.57,13,.72Z"/><polygon class="cls-4" points="12.96 23.26 12.9 23.32 12.96 23.32 12.96 23.26"/><polygon class="cls-4" points="14.45 21.77 14.5 21.77 14.5 21.72 14.45 21.77"/><polygon class="cls-4" points="21.37 14.95 21.32 14.95 21.32 15 21.37 14.95"/><polygon class="cls-4" points="13.01 13.41 12.96 13.36 12.96 13.41 13.01 13.41"/><polygon class="cls-4" points="14.5 14.9 14.5 14.95 14.55 14.95 14.5 14.9"/><path class="cls-1" d="M22.86,31.29v4a17.9,17.9,0,0,0,5.34-2.5l-4.37-4.37A14,14,0,0,1,22.86,31.29Z"/><path class="cls-1" d="M23.85,8.24l4.77-4.77A18,18,0,0,0,22.86.67V4.82A16,16,0,0,1,23.85,8.24Z"/><path class="cls-1" d="M32.45,28.73a17.89,17.89,0,0,0,2.75-5.42H27Z"/><path class="cls-1" d="M35.41,13.41A18.08,18.08,0,0,0,32.76,7.7L27,13.41Z"/><path class="cls-5" d="M24.9,22.08l1.24,1.24,5.92,5.92c.13-.17.27-.34.39-.51L27,23.32H35.2a16,16,0,0,0,.4-1.55H25C25,22,24.92,21.86,24.9,22.08Z"/><path class="cls-5" d="M23.66,9.15,29,3.78l-.41-.31L23.85,8.24C23.9,8.43,23.62,9,23.66,9.15Z"/><path class="cls-2" d="M22.86,4.48V.67c-.5-.14-1-.26-1.54-.36V2.17A9.88,9.88,0,0,1,22.86,4.48Z"/><path class="cls-2" d="M24.78,15h11c-.09-.52-.2-1-.33-1.54H27L32.76,7.7a18.55,18.55,0,0,0-1.87-2.26l-6.44,6.44C24.62,13,24.7,13.72,24.78,15Z"/><path class="cls-5" d="M23.57,28.2l4.63,4.63a17.56,17.56,0,0,0,2.17-1.76L24.28,25C24.08,26.1,23.85,27.19,23.57,28.2Z"/><path class="cls-5" d="M21.32,33.62v2.07c.52-.1,1-.22,1.54-.36v-4A10.24,10.24,0,0,1,21.32,33.62Z"/><path class="cls-6" d="M24.45,11.88l6.44-6.44A17.23,17.23,0,0,0,29,3.78L24,8.84C24.2,9.78,24.3,10.85,24.45,11.88Z"/><path class="cls-4" d="M17.1,0,18,0Z"/><path class="cls-4" d="M18,36l-.9,0Z"/><path class="cls-4" d="M18,36a18.14,18.14,0,0,0,3.32-.31V33.62C20.38,34.64,19.27,36,18,36Z"/><path class="cls-6" d="M35.74,15H24.92a48.49,48.49,0,0,1-.05,6.82H35.6A18,18,0,0,0,35.74,15Z"/><path class="cls-6" d="M24.9,22.08c-.1,1.06-.45,1.89-.62,2.89l6.09,6.1a19.48,19.48,0,0,0,1.69-1.83l-5.92-5.93Z"/><path class="cls-6" d="M21.32,2.3v-2A18.14,18.14,0,0,0,18,0C19.27,0,20.38,1.28,21.32,2.3Z"/><path class="cls-1" d="M22.86,32.07a19.15,19.15,0,0,0,1.26-3.32l-1.26-1.26Z"/><path class="cls-1" d="M24.27,7.82a20.27,20.27,0,0,0-1.41-3.89v5.3Z"/><path class="cls-5" d="M25.25,22.43l.06-.66H24.6Z"/><path class="cls-2" d="M22.86,9.23V3.93a10.17,10.17,0,0,0-1.54-2.32v9.88l3.1-3.1-.15-.57Z"/><path class="cls-2" d="M21.37,15h4c-.08-1.23-.2-2.44-.38-3.61Z"/><path class="cls-5" d="M21.32,34.39a9.85,9.85,0,0,0,1.54-2.32V27.49l1.26,1.26a32.25,32.25,0,0,0,.72-3.21L21.32,22V34.39Z"/><path class="cls-6" d="M21.32,34.39V22l3.52,3.52c.17-1,.31-2.05.41-3.11l-.65-.66h.71A50.05,50.05,0,0,0,25.36,15h-4L25,11.34c-.15-1-.34-2-.56-2.95l-3.1,3.1V1.61A4.47,4.47,0,0,0,18,0l-.9,0a20.29,20.29,0,0,0-2.6.32V14.9L5.08,5.48a17.2,17.2,0,0,0-1.61,1.9l6,6L11,15H.26A18,18,0,0,0,.4,21.77H14.45L5.38,30.84a19.57,19.57,0,0,0,1.9,1.62l7.22-7.22V35.66a20.29,20.29,0,0,0,2.6.32l.9,0A4.47,4.47,0,0,0,21.32,34.39Z"/></g></g></svg>