<svg xmlns="http://www.w3.org/2000/svg" viewBox="0 0 381.8 440.3"><defs><style>.cls-1,.cls-2,.cls-3,.cls-5{fill:none;stroke-linejoin:round;}.cls-1{stroke:#333;}.cls-1,.cls-5{stroke-width:0.71px;}.cls-2,.cls-3,.cls-5{stroke:#000;}.cls-2,.cls-3{stroke-width:0.51px;}.cls-3,.cls-5{stroke-linecap:round;}.cls-4{font-size:10px;font-family:Helvetica;}</style></defs><title>instructions_2_1</title><g id="Layer_2" data-name="Layer 2"><g id="Layer_5" data-name="Layer 5"><g id="Layer_6" data-name="Layer 6"><polyline class="cls-1" points="118.36 439.72 96.62 439.72 8.09 439.72"/><line class="cls-2" x1="42.17" y1="89.75" x2="42.17" y2="434.75"/><line class="cls-3" x1="215.09" y1="85.57" x2="40.79" y2="85.57"/><line class="cls-3" x1="117.59" y1="0.25" x2="10.05" y2="0.25"/><text class="cls-4" transform="translate(40.59 271.37) rotate(-89.5)">1500</text><text class="cls-4" transform="translate(8.59 258.37) rotate(-89.5)">1861</text><polygon class="cls-3" points="11.02 1.98 9.23 5.08 12.81 5.08 11.02 1.98"/><polygon class="cls-3" points="42.16 86.74 40.23 90.08 44.09 90.08 42.16 86.74"/><polygon class="cls-3" points="42.11 438.25 43.98 435.01 40.23 435.01 42.11 438.25"/><polygon class="cls-3" points="11.11 438.25 12.98 435.01 9.23 435.01 11.11 438.25"/><line class="cls-2" x1="11.26" y1="5.75" x2="11.31" y2="434.75"/></g><path class="cls-5" d="M293.23,137.65h2.6m-2,35.7h1.4m-1.1,96.7h.8m-1.1-230h1.4m-1.1,96.7h.8M234.23,271h2.6m-2,35.7h1.4m57-35.7h2.6m-2,35.7h1.4m.6-35.7h56.5m-57.1,35.7h57.7m-57.1-169h56.5m-57.1,35.7h57.7m-58,96.7h58.3m-116.4.9h56.4m-57,35.7h57.6M177.73,271h56.5m-57.1,35.7h57.7M118.73,271h56.4m-57,35.7h57.6m83.4-169h34.1m-57,35.7h57.6m-57.9,96.7h58.2m-59.3-96.7h1.4m-1.1,96.7h.8m59.3-230h57.7m-58,96.7h58.3m-117-96.7h57.6m-34.7,96.7h35m-59.3-96.7h1.4M175.13,271h2.6m-2,35.7h1.4m.6-169h34.1m-34.7,35.7h57.7m-58,96.7h58.3m-58-230h57.7m-58,96.7h35m-93.1.9h56.4m-57,35.7h57.6m-57.9,96.7H176m-57.9-230h57.6m-57.9,96.7H176m-.9.9h2.6m-2,35.7h1.4m-1.1,96.7h.8m-1.1-230h1.4m-1.1,96.7h.8m-59.4,267.8h236.2m-236.2,0v4.7m0,0h236.2m0-4.7v4.7m-23.6,26h0v.1m23.5-.1h.1v.1M223.73,440h0m23.5,0h.1m-.1,0h-23.5m-106.3-4.6V440m23.6-4.6V440m212.6-4.6V440m-23.6-4.6V440m23.6-4.6H330m-212.6-26.1h0v.1m23.5-.1h.1v.1m189,4.7h23.6m0,0v21.2m-23.6,0h23.6M330,414.05v21.2m23.5-21.2h0V414h.1m-23.6.1h0V414m23.5,26h.1M330,440h23.6M330,440h0m23.5,0H330m-82.8-25.9h0V414h.1m-23.6.1h0V414m0,21.3h0v.1m23.5-.1h.1v.1M141,414v-4.6m0,0h-23.6m0,4.6v-4.6m236.1-.1h.1v.1m-23.6-.1h0v.1m-212.6,4.7v21.2m0-21.2H141m-23.6,21.2H141m0-21.2v21.2M353.63,414v-4.6M330,414v-4.6m0,4.6h23.6m0-4.6H330m-189.1,4.7h0V414h.1m-23.6,0H141m-23.6.1h0V414m106.3,0v-4.6m0,4.6h23.6m0,0v-4.6m-129.9,25.9h0v.1m23.6,0h-23.6m23.5-.1h.1v.1m-.1,4.6h.1m-23.6,0H141m-23.6,0h0m23.5,0h-23.5m129.9-4.6V440m0-4.6h-23.6m0,0V440m0,0h23.6m-23.6-30.7h0v.1m23.6,0h-23.6m23.5-.1h.1v.1m-23.6,4.7v21.2m0,0h23.6m0-21.2v21.2m-23.6-21.2h23.6m39.9-257.7h14.6m-7.7,23.3h.9m-.9-3.1h.9m-.9,56.5h.9m-.9-3.1h.9m-.9-130.2h.9m-.9-3.1h.9m-.9-50.3h.9m-.9-3.1h.9m-66.9,246.4h14.7M235,313h.9m-.9-3.1h.9m-.9,56.5h.9m-.9-3.1h.9m51.3-73.6h14.6m-7.7,23.3h.9m-.9-3.1h.9m-.9,56.5h.9m-.9-3.1h.9m6.8-73.6h44.5M295,313h58.1m-58.1-3.1h58.1M295,366.35h58.1m-58.1-3.1h58.1m-58.6,4.7h59.1m-51.8-211.6h44.5m-51.8,78.3h59.1m-58.6-55h58.1m-58.1-3.1h58.1M295,233.05h58.1M295,230h58.1m-110.3,59.7h44.4m-51.3,76.7h58.2m-58.2-3.1h58.2M235.93,313h58.2m-58.2-3.1h58.2M235.53,368h59m-110.8-78.3h44.4M176.93,313H235m-58.1-3.1H235m-58.1,56.5H235m-58.1-3.1H235m-58.6,4.7h59.1m-110.8-78.3h44.4M117.83,313h58.1m-58.1-3.1h58.1m-58.1,56.5h58.1m-58.1-3.1h58.1m-58.5,4.7h59m82.7-211.6h28.1m-51.7,78.3h59m-58.6-55h58.2m-58.2-3.1h58.2m-58.2,56.5h58.2m-58.2-3.1h58.2m-59.1,3.1h.9M235,230h.9m-.9-50.3h.9m-.9-3.1h.9M295,46.35h58.1M295,43.25h58.1M295,99.75h58.1M295,96.65h58.1m-58.6,4.7h59.1m-117.7-55h58.2m-58.2-3.1h58.2m-35,58.1h35.4m-35.4-1.6h35m-35-3.1h35M235,46.35h.9m-.9-3.1h.9m-66.8,246.4h14.6m-7.8,23.3h1m-1-3.1h1m-1,56.5h1m-1-3.1h1m6.8-206.9h28.1m-35.4,78.3h59.1m-58.6-55H235m-58.1-3.1H235m-58.1,56.5H235m-58.1-3.1H235m-58.6-128.6h35.4m-34.9-1.6h34.9m-34.9-3.1h34.9m-34.9-50.3H235m-58.1-3.1H235m-110.3,113.1h44.4m-51.7,78.3h59m-58.6-1.6h58.1m-58.1-3.1h58.1m-58.1-50.3h58.1m-58.1-3.1h58.1m-58.5-75.2h59m-58.6-55h58.1m-58.1-3.1h58.1m-58.1,56.5h58.1m-58.1-3.1h58.1m-6.8,59.7h14.6m-7.8,76.7h1m-1-3.1h1m-1-50.3h1m-1-3.1h1m-1-130.2h1m-1-3.1h1m-1,56.5h1m-1-3.1h1m34.9-11h47.3m-47.3,70.9V85.65m47.3,0v70.9m0,0h-47.3M381.34,109h.1M116.73,369.15h.1m-.1,34.9v-34.9m.1,34.9h-.1m0,0v.3l.1.1h.1v.1h.2m237.1-35.4h.1m0,0v34.9m-.5.5h.2l.1-.1h.1v-.1l.1-.1v-.2m0,0h-.1m0-34.9h-14.4m14.4,34.9v-34.9m-.4,35.4h.1l.1-.1h.1v-.3l.1-.1m-14.4,0h14.4m-.4.5h-.2m-222.5-35.4h-14.3m0,0v34.9m0,0v.3l.1.1.1.1h.1m.3,0h-.3m-.3-.5h14.3m208.4-34.9H131.43m-.3,34.9v.2l.1.1v.1h.1v.1h.1m208.1-35.4h.3m-.3,34.9v-34.9m.3,0v34.9m-.3.5h.1l.1-.1.1-.1v-.3m0,0h-.3m-208.4-34.9h.3m-.3,34.9v-34.9m.3,34.9h-.3m.3-34.9v34.9m208.1.5h0v-.5m-208.1,0h208.1m-208.1,0v.5M354.33,1V.75l-.1-.1-.1-.1H354l-.1-.1h-.1m.5,35.5h-.1m.1-35V36m-.1-35h.1M116.83,36h-.1m0,0V1m.4-.5H117l-.1.1-.1.1h-.1V1m0,0h.1m.3-.5h0l-.1.1h-.1v.1h-.1V1m.3-.5h14.3M116.83,36h14.3m0-35h-14.3m0,0V36M354.23,1l-.1-.1V.65l-.1-.1h-.1V.45h-.1m-14.3,0h14.3m-14,35.5h14.4m0,0V1m0,0h-14.4m0,35h-.3m.3-35V36M131.43.45h0l-.1.1-.1.1-.1.1V1m.3,35h-.3m0-35h.3m-.3,35V1m208.4,0h.3m0,0V.65h-.1V.55h-.1V.45h-.1M131.43,36h208.1m0,0V1M131.43,1V36m0-35.5h0V1m208.1,0H131.43m208.1,0V.45m-208.1,0h208.1m-45.9,270.1h1.8m-1.8-133.3h1.8m.4,133.7.2,2,.3,1.9.4,2,.5,1.9.5,1.9.7,1.9.7,1.8.8,1.8,1,1.8.9,1.7m44.5,0,1-1.7.9-1.8.8-1.8.7-1.8.7-1.9.6-1.9.4-1.9.4-2,.3-1.9.2-2m0,0v-.4m-56.5,0v.4m6,18.7-1,1.5-.9,1.6-.8,1.6-.8,1.7-.7,1.7-.7,1.7-.5,1.8-.5,1.8-.4,1.7-.3,1.9m57.7,0-.3-1.9-.4-1.7-.5-1.8-.5-1.8-.7-1.7-.7-1.7-.8-1.7-.8-1.6-.9-1.6-1-1.5m6.8,73.6V313M295,313v50.3m58.1-53.4v-1.2l-.1-.4v-.8l-.1-.4v-.4m-57.7,0v.4l-.1.4v.8l-.1.4v1.2m58.1,58.1v-1.6m-58.1,0V368m58.1-55,.2-.3.2-.4.1-.4v-.8l-.1-.4-.2-.4-.2-.4m-58.1,0-.2.4-.2.4v.4l-.1.4.1.4v.4l.2.4.2.3m58.1,53.4.2-.4.2-.4.1-.4v-.8l-.1-.4-.2-.4-.2-.3m-58.1,0-.2.3-.2.4v.4l-.1.4.1.4v.4l.2.4.2.4m58.6,2.8V368m-59.1,0v1.2m1.3-231.5.2,2,.3,1.9.4,2,.5,1.9.5,1.9.7,1.9.7,1.8.8,1.8,1,1.8.9,1.7m44.5,0,1-1.7.9-1.8.8-1.8.7-1.8.7-1.9.6-1.9.4-1.9.4-2,.3-1.9.2-2m0,0v-.4m-56.5,0v.4m6,18.7-1,1.5-.9,1.6-.8,1.6-.8,1.7-.7,1.7-.7,1.7-.5,1.8-.5,1.8-.4,1.8-.3,1.8m57.7,0-.3-1.8-.4-1.8-.5-1.8-.5-1.8-.7-1.7-.7-1.7-.8-1.7-.8-1.6-.9-1.6-1-1.5m6.8,73.6v-50.3m-58.1,0V230m58.1,4.7v-1.6m-58.1,0v1.6m58.1-58.1v-1.2l-.1-.4v-.8l-.1-.4v-.4m-57.7,0v.4l-.1.4v.8l-.1.4v1.2m.4,94h57.3m0,0h.2l.1-.1.1-.1v-.1l.1-.1v-.1m-58.3,0v.1l.1.1v.1l.1.1h.1v.1h.2m57.8-.5.4-35.4m-59.1,0,.4,35.4m58.2-90.4.2-.3.2-.4.1-.4v-.8l-.1-.4-.2-.4-.2-.4m-58.1,0-.2.4-.2.4v.4l-.1.4.1.4v.4l.2.4.2.3m58.1,53.4.2-.4.2-.3.1-.5v-.8l-.1-.4-.2-.4-.2-.3M295,230l-.2.3-.2.4v.4l-.1.4.1.4v.5l.2.3.2.4M236.83,271l.2,2,.3,1.9.3,2,.5,1.9.6,1.9.6,1.9.8,1.8.8,1.8.9,1.8,1,1.7m44.4,0,1-1.7.9-1.8.8-1.8.8-1.8.6-1.9.6-1.9.5-1.9.3-2,.3-1.9.2-2m0,0v-.4m-56.4,0v.4m6,18.7-1,1.5-.9,1.6-.9,1.6-.8,1.7-.7,1.7-.6,1.7-.6,1.8-.4,1.8-.4,1.7-.3,1.9m57.6,0-.3-1.9-.4-1.7-.4-1.8-.6-1.8-.6-1.7-.7-1.7-.8-1.7-.9-1.6-.9-1.6-1-1.5m6.9,20.2-.1-.4v-1.6l-.1-.4v-.4l-.1-.4m-57.6,0-.1.4v.4l-.1.4v1.2l-.1.4v.4m58.2,53.4V313m-58.2,0v50.3m58.2,4.7v-1.6m-58.2,0V368m58.2-1.6.2-.4.1-.4.1-.4v-.8l-.1-.4-.1-.4-.2-.3m-58.2,0-.2.3-.1.4-.1.4v.8l.1.4.1.4.2.4m58.2-53.4.2-.3.1-.4.1-.4v-.8l-.1-.4-.1-.4-.2-.4m-58.2,0-.2.4-.1.4-.1.4v.8l.1.4.1.4.2.3m58.6,56.2V368m-116.8-97,.2,2,.3,1.9.4,2,.4,1.9.6,1.9.7,1.9.7,1.8.8,1.8.9,1.8,1,1.7m44.4,0,1-1.7,1-1.8.8-1.8.7-1.8.7-1.9.5-1.9.5-1.9.4-2,.3-1.9.2-2m0,0v-.4m-56.5,0v.4m6,18.7-1,1.5-.9,1.6-.8,1.6-.8,1.7-.7,1.7-.7,1.7-.5,1.8-.5,1.8-.4,1.7-.3,1.9m57.7,0-.3-1.9-.4-1.7-.5-1.8-.6-1.8-.6-1.7-.7-1.7-.8-1.7-.8-1.6-1-1.6-1-1.5m6.9,20.2v-1.2l-.1-.4v-.8l-.1-.4v-.4m-57.7,0v.4l-.1.4v.4l-.1.4v1.6m58.1,53.4V313m-58.1,0v50.3M235,368v-1.6m-58.1,0V368M235,313l.2-.3.1-.4.1-.4.1-.4-.1-.4-.1-.4-.1-.4-.2-.4m-58.1,0-.2.4-.2.4-.1.4v.8l.1.4.2.4.2.3m58.1,53.4.2-.4.1-.4.1-.4.1-.4-.1-.4-.1-.4-.1-.4-.2-.3m-58.1,0-.2.3-.2.4-.1.4v.8l.1.4.2.4.2.4m58.6,2.8v0M118.73,271l.2,2,.2,1.9.4,2,.5,1.9.5,1.9.7,1.9.7,1.8.9,1.8.9,1.8,1,1.7m44.4,0,1-1.7.9-1.8.8-1.8.8-1.8.6-1.9.6-1.9.5-1.9.3-2,.3-1.9.2-2m0,0v-.4m-56.4,0v.4m6,18.7-1,1.5-.9,1.6-.9,1.6-.8,1.7-.7,1.7-.6,1.7-.6,1.8-.4,1.8-.4,1.7-.3,1.9m57.6,0-.3-1.9-.4-1.7-.5-1.8-.5-1.8-.6-1.7-.7-1.7-.8-1.7-.9-1.6-.9-1.6-1-1.5m6.8,78.3v-1.6m-58.1,0V368m58.1-58.1v-2l-.1-.4v-.4l-.1-.4m-57.6,0-.1.4v.4l-.1.4v.8l-.1.4v.8m58.1,53.4V313m-58.1,0v50.3m58.1-50.3.2-.3.2-.4.1-.4v-.8l-.1-.4-.2-.4-.2-.4m-58.1,0-.2.4-.1.4-.1.4v.8l.1.4.1.4.2.3m58.1,53.4.2-.4.2-.4.1-.4v-.8l-.1-.4-.2-.4-.2-.3m-58.1,0-.2.3-.1.4-.1.4v.8l.1.4.1.4.2.4m58.6,2.8v0m-59-1.2v1.2m169.8-212.8,1-1.7.9-1.8.8-1.8.8-1.8.6-1.9.6-1.9.5-1.9.3-2,.3-1.9.2-2m0,0v-.4m-50.5,19.3-.9,1.3-.9,1.6-.9,1.6-.8,1.7-.7,1.7-.6,1.7-.6,1.8-.4,1.8-.4,1.8-.3,1.8m57.6,0-.3-1.8-.4-1.8-.4-1.8-.6-1.8-.6-1.7-.7-1.7-.8-1.7-.9-1.6-.9-1.6-1-1.5m6.9,20.2-.1-.4v-1.6l-.1-.4v-.4l-.1-.4m-57.6,0-.1.4v.4l-.1.4v1.2l-.1.4v.4m58.2,58.1v-1.6m-58.2,0v1.6m58.2-4.7v-50.3m-58.2,0V230m.5,40.6h57.2m0,0h.2l.1-.1h.1v-.1l.1-.1v-.2m-58.2,0v.2l.1.1v.1h.1l.1.1h.2m57.7-.5.4-35.4m-59,0,.4,35.4m58.2-90.4.2-.3.1-.4.1-.4v-.8l-.1-.4-.1-.4-.2-.4m-58.2,0-.2.4-.1.4-.1.4v.8l.1.4.1.4.2.3m58.2,53.4.2-.4.1-.3.1-.5v-.8l-.1-.4-.1-.4-.2-.3m-58.2,0-.2.3-.1.4-.1.4v.8l.1.5.1.3.2.4m-1.3,37.5h1.8M296.13,36l-.2.5-.4,1.8-.3,1.8m57.7,0-.3-1.8-.4-1.8-.1-.5m1,7.3v-1.2l-.1-.4v-.8l-.1-.4v-.4m-57.7,0v.4l-.1.4v.8l-.1.4v1.2m58.1,53.4V46.35m-58.1,0v50.3m58.1,4.7v-1.6m-58.1,0v1.6m.4,35.9h57.3m0,0h.2l.1-.1.1-.1V137l.1-.1v-.1m-58.3,0v.1l.1.1v.1l.1.1h.1v.1h.2m57.7-90.9.2-.3.2-.4.1-.4v-.8l-.1-.4-.2-.4-.2-.4m-58.1,0-.2.4-.2.4v.4l-.1.4.1.4v.4l.2.4.2.3m58.1,53.4.2-.4.2-.3.1-.5v-.8l-.1-.4-.2-.4-.2-.3m-58.1,0-.2.3-.2.4v.4l-.1.4.1.4v.5l.2.3.2.4m58.2,37,.4-35.4m-59.1,0,.4,35.4M237,36l-.1.5-.4,1.8-.3,1.8m57.6,0-.3-1.8-.4-1.8L293,36m1.1,60.7V46.35m-58.2,0v39.3m58.2-42.4-.1-.4v-1.6l-.1-.4v-.4l-.1-.4m-57.6,0-.1.4v.4l-.1.4v1.2l-.1.4v.4m58.2,58.1v-1.6m-35,37.5h34.5m0,0h.2l.1-.1h.1v-.1l.1-.1v-.2m0-90.4.2-.3.1-.4.1-.4v-.8l-.1-.4-.1-.4-.2-.4m-58.2,0-.2.4-.1.4-.1.4v.8l.1.4.1.4.2.3m58.2,90.4.4-35.4m-.4-1.6.2-.4.1-.3.1-.5v-.8l-.1-.4-.1-.4-.2-.3m-116.4,41,.2,2,.3,1.9.4,2,.4,1.9.6,1.9.7,1.9.7,1.8.8,1.8.9,1.8,1,1.7m-6-19.1v.4m6,18.7-1,1.5-.9,1.6-.8,1.6-.8,1.7-.7,1.7-.7,1.7-.5,1.8-.5,1.8-.4,1.8-.3,1.8m57.7,0-.3-1.8-.4-1.8-.5-1.8-.6-1.8-.6-1.7-.7-1.7-.8-1.7-.8-1.6-1-1.6-.8-1.3m6.7,20v-1.2l-.1-.4v-.8l-.1-.4v-.4m-57.7,0v.4l-.1.4v.4l-.1.4v1.6M235,230v-50.3m-58.1,0V230m58.1,4.7v-1.6m-58.1,0v1.6m.4,35.9h57.3m0,0h.2v-.1h.1l.1-.1v-.2l.1-.1m-58.3,0v.1l.1.1v.1l.1.1.1.1h.2m57.8-.5.4-35.4m-59.1,0,.4,35.4m58.2-90.4.2-.3.1-.4.1-.4.1-.4-.1-.4-.1-.4-.1-.4-.2-.4m-58.1,0-.2.4-.2.4-.1.4v.8l.1.4.2.4.2.3m58.1,53.4.2-.4.1-.3.1-.5.1-.4-.1-.4-.1-.4-.1-.4-.2-.3m-58.1,0-.2.3-.2.4-.1.4v.8l.1.5.2.3.2.4m1-197.1-.1.5-.4,1.8-.3,1.8m57.7,0-.3-1.8-.4-1.8-.2-.5m1.1,49.7V46.35m-58.1,0v50.3M235,43.25v-1.2l-.1-.4v-.8l-.1-.4v-.4m-57.7,0v.4l-.1.4v.4l-.1.4v1.6m0,56.5v1.6m.4,35.9h34.5m-35-.5v.1l.1.1v.1l.1.1.1.1h.2m-.9-35.9.4,35.4m.1-40.1-.2.3-.2.4-.1.4v.8l.1.5.2.3.2.4M235,46.35l.2-.3.1-.4.1-.4.1-.4-.1-.4-.1-.4-.1-.4-.2-.4m-58.1,0-.2.4-.2.4-.1.4v.8l.1.4.2.4.2.3m-58.2,91.3.2,2,.2,1.9.4,2,.5,1.9.5,1.9.7,1.9.7,1.8.9,1.8.9,1.8,1,1.7m44.4,0,1-1.7.9-1.8.8-1.8.8-1.8.6-1.9.6-1.9.5-1.9.3-2,.3-1.9.2-2m0,0v-.4m-56.4,0v.4m6,18.7-1,1.5-.9,1.6-.9,1.6-.8,1.7-.7,1.7-.6,1.7-.6,1.8-.4,1.8-.4,1.8-.3,1.8m57.6,0-.3-1.8-.4-1.8-.5-1.8-.5-1.8-.6-1.7-.7-1.7-.8-1.7-.9-1.6-.9-1.6-1-1.5m6.8,73.6v-50.3m-58.1,0V230m58.1,4.7v-1.6m-58.1,0v1.6m58.1-58.1v-2l-.1-.4v-.4l-.1-.4m-57.6,0-.1.4v.4l-.1.4v.8l-.1.4v.8m.4,94h57.3m0,0h.2l.1-.1h.1v-.1l.1-.1v-.2m-58.2,0v.2l.1.1v.1h.1l.1.1h.1m57.8-.5.4-35.4m-59,0,.4,35.4m58.1-37,.2-.4.2-.3.1-.5v-.8l-.1-.4-.2-.4-.2-.3m-58.1,0-.2.3-.1.4-.1.4v.8l.1.5.1.3.2.4m58.1-53.4.2-.3.2-.4.1-.4v-.8l-.1-.4-.2-.4-.2-.4m-58.1,0-.2.4-.1.4-.1.4v.8l.1.4.1.4.2.3M118.93,36l-.1.5-.4,1.8-.3,1.8m57.6,0-.3-1.8-.4-1.8-.1-.5m1,65.4v-1.6m-58.1,0v1.6m58.1-4.7V46.35m-58.1,0v50.3m58.1-53.4v-2l-.1-.4v-.4l-.1-.4m-57.6,0-.1.4v.4l-.1.4v.8l-.1.4v.8m.4,94h57.3m0,0h.2l.1-.1h.1v-.1l.1-.1v-.2m-58.2,0v.2l.1.1v.1h.1l.1.1h.1m57.8-.5.4-35.4m-59,0,.4,35.4m58.1-90.4.2-.3.2-.4.1-.4v-.8l-.1-.4-.2-.4-.2-.4m-58.1,0-.2.4-.1.4-.1.4v.8l.1.4.1.4.2.3m58.1,53.4.2-.4.2-.3.1-.5v-.8l-.1-.4-.2-.4-.2-.3m-58.1,0-.2.3-.1.4-.1.4v.8l.1.5.1.3.2.4m57.7,170.8h1.8m-1.8-133.3h1.8"/></g></g></svg>