<svg xmlns="http://www.w3.org/2000/svg" viewBox="0 0 278.45 517.98"><defs><style>.cls-1,.cls-2,.cls-3,.cls-4{fill:none;stroke-linecap:round;stroke-linejoin:round;}.cls-1{stroke:silver;}.cls-1,.cls-3,.cls-4{stroke-width:0.51px;}.cls-2,.cls-3,.cls-4{stroke:#000;}.cls-2{stroke-width:0.71px;}.cls-3,.cls-4{stroke-dasharray:3.6 1.8;}.cls-4{stroke-dashoffset:1.41px;}</style></defs><title>Instructions_3</title><g id="Layer_2" data-name="Layer 2"><g id="Layer_4" data-name="Layer 4"><path d="M.25,429.51a.25.25,0,0,1-.25-.26V.25A.25.25,0,0,1,.25,0,.25.25,0,0,1,.51.25v429A.25.25,0,0,1,.25,429.51Z"/><path d="M66.93,216.39a.26.26,0,0,1-.26-.25V1.25A.26.26,0,0,1,66.93,1a.25.25,0,0,1,.25.25V216.14A.25.25,0,0,1,66.93,216.39Z"/><path d="M278.19,444.51a.25.25,0,0,1-.25-.26V1.25a.25.25,0,0,1,.25-.25.26.26,0,0,1,.26.25v443A.26.26,0,0,1,278.19,444.51Z"/><path d="M221.1,237.11a.26.26,0,0,1-.26-.26V1.23A.26.26,0,0,1,221.1,1a.25.25,0,0,1,.25.26V236.85A.26.26,0,0,1,221.1,237.11Z"/><path d="M152.08,517a.25.25,0,0,1-.22-.13.26.26,0,0,1,.09-.35L278,444a.25.25,0,0,1,.35.1.26.26,0,0,1-.1.35L152.2,517Z"/><path d="M152.08,517a.28.28,0,0,1-.13,0L.45,429.58a.25.25,0,0,1-.09-.34.24.24,0,0,1,.34-.1l151.5,87.39a.25.25,0,0,1,.1.35A.26.26,0,0,1,152.08,517Z"/><path d="M243.45,7.72a1.23,1.23,0,0,0,.7,1,1.81,1.81,0,0,0,.72.14A1.34,1.34,0,0,0,246,8.4a1.77,1.77,0,0,0,.38-1.1A1.43,1.43,0,0,0,246,6.17a1.55,1.55,0,0,0-1.07-.4,1.67,1.67,0,0,0-.78.17,1.74,1.74,0,0,0-.56.49l-.76,0,.53-3.77H247v.85h-3l-.29,1.95a1.77,1.77,0,0,1,.46-.28,2.5,2.5,0,0,1,2.53.46,2,2,0,0,1,.67,1.57,2.7,2.7,0,0,1-.61,1.75,2.39,2.39,0,0,1-2,.75,2.49,2.49,0,0,1-1.51-.48,1.91,1.91,0,0,1-.73-1.47Z"/><path d="M252.45,3.62A5.07,5.07,0,0,1,252.91,6a5.76,5.76,0,0,1-.42,2.36,2.08,2.08,0,0,1-2,1.34,2,2,0,0,1-1.88-1.1,5,5,0,0,1-.51-2.45,5.92,5.92,0,0,1,.31-2,2.22,2.22,0,0,1,4-.48Zm-.89,4.66A4.34,4.34,0,0,0,252,6a5.42,5.42,0,0,0-.3-2,1.1,1.1,0,0,0-1.14-.77A1.19,1.19,0,0,0,249.4,4,5,5,0,0,0,249,6.18a5.14,5.14,0,0,0,.23,1.72,1.25,1.25,0,0,0,2.29.38Z"/><path d="M258,3.62A5.06,5.06,0,0,1,258.48,6a5.75,5.75,0,0,1-.43,2.36,2.08,2.08,0,0,1-2,1.34,2,2,0,0,1-1.88-1.1,5,5,0,0,1-.51-2.45,5.92,5.92,0,0,1,.31-2,2.22,2.22,0,0,1,4-.48Zm-.89,4.66A4.34,4.34,0,0,0,257.53,6a5.67,5.67,0,0,0-.29-2,1.12,1.12,0,0,0-1.14-.77A1.19,1.19,0,0,0,255,4a5,5,0,0,0-.36,2.15,5.41,5.41,0,0,0,.23,1.72,1.25,1.25,0,0,0,2.29.38Z"/><path d="M208.82,475l-.35-.58a3.46,3.46,0,0,0,1-.95,1.53,1.53,0,0,0,0-1.17l.59-.35,3.55,6-.81.48-2.52-4.26Z"/><path d="M216.33,469.44a5.06,5.06,0,0,1,1.6,1.8,5.55,5.55,0,0,1,.84,2.25,2.08,2.08,0,0,1-1.05,2.17,2,2,0,0,1-2.17,0,4.93,4.93,0,0,1-1.69-1.84,6.46,6.46,0,0,1-.78-1.92,2.1,2.1,0,0,1,1-2.43A2.06,2.06,0,0,1,216.33,469.44Zm1.61,4.46a4.46,4.46,0,0,0-.8-2.15,5.89,5.89,0,0,0-1.25-1.54,1.13,1.13,0,0,0-1.38-.08,1.19,1.19,0,0,0-.6,1.21,5,5,0,0,0,.78,2,5.06,5.06,0,0,0,1.08,1.36,1.26,1.26,0,0,0,1.54.25A1.29,1.29,0,0,0,217.94,473.9Z"/><path d="M221.11,466.61a4.91,4.91,0,0,1,1.61,1.8,5.67,5.67,0,0,1,.84,2.24,2.09,2.09,0,0,1-1.05,2.18,2,2,0,0,1-2.17,0,4.89,4.89,0,0,1-1.69-1.85,5.84,5.84,0,0,1-.78-1.91,2.12,2.12,0,0,1,1-2.44A2.06,2.06,0,0,1,221.11,466.61Zm1.61,4.46a4.36,4.36,0,0,0-.8-2.15,5.52,5.52,0,0,0-1.25-1.54,1.11,1.11,0,0,0-1.37-.08,1.18,1.18,0,0,0-.61,1.21,5,5,0,0,0,.79,2,5.22,5.22,0,0,0,1.07,1.36,1.25,1.25,0,0,0,1.54.24A1.24,1.24,0,0,0,222.72,471.07Z"/><path d="M225.9,463.77a5.08,5.08,0,0,1,1.61,1.8,5.72,5.72,0,0,1,.83,2.25,2.09,2.09,0,0,1-1.05,2.18,2,2,0,0,1-2.17,0,5.05,5.05,0,0,1-1.69-1.85,6,6,0,0,1-.77-1.92,2.21,2.21,0,0,1,3.24-2.47Zm1.61,4.46a4.39,4.39,0,0,0-.8-2.15,5.64,5.64,0,0,0-1.25-1.53,1.11,1.11,0,0,0-1.37-.08,1.18,1.18,0,0,0-.61,1.2,5.07,5.07,0,0,0,.78,2,5.45,5.45,0,0,0,1.08,1.36,1.25,1.25,0,0,0,2.17-.84Z"/><path d="M64.9,456.15l.35-.58a3.57,3.57,0,0,0,1.29.43,1.57,1.57,0,0,0,1-.59l.59.36-3.61,6-.8-.48L66.31,457Z"/><path d="M67.67,461.78a3.07,3.07,0,0,1,1.72-.38l1.08,0a3.92,3.92,0,0,0,1.08-.08,1.25,1.25,0,0,0,.82-.58,1.28,1.28,0,0,0,.19-1,1.35,1.35,0,0,0-.65-.82,1.27,1.27,0,0,0-1.42-.06,2.43,2.43,0,0,0-.7.77l-.77-.47a3.17,3.17,0,0,1,1.06-1.09,2.09,2.09,0,0,1,2.25.17,2.2,2.2,0,0,1,1.17,1.47,2.15,2.15,0,0,1-.28,1.52,1.92,1.92,0,0,1-1.25.92,5.51,5.51,0,0,1-1.48.08l-.76,0a3.63,3.63,0,0,0-.91,0,1.81,1.81,0,0,0-1,.48l3.26,2-.43.71-4.1-2.49A4.13,4.13,0,0,1,67.67,461.78Z"/><path d="M78.06,463.05a5,5,0,0,1-.82,2.27,6,6,0,0,1-1.59,1.8,2.08,2.08,0,0,1-2.41.1,2,2,0,0,1-1-1.91A5,5,0,0,1,73,463a6,6,0,0,1,1.33-1.59,2.09,2.09,0,0,1,2.6-.28A2.05,2.05,0,0,1,78.06,463.05Zm-3.17,3.53a4.43,4.43,0,0,0,1.52-1.72,5.41,5.41,0,0,0,.76-1.83,1.11,1.11,0,0,0-.57-1.25,1.17,1.17,0,0,0-1.35,0,5.08,5.08,0,0,0-1.43,1.65,5.16,5.16,0,0,0-.69,1.59,1.26,1.26,0,0,0,.52,1.47A1.27,1.27,0,0,0,74.89,466.58Z"/><path d="M82.82,465.93A5,5,0,0,1,82,468.2a5.71,5.71,0,0,1-1.58,1.8,2.09,2.09,0,0,1-2.42.1,2,2,0,0,1-1-1.91,5,5,0,0,1,.83-2.36,6,6,0,0,1,1.32-1.59,2.11,2.11,0,0,1,2.61-.28A2.08,2.08,0,0,1,82.82,465.93Zm-3.17,3.53a4.43,4.43,0,0,0,1.51-1.72,5.46,5.46,0,0,0,.77-1.83,1.11,1.11,0,0,0-.58-1.25,1.19,1.19,0,0,0-1.35,0,5.07,5.07,0,0,0-1.42,1.65,5.16,5.16,0,0,0-.69,1.59,1.24,1.24,0,0,0,.51,1.47A1.26,1.26,0,0,0,79.65,469.46Z"/><path d="M29.65,3.08a2.06,2.06,0,0,1,.46,1.26h-.87A1.58,1.58,0,0,0,29,3.69a1.12,1.12,0,0,0-1-.44,1.34,1.34,0,0,0-1.17.68,3.87,3.87,0,0,0-.48,1.95,1.79,1.79,0,0,1,.76-.66,2.2,2.2,0,0,1,.94-.2,2.31,2.31,0,0,1,1.53.56,2.09,2.09,0,0,1,.66,1.68,2.55,2.55,0,0,1-.62,1.68,2.21,2.21,0,0,1-1.77.74,2.27,2.27,0,0,1-1.7-.75,3.57,3.57,0,0,1-.71-2.5,6.85,6.85,0,0,1,.32-2.22A2.25,2.25,0,0,1,28,2.48,1.94,1.94,0,0,1,29.65,3.08ZM29,8.43a1.81,1.81,0,0,0,.35-1.1,1.9,1.9,0,0,0-.31-1,1.22,1.22,0,0,0-1.12-.49,1.44,1.44,0,0,0-1,.38,1.41,1.41,0,0,0-.43,1.13,1.68,1.68,0,0,0,.39,1.12A1.35,1.35,0,0,0,28,8.9,1.2,1.2,0,0,0,29,8.43Z"/><path d="M35.32,3.62A4.94,4.94,0,0,1,35.79,6a5.76,5.76,0,0,1-.42,2.36,2.08,2.08,0,0,1-2,1.34,2,2,0,0,1-1.88-1.1A5,5,0,0,1,31,6.14a5.92,5.92,0,0,1,.31-2,2.09,2.09,0,0,1,2.08-1.59A2.06,2.06,0,0,1,35.32,3.62Zm-.88,4.66A4.34,4.34,0,0,0,34.85,6a5.42,5.42,0,0,0-.3-2,1.1,1.1,0,0,0-1.14-.77A1.19,1.19,0,0,0,32.27,4a5.17,5.17,0,0,0-.35,2.15,5.14,5.14,0,0,0,.23,1.72,1.25,1.25,0,0,0,2.29.38Z"/><path d="M40.89,3.62A5.07,5.07,0,0,1,41.35,6a5.76,5.76,0,0,1-.42,2.36,2.08,2.08,0,0,1-2,1.34A2,2,0,0,1,37,8.59a5,5,0,0,1-.51-2.45,5.92,5.92,0,0,1,.31-2,2.22,2.22,0,0,1,4-.48ZM40,8.28A4.34,4.34,0,0,0,40.41,6a5.42,5.42,0,0,0-.3-2A1.1,1.1,0,0,0,39,3.3,1.19,1.19,0,0,0,37.84,4a5,5,0,0,0-.36,2.15,5.14,5.14,0,0,0,.23,1.72A1.25,1.25,0,0,0,40,8.28Z"/><path d="M152,517a.25.25,0,0,1-.25-.26v-58a.26.26,0,0,1,.25-.26.26.26,0,0,1,.26.26v58A.26.26,0,0,1,152,517Z"/><path d="M61.08,15.59a.33.33,0,0,1-.14,0,.27.27,0,0,1-.12-.22V11.75a.26.26,0,0,1,.12-.21.25.25,0,0,1,.25,0l3.5,1.79a.24.24,0,0,1,.14.22.24.24,0,0,1-.14.23l-3.5,1.79A.2.2,0,0,1,61.08,15.59Zm.25-3.42v2.75L64,13.54Z"/><path d="M5.79,15.59l-.12,0-3.5-1.79A.26.26,0,0,1,2,13.54a.26.26,0,0,1,.14-.22l3.5-1.79a.25.25,0,0,1,.25,0,.24.24,0,0,1,.12.21v3.58a.25.25,0,0,1-.12.22A.33.33,0,0,1,5.79,15.59ZM2.85,13.54l2.68,1.38V12.17Z"/><rect x="5.79" y="13.29" width="55.4" height="0.51"/><path d="M274.48,15.59a.2.2,0,0,1-.11,0,.25.25,0,0,1-.14-.23V11.75a.24.24,0,0,1,.14-.22.27.27,0,0,1,.26,0l2.59,1.79a.26.26,0,0,1,.11.21.24.24,0,0,1-.11.21l-2.59,1.79A.25.25,0,0,1,274.48,15.59Zm.26-3.35v2.61l1.89-1.31Z"/><path d="M225.17,15.59a.3.3,0,0,1-.15-.05l-2.59-1.79a.24.24,0,0,1-.11-.21.26.26,0,0,1,.11-.21L225,11.54a.29.29,0,0,1,.27,0,.25.25,0,0,1,.13.22v3.58a.25.25,0,0,1-.25.26ZM223,13.54l1.88,1.31V12.24Z"/><rect x="225.36" y="13.29" width="49.38" height="0.51"/><path d="M152.18,517.94a.28.28,0,0,1-.12,0,.25.25,0,0,1-.22-.13.26.26,0,0,1,.09-.35"/></g><g id="Layer_5" data-name="Layer 5"><path class="cls-1" d="M214.86,204.91v-4.52m-138.5-2.71v-7"/><path class="cls-2" d="M248.85,384.42l16.35,9.42m0-2.79L251.34,383m11.38-6.55,2.48,1.43m0-2.86h0m-72.94,42.12,16.35,9.42m0-2.79-13.94-8.06m11.45-6.56,2.49,1.43m0-2.86h-.08M84,417.12l52.82,30.52M16,377.86l52.82,30.52m70.54,24.72.22.15m-12.81-7.46.23.15m-12.89-7.39.3.15m-12.88-7.46.22.15M88.94,404l.23.07M76.28,396.7l.3.15M63.7,389.39l.22.15m-12.81-7.39.23.16m-12.89-7.46.3.15m-12.88-7.39.22.08M13.28,360.3l.23.15m219.89-46h.15l1,.38,1.06.3,1,.3,1.06.23,1.13.23,1.13.15,1.13.15,1.13.15,1.13.07h3.54l1.13-.07,1.13-.08,1.21-.15,1-.15,1.13-.22,1.13-.23,1.06-.3,1-.3,1-.38,1-.38.91-.37.9-.46.83-.45.83-.45.75-.53.76-.53.67-.52.61-.61.6-.6.45-.6.45-.6.38-.61.38-.68.22-.67.23-.61.15-.67.08-.68.07-.68-.07-.68-.08-.53M82.69,375.75l.53-.45.6-.53.6-.6.45-.61.45-.67.46-.61.15-.3m-42.65-64.5-.08.37v1.36l.08.68.15.68.15.67.22.68.38.6.38.68.37.61.53.6.53.6.6.6.68.53.68.53.75.53.83.45m0,0,.83.45.9.45.91.46,1,.37,1,.3,1,.31,1.06.3,1,.3,1.13.15,1.13.22,1.13.16,1.13.07,1.21.08,1.13.07h2.34l1.2-.07,1.13-.15L70,321l1.13-.15,1.13-.22,1.06-.23,1-.3,1.06-.3,1-.3,1-.38,1-.38.83-.45.9-.45.83-.53.75-.45.68-.53.68-.6.6-.53.6-.6.53-.6.45-.61.38-.67.3-.61.3-.68.23-.67.15-.68.08-.68v-1.28l-.15-.6m149.35-14.62.76.22,1.05.23,1.13.22,1.13.23,1.13.15,1.21.08,1.13.07,1.2.08h1.14l1.2-.08L248,294l1.21-.08,1.13-.15,1.13-.15,1.13-.23,1.13-.22,1.05-.3,1.06-.3,1-.38,1-.38,1-.38.9-.45.91-.45.75-.45.83-.53.68-.53.67-.6.68-.53.53-.6.53-.6.45-.68.38-.6.37-.68.23-.68.23-.6.07-.3M233.4,232.42l.15.08,1,.3,1.06.3,1,.3,1.06.3,1.13.15,1.13.23,1.13.15,1.13.07,1.13.08,1.2.07h2.34l1.13-.07,1.13-.15,1.21-.15,1-.15,1.13-.23,1.13-.22,1.06-.31,1-.3,1-.3,1-.38.91-.37.9-.45.83-.46.83-.52.75-.46.76-.52.67-.61.61-.52.6-.61.45-.6.45-.6.38-.68.38-.6.22-.68.23-.68.15-.68.08-.68.07-.68-.07-.6-.08-.6M202,332.65h.07l1,.37,1.06.3,1,.3,1.06.23,1.13.23,1.13.15,1.13.15,1.13.15,1.21.07h3.46l1.21-.07,1.13-.08,1.13-.15,1.13-.15,1.13-.22,1-.23,1.06-.3,1.05-.3,1-.38,1-.38,1-.37.91-.46.83-.45.82-.45.76-.53.68-.52.67-.53.61-.6.6-.61.53-.6.45-.6.38-.61.3-.67.3-.68.23-.61.15-.67.07-.68v-1.36l-.07-.53m-65,30h.15l1,.37,1,.3,1.06.31,1.05.22,1.13.23,1.06.15,1.21.15,1.13.15,1.13.08h1.2l1.13.07,1.21-.07,1.13-.08,1.13-.08,1.13-.15,1.13-.15,1.13-.22,1-.23,1.13-.3,1-.3,1.06-.38,1-.38.9-.37.91-.45.83-.46.83-.45.75-.53.75-.52.68-.53.6-.6.53-.53.53-.68.45-.6.38-.61.37-.67.23-.61.23-.67.15-.68.07-.68V339.5l-.07-.52m-74.68,18.16-.08.37v1.36l.08.68.07.68.23.6.23.68.37.68.38.6.38.6.52.68.53.53.6.6.68.53.68.6.75.45.83.53m0,0,.83.45.91.45.9.38,1,.38,1,.37,1,.31,1.06.3,1.05.22,1.14.23,1.13.23,1.13.07,1.13.15,1.2.08,1.13.07h1.21l1.13-.07,1.13-.08,1.2-.07,1.13-.15,1.14-.16,1.05-.22,1.13-.23,1.06-.3,1.05-.3,1-.38,1-.3.9-.45.91-.38.9-.53.83-.45.76-.52.67-.53.68-.53.6-.6.61-.53.45-.6.45-.68.45-.6.31-.68.3-.61.15-.67.15-.68.15-.68v-.68l-.08-.68-.07-.52m-87.94-56,.15.07,1,.3,1.05.3,1.06.31.9.22m115.75,8.74.68.15,1.05.23,1.13.23,1.13.22,1.21.15,1.13.08,1.13.07,1.21.08h1.2l1.13-.08h1.21l1.13-.15,1.2-.15,1.13-.15,1.13-.22,1.06-.23,1.05-.3,1.06-.3,1-.38,1-.38.91-.37.9-.46.91-.45.83-.45.75-.53.75-.53.68-.6.6-.53.61-.6.45-.6.45-.68.45-.6.3-.68.31-.6.22-.68v-.3m-27-49.06,1.06.15,1.13.08,1.21.07,1.13.08h2.33l1.21-.08,1.13-.15,1.13-.15,1.13-.15,1.13-.23,1-.22,1.06-.31,1.05-.3,1-.3,1-.37,1-.38.91-.45.83-.46.82-.52.76-.46.68-.52.67-.61.61-.52.6-.61.53-.6.45-.6.38-.68.3-.6.3-.68.23-.68.15-.68.07-.68v-1.28l-.07-.6M202,250.58l.07.08.23.07m33.53-39.86.76.15,1.05.3,1.13.23,1.13.15,1.13.15,1.21.15,1.13.07h3.54L248,212l1.21-.08,1.13-.15,1.13-.22,1.13-.15,1.13-.31,1.05-.22,1.06-.3,1-.38,1-.38,1-.37.9-.46.91-.45.75-.53.83-.52.68-.53.67-.53.68-.6.53-.6.53-.61.45-.6.38-.68.37-.6.23-.68.23-.68.07-.22m-14.32-49.51,1-.15,1.06-.31,1-.3,1-.37,1-.38.91-.38.9-.45.83-.45.83-.45.75-.53.76-.53.67-.53.61-.6.6-.6.45-.6.45-.61.15-.22m-38.2,83.34.75-.37.91-.46.83-.52.75-.46.75-.6.68-.53.6-.6.61-.6.45-.61.45-.6.45-.6.3-.68.31-.68.22-.68v-.22m-14.24-49.44.9-.22,1.06-.3,1.05-.31,1-.37,1-.3,1-.46.91-.45L229,167l.82-.45.76-.53.68-.53.67-.52.61-.61.6-.53.53-.6.45-.68.15-.22M97.76,339v.37l-.08.68v.68l.08.68.15.67.15.61.3.68.3.67.38.61.45.6.45.68.61.53.6.6.6.53.76.6.75.45.75.53m0,0,.91.45.83.45,1,.38.9.38,1.06.37,1,.3,1,.31,1.13.22,1.06.23,1.13.15,1.13.15,1.2.15,1.13.08h1.13l1.21.07,1.13-.07,1.2-.08,1.14-.08,1.13-.15,1.13-.15,1.13-.22,1-.23,1.06-.3,1.05-.3,1.06-.38.37-.07M11.85,289.31l-.07.38-.08.68v.68l.08.68.15.67.22.68.23.61.3.67.38.68.45.6.45.61.6.6.61.53.6.6.75.53.76.53.75.45m0,0,.91.45.9.45.9.45,1,.38,1,.3,1,.3,1.13.31,1.06.3,1.13.15,1.05.22,1.21.15,1.13.08,1.13.08,1.21.07h1.13l1.2-.07h1.13l1.13-.16,1.13-.15,1.13-.15,1.13-.22,1.06-.23,1.13-.3,1-.3,1-.3.38-.15m40.84,75.58v.07l.23.68.15.45m-.23-63.75-.07.38-.08.68v.6l.08.68.15.68.23.68.22.67.3.61.38.67.45.61.45.6.61.6.6.61.6.52.76.53.75.53.75.53m0,0,.91.45.9.37.91.46,1,.37,1,.38,1,.3,1.06.23.9.22m72.72,2.11.68.15,1.13.23,1.13.23,1.13.22,1.13.15,1.13.08,1.21.07,1.2.08h1.13l1.21-.08h1.13l1.2-.15,1.13-.15,1.13-.15,1.13-.22,1.14-.23,1-.3,1.06-.3,1-.3,1-.38,1-.45.91-.46.83-.45.83-.45.83-.53.67-.52.68-.53.6-.6.61-.61.52-.6.46-.6.37-.68.38-.68.23-.6.22-.68.08-.3m-33.61-50.72.15.08,1,.3,1,.38,1.06.22,1.05.3,1.13.23,1.06.15,1.21.15,1.13.08,1.13.07,1.2.08H184l1.13-.08,1.13-.15,1.13-.07,1.13-.23,1.13-.23,1-.22,1.13-.23,1-.38,1.06-.3,1-.37.9-.38.91-.45.83-.45.83-.46.75-.52.75-.53.68-.6.6-.53.53-.61.53-.6.45-.6.38-.68.37-.6.23-.68.23-.68.15-.68.07-.6v-1.36l-.07-.52m-31.05-9.8.68.23,1.13.22,1.13.23L177,248l1.13.15,1.13.15,1.21.08H184l1.13-.08,1.2-.07,1.13-.16,1.13-.15,1.13-.22,1.14-.3,1-.23,1.06-.3,1-.38,1-.37,1-.38.91-.45.83-.46.83-.52.83-.46.67-.6.68-.53.6-.6.61-.53.45-.6m-12.51-53,.9-.22,1.13-.3,1-.3,1.06-.31,1-.37.9-.45.91-.38.83-.45.83-.53.75-.53.75-.53.68-.52.6-.61.53-.52.53-.61.45-.67.15-.23M129.11,337.69v.08l.22.6.23.68.38.68.37.6.46.68.45.6.6.61.6.6.61.53.75.52.75.53.83.53m0,0,.83.45.91.45,1,.38.9.38L140,347l1.06.3,1,.31,1.06.22,1.13.23,1.13.22,1.13.15,1.21.08,1.13.08,1.2.07h2.34l1.2-.07,1.13-.16,1.13-.15,1.21-.15,1.06-.22,1.13-.23,1-.3,1.06-.3,1.05-.3,1-.38.9-.45.91-.45.9-.46.83-.45.76-.53.75-.52.68-.53.6-.6.53-.61.53-.6.45-.6.37-.68.38-.68.3-.6.15-.68.08-.3m-43.33-62.47-.08.37v1.29l.08.67.07.68.23.68.23.68.37.6.38.68.38.6.52.61.53.6.6.6.68.53.68.53.75.52.83.46m0,0,.83.52.91.38.9.45,1,.38,1,.3,1,.38,1.06.22,1.05.3,1.14.23,1.13.15,1.13.15,1.13.15,1.2.08h3.47l1.13-.08,1.2-.15,1.13-.07,1.14-.23,1.05-.15,1.13-.3,1.06-.23,1.05-.3,1-.38,1-.37.9-.38.91-.45.9-.45.83-.46.76-.52.67-.53.68-.53.6-.6.61-.6.45-.61.45-.6.45-.68.31-.6.3-.68.15-.68.15-.6.15-.68v-.68l-.08-.67-.07-.53m-43.33-19.52v.08l.22.67.23.68.38.6.37.68.46.61.45.67.6.61.6.52.61.61.75.52.75.53.83.45m0,0,.83.53.91.38,1,.45.9.38L140,265l1.06.31,1,.3,1.06.22,1.13.23,1.13.15,1.13.15,1.21.15,1.13.08h1.2l1.21.07,1.13-.07,1.2-.08,1.13-.07,1.13-.15,1.21-.16,1.06-.22,1.13-.23,1-.3,1.06-.3,1.05-.38,1-.37.9-.38.91-.45.9-.45.83-.53.76-.45.75-.53.68-.6.6-.53.53-.61.53-.67.45-.61.37-.6.38-.68.3-.68.15-.67.08-.23m-42.13-57,.08.08.38.67.52.61.53.6.6.53.68.6.68.53.75.52.83.46m0,0,.83.45.91.45.9.38,1,.37,1,.38,1,.3,1.06.3,1.05.23,1.14.23,1.13.22,1.13.15,1.13.08,1.2.07,1.13.08h1.21l1.13-.08,1.13-.07,1.2-.08,1.13-.15,1.14-.15,1.05-.22,1.13-.23,1.06-.3,1.05-.3,1-.3,1-.38.9-.45.91-.38.9-.45.83-.53.76-.53.67-.52.68-.53.6-.53.61-.6.45-.61.45-.67.15-.23M43.12,288l.08.08.15.68.3.68.3.6.38.68.45.6.45.6.61.61.6.6.68.6.68.53.75.53.83.45m0,0,.83.45.9.45,1,.45,1,.38,1,.3,1.06.38,1,.3,1.06.23,1.13.22,1.13.15,1.2.15,1.13.16,1.13.07h3.55l1.2-.07,1.13-.08,1.21-.15,1.13-.23,1.13-.15,1-.3,1.06-.23,1-.3,1.06-.37,1-.38.9-.38.91-.45.9-.45.83-.53.75-.45.76-.6.68-.53.6-.6.6-.61.45-.6.45-.6.46-.68.15-.23m-42.65-64.5-.08.37v1.36l.08.68.15.68.15.6.22.68.38.68.38.6.37.6.53.68L46,233l.6.6.68.53.68.6.75.45.83.53m0,0,.83.45.9.45.91.38,1,.38,1,.38,1,.3,1.06.3,1,.22,1.13.23,1.13.15,1.13.15,1.13.15,1.21.08h1.13l1.21.07,1.13-.07,1.2-.08,1.13-.07L70,239l1.13-.15.76-.16M43.12,206l.08.15.15.6.3.68.3.68.38.6.45.68.45.6.61.61.6.6.68.53.68.52.75.53.83.53m0,0,.83.45.9.45,1,.38,1,.38,1,.37,1.06.31,1,.3,1.06.22,1.13.23,1.13.23,1.2.15,1.13.07,1.13.08.83.07m-19.29-67.9.08.08.37.6.53.61.53.6.6.6.68.53.68.53.75.52.83.46m0,0,.83.52.9.38.91.45,1,.38,1,.3,1,.38,1.06.22,1,.31h.15M86.15,294.67v.07l.23.68.23.68.3.68.37.6.46.6.52.68.53.6.6.53.68.6.76.53.75.53.75.45m0,0,.91.53.9.37.91.46,1,.37,1,.38.22.07M89,239.65h0l.6.53.6.6.76.53.75.53.75.45m0,0,.91.45.9.46.91.37,1,.38,1,.38,1,.3,1.06.3.9.23M89,217.42l.37.38.68.53.76.6.75.45.75.53m0,0,.91.45.9.46.91.37,1,.45,1,.31.22.07M11.7,269.87V270l.23.68.22.67.3.61.38.68.45.6.53.6.53.6.6.61.68.6.75.53.76.52.75.46m0,0,.9.45.91.45.9.45,1,.38,1,.3,1.06.38,1.05.22,1.13.31,1.13.22,1.13.15,1.13.15,1.13.15,1.21.08h3.54l1.13-.08,1.21-.07,1.13-.15,1.13-.23,1.13-.15,1.13-.3.9-.23m-31-72.26-.07.37-.08.68v.68l.08.68.15.68.22.6.23.68.3.68.38.6.45.6.45.6.6.61.61.6.6.53.75.52.76.53.75.53m0,0,.91.45.9.45.9.38,1,.38,1,.37,1,.31,1.13.3,1.06.22,1.13.23,1.05.15,1.21.15,1.13.15,1.13.08h3.54l1.13-.08,1.13-.07,1.13-.15,1.13-.16,1.13-.22,1.06-.23,1.13-.3,1-.3,1-.38.38-.07M11.7,187.81v.07l.23.68.22.68.3.68.38.6.45.68.53.6.53.61.6.6.68.53.75.52.76.53.75.53m0,0,.9.45.91.45.9.38,1,.38,1,.37,1.06.3,1.05.31,1.13.22,1.13.23,1.13.22,1.13.15,1.13.08,1.21.08,1.13.07h1.21l1.2-.07h1.13l1.21-.16,1.13-.15,1.13-.15,1.13-.22,1.13-.23.9-.22m-29.76-66.7V131l.45.6.45.6.6.61.61.6.6.53.75.53.76.52.75.46m0,0,.91.45.9.45.9.45,1,.38,1,.3,1,.38,1.13.22,1.06.3h.07M97.68,319.46v.07l.15.68.31.68.3.68.37.6.46.68.52.6.53.6.6.61.68.52.68.53.75.53.83.53m0,0,.91.45.9.45.91.38,1,.38,1,.37,1,.3,1,.3,1.14.23,1.13.23,1.13.22,1.13.15,1.13.08,1.2.07,1.13.08h1.21l1.2-.08h1.13l1.21-.15,1.13-.15,1.13-.15,1.13-.22,1.06-.23,1-.23M97.76,257v.3l-.08.68v.67l.08.68.15.68.15.68.3.68.3.6.38.68.45.6.45.6.61.61.6.6.6.53.76.52.75.53.75.45m0,0,.91.53.83.38,1,.45.9.38,1.06.3,1,.38,1,.22,1.13.3,1.06.23,1.13.15,1.13.15,1.2.08,1.13.07,1.13.08H121l1.2-.08,1.14-.15,1.13-.07,1.13-.23,1.13-.23,1-.22,1.06-.23,1.05-.38,1.06-.3.37-.15M97.68,237.47v.07l.15.68.31.68.3.6.37.68.46.6.52.68.53.53.6.6.68.61.68.52.75.53.83.45m0,0,.91.46.9.45.91.45,1,.38,1,.37,1,.3,1,.31,1.14.22,1.13.23L114,248l1.13.15,1.13.15,1.2.08H121l1.13-.08,1.21-.07,1.13-.16,1.13-.15,1.13-.22,1.06-.3,1-.23M99,180.5l.08.07.45.68.45.61.61.6.6.53.6.6.76.53.75.45.75.53m0,0,.91.45.83.45,1,.38.9.37,1.06.38,1,.3,1,.3,1.13.23.08.07M9.06,355.18v.07l.08.08m260.43,13.26h0v-.07l.08-.08M143,432.49h0v.08h.08v.07m15.67-.15h0v.08l-.07.07m-15.45-.15v.15m15.3-.15v.15M120.22,33.78h0v.07m15.22-.07h0v.07m-15.45,0h.23M9.36,97.83H9.14m126.52-64h-.22m134.13,77.32-.07-.08h-.08v.08h-.07M.92,356.08H.85M16,377.93v-.07m0-13h0M.85,369.19,16,377.93m0-13.11v13.11M.85,356.08,16,364.82M.85,356.08v13.11m12.36-8.89h.07m0,0,.23-.15M.85,353.22l12.36,7.08m0-2.64v2.64m-12.36-10v2.94M9,345.61.85,350.28m0,0L9,355m268.8,31.65h0m-12.59,7.24h0m0,0,12.59-7.24m0-2.86v2.86m-12.59,4.45v2.79m0-2.87h0v.08m12.59-7.31-12.59,7.31m12.59-7.31h0M13.51,360.45l12.36,7.16m-12.36-9.8v2.64m12.36,7.16h0m0,0,.22-.15M25.87,365v2.64M265.2,391l12.59-7.23m0-13.11v13.11M251.34,383l13.86,8m0-13v13m-2.48-14.54,2.48,1.5m0,0,12.59-7.3m0,0h0m0,0h0m-12.59,7.23h0m0,0V375m0,2.86,12.59-7.23m0,0v-2.87M265.2,375h0m12.59-7.24L265.2,375m12.59-7.24h0m-251.7,0,12.36,7.09m-12.36-9.73v2.64m12.36,7.09h0m0,0,.3-.16m-.3-2.48v2.64M51,382.15h.07m0,0,.23-.15m-12.59-6.93L51,382.15m0-2.63v2.63m-12.29-9.79v2.71M16,377.86l11.38-6.48M63.7,389.46v-.07m0,0,.22-.15m-12.58-6.93,12.36,7.15m0-2.63v2.63m-12.36-9.79v2.64M76.28,396.7h0m0,0,.3-.15m-12.66-6.93,12.36,7.08m0-2.64v2.64M63.92,387v2.64m157.2,29.69h.07m-12.58,7.23h0m12.58-10.1v2.87m-12.58,7.23,12.58-7.23m-12.58,4.44v2.79M68.9,395.34h-.08m0,13.11L84,417.12M68.82,395.34,84,404.08m-15.15-8.74v13.11M84,417.12h0m0-13h0m0,0v13m137.22-.68-12.58,7.31m12.51-7.31h.07m-12.58,7.24h0v.07m-132-26.9L88.87,404m-12.29-9.8v2.64M88.87,404h.07m0,0,.23-.15m-.3-2.49V404m132.32-.68h-.07m-12.51,20.35,12.58-7.24m0-13.11v13.11m-12.58-5.88,12.58-7.23m-26.45,12.36,13.87,8m0-13.12v13.12m-2.56-14.55,2.56,1.43m12.51-7.23h.07m-12.58,7.23h0m0,0,12.58-7.23m0,0v-2.86m-12.58,10.09V407.7m12.58-7.23-12.58,7.23m12.51-7.23h.07m-12.58,7.23h0M89.17,404.16l12.36,7.08m-12.36-9.72v2.64m12.36,7.08h0m0,0,.22-.15m-.22-2.48v2.63m.22.23,12.36,7.08m-12.36-9.79v2.71m12.36,7.08h0m0,0,.3-.15m-.3-2.48v2.63M84,417.12l11.38-6.56m19.06,8.14,12.29,7.16m-12.29-9.79v2.63m12.29,7.16.07-.07m0,0,.23-.08m-.3-2.49v2.64M164.53,452h0M.85,372.06H.92m151,87.19h0M.85,369.19v2.87m0,0,151.09,87.19m0-2.87v2.87m0,0L164.53,452m0-2.86V452M.85,369.19H.92m151,87.19L.85,369.19m151.09,87.19h0m12.59-7.23-12.59,7.23m12.59-7.23h0m-25.17-16h0m0,0,.22-.15M127,426l12.36,7.09m0-2.64v2.64M127,423.38V426m9.87,8.59h-.08M164.53,436h0m-27.74,11.6,15.15,8.74M136.79,434.6l15.15,8.67m-15.15-8.67v13m15.15,8.74,12.59-7.23m0-13.11v13.11m-12.59-5.88L164.53,436m-12.59,7.23v13.11M.85,356.08H.92m163.61,80h0V436m-12.59,7.31h0M164.53,436v-2.79m-12.59,10.1L164.53,436m-12.59,7.31v-2.86M.85,356.08v-2.86m0,2.86,151.09,87.19M.85,353.22H.92m151,87.19L.85,353.22m151.09,87.19h0m12.59-7.24-12.59,7.24m12.59-7.24h0m-24.95.08,12.36,7.16m-12.36-9.8v2.64m4-.61,8.36,4.83m125.85-72.65-8.07-4.67M151.94,440.41l125.85-72.65m0-2.94v2.94M151.94,437.47l125.85-72.65M151.94,437.47v2.94m83.72-87.12.68.15,1.13.23,1.06.23,1.2.22,1.13.15,1.13.08,1.21.15h3.54l1.21-.08,1.13-.07,1.2-.15,1.13-.15,1.13-.23,1.13-.23,1.06-.3,1.05-.3,1.06-.3,1-.38,1-.45.9-.38.91-.45.82-.53.76-.52.75-.53.68-.53.68-.6.6-.6.53-.61.45-.6.45-.68.3-.6.31-.68.22-.68.23-.67.07-.68.08-.68-.08-.68v-.38m-31.8,12.29.91.22,1.05.23,1.13.23,1.13.15,1.13.15,1.21.15,1.13.07h1.2l1.14.08,1.2-.08,1.13-.07,1.21-.08,1.13-.15,1.13-.15,1.13-.23,1.13-.22,1.05-.3,1.06-.3,1-.38,1-.38,1-.37.9-.46.83-.45.83-.45.75-.53.76-.53.67-.6.61-.53.6-.6.45-.6.45-.68.46-.6.3-.68.3-.68.23-.6.15-.68v-.53m-31.43,9.65.91.22,1.05.23,1.13.23,1.13.15,1.13.15,1.21.15,1.13.07h1.2l1.14.08,1.2-.08,1.13-.07,1.21-.08,1.13-.15,1.13-.15,1.13-.23,1.13-.22,1.05-.3,1.06-.3,1-.38,1-.38,1-.37.9-.46.83-.45.83-.45.75-.53.76-.53.67-.6.61-.53.37-.45m-28.86,3.47.91.22,1.05.23,1.13.23,1.13.22,1.13.15,1.21.08,1.13.07,1.2.08h2.34l1.13-.08,1.21-.15,1.13-.15,1.13-.15,1.13-.22,1.13-.23,1.05-.3,1.06-.3,1-.3,1-.38,1-.45.9-.38.83-.53.83-.45.75-.53.76-.53.67-.52.61-.61.6-.6.45-.6.45-.6.46-.68.3-.61.3-.67.23-.68.15-.68.07-.68v-.6M235,319l.53.15,1.06.3,1.05.22,1.13.23,1.13.23,1.13.15,1.21.07,1.13.08,1.2.07h1.14l1.2-.07H248l1.21-.15,1.13-.15,1.13-.15,1.13-.23,1.13-.23,1.05-.3,1.06-.3,1-.3,1-.38,1-.45.9-.45.83-.45.83-.46.75-.52.76-.53.67-.53.61-.6.37-.38m-30.14,3h.08l1,.37,1.06.23,1.05.3,1.13.23,1.13.15,1.13.15,1.21.15,1.13.07h3.54l1.13-.07,1.21-.08,1.13-.15,1.13-.22,1.13-.15,1.13-.31,1.05-.22,1.06-.38,1-.3,1-.38,1-.37.9-.46.83-.45.83-.53.75-.45.76-.6.67-.53.61-.6.6-.53.45-.68.45-.6.46-.6.3-.68.3-.68.23-.68.15-.68.07-.67V306m-31.65-4.6.3.08.83.3.91.3,1,.3.9.23,1,.15,1.06.15,1,.15,1.06.08h1l1.05.07,1.06-.07,1-.08,1.05-.08,1-.15,1-.15,1-.22.91-.23.9-.3.91-.3.9-.3.75-.38.83-.38.68-.45.68-.45.68-.45.52-.46.53-.52.45-.53m-217.63,48V347l.08.68.15.67.15.68.3.68.3.68.38.6.45.68.53.6.53.61.67.6.61.53.75.52.75.53.83.53m0,0,.83.45.91.45,1,.46,1,.37,1,.3,1.05.38,1.06.3,1.13.23,1.13.22,1.13.15,1.13.16,1.2.15,1.13.07,1.21.08h1.2l1.13-.08h1.21l1.21-.15,1.13-.07,1.13-.23,1.13-.15,1.13-.3,1-.23,1.06-.3,1.05-.38,1-.37,1-.38.91-.45.9-.45.83-.46.83-.52.75-.53.68-.53.6-.6.61-.61L85,352l.46-.6.15-.23m-42.58-4v.45l.15.68.23.68.22.68.3.6.38.68.45.6.53.6.53.61.6.6.68.53.75.6.76.45.75.53m0,0,.9.45.91.45.9.38,1,.45,1,.3,1.06.3,1,.31,1.13.3,1.06.22,1.13.15,1.2.15,1.13.08,1.21.08,1.13.07h2.34l1.2-.07,1.13-.16,1.13-.07,1.21-.23,1-.22,1.13-.23,1.06-.3,1-.3,1-.3,1-.38,1-.45.91-.38.9-.45.75-.53.83-.53.68-.52.68-.53.6-.6.61-.61.52-.6.45-.6.38-.61m-40.16,1,.3.31.6.6.68.53.75.6.76.45.75.53m0,0,.9.45.91.45.9.46,1,.37,1,.3,1.06.3,1,.31,1.13.3,1.06.22,1.13.15,1.2.16,1.13.07,1.21.15h3.47l1.2-.07,1.13-.15,1.13-.08,1.21-.23,1-.22,1.13-.23,1.06-.3,1-.3,1-.3,1-.38,1-.45.91-.38.9-.45.75-.53.83-.53.68-.52.68-.53.6-.6.45-.38M43,343.65V344l.08.68.15.68.23.68.22.68.3.68.38.6.45.68.53.6.53.6.6.53.68.6.75.53.76.53.75.45m0,0,.9.53.91.37.9.46,1,.37,1,.38,1.06.3,1,.3,1.13.23,1.06.22,1.13.16,1.2.15,1.13.15,1.21.07h1.13l1.21.08,1.13-.08,1.2-.07,1.13-.08,1.13-.15,1.21-.15,1-.23,1.13-.22,1.06-.3,1-.31,1-.37,1-.38,1-.38.91-.45.9-.45.75-.45.83-.53.68-.53.68-.6.6-.53.61-.6.52-.6.45-.68.38-.6L86,347M45.54,318.7l.3.31.6.52.68.61.75.52.76.53.75.45m0,0,.9.53.91.38.9.45,1,.38,1,.37,1.06.3,1,.31,1.13.22,1.06.23,1.13.15,1.2.15,1.13.15,1.21.08h3.47l1.2-.08,1.13-.08L70,325l1.21-.15,1-.22,1.13-.23,1.06-.3,1-.3,1-.38,1-.38,1-.37.91-.45.9-.46.75-.52.83-.46.68-.52.68-.61.6-.52.45-.46M43,310.79v.45l.08.68.15.68.23.68.22.6.3.68.38.68.45.6.53.6.53.61.6.6.68.53.75.52.76.53.75.53m0,0,.9.45.91.45.9.38,1,.38,1,.37,1.06.31,1,.3,1.13.22,1.06.23,1.13.22,1.2.16,1.13.07,1.21.08,1.13.07h1.21l1.13-.07h1.2l1.13-.15,1.13-.16,1.21-.15,1-.22,1.13-.23,1.06-.3,1-.3,1-.3,1-.38,1-.45.91-.45.9-.46.75-.45.83-.53.68-.52.68-.53.6-.6.61-.61.52-.6.45-.6.38-.68.3-.6.3-.68.23-.68.15-.68.08-.68v-.6m-36.93-8.21.23.22.45.53.6.45.61.53.6.45.75.46m0,0,.76.37.75.38.83.38.9.3.91.3.9.22,1,.23,1,.23,1,.15,1,.07,1.05.08,1.06.07h2l1.06-.07,1-.08,1-.15,1-.15,1-.22,1-.23.9-.3.91-.3.82-.38.83-.3.76-.45.75-.38.68-.45.6-.46.6-.52.53-.53.45-.45m187-19.44.08-.38.07-.68.08-.53m-31.58-10.32.68.23,1.13.22,1.06.23,1.2.15,1.13.15,1.13.15,1.21.07,1.2.08h1.13l1.21-.08H248l1.13-.15,1.2-.15,1.13-.15,1.13-.22,1.13-.23,1.06-.23,1.05-.3,1.06-.37,1-.38,1-.38.9-.45.91-.45.82-.45.76-.53.75-.53.68-.6.68-.53.6-.6.53-.6.45-.61.45-.68.3-.67.31-.61.22-.68.23-.67.07-.68.08-.68-.08-.68v-.45M235.66,271l.91.23,1.05.3,1.13.23,1.13.15,1.13.15,1.21.07,1.13.08,1.2.07h2.34l1.13-.07,1.21-.15,1.13-.15,1.13-.15,1.13-.23,1.13-.23,1.05-.3,1.06-.3,1-.3,1-.38,1-.45.9-.38.83-.45.83-.53.75-.52.76-.53.67-.53.61-.6.6-.6.45-.61.45-.6.46-.68.3-.6.3-.68.23-.68.15-.67v-.46M235.66,270l.91.23,1.05.3,1.13.23,1.13.15,1.13.15,1.21.07,1.13.08,1.2.07h2.34l1.13-.07,1.21-.15,1.13-.08,1.13-.22,1.13-.23,1.13-.23,1.05-.3,1.06-.3,1-.3,1-.38,1-.45.9-.38.83-.45.83-.52.75-.53.76-.53.67-.53.61-.6.37-.38m-28.86,3.47.91.23,1.05.22,1.13.23,1.13.15,1.13.15,1.21.15,1.13.08h3.54l1.13-.08,1.21-.08,1.13-.15,1.13-.15,1.13-.22,1.13-.23,1.05-.3,1.06-.3,1-.38,1-.38,1-.37.9-.45.83-.46.83-.45.75-.53.76-.52.67-.61.61-.52.6-.61.45-.6.45-.68.46-.6.3-.68.3-.68.23-.6.15-.68.07-.68v-.6M235,237l.53.15,1.06.3,1.05.23,1.13.22,1.13.15,1.13.15,1.21.15,1.13.08h3.54l1.13-.08,1.21-.07,1.13-.15,1.13-.15,1.13-.23,1.13-.3,1.05-.23,1.06-.3,1-.38,1-.37,1-.38.9-.45.83-.45.83-.53.75-.45.76-.53.67-.6.61-.53.37-.45m-30.14,3.09h.08l1,.3,1.06.3,1.05.23,1.13.22,1.13.23,1.13.15,1.21.07,1.13.08,1.2.07h1.14l1.2-.07H248l1.21-.15,1.13-.15,1.13-.15,1.13-.23,1.13-.22,1.05-.31,1.06-.3,1-.37,1-.31,1-.45.9-.45.83-.45.83-.45.75-.53.76-.53.67-.53.61-.6.6-.6.45-.61.45-.6.46-.68.3-.6.3-.68.23-.68.15-.67.07-.68v-.61m-31.65-4.59.3.15.83.3.91.3,1,.23.9.22,1,.23,1.06.15,1,.08,1.06.07,1,.08h2.11l1-.08,1.05-.07,1-.15,1-.16,1-.22.91-.23.9-.3.91-.3.9-.38.75-.3.83-.45.68-.38.68-.45.68-.45.52-.53.53-.53.45-.45M204.24,371.45l.6.15,1.13.23,1.13.23,1.13.22,1.13.15,1.21.15,1.13.08h3.62l1.13-.08,1.2-.07,1.13-.15,1.13-.15L221,372l1.13-.22,1.06-.31,1.05-.3,1.06-.3,1-.38,1-.45.9-.37.91-.46.83-.52.82-.53.76-.53.68-.53.6-.6.6-.6.53-.61.45-.6.45-.6.38-.68.3-.68.23-.68.15-.67.07-.68L236,360v-.68l-.08-.38m-31.72,12.29.83.22,1.13.23,1.05.23,1.13.15,1.21.15,1.13.15,1.21.07,1.13.08h1.2l1.13-.08,1.21-.07,1.13-.08,1.2-.15,1.13-.15,1.06-.22,1.13-.23,1.05-.3,1.06-.3,1-.38,1-.38.91-.37.9-.46.91-.45.75-.45.83-.53.68-.53.68-.6.67-.53.53-.6.53-.6.45-.68.38-.6.37-.68.23-.6.23-.68.15-.68.07-.53m-31.42,9.65.83.22,1.13.23,1.05.23,1.13.15,1.21.15,1.13.15,1.21.07,1.13.08h1.2l1.13-.08,1.21-.07,1.13-.08,1.2-.15,1.13-.15,1.06-.22,1.13-.23,1.05-.3,1.06-.3,1-.38,1-.38.91-.37.9-.46.91-.45.75-.45.83-.53.68-.52.68-.61.67-.53.38-.45m-28.86,3.47.83.23,1.13.3,1.05.15,1.13.22,1.21.15,1.13.08,1.21.07,1.13.08h2.33l1.21-.08,1.13-.15,1.2-.15,1.13-.15,1.06-.22,1.13-.23,1.05-.3,1.06-.3,1-.3,1-.38.91-.45.9-.38.91-.53.75-.45.83-.53.68-.52.68-.53.67-.6.53-.61.53-.6.45-.6.38-.68.37-.6.23-.68.23-.68.15-.68.07-.68v-.6m-32.1-19.74.45.15,1.06.3,1.13.22,1.05.23,1.13.23,1.21.15,1.13.07,1.21.08,1.13.07h2.33l1.21-.07,1.13-.15,1.2-.15,1.13-.15,1.06-.23,1.13-.23,1.05-.3,1.06-.3,1-.3,1-.38.91-.45.9-.38.91-.52.75-.46.83-.52.68-.53.68-.53.67-.6.38-.38m-30.22,3H203l1,.37,1.06.3,1.13.23,1.05.23,1.13.15,1.21.15,1.13.15,1.21.07h3.46l1.21-.07,1.13-.08,1.2-.15,1.13-.22,1.06-.15,1.13-.31,1.05-.22,1.06-.3,1-.38,1-.38.91-.37.9-.46.91-.45.75-.52.83-.46.68-.52.68-.61.67-.6.53-.53.53-.68.45-.6.38-.6.37-.68.23-.68.23-.68.15-.6.07-.68v-.6m-31.57-4.6.22.08.91.3.9.3.91.3,1,.23,1,.15,1,.15,1,.15,1.05.08,1.06.07h1l1.05-.07,1.06-.08,1-.07,1-.16,1-.15,1-.22,1-.23.91-.3.9-.3.83-.3.83-.38.75-.38.76-.45.68-.45.6-.45.6-.45.53-.53.45-.53m-56.14,73.78.68.15,1.05.3,1.13.15,1.13.22,1.21.15,1.13.16,1.21.07h3.54l1.2-.07,1.13-.08,1.21-.15,1.13-.15,1.13-.23,1-.22,1.13-.3,1.06-.31,1-.3,1-.37,1-.46.91-.37.83-.46.9-.52.76-.53.75-.53.68-.53.68-.6.52-.53.61-.67.45-.61.37-.6.38-.68.3-.68.23-.67.15-.68.15-.68.08-.68-.08-.68v-.37m-31.8,12.28.9.23,1.06.22,1.13.23,1.13.22,1.13.15,1.13.08,1.21.07,1.2.08h1.13l1.21-.08,1.13-.07,1.2-.08,1.13-.15,1.13-.15,1.13-.22,1.06-.23,1.13-.3,1-.3,1-.38,1-.38.91-.37.9-.45.91-.46.83-.45.75-.53.75-.52.68-.61.6-.52.53-.61.53-.6.45-.68.38-.6.38-.68.3-.6.15-.68.15-.68.07-.53m-31.42,9.65.9.23,1.06.22,1.13.23,1.13.22,1.13.15,1.13.08,1.21.08,1.2.07h1.13l1.21-.07,1.13-.08,1.2-.08,1.13-.15,1.13-.15,1.13-.22,1.06-.23,1.13-.3,1-.3,1-.38,1-.38.91-.37.9-.45.91-.46.83-.45.75-.53.75-.52.68-.61.6-.52.38-.38m-28.86,3.39.9.23,1.06.3,1.13.22,1.13.15,1.13.16,1.13.07,1.21.08,1.2.07H184l1.13-.07,1.2-.15,1.13-.16,1.13-.15,1.13-.22,1.06-.23,1.13-.3,1-.3,1-.3,1-.38.91-.45.9-.38.91-.45.83-.53.75-.53.75-.52.68-.53.6-.6.53-.61.53-.6.45-.6.38-.68.38-.6.3-.68.15-.68.15-.68.15-.68v-.6m-32.18-19.74.45.15,1.13.3,1.06.3,1.13.15,1.13.23,1.13.15,1.13.07,1.21.08,1.2.07H184l1.13-.07,1.2-.15,1.13-.15,1.13-.15,1.13-.23,1.06-.22,1.13-.31,1-.3,1-.3,1-.38.91-.45.9-.37.91-.53.83-.45.75-.53.75-.53.68-.53.6-.6.38-.38m-30.14,3,.07.07,1,.3,1.13.31,1.06.22,1.13.23,1.13.15,1.13.15,1.13.15,1.21.08H184l1.13-.08,1.2-.08,1.13-.15,1.13-.22,1.13-.15,1.06-.3,1.13-.23,1-.3,1-.38,1-.38.91-.37.9-.45.91-.46.83-.52.75-.46.75-.52.68-.61.6-.52.53-.61.53-.6.45-.68.38-.6.38-.68.3-.68.15-.6.15-.68.15-.68v-.6m-31.65-4.6.3.08.83.38.9.22,1,.3.91.23,1,.15,1,.15,1.05.15,1,.08,1.06.07h1.05l1-.07,1.06-.08,1-.07,1.05-.15,1-.15,1-.23.9-.23.91-.22.9-.38.83-.3.83-.38.75-.37.76-.46.68-.45.67-.45.53-.45.53-.53.45-.53m-68.72,61.34-.08.68.08.68.07.68.15.68.15.67.3.68.31.6.37.68.45.61.53.67.53.61.6.52.68.61.75.52.76.53.83.53m0,0,.83.45.9.45,1,.38,1,.38,1,.37,1.05.31,1.06.3,1.13.3,1.13.22,1.13.16,1.13.15,1.21.15,1.13.07h3.54l1.2-.07,1.21-.08,1.13-.15,1.13-.15,1.13-.23,1.13-.22,1.06-.3,1.05-.31,1.06-.3,1-.37,1-.46.91-.37.9-.45L167,405l.76-.45.75-.61.75-.52.61-.61.6-.52.53-.61.45-.68.45-.6.38-.68.22-.67.3-.68.16-.68L173,397l.08-.68v-.68l-.08-.37m-44,1.5v.53l.15.68.23.6.23.68.3.68.37.6.46.68.52.6.53.61.6.6.68.53.68.52.83.53.75.53m0,0,.91.45.83.45,1,.38,1,.38,1,.37,1.06.3,1,.31,1.06.22,1.13.23,1.13.22,1.13.16,1.21.07,1.13.08,1.2.07h1.21l1.13-.07,1.2-.08,1.13-.07,1.13-.16,1.14-.15,1.13-.22,1.13-.23,1-.3,1.06-.3,1-.38,1-.37,1-.38.91-.45.83-.46.83-.45.83-.53.67-.52.68-.61.61-.52.6-.61.53-.6.45-.6.37-.68.31-.68.3-.6.22-.68.15-.68.08-.53m-41.22,4.22.3.31.6.6.68.53.68.52.83.53.75.53m0,0,.91.45.83.45,1,.38,1,.38,1,.37,1.06.31,1,.3,1.06.22,1.13.23,1.13.22,1.13.16,1.21.07,1.13.08,1.2.07h1.21l1.13-.07,1.2-.08,1.13-.07,1.13-.16,1.14-.15,1.13-.22,1.13-.23,1-.3,1.06-.3,1-.38,1-.37,1-.38.91-.45.83-.46.83-.45.83-.53.67-.52.68-.53.61-.6.37-.38m-41.14-8v.45l.07.68.15.68.23.68.23.68.3.6.37.68.46.6.52.6.53.61.6.6.68.53.68.6.83.45.75.53m0,0,.91.45.83.45,1,.46,1,.37,1,.3,1.06.31,1,.3,1.06.3,1.13.22,1.13.16,1.13.15,1.21.07,1.13.15h3.54l1.2-.07,1.13-.15,1.13-.08,1.14-.23,1.13-.22,1.13-.23,1-.3,1.06-.3,1-.3,1-.38,1-.45.91-.38.83-.45.83-.53.83-.52.67-.53.68-.53.61-.6.6-.6.53-.61.45-.6.37-.68.31-.6.3-.68.22-.68.15-.68.08-.67v-.61m-41.22-24.94.3.3.6.6.68.53.68.6.83.46.75.52m0,0,.91.46.83.45,1,.37,1,.46,1,.3,1.06.3,1,.3,1.06.3,1.13.15,1.13.23,1.13.15,1.21.08,1.13.07,1.2.08h2.34l1.2-.08,1.13-.15,1.13-.15,1.14-.15,1.13-.23,1.13-.22,1-.31,1.06-.3,1-.3,1-.37,1-.46.91-.37.83-.46.83-.52.83-.53.67-.53.68-.53.61-.6.37-.38M129,360.45v.38l.07.68.15.68.23.67.23.68.3.68.37.6.46.68.52.6.53.61.6.52.68.61.68.52.83.53.75.45m0,0,.91.53.83.38,1,.45,1,.38,1,.37,1.06.31,1,.3,1.06.22,1.13.23,1.13.15,1.13.15,1.21.15,1.13.08h3.54l1.2-.08,1.13-.07,1.13-.15,1.14-.16,1.13-.22,1.13-.23,1-.3,1.06-.3,1-.38,1-.37,1-.38.91-.45.83-.46.83-.45.83-.52.67-.53.68-.61.61-.52.6-.61.53-.6.45-.68.37-.6.31-.68.3-.68.22-.6.15-.68.08-.68v-.6m-36.93-8.29.16.23.52.53.61.52.6.46.6.45.75.45m0,0,.76.45.75.38.83.3.91.38.9.22.9.3,1,.23,1,.15,1,.15,1,.15,1.06.08,1,.07h1.05l1.06-.07h1l1-.15,1-.15,1-.15,1-.23,1-.23.9-.22.83-.3.91-.38.83-.38.75-.37.68-.46.75-.45.6-.45.61-.45.53-.53.45-.53M86.08,305.74l.53.15,1,.3,1.06.23h.15m-3.39-2.79h.07l1.06.3,1,.31,1.06.22,1,.23m145.74-3.39.15-.38.08-.68v-.53m-31.5-10.32.6.23,1.13.22,1.13.23,1.13.15,1.13.23,1.21.07,1.13.08,1.2.07h2.42l1.13-.07,1.2-.15,1.13-.08,1.13-.23L221,290l1.13-.3,1.06-.22,1.05-.31,1.06-.37,1-.38,1-.38.9-.45.91-.45.83-.45.82-.53.76-.53.68-.53.6-.6.6-.6.53-.6.45-.61.45-.67.38-.68.3-.61.23-.67.15-.68.07-.68L236,278v-.68l-.08-.45m-31.72,12.28.83.23,1.13.3,1.05.23,1.13.15,1.21.15,1.13.15,1.21.08h3.46l1.21-.08,1.13-.15,1.2-.08,1.13-.22,1.06-.23,1.13-.22,1.05-.31,1.06-.3,1-.3,1-.38.91-.45.9-.37.91-.46.75-.52.83-.53.68-.53.68-.53.67-.6.53-.6.53-.61.45-.6.38-.68.37-.6.23-.68.23-.68.15-.67.07-.46m-31.42,9.57.83.23,1.13.3,1.05.23,1.13.15,1.21.15,1.13.15,1.21.08h3.46l1.21-.08,1.13-.15,1.2-.08,1.13-.22,1.06-.23,1.13-.22,1.05-.31,1.06-.3,1-.3,1-.38.91-.45.9-.37.91-.46.75-.52.83-.53.68-.53.68-.53.67-.6.38-.38m-28.86,3.47.83.23,1.13.22,1.05.23,1.13.15,1.21.15,1.13.15,1.21.08h1.13l1.2.07,1.13-.07,1.21-.08,1.13-.07,1.2-.16,1.13-.15,1.06-.22,1.13-.23,1.05-.3,1.06-.3,1-.38,1-.37.91-.38.9-.45.91-.46.75-.45.83-.53.68-.52.68-.61.67-.52.53-.61.53-.6.45-.68.38-.6.37-.68.23-.6.23-.68.15-.68.07-.68v-.6m-32.1-19.74.45.15,1.06.3,1.13.23,1.05.22,1.13.15,1.21.15,1.13.15,1.21.08h3.46l1.21-.08,1.13-.07,1.2-.15,1.13-.15,1.06-.23,1.13-.22,1.05-.31,1.06-.3,1-.37,1-.38.91-.38.9-.45.91-.45.75-.45.83-.53.68-.53.68-.6.67-.53.38-.45m-27.35,3.84.45.08,1.05.22,1.13.23,1.21.15,1.13.08,1.21.07,1.13.08h1.2l1.13-.08h1.21l1.13-.15,1.2-.15,1.13-.15,1.06-.23,1.13-.22,1.05-.31,1.06-.3,1-.3,1-.37.91-.46.9-.45.91-.45.75-.45.83-.53.68-.53.68-.53.67-.6.53-.6.53-.6.45-.61.38-.68.37-.6.23-.68.23-.67.15-.68.07-.68v-.6m-8.21-6.86.45-.38.53-.53.45-.45M267,201.15l.08-.46.07-.67.08-.46m-31.58-10.32.68.15,1.13.23,1.06.22,1.2.23,1.13.15,1.13.15,1.21.08h3.54l1.21-.08,1.13-.07,1.2-.16,1.13-.15,1.13-.22,1.13-.23,1.06-.3,1.05-.3,1.06-.3,1-.38,1-.45.9-.38.91-.45.82-.53.76-.53.75-.52.68-.53.68-.6.6-.53.53-.68.45-.6.45-.6.3-.68.31-.68.22-.68.23-.68.07-.68.08-.67-.08-.68v-.38M235.66,189l.91.23,1.05.23,1.13.22,1.13.23L241,190l1.21.15,1.13.08,1.2.08h1.14l1.2-.08,1.13-.08,1.21-.07,1.13-.15,1.13-.15,1.13-.23,1.13-.22,1.05-.31,1.06-.3,1-.37,1-.38,1-.38.9-.45.83-.45.83-.45.75-.53.76-.53.67-.6.61-.53.6-.6.45-.6.45-.68.46-.61.3-.67.3-.61.23-.68.15-.67v-.53M235.66,188l.91.23,1.05.23,1.13.22,1.13.23,1.13.15,1.21.08,1.13.07,1.2.08h1.14l1.2-.08,1.13-.07,1.21-.08,1.13-.15,1.13-.15,1.13-.23,1.13-.22,1.05-.31,1.06-.3,1-.37,1-.38,1-.38.9-.45.83-.45.83-.45.75-.53.76-.53.67-.6.61-.53.37-.38m-28.86,3.4.91.22,1.05.3,1.13.15,1.13.23,1.13.15,1.21.08,1.13.07,1.2.08h2.34l1.13-.08,1.21-.15,1.13-.15,1.13-.15,1.13-.23,1.13-.22,1.05-.3,1.06-.31,1-.3,1-.37,1-.46.9-.37.83-.46.83-.52.75-.53.76-.53.67-.53.61-.6.6-.6.45-.6.45-.61.46-.67.3-.61.3-.68.23-.67.15-.68.07-.68v-.6M244.4,156.46h2.49l1.13-.08,1.21-.15,1.13-.15,1.13-.15,1.13-.22,1.13-.23,1.05-.3,1.06-.3,1-.3,1-.38,1-.45.9-.38.83-.53.83-.45.75-.53.76-.52.67-.53.61-.6.37-.38M248,154.43H248l1.21-.08,1.13-.15,1.13-.23,1.13-.15,1.13-.3,1.05-.23,1.06-.3,1-.37,1-.38,1-.38.9-.45.83-.45.83-.53.75-.45.76-.53.67-.6.61-.53.6-.6.45-.6.45-.68.46-.61.3-.67.3-.68.23-.68.07-.38m-31.5,75.89.15-.45.08-.68v-.45m-8.29-11.84.75-.3.91-.45.83-.53.82-.45.76-.6.68-.53.6-.6.6-.53.53-.68.45-.6.45-.6.38-.68.3-.68.23-.68.15-.68.07-.67L236,196v-.68l-.08-.38M204.24,207.4l.6.15,1.13.3,1.13.23,1.13.15.76.08m18.46-2.64.75-.38.91-.45.75-.45.83-.53.68-.53.68-.6.67-.53.53-.6.53-.6.45-.61.38-.67L235,199l.23-.61.23-.67.15-.68.07-.53m-31.42,10.63.83.22,1.13.23,1.05.22,1.13.23.91.08m18.16-3.47.75-.38.91-.45.75-.45.83-.53.68-.53.68-.6.67-.53.38-.37m-28.86,5.35.83.22,1.13.23,1.05.22,1.13.23,1.21.15,1.13.08m16.73-4.6.75-.3.91-.45.75-.53.83-.53.68-.53.68-.52.67-.61.53-.6.53-.6.45-.61.38-.67.37-.61.23-.67.23-.68.15-.68.07-.68v-.6m-31.42,11.38.83.22,1.13.3,1.05.23,1.13.15,1.21.15,1.13.08,1.21.15h1.88m-.83-30.9h2.41l1.21-.07,1.13-.16,1.2-.15,1.13-.15,1.06-.22,1.13-.23,1.05-.3,1.06-.3,1-.3,1-.38.91-.45.9-.38.91-.45.75-.53.83-.53.68-.52.68-.53.67-.6.38-.38m-16.65,4.6h.15l1.13-.08,1.2-.15,1.13-.15,1.06-.23,1.13-.22,1.05-.3,1.06-.31,1-.37,1-.38.91-.38.9-.45.91-.45.75-.53.83-.45.68-.53.68-.6.67-.53.53-.6.53-.6.45-.68.38-.6.37-.68.23-.68.23-.6.07-.46M97.16,377.18v1.36l.07.68.15.67.23.68.22.68.38.6.38.68.45.6.45.68.6.61.61.52.68.61.67.52.83.53.76.45m0,0,.9.53.91.45.9.38,1,.38,1,.37,1,.3,1.13.31,1.06.3,1.13.15,1.13.22,1.21.15,1.13.16,1.2.07h3.54l1.13-.07,1.21-.08,1.13-.15,1.21-.15,1.13-.23,1-.22,1.13-.3H129m-31.43-11,.08.53.07.68.23.6.23.68.37.68.38.6.45.68.45.6.61.6.6.61.6.53.76.52.75.53.83.53m0,0,.83.45.9.45.91.38,1,.38,1,.37,1,.3,1,.31,1.14.22,1.13.23,1.13.22,1.13.15,1.13.08,1.2.07,1.13.08h1.21l1.2-.08,1.13-.07,1.14-.08,1.2-.15,1.13-.15,1.13-.22,1.06-.23,1-.3H129M100.09,383l.31.31.6.6.6.53.76.52.75.53.83.53m0,0,.83.45.9.45.91.38,1,.38,1,.37,1,.3,1,.31,1.14.22,1.13.23,1.13.22,1.13.15,1.13.08,1.2.08,1.13.07h1.21l1.2-.07,1.13-.08,1.14-.08,1.2-.15,1.13-.15,1.13-.22,1.06-.23,1-.3H129M97.53,375.07v.45l.08.68.07.68.23.68.23.68.37.6.38.68.45.6.45.6.61.61.6.6.6.53.76.6.75.45.83.53m0,0,.83.45.9.45.91.38,1,.45,1,.3,1,.3,1,.31,1.14.3,1.13.22,1.13.15,1.13.16,1.13.07,1.2.08,1.13.07H121l1.13-.07,1.14-.15,1.2-.16,1.13-.15,1.13-.22,1.06-.23,1-.3H129m-28.87-36.32.31.3.6.6.6.53.76.6.75.45.83.53m0,0,.83.45.9.46.91.37,1,.38,1,.38,1,.3,1,.3,1.14.3,1.13.15,1.13.23,1.13.15,1.13.07,1.2.08,1.13.07H121l1.13-.07,1.14-.15,1.2-.15,1.13-.15,1.13-.23,1.06-.22,1-.31.76-.22m-32.11-13v.38l.08.68.07.67.23.68.23.68.37.68.38.6.45.6.45.68.61.61.6.52.6.61.76.52.75.53.83.45m0,0,.83.53.9.38.91.45,1,.38,1,.37,1,.3,1,.31,1.14.22,1.13.23,1.13.15,1.13.15,1.13.15,1.2.08H121l1.13-.08,1.14-.08,1.2-.15,1.13-.22,1.13-.15,1.06-.3,1-.23,1.06-.3.37-.15m-26-19.22.22.23.53.53.53.52.6.45.68.46.68.45m0,0,.75.45.83.38.83.3.83.38.9.22.9.3,1,.23,1,.15,1,.15,1.06.15,1,.08,1,.07h1.06l1-.07,1-.08,1-.07,1.06-.15,1-.15,1-.23.9-.23.91-.22.9-.38.68-.23M11.25,327.52l-.08.68v.68l.08.68.15.67.23.68.22.68.38.68.38.6.45.68.45.6.6.61.61.6.67.53.68.52.83.53.75.53m0,0,.91.45.9.45.91.45,1,.38,1,.3,1.06.38,1.05.23,1.06.3,1.13.22,1.13.15,1.2.15,1.13.16,1.21.07,1.13.08h1.21l1.2-.08h1.21l1.13-.15,1.2-.15,1.13-.15,1.13-.23,1.06-.22L42.9,340,43,340M11.55,329l.08.45.15.68.15.68.3.67.3.61.38.68.45.6.45.6.6.6.61.61.67.52.68.61.76.45.83.53m0,0,.82.45.91.45.9.38,1,.45,1.06.3,1,.3,1.13.3,1.05.31,1.13.15,1.13.22,1.13.15,1.13.08,1.21.07,1.21.08h2.33l1.13-.08,1.21-.15,1.13-.15,1.13-.15,1.13-.22,1.05-.23,1.13-.3m-28.86-6.41.3.3.61.61.67.53.68.6.76.45.83.53m0,0,.82.45.91.45.9.38,1,.45,1.06.3,1,.3,1.13.31,1.05.3,1.13.15,1.13.22,1.13.15,1.13.08,1.21.07,1.21.08h2.33l1.13-.08,1.21-.15,1.13-.15,1.13-.15,1.13-.22,1.05-.23,1.13-.3M11.55,325.49v.37l.08.68.15.68.15.68.3.68.3.67.38.61.45.68.45.6.6.6.61.53.67.6.68.53.76.53.83.45m0,0,.82.53.91.37.9.45,1,.38,1.06.38,1,.3,1.13.3,1.05.23,1.13.22,1.13.15,1.13.15,1.13.16,1.21.07h3.54l1.13-.07,1.21-.08,1.13-.15,1.13-.15,1.13-.23,1.05-.22,1.13-.3m-28.86-36.4.3.37.61.53.67.6.68.53.76.53.83.45m0,0,.82.45.91.46.9.45,1,.38,1.06.37,1,.3,1.13.3,1.05.23,1.13.23,1.13.15,1.13.15,1.13.15,1.21.07h3.54l1.13-.07L37.4,307l1.13-.15,1.13-.22,1.13-.15,1.05-.31L43,306l.68-.23m-32.1-13.11v.45l.08.68.15.68.15.68.3.6.3.68.38.68.45.6.45.6.6.61.61.6.67.53.68.52.76.53.83.53m0,0,.82.45.91.45.9.38,1,.38,1.06.37,1,.3,1.13.31,1.05.22,1.13.23,1.13.22,1.13.15,1.13.08,1.21.08,1.21.07h1.13l1.2-.07,1.13-.08,1.21-.08,1.13-.15,1.13-.15,1.13-.22,1.05-.23L43,304l1-.3.38-.08m-26-19.21.23.22.53.53.52.45.61.53.67.45.68.45m0,0,.76.38.83.38.82.37.83.31.91.3,1,.22.9.23,1,.23,1,.15,1.06.07,1,.08,1,.07h2l1.06-.07,1-.08,1.05-.15,1-.23,1-.15.91-.22.9-.3.91-.3.67-.31m42.81,87v.38l.07.68.15.6m-.45-24.34-.07.6v.68l.07.75.15.68.23.6.22.68.38.68.38.68.45.6.45.6.61.61.6.6.68.53.67.6.83.53.76.45m0,0,.9.45.91.45.9.46,1,.37,1,.38.68.15M86,353.82l.08.45.15.68.15.68.3.68.3.68.38.6.45.6.45.68.61.6.6.53.68.6.68.53.75.53.83.45m0,0,.83.45.9.45.91.46,1,.37,1,.3.45.16m-9-6.18.3.37.6.53.68.6.68.53.75.53.83.45m0,0,.83.45.9.45.91.46,1,.37,1,.3.45.16M86,350.28v.45l.08.68.15.68.15.68.3.6.3.68.38.6.45.68.45.6.61.6.6.61.68.52.68.53.75.53.83.53m0,0,.83.45.9.45.91.38,1,.37,1,.38.45.15m-9-36.09.3.3.6.6.68.53.68.52.75.53.83.53m0,0,.83.45.9.45.91.38,1,.38,1,.37,1,.31,1.13.3,1.06.22.15.08M86,317.42v.46l.08.67.15.68.15.68.3.68.3.6.38.68.45.6.45.6.61.61.6.6.68.53.68.6.75.45.83.53m0,0,.83.45.9.45.91.38,1,.45,1,.31,1,.3,1.13.3,1.06.3,1,.15m-8.51-20.27.22.23.53.52.53.53.6.45.68.45.68.46m0,0,.75.37.6.3m106.71,6.94.07-.38.08-.68v-.52m-31.5-10.33.68.23,1.05.22,1.13.23,1.13.23,1.21.15,1.13.07,1.21.08,1.13.07h2.41l1.2-.07,1.13-.15,1.21-.08,1.13-.23,1.13-.15,1-.3,1.13-.22,1.06-.3,1-.38,1-.38,1-.38.91-.45.83-.45.9-.45.76-.53.75-.53.68-.52.68-.61.52-.6.61-.6.45-.61.37-.67.38-.61.3-.67.23-.68.15-.68.15-.68.08-.68-.08-.68V295m-31.8,12.29.9.22,1.06.3,1.13.23,1.13.15,1.13.15,1.13.15,1.21.08H184l1.13-.08,1.2-.15,1.13-.08,1.13-.22,1.13-.23,1.06-.22,1.13-.23,1-.38,1-.3,1-.37.91-.38.9-.45.91-.46.83-.52.75-.53.75-.53.68-.53.6-.6.53-.6.53-.6.45-.61.38-.6.38-.68.3-.68.15-.67.15-.68.07-.45m-31.42,9.57.9.22,1.06.3,1.13.23,1.13.15,1.13.15,1.13.15,1.21.08H184l1.13-.08,1.2-.15,1.13-.07,1.13-.23,1.13-.15,1.06-.3,1.13-.23,1-.38,1-.3,1-.37.91-.38.9-.45.91-.46.83-.52.75-.53.75-.53.68-.53.6-.6.38-.37m-28.86,3.46.9.23,1.06.22,1.13.23,1.13.23,1.13.07,1.13.15,1.21.08,1.2.07h1.13l1.21-.07,1.13-.08,1.2-.07,1.13-.15,1.13-.15,1.13-.23,1.06-.23,1.13-.3,1-.3,1-.38,1-.37.91-.38.9-.45.91-.45.83-.46.75-.52.75-.53.68-.6.6-.53.53-.6.53-.61.45-.68.38-.6.38-.68.3-.6.15-.68.15-.68.15-.67v-.61m-32.18-19.74.45.15,1.13.3,1.06.23,1.13.22,1.13.15,1.13.15,1.13.16,1.21.07h1.2l1.13.08,1.21-.08,1.13-.07,1.2-.08,1.13-.15,1.13-.15,1.13-.23,1.06-.22,1.13-.3,1-.31,1-.37,1-.38.91-.38.9-.45.91-.45.83-.45.75-.53.75-.53.68-.6.6-.53.38-.45m-30.14,3.09h.07l1,.3,1.13.3,1.06.23,1.13.22,1.13.23,1.13.15,1.13.08,1.21.07,1.2.08H184l1.13-.08,1.2-.15,1.13-.15,1.13-.15,1.13-.23,1.06-.22,1.13-.3,1-.31,1-.3,1-.37.91-.46.9-.37.91-.53.83-.45.75-.53.75-.53.68-.52.6-.61.53-.6.53-.6.45-.61.38-.67.38-.61.3-.68.15-.67.15-.68.15-.68v-.6m-31.65-4.6.3.15.83.3.9.3,1,.23.91.23,1,.22,1,.15,1.05.08,1,.15h3.09l1.06-.08,1-.07,1.05-.15,1-.15,1-.23.9-.23.91-.3.9-.3.83-.3.83-.38.75-.45.76-.38.68-.45.67-.45.53-.53.53-.52.45-.46m-24.64-26.45.68.15,1.05.3,1.13.23,1.13.15,1.21.15,1.13.15,1.21.08h1.13l1.2.07,1.21-.07,1.2-.08,1.13-.07,1.21-.15,1.13-.15,1.13-.23,1-.23,1.13-.3,1.06-.3,1-.3,1-.38,1-.37.91-.46.83-.45.9-.53.76-.45.75-.53.68-.6.68-.53.52-.6.38-.38m-29.54,5.66.9.22,1.06.23,1.13.22,1.13.23,1.13.15,1.13.08,1.21.07,1.2.08h1.13l1.21-.08,1.13-.07,1.2-.08,1.13-.15,1.13-.15,1.13-.23,1.06-.22,1.13-.3,1-.3,1-.38,1-.38.91-.38.9-.45.91-.45.83-.45.75-.53.75-.53.68-.52.6-.61.53-.6.53-.6m-29.54,5.2.9.22,1.06.23,1.13.23,1.13.22,1.13.15,1.13.08,1.21.07,1.2.08h1.13l1.21-.08,1.13-.07,1.2-.08,1.13-.15,1.13-.15,1.13-.23,1.06-.22,1.13-.3,1-.3,1-.38,1-.38.91-.37.9-.46.91-.45.83-.45.75-.53.75-.53.68-.52.6-.61.38-.37m-28.86,3.39.9.22,1.06.31,1.13.22,1.13.15,1.13.15,1.13.15,1.21.08H184l1.13-.08,1.2-.15,1.13-.07,1.13-.23,1.13-.22,1.06-.23,1.13-.23,1-.37,1-.31,1-.37.91-.38.9-.45.91-.45.83-.53.75-.53.75-.53.68-.52.6-.61.53-.6.53-.53m-20.8-23.51H184l1.13-.07,1.2-.15,1.13-.08,1.13-.23,1.13-.22,1.06-.23,1.13-.3,1-.3,1-.3,1-.38.91-.45.9-.38.91-.45.83-.53.75-.52.75-.53.68-.53.6-.6.38-.38M185,190.75h.15l1.2-.08,1.13-.15,1.13-.15,1.13-.23,1.06-.22,1.13-.3,1-.3,1-.38,1-.38.91-.37.9-.46.91-.45.83-.45.75-.53.75-.53.68-.6.6-.53.53-.6.53-.6.45-.68.38-.6.38-.68.3-.68.15-.6.15-.45M89,222.55l.75.15M129,336v.37l.07.68.08.6m43.48-.07.07-.38.15-.68V336m-44.15-22.76-.08.68.08.67.07.68.15.68.15.68.3.68.31.68.37.67.45.61.53.6.53.6.6.61.68.52.75.61.76.52.83.46m0,0,.83.45.9.45,1,.45,1,.38,1,.38,1.05.3,1.06.3,1.13.22,1.13.23,1.13.23,1.13.15,1.21.07,1.13.08,1.2.07h2.34l1.2-.07,1.21-.15,1.13-.08,1.13-.22,1.13-.15,1.13-.31,1.06-.22,1.05-.3,1.06-.38,1-.38,1-.37.91-.46.9-.45L167,323l.76-.53.75-.53.75-.52.61-.61.6-.6.53-.6.45-.6.45-.68.38-.61.22-.67.3-.68.16-.68L173,315l.08-.68v-.67l-.08-.46m-44,1.59v.45l.15.68.23.67.23.68.3.61.37.67.46.61.52.67.53.53.6.6.68.61.68.53.83.52.75.45m0,0,.91.46.83.45,1,.45,1,.38,1,.3,1.06.38,1,.22,1.06.3,1.13.23,1.13.15,1.13.15,1.21.15,1.13.08h3.54l1.2-.08,1.13-.07,1.13-.15,1.14-.23,1.13-.15,1.13-.3,1-.23,1.06-.38,1-.3,1-.37,1-.38.91-.45.83-.45.83-.53.83-.45.67-.61.68-.52.61-.61.6-.52.53-.68.45-.61.37-.6.31-.68.3-.68.22-.67.15-.68.08-.45m-41.22,4.14.3.3.6.61.68.6.68.53.83.52.75.46m0,0,.91.45.83.45,1,.45,1,.38,1,.3,1.06.38,1,.22,1.06.3,1.13.23,1.13.15,1.13.15,1.21.15,1.13.08h3.54l1.2-.08,1.13-.07,1.13-.15,1.14-.23,1.13-.15,1.13-.3,1-.23,1.06-.37,1-.31,1-.37,1-.38.91-.45.83-.45.83-.53.83-.45.67-.61.68-.52.61-.61.37-.37M129,311.24v.46l.07.67.15.68.23.61.23.67.3.68.37.6.46.68.52.61.53.6.6.6.68.53.68.53.83.52.75.53m0,0,.91.45.83.46,1,.37,1,.38,1,.38,1.06.3,1,.3,1.06.22,1.13.23,1.13.23,1.13.15,1.21.07,1.13.08,1.2.07h1.21l1.13-.07,1.2-.08,1.13-.07,1.13-.15,1.14-.15,1.13-.23,1.13-.23,1-.3,1.06-.3,1-.38,1-.37,1-.38.91-.45.83-.45.83-.46.83-.52.67-.53.68-.6.61-.53.6-.6.53-.61.45-.6.37-.68.31-.68.3-.6.22-.68.15-.68.08-.67v-.61M131.52,286.3l.3.3.6.6.68.53.68.53.83.53.75.52m0,0,.91.46.83.45,1,.38,1,.37,1,.38,1.06.3,1,.3,1.06.23,1.13.22,1.13.23,1.13.08,1.21.15,1.13.07,1.2.08h1.21l1.13-.08,1.2-.07,1.13-.08,1.13-.15,1.14-.15,1.13-.23,1.13-.22,1-.3,1.06-.31,1-.37,1-.38,1-.38.91-.45.83-.45.83-.45.83-.53.67-.53.68-.6.61-.53.37-.37m-41.14-8v.45l.07.68.15.68.23.67.23.68.3.61.37.67.46.61.52.6.53.6.6.61.68.52.68.61.83.45.75.53m0,0,.91.45.83.45,1,.38,1,.37,1,.38,1.06.3,1,.3,1.06.3,1.13.16,1.13.22,1.13.15,1.21.08,1.13.07,1.2.08h2.34l1.2-.08,1.13-.15,1.13-.15,1.14-.15,1.13-.23,1.13-.22,1-.3,1.06-.3,1-.31,1-.37,1-.45.91-.38.83-.45.83-.53.83-.53.67-.53.68-.52.61-.61.6-.6.53-.6.45-.61.37-.67.31-.61.3-.67.22-.68.15-.68.08-.68v-.6m-36.93-8.22.16.23.52.53.61.53.6.45.6.45.75.45m0,0,.76.38.75.38.83.37.91.3.9.3.9.23,1,.23,1,.22,1,.15,1,.15,1.06.08h3.09l1-.08,1-.07,1-.15,1-.15,1-.23,1-.22.9-.31.83-.3.91-.3.83-.38.75-.37.68-.45.75-.46.6-.45.61-.53.53-.45.45-.53m-37-16.12v.3l.07.68.08.6m43.48,0,.07-.45.15-.68v-.45m-44.15-22.76-.08.68.08.68.07.67.15.68.15.68.3.68.31.68.37.6.45.6.53.68.53.6.6.53.68.6.75.53.76.53.83.53m0,0,.83.45.9.45,1,.38,1,.37,1,.38,1.05.3,1.06.3,1.13.31,1.13.22,1.13.15,1.13.15,1.21.15,1.13.08H150l1.21.07,1.13-.07,1.2-.08,1.21-.07,1.13-.15,1.13-.15,1.13-.23,1.13-.22,1.06-.31,1.05-.3,1.06-.3,1-.38,1-.37.91-.45.9-.46.83-.52.76-.46.75-.52.75-.61.61-.52.6-.61.53-.6.45-.68.45-.6.38-.68.22-.68.3-.68.16-.67L173,233l.08-.68v-.68l-.08-.38m-44,1.59v.45l.15.68.23.68.23.6.3.68.37.67.46.61.52.6.53.6.6.61.68.52.68.53.83.53.75.53m0,0,.91.45.83.45,1,.38,1,.37,1,.38,1.06.3,1,.3,1.06.23,1.13.23,1.13.22,1.13.15,1.21.08,1.13.07,1.2.08h1.21l1.13-.08,1.2-.07,1.13-.08,1.13-.15,1.14-.15,1.13-.22,1.13-.23,1-.3,1.06-.3,1-.38,1-.3,1-.45.91-.46.83-.45.83-.45.83-.53.67-.53.68-.52.61-.61.6-.6.53-.6.45-.6.37-.68.31-.61.3-.67.22-.68.15-.68.08-.53m-41.22,4.22.3.3.6.61.68.52.68.53.83.53.75.53m0,0,.91.45.83.45,1,.38,1,.37,1,.38,1.06.3,1,.3,1.06.23,1.13.23,1.13.22,1.13.15,1.21.08,1.13.07,1.2.08h1.21l1.13-.08h1.2l1.13-.15,1.13-.15,1.14-.15,1.13-.22,1.13-.23,1-.3,1.06-.3,1-.38,1-.3,1-.45.91-.46.83-.45.83-.45.83-.53.67-.53.68-.52.61-.61.37-.37M129,229.26v.37l.07.68.15.68.23.68.23.67.3.61.37.68.46.6.52.6.53.6.6.61.68.6.68.53.83.53.75.45m0,0,.91.45.83.45,1,.45,1,.38,1,.3,1.06.38,1,.22,1.06.31,1.13.22,1.13.15,1.13.15,1.21.15,1.13.08h3.54l1.2-.08,1.13-.07,1.13-.15,1.14-.23,1.13-.15,1.13-.3,1-.23,1.06-.37,1-.3,1-.38,1-.38.91-.45.83-.45.83-.53.83-.53.67-.52.68-.53.61-.6.6-.61.53-.6.45-.6.37-.61.31-.67.3-.68.22-.68.15-.68.08-.68v-.52m-41.22-25,.3.3.6.6.68.6.68.53.83.53.75.45m0,0,.91.45.83.46,1,.45,1,.37,1,.31,1.06.37,1,.23,1.06.3,1.13.23,1.13.15,1.13.15,1.21.15,1.13.07h3.54l1.2-.07,1.13-.15,1.13-.08,1.14-.22,1.13-.23,1.13-.23,1-.22,1.06-.38,1-.3,1-.38,1-.37.91-.46.83-.45.83-.53.83-.52.67-.53.68-.53.61-.6.37-.38m-41-6.4.07.22.23.68.23.68.3.68.37.6.46.68.52.6.53.6.6.53.68.6.68.53.83.53.75.45m0,0,.91.53.83.45,1,.38,1,.37,1,.38,1.06.3,1,.3,1.06.23,1.13.23,1.13.15,1.13.15,1.21.15,1.13.07,1.2.08h1.21l1.13-.08,1.2-.07,1.13-.08,1.13-.15,1.14-.15,1.13-.22,1.13-.23,1-.3,1.06-.3,1-.38,1-.38,1-.37.91-.46.83-.45.83-.45.83-.53.67-.52.68-.61.61-.53.6-.6.53-.6.45-.68.37-.6.31-.68.3-.6.22-.68.08-.45M43,286.45v.3l.08.68.07.6m-.45-24.34v1.36l.08.68.15.68.15.67.3.68.3.61L44,269l.45.61.53.67.53.61.67.53.61.6.75.53.75.52.83.46m0,0,.83.52.91.45,1,.38,1,.38,1,.38,1.05.3,1.06.3,1.13.3,1.13.15,1.13.23,1.13.15,1.2.15,1.13.07h3.54l1.21-.07,1.21-.08,1.13-.15,1.13-.15,1.13-.23,1.13-.22,1-.3,1.06-.3,1.05-.31,1-.37,1-.45.91-.38.9-.45.83-.53.83-.53.75-.53.68-.52.6-.61.61-.52L85,270l.46-.6.15-.23m-42.58-4v.52l.15.68.23.6.22.68.3.68.38.6.45.68.53.6.53.61.6.6.68.53.75.52.76.53.75.53m0,0,.9.45.91.45.9.38,1,.38,1,.37,1.06.31,1,.3,1.13.22,1.06.23,1.13.23,1.2.15,1.13.07,1.21.08,1.13.07h1.21l1.13-.07,1.2-.08,1.13-.07,1.13-.15,1.21-.16,1-.22,1.13-.23,1.06-.3,1-.3,1-.38,1-.37,1-.38.91-.45.9-.45.75-.46.83-.52.68-.53.68-.6.6-.53.61-.61.52-.6.45-.68.38-.52m-40.16,1,.3.3.6.6.68.53.75.53.76.52.75.53m0,0,.9.45.91.45.9.38,1,.38,1,.37,1.06.31,1,.3,1.13.22,1.06.23,1.13.23,1.2.15,1.13.07,1.21.08,1.13.07h1.21l1.13-.07,1.2-.08,1.13-.07,1.13-.15,1.21-.15,1-.23,1.13-.23,1.06-.3,1-.3,1-.38,1-.37,1-.38.91-.45.9-.45.75-.46.83-.52.68-.53.68-.6.6-.53.45-.38m-41.22-8V262l.08.67.15.68.23.68.22.68.3.6.38.68.45.6.53.61.53.6.6.6.68.53.75.6.76.45.75.53m0,0,.9.45.91.46.9.37,1,.45,1,.31,1.06.3,1,.3,1.13.3,1.06.23,1.13.15,1.2.15,1.13.07,1.21.08,1.13.07h2.34l1.2-.07,1.13-.15,1.13-.08,1.21-.22,1-.23,1.13-.23,1.06-.3,1-.3,1-.3,1-.38,1-.45.91-.38.9-.45.75-.53.83-.52.68-.53.68-.53.6-.6.61-.6.52-.61.45-.6.38-.68L86,265M45.54,236.64l.3.3.6.6.68.53.75.6.76.46.75.52m0,0,.9.46.91.45.9.38,1,.37,1,.38,1.06.3,1,.3,1.13.3,1.06.15,1.13.23,1.2.15,1.13.08,1.21.07,1.13.08h2.34l1.2-.08,1.13-.15L70,243l1.21-.15,1-.23,1.13-.22,1.06-.3,1-.31,1-.3.15-.07M43,228.8v.38l.08.68.15.68.23.67.22.68.3.68.38.6.45.68.53.6.53.61.6.53.68.6.75.53.76.52.75.46m0,0,.9.52.91.38.9.45,1,.38,1,.38,1.06.3,1,.3,1.13.22,1.06.23,1.13.15,1.2.15,1.13.15,1.21.08h3.47l1.2-.08,1.13-.07,1.13-.15,1.21-.15,1-.23,1.13-.3,1.06-.23h.07M49.83,220.51l.23.23.45.53.6.52.61.46.6.45.75.45m0,0,.76.45.75.38.83.3.9.38.91.22.9.31,1,.22,1,.15,1,.15,1,.15,1.05.08h.68M43,204.39v.37l.08.68.07.53m-.45-24.34V183l.08.67.15.68.15.68.3.68.3.68.38.6.45.68.53.6.53.6.67.61.61.52.75.61.75.45.83.53m22.23,3.16.76-.07,1.13-.31,1-.22,1.06-.3,1.05-.38,1-.38,1-.37.91-.46.9-.45.83-.45.83-.53.75-.52.68-.53.6-.6.61-.61L85,188l.46-.6.15-.23m-36.48,4.45L50,192l.91.45,1,.45,1,.38,1,.38,1.05.3,1.06.3,1.13.23,1.13.22,1.13.23,1.13.15,1.2.07,1.13.08,1,.07m-20.72-12.2v.45l.15.68.23.68.22.67.3.61.38.67.45.61.53.6.53.6.6.61.68.6.75.53.76.52.75.46m21.78,3.16,1-.15,1.13-.3,1.06-.23,1-.37,1-.31,1-.37,1-.38.91-.45.9-.45.75-.53.83-.53.68-.53.68-.52.6-.61.61-.6.52-.6.45-.6.38-.61m-36.32,5,.9.45.91.45.9.45,1,.38,1,.3,1.06.38,1,.22,1.13.3,1.06.23,1.13.15,1.2.15,1.13.15,1.21.08h.75m-18.23-7.69.3.3.6.61.68.6.75.53.76.52.75.46m20.42,3.39H70l1.21-.23,1-.15,1.13-.3,1.06-.23,1-.37,1-.31,1-.37,1-.38.91-.45.9-.45.75-.53.83-.53.68-.53.68-.52.6-.61.45-.37m-34.81,2.94.9.45.91.45.9.45,1,.38,1,.3,1.06.38,1,.22,1.13.31,1.06.22,1.13.15,1.2.15,1.13.15,1.21.08h.75M43,179.59v.46l.08.68.15.67.23.61.22.67.3.68.38.61.45.67.53.61.53.6.6.6.68.53.75.53.76.52.75.53m17.56,3.62.75-.08,1.13-.07,1.13-.15,1.21-.15,1-.23,1.13-.22L74.4,191l1-.3,1-.37,1-.38,1-.38.91-.45.9-.45.75-.45.83-.53.68-.53.68-.6.6-.53.61-.6.52-.61.45-.67.38-.61L86,183m-36.62,5.57.9.45.91.46.9.37,1,.38,1,.38,1.06.3,1,.3,1.13.23,1.06.22,1.13.23,1.2.15,1.13.07,1.21.08h.75M45.54,154.65l.3.3.6.53.68.6.75.53.76.53.75.45m0,0,.9.53.91.45.9.38,1,.37,1,.38,1.06.3,1,.3,1.13.23,1.06.23,1.13.15,1.2.15,1.13.15,1.21.07,1.13.08h1.21l.37-.08m-22.61-13,.08.23.23.68.22.67.3.61.38.67.45.61.53.6.53.6.6.61.68.52.75.53.76.53.75.53m0,0,.9.45.91.45.9.38,1,.37,1,.38,1.06.3,1,.3,1.13.31,1.06.15,1.13.22,1.2.15,1.13.08.46.07M85.93,293.08v.3l.07.68.15.61m-.45-24.35-.07.68v.68l.07.68.15.68.23.68.22.67.38.68.38.61.45.67L88,277l.61.6.6.6.68.53.67.53.83.52.76.53m0,0,.9.45.91.46.9.37,1,.38,1,.38.68.22M86,271.83l.08.45.15.68.15.68.3.6.3.68.38.68.45.6.45.61.61.6.6.6.68.53.68.53.75.52.83.53m0,0,.83.45.9.46.91.37,1,.38,1,.38.45.15m-9-6.18.3.3.6.6.68.53.68.53.75.52.83.53m0,0,.83.45.9.46.91.37,1,.38,1,.38.45.15M86,268.29v.38l.08.68.15.67.15.68.3.68.3.68.38.6.45.6.45.68.61.6.6.53.68.61.68.52.75.53.83.45m0,0,.83.45.9.46.91.45,1,.38,1,.3.45.15M89,243.72l.45.46.68.6.68.53.75.52.83.46m0,0,.83.45.9.45.91.45,1,.38,1,.3,1,.38,1.13.22,1.06.3h.15M89,241.84l.45.45.68.53.68.53.75.52.83.53m0,0,.83.45.9.46.91.37,1,.38,1,.38,1,.3,1.13.3,1.06.23,1,.22m-8.51-20.27.22.23.53.52.53.46.6.52.68.46.68.37m0,0,.75.45.6.31M85.7,188.34l-.07.6v.75l.07.68.15.68.23.68.22.6.38.68.38.68.45.6.45.6.61.61.6.6.68.6.67.53.83.53.76.45m0,0,.9.53.91.37.9.45,1,.38,1,.38.68.22M86,189.77l.08.45.15.68.15.68.3.67.3.68.38.61.45.67.45.61.61.6.6.53.68.6.68.53.75.53.83.45m0,0,.83.52.9.38.91.45,1,.38,1,.38.45.07m-9-6.1.3.3.6.53.68.6.68.53.75.53.83.45m0,0,.83.53.9.37.91.45,1,.38,1,.38.45.07M86,186.23v.45l.08.68.15.67.15.68.3.61.3.67.38.68.45.61.45.6.61.6.6.6.68.53.68.53.75.53.83.52m0,0,.83.46.9.45.91.37,1,.38,1,.38.45.15M11.47,268.29v.3l.08.68.15.6m-.45-24.34-.08.68v.68l.08.68.15.68.23.67.22.68.38.6.38.68.45.61.45.6.6.6.61.6.67.61.68.52.83.53.75.45m0,0,.91.53.9.45.91.38,1,.38,1,.37,1.06.31,1.05.3,1.06.22,1.13.23,1.13.23L29,259l1.13.15,1.21.07h3.54l1.21-.07,1.13-.08,1.2-.15,1.13-.15,1.13-.23,1.06-.22,1.13-.3H43M11.55,247l.08.53.15.6.15.68.3.68.3.68.38.6.45.68.45.6.6.61.61.52.67.61.68.52.76.53.83.53m0,0,.82.45.91.45.9.38,1,.38,1.06.37,1,.3,1.13.31,1.05.22,1.13.23,1.13.15,1.13.15,1.13.15,1.21.08,1.21.07h1.13l1.2-.07,1.13-.08,1.21-.07,1.13-.16,1.13-.15,1.13-.22,1.05-.23,1.13-.3m-28.86-6.41.3.31.61.6.67.53.68.52.76.53.83.53m0,0,.82.45.91.45.9.38,1,.38,1.06.37,1,.31,1.13.3,1.05.22,1.13.23,1.13.15,1.13.15,1.13.15,1.21.08,1.21.07h1.13l1.2-.07,1.13-.08,1.21-.07,1.13-.16,1.13-.15,1.13-.22,1.05-.23,1.13-.3M11.55,243.42v.45l.08.68.15.68.15.68.3.68.3.6.38.68.45.6.45.6.6.61.61.6.67.53.68.6.76.45.83.53m0,0,.82.45.91.45.9.38,1,.38,1.06.37,1,.31,1.13.3,1.05.3,1.13.15,1.13.23,1.13.15,1.13.07,1.21.08,1.21.07h2.33l1.13-.07,1.21-.15,1.13-.15,1.13-.16,1.13-.22,1.05-.23,1.13-.3M14.11,218.48l.3.3.61.6.67.53.68.53.76.53.83.52m0,0,.82.46.91.45.9.37,1,.38,1.06.38,1,.3,1.13.3,1.05.23,1.13.22,1.13.23,1.13.15,1.13.08,1.21.07,1.21.08h2.33l1.13-.08L37.4,225l1.13-.15,1.13-.15,1.13-.23,1.05-.22L43,223.9l.68-.22m-32.1-13V211l.08.68.15.68.15.67.3.68.3.68.38.6.45.61.45.67.6.61.61.52.67.61.68.52.76.53.83.45m0,0,.82.46.91.45.9.45,1,.38,1.06.3,1,.38,1.13.3,1.05.22,1.13.23,1.13.15,1.13.15,1.13.15,1.21.08h3.54l1.13-.08,1.21-.07,1.13-.15,1.13-.23,1.13-.15,1.05-.3L43,222l1-.3.38-.15m-26-19.22.23.23.53.53.52.52.61.46.67.45.68.45m0,0,.76.45.83.38.82.3.83.38.91.22,1,.3.9.23,1,.15,1,.15,1.06.15,1,.08,1,.07h1.06l1-.07,1.06-.08,1-.07,1.05-.15,1-.15,1-.23.91-.23.9-.3.91-.3.67-.22M11.47,186.23v.3l.08.68.15.6m-.45-24.34-.08.68v.67l.08.68.15.68.23.68.22.68.38.68.38.6.45.68.45.6.6.6.61.61.67.52.68.53.83.53.75.53m0,0,.91.45.9.45.91.45,1,.38,1,.3,1.06.38,1.05.3,1.06.22,1.13.23,1.13.15L29,177l1.13.07,1.21.08,1.13.07h2.41l1.21-.07,1.13-.15,1.2-.08,1.13-.22,1.13-.15,1.06-.31L42.9,176l.07-.08M11.55,165l.08.45.15.68.15.67.3.68.3.61.38.67.45.61.45.6.6.6.61.6.67.53.68.6.76.53.83.45m0,0,.82.46.91.45.9.45,1,.38,1.06.3,1,.38,1.13.22,1.05.3,1.13.23,1.13.15,1.13.15,1.13.15,1.21.08h3.54l1.13-.08,1.21-.15,1.13-.07,1.13-.23,1.13-.23,1.05-.22,1.13-.23v-.07m-28.86-6.41.3.3.61.61.67.6.68.53.76.52.83.45m0,0,.82.46.91.45.9.45,1,.38,1.06.3,1,.38,1.13.22,1.05.3,1.13.23,1.13.15,1.13.15,1.13.15,1.21.08h3.54l1.13-.08,1.21-.15,1.13-.07,1.13-.23,1.13-.23,1.05-.22,1.13-.23v-.07M11.55,161.43v.46l.08.6.15.68.15.67.3.68.3.68.38.6.45.68.45.61.6.6.61.53.67.6.68.53.76.52.83.46m0,0,.82.52.91.46.9.37,1,.38,1.06.38,1,.3,1.13.3,1.05.22,1.13.23,1.13.15,1.13.15,1.13.15,1.21.08,1.21.07h1.13l1.2-.07,1.13-.08,1.21-.07,1.13-.15,1.13-.15,1.13-.23,1.05-.23,1.13-.3M14.11,136.49l.3.3.61.53.67.6.68.53.76.53.83.45m0,0,.82.53.91.37.9.46,1,.37,1.06.38,1,.3,1.13.3,1.05.23,1.13.22,1.13.15,1.13.16,1.13.15,1.21.07h1.21l1.13.08.37-.08m-22.53-13,.08.23.15.67.3.61.3.68.38.67.45.61.45.6.6.6.61.61.67.52.68.53.76.53.83.53m0,0,.82.45.91.45.9.38,1,.37,1.06.38,1,.3,1.13.3,1.05.23,1.13.22,1.13.23,1.13.15,1.13.08.46.07M97.46,317.88v.37l.07.68.15.53m-.52-24.34v1.35l.07.68.15.68.23.68.22.68.38.67.38.61.45.68.45.6.6.6.61.6.68.53.67.6.83.46.76.52m0,0,.9.46.91.45.9.45,1,.38,1,.3,1,.38,1.13.3,1.06.22,1.13.23,1.13.23,1.21.15,1.13.07,1.2.08,1.13.07h2.41l1.13-.07,1.21-.15,1.13-.08,1.21-.23,1.13-.15,1-.3,1.13-.22.08-.08M97.53,296.62l.08.46.07.67.23.68.23.68.37.6.38.68.45.61.45.6.61.6.6.6.6.61.76.52.75.53.83.45m0,0,.83.46.9.45.91.45,1,.38,1,.3,1,.38,1,.22,1.14.3,1.13.23,1.13.15,1.13.15,1.13.15,1.2.08H121l1.13-.08,1.14-.15,1.2-.08,1.13-.22,1.13-.23,1.06-.22,1-.23.08-.07m-28.87-6.41.31.3.6.6.6.61.76.52.75.53.83.45m0,0,.83.46.9.45.91.45,1,.38,1,.3,1,.38,1,.22,1.14.3,1.13.23,1.13.15,1.13.15,1.13.15,1.2.08H121l1.13-.08,1.14-.15,1.2-.07,1.13-.23,1.13-.15,1.06-.3,1-.23.08-.07M97.53,293.08v.45l.08.68.07.61.23.67.23.68.37.68.38.6.45.68.45.6.61.61.6.6.6.53.76.53.75.52.83.53m0,0,.83.45.9.45.91.38,1,.38,1,.37,1,.31,1,.3,1.14.22,1.13.23,1.13.23,1.13.07,1.13.15,1.2.08,1.13.07h1.21l1.2-.07,1.13-.08,1.14-.07,1.2-.15,1.13-.15,1.13-.23,1.06-.23,1-.3H129m-28.87-36.32.31.3.6.53.6.6.76.53.75.53.83.45m0,0,.83.53.9.37.91.45,1,.38,1,.38,1,.3,1,.3,1.14.23,1.13.22,1.13.15,1.13.15,1.13.16,1.2.07h1.13l1.21.08,1.2-.08,1.13-.07,1.14-.08,1.2-.15,1.13-.15,1.13-.23,1.06-.22,1-.3.76-.23M97.53,260.23v.45l.08.68.07.68.23.67.23.61.37.67.38.68.45.61.45.6.61.6.6.6.6.53.76.53.75.53.83.52m0,0,.83.46.9.45.91.38,1,.37,1,.38,1,.3,1,.3,1.14.23,1.13.22,1.13.23,1.13.15,1.13.08,1.2.07,1.13.08H121l1.13-.08,1.14-.15,1.2-.15,1.13-.15,1.13-.23,1.06-.22,1-.3,1.06-.31.37-.07m-26-19.22.22.23.53.53.53.52.6.46.68.45.68.45m0,0,.75.38.83.37.83.38.83.3.9.3.9.23,1,.23,1,.22,1,.15,1.06.08,1,.15h3.09l1-.08,1-.07,1.06-.15,1-.15,1-.23.9-.23.91-.3.9-.3.68-.22M97.46,235.89v.3l.07.68.15.6m-.52-24.34v1.36l.07.67.15.68.23.68.22.68.38.6.38.68.45.6.45.68.6.6.61.53.68.6.67.53.83.53.76.53m0,0,.9.45.91.45.9.38,1,.37,1,.38,1,.3,1.13.3,1.06.3,1.13.23,1.13.15,1.21.15,1.13.15,1.2.08h1.13l1.21.07,1.2-.07,1.13-.08,1.21-.07,1.13-.15,1.21-.15,1.13-.23,1-.23,1.13-.3H129M97.53,214.64l.08.45.07.68.23.67.23.61.37.68.38.6.45.68.45.6.61.6.6.61.6.52.76.53.75.53.83.53m0,0,.83.45.9.45.91.38,1,.37,1,.38,1,.3,1,.3,1.14.23,1.13.22,1.13.23,1.13.15,1.13.08,1.2.07,1.13.08h1.21l1.2-.08,1.13-.07,1.14-.08,1.2-.15,1.13-.15,1.13-.23,1.06-.22,1-.3H129m-28.87-6.41.31.3.6.61.6.52.76.53.75.53.83.53m0,0,.83.45.9.45.91.38,1,.37,1,.38,1,.3,1,.3,1.14.23,1.13.23,1.13.22,1.13.15,1.13.08,1.2.07,1.13.08h1.21l1.2-.08,1.13-.07,1.14-.08,1.2-.15,1.13-.15,1.13-.23,1.06-.22,1-.3H129M97.53,211v.45l.08.68.07.68.23.68.23.67.37.61.38.67.45.61.45.6.61.6.6.61.6.6.76.53.75.52.83.46m0,0,.83.45.9.45.91.45,1,.38,1,.3,1,.38,1,.22,1.14.31,1.13.22,1.13.15,1.13.15,1.13.15,1.2.08H121l1.13-.08,1.14-.15,1.2-.07,1.13-.23,1.13-.22,1.06-.23,1-.23.08-.07m-28.87-36.32.31.3.6.6.6.53.76.6.75.45.83.53m0,0,.83.45.9.45.91.46,1,.37,1,.3,1,.31,1,.3,1.14.3,1.13.22,1.13.16,1.13.15,1.13.07,1.2.15h2.72m-22.54-13V180l.23.68.23.68.37.68.38.6.45.68.45.6.61.6.6.53.6.6.76.53.75.53.83.45m0,0,.83.53.9.37.91.46,1,.37,1,.38,1,.3,1,.3,1.14.23,1.13.23,1.13.15,1.13.15,1.13.15h.45m85.53,65V212.22m0,43.56h0m25.17-58.1v43.63m-25.17,14.47V212.22m25.17,29.09-25.17,14.47m0-43.56,25.17-14.54m0,0h0m-25.17,14.54,25.17-14.54m-25.17,14.54h0M89,248.55V204.91m-.08,43.64H89m0-43.64L63.85,190.37m-.08.08.08-.08m25.09,14.54H89M63.77,190.45V234m0,0,25.17,14.55m0,0V204.91m0,0L63.77,190.45M9,355V333.47m.07,21.71h0v-.08H9V355m260.73,13.26v.07l-.07.08m.07-21.63v21.48M9.06,333.62v21.56m0,0L143,432.49m15.75,0,110.93-64.05m0,0V347M143,432.49V410.94m.23,21.55H143m15.75,0h-.22m.22-21.55v21.55M143.2,411v21.47m0,0h15.3m0,0V411M9.06,324.58l2.49-1.43m-2.49,1.43H9v.15m0,8.74v-8.74m0,8.74v.15h.07M143,410.94,9.06,333.62M143,410.94h.08V411h.15m15.3,0H143.2m15.3,0h.15l.07-.08m110.93-64-110.93,64m110.93-64h0v-.07h.07v-.08m0-8.81v8.81m0-8.81h0v-.08h-.07v-.08m-2.49-1.43,2.49,1.43m-.45,8.9-110.78,64m0,0H143.27m0,0L9.52,333.47m0,0v-8.74m0,0,2-1.13m255.61,13.27,2,1.2m0,0v8.67M9.06,128.65v-.07H9v-.08m0,0V107m.37-9.12-.07.08H9.14L9.06,98,9,98.06v.07M9,107V98.13m.37,8.52H9.29l-.08.07H9.06v.08l-.07.07V107m0,0H9V107l.07.07m260.66,34.67h0v.07h-.07v.08m.07-21.63v21.48m0-30.3v-.15h-.07v-.07h-.08l-.07-.08h-.15m.37.3v8.82m-.07.15v-.08h.07v-.07m0,0v-.15l-.07-.08-.08-.07h-.22M9.06,128.65,143,205.89M9.06,107.1v21.55m149.66,77.24,110.93-64m0,0V120.44M158.72,205.89V206h-.22m.22-21.55v21.47M143.2,206H143v-.08m0,0V184.42M9.36,106.65l-.07.07H9.21v.08l-.07.07V107H9.06v.15M143,184.42,9.06,107.1m260.59,13.34-110.93,64m110.93-64-.08-.08v-.22l-.07-.08h-.08V120h-.07M143.2,184V184h-.08v.08l-.07.07-.08.08v.15m0,0h.15v.07h.08m15.3,0h.07l.08-.07h.07m-.22-.45.07.07.08.08v.07h.07v.23m-.22-.45,110.85-64m0,0v-8.82m0,0L135.44,33.85m0,0H120.22m0,0L9.36,97.83m0,0v8.82m0,0L143.2,184m0,22h15.3m0,0V184.49m-15.3,0V206m0-22v.52m15.3,0H143.2m15.3-.52v.52M143.2,184h15.3m90.35,200.45,16.35,9.42m0,0,12.59-7.24m-15.07-10.17,2.48,1.43m0,0,12.59-7.23m-69.18,55.91,12.51-7.23m-28.86-2.19,16.35,9.42m0-16,12.51-7.23m-15.07,5.8,2.56,1.43m-56.67,48.69L164.53,452M.92,372.06l151,87.19M.92,356.08l151,87.19m0,0L164.53,436m102.93-88.25.08-6m-3,4.9.53-.53.53-.67.38-.68.45-.61.3-.75.3-.68.23-.68.15-.67.07-.76.08-.68v-.75l-.08-.68-.15-.68-.15-.6m0,1.51V309.36m-2.64,4.52.53-.6.53-.6L266,312l.45-.68.3-.68.3-.68.23-.75.15-.68.07-.75.08-.68v-.68l-.08-.75-.15-.68-.15-.68-.07-.15m.07,1.81v-.83l-.07-1-.15-1.05-.08-.46m0,0-.15-1-.3-1.2-.38-1.13-.38-1.13-.45-1.13-.45-1.13-.53-1.06-.6-1.05-.3-.53m-3,4.37.68-.75.76-1.06.67-1.05.68-1.06.61-1.13.52-1.21.46-1.13.45-1.2.37-1.21.38-1.2.23-1.21M82.76,375.75l.23-.15.6-.53.53-.6.53-.53.45-.6.45-.6.3-.68h.08m-43.26-25.4.08,5.95m41.37-1.05.53-.6.52-.61.46-.67.22-.38M43,342.14l-.07.23-.15.67-.08.76v1.35l.08.76.15.68.15.67.23.68.3.68.37.68.38.68.45.6.53.6.23.3M43,314.26v29.39m44.09-32.78v-.3l-.15-.68-.15-.68-.08-.23m-2.56,9.72.53-.52.52-.68.46-.68.22-.38M43.12,309l-.22.53-.15.75-.08.68v1.43l.08.68.15.68.15.68.23.68.3.68.37.67.38.68.45.6.53.68.23.3m41.22-7.91V310L86.68,309l-.07-1-.15-.52m-43.18,0-.08.75-.15,1L43,310.34v.45m43.49-3.31-.16-.91-.3-1.2-.3-1.21L85.32,303l-.45-1.13-.52-1.13-.53-1.06-.53-1-.38-.53m-36.09,0-.08.15-.6,1.13-.6,1.13L45,301.67l-.45,1.21-.38,1.2-.38,1.21-.3,1.21-.22,1M80,302.58l.61-.83.75-1,.68-1.06.68-1.13.6-1.13.53-1.13.53-1.2L84.8,294l.37-1.21.31-1.28.22-1.13m-41.67,0,.07.15.23,1.21.38,1.13.3,1.2.45,1.13.45,1.13.53,1.06.53,1.05.6,1.06.68,1,.68.9.68.91.22.3m186-9.57.91.22,1.05.3,1.06.16,1,.22,1.13.15,1.06.08,1.13.07,1.05.08h1.13l1.13-.08h1.13l1.06-.07,1.13-.15,1-.15,1.06-.15,1.05-.23,1.06-.23,1-.3,1-.3,1-.3.9-.38.91-.37.83-.46.83-.45.82-.45.76-.45.68-.53.6-.53.68-.53.52-.6.53-.53.45-.6.38-.6.38-.68.3-.6.23-.61.22-.67v-.08m.23-1.66.3-21.78m-3,4.9.53-.6.53-.6.38-.68.45-.68.3-.68.3-.68.23-.75.15-.68.07-.68.08-.75v-.68l-.08-.68-.15-.75-.15-.53m0,1.51V227.37m-2.64,4.45.53-.53.53-.68.38-.68.45-.67.3-.68.3-.68.23-.68.15-.75.07-.68.08-.68v-.75l-.08-.68-.15-.68-.15-.68-.07-.22m.07,1.8v-.75l-.07-1.05-.15-1-.08-.53m0,0-.15-.91-.3-1.2-.38-1.21-.38-1.13L265.2,215l-.45-1.13-.53-1-.6-1.06-.3-.53m-3,4.45.68-.83.76-1,.67-1,.68-1.13.61-1.13.52-1.13.46-1.21.45-1.13.37-1.28.38-1.21.23-1.13M236,366l.08-6m-2.94,5,.45-.6.53-.68.45-.61.38-.67.38-.76.22-.68.23-.67.15-.68.15-.76v-1.43l-.08-.68-.15-.67-.15-.61m0,1.51V327.52M233.1,332l.45-.6.53-.6.45-.68.38-.68.38-.68.22-.68.23-.75.15-.68L236,326v-1.43l-.08-.75-.15-.68-.15-.68-.07-.15m.07,1.81v-.83l-.07-1-.08-1.05-.15-.46m0,0-.15-1-.3-1.2-.3-1.13-.38-1.13-.45-1.13-.53-1.13-.53-1.06L232.2,312l-.38-.53m-2.94,4.37.6-.75.76-1.06.75-1,.6-1.06.61-1.13.52-1.2.53-1.13.45-1.21.38-1.21.3-1.2.23-1.21m-30.15,80.48.16-6m-3,5,.53-.6.45-.68.45-.6.46-.68.3-.68.3-.75.15-.68.22-.68.08-.75.08-.68-.08-.68-.08-.75-.07-.68-.15-.61m0,1.51V345.68m-2.64,4.52.53-.6.45-.6.45-.68.46-.68.3-.68.3-.68.15-.75.22-.68.08-.68.08-.75-.08-.68-.08-.68-.07-.75-.23-.68v-.15m.08,1.81v-.83l-.08-1-.15-1.05-.07-.45m0,0-.23-1-.22-1.13-.38-1.21-.38-1.13-.45-1.13-.45-1.13-.53-1.06-.6-1-.3-.53m-3,4.37.68-.75.75-1.06.68-1.05.68-1.06.6-1.13.53-1.13.45-1.2.45-1.21.38-1.2.3-1.21.3-1.21M173,402.28l.08-6m-44.54,0,.15,6m41.37-1.06.53-.6.53-.68.45-.6.38-.68.3-.68.3-.75.22-.68.16-.68.07-.75.08-.68v-.68L173,393l-.15-.68-.15-.6m-43.78,0-.08.22-.15.75-.07.68-.08.76.08.67.07.68.08.68.22.75.23.68.3.68.38.6.37.68.46.68.52.6.23.3m41.22-7.91V363.84m-43.78,0v29.39m41.14-24.87.53-.6.53-.6.45-.68.38-.68.3-.68.3-.67.22-.76L173,363l.07-.67.08-.76v-.68l-.08-.67-.15-.76-.15-.68-.08-.15M129,358.57l-.15.6-.15.68-.07.68-.08.75.08.68.07.75.08.68.22.68.23.68.3.68.38.67.37.61.46.67.52.61.23.3m41.22-7.84v-.83l-.08-1-.15-1.05-.07-.45m-43.18,0-.15.75-.08,1.05-.07,1v.53m43.48-3.31-.15-1L172,355l-.31-1.21-.45-1.13-.37-1.13-.53-1.13-.53-1.06-.53-1.05-.37-.6m-36.1.07-.08.15-.6,1.06-.6,1.13-.53,1.2-.45,1.13-.45,1.21-.3,1.21-.31,1.28-.22,1m36.62-5,.68-.75.75-1.06.68-1.05.68-1.06.6-1.13.53-1.13.53-1.2.37-1.21.46-1.2.3-1.21.22-1.21M130,340l.08.16.22,1.2.3,1.21.38,1.13.45,1.2.46,1.06.52,1.13.53,1,.6,1,.68,1,.68,1,.68.91.22.22m68.58-41,.9.3,1,.23,1.06.15,1.13.22,1,.15,1.13.08,1.06.07,1.13.08H215l1.14-.08,1.13-.07,1.05-.15,1.06-.15,1.13-.15,1-.23,1-.23,1.06-.3,1-.3.9-.3,1-.38.83-.37.9-.46.83-.37.75-.53.76-.45.68-.53.67-.53.61-.52.53-.61.52-.52.45-.61.46-.6.3-.6.3-.68.3-.6.15-.68v-.08m.23-1.66.3-21.77m-2.94,4.89.45-.6.53-.6.45-.68.38-.68.38-.68.22-.67.23-.76.15-.68.15-.67v-1.44l-.08-.67-.15-.76-.15-.53m0,1.51V245.53M233.1,250l.45-.53.53-.68.45-.68.38-.67.38-.68.22-.68.23-.68.15-.75L236,244v-1.43l-.08-.68-.15-.68-.15-.68-.07-.22m.07,1.81v-.76l-.07-1.05-.08-1-.15-.53m0,0-.15-.9-.3-1.21-.3-1.21-.38-1.13-.45-1.13-.53-1-.53-1.13-.52-1.06-.38-.52m-2.94,4.44.6-.83.76-1,.75-1,.6-1.13.61-1.13.52-1.13.53-1.21.45-1.13.38-1.2.3-1.29.23-1.13m1.2-10.62.91.22,1.05.23,1.06.23,1,.15L241,212l1.06.15,1.13.07h3.31l1.13-.07,1.06-.08,1.13-.07,1-.15,1.06-.23,1.05-.22,1.06-.23,1-.23,1-.3,1-.37.9-.38.91-.38.83-.38.83-.45.82-.45.76-.53.68-.45.6-.53.68-.6.52-.53.53-.6.45-.6.38-.61.38-.6.3-.6.23-.68.22-.6v-.15m.23-1.59.3-21.85m-3,5,.53-.6.53-.68.38-.6.45-.68.3-.68.3-.75.23-.68.15-.68.07-.75.08-.68v-.75l-.08-.68-.15-.68-.15-.6m0,1.51V145.31m-2.64,4.52.53-.6.53-.61.38-.68.45-.67.3-.68.3-.68.23-.75.15-.68.07-.68.08-.68M227.45,227.6l.75-.3.83-.46.75-.45.76-.45.68-.53.67-.53.61-.52.53-.61.52-.6.45-.6.46-.6.3-.61.3-.6.3-.68.15-.6v-.15m.23-1.58.3-21.86m-2.94,5,.45-.61.53-.68.45-.6.38-.68.38-.67.22-.76.23-.68.15-.67.15-.76v-1.35l-.08-.76-.15-.68-.15-.6m0,1.51V163.47M233.1,168l.45-.6.53-.61.45-.67.38-.68.38-.68.22-.68.23-.75.15-.68L236,162v-.68M97.16,378.09l.07,6m.3-10.55-.07.23-.15.75-.15.68v1.43l.07.68.15.68.15.75.23.68.3.68.38.6.37.68.46.68.52.6.3.3m-2.56-37.3v29.39m.08-34.66-.15.6-.15.68-.15.68v1.43l.07.68.15.75.15.68.23.68.3.67.38.68.37.61.46.67.52.61.3.3M97.83,339l-.15.75-.15,1v1.58m3.85-12.66-.15.08-.61,1.13L100,332l-.53,1.2L99,334.3l-.38,1.21-.37,1.2L98,338l-.16,1m.76-17.19v.15l.3,1.21.3,1.21.38,1.13.37,1.2.53,1.06.45,1.13.61,1.05.6,1,.6,1,.68,1,.68.91.23.22m-93.15-5.5.08,5.95m.3-10.47-.08.23-.15.67-.07.68-.08.76V327l.08.76.15.68.15.67.3.68.23.68.37.68.38.6.53.68.45.6.3.3M11.55,296.1v29.39m.08-34.67-.16.53-.15.68-.07.75-.08.68v.75l.08.68.15.68.15.68.3.68.23.67.37.68.38.68.53.6.45.68.3.23m-2.26-11.16-.15.76-.07,1.05-.08,1v.53M15.39,280l-.07.15-.68,1.13-.53,1.13-.53,1.13-.52,1.21-.38,1.2-.38,1.21-.3,1.21-.15,1m.76-17.1v.15l.3,1.21.3,1.13.37,1.2L14,277l.53,1.13.45,1.06.6,1,.61,1.06.6,1,.68.9.75.91.15.3m67.82,92.31.08.38.23.6.07.22m-.9-24.64.3,21.78m.07-26.3-.07.23-.15.68-.08.75-.07.68v.75l.07.68.15.68.15.68.3.67.23.68.38.68.37.68.53.6.45.68.31.23M86,320.89v29.39m.08-34.67-.15.53-.15.76-.08.67-.07.76V319l.07.67.15.68.15.76.3.67.23.68.38.6.37.68.53.68.45.6.31.31M86.3,314.18l-.15.76-.07,1L86,317v.45m3.85-12.66-.08.15L89.09,306l-.52,1.13L88,308.3l-.53,1.21-.38,1.21-.37,1.2-.3,1.21-.16,1.05M87.06,297v.15l.3,1.21.3,1.2.38,1.13.37,1.13.53,1.13.45,1.06.61,1.05.6,1.06.6,1,.68,1,.75.9.16.23m80.1,20.12.9.3,1.06.23,1.05.15,1.06.22,1,.15,1.13.08,1.14.08,1.05.07h2.26l1.06-.07,1.13-.08,1.13-.15,1.05-.15L189,330l1-.23,1.06-.22,1-.31,1-.3,1-.3.9-.38.9-.37.83-.45.83-.38.83-.53.68-.45.75-.53.61-.53.6-.52.6-.53.53-.6.45-.61.38-.6.37-.6.31-.68.22-.6.15-.68.08-.08m.15-1.65.38-21.78m-3,4.9.53-.53.45-.68.45-.68.46-.68.3-.68.3-.67.15-.68.22-.76.08-.67.08-.76-.08-.68-.08-.67-.07-.76-.15-.52m0,1.5V263.69m-2.64,4.52.53-.6.45-.68.45-.67.46-.61.3-.75.3-.68.15-.68.22-.68.08-.75.08-.68-.08-.75-.08-.68-.07-.68-.23-.68v-.22m.08,1.81v-.76l-.08-1.05-.15-1-.07-.45m-1.66-5.66-.45-1.05-.53-1.13-.6-1.06-.3-.52m3.54,9.42-.23-1-.15-.91M197.38,252l.68-.83.75-1,.68-1,.68-1.13.6-1.13.53-1.13.45-1.13.45-1.21.08-.22m-29.39,4.14.9.23,1.06.22,1.05.23,1.06.15,1,.15,1.13.15,1.14.08h3.31l1.06-.08,1.13-.07,1.13-.08,1.05-.15,1.06-.23,1-.15,1.06-.3,1-.22,1-.31,1-.37.9-.3.9-.46.83-.37.83-.46.83-.45.68-.45.75-.53.61-.52.6-.53.6-.6.53-.61.15-.22m2.26-30.15-.08-.15-.07-.68-.15-.6M201.6,219l.53-.61.15-.22m2-7.16V181.7m-2.64,4.45.53-.6.45-.6.45-.68.46-.68.3-.68.3-.68.15-.75.22-.68.08-.68v-.68m-69.1,165.64.37.23.83.45.91.37.9.38.91.38,1,.3,1,.3,1.05.3,1,.23,1.06.22,1.05.15,1.13.16,1.06.07,1.13.08,1.13.07h2.18l1.13-.07,1.06-.08,1.13-.15,1.05-.15,1.06-.15,1-.23,1.06-.22,1-.3,1-.31,1-.3.9-.37.9-.38.91-.45.83-.38.75-.45.76-.53.67-.53.68-.52.6-.53.53-.53.53-.6.45-.61.45-.6.31-.6.3-.68.22-.6.23-.68v-.08m-43.48,0,.07.38.23.6.3.68.3.6.38.61.45.6.45.6.53.53.6.6.61.53.67.53.68.53.76.45.3.15m37.37-9,.31-21.78m-44.54,0L129,336m41.14-16.88.53-.53.53-.68.45-.68.38-.68.3-.67.3-.68.22-.68.16-.75.07-.68.08-.76v-.67L173,311l-.15-.68-.15-.6m-43.78,0-.08.22-.15.68-.07.75-.08.68.08.68.07.75.08.68.22.68.23.68.3.68.38.68.37.67.46.61.52.6.23.3m41.22-7.84V281.85m-43.78,0v29.39m41.14-24.86.53-.61.53-.68.45-.6.38-.68.3-.75.3-.68.22-.68L173,281l.07-.76.08-.68v-.75l-.08-.68-.15-.68-.15-.67-.08-.23m-43.63,0-.15.53-.15.75-.07.68-.08.68.08.75.07.68.08.68.22.75.23.68.3.68.38.6.37.68.46.68.52.6.23.3m41.22-7.91v-.76l-.08-1.05-.15-1-.07-.45m-43.18,0-.15.68-.08,1.05-.07,1.06v.45m43.48-3.24-.15-1L172,273l-.31-1.13-.45-1.2-.37-1.13-.53-1.06-.53-1.13-.53-1-.37-.6m-36.1,0-.08.15-.6,1.13-.6,1.13-.53,1.13-.45,1.21-.45,1.2-.3,1.21-.31,1.2-.22,1.06m36.62-5,.68-.82.75-1,.68-1.06.68-1.13.6-1.13.53-1.13.53-1.13.37-1.21.46-1.2.3-1.28.22-1.13M130,258l.08.15.22,1.2.3,1.21.38,1.13.45,1.13.46,1.13.52,1.05L133,266l.6,1.05.68,1,.68,1,.68.91.22.22m-.37-7.15.37.3.83.37.91.46.9.37.91.3,1,.38,1,.3,1.05.23,1,.22,1.06.23,1.05.15,1.13.15,1.06.15,1.13.08h1.13l1.05.07,1.13-.07h1.13l1.06-.15,1.13-.08,1.05-.15,1.06-.23,1-.15,1.06-.3,1-.22,1-.3,1-.38.9-.3.9-.46.91-.37.83-.45.75-.46.76-.45.67-.53.68-.52.6-.53.53-.6.53-.61.45-.52.45-.68.31-.61.3-.6.22-.68.23-.6v-.07m-43.48,0,.07.3.23.68.3.6.3.6.38.68.45.6.45.53.53.6.6.53.61.6.67.45.68.53.76.45.3.16m37.37-9,.31-21.78m-44.54,0,.38,21.78m41.14-16.88.53-.61.53-.6.45-.68.38-.67.3-.68.3-.76.22-.67.16-.68.07-.76.08-.67v-.68L173,229l-.15-.67-.15-.61m-43.78.08-.08.22-.15.68-.07.68-.08.75.08.68.07.68.08.75.22.68.23.68.3.68.38.68.37.6.46.68.52.6.23.3m41.22-7.83V199.87m-43.78,0v29.39m41.14-24.95.53-.6.53-.6.45-.68.38-.68.3-.68.3-.68.22-.67L173,199l.07-.68.08-.67m-44.46,0v.3l.07.75.08.68.22.68.23.67.3.68.38.68.37.68.46.6.52.61.23.3M43.2,288.11l.08.3.15.68.3.6.3.6.38.61.45.6.45.6.53.61.6.52.6.53.68.53.68.53.75.45.3.15.46.22.83.46.82.45.91.38.9.3,1,.37,1,.31,1.06.22,1,.23,1.05.22,1.13.15,1.06.16,1.13.15,1,.07h3.32l1.13-.07,1.13-.08,1-.07,1.06-.16,1.13-.22,1-.23,1-.22,1.06-.23,1-.3.9-.38,1-.37.83-.38.91-.38.83-.45.75-.45.75-.53.68-.45.68-.53.6-.6.53-.53.53-.6.45-.61.45-.6.3-.6h.08M42.67,264.6l.3,21.85m41.15-16.88.53-.6.52-.68.46-.6.22-.45M43,260.08l-.07.22-.15.76-.08.67v1.44l.08.67.15.68.15.76.23.67.3.68.37.61.38.67.45.68.53.6.23.31M43,232.19v29.39m.15-34.66-.22.6-.15.68-.08.68v1.43l.08.68.15.75.15.68.23.68.3.68.37.67.38.61.45.68.53.6.23.3m-2.26-11.15-.08.75-.15,1L43,228.28v.52m3.85-12.66-.08.08-.6,1.13-.6,1.13-.53,1.2-.45,1.14-.38,1.2-.38,1.21-.3,1.28-.22,1M44,208.31l.07.15.23,1.2.38,1.21L45,212l.45,1.2.45,1.06.53,1.13.53,1.05.6,1,.68,1,.68,1,.68.91.22.22M43.2,206.05l.08.37.15.6.3.68.3.61.38.6.45.6.45.6.53.53.6.6.6.53.68.53.68.45.75.53.3.15.46.23.83.45.82.38.91.37.9.38,1,.3,1,.3,1.06.3,1,.23,1.05.15,1.13.23,1.06.15,1.13.07,1,.08,1,.07m-21.1-34.51.3,21.78m41.15-16.88.53-.53.52-.68.46-.68.22-.37M43,178.09l-.07.22-.15.68-.08.76v1.35l.08.76.15.67.15.68.23.68.3.68.37.68.38.67.45.61.53.6.23.3M43,150.21v29.38M42.67,148v.3l.08.68.15.68.15.68.23.75.3.6.37.68.38.68.45.6.53.68.23.3M86.15,294.74l.08.3.23.68.22.6.38.68.3.6.45.61.45.6.53.53.6.52.61.61.68.53.75.45.75.45.23.23.45.22.83.38.9.45.83.38,1,.37.83.23M85.63,271.3l.3,21.78m.07-26.3-.07.23-.15.68-.08.68-.07.75v.68l.07.68.15.75.15.68.3.68.23.67.38.68.37.6.53.68.45.61.31.3M86,246.81v21.48m3.85-45.52-.08.16-.68,1-.07.23m0-3.09.37.9.61,1.06.6,1,.6,1,.68.9.75.91.16.3M89,217.5l.37.38.61.52.68.53.75.53.75.45.23.15.45.23.83.45.9.38.83.37,1,.38.83.3m-11.6-32.93.22,13.87M86,184.72l-.07.23-.15.75-.08.68-.07.68v.75l.07.68.15.68.15.67.3.68.23.68.38.68.37.68.53.6.45.68.31.3M86,173v13.19M11.7,270l.08.3.22.68.23.6.38.6.3.61.45.6.45.6.53.6.6.53.6.53.68.53.76.52.75.46.23.15.45.22.83.46.9.45.83.37,1,.31,1,.37,1,.23,1,.3,1.05.23,1.06.22,1.05.15,1.06.15,1.13.08,1.13.15h3.31l1.06-.08,1.13-.07,1.13-.08,1.06-.15,1-.22,1.06-.23,1-.22.6-.16m-31.65-33.3.3,21.85m.08-26.37-.08.22-.15.75-.07.68-.08.68V245l.08.68.15.68.15.75.3.68.23.68.37.6.38.68.53.68.45.6.3.3M11.55,214v29.39m.08-34.66-.16.6-.15.68-.07.68-.08.75v.68l.08.68.15.75.15.68.3.68.23.68.37.67.38.61.53.67.45.61.3.3m-2.26-11.15-.15.75-.07,1-.08,1.05v.53M15.39,198l-.07.08-.68,1.13-.53,1.13-.53,1.13-.52,1.2-.38,1.21-.38,1.21-.3,1.28-.15,1m.76-17.19v.16l.3,1.2.3,1.21.37,1.13L14,195l.53,1.13.45,1.13.6,1.05.61,1,.6,1,.68,1,.75.91.15.22M11.7,187.88l.08.38.22.6.23.68.38.6.3.61.45.6.45.6.53.53.6.6.6.53.68.53.76.45.75.53.23.15.45.23.83.45.9.37.83.38,1,.38,1,.3,1,.3,1,.3,1.05.23,1.06.15,1.05.22,1.06.16,1.13.07,1.13.08,1.05.07h2.26l1.06-.07,1.13-.08,1.13-.15,1.06-.15,1-.15,1.06-.23,1-.22.6-.23M11.17,164.45l.3,21.78m.08-26.3-.08.22-.15.68-.07.75-.08.68v.68l.08.75.15.68.15.68.3.68.23.68.37.68.38.67.53.61.45.6.3.3M11.55,132v29.39m-.38-31.57v.3l.08.68.15.68.15.67.3.68.23.68.37.68.38.68.53.6.45.68.3.3m83.57,183,.08.38.23.6.22.68.3.6.38.61.45.6.45.6.53.53.6.6.61.53.68.53.75.45.75.53.23.15.45.22.83.46.83.37.9.38,1,.38.91.3,1,.3,1,.3,1.06.23,1,.15,1.06.22,1,.15,1.13.08,1.06.08,1.13.07h2.26l1-.07,1.13-.08,1.06-.15,1.13-.15,1-.15,1.06-.23,1-.22.68-.23M97.16,296.1l.3,21.78m.07-26.3-.07.22-.15.68-.15.75v1.36l.07.75.15.68.15.68.23.68.3.68.38.67.37.68.46.61.52.6.3.3m-2.56-37.23v29.39m.08-34.66-.15.53-.15.75-.15.68v1.43l.07.68.15.68.15.67.23.76.3.6.38.68.37.68.46.6.52.68.3.3m-2.26-11.23-.15.75-.15,1.06v1.51m3.85-12.66-.15.15-.61,1.13L100,250l-.53,1.13-.45,1.2-.38,1.21-.37,1.21-.3,1.2-.16,1m.76-17.1V240l.3,1.2.3,1.21.38,1.13.37,1.13.53,1.13.45,1.05.61,1.06.6,1,.6,1,.68,1,.68.91.23.22m-6.64-14.47.08.31.23.67.22.61.3.6.38.68.45.6.45.53.53.6.6.53.61.6.68.45.75.53.75.45.23.15.45.31.83.37.83.45.9.38,1,.3.91.38,1,.3,1,.23,1.06.22,1,.23,1.06.15,1,.15,1.13.15,1.06.08h3.39l1-.08,1.13-.07,1.06-.08,1.13-.15,1-.23,1.06-.15,1-.3.68-.15M97.16,214l.3,21.86m.07-26.38-.07.23-.15.75-.15.68v1.43l.07.68.15.68.15.75.23.68.3.68.38.68.37.6.46.68.52.6.3.3m-2.56-37.3V211m-.37-31.58v.31l.07.75.15.68.15.68.23.67.3.68.38.68.37.68.46.6.52.6.3.31M9,355H9v.15l.07.07.08.08m260.43,13.26h.08v-.07l.07-.08v-.15m-260.58-13,133.91,77.31m15.6,0,110.92-64.05M143.05,432.64h.15m15.3,0h.15m-15.45,0h15.3M120.22,33.78h-.16v.07H120m15.67,0h-.07v-.07h-.15m0,0H120.22m-.23.07L9.14,97.83m0,0v.08H9.06L9,98v.15m260.58,13L135.66,33.85m134.06,77.62v-.15l-.07-.07v-.08h-.08"/><line class="cls-3" x1="215.26" y1="175.63" x2="215.28" y2="175.61"/><line class="cls-3" x1="215.26" y1="175.63" x2="215.26" y2="132.02"/><line class="cls-3" x1="215.26" y1="132.02" x2="215.28" y2="132.01"/><line class="cls-3" x1="215.28" y1="175.61" x2="215.28" y2="132.01"/><line class="cls-4" x1="215.26" y1="132.02" x2="190.08" y2="117.49"/><line class="cls-4" x1="190.08" y1="161.1" x2="215.26" y2="175.63"/><line class="cls-3" x1="190.08" y1="117.49" x2="190.08" y2="161.1"/><line class="cls-3" x1="190.08" y1="117.49" x2="190.11" y2="117.48"/><line class="cls-4" x1="215.28" y1="132.01" x2="190.11" y2="117.48"/><line class="cls-3" x1="190.11" y1="117.48" x2="190.11" y2="161.08"/><line class="cls-3" x1="190.08" y1="161.1" x2="190.11" y2="161.08"/><line class="cls-4" x1="190.11" y1="161.08" x2="215.28" y2="175.61"/></g></g></svg>