<svg xmlns="http://www.w3.org/2000/svg" viewBox="0 0 9.68 13.15"><defs><style>.cls-1{fill:#1c989c;}</style></defs><title>location</title><g id="Layer_2" data-name="Layer 2"><g id="Layer_1-2" data-name="Layer 1"><g id="placeholder-filled-point"><path id="Path_411" data-name="Path 411" class="cls-1" d="M4.84,0A4.85,4.85,0,0,0,.42,6.82a30.57,30.57,0,0,0,4.22,6.24.28.28,0,0,0,.38,0l0,0A30.93,30.93,0,0,0,9.26,6.82a4.67,4.67,0,0,0,.42-2A4.84,4.84,0,0,0,4.84,0Zm0,7.36A2.52,2.52,0,1,1,7.36,4.84h0A2.52,2.52,0,0,1,4.84,7.36Z"/></g></g></g></svg>