<svg xmlns="http://www.w3.org/2000/svg" width="31.48" height="30.337" viewBox="0 0 31.48 30.337">
  <g id="recycle-symbol-of-three-arrows" transform="translate(0 -0.571)">
    <g id="Group_1652" data-name="Group 1652">
      <path id="Path_2026" data-name="Path 2026" d="M8.476,17.737l2.385,1.408-3.1-6.16-6.949.207,2.244,1.331L0,20.172s2.451,4.442,4.122,7.094a3.145,3.145,0,0,0,2.474,1.7H15.52V22.53l-9.693,0Z" fill="#333"/>
      <path id="Path_2027" data-name="Path 2027" d="M16.691,10.466l6.763.4L26.7,4.724l-2.264,1.3L21.02.582s-5.073-.058-8.2.093a3.153,3.153,0,0,0-2.7,1.315l-4.4,7.767,5.6,3.17L16.1,4.492l2.863,4.665Z" fill="#333"/>
      <path id="Path_2028" data-name="Path 2028" d="M31.23,18.314l-4.245-7.85-5.659,3.062,4.607,8.527L20.46,22l.082-2.479-3.92,5.373,3.487,6.014.1-2.606,6.422,0s2.742-4.27,4.277-7A3.142,3.142,0,0,0,31.23,18.314Z" fill="#333"/>
    </g>
  </g>
</svg>
