<svg xmlns="http://www.w3.org/2000/svg" viewBox="0 0 8.8 14.58"><defs><style>.cls-1{isolation:isolate;}.cls-2{fill:#949494;}</style></defs><title>icon 2</title><g id="Layer_2" data-name="Layer 2"><g id="Layer_1-2" data-name="Layer 1"><g id="_" data-name=" " class="cls-1"><g class="cls-1"><path class="cls-2" d="M3.22,10.42c0-.24,0-.44,0-.7A3.48,3.48,0,0,1,4.86,6.6L5.74,6A2.35,2.35,0,0,0,6.8,4,2.21,2.21,0,0,0,4.42,1.76a2.4,2.4,0,0,0-2.5,2.56,3.39,3.39,0,0,0,.14,1L.12,5.06A3.5,3.5,0,0,1,0,4.1,4.13,4.13,0,0,1,4.42,0,4.09,4.09,0,0,1,8.8,4a4.1,4.1,0,0,1-2,3.48l-.92.62A2.22,2.22,0,0,0,5,10a3.15,3.15,0,0,0,0,.38ZM4.08,12A1.33,1.33,0,0,1,5.4,13.28a1.31,1.31,0,0,1-1.32,1.3,1.3,1.3,0,0,1-1.3-1.3A1.31,1.31,0,0,1,4.08,12Z"/></g></g></g></g></svg>