<svg xmlns="http://www.w3.org/2000/svg" viewBox="0 0 13.11 13.54"><defs><style>.cls-1{opacity:0.8;}.cls-2{fill:#1c989c;}</style></defs><title>icon_2</title><g id="Layer_2" data-name="Layer 2"><g id="Layer_1-2" data-name="Layer 1"><g id="Layer_1-2-2" data-name="Layer 1-2"><g id="Group_1652" data-name="Group 1652"><g id="icon" class="cls-1"><path id="Path_815" data-name="Path 815" class="cls-2" d="M11.29,8.63v3.1H1.82V8.63H0v4a.91.91,0,0,0,.91.91H12.2a.91.91,0,0,0,.91-.91h0v-4Z"/><path id="Path_816" data-name="Path 816" class="cls-2" d="M6.39,8.33,3.79,5.18s-.4-.37,0-.37H5.26V.22S5.2,0,5.53,0H7.6c.24,0,.24.19.24.19V4.71H9.19c.52,0,.13.39.13.39S7.13,8,6.83,8.35a.3.3,0,0,1-.41,0Z"/></g></g></g></g></g></svg>