<svg xmlns="http://www.w3.org/2000/svg" viewBox="0 0 12.81 16.16"><defs><style>.cls-1{fill:#949494;opacity:0.8;isolation:isolate;}</style></defs><title>icon 1</title><g id="Layer_2" data-name="Layer 2"><g id="Layer_1-2" data-name="Layer 1"><path id="attached" class="cls-1" d="M10.91,1.23H6.19A1.88,1.88,0,0,0,3.76.12,1.92,1.92,0,0,0,2.64,1.23H1.89A1.9,1.9,0,0,0,0,3.12V14.26a1.9,1.9,0,0,0,1.89,1.9h9a1.91,1.91,0,0,0,1.9-1.9V3.12A1.91,1.91,0,0,0,10.91,1.23Zm.63,13a.63.63,0,0,1-.63.63h-9a.63.63,0,0,1-.63-.63V3.12a.63.63,0,0,1,.63-.63h1.9v-.6a.63.63,0,1,1,1.26,0V6.34a.63.63,0,0,1-1.26,0V3.76H2.52V6.34a1.9,1.9,0,1,0,3.79,0V2.49h4.6a.63.63,0,0,1,.63.63Z"/></g></g></svg>