<svg xmlns="http://www.w3.org/2000/svg" viewBox="0 0 40 40"><defs><style>.bc8a05cf-ca07-47b3-b6b7-d7892605b9d5{fill:#1d1d1b;}</style></defs><title>1.Innovation</title><g id="f2773436-b816-49a5-a91e-9e57a35ede4d" data-name="Layer 2"><g id="aa61e6b3-7543-49c0-adb6-90b10239f48d" data-name="title"><path class="bc8a05cf-ca07-47b3-b6b7-d7892605b9d5" d="M23.66,21.12a6.93,6.93,0,0,0,1.89.33,15.74,15.74,0,0,1-1.41,2.08c-1,1.26-1.71,2.25-1.71,3.91V29.8a2.7,2.7,0,0,1-2.7,2.7H18a2.7,2.7,0,0,1-2.69-2.7V27.44c0-1.66-.76-2.65-1.72-3.91a9.57,9.57,0,0,1-2.45-6.3h0v-.05A7.73,7.73,0,0,1,18.87,9.5a7.65,7.65,0,0,1,2,.26,7.33,7.33,0,0,0-1.17,1.59,7.37,7.37,0,0,0-.82,0,5.94,5.94,0,0,0-5.93,5.9A7.81,7.81,0,0,0,15,22.44a8.75,8.75,0,0,1,2,3.82h3.72a8.87,8.87,0,0,1,2-3.82C23,22,23.37,21.58,23.66,21.12Zm-3,8.68V28.05H17.12V29.8a.89.89,0,0,0,.89.9h1.72A.9.9,0,0,0,20.63,29.8Zm8.61-14.33a3.44,3.44,0,0,1-.38.93L30,17.54l-1.27,1.27-1.14-1.14a3.8,3.8,0,0,1-.95.39v1.59H24.85v-1.6a3.19,3.19,0,0,1-.91-.38L22.8,18.81l-1.27-1.27,1.14-1.14a3.82,3.82,0,0,1-.39-.93H20.67V13.68h1.61a3.82,3.82,0,0,1,.39-.93l-1.14-1.14,1.27-1.27,1.14,1.14a3.46,3.46,0,0,1,.95-.39V9.5h1.8v1.6a4,4,0,0,1,.9.38l1.14-1.14L30,11.61l-1.14,1.14a3.44,3.44,0,0,1,.38.93h1.61v1.79Zm-3.48.9a1.8,1.8,0,1,0,0-3.59,1.76,1.76,0,0,0-1,.33l-.43.43a1.77,1.77,0,0,0-.34,1A1.8,1.8,0,0,0,25.76,16.37Z"/></g><g id="b998aed6-bd33-4323-ada5-4e7a2f602b28" data-name="icon_7 (Water)"><path class="bc8a05cf-ca07-47b3-b6b7-d7892605b9d5" d="M20,40A20,20,0,1,1,40,20,20,20,0,0,1,20,40ZM20,2A18,18,0,1,0,38,20,18,18,0,0,0,20,2Z"/></g></g></svg>