<svg xmlns="http://www.w3.org/2000/svg" viewBox="0 0 40 40"><defs><style>.be5865a4-90ac-4595-bb3a-1554263a89a9{fill:#1d1d1b;}</style></defs><title>3. Expertise</title><g id="af84e59d-2554-4459-9d47-02995f39fce7" data-name="Layer 2"><g id="acde362f-fcb5-4cdd-a0a6-ee1236012c5a" data-name="title"><path class="be5865a4-90ac-4595-bb3a-1554263a89a9" d="M28.29,16a3.7,3.7,0,0,1-.41,1l1.21,1.21-1.35,1.35-1.21-1.21a3.76,3.76,0,0,1-1,.41v1.69H23.63v-1.7a3.75,3.75,0,0,1-1-.4l-1.21,1.21-1.34-1.35L21.32,17a3.7,3.7,0,0,1-.41-1H19.2V14.12h1.71a3.7,3.7,0,0,1,.41-1l-1.21-1.21,1.34-1.35,1.21,1.21a4.11,4.11,0,0,1,1-.41V9.69h1.9v1.7a3.82,3.82,0,0,1,1,.4l1.21-1.21,1.35,1.35-1.21,1.21a3.7,3.7,0,0,1,.41,1H30V16ZM24.6,17a1.91,1.91,0,1,0-1.1-3.46L23,14a1.9,1.9,0,0,0,1.56,3Z"/><path class="be5865a4-90ac-4595-bb3a-1554263a89a9" d="M18,31H16V28H12.18l-1.06-5.32L8.66,21.45,11,16.76C11.1,10.71,15.07,8,19,8v2c-2.77,0-6,1.83-6,7v.24l-1.66,3.31,1.54.77L13.82,26H18Z"/><polygon class="be5865a4-90ac-4595-bb3a-1554263a89a9" points="26.5 31 24.5 31 24.5 25.3 26.08 21.61 27.92 22.39 26.5 25.7 26.5 31"/></g><g id="fef61d70-60e6-4bd0-b22c-122408c2ba03" data-name="icon_7 (Water)"><path class="be5865a4-90ac-4595-bb3a-1554263a89a9" d="M20,40A20,20,0,1,1,40,20,20,20,0,0,1,20,40ZM20,2A18,18,0,1,0,38,20,18,18,0,0,0,20,2Z"/></g></g></svg>