<svg xmlns="http://www.w3.org/2000/svg" viewBox="0 0 40 40"><defs><style>.af731d1f-41f9-4770-8bfa-f4b2236a8bf5{fill:#1d1d1b;}</style></defs><title>2. Sustainability</title><g id="f3166b0f-1c5f-48d9-9f62-ba3cfbb9856f" data-name="Layer 2"><g id="bdf04dbd-0d8a-4f68-8a98-69682bbb77ef" data-name="title"><path class="af731d1f-41f9-4770-8bfa-f4b2236a8bf5" d="M28.07,18.75a.16.16,0,0,0,0-.07,9.48,9.48,0,0,0-3.36-3.24,8.87,8.87,0,0,0-1.76-.77,8.73,8.73,0,0,0-2.15-.43V12.69h1a5,5,0,0,0,5-5,.76.76,0,0,0-.75-.76H24.28A5,5,0,0,0,20,9.29,5,5,0,0,0,15.72,6.9H14a.76.76,0,0,0-.75.76,5,5,0,0,0,5,5h1v1.55c-.23,0-.46,0-.69.08a9.29,9.29,0,0,0-3.68,1.4,9.55,9.55,0,0,0-2,1.81c-.17.19-.34.4-.49.6a9.4,9.4,0,0,0-1.76,5,9.9,9.9,0,0,0,.06,1.72,9.38,9.38,0,0,0,2.56,5.33l.06.06A9.44,9.44,0,0,0,28.07,18.75ZM18,16a7.79,7.79,0,0,1,2.2-.25l.63,0a7.94,7.94,0,0,1,5.54,3.18L22.75,22a.69.69,0,0,1-.43.16h-.19a.67.67,0,0,1-.67-.67,2.17,2.17,0,0,0-2.17-2.17h-.67a.66.66,0,0,1-.55-.29l-1.7-2.46A7.94,7.94,0,0,1,18,16Zm6.27-7.56h.93a3.53,3.53,0,0,1-3.45,2.77h-.92A3.53,3.53,0,0,1,24.28,8.41Zm-6,2.77a3.53,3.53,0,0,1-3.45-2.77h.93a3.53,3.53,0,0,1,3.44,2.77Zm-3.56,14.6a1.16,1.16,0,0,1,.06,1.56l-1,1.17a7.84,7.84,0,0,1-1.64-4.23,7.57,7.57,0,0,1,.07-1.84,7.65,7.65,0,0,1,1-2.75l1,.83a1.14,1.14,0,0,1,.35,1.32l-.43,1.08A2.62,2.62,0,0,0,14.68,25.78ZM20,31.59a7.9,7.9,0,0,1-5.22-2l1.11-1.3a2.69,2.69,0,0,0-.14-3.61,1.13,1.13,0,0,1-.26-1.23l.43-1.07a2.65,2.65,0,0,0-.81-3.07L14,18.46a7.66,7.66,0,0,1,1.09-1l1.73,2.5a2.16,2.16,0,0,0,1.79.94h.67a.66.66,0,0,1,.66.66,2.19,2.19,0,0,0,2.18,2.18h.19a2.13,2.13,0,0,0,1.4-.52l3.45-2.92A7.94,7.94,0,0,1,20,31.59Z"/></g><g id="eb602457-0aa3-4ded-9644-e05894309f70" data-name="icon_7 (Water)"><path class="af731d1f-41f9-4770-8bfa-f4b2236a8bf5" d="M20,40A20,20,0,1,1,40,20,20,20,0,0,1,20,40ZM20,2A18,18,0,1,0,38,20,18,18,0,0,0,20,2Z"/></g></g></svg>