<svg xmlns="http://www.w3.org/2000/svg" viewBox="0 0 35 35"><defs><style>.b51bbc53-337d-40ba-8edc-73efde88ed88{fill:#1c989c;}.f1532e9d-d2e3-4057-99ea-1d35873ad726{fill:none;stroke:#1c989c;stroke-miterlimit:10;stroke-width:2px;}</style></defs><title>8. Food_Products_Active_Icon</title><g id="aa63e1ec-0939-46a7-a328-d56bce993ace" data-name="Layer 2"><g id="bc0f1fba-51cd-47aa-88f0-532c14b43ae9" data-name="8. Food Products (35x35)"><path class="b51bbc53-337d-40ba-8edc-73efde88ed88" d="M17.5,2A15.5,15.5,0,1,1,2,17.5,15.51,15.51,0,0,1,17.5,2m0-2A17.5,17.5,0,1,0,35,17.5,17.51,17.51,0,0,0,17.5,0Z"/><path class="b51bbc53-337d-40ba-8edc-73efde88ed88" d="M22.37,27.31H13.31A3.11,3.11,0,0,1,10.2,24.2V13.66h15V24.53A2.79,2.79,0,0,1,22.37,27.31ZM12.2,15.66V24.2a1.11,1.11,0,0,0,1.11,1.11h9.06a.78.78,0,0,0,.78-.78V15.66Z"/><polygon class="b51bbc53-337d-40ba-8edc-73efde88ed88" points="25.15 12.16 23.15 12.16 23.15 10.66 12.2 10.66 12.2 12.16 10.2 12.16 10.2 8.66 25.15 8.66 25.15 12.16"/><path class="f1532e9d-d2e3-4057-99ea-1d35873ad726" d="M11.2,22.61s1.85-2.77,3.7-2.77,9.25,2.77,9.25,2.77"/></g></g></svg>