<svg xmlns="http://www.w3.org/2000/svg" viewBox="0 0 35 35"><defs><style>.f52b78d9-bab4-4e64-93ae-461755de408d{fill:#1c989c;}.e91d930d-5c9b-4f57-a2e7-5e5675d15e52{fill:none;stroke:#1c989c;stroke-linecap:round;stroke-miterlimit:10;stroke-width:2px;}</style></defs><title>cider_active_icon</title><g id="bd6f77d9-7a34-4e2a-9f59-78fb793baa11" data-name="Layer 2"><g id="fbc99a8d-192a-43e4-8b24-4456a5058729" data-name="2. Cider (35x35)"><path class="f52b78d9-bab4-4e64-93ae-461755de408d" d="M17.5,2A15.5,15.5,0,1,1,2,17.5,15.51,15.51,0,0,1,17.5,2m0-2A17.5,17.5,0,1,0,35,17.5,17.51,17.51,0,0,0,17.5,0Z"/><path class="f52b78d9-bab4-4e64-93ae-461755de408d" d="M19.42,27.51a3.66,3.66,0,0,1-1.94-.67,3.69,3.69,0,0,1-2,.67c-5.64,0-6.79-9.2-6.79-11.66A5,5,0,0,1,13.58,11a4.7,4.7,0,0,1,2.37.59,2.91,2.91,0,0,0,1.53.39,3.05,3.05,0,0,0,1.6-.41A4.8,4.8,0,0,1,21.37,11a5,5,0,0,1,4.85,4.85C26.22,19.91,24.23,27.51,19.42,27.51Zm-1.94-3.17.65.61a2.45,2.45,0,0,0,1.29.66c2.95,0,4.9-5.88,4.9-9.76a3.15,3.15,0,0,0-2.95-2.95,2.89,2.89,0,0,0-1.46.38,4.87,4.87,0,0,1-2.43.6,4.77,4.77,0,0,1-2.38-.59,2.76,2.76,0,0,0-1.52-.39,3.07,3.07,0,0,0-2.94,2.95c0,2.5,1.2,9.76,4.89,9.76a2.48,2.48,0,0,0,1.3-.66Z"/><path class="e91d930d-5c9b-4f57-a2e7-5e5675d15e52" d="M17.54,12.55s.2-4.85-4.36-4.85"/></g></g></svg>