<svg xmlns="http://www.w3.org/2000/svg" viewBox="0 0 55 55"><defs><style>.cls-1{fill:#1d1d1b;}.cls-2{fill:none;stroke:#1d1d1b;stroke-miterlimit:10;stroke-width:3px;}</style></defs><title>8. Food Products</title><g id="Layer_2" data-name="Layer 2"><g id="_8._Food_Products_55x55_" data-name="8. Food Products (55x55)"><path class="cls-1" d="M27.5,3.14A24.36,24.36,0,1,1,3.14,27.5,24.39,24.39,0,0,1,27.5,3.14M27.5,0A27.5,27.5,0,1,0,55,27.5,27.5,27.5,0,0,0,27.5,0Z"/><path class="cls-1" d="M35.15,42.92H20.92A4.9,4.9,0,0,1,16,38V21.46H39.52V38.54A4.38,4.38,0,0,1,35.15,42.92Zm-16-18.32V38a1.74,1.74,0,0,0,1.74,1.74H35.15a1.23,1.23,0,0,0,1.23-1.23V24.6Z"/><polygon class="cls-1" points="39.52 19.11 36.38 19.11 36.38 16.76 19.18 16.76 19.18 19.11 16.03 19.11 16.03 13.61 39.52 13.61 39.52 19.11"/><path class="cls-2" d="M17.6,35.53s2.91-4.36,5.82-4.36S38,35.53,38,35.53"/></g></g></svg>