<svg xmlns="http://www.w3.org/2000/svg" viewBox="0 0 35 35"><defs><style>.beef998a-4728-489d-9185-ebb1eb04bf59{fill:#1c989c;}</style></defs><title>Coffer_Active_icon</title><g id="bf19c356-db6d-4a6b-b0ca-1e8b7b983eef" data-name="Layer 2"><g id="bdd8e944-5905-4ff3-bb37-b6709a4e0d53" data-name="4.Coffee (35x35)"><path class="beef998a-4728-489d-9185-ebb1eb04bf59" d="M17.56,10.41a8.26,8.26,0,0,1,3.44.76,7,7,0,0,1-1.53,3.44,3.3,3.3,0,0,1-2.57,1.11,5.31,5.31,0,0,1-.68-.05,7,7,0,0,0-.9-.06,5.92,5.92,0,0,0-5,2.71,13.68,13.68,0,0,1,2.44-5.52,5.55,5.55,0,0,1,4.77-2.39m0-2a7.57,7.57,0,0,0-6.39,3.22c-3.63,5.07-3.29,9.5-2.33,11.7a.93.93,0,0,0,.35.08c1.63,0,2-5.8,6.13-5.8a4.72,4.72,0,0,1,.64.05,7.66,7.66,0,0,0,.94.06c5.21,0,6.31-6.17,6.17-7.62a9.49,9.49,0,0,0-5.51-1.69Z"/><path class="beef998a-4728-489d-9185-ebb1eb04bf59" d="M24.4,17.36a8.54,8.54,0,0,1-2,4.46,7.49,7.49,0,0,1-6,2.87A10.27,10.27,0,0,1,13,24.1a3.13,3.13,0,0,1,.58-1.26,5,5,0,0,1,4.18-1.65,7.17,7.17,0,0,0,6.6-3.83m.3-5.6c-1.22,0-.68,7.43-6.9,7.43S10.41,24,11.22,25.52a12.42,12.42,0,0,0,5.16,1.17,9.44,9.44,0,0,0,7.52-3.6c3.2-3.85,3.21-8.09,1-11.25a.46.46,0,0,0-.22-.08Z"/><path class="beef998a-4728-489d-9185-ebb1eb04bf59" d="M17.5,2A15.5,15.5,0,1,1,2,17.5,15.51,15.51,0,0,1,17.5,2m0-2A17.5,17.5,0,1,0,35,17.5,17.51,17.51,0,0,0,17.5,0Z"/></g></g></svg>