<svg xmlns="http://www.w3.org/2000/svg" viewBox="0 0 35 35"><defs><style>.ae21f3fc-90b3-4d9d-94f8-9db4da8d8c16{fill:#1c989c;}.f410e0b3-1a20-4167-8069-51f0073181dd{fill:none;stroke:#1c989c;stroke-linecap:round;stroke-miterlimit:10;stroke-width:2px;}</style></defs><title>Wine_Active_icon</title><g id="b9010c95-0176-4e04-8f66-4ad2b8303810" data-name="Layer 2"><g id="fe6b5b70-699d-411e-9f63-66604786c73e" data-name="3. Wine (35x35)"><path class="ae21f3fc-90b3-4d9d-94f8-9db4da8d8c16" d="M17.5,2A15.5,15.5,0,1,1,2,17.5,15.51,15.51,0,0,1,17.5,2m0-2A17.5,17.5,0,1,0,35,17.5,17.51,17.51,0,0,0,17.5,0Z"/><path class="ae21f3fc-90b3-4d9d-94f8-9db4da8d8c16" d="M11.9,18.19a3.54,3.54,0,1,1,3.54-3.54A3.55,3.55,0,0,1,11.9,18.19Zm0-5.38a1.84,1.84,0,1,0,1.84,1.84A1.84,1.84,0,0,0,11.9,12.81Z"/><path class="ae21f3fc-90b3-4d9d-94f8-9db4da8d8c16" d="M17.56,18.19a3.54,3.54,0,1,1,3.54-3.54A3.55,3.55,0,0,1,17.56,18.19Zm0-5.38a1.84,1.84,0,1,0,1.84,1.84A1.84,1.84,0,0,0,17.56,12.81Z"/><path class="ae21f3fc-90b3-4d9d-94f8-9db4da8d8c16" d="M23.21,18.19a3.54,3.54,0,1,1,3.54-3.54A3.54,3.54,0,0,1,23.21,18.19Zm0-5.38a1.84,1.84,0,1,0,1.84,1.84A1.83,1.83,0,0,0,23.21,12.81Z"/><path class="ae21f3fc-90b3-4d9d-94f8-9db4da8d8c16" d="M14.73,23.56A3.54,3.54,0,1,1,18.27,20,3.55,3.55,0,0,1,14.73,23.56Zm0-5.37A1.84,1.84,0,1,0,16.57,20,1.84,1.84,0,0,0,14.73,18.19Z"/><path class="ae21f3fc-90b3-4d9d-94f8-9db4da8d8c16" d="M20.39,23.56A3.54,3.54,0,1,1,23.92,20,3.54,3.54,0,0,1,20.39,23.56Zm0-5.37A1.84,1.84,0,1,0,22.22,20,1.83,1.83,0,0,0,20.39,18.19Z"/><path class="ae21f3fc-90b3-4d9d-94f8-9db4da8d8c16" d="M17.56,28.94A3.54,3.54,0,1,1,21.1,25.4,3.55,3.55,0,0,1,17.56,28.94Zm0-5.38A1.84,1.84,0,1,0,19.4,25.4,1.84,1.84,0,0,0,17.56,23.56Z"/><path class="f410e0b3-1a20-4167-8069-51f0073181dd" d="M17.57,11.67A4.21,4.21,0,0,0,13,7.51"/></g></g></svg>