<svg xmlns="http://www.w3.org/2000/svg" viewBox="0 0 55 55"><defs><style>.cls-1{fill:#1d1d1b;}.cls-2{fill:none;stroke:#1d1d1b;stroke-linecap:round;stroke-miterlimit:10;stroke-width:3px;}</style></defs><title>2. Cider</title><g id="Layer_2" data-name="Layer 2"><g id="_2._Cider_55x55_" data-name="2. Cider (55x55)"><path class="cls-1" d="M27.5,3.14A24.36,24.36,0,1,1,3.14,27.5,24.39,24.39,0,0,1,27.5,3.14M27.5,0A27.5,27.5,0,1,0,55,27.5,27.5,27.5,0,0,0,27.5,0Z"/><path class="cls-1" d="M30.52,43.23a5.86,5.86,0,0,1-3.06-1,5.79,5.79,0,0,1-3.06,1c-8.86,0-10.67-14.46-10.67-18.33a7.81,7.81,0,0,1,7.61-7.61,7.4,7.4,0,0,1,3.73.92,4.51,4.51,0,0,0,2.39.61A4.87,4.87,0,0,0,30,18.18a7.42,7.42,0,0,1,3.6-.89A7.91,7.91,0,0,1,41.2,24.9C41.2,31.29,38.07,43.23,30.52,43.23Zm-3.06-5,1,1a3.89,3.89,0,0,0,2,1c4.63,0,7.69-9.23,7.69-15.34a4.94,4.94,0,0,0-4.62-4.62,4.56,4.56,0,0,0-2.3.59,7.8,7.8,0,0,1-3.83.94,7.37,7.37,0,0,1-3.72-.93,4.53,4.53,0,0,0-2.4-.6,4.8,4.8,0,0,0-4.62,4.62c0,3.93,1.89,15.34,7.68,15.34a3.92,3.92,0,0,0,2-1Z"/><path class="cls-2" d="M27.56,19.72s.31-7.62-6.85-7.62"/></g></g></svg>