<svg xmlns="http://www.w3.org/2000/svg" viewBox="0 0 35 35"><defs><style>.e0a4138e-c111-4f3f-9bcb-ef58353dba4f{fill:#1c989c;}</style></defs><title>Soft_drink_active_icon</title><g id="a36c47be-2d7c-4682-8453-59166c34c152" data-name="Layer 2"><g id="a43ee1ae-d10b-48bf-b61a-c5dfbc5bc2c3" data-name="6. Soft Drinks (35x35)"><path class="e0a4138e-c111-4f3f-9bcb-ef58353dba4f" d="M17.5,2A15.5,15.5,0,1,1,2,17.5,15.51,15.51,0,0,1,17.5,2m0-2A17.5,17.5,0,1,0,35,17.5,17.51,17.51,0,0,0,17.5,0Z"/><path class="e0a4138e-c111-4f3f-9bcb-ef58353dba4f" d="M21.36,28.12H13.25l-1.72-14H23.09ZM14.9,26.38h4.81L21,15.88h-7.4Z"/><line x1="10.85" y1="12.01" x2="23.8" y2="12.01"/><rect class="e0a4138e-c111-4f3f-9bcb-ef58353dba4f" x="10.85" y="11.01" width="12.95" height="2"/><line x1="17.35" y1="9.81" x2="17.35" y2="6.51"/><rect class="e0a4138e-c111-4f3f-9bcb-ef58353dba4f" x="16.35" y="6.51" width="2" height="3.3"/></g></g></svg>