<svg xmlns="http://www.w3.org/2000/svg" viewBox="0 0 35 35"><defs><style>.abd07579-3b2d-4f18-9624-f6831f15cd91{fill:#1c989c;}</style></defs><title>Water_Active_Icon</title><g id="b444022d-053f-41bb-89aa-30b7e8d526f6" data-name="Layer 2"><g id="af49c2ed-48fa-45eb-8924-f6575a548290" data-name="7.Water (35x35)"><path class="abd07579-3b2d-4f18-9624-f6831f15cd91" d="M17.5,2A15.5,15.5,0,1,1,2,17.5,15.51,15.51,0,0,1,17.5,2m0-2A17.5,17.5,0,1,0,35,17.5,17.51,17.51,0,0,0,17.5,0Z"/><path class="abd07579-3b2d-4f18-9624-f6831f15cd91" d="M17.94,27.11a7,7,0,0,1-6-3.68c-1.25-2.09-.72-5.4,1.57-9.83a46,46,0,0,1,3.61-5.79l.8-1.07.8,1.07a46,46,0,0,1,3.61,5.79c2.29,4.43,2.82,7.74,1.56,9.83A7,7,0,0,1,17.94,27.11Zm0-17a42.17,42.17,0,0,0-2.64,4.4C13.41,18.2,12.83,21,13.68,22.4a5.06,5.06,0,0,0,4.26,2.71A5.07,5.07,0,0,0,22.2,22.4c.84-1.41.27-4.2-1.62-7.86A44,44,0,0,0,17.94,10.14Z"/></g></g></svg>