<svg xmlns="http://www.w3.org/2000/svg" viewBox="0 0 55 55"><defs><style>.cls-1{fill:#1d1d1b;}.cls-2{fill:none;stroke:#1d1d1b;stroke-linecap:round;stroke-miterlimit:10;stroke-width:3px;}</style></defs><title>3. Wine</title><g id="Layer_2" data-name="Layer 2"><g id="_3._Wine_55x55_" data-name="3. Wine (55x55)"><path class="cls-1" d="M27.5,3.14A24.36,24.36,0,1,1,3.14,27.5,24.39,24.39,0,0,1,27.5,3.14M27.5,0A27.5,27.5,0,1,0,55,27.5,27.5,27.5,0,0,0,27.5,0Z"/><path class="cls-1" d="M18.7,28.58A5.56,5.56,0,1,1,24.26,23,5.57,5.57,0,0,1,18.7,28.58Zm0-8.45A2.89,2.89,0,1,0,21.59,23,2.89,2.89,0,0,0,18.7,20.13Z"/><path class="cls-1" d="M27.59,28.58A5.56,5.56,0,1,1,33.15,23,5.57,5.57,0,0,1,27.59,28.58Zm0-8.45A2.89,2.89,0,1,0,30.48,23,2.89,2.89,0,0,0,27.59,20.13Z"/><path class="cls-1" d="M36.48,28.58A5.56,5.56,0,1,1,42,23,5.57,5.57,0,0,1,36.48,28.58Zm0-8.45A2.89,2.89,0,1,0,39.37,23,2.89,2.89,0,0,0,36.48,20.13Z"/><path class="cls-1" d="M23.15,37a5.56,5.56,0,1,1,5.56-5.56A5.56,5.56,0,0,1,23.15,37Zm0-8.44A2.89,2.89,0,1,0,26,31.46,2.88,2.88,0,0,0,23.15,28.58Z"/><path class="cls-1" d="M32,37a5.56,5.56,0,1,1,5.56-5.56A5.57,5.57,0,0,1,32,37Zm0-8.44a2.89,2.89,0,1,0,2.89,2.88A2.88,2.88,0,0,0,32,28.58Z"/><path class="cls-1" d="M27.59,45.47a5.56,5.56,0,1,1,5.56-5.56A5.56,5.56,0,0,1,27.59,45.47Zm0-8.45a2.89,2.89,0,1,0,2.89,2.89A2.9,2.9,0,0,0,27.59,37Z"/><path class="cls-2" d="M27.61,18.33s0-6.53-7.16-6.53"/></g></g></svg>