<svg xmlns="http://www.w3.org/2000/svg" viewBox="0 0 55 55"><defs><style>.cls-1{fill:#1d1d1b;}</style></defs><title>4. Coffee</title><g id="Layer_2" data-name="Layer 2"><g id="_4.Coffee_55x55_" data-name="4.Coffee (55x55)"><path class="cls-1" d="M27.6,16.22a13.21,13.21,0,0,1,5.57,1.26A11.28,11.28,0,0,1,30.72,23a5.35,5.35,0,0,1-4.17,1.82,8.48,8.48,0,0,1-1.09-.08,10.78,10.78,0,0,0-1.38-.09C20,24.68,17.6,27,16,29.4A22.79,22.79,0,0,1,20,20a8.88,8.88,0,0,1,7.61-3.8m0-3a11.88,11.88,0,0,0-10,5.06c-5.7,8-5.17,14.92-3.66,18.37a1.18,1.18,0,0,0,.55.14c2.56,0,3.15-9.11,9.64-9.11a6.78,6.78,0,0,1,1,.07,13,13,0,0,0,1.48.1c8.19,0,9.93-9.7,9.71-12a15,15,0,0,0-8.66-2.65Z"/><path class="cls-1" d="M38.54,26.62a13.2,13.2,0,0,1-3.29,7.75,11.91,11.91,0,0,1-9.51,4.56,16.57,16.57,0,0,1-5.41-1,5,5,0,0,1,.92-2.11c1.31-1.77,3.64-2.71,6.72-2.71a11.25,11.25,0,0,0,10.57-6.53m.27-8.14c-1.91,0-1.06,11.67-10.84,11.67-9.59,0-11.62,7.56-10.33,10a19.44,19.44,0,0,0,8.1,1.83,14.82,14.82,0,0,0,11.81-5.64c5-6.05,5.06-12.72,1.61-17.69a.67.67,0,0,0-.35-.12Z"/><path class="cls-1" d="M27.5,3.14A24.36,24.36,0,1,1,3.14,27.5,24.39,24.39,0,0,1,27.5,3.14M27.5,0A27.5,27.5,0,1,0,55,27.5,27.5,27.5,0,0,0,27.5,0Z"/></g></g></svg>