<svg xmlns="http://www.w3.org/2000/svg" viewBox="0 0 55 55"><defs><style>.cls-1{fill:#1d1d1b;}</style></defs><title>7. Water</title><g id="Layer_2" data-name="Layer 2"><g id="_7._Water_55x55_" data-name="7. Water (55x55)"><path class="cls-1" d="M27.5,3.14A24.36,24.36,0,1,1,3.14,27.5,24.39,24.39,0,0,1,27.5,3.14M27.5,0A27.5,27.5,0,1,0,55,27.5,27.5,27.5,0,0,0,27.5,0Z"/><path class="cls-1" d="M28.19,42.6c-3.76,0-7.18-2.11-9.39-5.79-2-3.28-1.14-8.47,2.46-15.44a74.48,74.48,0,0,1,5.67-9.1l1.26-1.67,1.26,1.67a73.71,73.71,0,0,1,5.66,9.1c3.61,7,4.44,12.16,2.47,15.44C35.37,40.49,32,42.6,28.19,42.6Zm0-26.66A69.62,69.62,0,0,0,24,22.85c-3,5.75-3.87,10.13-2.55,12.35,1.63,2.7,4.07,4.26,6.7,4.26s5.07-1.56,6.69-4.26c1.33-2.22.43-6.6-2.54-12.35A69.62,69.62,0,0,0,28.19,15.94Z"/></g></g></svg>