<svg xmlns="http://www.w3.org/2000/svg" viewBox="0 0 55 55"><defs><style>.cls-1{fill:#1d1d1b;}</style></defs><title>5. Kombucha </title><g id="Layer_2" data-name="Layer 2"><g id="_5.Kombucha_55x55_" data-name="5.Kombucha (55x55)"><path class="cls-1" d="M36.27,42.35H18.68a3.23,3.23,0,0,1-3.23-3.23V22.66a5.75,5.75,0,0,1,1-3c.85-1.28,2.61-2.79,6.19-2.79h9.76c3.57,0,5.34,1.51,6.18,2.79a5.7,5.7,0,0,1,1,3V39.12A3.24,3.24,0,0,1,36.27,42.35ZM22.6,20.05c-1.75,0-3,.47-3.57,1.39a2.63,2.63,0,0,0-.43,1.22V39.12a.09.09,0,0,0,.08.09H36.27a.09.09,0,0,0,.09-.09V22.68c0-.46-.3-2.63-4-2.63Z"/><rect class="cls-1" x="17.02" y="26.66" width="20.91" height="3.14"/><polygon class="cls-1" points="35.32 15.69 32.18 15.69 32.18 14.47 22.78 14.47 22.78 15.69 19.64 15.69 19.64 11.33 35.32 11.33 35.32 15.69"/><path class="cls-1" d="M27.5,3.14A24.36,24.36,0,1,1,3.14,27.5,24.39,24.39,0,0,1,27.5,3.14M27.5,0A27.5,27.5,0,1,0,55,27.5,27.5,27.5,0,0,0,27.5,0Z"/></g></g></svg>