<svg xmlns="http://www.w3.org/2000/svg" viewBox="0 0 55 55"><defs><style>.cls-1{fill:#1d1d1b;}</style></defs><title>1. Beer</title><g id="Layer_2" data-name="Layer 2"><g id="_1.Beer_55x55_" data-name="1.Beer (55x55)"><rect class="cls-1" x="25.9" y="8.98" width="2.88" height="9.75"/><rect class="cls-1" x="30.08" y="11.76" width="2.88" height="4.18"/><rect class="cls-1" x="21.72" y="11.76" width="2.88" height="4.18"/><path class="cls-1" d="M28.79,45.89H25.9c0-3-1.8-4.19-3.71-5.45-1.53-1-3.25-2.13-3.25-4.24V18l1.94.72a14.45,14.45,0,0,1,6.56,5.14,17.58,17.58,0,0,1,6.26-5.1l2-.95V36.2c0,2.11-1.72,3.24-3.25,4.24C30.59,41.7,28.79,42.88,28.79,45.89Zm-7-23.49V36.2c0,.52.74,1,1.95,1.83a12.82,12.82,0,0,1,3.58,3.13A12.52,12.52,0,0,1,30.92,38c1.21-.79,1.95-1.31,1.95-1.83V22.57c-1.79,1.23-4.08,3.31-4.08,5.88H25.9C25.9,25.5,23.58,23.5,21.82,22.4Z"/><path class="cls-1" d="M27.5,3.14A24.36,24.36,0,1,1,3.14,27.5,24.39,24.39,0,0,1,27.5,3.14M27.5,0A27.5,27.5,0,1,0,55,27.5,27.5,27.5,0,0,0,27.5,0Z"/></g></g></svg>