<svg xmlns="http://www.w3.org/2000/svg" viewBox="0 0 35 35"><defs><style>.a84f183e-2330-4712-8811-cb4b19089dc2{fill:#1c989c;}</style></defs><title>Kombucha_Active_Icon</title><g id="fe59386e-3e69-4898-a185-aa52369bb4ad" data-name="Layer 2"><g id="b4329901-0b48-4e00-bdc7-f970e06c760e" data-name="5.Kombucha (35x35)"><path class="a84f183e-2330-4712-8811-cb4b19089dc2" d="M23.08,27H11.89A2.06,2.06,0,0,1,9.83,24.9V14.42a3.66,3.66,0,0,1,.62-1.89,4.37,4.37,0,0,1,3.93-1.77h6.21a4.38,4.38,0,0,1,3.94,1.77,3.71,3.71,0,0,1,.61,1.89V24.9A2.05,2.05,0,0,1,23.08,27Zm-8.7-14.19a2.57,2.57,0,0,0-2.27.88,1.71,1.71,0,0,0-.28.78V24.9a.06.06,0,0,0,.06.05H23.08a.06.06,0,0,0,.06-.05V14.43c0-.29-.19-1.67-2.55-1.67Z"/><rect class="a84f183e-2330-4712-8811-cb4b19089dc2" x="10.83" y="16.97" width="13.31" height="2"/><polygon class="a84f183e-2330-4712-8811-cb4b19089dc2" points="22.48 9.98 20.48 9.98 20.48 9.21 14.49 9.21 14.49 9.98 12.49 9.98 12.49 7.21 22.48 7.21 22.48 9.98"/><path class="a84f183e-2330-4712-8811-cb4b19089dc2" d="M17.5,2A15.5,15.5,0,1,1,2,17.5,15.51,15.51,0,0,1,17.5,2m0-2A17.5,17.5,0,1,0,35,17.5,17.51,17.51,0,0,0,17.5,0Z"/></g></g></svg>