<svg xmlns="http://www.w3.org/2000/svg" viewBox="0 0 55 55"><defs><style>.cls-1{fill:#1d1d1b;}</style></defs><title>6.Soft_Drinks_55x55</title><g id="Layer_2" data-name="Layer 2"><g id="_6._Soft_Drinks_55x55_" data-name="6. Soft Drinks (55x55)"><path class="cls-1" d="M27.5,3.14A24.36,24.36,0,1,1,3.14,27.5,24.39,24.39,0,0,1,27.5,3.14M27.5,0A27.5,27.5,0,1,0,55,27.5,27.5,27.5,0,0,0,27.5,0Z"/><path class="cls-1" d="M33.57,44.19H20.83l-2.71-22H36.28ZM23.42,41.46H31L33,25H21.38Z"/><line x1="17.05" y1="18.87" x2="37.41" y2="18.87"/><rect class="cls-1" x="17.05" y="17.3" width="20.36" height="3.14"/><line x1="27.26" y1="15.42" x2="27.26" y2="10.23"/><rect class="cls-1" x="25.69" y="10.23" width="3.14" height="5.19"/></g></g></svg>