<svg xmlns="http://www.w3.org/2000/svg" viewBox="0 0 289 224.46"><defs><style>.efa52cc9-157c-4ce6-8feb-f2f518b37984{fill:#f2f2f2;}.b1529f9e-64c4-412f-8f89-e09f86bee1be{fill:#c5c5c5;}.f9f351e5-f5e0-433b-a526-3217f9d2905e{fill:#232323;}</style></defs><title>jar_1</title><g id="bef4869e-aa6f-4115-82b7-707db252c662" data-name="Layer 2"><g id="a72e3455-15ce-42f5-a1b0-f27288278375" data-name="Layer 5"><polygon class="efa52cc9-157c-4ce6-8feb-f2f518b37984" points="288.59 94.17 288.5 135.06 286.89 145.67 283.08 156.98 279.05 164.76 273 173.51 264.93 182.44 255.28 190.78 246.13 197.2 235.45 203.38 221.74 209.72 199.59 217.12 181.53 221.03 157.52 223.74 137.6 224.12 116.16 222.33 89.51 217.15 74.95 212.65 56.13 204.69 40.62 195.73 27.12 185.29 17.56 175.42 10.94 166.38 4.74 154.12 1.88 144.62 0.73 137.1 0.5 124.93 0.5 108.15 0.5 95.92 0.5 86.81 3.5 73.81 8.5 61.81 14.5 52.81 21.5 44.81 31.5 35.81 39.5 29.81 48.5 23.81 54.5 20.81 60.5 17.81 67.5 14.81 72.5 12.81 78.5 10.81 85.5 8.81 91.5 6.81 100.5 4.81 106.5 3.81 112.5 2.81 120.5 1.81 130.5 0.81 140.5 0.81 146.5 0.81 157.5 0.81 168.5 1.81 177.5 2.81 187.5 4.81 200.5 7.81 213.5 11.81 224.5 15.81 236.5 21.81 243.5 25.81 251.5 30.81 257.5 35.81 263.5 40.81 268.5 45.81 273.5 51.81 277.5 57.81 281.5 64.81 284.5 70.81 286.7 78.26 287.5 82.81 288.59 94.17"/><line class="b1529f9e-64c4-412f-8f89-e09f86bee1be" x1="288.5" y1="92.66" x2="288.5" y2="131.81"/><rect class="f9f351e5-f5e0-433b-a526-3217f9d2905e" x="288" y="92.66" width="1" height="39.15"/><line class="b1529f9e-64c4-412f-8f89-e09f86bee1be" x1="0.5" y1="92.66" x2="0.5" y2="131.81"/><rect class="f9f351e5-f5e0-433b-a526-3217f9d2905e" y="92.66" width="1" height="39.15"/><path class="f9f351e5-f5e0-433b-a526-3217f9d2905e" d="M144.5,185.62C64.82,185.62,0,144,0,92.81A61.24,61.24,0,0,1,1.46,79.54h0c4.89-21.92,22-42.05,48.05-56.68C75.8,8.12,109.54,0,144.5,0,224.18,0,289,41.63,289,92.81S224.18,185.62,144.5,185.62ZM2,79.65l.49.11A59.85,59.85,0,0,0,1,92.81c0,50.62,64.37,91.81,143.5,91.81S288,143.43,288,92.81,223.63,1,144.5,1C109.71,1,76.15,9.07,50,23.73,24.15,38.22,7.26,58.12,2.44,79.76Z"/><path class="f9f351e5-f5e0-433b-a526-3217f9d2905e" d="M144.5,224.46C64.82,224.46,0,182.83,0,131.65H1c0,50.63,64.37,91.81,143.5,91.81S288,182.28,288,131.65h1C289,182.83,224.18,224.46,144.5,224.46Z"/><path class="f9f351e5-f5e0-433b-a526-3217f9d2905e" d="M144.5,189.06C65,189.06.25,147.67.25,96.81h.5c0,50.59,64.49,91.75,143.75,91.75S288.25,147.4,288.25,96.81h.5C288.75,147.67,224,189.06,144.5,189.06Z"/><path class="f9f351e5-f5e0-433b-a526-3217f9d2905e" d="M147.06,157.46a143.85,143.85,0,0,1-21.2-1.48,32.87,32.87,0,0,1-12.19-4.45L28.08,99.45a15.72,15.72,0,0,1-6.55-18.82C26.25,67.81,38.67,44.3,68.94,30.85,105.3,14.69,144.28,17.17,159.34,19a22.59,22.59,0,0,1,8.5,2.82l94.44,54,.06.12a37.87,37.87,0,0,1,2.25,28.68c-4.77,14.52-18.31,26.7-40.24,36.21C193.21,154.26,165.92,157.46,147.06,157.46ZM136.47,18.66c-18.52,0-43.39,2.56-67.12,13.1C39.42,45.07,27.13,68.31,22.47,81a14.7,14.7,0,0,0,6.12,17.61l85.6,52.08A31.67,31.67,0,0,0,126,155c14,2.12,51.71,4.89,97.94-15.14,21.65-9.38,35-21.36,39.68-35.59a36.87,36.87,0,0,0-2.09-27.76l-94.2-53.83A21.35,21.35,0,0,0,159.22,20,192.29,192.29,0,0,0,136.47,18.66Z"/><path class="f9f351e5-f5e0-433b-a526-3217f9d2905e" d="M82.23,131.75l-.25-.48-.21-.4L215.66,59.65a.63.63,0,0,0,.34-.56.63.63,0,0,0-.32-.57l-15.9-9.25a2,2,0,0,0-2,0L64.24,120.75l-.48-.88L197.32,48.35a3,3,0,0,1,3,0l15.9,9.26a1.64,1.64,0,0,1-.05,2.87Z"/><path class="f9f351e5-f5e0-433b-a526-3217f9d2905e" d="M144.5,220.21C65,220.21.25,178.69.25,127.65h.5c0,50.76,64.49,92.06,143.75,92.06s143.75-41.3,143.75-92.06h.5C288.75,178.69,224,220.21,144.5,220.21Z"/><path class="f9f351e5-f5e0-433b-a526-3217f9d2905e" d="M49.44,111.54l-.88-.46c.14-.27,14.42-27.32,44.22-42.22,27.86-13.93,57.81-13.23,61.8-13.07l6.32-36.2,1,.17-6.47,37.07-.45,0c-.32,0-32.22-1.82-61.75,12.94S49.58,111.27,49.44,111.54Z"/><path class="f9f351e5-f5e0-433b-a526-3217f9d2905e" d="M88.24,135.08l-1.74-.27,1.26-.61,127.5-68.72a2.35,2.35,0,0,0,1.24-2.08V57.81l1,1.16V63.4a3.37,3.37,0,0,1-1.76,3Z"/><rect class="f9f351e5-f5e0-433b-a526-3217f9d2905e" x="161.5" y="52.25" width="1" height="16.12" transform="translate(29.26 171.04) rotate(-60.26)"/><polygon class="f9f351e5-f5e0-433b-a526-3217f9d2905e" points="240.74 106.74 193.74 78.74 193.97 78.35 194.26 77.88 241.26 105.88 240.74 106.74"/><path class="f9f351e5-f5e0-433b-a526-3217f9d2905e" d="M209.2,146.77l-.4-.92c19.94-8.69,27.5-18.95,30.33-26,3.06-7.64,1.41-13.31,1.39-13.37l-.07-.23L261.59,76l.82.57-20.87,29.82C242.14,109,246,130.72,209.2,146.77Z"/></g></g></svg>