<svg xmlns="http://www.w3.org/2000/svg" viewBox="0 0 438.23 624.5"><defs><style>.bdc0e771-d007-4e1e-b2e5-1042ef985c04{fill:#232323;}.af8cabd5-4d70-412c-916a-98bcba6015eb{fill:#f2cc81;}.a136dd66-0bc5-43d1-8098-c4a6029a57b0{fill:none;stroke:#232323;stroke-miterlimit:10;}</style></defs><title>jar_2</title><g id="b3ae1085-7404-434d-8e79-da78f13f074a" data-name="Layer 2"><g id="f6f8c7ae-ad45-4d35-88a3-7fe7ae8288b7" data-name="Layer 2"><path class="bdc0e771-d007-4e1e-b2e5-1042ef985c04" d="M438.23,449h-1V253.47c-4.78-57.31-33.15-111.85-77.82-149.59l.64-.76c44.88,37.9,73.38,92.69,78.18,150.31Z"/><path class="bdc0e771-d007-4e1e-b2e5-1042ef985c04" d="M.23,449,0,253.5A220.71,220.71,0,0,1,82.42,99.7l.62.78A219.74,219.74,0,0,0,1,253.54L1.23,449Z"/></g><g id="bcb4a28d-60dd-4fdf-bb54-31f1b425cfdd" data-name="illustrations"><path class="af8cabd5-4d70-412c-916a-98bcba6015eb" d="M104.23,119s20-59,119-59c92,0,116,57,116,57s-13,27-69,43c-41,10-75.5,8.2-111.65-3.71C121.23,144,104.23,119,104.23,119Z"/><path class="bdc0e771-d007-4e1e-b2e5-1042ef985c04" d="M221.23,176c-75.54,0-137-39.48-137-88a58.08,58.08,0,0,1,1.39-12.58c4.63-20.79,20.81-39.88,45.55-53.75C156.11,7.7,188.09,0,221.23,0c75.54,0,137,39.48,137,88S296.77,176,221.23,176ZM86.11,75.53l.49.1A56.77,56.77,0,0,0,85.23,88c0,48,61,87,136,87s136-39,136-87-61-87-136-87c-33,0-64.78,7.65-89.57,21.54C107.17,36.27,91.16,55.13,86.6,75.63Z"/><path class="bdc0e771-d007-4e1e-b2e5-1042ef985c04" d="M221.22,224.5c-37.43,0-72.8-9.49-99.61-26.71S80.23,158.17,80.23,134.5c0-1.33.16-13,4.27-13v1c-2.35,0-3.25,7.36-3.27,12,0,23.32,14.53,45.5,40.92,62.45C148.8,214.07,184,223.5,221.22,223.5s72.43-9.43,99.07-26.55c26.39-16.95,40.92-39.13,40.92-62.45,0-.11.44-8.35-3.35-12.15l.71-.7c4.11,4.11,3.66,12.52,3.64,12.88,0,23.64-14.69,46.12-41.38,63.26S258.65,224.5,221.22,224.5Z"/><path class="bdc0e771-d007-4e1e-b2e5-1042ef985c04" d="M221.72,215c-77.1,0-137.49-40-137.49-91.06V113.52h1v10.42c0,50.5,60,90.06,136.49,90.06,76,0,135.51-39.56,135.51-90.06V113.5h1v10.44C358.23,175,298.27,215,221.72,215Z"/><path class="bdc0e771-d007-4e1e-b2e5-1042ef985c04" d="M221.23,188c-76.92,0-139.5-41.42-139.5-92.33a76.69,76.69,0,0,1,3-19.1l1,.28a75.59,75.59,0,0,0-3,18.82C82.73,146,144.86,187,221.23,187s138.5-41,138.5-91.33a62.86,62.86,0,0,0-5.24-25l.91-.4a63.82,63.82,0,0,1,5.33,25.37C360.73,146.58,298.15,188,221.23,188Z"/><path class="bdc0e771-d007-4e1e-b2e5-1042ef985c04" d="M221.23,167c-71.13,0-129-36.34-129-81s57.87-81,129-81,129,36.34,129,81S292.36,167,221.23,167Zm0-161c-70.58,0-128,35.89-128,80s57.42,80,128,80,128-35.89,128-80S291.81,6,221.23,6Z"/><path class="a136dd66-0bc5-43d1-8098-c4a6029a57b0" d="M104,119C118,84.7,165.66,59.5,222.23,59.5c55.59,0,102.54,24.33,117.51,57.68"/><path class="bdc0e771-d007-4e1e-b2e5-1042ef985c04" d="M219.23,585.63C98.47,585.63.23,524,.23,448.25h1c0,75.2,97.8,136.38,218,136.38s218-61.18,218-136.38h1C438.23,524,340,585.63,219.23,585.63Z"/><path class="bdc0e771-d007-4e1e-b2e5-1042ef985c04" d="M219.23,592.38C168.47,592.38,119,581.24,80,561,41.38,541,14.7,513.18,4.83,482.61l.48-.15c9.83,30.44,36.41,58.18,74.86,78.1,39,20.2,88.37,31.32,139.06,31.32,50.42,0,99.6-11,138.48-31,38.34-19.73,65-47.24,75.13-77.46l.48.16c-10.16,30.35-36.93,57.95-75.38,77.74C319,581.34,269.73,592.38,219.23,592.38Z"/><path class="bdc0e771-d007-4e1e-b2e5-1042ef985c04" d="M219.23,624.5c-49.61,0-97.95-10.89-136.14-30.65-37.73-19.53-63.85-46.76-73.55-76.66l1-.31c20,61.78,107.83,106.62,208.74,106.62S407.93,578.66,428,516.88l.95.31c-9.7,29.9-35.82,57.13-73.55,76.66C317.19,613.61,268.84,624.5,219.23,624.5Z"/><path class="bdc0e771-d007-4e1e-b2e5-1042ef985c04" d="M95.18,100.22l-.9-.44C113.53,61.36,163,37.5,223.5,37.5c57.77,0,104.38,22.18,124.67,59.34l-.88.48C327.18,60.49,280.9,38.5,223.5,38.5,163.42,38.5,114.25,62.15,95.18,100.22Z"/><rect class="bdc0e771-d007-4e1e-b2e5-1042ef985c04" x="6.24" y="469.94" width="1" height="47.32" transform="translate(-68.31 5.69) rotate(-7.96)"/><rect class="bdc0e771-d007-4e1e-b2e5-1042ef985c04" x="408.67" y="493.9" width="45.67" height="1" transform="translate(-115.87 856.35) rotate(-82.36)"/></g></g></svg>