<svg xmlns="http://www.w3.org/2000/svg" viewBox="0 0 85.42 18.22"><defs><style>.af14edb1-5f2d-4b0e-811b-e9f36d4b5144{isolation:isolate;}.e5786716-39ef-411a-892c-7d0d44427bfb{fill:#1c989c;}.eb6082fd-7abb-4450-9361-30c1229ac90c{fill:#333;}</style></defs><title>logo Petainer</title><g id="ab49297c-9f82-497d-97c5-2d14e207d0fa" data-name="Layer 2"><g id="e13cab8b-d662-43fe-8561-5fd5f00e14b0" data-name="Group 1"><g id="becb6b85-f05b-45a0-876b-691faa38e458" data-name="Petainer" class="af14edb1-5f2d-4b0e-811b-e9f36d4b5144"><g class="af14edb1-5f2d-4b0e-811b-e9f36d4b5144"><path class="e5786716-39ef-411a-892c-7d0d44427bfb" d="M2.64,11.79v6.1H0V2.29H5.79a4.66,4.66,0,0,1,5,4.75,4.64,4.64,0,0,1-5,4.75ZM5.39,9.46c1.67,0,2.69-.93,2.69-2.4A2.38,2.38,0,0,0,5.39,4.62H2.64V9.46Z"/><path class="e5786716-39ef-411a-892c-7d0d44427bfb" d="M20.64,14.83a4.83,4.83,0,0,1-4.84,3.39,5.42,5.42,0,0,1-5.48-5.75,5.37,5.37,0,0,1,5.21-5.63c3.3,0,5.24,2.18,5.24,5.57a3.11,3.11,0,0,1-.07.81H12.87A2.87,2.87,0,0,0,15.8,16a2.58,2.58,0,0,0,2.68-1.87ZM18.2,11.35A2.42,2.42,0,0,0,15.55,9a2.57,2.57,0,0,0-2.61,2.38Z"/><path class="e5786716-39ef-411a-892c-7d0d44427bfb" d="M25.34,7.17h2.23V9.44H25.34v5c0,.95.42,1.34,1.37,1.34a4.63,4.63,0,0,0,.88-.09v2.12A4.2,4.2,0,0,1,26,18a3,3,0,0,1-3.22-3.19V9.44h-2V7.17h.55A1.52,1.52,0,0,0,23,5.5V3.89h2.31Z"/></g><g class="af14edb1-5f2d-4b0e-811b-e9f36d4b5144"><path class="eb6082fd-7abb-4450-9361-30c1229ac90c" d="M31.61,11.75l2.75-.42c.62-.09.8-.4.8-.77,0-.9-.62-1.63-2-1.63a2.07,2.07,0,0,0-2.2,1.94l-2.33-.53c.2-1.85,1.87-3.5,4.51-3.5,3.3,0,4.56,1.87,4.56,4v5.33a10.1,10.1,0,0,0,.13,1.72H35.42a6.2,6.2,0,0,1-.11-1.37,3.73,3.73,0,0,1-3.3,1.7A3.36,3.36,0,0,1,28.38,15C28.38,13.07,29.79,12,31.61,11.75Zm3.55,1.69V13l-2.8.42c-.79.13-1.43.57-1.43,1.45a1.41,1.41,0,0,0,1.56,1.38A2.44,2.44,0,0,0,35.16,13.44Z"/><path class="eb6082fd-7abb-4450-9361-30c1229ac90c" d="M40.9,1.74a1.66,1.66,0,1,1-1.65,1.67A1.67,1.67,0,0,1,40.9,1.74ZM39.64,17.89V7.17h2.53V17.89Z"/><path class="eb6082fd-7abb-4450-9361-30c1229ac90c" d="M46.93,17.89H44.37V7.17h2.49V8.6A3.56,3.56,0,0,1,50,6.86c2.62,0,3.87,1.89,3.87,4.25v6.78H51.35V11.55c0-1.32-.6-2.38-2.2-2.38a2.25,2.25,0,0,0-2.22,2.53Z"/><path class="eb6082fd-7abb-4450-9361-30c1229ac90c" d="M65.38,14.83a4.82,4.82,0,0,1-4.84,3.39,5.41,5.41,0,0,1-5.47-5.75,5.36,5.36,0,0,1,5.21-5.63c3.3,0,5.24,2.18,5.24,5.57a3.69,3.69,0,0,1-.07.81H57.62A2.87,2.87,0,0,0,60.54,16a2.6,2.6,0,0,0,2.69-1.87Zm-2.44-3.48A2.4,2.4,0,0,0,60.3,9a2.59,2.59,0,0,0-2.62,2.38Z"/><path class="eb6082fd-7abb-4450-9361-30c1229ac90c" d="M73.13,9.7a6.2,6.2,0,0,0-.84-.07c-2,0-2.88,1.15-2.88,3.15v5.11H66.86V7.17h2.48V8.89A3.25,3.25,0,0,1,72.45,7a4.07,4.07,0,0,1,.68.06Z"/></g></g><g id="fdb95ce7-ace0-48d5-8e2e-9aadfc161f28" data-name="TM" class="af14edb1-5f2d-4b0e-811b-e9f36d4b5144"><g class="af14edb1-5f2d-4b0e-811b-e9f36d4b5144"><path class="eb6082fd-7abb-4450-9361-30c1229ac90c" d="M78.71.82V4.89h-.92V.82H76.4V0h3.7V.82Z"/><path class="eb6082fd-7abb-4450-9361-30c1229ac90c" d="M84.54,1.38h0l-.38.78L83.14,4l-1-1.84-.38-.78h0V4.89h-.87V0h1l1.25,2.39h0L84.42,0h1V4.89h-.88Z"/></g></g></g></g></svg>