<svg xmlns="http://www.w3.org/2000/svg" viewBox="0 0 77.33 17.83"><defs><style>.cls-1{fill:#1c989c;}.cls-2{fill:#f5f5f5;}</style></defs><title>Logo_2</title><g id="Layer_2" data-name="Layer 2"><g id="Layer_1-2" data-name="Layer 1"><g id="Layer_1-2-2" data-name="Layer 1-2"><path class="cls-1" d="M2.64,11.4v6.09H0V1.89H5.79a4.66,4.66,0,0,1,5,4.31c0,.14,0,.29,0,.44a4.65,4.65,0,0,1-4.53,4.77,3.73,3.73,0,0,1-.47,0ZM5.39,9.06c1.67,0,2.69-.92,2.69-2.4A2.39,2.39,0,0,0,5.76,4.2a2.3,2.3,0,0,0-.37,0H2.64V9.06Z"/><path class="cls-1" d="M20.57,14.43a4.82,4.82,0,0,1-4.84,3.39,5.41,5.41,0,0,1-5.49-5.33c0-.14,0-.27,0-.41a5.39,5.39,0,0,1,5.11-5.64h.11c3.3,0,5.23,2.18,5.23,5.57a3.78,3.78,0,0,1-.06.82H12.8a2.88,2.88,0,0,0,2.93,2.79,2.6,2.6,0,0,0,2.69-1.87ZM18.13,11a2.39,2.39,0,0,0-2.42-2.38h-.22A2.58,2.58,0,0,0,12.87,11Z"/><path class="cls-1" d="M25.21,6.77h2.22V9H25.21v5c0,1,.42,1.35,1.37,1.35a6.4,6.4,0,0,0,.88-.09v2.11a4,4,0,0,1-1.57.24,3,3,0,0,1-3.21-2.78,2.8,2.8,0,0,1,0-.41V9h-2V6.77h.55A1.51,1.51,0,0,0,22.9,5.44a1.93,1.93,0,0,0,0-.34V3.5h2.31Z"/><path class="cls-2" d="M31.48,11.35l2.75-.42c.62-.09.79-.39.79-.77,0-.9-.61-1.63-2-1.63a2.07,2.07,0,0,0-2.2,1.93h0l-2.33-.53c.2-1.85,1.87-3.5,4.51-3.5,3.3,0,4.55,1.87,4.55,4v5.32a9,9,0,0,0,.14,1.72h-2.4a6.19,6.19,0,0,1-.11-1.36,3.74,3.74,0,0,1-3.3,1.69,3.36,3.36,0,0,1-3.62-3.08.76.76,0,0,1,0-.15C28.25,12.67,29.66,11.61,31.48,11.35ZM35,13.05v-.49L32.23,13c-.79.13-1.43.57-1.43,1.45a1.43,1.43,0,0,0,1.44,1.4h.12A2.44,2.44,0,0,0,35,13.64,2.89,2.89,0,0,0,35,13.05Z"/><path class="cls-2" d="M40.7,1.34A1.66,1.66,0,1,1,39.05,3,1.67,1.67,0,0,1,40.7,1.34ZM39.45,17.49V6.77H42V17.49Z"/><path class="cls-2" d="M46.66,17.49H44.11V6.77H46.6V8.2a3.55,3.55,0,0,1,3.16-1.73c2.62,0,3.88,1.89,3.88,4.24v6.78H51.08V11.15c0-1.32-.59-2.37-2.2-2.37A2.26,2.26,0,0,0,46.64,11a2.45,2.45,0,0,0,0,.27Z"/><path class="cls-2" d="M65.05,14.43a4.82,4.82,0,0,1-4.84,3.39,5.41,5.41,0,0,1-5.49-5.33c0-.14,0-.27,0-.41a5.37,5.37,0,0,1,5.11-5.63H60c3.3,0,5.24,2.18,5.24,5.57a3.73,3.73,0,0,1-.07.82H57.29a2.86,2.86,0,0,0,2.92,2.79,2.6,2.6,0,0,0,2.69-1.87ZM62.61,11a2.4,2.4,0,0,0-2.37-2.43H60A2.58,2.58,0,0,0,57.35,11Z"/><path class="cls-2" d="M72.73,9.3a5.69,5.69,0,0,0-.83-.06c-2,0-2.89,1.14-2.89,3.15v5.1H66.46V6.77H69V8.49a3.24,3.24,0,0,1,3.1-1.85,3.82,3.82,0,0,1,.68.07Z"/><path class="cls-2" d="M72.77.37V3.49h-.42V.37H71.24V0h2.64V.37Z"/><path class="cls-2" d="M76.91.55h0l-.3.58-.84,1.53-.83-1.53-.3-.58h0V3.49h-.41V0h.56l1,1.88h0l1-1.88h.54V3.49h-.41Z"/></g></g></g></svg>