<svg xmlns="http://www.w3.org/2000/svg" viewBox="0 0 77.32 17.82"><defs><style>.cls-1{fill:#1c989c;}.cls-2{fill:#333;}</style></defs><title>Logo_Petainer_2v</title><g id="Layer_2" data-name="Layer 2"><g id="Layer_1-2" data-name="Layer 1"><path class="cls-1" d="M2.64,11.4v6.09H0V1.89H5.79a4.66,4.66,0,0,1,5,4.75,4.65,4.65,0,0,1-5,4.76ZM5.39,9.06c1.67,0,2.69-.92,2.69-2.4A2.39,2.39,0,0,0,5.39,4.22H2.64V9.06Z"/><path class="cls-1" d="M20.57,14.43a4.82,4.82,0,0,1-4.84,3.39,5.41,5.41,0,0,1-5.48-5.74,5.38,5.38,0,0,1,5.22-5.64c3.3,0,5.23,2.18,5.23,5.57a4.27,4.27,0,0,1-.06.82H12.8a2.88,2.88,0,0,0,2.93,2.79,2.59,2.59,0,0,0,2.69-1.87ZM18.13,11a2.4,2.4,0,0,0-2.64-2.37A2.57,2.57,0,0,0,12.87,11Z"/><path class="cls-1" d="M25.21,6.77h2.22V9H25.21v5c0,1,.42,1.35,1.37,1.35a5.66,5.66,0,0,0,.88-.09v2.11a4,4,0,0,1-1.57.24,3,3,0,0,1-3.21-3.19V9h-2V6.77h.55A1.51,1.51,0,0,0,22.9,5.1V3.5h2.31Z"/><path class="cls-2" d="M31.48,11.35l2.75-.42c.62-.09.79-.39.79-.77,0-.9-.61-1.63-2-1.63a2.07,2.07,0,0,0-2.2,1.94l-2.33-.53c.2-1.85,1.87-3.5,4.51-3.5,3.3,0,4.55,1.87,4.55,4v5.32a8.61,8.61,0,0,0,.14,1.72H35.29a6.15,6.15,0,0,1-.11-1.36,3.75,3.75,0,0,1-3.3,1.69,3.36,3.36,0,0,1-3.63-3.23C28.25,12.67,29.66,11.61,31.48,11.35ZM35,13.05v-.49L32.23,13c-.79.13-1.43.57-1.43,1.45a1.42,1.42,0,0,0,1.56,1.39A2.44,2.44,0,0,0,35,13.05Z"/><path class="cls-2" d="M40.7,1.34A1.67,1.67,0,0,1,42.37,3a1.66,1.66,0,0,1-3.32,0A1.67,1.67,0,0,1,40.7,1.34ZM39.45,17.49V6.77H42V17.49Z"/><path class="cls-2" d="M46.66,17.49H44.11V6.77H46.6V8.2a3.55,3.55,0,0,1,3.16-1.73c2.62,0,3.88,1.89,3.88,4.24v6.78H51.08V11.15c0-1.32-.59-2.37-2.2-2.37a2.25,2.25,0,0,0-2.22,2.53Z"/><path class="cls-2" d="M65.05,14.43a4.82,4.82,0,0,1-4.84,3.39,5.41,5.41,0,0,1-5.48-5.74A5.38,5.38,0,0,1,60,6.44c3.3,0,5.24,2.18,5.24,5.57a3.91,3.91,0,0,1-.07.82H57.29a2.86,2.86,0,0,0,2.92,2.79,2.59,2.59,0,0,0,2.69-1.87ZM62.61,11A2.4,2.4,0,0,0,60,8.58,2.58,2.58,0,0,0,57.35,11Z"/><path class="cls-2" d="M72.73,9.3a6,6,0,0,0-.83-.06c-2,0-2.89,1.14-2.89,3.15v5.1H66.46V6.77H69V8.49a3.23,3.23,0,0,1,3.1-1.85,3.69,3.69,0,0,1,.68.07Z"/><path class="cls-2" d="M72.77.37V3.49h-.42V.37H71.24V0h2.64V.37Z"/><path class="cls-2" d="M76.91.55h0l-.3.58-.84,1.53-.83-1.53-.3-.58h0V3.49h-.41V0h.56l1,1.88h0l1-1.88h.54V3.49h-.41Z"/></g></g></svg>