<svg xmlns="http://www.w3.org/2000/svg" width="48" height="58" viewBox="0 0 48 58"><g><g><g><path fill="#dbdbdb" d="M20.115 13.247c8.198 0 14.867 6.67 14.867 14.868s-6.669 14.867-14.867 14.867-14.868-6.67-14.868-14.867c0-8.198 6.67-14.868 14.868-14.868zm27.253 40.131L35.51 41.046a20.05 20.05 0 0 0 4.719-12.931C40.23 17.024 31.206 8 20.115 8S0 17.024 0 28.115C0 39.205 9.024 48.23 20.115 48.23a19.9 19.9 0 0 0 11.524-3.64l11.947 12.425c.5.519 1.171.805 1.891.805a2.61 2.61 0 0 0 1.818-.732 2.627 2.627 0 0 0 .073-3.71z"/></g><g/><g><path fill="#f5f5f5" d="M15 14c0-7.732 6.268-14 14-14s14 6.268 14 14-6.268 14-14 14-14-6.268-14-14z"/></g><g><g><path fill="#dbdbdb" d="M35.857 10.1l-4.332 4.333 4.332 4.332a1.65 1.65 0 0 1-2.332 2.334l-4.333-4.333-4.333 4.333a1.644 1.644 0 0 1-1.166.483 1.65 1.65 0 0 1-1.166-2.816l4.332-4.333-4.332-4.332a1.65 1.65 0 0 1 2.332-2.333l4.333 4.332 4.332-4.332a1.65 1.65 0 0 1 2.333 2.333z"/></g></g></g></g></svg>