<svg xmlns="http://www.w3.org/2000/svg" viewBox="0 0 297 344.69"><defs><style>.cls-1{fill:#f5f5f5;}.cls-2{fill:none;stroke:#000;stroke-miterlimit:10;stroke-width:0.5px;}</style></defs><title>4</title><g id="Layer_2" data-name="Layer 2"><g id="KEG-----------------------------"><g id="FUTER-------------------------------"><path class="cls-1" d="M106.82,185.52s2.78,7.8,7.35,9.8c4.92,1.59,29.58,2.62,38.69,2.31,9.21-.63,35-1.77,37.23-3.29s6.62-6,6.37-9c-3.86.59-42.29,3-42.29,3l-17.12-.3-18.62-1.2-11.61-1.28"/><path class="cls-1" d="M294.75,109.94s4-17,1-24c.18-13.7-7-26-7-26a59.51,59.51,0,0,1-1,8c2,7,3.26,15.65,3,21-.7,14.37-8,24.32-12.21,30.35-6.13,8.86-29.34,24-30.54,26.43s-.74,16.16-1.09,19.65c-.32,3.2-11.13,6.94-12.91,7.53L232,164.58a39.5,39.5,0,0,0-1.81-4.81c-2.11-4.06-7.4-3.48-7.4-3.48s-26.23,11.29-73.38,12.19c-23.14.45-51.35-4.5-72-10.32-2.24-.63-4.55,2.31-4.55,2.31L72.56,162l-.48-.13-1.33,8.07-1.33,4.87c-3.39-.83-12.84-3.53-12.56-7.53.61-6.6-.16-15.17-1.52-16.86-4.7-5.87-12.52-7.29-30.54-22.91-5.81-5-16.43-20.68-18.69-31.4-2.4-11.41.64-24.17,2.64-28.17-1-2-2-6-1-8-4,8-8.27,21.41-6.06,35.91-.22,5.33-.68,11.57.06,17.09,1.27,9.44.15,6.08,5,17,4.13,9.29,12.18,20.7,18.27,26,2.46,3,2.21,4.89,2.21,4.89L27.52,211C20,215.73,5.93,232.23,2.75,244.94c-8.3,33.18,13,52.83,13,52.83a109,109,0,0,0,17.05,15.17A136.67,136.67,0,0,0,73,332.9a245.65,245.65,0,0,0,34.73,8,314.2,314.2,0,0,0,36,3.32s40.55,4.1,90-16.32c8.15-3.37,15.05-7.33,23.63-12.17a100.42,100.42,0,0,0,22.37-19.83c9-11,12.61-19.25,14-29,2-14-3-24-3-24l-3.5-7-.5-12-2-79,4-14Zm-273,136a11.81,11.81,0,0,1-1-7c.43-3.14,4-10.79,6.85-14l.15,27A16.45,16.45,0,0,1,21.75,245.94Zm129.11,4.53c-41.91-1-53.56-36-57-48.14L93.75,201l-.11-4,2.61-5.61,4-4,5.5-2.5,18,3,30,1L197.16,185l4.59,2.95,3,5,1,3,0,0,.34,2.3C204.32,211.43,195.91,250.47,150.86,250.47Zm93.79-77.53c.2-.12.75-.43,1.45-.86l-.35.86Z"/><path d="M152.06,314.17c-18.71,0-37.35-2.19-46.63-5.51-7.81-2.79-11.59-7.59-13.38-11.13a18,18,0,0,1-2-7.11c0-.79,2.1-77.75,3.08-90.44.52-6.72,3.79-10.42,6.44-12.34a15.11,15.11,0,0,1,5.71-2.59h.07c.23,0,23.79,2.86,43.28,2.86,13.63,0,29.35-1.38,38.74-2.21,4.3-.38,7.41-.65,8.64-.65,4.2,0,8.64,4.81,10.09,10.95,1.15,4.82,2.06,77.41,2.17,92.61.06,8.31-6,17.11-13.73,20.05l-.09-.23.09.23C184.2,312.56,168.1,314.17,152.06,314.17ZM105.29,185.55c-.67.14-10.77,2.35-11.7,14.47-1,12.68-3.06,89.62-3.08,90.4a18.06,18.06,0,0,0,2,6.9c1.75,3.45,5.44,8.14,13.09,10.87,17.17,6.13,66.51,8.41,88.72,0h0c7.45-2.82,13.47-11.6,13.41-19.58-.1-14.6-1-87.8-2.15-92.49-1.38-5.83-5.7-10.57-9.61-10.57-1.21,0-4.31.27-8.59.65-9.4.83-25.14,2.21-38.79,2.21C129.44,188.41,106.38,185.68,105.29,185.55Zm-77.6,66.59-.36-.17a13.48,13.48,0,0,1-6.62-8.46c-1.21-5.23.92-11.36,6.34-18.23l.13.1L27.13,163a11,11,0,0,0-3.3-7.86C12.62,144.3,5,128.14,3.12,122,.21,112.67,1.21,94.2,1.22,94h.5c.66,10.13,6.51,21.86,16.48,33,8.72,9.76,19.9,18.31,29.9,22.86,4.55,2.06,4.73,8.84,4.89,14.82a34.16,34.16,0,0,0,.54,6.49c.82,3.28,12.63,6.83,12.75,6.87a1,1,0,0,0,.83-.11c1.65-1,3.17-6.18,4.53-15.36a2,2,0,0,1,.87-1.52,3.09,3.09,0,0,1,2.58,0,246.78,246.78,0,0,0,78,11.15c37.29-.66,65.52-9.14,73.25-12.36A4.53,4.53,0,0,1,230,160a2.87,2.87,0,0,1,1.54,1.85c.11.49.25,1.08.4,1.73.86,3.8,2.47,10.86,4.22,11.3,3.28.82,11.52-3.89,14.18-6.54,1.32-1.32,1.27-7.61,1.23-12.2,0-1.35,0-2.62,0-3.64v-.78c0-2,0-4.22,2.46-5.88.11-.08.32-.22.63-.41,14.5-9.22,23.39-18.86,28.3-25.32,9.27-12.2,13.46-24.71,12.56-37.35a73.11,73.11,0,0,0-5-18.57l0-.08-.27-.57.59.23a.85.85,0,0,1,.1.15l0,0a53.78,53.78,0,0,1,5.06,19,95.5,95.5,0,0,1,1,13.55c0,7.76-3.75,20.43-7.07,31.6-2.64,8.93-4.93,16.65-4.93,20.42,0,.79,2.5,79.32,2.5,87H287c0-7.68-2.48-86.21-2.5-87,0-3.85,2.3-11.6,5-20.57,3.3-11.14,7-23.77,7-31.46,0-3-.14-5.93-.39-8.63-.39,11-4.65,21.93-12.75,32.6-4.93,6.5-13.87,16.19-28.44,25.44l-.61.4c-2.23,1.52-2.23,3.53-2.24,5.47v.79c0,1,0,2.28,0,3.62,0,4.94.09,11.09-1.38,12.56-2.47,2.47-11,7.6-14.65,6.67-1.89-.47-3.3-6-4.59-11.67-.15-.65-.28-1.24-.4-1.73a2.33,2.33,0,0,0-1.28-1.51,4,4,0,0,0-3.19-.12c-7.75,3.23-36.07,11.73-73.43,12.4A246.87,246.87,0,0,1,75,161.52a2.68,2.68,0,0,0-2.18,0,1.54,1.54,0,0,0-.64,1.16c-1.4,9.47-3,14.61-4.76,15.71a1.41,1.41,0,0,1-1.24.17c-.49-.15-12.2-3.68-13.09-7.23a34.64,34.64,0,0,1-.55-6.6c-.15-5.83-.33-12.44-4.59-14.38-10.07-4.57-21.31-13.16-30.07-23C8.83,117.29,3.16,106.75,1.6,97.3c-.14,5.74-.15,17.68,2,24.56C5.5,128,13,144,24.17,154.77A11.46,11.46,0,0,1,27.63,163Zm-.51-26.2c-5.12,6.59-7.14,12.46-6,17.45a13,13,0,0,0,6,7.93Z"/><path d="M69.07,175c-.38-.11-9.43-2.93-11.85-5.34-.81-.82-.74-3-.63-6.1.2-5.75.48-13.62-5.19-16.77-5-2.8-20.4-11.33-32.16-25.22C4.54,104.24,1.1,85.35,9,65.45l.47.19C2.5,83.17-1.29,117,51.65,146.38c5.93,3.3,5.65,11.35,5.44,17.23-.09,2.72-.18,5.06.49,5.72,2.33,2.33,11.55,5.2,11.64,5.23Z"/><path d="M115.71,311c-5.2-.74-12.23-3-16.21-9.62A18.08,18.08,0,0,1,97,293.64l-3.59-94.52h.25l3.59,94.52a17.81,17.81,0,0,0,2.5,7.58c3.93,6.52,10.88,8.76,16,9.5Z"/><path d="M180.61,312.16l0-.25c11.6-1.6,17.39-8.56,19.8-12.57a14,14,0,0,0,2-6.75l3.1-94.37h.25l-3.1,94.37a14.17,14.17,0,0,1-2,6.87C198.16,303.52,192.32,310.54,180.61,312.16Z"/><path d="M153,256.31h-.84c-24.43-.37-39.15-15.94-47.2-28.93A98.71,98.71,0,0,1,93.21,199l.49-.11a98.06,98.06,0,0,0,11.65,28.22c8,12.88,22.58,28.31,46.78,28.68s37.43-15.54,44.27-29a97.5,97.5,0,0,0,9.17-29.56l.5.05a98.08,98.08,0,0,1-9.22,29.73C190,240.46,176.88,256.31,153,256.31Z"/><polygon class="cls-1" points="122.93 195.51 123.05 204.62 123.95 206.04 130.45 206.83 131.92 205.83 133.74 196.11 122.93 195.51"/><polygon class="cls-1" points="172.78 195.51 174.59 204.62 176.06 205.99 182.99 205.36 184.35 203.78 183.6 193.71 172.78 195.51"/><path d="M152,193.25c-35.05,0-42.66-2.83-43-2.95l.18-.47c.07,0,7.9,2.92,42.78,2.92s42.69-4,42.76-4.08l.24.44C194.66,189.28,187,193.25,152,193.25Z"/><path d="M146.91,197.83c-16.34,0-31.15-1.13-33.54-2.7a18.07,18.07,0,0,1-6.9-9.77l.49-.12a17.48,17.48,0,0,0,6.69,9.47c2.61,1.72,21.89,2.94,40.44,2.55,17-.35,34.08-2.18,36.15-3.42,4.2-2.51,6.31-8.56,6.33-8.62l.48.16c-.09.26-2.2,6.28-6.55,8.89-2.14,1.28-18.85,3.13-36.4,3.49C151.7,197.81,149.29,197.83,146.91,197.83Z"/><path d="M149,168.76c-25.32,0-48.46-3.36-70.61-10.25a4.79,4.79,0,0,0-3.74.66,5.21,5.21,0,0,0-2.55,3.36l-.49-.1a5.73,5.73,0,0,1,2.78-3.69,5.35,5.35,0,0,1,4.15-.71c23.24,7.23,47.56,10.57,74.4,10.2a217.59,217.59,0,0,0,67-11.29c.8-.27,1.4-.48,1.79-.59a7.7,7.7,0,0,1,6.19.38,7.35,7.35,0,0,1,3.31,4.48l-.49.13a6.8,6.8,0,0,0-3.07-4.18,7.22,7.22,0,0,0-5.8-.33c-.38.11-1,.31-1.77.58A218,218,0,0,1,153,168.73Z"/><path d="M151.51,294.49a214.44,214.44,0,0,1-49.66-5.64l.13-.48A214.67,214.67,0,0,0,151.51,294c28.14,0,46.26-4.38,46.44-4.42l.12.48C197.89,290.1,179.71,294.49,151.51,294.49Z"/><path d="M176.68,206.22a2.51,2.51,0,0,1-2.47-2.07l-1.36-7.46.5-.09,1.35,7.46a2,2,0,0,0,2.17,1.65l5.57-.51a1.68,1.68,0,0,0,1.54-1.77l-.41-7.76.5,0,.41,7.76a2.18,2.18,0,0,1-2,2.29l-5.57.51Z"/><path d="M130.08,207.09h-.22l-5-.49a2.38,2.38,0,0,1-2.15-2.38v-7.13h.5v7.13a1.88,1.88,0,0,0,1.7,1.88l5,.49a1.73,1.73,0,0,0,1.88-1.35l1.34-7.76.49.08-1.33,7.78A2.27,2.27,0,0,1,130.08,207.09Z"/><path d="M202.12,293.5A63.66,63.66,0,0,0,188.35,283a77.47,77.47,0,0,0-39-10.48,79.07,79.07,0,0,0-38.07,10,69.77,69.77,0,0,0-14.1,10l-.18-.18a70.38,70.38,0,0,1,14.16-10.08,79.21,79.21,0,0,1,38.19-10.07,77.69,77.69,0,0,1,39.12,10.52,64.28,64.28,0,0,1,13.83,10.54Z"/><path d="M234.13,172.92l-.16-.47c2.08-.69,10.83-4,12.48-6.51.48-.72.43-5.39.37-9.51,0-2.77-.07-5.63.05-7.49a9.39,9.39,0,0,1,4.22-6.66l1-.71c6.68-4.58,19.11-13.11,28.07-25.56,11-15.25,13.2-31.6,6.64-48.61l.46-.18c6.63,17.18,4.37,33.69-6.7,49.08-9,12.53-21.48,21.09-28.18,25.69l-1,.71a8.87,8.87,0,0,0-4,6.27c-.12,1.84-.08,4.7-.05,7.46.07,5.56.08,9-.45,9.79C244.89,169.19,234.23,172.89,234.13,172.92Z"/><path d="M151.17,250.51a58,58,0,0,1-25.25-5.4A51.46,51.46,0,0,1,110,233.24,53,53,0,0,1,99.39,216l.24-.08a52.64,52.64,0,0,0,10.59,17.19A51.22,51.22,0,0,0,126,244.89a57.81,57.81,0,0,0,25.14,5.37A57.94,57.94,0,0,0,176.39,245a47,47,0,0,0,24.5-28.48l.24.06a47.24,47.24,0,0,1-24.63,28.65A58.23,58.23,0,0,1,151.17,250.51Z"/><path class="cls-2" d="M1.61,95.21S-1.34,77.29,7,61.57"/><path d="M129.78,38.15a1.62,1.62,0,0,1-1.52-1.08l-1.87-5.34.24-.09L128.5,37a1.37,1.37,0,0,0,1.55.89l3.66-.49a1.38,1.38,0,0,0,1.2-1.26l.48-5.84.25,0-.48,5.84a1.65,1.65,0,0,1-1.42,1.49l-3.65.48A1.55,1.55,0,0,1,129.78,38.15Z"/><path d="M167.18,38.36a2,2,0,0,1-.35,0l-2.77-.52A2.12,2.12,0,0,1,162.29,36l-.46-5.65.25,0,.46,5.64a1.85,1.85,0,0,0,1.56,1.63l2.77.52a1.61,1.61,0,0,0,1.85-1l1.66-5.56.24.07L169,37.1A1.85,1.85,0,0,1,167.18,38.36Z"/><path d="M149.56,110H149c-15.47-.22-26.87-9.85-33.89-28.63C109.3,65.75,108,47.43,107.78,37.9h0a10.91,10.91,0,0,1,8-10.8,130.78,130.78,0,0,1,32.69-4.56A134.9,134.9,0,0,1,183,27.64a8.67,8.67,0,0,1,6.26,8.3c.11,14.15-1.4,48.83-17.88,65.21A29.91,29.91,0,0,1,149.56,110ZM108,37.89c.24,9.52,1.52,27.81,7.34,43.4,7,18.68,18.3,28.25,33.66,28.47h.52a29.68,29.68,0,0,0,21.68-8.8c16.41-16.31,17.91-50.91,17.8-65A8.42,8.42,0,0,0,183,27.88a134.36,134.36,0,0,0-34.51-5.09,130.22,130.22,0,0,0-32.62,4.55A10.66,10.66,0,0,0,108,37.89Z"/><path d="M290.36,63.89C284,50.05,273.06,38.7,255.8,28.17c-2-1.19-3.52-1.58-4.79-1.21a4.31,4.31,0,0,0-2.51,2.5l-.45-.22a4.73,4.73,0,0,1,2.82-2.75c1.42-.43,3.11,0,5.19,1.25,17.35,10.59,28.4,22,34.75,35.94Z"/><path d="M244.1,38.76c-1.77-.59-7.14-2.38-8.37-4.82-.69-1.39-.92-5-1.14-8.47A43.5,43.5,0,0,0,234,19.2a5.75,5.75,0,0,0-3.37-3.94C205.9,5.61,177.35.5,148,.5,121.26.5,97.21,4.18,74.51,11.75c-1.58.52-5.7,2.78-5.7,6.81,0,2.47,0,10-.6,12.39s-8.07,4.78-8.39,4.88l-.15-.48c2.09-.64,7.61-2.71,8.06-4.52.38-1.54.58-5.67.58-12.27,0-4.33,4.36-6.73,6-7.29C97.1,3.69,121.2,0,148,0c29.39,0,58,5.12,82.74,14.8a6.25,6.25,0,0,1,3.68,4.28,45.27,45.27,0,0,1,.65,6.36c.21,3.27.44,7,1.09,8.28,1.13,2.25,6.36,4,8.08,4.57Z"/><path d="M7.11,62.13l-.45-.22C14.54,46.4,29,33.13,49.65,22.45a4.43,4.43,0,0,1,3.61-.39,4.75,4.75,0,0,1,2.61,2.86l-.47.19a4.23,4.23,0,0,0-2.32-2.58,3.94,3.94,0,0,0-3.2.36C29.32,33.52,14.93,46.73,7.11,62.13Z"/><path d="M290.83,85.52h-.5A50,50,0,0,0,287,67.79c-5.63-14.87-17.47-27.72-36.19-39.29a1.08,1.08,0,0,0-.89-.12c-1.53.47-3.16,4.15-4.46,7.11s-2.15,4.75-3,5c-1.88.61-8.48-2.38-9.7-4.83-.88-1.75-1.2-9.64-1.2-14.21A5,5,0,0,0,228.81,17C205.94,7.68,178.71,3,147.88,3,118.73,3,96.65,6.2,76.28,13.51c-.87.3-5.12,2-5.12,5.63,0,8.24-.41,13-1.22,14.24-1.22,1.83-7.23,4.82-9.1,4.21-1.15-.38-2.08-3.22-3.15-6.5a40.81,40.81,0,0,0-2.27-5.95,2.3,2.3,0,0,0-2-1.09,1.88,1.88,0,0,0-1,.23C31.3,35.17,16.46,49.47,9.46,65.65L9,65.45c7-16.28,22-30.67,43.16-41.61a2.67,2.67,0,0,1,1.22-.29,2.76,2.76,0,0,1,2.47,1.35,40.52,40.52,0,0,1,2.3,6c1,2.89,1.93,5.88,2.84,6.19,1.64.54,7.44-2.39,8.53-4,.42-.63,1.13-3.29,1.13-14,0-4,4.53-5.78,5.43-6.1C96.54,5.71,118.67,2.45,147.88,2.45c30.89,0,58.19,4.75,81.12,14.11a5.49,5.49,0,0,1,3.1,4.93c0,5.75.43,12.55,1.14,14,1.12,2.24,7.4,5.14,9.1,4.57.68-.22,1.7-2.53,2.69-4.76,1.42-3.21,3-6.85,4.78-7.39a1.52,1.52,0,0,1,1.29.18c18.82,11.63,30.73,24.56,36.4,39.53A50.52,50.52,0,0,1,290.83,85.52Z"/><path d="M123.74,32.25a3.51,3.51,0,0,1-3.09-1.83l-2.27-3.57.21-.14,2.28,3.59a3.27,3.27,0,0,0,3.56,1.63,114.2,114.2,0,0,1,24-2.34,123.47,123.47,0,0,1,23.13,2.07A4.87,4.87,0,0,0,177,28.82l1.09-2.48.22.1-1.08,2.48a5.14,5.14,0,0,1-5.7,3,122.29,122.29,0,0,0-23.09-2.07,114.06,114.06,0,0,0-24,2.33A3.05,3.05,0,0,1,123.74,32.25Z"/><path d="M147.25,344.69C66.06,344.69,0,306.67,0,259.94c0-17.77,9.43-34.77,27.28-49.17l.32.39C9.87,225.46.5,242.33.5,259.94c0,46.45,65.83,84.25,146.75,84.25S294,306.39,294,259.94c0-7.54-2.28-15.52-7-24.39l.44-.23c4.73,8.94,7,17,7,24.62C294.5,306.67,228.44,344.69,147.25,344.69Z"/></g></g></g></svg>