<svg xmlns="http://www.w3.org/2000/svg" xmlns:xlink="http://www.w3.org/1999/xlink" viewBox="0 0 283.04 638.42"><defs><style>.cls-1,.cls-3,.cls-5,.cls-6{stroke:#000;stroke-miterlimit:10;}.cls-1,.cls-3,.cls-5{stroke-width:0.5px;}.cls-1{fill:url(#linear-gradient);}.cls-2,.cls-3{fill:#fff;}.cls-2{opacity:0.3;}.cls-4{fill:#f5f5f5;}.cls-5,.cls-6{fill:none;}.cls-6{stroke-width:0.25px;}</style><linearGradient id="linear-gradient" x1="140.39" y1="146.01" x2="137.26" y2="529.39" gradientTransform="translate(1.63 -1.34) rotate(-0.08)" gradientUnits="userSpaceOnUse"><stop offset="0" stop-color="#ffdc22"/><stop offset="0.76" stop-color="#e36803"/><stop offset="0.99" stop-color="#c65500"/></linearGradient></defs><title>2</title><g id="Layer_2" data-name="Layer 2"><g id="KEG-----------------------------"><g id="body"><path class="cls-1" d="M6.32,182.85,9,464.5a97.24,97.24,0,0,0,1.37,15.43c2.28,13.41,2.6,30,15.81,53,2.68,4.67-2.31,28.2,3.57,35.24s19.92-2,24.67,2.31c7,6.34,12.64,9.32,22.34,14.07,6.12,3,6.52,40.52,22.39,44.61,21.66,5.58,32.26-28.83,43.42-28.85,25.2,0,37.43.9,54-7.71,8-4.15,36.53,16.42,46.41,8.16,14.08-11.77,2.41-46.64,7.56-53.47,17.64-23.36,19.27-44.75,22.67-61.34a123.89,123.89,0,0,0,2.5-24.44l.74-278.42s-3.13-131-135.29-130.79S6.32,182.85,6.32,182.85Z"/><path class="cls-2" d="M146.58,585.81a7.42,7.42,0,0,1-8.08.11,3.18,3.18,0,0,1-1.5-2.7l-.76-523.37a3.18,3.18,0,0,1,3.17-3.18h4.82a3.17,3.17,0,0,1,3.17,3.17l.76,523.24A3.19,3.19,0,0,1,146.58,585.81Z"/><path d="M282.65,196l-.5,0A177.63,177.63,0,0,0,278.56,157c-4-20.25-13.39-49.18-35.08-71.93C219.53,60,185.63,47.23,142.7,47.23h-.31c-44.64.06-79.64,13.2-104,39.06C17,108.93,7.9,137.33,4,157.16a170.81,170.81,0,0,0-3.32,38l-.5,0a171.48,171.48,0,0,1,3.33-38.13c3.88-19.9,13-48.4,34.45-71.12,24.49-26,59.62-39.17,104.4-39.23h.31c43.07,0,77.1,12.79,101.15,38C265.61,107.6,275,136.63,279.05,157A178.27,178.27,0,0,1,282.65,196Z"/><path d="M140.62,279.24c-37.42,0-72.59-8.7-99.08-24.5S.24,217.72.21,195.2v-.34h.5v.33c0,22.34,14.62,43.34,41.08,59.11s61.51,24.43,98.83,24.43H141c77.92-.12,141.25-37.51,141.19-83.36h.5c.06,46.12-63.5,83.74-141.69,83.86Z"/><path d="M141,550C63.62,550,.67,512.35.6,466h.5c.07,46.11,62.8,83.54,139.91,83.54h.34c77.92-.11,141.25-37.51,141.19-83.36h.5c.06,46.13-63.5,83.75-141.69,83.86Z"/><path d="M140.91,484.81c-37.41,0-72.58-8.69-99.08-24.49S.54,423.3.51,400.77H1c0,22.35,14.62,43.34,41.08,59.12s61.5,24.42,98.82,24.42h.35c77.91-.11,141.25-37.5,141.18-83.35h.5c.07,46.12-63.49,83.74-141.68,83.85Z"/><path d="M141.73,289.22c-32.75,0-78.68-5.44-112.44-31.24C8.34,242,.94,224.77.61,220.32c0-.42-.4-10.17,1.43-12.18l.37.34c-1.69,1.85-1.3,11.71-1.3,11.81.32,4.38,7.67,21.39,28.48,37.29,33.65,25.71,79.47,31.14,112.14,31.14h.42c33.19-.05,79.67-5.79,112.64-32.85,20.22-16.6,26.81-34.47,26.8-38.76,0-.08.38-7.1-.68-10.22l.47-.16c1.09,3.22.73,10.1.71,10.39,0,2.37-1.79,8-5.75,14.79a92,92,0,0,1-21.23,24.35c-11.76,9.65-26.13,17.32-42.73,22.81-20.28,6.7-43.9,10.11-70.23,10.15Z"/><path d="M142,495.38c-25.75,0-49-3.28-69.17-9.76-16.6-5.34-31.11-12.84-43.15-22.28C8.85,447,1.46,429.42,1.13,424.87c0-.34-.62-8.55,1.21-10.57l.37.34C1,416.5,1.62,424.75,1.63,424.84,2,429.32,9.29,446.68,30,462.94c33.59,26.38,79.38,31.94,112,31.94h.42c33.19,0,79.67-5.78,112.64-32.85,20.22-16.59,26.8-34.46,26.8-38.75,0-.09.37-7.1-.68-10.22l.47-.16c1.09,3.21.72,10.1.71,10.39,0,2.36-1.8,8-5.75,14.79a91.86,91.86,0,0,1-21.23,24.34c-11.76,9.65-26.14,17.33-42.73,22.81-20.28,6.7-43.91,10.12-70.23,10.15Z"/><path d="M282.54,467.33l0-22.91c0-.11.41-9.94-1.79-12.23a1.22,1.22,0,0,0-.92-.44h0v-.5h0a1.73,1.73,0,0,1,1.28.59c2.34,2.45,1.94,12.18,1.93,12.59l0,22.9Z"/><path d="M.47,468.62,0,440.13c-.08-6.48,2-8.19,3.7-8.48l.08.5c-2.2.37-3.34,3.13-3.28,8L1,468.61Z"/><path d="M.51,402.83.26,231.91c0-.06-.54-2.59.58-4a2.46,2.46,0,0,1,2-.88v.5a2,2,0,0,0-1.64.69c-1,1.21-.48,3.59-.47,3.61l.25,171Z"/><path d="M282.44,401.54l-.24-170.33c0-.06.32-3.5-1-5a2,2,0,0,0-1.52-.68V225a2.49,2.49,0,0,1,1.89.84c1.48,1.66,1.15,5.2,1.14,5.35l.24,170.31Z"/><path d="M102.6,638.42a24.37,24.37,0,0,1-3.45-.25c-16.29-2.3-20.69-20.64-23.9-34-1.65-6.86-3.07-12.78-5.61-14.11-2.17-1.14-3.91-2-5.45-2.79-6.21-3.13-7.88-4-14-10.15-1.33-1.35-4.31-1-7.75-.52-6.07.78-13.63,1.75-18.13-5.36s-4-15.84-3.61-23c.21-4.09.39-7.63-.56-9.36-9-16.41-13.59-33-13.61-49.25v-.19H7v.19c0,16.18,4.58,32.67,13.55,49,1,1.85.84,5.28.62,9.62-.36,7-.81,15.8,3.53,22.66s11.71,5.89,17.64,5.13c3.58-.46,6.67-.85,8.18.67,6.08,6.12,7.73,7,13.89,10,1.53.78,3.28,1.66,5.45,2.79C72.62,591,74,596.76,75.73,604c3.18,13.25,7.53,31.4,23.49,33.66,13.43,1.88,21.8-7.81,29.19-16.38,5.77-6.71,11.23-13,18.31-13.06,4.91,0,9,0,12.68.09,17.9.23,22.15.28,37.12-7.77,5.34-2.87,13.69.27,22.53,3.6,11,4.13,22.37,8.42,29.11,1.66,7.69-7.72,7.71-25.28,7.72-39.4,0-8.35,0-14.94,1.61-17.54,16.19-26.38,19.8-53.12,19.79-60.4h.5c0,7.32-3.62,34.18-19.87,60.66-1.52,2.48-1.52,9.34-1.53,17.28,0,14.21,0,31.89-7.87,39.75-7,7-18.49,2.65-29.64-1.55-8.72-3.28-17-6.38-22.11-3.62-15.08,8.11-19.36,8.06-37.37,7.83-3.63,0-7.75-.08-12.67-.09-6.85,0-12.23,6.26-17.93,12.88C122,629.54,114.31,638.42,102.6,638.42Z"/></g><g id="FUTER-------------------------------"><circle class="cls-3" cx="100.56" cy="356.66" r="4.5"/><circle class="cls-3" cx="123.51" cy="322.62" r="5.5"/><circle class="cls-3" cx="171.39" cy="241.55" r="5.5"/><circle class="cls-3" cx="171.3" cy="173.55" r="5.5"/><circle class="cls-3" cx="122.82" cy="187.12" r="4"/><circle class="cls-3" cx="155.57" cy="362.58" r="3.5"/><circle class="cls-3" cx="104.94" cy="271.15" r="4"/><circle class="cls-3" cx="159.14" cy="412.07" r="3"/><circle class="cls-3" cx="120.68" cy="442.63" r="2.5"/><circle class="cls-3" cx="168.72" cy="468.56" r="2.5"/><circle class="cls-3" cx="203.5" cy="317.51" r="2.5"/><circle class="cls-3" cx="115.74" cy="134.13" r="2"/></g><g id="Фитинг-------------"><path class="cls-4" d="M177.05,52.21s-2,16.16-2.61,18.51c-1.17,2.35-6.74,15-31.4,15.61-29.67.33-32.11-16.78-32.11-16.78L106.57,50Z"/><path class="cls-4" d="M184.35,23.13a17.81,17.81,0,0,1-3.5,14.69s0,15.86-1.73,19.38c-2.35,4.7-14.66,17.53-37.57,17.09-28.19-.55-35.26-15.22-36.44-17-1.18-2.94-1.51-12.79-2.16-18.6-.37-3.25-6.68-3.12-4.94-16.63s64.63,16.35,64.63,16.35S182.94,16.12,184.35,23.13Z"/><ellipse class="cls-4" cx="141.48" cy="23.19" rx="42.88" ry="22.91" transform="translate(-0.03 0.2) rotate(-0.08)"/><path class="cls-5" d="M109.52,63.47l1.77,6.46s3,16.44,30.57,16.4c28.19,0,32.87-15.91,32.87-15.91l1.16-8.22"/><path d="M141.28,46.67c-23.75,0-43.07-10.42-43.08-23.27,0-6.26,4.49-12.15,12.67-16.56S129.83,0,141.33,0h.12c23.75,0,43.07,10.43,43.09,23.27,0,6.27-4.5,12.15-12.68,16.57s-19,6.82-30.46,6.83ZM141.33.5c-11.42,0-22.15,2.42-30.22,6.78S98.69,17.33,98.7,23.4c0,12.57,19.11,22.77,42.58,22.77h.12c11.42,0,22.16-2.42,30.22-6.77S184.05,29.34,184,23.27C184,10.7,164.92.5,141.45.5Z"/><path d="M141.31,38.2c-16.25,0-29.46-7.15-29.48-16,0-4.3,3.08-8.34,8.69-11.37s13-4.66,20.82-4.67h.08c16.25,0,29.46,7.15,29.48,16,0,4.3-3.08,8.34-8.69,11.37s-13,4.66-20.82,4.67Zm0-31.5c-7.78,0-15.09,1.65-20.58,4.61s-8.43,6.82-8.43,10.93c0,8.53,13,15.46,29,15.46h.08c7.78,0,15.09-1.65,20.58-4.61s8.43-6.82,8.43-10.93c0-8.54-13-15.46-29-15.46Z"/><path d="M141.49,28.91c-7.53,0-13.66-3.37-13.67-7.52,0-2.06,1.45-4,4.09-5.41a20.7,20.7,0,0,1,9.6-2.15h0A20.69,20.69,0,0,1,151.11,16c2.65,1.42,4.1,3.34,4.11,5.4s-1.45,4-4.1,5.4a20.76,20.76,0,0,1-9.59,2.16Zm0-14.33a19.82,19.82,0,0,0-9.24,2.06c-2.39,1.29-3.7,3-3.7,4.74,0,3.74,5.8,6.78,12.92,6.78h0a19.94,19.94,0,0,0,9.24-2.07c2.39-1.29,3.7-3,3.7-4.74s-1.32-3.45-3.71-4.73a19.87,19.87,0,0,0-9.21-2Z"/><path d="M141.42,51.43c-32.35,0-40.74-14.14-42.55-18.48s-1-10-.67-11.61l.49.09c-.3,1.6-1.13,7.13.65,11.32s10,18.18,42.08,18.18h.16c10.18,0,34.62-1.74,41.59-17.36,1.07-2.41,1.47-5.52,1.21-9.49a14.17,14.17,0,0,0-1.72-6.4l.43-.26a14.08,14.08,0,0,1,1.78,6.64c.27,4-.14,7.22-1.24,9.71-1.52,3.4-4.92,8.24-12.5,12s-17.43,5.62-29.55,5.64Z"/><path d="M141.15,74.25c-16.55,0-26.26-5.66-31.5-10.41A17.45,17.45,0,0,1,104,52.72l-1.48-14,.5-.06,1.48,14A17,17,0,0,0,110,63.47c5.17,4.69,14.77,10.28,31.16,10.28h.11c16.47,0,26.89-5.67,32.74-10.39a16.58,16.58,0,0,0,6.1-12l.79-13.9.5,0-.79,13.9a17.12,17.12,0,0,1-6.28,12.31c-5.91,4.77-16.45,10.47-33.06,10.5Z"/><path d="M141,33.1c-11.57,0-21-5.08-21-11.34s9.43-11.39,21-11.41h.05c11.58,0,21,5.09,21,11.35s-9.42,11.38-21,11.4Zm.08-22.5H141c-11.47,0-20.78,5-20.78,11.16S129.58,32.85,141,32.85h.06c11.46,0,20.78-5,20.77-11.15S152.53,10.6,141.09,10.6Z"/><ellipse class="cls-6" cx="141.67" cy="21" rx="1.71" ry="0.92" transform="translate(-0.03 0.2) rotate(-0.08)"/><path d="M137.31,65.94c-3.06,0-9.16-.94-10.89-1.74a.76.76,0,0,1-.45-.77V61.26s0-.07,0-.1a.48.48,0,0,1,.59-.3c1.84.69,9.1,2,11.75,1.66a.48.48,0,0,1,.43.15.52.52,0,0,1,.16.37v2a.84.84,0,0,1-.76.84Q137.79,65.94,137.31,65.94Zm-11.1-4.66v2.16a.52.52,0,0,0,.3.53c1.84.85,9.1,1.92,11.61,1.69a.6.6,0,0,0,.53-.59V63a.27.27,0,0,0-.08-.19.26.26,0,0,0-.23-.08c-2.75.32-10-1-11.87-1.67a.2.2,0,0,0-.26.13A.09.09,0,0,1,126.21,61.28Z"/><path d="M145.64,65.64a.77.77,0,0,1-.77-.73V62.77a.69.69,0,0,1,.64-.71,121.27,121.27,0,0,0,13.33-2.29.32.32,0,0,1,.13,0,.39.39,0,0,1,.4.39v2a1.16,1.16,0,0,1-.79,1.1c-2.66.86-11.18,2.15-12.86,2.4h-.08ZM159,60h-.05a120,120,0,0,1-13.39,2.29.45.45,0,0,0-.41.46V64.9a.51.51,0,0,0,.54.49c1.7-.25,10.2-1.54,12.84-2.39a.9.9,0,0,0,.62-.86v-2A.15.15,0,0,0,159,60Z"/></g></g></g></svg>