<svg xmlns="http://www.w3.org/2000/svg" width="436.142" height="495.191" viewBox="0 0 436.142 495.191">
  <g id="Octagonal_Corrugated_Bulk_Box_with_Cover" transform="translate(-78.15 -75.6)">
    <path id="Path_3075" data-name="Path 3075" d="M325.57,710.176,78.9,568.918,276.236,462,513.542,602.142Z" transform="translate(0 -170.516)" fill="none" stroke="#000" stroke-linejoin="round" stroke-width="1.5"/>
    <path id="Path_3076" data-name="Path 3076" d="M209.374,325.1,177.6,342.381v37.126l162.161,98.278h66.113l96.438-51.954v-39.69L476.169,371.87Z" transform="translate(-43.68 -109.93)" fill="#d9d9d9" stroke="#000" stroke-linejoin="round" stroke-width="2.2"/>
    <g id="Group_1689" data-name="Group 1689" transform="translate(-352.1 -3953.3)">
      <line id="Line_1836" data-name="Line 1836" x1="21.892" y1="12.637" transform="translate(698.577 4242.898)" stroke-dasharray="3.6 1.8" stroke="#000" stroke-linecap="round" stroke-linejoin="round" stroke-dashoffset="1.41" stroke-width="0.51" fill="none"/>
      <line id="Line_1837" data-name="Line 1837" y2="37.918" transform="translate(698.577 4242.898)" stroke-dasharray="3.6 1.8" stroke="#000" stroke-linecap="round" stroke-linejoin="round" stroke-width="0.51" fill="none"/>
      <line id="Line_1838" data-name="Line 1838" y2="37.918" transform="translate(720.746 4255.566)" stroke-dasharray="3.6 1.8" stroke="#000" stroke-linecap="round" stroke-linejoin="round" stroke-width="0.51" fill="none"/>
      <line id="Line_1839" data-name="Line 1839" x2="21.892" y2="12.637" transform="translate(698.577 4280.816)" stroke-dasharray="3.6 1.8" stroke="#000" stroke-linecap="round" stroke-linejoin="round" stroke-dashoffset="1.41" stroke-width="0.51" fill="none"/>
    </g>
    <path id="Path_3077" data-name="Path 3077" d="M271.578,76.7h58.147L511,173.975v41.92l-99.783,53.682H342.875L173.3,168.958l.167-41.307Z" transform="translate(-41.777)" fill="#e6e6e6" stroke="#000" stroke-linejoin="round" stroke-width="2.2"/>
    <rect id="Rectangle_1269" data-name="Rectangle 1269" width="68.12" height="26.423" transform="translate(301.098 269.577)" fill="#e6e6e6" stroke="#000" stroke-linejoin="round" stroke-width="2.2"/>
    <path id="Path_3078" data-name="Path 3078" d="M699.706,351.853,599.7,406.449l.223-26.367L699.706,326.4Z" transform="translate(-230.481 -110.505)" fill="#e6e6e6" stroke="#000" stroke-linejoin="round" stroke-width="2.2"/>
    <line id="Line_2448" data-name="Line 2448" y2="74.196" transform="translate(222.666 249.174)" fill="none" stroke="gray" stroke-linejoin="round" stroke-width="2"/>
    <line id="Line_2449" data-name="Line 2449" y2="39.746" transform="translate(285.1 286.412)" fill="none" stroke="gray" stroke-linejoin="round" stroke-width="2"/>
    <line id="Line_2450" data-name="Line 2450" x2="57.696" transform="translate(227.404 326.158)" fill="none" stroke="gray" stroke-linejoin="round" stroke-width="2"/>
    <line id="Line_2451" data-name="Line 2451" x1="77.095" y1="41.697" transform="translate(285.1 326.158)" fill="none" stroke="gray" stroke-linejoin="round" stroke-width="2"/>
    <path id="Path_3079" data-name="Path 3079" d="M339.929,664.242,177.6,573.211V422.7l162.329,98.278Z" transform="translate(-43.199 -153.123)" fill="#e6e6e6" stroke="#000" stroke-linejoin="round" stroke-width="2.2"/>
    <rect id="Rectangle_1270" data-name="Rectangle 1270" width="66.726" height="143.264" transform="translate(296.081 367.855)" fill="#e6e6e6" stroke="#000" stroke-linejoin="round" stroke-width="2.2"/>
    <path id="Path_3080" data-name="Path 3080" d="M588.2,701.018l96.234-53.738V505.8L588.2,557.754Z" transform="translate(-225.8 -189.6)" fill="#e6e6e6" stroke="#000" stroke-linejoin="round" stroke-width="2.2"/>
    <path id="Path_3081" data-name="Path 3081" d="M325.57,802.3,78.9,661.047V653.8L325.57,795.057Z" transform="translate(0 -255.397)" fill="none" stroke="#000" stroke-linejoin="round" stroke-width="1.5"/>
    <path id="Path_3082" data-name="Path 3082" d="M709.371,720.7,521.4,828.68v-7.247L709.371,713.4Z" transform="translate(-195.83 -281.773)" fill="none" stroke="#000" stroke-linejoin="round" stroke-width="1.5"/>
    <path id="Path_3083" data-name="Path 3083" d="M542.806,921.223,521.4,933.6V910.464L542.806,898.2Z" transform="translate(-195.83 -363.557)" fill="none" stroke="#000" stroke-linejoin="round" stroke-width="1.5"/>
    <path id="Path_3084" data-name="Path 3084" d="M696.423,835.424,679.7,845.068V821.655l16.723-9.755Z" transform="translate(-265.886 -325.365)" fill="none" stroke="#000" stroke-linejoin="round" stroke-width="1.5"/>
    <path id="Path_3085" data-name="Path 3085" d="M325.57,831.191,78.9,689.042V666.8L325.57,808.057Z" transform="translate(0 -261.15)" fill="none" stroke="#000" stroke-linejoin="round" stroke-width="1.5"/>
    <path id="Path_3086" data-name="Path 3086" d="M642.3,841.329l20.849,11.483V829.4Z" transform="translate(-249.334 -333.109)" fill="none" stroke="#000" stroke-linejoin="round" stroke-width="1.5"/>
    <path id="Path_3087" data-name="Path 3087" d="M845.368,751.139,828.7,761.508V736.2l16.668-9.7Z" transform="translate(-331.826 -287.571)" fill="none" stroke="#000" stroke-linejoin="round" stroke-width="1.5"/>
    <path id="Path_3088" data-name="Path 3088" d="M785.2,757.725l24.249,11.483V743.9Z" transform="translate(-312.575 -295.271)" fill="none" stroke="#000" stroke-linejoin="round" stroke-width="1.5"/>
    <path id="Path_3089" data-name="Path 3089" d="M342.875,369.186,173.3,268.01V242.2L342.875,342.819Z" transform="translate(-41.777 -73.242)" fill="#e6e6e6" stroke="#000" stroke-linejoin="round" stroke-width="2.2"/>
    <path id="Path_3096" data-name="Path 3096" d="M-7114.321,4506.046l-21.175,12.125" transform="translate(7460.9 -3953.3)" fill="none" stroke="#000" stroke-width="1.5"/>
    <path id="Path_3097" data-name="Path 3097" d="M-7118.641,4506.046l-16.855,10.105" transform="matrix(1, 0.017, -0.017, 1, 7626.65, -3876.229)" fill="none" stroke="#000" stroke-width="1.5"/>
    <path id="Path_3099" data-name="Path 3099" d="M16.183,9.606.031.205" transform="matrix(-0.999, 0.035, -0.035, -0.999, 413.533, 514.56)" fill="none" stroke="#000" stroke-width="1.5"/>
    <path id="Path_3098" data-name="Path 3098" d="M-7118.641,4506.046l-16.855,10.105" transform="translate(7632.006 -4047.3)" fill="none" stroke="#000" stroke-width="1.5"/>
    <path id="Path_3101" data-name="Path 3101" d="M18.505,10.227-.4,1.46" transform="translate(496.365 469.852) rotate(180)" fill="none" stroke="#000" stroke-width="1.5"/>
    <path id="Path_3100" data-name="Path 3100" d="M0,0,247.219,141.875" transform="translate(78.9 423.2)" fill="none" stroke="#000" stroke-width="1.5"/>
    <g id="wood" transform="translate(-352.1 -3953.3)">
      <line id="Line_2452" data-name="Line 2452" y1="18" x2="33" transform="translate(659.5 4464.5)" fill="none" stroke="#000" stroke-width="1.5"/>
      <line id="Line_2454" data-name="Line 2454" y1="7" x2="13" transform="translate(640.5 4464.5)" fill="none" stroke="#000" stroke-width="1.5"/>
      <line id="Line_2457" data-name="Line 2457" y1="6" x2="10" transform="translate(621.5 4455.5)" fill="none" stroke="#000" stroke-width="1.5"/>
      <line id="Line_2458" data-name="Line 2458" y1="6" x2="10" transform="translate(602.5 4444.5)" fill="none" stroke="#000" stroke-width="1.5"/>
      <line id="Line_2459" data-name="Line 2459" y1="6" x2="10" transform="translate(583.5 4433.5)" fill="none" stroke="#000" stroke-width="1.5"/>
      <line id="Line_2460" data-name="Line 2460" y1="6" x2="10" transform="translate(564.5 4422.5)" fill="none" stroke="#000" stroke-width="1.5"/>
      <line id="Line_2461" data-name="Line 2461" y1="5" x2="9" transform="translate(546.5 4412.5)" fill="none" stroke="#000" stroke-width="1.5"/>
      <line id="Line_2462" data-name="Line 2462" y1="5" x2="10" transform="translate(528.5 4402.5)" fill="none" stroke="#000" stroke-width="1.5"/>
      <line id="Line_2463" data-name="Line 2463" y1="5" x2="9" transform="translate(511.5 4392.5)" fill="none" stroke="#000" stroke-width="1.5"/>
      <line id="Line_2464" data-name="Line 2464" y1="5" x2="8" transform="translate(494.5 4382.5)" fill="none" stroke="#000" stroke-width="1.5"/>
      <line id="Line_2465" data-name="Line 2465" y1="7" x2="12" transform="translate(474.5 4369.5)" fill="none" stroke="#000" stroke-width="1.5"/>
      <path id="Path_3103" data-name="Path 3103" d="M0,17,28.791.819" transform="translate(457.5 4350.5)" fill="none" stroke="#000" stroke-width="1.5"/>
      <line id="Line_2467" data-name="Line 2467" y1="25" x2="43" transform="translate(443.5 4334.5)" fill="none" stroke="#000" stroke-width="1.5"/>
      <line id="Line_2453" data-name="Line 2453" y1="21" x2="38" transform="translate(810.5 4374.5)" fill="none" stroke="#000" stroke-width="1.5"/>
      <line id="Line_2455" data-name="Line 2455" y1="11" x2="20" transform="translate(810.5 4364.5)" fill="none" stroke="#000" stroke-width="1.5"/>
      <line id="Line_2456" data-name="Line 2456" y1="3" x2="5" transform="translate(810.5 4355.5)" fill="none" stroke="#000" stroke-width="1.5"/>
      <line id="Line_2468" data-name="Line 2468" y2="7" transform="translate(444.5 4359.5)" fill="none" stroke="#000" stroke-width="1.5"/>
      <line id="Line_2469" data-name="Line 2469" y2="7" transform="translate(458.5 4367.5)" fill="none" stroke="#000" stroke-width="1.5"/>
      <line id="Line_2470" data-name="Line 2470" y2="8" transform="translate(474.5 4376.5)" fill="none" stroke="#000" stroke-width="1.5"/>
      <line id="Line_2471" data-name="Line 2471" y2="8" transform="translate(494.5 4387.5)" fill="none" stroke="#000" stroke-width="1.5"/>
      <line id="Line_2472" data-name="Line 2472" y2="8" transform="translate(511.5 4397.5)" fill="none" stroke="#000" stroke-width="1.5"/>
      <line id="Line_2473" data-name="Line 2473" y2="7.5" transform="translate(528.5 4407.5)" fill="none" stroke="#000" stroke-width="1.5"/>
      <line id="Line_2474" data-name="Line 2474" y2="8" transform="translate(546.5 4417.5)" fill="none" stroke="#000" stroke-width="1.5"/>
      <line id="Line_2475" data-name="Line 2475" y2="8" transform="translate(565.5 4427.5)" fill="none" stroke="#000" stroke-width="1.5"/>
      <line id="Line_2476" data-name="Line 2476" y2="8" transform="translate(584.5 4438.5)" fill="none" stroke="#000" stroke-width="1.5"/>
      <line id="Line_2477" data-name="Line 2477" y2="8" transform="translate(603.5 4449.5)" fill="none" stroke="#000" stroke-width="1.5"/>
      <line id="Line_2478" data-name="Line 2478" y2="8" transform="translate(622.5 4460.5)" fill="none" stroke="#000" stroke-width="1.5"/>
      <line id="Line_2479" data-name="Line 2479" y2="8" transform="translate(640.5 4471.5)" fill="none" stroke="#000" stroke-width="1.5"/>
      <line id="Line_2480" data-name="Line 2480" y2="8" transform="translate(659.5 4481.5)" fill="none" stroke="#000" stroke-width="1.5"/>
    </g>
    <g id="Group_1687" data-name="Group 1687" transform="translate(130.219 130.7)">
      <line id="Line_1789" data-name="Line 1789" y2="37.878" transform="translate(63.793 228.481)" fill="none" stroke="#000" stroke-linecap="round" stroke-linejoin="round" stroke-width="1"/>
      <line id="Line_1790" data-name="Line 1790" x2="21.885" y2="12.645" transform="translate(63.793 266.359)" fill="none" stroke="#000" stroke-linecap="round" stroke-linejoin="round" stroke-width="1"/>
      <line id="Line_1791" data-name="Line 1791" y1="37.942" transform="translate(85.677 241.062)" fill="none" stroke="#000" stroke-linecap="round" stroke-linejoin="round" stroke-width="1"/>
      <line id="Line_1792" data-name="Line 1792" x2="21.885" y2="50.523" transform="translate(63.793 228.481)" fill="none" stroke="#000" stroke-linecap="round" stroke-linejoin="round" stroke-width="0.3"/>
      <line id="Line_1793" data-name="Line 1793" x2="19.778" y2="45.646" transform="translate(63.793 232.139)" fill="none" stroke="#000" stroke-linecap="round" stroke-linejoin="round" stroke-width="0.3"/>
      <line id="Line_1794" data-name="Line 1794" x2="17.664" y2="40.768" transform="translate(63.793 235.797)" fill="none" stroke="#000" stroke-linecap="round" stroke-linejoin="round" stroke-width="0.3"/>
      <line id="Line_1795" data-name="Line 1795" x2="15.55" y2="35.899" transform="translate(63.793 239.447)" fill="none" stroke="#000" stroke-linecap="round" stroke-linejoin="round" stroke-width="0.3"/>
      <line id="Line_1796" data-name="Line 1796" x2="13.547" y2="31.291" transform="translate(63.682 242.836)" fill="none" stroke="#000" stroke-linecap="round" stroke-linejoin="round" stroke-width="0.3"/>
      <line id="Line_1797" data-name="Line 1797" x2="11.394" y2="26.303" transform="translate(63.73 246.605)" fill="none" stroke="#000" stroke-linecap="round" stroke-linejoin="round" stroke-width="0.3"/>
      <line id="Line_1798" data-name="Line 1798" x2="9.335" y2="21.544" transform="translate(63.73 250.263)" fill="none" stroke="#000" stroke-linecap="round" stroke-linejoin="round" stroke-width="0.3"/>
      <line id="Line_1799" data-name="Line 1799" x2="7.166" y2="16.548" transform="translate(63.73 253.913)" fill="none" stroke="#000" stroke-linecap="round" stroke-linejoin="round" stroke-width="0.3"/>
      <line id="Line_1800" data-name="Line 1800" x2="5.051" y2="11.671" transform="translate(63.73 257.571)" fill="none" stroke="#000" stroke-linecap="round" stroke-linejoin="round" stroke-width="0.3"/>
      <line id="Line_1801" data-name="Line 1801" x2="2.874" y2="6.643" transform="translate(63.793 261.379)" fill="none" stroke="#000" stroke-linecap="round" stroke-linejoin="round" stroke-width="0.3"/>
      <line id="Line_1802" data-name="Line 1802" x2="19.778" y2="45.661" transform="translate(65.899 229.692)" fill="none" stroke="#000" stroke-linecap="round" stroke-linejoin="round" stroke-width="0.3"/>
      <line id="Line_1803" data-name="Line 1803" x2="17.633" y2="40.697" transform="translate(67.997 230.88)" fill="none" stroke="#000" stroke-linecap="round" stroke-linejoin="round" stroke-width="0.3"/>
      <line id="Line_1804" data-name="Line 1804" x2="15.55" y2="35.899" transform="translate(70.127 232.139)" fill="none" stroke="#000" stroke-linecap="round" stroke-linejoin="round" stroke-width="0.3"/>
      <line id="Line_1805" data-name="Line 1805" x2="13.468" y2="31.085" transform="translate(72.162 233.184)" fill="none" stroke="#000" stroke-linecap="round" stroke-linejoin="round" stroke-width="0.3"/>
      <line id="Line_1806" data-name="Line 1806" x2="11.291" y2="26.065" transform="translate(74.339 234.546)" fill="none" stroke="#000" stroke-linecap="round" stroke-linejoin="round" stroke-width="0.3"/>
      <line id="Line_1807" data-name="Line 1807" x2="9.105" y2="21.014" transform="translate(76.469 235.813)" fill="none" stroke="#000" stroke-linecap="round" stroke-linejoin="round" stroke-width="0.3"/>
      <line id="Line_1808" data-name="Line 1808" x2="7.126" y2="16.453" transform="translate(78.551 236.969)" fill="none" stroke="#000" stroke-linecap="round" stroke-linejoin="round" stroke-width="0.3"/>
      <line id="Line_1809" data-name="Line 1809" x2="5.012" y2="11.584" transform="translate(80.666 238.18)" fill="none" stroke="#000" stroke-linecap="round" stroke-linejoin="round" stroke-width="0.3"/>
      <line id="Line_1810" data-name="Line 1810" x2="2.945" y2="6.809" transform="translate(82.732 239.297)" fill="none" stroke="#000" stroke-linecap="round" stroke-linejoin="round" stroke-width="0.3"/>
      <line id="Line_1811" data-name="Line 1811" x1="21.885" y1="12.581" transform="translate(63.793 228.481)" fill="none" stroke="#000" stroke-linecap="round" stroke-linejoin="round" stroke-width="1"/>
    </g>
    <g id="Group_1688" data-name="Group 1688" transform="translate(406.9 384.7)">
      <line id="Line_1789-2" data-name="Line 1789" y2="37.878" transform="translate(21.884 0)" fill="none" stroke="#000" stroke-linecap="round" stroke-linejoin="round" stroke-width="1"/>
      <line id="Line_1790-2" data-name="Line 1790" x1="21.884" y2="12.645" transform="translate(0 37.878)" fill="none" stroke="#000" stroke-linecap="round" stroke-linejoin="round" stroke-width="1"/>
      <line id="Line_1791-2" data-name="Line 1791" y1="37.942" transform="translate(0 12.581)" fill="none" stroke="#000" stroke-linecap="round" stroke-linejoin="round" stroke-width="1"/>
      <line id="Line_1792-2" data-name="Line 1792" x1="21.884" y2="50.523" transform="translate(0 0)" fill="none" stroke="#000" stroke-linecap="round" stroke-linejoin="round" stroke-width="0.3"/>
      <line id="Line_1793-2" data-name="Line 1793" x1="19.778" y2="45.646" transform="translate(2.106 3.658)" fill="none" stroke="#000" stroke-linecap="round" stroke-linejoin="round" stroke-width="0.3"/>
      <line id="Line_1794-2" data-name="Line 1794" x1="17.664" y2="40.768" transform="translate(4.22 7.316)" fill="none" stroke="#000" stroke-linecap="round" stroke-linejoin="round" stroke-width="0.3"/>
      <line id="Line_1795-2" data-name="Line 1795" x1="15.55" y2="35.899" transform="translate(6.334 10.966)" fill="none" stroke="#000" stroke-linecap="round" stroke-linejoin="round" stroke-width="0.3"/>
      <line id="Line_1796-2" data-name="Line 1796" x1="13.547" y2="31.291" transform="translate(8.448 14.355)" fill="none" stroke="#000" stroke-linecap="round" stroke-linejoin="round" stroke-width="0.3"/>
      <line id="Line_1797-2" data-name="Line 1797" x1="11.393" y2="26.303" transform="translate(10.554 18.124)" fill="none" stroke="#000" stroke-linecap="round" stroke-linejoin="round" stroke-width="0.3"/>
      <line id="Line_1798-2" data-name="Line 1798" x1="9.335" y2="21.544" transform="translate(12.613 21.782)" fill="none" stroke="#000" stroke-linecap="round" stroke-linejoin="round" stroke-width="0.3"/>
      <line id="Line_1799-2" data-name="Line 1799" x1="7.165" y2="16.548" transform="translate(14.782 25.432)" fill="none" stroke="#000" stroke-linecap="round" stroke-linejoin="round" stroke-width="0.3"/>
      <line id="Line_1800-2" data-name="Line 1800" x1="5.051" y2="11.671" transform="translate(16.896 29.09)" fill="none" stroke="#000" stroke-linecap="round" stroke-linejoin="round" stroke-width="0.3"/>
      <line id="Line_1801-2" data-name="Line 1801" x1="2.874" y2="6.643" transform="translate(19.01 32.898)" fill="none" stroke="#000" stroke-linecap="round" stroke-linejoin="round" stroke-width="0.3"/>
      <line id="Line_1802-2" data-name="Line 1802" x1="19.778" y2="45.661" transform="translate(0 1.211)" fill="none" stroke="#000" stroke-linecap="round" stroke-linejoin="round" stroke-width="0.3"/>
      <line id="Line_1803-2" data-name="Line 1803" x1="17.633" y2="40.697" transform="translate(0.048 2.399)" fill="none" stroke="#000" stroke-linecap="round" stroke-linejoin="round" stroke-width="0.3"/>
      <line id="Line_1804-2" data-name="Line 1804" x1="15.55" y2="35.899" transform="translate(0 3.658)" fill="none" stroke="#000" stroke-linecap="round" stroke-linejoin="round" stroke-width="0.3"/>
      <line id="Line_1805-2" data-name="Line 1805" x1="13.468" y2="31.085" transform="translate(0.048 4.703)" fill="none" stroke="#000" stroke-linecap="round" stroke-linejoin="round" stroke-width="0.3"/>
      <line id="Line_1806-2" data-name="Line 1806" x1="11.291" y2="26.065" transform="translate(0.048 6.065)" fill="none" stroke="#000" stroke-linecap="round" stroke-linejoin="round" stroke-width="0.3"/>
      <line id="Line_1807-2" data-name="Line 1807" x1="9.105" y2="21.014" transform="translate(0.103 7.332)" fill="none" stroke="#000" stroke-linecap="round" stroke-linejoin="round" stroke-width="0.3"/>
      <line id="Line_1808-2" data-name="Line 1808" x1="7.126" y2="16.453" transform="translate(0 8.488)" fill="none" stroke="#000" stroke-linecap="round" stroke-linejoin="round" stroke-width="0.3"/>
      <line id="Line_1809-2" data-name="Line 1809" x1="5.012" y2="11.584" transform="translate(0 9.699)" fill="none" stroke="#000" stroke-linecap="round" stroke-linejoin="round" stroke-width="0.3"/>
      <line id="Line_1810-2" data-name="Line 1810" x1="2.945" y2="6.809" transform="translate(0 10.816)" fill="none" stroke="#000" stroke-linecap="round" stroke-linejoin="round" stroke-width="0.3"/>
      <line id="Line_1811-2" data-name="Line 1811" y1="12.581" x2="21.884" transform="translate(0 0)" fill="none" stroke="#000" stroke-linecap="round" stroke-linejoin="round" stroke-width="1"/>
    </g>
  </g>
</svg>
