<svg xmlns="http://www.w3.org/2000/svg" width="385.81" height="358.019" viewBox="0 0 385.81 358.019">
  <g id="cage" transform="translate(-95.563 -30.703)">
    <path id="Path_4078" data-name="Path 4078" d="M307.455,232.535l16.488-5.61a3,3,0,0,1,4.142,2.936v5.518l9.738-3.3A3,3,0,0,1,341.965,235l.066,7.484,12.687-4.587a3.093,3.093,0,0,0,1.835-2.621v-7.615l-7.864,2.7a1.088,1.088,0,0,1-1.376-.668,1.1,1.1,0,0,1,.682-1.311l8.624-3V218.97a1.022,1.022,0,0,0-.328-.839.878.878,0,0,0-.8,0l-18.965,6.475a1.08,1.08,0,0,1-.695-2.045l18.979-6.514a3.015,3.015,0,0,1,2.752.315,3.12,3.12,0,0,1,1.232,2.621v5.675l8.2-2.8a2.975,2.975,0,0,1,2.752.328,3.107,3.107,0,0,1,1.219,2.621v16.292a5.243,5.243,0,0,1-3.25,4.666l-18.834,6.8c-2.267.813-4.338-1.049-6.16-2.687-1.429-1.311-2.91-2.621-3.932-2.254l-16.4,5.806-1.311.459a36.771,36.771,0,0,0-3.827,1.311,8.2,8.2,0,0,0-2.346,2.464c-1.206,1.638-2.621,3.473-4.679,3.473h-.459c-.852-.1-3.46-.419-4.286-11.927a2.333,2.333,0,0,1,.157-1.18H305.5a3.146,3.146,0,0,1-1.311-2.621l-.144-7.969a5.334,5.334,0,0,1,3.408-4.9Zm18.467-2.621a1.036,1.036,0,0,0-.354-.852.734.734,0,0,0-.459-.131,1.613,1.613,0,0,0-.472.079l-16.514,5.57a3.2,3.2,0,0,0-2.005,2.779l.144,7.969a1.036,1.036,0,0,0,.354.839.957.957,0,0,0,.629.1,1.153,1.153,0,0,1,.432-.315l10.223-3.473a5.347,5.347,0,0,1,3.46-4.81l4.587-1.56Zm-5.334,21.429a1.1,1.1,0,0,0,1.009,0l12.936-4.574a11.56,11.56,0,0,1-4.024-2.713c-1.429-1.311-2.91-2.621-3.932-2.254l-1.573.55-.184.092-4.666,1.651.118,6.37a.957.957,0,0,0,.315.839Zm3.644-10.983a3.29,3.29,0,0,0,1.625-1.874l-3.775,1.311a3.25,3.25,0,0,0-1.861,1.966Zm15.728,2.5L339.881,235a1.036,1.036,0,0,0-.354-.865.825.825,0,0,0-.459-.131,1.312,1.312,0,0,0-.472.092l-10.485,3.539a4.548,4.548,0,0,1-.472,2.005,10.734,10.734,0,0,1,4.286,2.779c1.442,1.311,2.923,2.621,3.932,2.254l3.932-1.416a2.894,2.894,0,0,0,.144-.432Zm28.455-18.952a.839.839,0,0,0-.8,0l-8.9,3.041v3.722l10.014,3.473v-9.371a.97.97,0,0,0-.315-.865Zm-24.339,24.313c1.429,1.311,2.923,2.621,3.932,2.254l18.834-6.8a3.093,3.093,0,0,0,1.822-2.621v-4.64l-10.014-3.473v2.333a5.243,5.243,0,0,1-3.25,4.666l-13.959,5.033a5.347,5.347,0,0,1-.564.891,14.55,14.55,0,0,1,3.264,2.372Zm-36.594.721c.524,7.327,1.861,9.935,2.4,10,1.035.131,1.914-.944,3.146-2.621a9.372,9.372,0,0,1,3.133-3.119,24.036,24.036,0,0,1,2.412-.931,3.264,3.264,0,0,1-.564-1.822l-.1-5.662-9.581,3.395c-.629.223-.852.5-.865.55a.774.774,0,0,1,.092.223Z" transform="translate(-192.784 67.058)" fill="#e4e4e4" stroke="#000" stroke-width="1.5"/>
    <path id="Path_4079" data-name="Path 4079" d="M93.169,230.1l33.317-13.932a1.1,1.1,0,0,1,1.416.59,1.075,1.075,0,0,1-.577,1.4L94.008,232.093a3.473,3.473,0,0,0-1.389,2.8l-.367,9.909,8.965,3.25.3-9.253a5.439,5.439,0,0,1,2.726-4.745l33.343-13.946a1,1,0,0,1,.55,0l.695-.288a2.058,2.058,0,0,1,2.045.184,3.29,3.29,0,0,1,1.166,2.949l-.433,7.681a6.278,6.278,0,0,1-.655,2.5,9.044,9.044,0,0,1-5.452,7,3.617,3.617,0,0,1-2.923-.092,3.736,3.736,0,0,1-1.311-1.311l-2.385,1.049h-.131c-1.507.446-2.267,2.621-3.067,4.915-.97,2.8-2.084,5.977-4.981,7.3l-16.187,7.248a2.49,2.49,0,0,1-1,.223,2.11,2.11,0,0,1-1.18-.354,3.277,3.277,0,0,1-1.219-2.923l.144-4.4L93.4,255.3a2.294,2.294,0,0,1-1,.223,2.111,2.111,0,0,1-1.18-.354,3.264,3.264,0,0,1-1.219-2.923l.577-17.458a5.426,5.426,0,0,1,2.582-4.692Zm10.485,8.742-.315,9.594,5.23-2.32c2.058-.931,2.949-3.526,3.827-6.042s1.9-5.465,4.43-6.252L126,229.891a3.932,3.932,0,0,1,.695-.223v-1.311a6.015,6.015,0,0,1,.223-1.455l-21.81,9.175a3.473,3.473,0,0,0-1.389,2.765Zm24.745-2.556a2.11,2.11,0,0,0,.17,1.035l1.507-.655c-.157-.459-.288-.944-.419-1.416a11.153,11.153,0,0,0-1.127-3Zm11.193-14.522-9.5,3.932a3.382,3.382,0,0,0-1.311,2.726l-.066,1.219a2.033,2.033,0,0,1,.3.1c1.638.8,2.215,2.857,2.779,4.85.1.38.21.76.328,1.14l5.977-2.621a3.421,3.421,0,0,0,1.311-2.687l.433-7.681c.066-.668-.144-.983-.183-.983Zm-6.147,16.4a1.468,1.468,0,0,0,1.193,0,6.723,6.723,0,0,0,2.779-2.149l-4.325,1.874a1.311,1.311,0,0,0,.419.275ZM103.078,256.3a1.586,1.586,0,0,0,.236,1.049h.118l16.239-7.3c2.058-.931,2.949-3.526,3.827-6.029.773-2.241,1.6-4.522,3.29-5.688a3.932,3.932,0,0,1-.485-2.149l.21-4.233-8.886,3.932h-.118c-1.52.446-2.267,2.621-3.067,4.915-.983,2.8-2.084,5.99-4.981,7.3l-6.134,2.752Zm-10.865-2.9h.118l7.785-3.486-7.864-2.857-.17,5.243a1.507,1.507,0,0,0,.17,1.1Z" transform="translate(316.678 67.133)" fill="#e4e4e4" stroke="#000" stroke-width="1.5"/>
    <path id="Path_4080" data-name="Path 4080" d="M194.132,275.577l15.44-6.488a2.726,2.726,0,0,1,2.621.17,3.526,3.526,0,0,1,1.415,3.041v6.553l8.965-3.762a2.726,2.726,0,0,1,2.621.17,3.526,3.526,0,0,1,1.416,3.041v8.768l11.717-5.243a3.84,3.84,0,0,0,1.743-3.237v-8.926l-7.235,3.054a1.088,1.088,0,0,1-.839-2.005l8.074-3.408v-7.589a1.521,1.521,0,0,0-.406-1.219.543.543,0,0,0-.485,0l-17.76,7.51a1.088,1.088,0,0,1-1.416-.577,1.075,1.075,0,0,1,.577-1.415l17.76-7.51a2.621,2.621,0,0,1,2.517.184,3.473,3.473,0,0,1,1.311,3.014v6.7l7.733-3.211a2.622,2.622,0,0,1,2.516.184,3.473,3.473,0,0,1,1.416,3.028v18.874a5.95,5.95,0,0,1-3.015,5.243l-17.642,7.864c-2.281,1.022-4.26-1.18-6-3.119-1.18-1.311-2.621-2.962-3.5-2.621l-15.361,6.724-1.232.537a30.148,30.148,0,0,0-3.552,1.547,8.952,8.952,0,0,0-2.2,2.87c-1.14,1.9-2.425,4.037-4.5,4.037h-.472c-.891-.131-3.277-.5-4.037-13.683a2.726,2.726,0,0,1,.21-1.4,3.5,3.5,0,0,1-1.4-2.975L191,281.121a6.042,6.042,0,0,1,3.133-5.544Zm17.314-3.264a1.442,1.442,0,0,0-.446-1.245.381.381,0,0,0-.249-.066.958.958,0,0,0-.341.079l-15.44,6.488a3.932,3.932,0,0,0-1.914,3.421l.144,9.175a1.455,1.455,0,0,0,.446,1.219.5.5,0,0,0,.288.079.983.983,0,0,1,.433-.367l9.594-4.037v-.118a6.042,6.042,0,0,1,3.224-5.439l4.325-1.822ZM206.2,296.167a1.455,1.455,0,0,0,.446,1.219.682.682,0,0,0,.668,0l12.622-5.5c-1.573-.315-3-1.887-4.3-3.329s-2.621-2.962-3.486-2.621l-1.468.629-.2.118-4.4,1.914Zm3.591-11.573a3.932,3.932,0,0,0,1.586-2.5l-3.408,1.442a3.7,3.7,0,0,0-1.809,2.621Zm14.732,2.7-.079-9.017a1.468,1.468,0,0,0-.433-1.245.446.446,0,0,0-.262-.079,1.022,1.022,0,0,0-.341.092l-9.791,4.1v.184a6.449,6.449,0,0,1-.524,2.464c1.52.367,2.9,1.9,4.142,3.29s2.621,2.962,3.513,2.621l3.67-1.651a3.511,3.511,0,0,0,.157-.76Zm26.685-22.124a.542.542,0,0,0-.485,0l-8.362,3.539v4.666l9.24,3.932V266.4a1.494,1.494,0,0,0-.393-1.232Zm-22.5,28.612c1.193,1.311,2.621,2.962,3.513,2.621l17.629-7.864a3.84,3.84,0,0,0,1.743-3.25v-5.544l-9.253-3.932v2.818a5.95,5.95,0,0,1-3.015,5.243l-13.107,5.833a6.133,6.133,0,0,1-.695,1.311,13.973,13.973,0,0,1,3.185,2.766Zm-34.34.511v.144c.459,7.982,1.6,11.39,2.215,11.731.931.157,1.914-1.52,2.792-2.975a9.935,9.935,0,0,1,2.936-3.6,20.494,20.494,0,0,1,2.451-1.153,3.932,3.932,0,0,1-.682-2.241l-.092-6.658-8.821,3.853C194.368,293.743,194.355,294.2,194.368,294.293Z" transform="translate(72.524 79.615)" fill="#e4e4e4" stroke="#000" stroke-width="1.5"/>
    <path id="Path_4081" data-name="Path 4081" d="M76.925,53.32,282.7,24.145a20.447,20.447,0,0,1,4.9,0L453.874,47.593c2.438.341,3.7,1.389,3.735,3.132a3.08,3.08,0,0,1-2.9,3.08,2.713,2.713,0,0,1-2.621-.878l-1.586-.223-1.311,34.549,1.586.275a.682.682,0,0,1,.564.8.668.668,0,0,1-.786.564l-1.416-.249-1.625,42.073.865.184a.7.7,0,0,1,.524.826.682.682,0,0,1-.813.524l-.629-.131-1.638,42.112h.144a.7.7,0,0,1,.5.839.681.681,0,0,1-.695.511l-3.264,84.63a.682.682,0,0,1,.3.786.721.721,0,0,1-.354.406l-.472,12.294a.708.708,0,0,1-.695.668.695.695,0,0,1-.668-.721l.485-12.412-15.728-4.9-.433,12.084a.682.682,0,0,1-.682.668.7.7,0,0,1-.668-.708l.433-12.465-15.728-4.9-.38,12.084a.682.682,0,1,1-1.363-.052l.38-12.464-15.728-4.9-.315,12.084a.688.688,0,0,1-1.376-.039l.341-12.478-15.728-4.9-.275,12.084a.682.682,0,0,1-.682.682.7.7,0,0,1-.668-.708l.288-12.478-15.728-4.9-.223,12.084a.682.682,0,0,1-.695.668.669.669,0,0,1-.668-.695l.223-12.491-15.728-4.9-.157,12.084a.7.7,0,0,1-.695.682.682.682,0,0,1-.682-.695l.184-12.491-15.728-4.9-.118,12.071a.682.682,0,1,1-1.363-.013l.118-12.491-15.728-4.9v12.084a.682.682,0,0,1-.695.682.7.7,0,0,1-.695-.695l.066-12.5-11.6-3.617c-.315-.092-.655-.17-1.009-.249v10.708a5.662,5.662,0,0,1-3.25,5.348L93.085,293.422a4.156,4.156,0,0,1-1.232.2A3.434,3.434,0,0,1,89.874,293a4.3,4.3,0,0,1-1.717-3.382l-11.6-229.97a2.176,2.176,0,0,1-.419,0,3.093,3.093,0,0,1-2.831-3.093c-.17-2.7,2.674-3.106,3.617-3.237ZM444.437,175.3l-16.108-4-1.4,40.329,15.925,4.614Zm-17.471-4.338-16.108-3.932-1.219,39.648,15.925,4.614Zm4.207-120.949-16.632-2.425-1.1,33.566,16.554,2.818Zm-107.318,54.9,16.292,3.395.537-38.219-16.475-2.844Zm-1.022-37.878-16.475-2.818-.184,37,16.3,3.408Zm18.69,41.561,16.3,3.395.708-38.848L342.06,70.333Zm17.681,3.683,16.226,3.46.891-39.491-16.475-2.818Zm17.668,3.7,16.292,3.395,1.075-40.12-16.475-2.831Zm17.668,3.7,16.279,3.382,1.311-40.749-16.475-2.818Zm0,1.4-1.075,40.146,16.043,3.984,1.311-40.749Zm-1.311-.288L376.951,117.4l-.9,39.5,16.108,3.932Zm-17.8-3.735-16.292-3.395-.721,38.848,16.108,3.932Zm-17.668-3.683-16.292-3.408-.537,38.206,16.108,3.932Zm-17.668-3.683L323.8,106.285l-.354,37.538,16.108,3.932ZM322.427,106l-16.252-3.355-.184,36.882,16.121,3.932Zm-17.681-3.683-13.107-2.752v36.358l13.015,3.264Zm-14.509-3-1.94-.406a13.7,13.7,0,0,0-3-.275v36.62a17.04,17.04,0,0,1,4.889.367Zm-23.382,2.9-12.569,2.621.341,37.852,12.425-3.133Zm1.573,37.04,13.421-3.395V99.037L268.3,101.92Zm-15.518-34.077-12.569,2.621.485,38.376,12.425-3.133Zm-13.946,2.949-12.569,2.621.629,38.914,12.425-3.146Zm-13.946,2.962L212.448,113.7l.773,39.425L225.647,150Zm-13.946,2.949L198.5,116.652l.931,39.949,12.412-3.132Zm-13.893,3.028L184.61,119.68l1.075,40.474,12.425-3.132Zm-13.946,2.949-12.569,2.621,1.232,41,12.412-3.133Zm-13.946,2.962-12.569,2.621,1.376,41.522,12.425-3.133Zm-14.05,2.883-12.569,2.621,1.534,42.046,12.425-3.146Zm-13.893,3-12.569,2.621,1.691,42.571,12.412-3.132Zm0-1.4-1.534-42.059-12.727,2.2,1.678,42.518Zm1.311-.288,12.582-2.621-1.376-41.561L141.148,85.17Zm13.893-3,12.582-2.621L167.9,80.53l-12.661,2.163Zm14.024-2.962,12.569-2.621-1.075-40.487-12.727,2.2Zm13.946-2.949,12.569-2.621-.931-39.975-12.714,2.2Zm13.972-2.962,12.582-2.621-.786-39.438-12.727,2.189Zm13.932-2.949,12.569-2.621L224.362,70.8,211.6,72.954Zm13.946-2.962,12.569-2.621-.485-38.4-12.714,2.2Zm13.959-2.962,12.569-2.621-.341-37.878-12.713,2.2Zm13.946-2.949,12.582-2.621-.21-37.393-12.727,2.189ZM268.23,100.5l13.552-2.87V60.844l-13.7,2.359Zm13.618,36.777-13.408,3.368.184,36.2,13.277-3.932Zm-14.8,3.735-12.412,3.133.328,36.7,12.281-3.6Zm-13.788,3.473-12.425,3.132.472,37.262,12.229-3.6Zm-13.8,3.486-12.412,3.133.616,37.774,12.268-3.6Zm-13.788,3.473-12.425,3.133.76,38.311,12.281-3.6Zm-13.8,3.486-12.412,3.133.9,38.835,12.268-3.6Zm-13.788,3.473-12.412,3.133,1.049,39.32,12.268-3.6ZM184.3,161.9l-12.412,3.133,1.193,39.844,12.307-3.565Zm-13.788,3.473L158.095,168.5l1.311,40.408,12.268-3.591Zm-13.788,3.473-12.412,3.133,1.494,40.945,12.268-3.6Zm-13.788,3.486-12.412,3.133,1.638,41.457,12.268-3.6ZM129.155,175.8l-12.425,3.133,1.8,41.941,12.268-3.6Zm-.066-1.416-1.678-42.623-12.569,2.621,1.835,43.095Zm-1.73-44.025-1.691-42.571-12.714,2.2,1.822,43.042ZM125.616,86.4l-1.311-34.209-12.845,1.822L112.929,88.6Zm1.376-.236,12.727-2.2-1.232-33.75-12.845,1.809Zm14.1-2.438,12.727-2.2L152.708,48.17l-12.845,1.822Zm14.142-2.438,12.687-2.241-1-32.937-12.845,1.822Zm14.1-2.438,12.727-2.189L181.2,44.133l-12.845,1.822ZM183.4,76.428l12.727-2.2-.747-32.111-12.845,1.822Zm14.1-2.438,12.779-2.2-.629-31.679-12.845,1.809Zm14.09-2.438,12.727-2.2-.511-31.259-12.845,1.822Zm14.1-2.438,12.727-2.2-.393-30.84-12.845,1.822Zm14.1-2.438,12.727-2.189-.3-30.434L239.4,35.875Zm14.116-2.438,12.727-2.228L266.5,32l-12.845,1.822Zm14.116-2.425,13.5-2.333h.2V29.925l-13.854,1.94ZM285.3,97.2a14.665,14.665,0,0,1,3.3.328l1.638.341V61.46l-3.657-.629a11.942,11.942,0,0,0-1.311-.144Zm6.317.957,13.185,2.779.17-36.948L291.547,61.7Zm13.369-35.611.131-29.857a.747.747,0,0,1,.236-.5l-13.8-1.9v30Zm1.376.236L322.846,65.6l.275-30.434a.761.761,0,0,1,.184-.446l-16.921-2.385a.72.72,0,0,1,.118.367Zm17.864,3.159L340.7,68.695l.432-31.024a.825.825,0,0,1,.131-.367l-16.816-2.385a.774.774,0,0,1,.065.3ZM342.087,69l16.475,2.818.577-31.6a.629.629,0,0,1,.092-.315L342.48,37.54a1.123,1.123,0,0,1,0,.223Zm17.851,3.054,16.488,2.818.721-32.19a.759.759,0,0,1,0-.249l-16.711-2.346a.55.55,0,0,1,0,.157ZM377.8,75.1l16.475,2.766.878-32.767a.8.8,0,0,1,0-.17l-16.685-2.346a.183.183,0,0,1,0,.079Zm17.851,3.067,16.475,2.752,1.035-33.33a.315.315,0,0,1,0-.1l-16.659-2.359h0Zm17.786,4.378-1.311,40.8,16.292,3.395,1.442-41.378Zm-1.311,42.2-1.311,40.8,16.1,4,1.442-41.4Zm-2.621,41.876L393.4,162.7l-1.049,38.979,15.846,4.509Zm-17.484-4.338-16.095-3.932-.865,38.311,15.925,4.614Zm-17.471-4.338-16.108-3.932-.682,37.616,15.925,4.614Zm-17.471-4.325-16.1-4-.524,36.935L356.4,191.19Zm-17.471-4.338L323.5,145.356l-.341,36.266,15.925,4.614Zm-17.484-4.338-16.108-3.932-.17,35.585,15.846,4.548Zm-17.471-4.3-12.976-3.224v35.06a1.811,1.811,0,0,1,.524.131l12.281,3.552Zm-14.417-3.565h-.21a15.519,15.519,0,0,0-4.679-.354v35.506a19.894,19.894,0,0,1,4.836,0Zm-4.836,36.5v39.006a1.665,1.665,0,0,1-.131.682,21.913,21.913,0,0,1,4.915-.118V173.588a18.652,18.652,0,0,0-4.784-.039Zm-3.447,39.019V174.44l-13.264,3.932.2,39.949,13.775-4.338a1.73,1.73,0,0,1-.708-1.416ZM267.248,178.66l-12.268,3.591.354,40.2,12.124-3.814Zm-13.71,4.05-12.268,3.6.511,40.434,12.111-3.814Zm-13.644,4.011-12.281,3.6.668,40.631,12.15-3.8Zm-13.657,4.011-12.268,3.591.813,40.919,12.124-3.814Zm-13.631,3.932-12.281,3.6.97,41.142,12.111-3.8Zm-13.644,4.011-12.268,3.591,1.1,41.391,12.124-3.814Zm-13.579,4.063-12.268,3.6,1.245,41.627,12.124-3.775Zm-13.631,4.011-12.268,3.591,1.389,41.941L173,248.466Zm-13.644,3.932-12.255,3.6,1.52,42.177,12.111-3.814Zm-13.631,4-12.268,3.6,1.678,42.361,12.176-3.749Zm-13.631,4.011-12.268,3.591,1.822,42.61,12.124-3.814Zm-13.631,3.932-12.255,3.591,1.94,42.846,12.137-3.814Zm0-1.429-1.8-42.046-12.412,3.133,1.94,42.518Zm-1.861-43.449L113.519,134.6l-12.569,2.621,1.992,43.619Zm-1.887-44.563-1.835-43.095L98.879,92.418l1.979,43.567Zm-1.9-44.484L110.1,54.068,97.24,55.889l1.6,34.995ZM286.881,29.624a12.74,12.74,0,0,0-1.691-.092V59.3a12.332,12.332,0,0,1,1.586.183l3.421.577V30.1Zm162.3,22.9-16.632-2.307-1.18,34.077,16.475,2.739Zm-1.389,35.9L431.317,85.6l-1.442,41.43,16.331,3.408Zm-1.678,43.409-16.292-3.395-1.442,41.457,16.108,4ZM441.16,259.777l1.638-42.112-15.925-4.614-1.455,41.824Zm-17.1-5.334,1.455-41.784L409.6,208.045l-1.311,41.5Zm-17.17-5.321,1.311-41.47-15.912-4.614-1.127,41.155Zm-17.039-5.334,1.1-41.142-15.925-4.614-.9,40.919Zm-17.117-5.334.917-40.827-15.925-4.548-.747,40.539Zm-17.117-5.334.747-40.5-15.925-4.614-.564,40.211ZM338.5,227.784l.564-40.185-15.925-4.614-.38,39.9Zm-17.117-5.321.315-39.871-15.938-4.614-.184,39.582Zm-28.324-8.821,11.206,3.486.183-39.556-12.661-3.67h-.144v39.451a8.966,8.966,0,0,1,1.4.288ZM89.311,289.53a2.936,2.936,0,0,0,1.114,2.32,2.294,2.294,0,0,0,1.992.236l195.552-62.65a4.338,4.338,0,0,0,2.281-4.024v-10.9a17.261,17.261,0,0,0-6.317.446L268.86,219.7v9.751a.695.695,0,1,1-1.389,0V220.13l-12.124,3.814.092,9.778a.682.682,0,1,1-1.363.013l-.092-9.358-12.111,3.814.118,9.8a.688.688,0,1,1-1.376.013l-.118-9.384L228.373,232.4l.157,9.83a.681.681,0,0,1-.682.695.7.7,0,0,1-.695-.668l-.144-9.424-12.124,3.8.2,9.869a.7.7,0,0,1-.668.708.681.681,0,0,1-.695-.682l-.184-9.463-12.124,3.814.236,9.9a.708.708,0,0,1-.682.708.7.7,0,0,1-.695-.682l-.223-9.489-12.111,3.814.262,9.922a.7.7,0,0,1-.668.708.681.681,0,0,1-.681-.668l-.262-9.529-12.111,3.814.288,9.948a.7.7,0,0,1-.668.708.682.682,0,0,1-.695-.668l-.288-9.555L161,253.617l.328,9.974a.682.682,0,0,1-.668.708.7.7,0,0,1-.695-.668l-.315-9.594-12.111,3.814.354,10.014a.676.676,0,1,1-1.35.052l-.354-9.633L134.07,262.1l.406,10.04a.682.682,0,1,1-1.363.052l-.38-9.66-12.124,3.814.433,10.066a.7.7,0,0,1-.655.721.682.682,0,0,1-.682-.655l-.419-9.7-12.124,3.8.472,10.105a.682.682,0,1,1-1.363.066l-.446-9.738L92.849,275.1a.616.616,0,0,1-.21,0,.682.682,0,0,1-.668-.485.708.708,0,0,1,.459-.865l13.33-4.194-1.953-42.872-12.491,3.67h-.2a.7.7,0,0,1-.668-.5.682.682,0,0,1,.472-.852l12.818-3.762-1.94-42.571-13.539,3.408h-.17a.682.682,0,0,1-.668-.524.7.7,0,0,1,.5-.839l13.578-3.368-1.979-43.672-14.562,3.08h-.144a.682.682,0,0,1-.668-.55.695.695,0,0,1,.537-.826l14.771-3.133L97.463,92.641,81.905,95.262H81.84a.682.682,0,0,1-.118-1.311L97.45,91.225l-1.6-35.034L78.576,58.642a2.621,2.621,0,0,1-.865.655Z" transform="translate(23.014 7.455)" fill="#e4e4e4" stroke="#000" stroke-width="1.5"/>
    <path id="Path_4082" data-name="Path 4082" d="M352.263,50.251a2.425,2.425,0,0,1,2.53,2.215l3.762-.17-.616,26.554-1.835-.459,10.21,202.21a1.311,1.311,0,0,0,.354.944.511.511,0,0,0,.446,0,2.425,2.425,0,0,1,1.481,4.613,5.715,5.715,0,0,1-1.73.262,5.125,5.125,0,0,1-2.949-.9,5.951,5.951,0,0,1-2.438-4.666L349.969,52.793A2.425,2.425,0,0,1,352.263,50.251Z" transform="translate(-252.18 15.611)" fill="#e4e4e4" stroke="#000" stroke-width="1.5"/>
    <path id="Path_4083" data-name="Path 4083" d="M84.019,75.117,80.6,74.278l.262-25.112,4.1-.223.092-2.7a2.464,2.464,0,0,1,2.5-2.333,2.425,2.425,0,0,1,2.333,2.5L82.2,259.817a2.438,2.438,0,0,1-2.412,2.333h-.092a2.425,2.425,0,0,1-2.333-2.5Z" transform="translate(385.411 13.641)" fill="#e4e4e4" stroke="#000" stroke-width="1.5"/>
    <path id="Path_4084" data-name="Path 4084" d="M85.911,231.52a.721.721,0,0,1,.734.668,4.417,4.417,0,0,0,1.769,3.539L107.537,244l11.324-3.775-17.524-7.431a5.715,5.715,0,0,1-2.621-4.823.708.708,0,0,1,.668-.734.682.682,0,0,1,.734.668,4.378,4.378,0,0,0,1.822,3.591l18.992,8.061,11.35-3.762-17.366-7.222a5.662,5.662,0,0,1-2.739-4.889.695.695,0,0,1,.668-.721.668.668,0,0,1,.721.668,4.43,4.43,0,0,0,1.887,3.657L134.3,235.15l11.337-3.749-17.2-7c-1.507-.59-2.739-2.779-2.818-4.954a.708.708,0,0,1,1.4,0,4.43,4.43,0,0,0,1.927,3.709l18.73,7.615,11.311-3.749-17.039-6.776a5.7,5.7,0,0,1-2.87-5.033.695.695,0,1,1,1.389-.039,4.483,4.483,0,0,0,1.979,3.775l18.585,7.379,11.285-3.735-16.868-6.553c-1.586-.6-2.87-2.844-2.936-5.1a.7.7,0,0,1,1.4-.039,4.509,4.509,0,0,0,2.045,3.827l18.4,7.143,11.259-3.735-16.685-6.331a5.767,5.767,0,0,1-3-5.164.695.695,0,1,1,1.389-.039,4.535,4.535,0,0,0,2.084,3.932l18.349,6.947L199,213.76l-16.514-6.134c-1.665-.6-3.015-2.9-3.054-5.243a.682.682,0,0,1,.681-.708.721.721,0,0,1,.708.682,4.548,4.548,0,0,0,2.149,3.932l18.166,6.737,11.206-3.722-16.331-5.977c-1.717-.6-3.093-2.936-3.133-5.243a.708.708,0,0,1,.695-.721.7.7,0,0,1,.695.695c0,1.73,1.049,3.6,2.2,4l18.009,6.553,11.167-3.775-16.147-5.7a5.833,5.833,0,0,1-3.185-5.374.7.7,0,1,1,1.4-.013,4.548,4.548,0,0,0,2.241,4.063l17.864,6.3,11.154-3.7-15.964-5.492c-1.8-.616-3.224-3-3.25-5.439a.708.708,0,0,1,.695-.708.7.7,0,0,1,.695.695,4.587,4.587,0,0,0,2.307,4.129l17.694,6.082L252.274,196l-15.728-5.243c-1.848-.6-3.3-3.028-3.316-5.492a.695.695,0,0,1,.695-.708.669.669,0,0,1,.708.695,4.587,4.587,0,0,0,2.346,4.181l17.55,5.885,11.1-3.683-15.584-5.151c-1.887-.616-3.368-3.054-3.382-5.57a.708.708,0,0,1,.708-.695.7.7,0,0,1,.695.695,4.653,4.653,0,0,0,2.412,4.247l17.366,5.662,13.356-4.417a4.207,4.207,0,0,0,2.176-3.866.7.7,0,0,1,.695-.695.708.708,0,0,1,.708.708,5.557,5.557,0,0,1-3.133,5.243l-11.508,3.814,14.6,4.771,13.5-4.653a4.181,4.181,0,0,0,2.1-3.788.7.7,0,0,1,1.4,0,5.492,5.492,0,0,1-3.054,5.112l-11.8,4.063,14.64,4.771,13.88-4.915a4.194,4.194,0,0,0,2.032-3.722.734.734,0,0,1,.708-.695.682.682,0,0,1,.695.708,5.426,5.426,0,0,1-2.975,5.033l-12.137,4.3,14.68,4.784,14.116-5.164a4.181,4.181,0,0,0,1.979-3.657.668.668,0,0,1,.708-.695.708.708,0,0,1,.695.721,5.426,5.426,0,0,1-2.9,4.941l-12.451,4.548,14.719,4.8,14.417-5.4a4.115,4.115,0,0,0,1.914-3.591.708.708,0,0,1,1.4,0,5.413,5.413,0,0,1-2.87,4.889L337.4,213.55l14.745,4.823,14.627-5.675a4.076,4.076,0,0,0,1.848-3.513.668.668,0,0,1,.708-.682.695.695,0,0,1,.682.721,5.348,5.348,0,0,1-2.739,4.784l-13.015,5.046,14.758,4.8,14.876-5.911a4.089,4.089,0,0,0,1.783-3.434.7.7,0,1,1,1.4.039,5.361,5.361,0,0,1-2.621,4.705l-13.29,5.243,14.811,4.836,15.033-6.147a4.024,4.024,0,0,0,1.717-3.368.708.708,0,1,1,1.4,0,5.321,5.321,0,0,1-2.621,4.627L387.955,230l14.837,4.836,15.335-6.409a4.063,4.063,0,0,0,1.665-3.3.682.682,0,0,1,.721-.668.708.708,0,0,1,.682.721,5.335,5.335,0,0,1-2.53,4.561l-13.815,5.806.341.118a.7.7,0,0,1-.21,1.363.669.669,0,0,1-.223,0l-1.887-.616-11.4,4.81.236.079a.695.695,0,0,1,.446.878.708.708,0,0,1-.668.485.669.669,0,0,1-.223,0l-1.756-.59-11.429,4.81h.144a.695.695,0,0,1-.236,1.311.671.671,0,0,1-.223,0l-1.625-.564-11.442,4.823a.695.695,0,0,1-.236,1.311h-.236l-1.481-.524-11.481,4.836a.721.721,0,0,1,.367.865.708.708,0,0,1-.668.459.748.748,0,0,1-.236,0l-1.311-.485-11.534,4.849a.681.681,0,0,1,.288.813.7.7,0,0,1-.655.459.76.76,0,0,1-.249,0l-1.232-.459-11.573,4.863a.7.7,0,0,1-.446,1.232.538.538,0,0,1-.249,0l-1.114-.419-11.626,4.889a.747.747,0,0,1,.144.734.721.721,0,0,1-.655.446.536.536,0,0,1-.249,0l-1-.38-11.7,4.915a.682.682,0,0,1,.1.668.721.721,0,0,1-.655.446.926.926,0,0,1-.262,0l-.878-.354-11.8,4.954a.7.7,0,0,1,0,.6.721.721,0,0,1-.655.446.931.931,0,0,1-.262,0l-.76-.315-11.8,4.981a.7.7,0,0,1,0,.537.708.708,0,0,1-.655.433.59.59,0,0,1-.262,0l-.655-.262L257.111,298a.773.773,0,0,1,0,.485.721.721,0,0,1-.655.419.589.589,0,0,1-.262,0l-.55-.236-12.006,5.059a.668.668,0,0,1-.668.826.707.707,0,0,1-.288,0l-.433-.2-18.48,7.772a.672.672,0,0,1-.917-.367.695.695,0,0,1,.38-.918l17.34-7.707-15.086-6.553-18.494,7.576a.589.589,0,0,1-.262,0,.7.7,0,0,1-.642-.433.708.708,0,0,1,.38-.917l17.222-7.051-15.06-6.553-18.494,7.366a.629.629,0,0,1-.262,0,.721.721,0,0,1-.655-.446.708.708,0,0,1,.393-.9l17.2-6.855-15.046-6.553-18.494,7.169a.825.825,0,0,1-.249,0,.695.695,0,0,1-.249-1.311l17.17-6.658-15.033-6.553-18.494,6.96h-.249a.7.7,0,0,1-.655-.446.681.681,0,0,1,.406-.9l17.144-6.449-15.007-6.553-18.507,6.75a.512.512,0,0,1-.236,0,.706.706,0,0,1-.249-1.363l17.117-6.252-14.981-6.553-18.52,6.553a.617.617,0,0,1-.223,0,.721.721,0,0,1-.668-.472.695.695,0,0,1,.432-.891l17.039-6.055-14.968-6.475-18.52,6.344h-.223a.708.708,0,0,1-.668-.472.695.695,0,0,1,.433-.891l17.039-5.846-14.942-6.488L88.873,251.1a.614.614,0,0,1-.223,0,.695.695,0,0,1-.21-1.311l17.039-5.649-17.668-7.654a5.7,5.7,0,0,1-2.621-4.758.721.721,0,0,1,.721-.21Zm36.961,8.873,14.85,6.383,11.377-3.932-14.9-6.186Zm118.9,7.694,11.39-4.286-14.889-5.649L226.9,242.306Zm-16.934-5.125-11.4,4.168,14.9,5.924,11.4-4.3Zm30.237,0,11.364-4.273-14.863-5.518-11.364,4.155Zm13.356-5.02,11.455-4.273L265.053,228.3l-11.337,4.142Zm13.369-5.033,11.324-4.26L278.3,223.407l-11.311,4.129Zm2.018.76,14.85,5.374,11.363-4.4-14.85-5.243Zm-2.018.76L270.44,238.7,285.3,244.22,296.68,239.8Zm-13.356,5.033-11.39,4.286,14.968,5.649,11.4-4.417Zm-13.369,5.02-11.416,4.3,14.968,5.859,11.416-4.417ZM241.7,249.515l-11.429,4.312,14.929,5.924,11.429-4.43Zm-13.382,5.046-11.442,4.3,14.942,6.082L243.27,260.5Zm-1.927-.773-14.929-5.937-11.416,4.168,14.915,6.068Zm-16.881-6.711L194.7,241.153l-11.39,4.024,14.889,6.055Zm1.979-.721,11.377-4.155-14.889-5.793-11.364,4.037Zm13.434-4.823,11.35-4.142-14.863-5.649-11.337,4.024Zm13.369-4.876,11.324-4.142-14.837-5.5-11.324,4.011Zm13.356-4.889,11.311-4.129-14.811-5.361-11.3,4ZM265,226.893l11.3-4.116-14.784-5.243-11.285,3.932Zm13.356-4.876,11.272-4.116-14.771-5.2-11.246,4Zm2.084.734,14.784,5.243,11.3-4.247-14.837-5.19Zm16.829,5.95,14.824,5.243,11.324-4.391-14.824-5.1Zm16.855,5.937,14.837,5.243,11.364-4.522-14.85-5.112Zm-2.005.786-11.39,4.4,14.876,5.387,11.377-4.548Zm-13.369,5.243-11.4,4.417,14.824,5.387,11.4-4.548Zm-13.369,5.177-11.429,4.43,14.915,5.662,11.429-4.561Zm-13.369,5.177-11.442,4.43,14.929,5.741,11.442-4.561Zm-13.382,5.243-11.455,4.43,14.942,5.741,11.468-4.574Zm-13.382,5.243-11.468,4.443,14.955,6.095,11.495-4.587Zm-13.382,5.243-11.495,4.456,14.955,5.911,11.495-4.574Zm-1.887-.773L215.012,259.9l-11.468,4.312L218.5,270.42Zm-16.934-7.169-14.955-6.068-11.429,4.181,14.942,6.2Zm-16.829-6.789-14.929-6.068-11.4,4.037,14.915,6.2Zm-16.881-6.868-14.9-6.055-11.377,3.932,14.889,6.186Zm1.992-.695,11.364-4.024-14.876-5.924-11.364,3.932Zm13.369-4.8,11.35-4.024-14.863-5.767L179.847,233.8Zm13.369-4.679,11.324-3.932-14.837-5.636-11.311,3.932Zm13.369-4.732,11.272-4.063L217.9,220.694l-11.285,3.932Zm13.356-4.718,11.285-4-14.784-5.348-11.272,3.853Zm13.369-4.732,11.246-3.932-14.758-5.243L233.4,215.477Zm13.382-4.8,11.232-3.932L258.041,207l-11.219,3.84ZM274.9,211.27l11.206-3.932L271.4,202.41,260.2,206.237Zm2.123.734,14.666,5.072,11.246-4.1-14.745-4.941Zm16.842,5.793,14.758,5.085,11.272-4.247-14.771-4.954Zm16.829,5.793,14.8,5.1,11.311-4.378-14.811-4.967Zm16.855,5.806,14.811,5.1,11.35-4.522-14.837-4.967Zm16.842,5.793,14.85,5.112,11.377-4.653-14.85-4.981Zm-1.992.8-11.39,4.535,14.876,5.243,11.337-4.653Zm-13.369,5.321-11.4,4.548,14.889,5.4,11.416-4.679Zm-13.369,5.334-11.429,4.561,14.915,5.518,11.4-4.705Zm-13.369,5.335-11.442,4.561,14.929,5.662,11.455-4.692ZM288.921,257.3l-11.468,4.574,14.9,5.872,11.481-4.692Zm-13.382,5.334-11.481,4.574,14.968,5.95,11.495-4.705Zm-13.382,5.334-11.508,4.587,14.994,6.082,11.508-4.705ZM248.775,273.3l-11.521,4.587,15.007,6.239,11.521-4.732Zm-13.447,5.334-11.547,4.6,15.033,6.37,11.534-4.732Zm-1.861-.773-14.981-6.186-11.508,4.469,15.007,6.357Zm-16.881-7.012L201.6,264.627l-11.495,4.325,15.073,6.357Zm-16.855-7.038L184.762,257.6l-11.455,4.181,14.968,6.344ZM182.9,256.829l-14.955-6.213-11.429,4.05,14.942,6.344Zm-16.881-7.012-14.929-6.2-11.4,3.932,14.929,6.331ZM136.267,235.95l14.876,6.173,11.35-3.932-14.981-6Zm13.408-4.443,14.8,6.095,11.337-3.932-14.85-5.911Zm13.356-4.391L177.854,233l11.311-3.866-14.824-5.767Zm13.4-4.443,14.8,5.754,11.337-3.932-14.8-5.623Zm13.382-4.443,14.771,5.61,11.272-3.932-14.771-5.479Zm13.4-4.443,14.745,5.465,11.246-3.932-14.758-5.243Zm13.382-4.43,14.719,5.321,11.219-3.84L227.8,205.595Zm13.382-4.522,14.693,5.243,11.193-3.84-14.693-5.059Zm13.382-4.43L258,205.45l11.167-3.827L254.5,196.7Zm24.51-8.126-11.141,3.683,14.64,4.941,11.141-3.827ZM284.7,197.77,273.533,201.6l14.666,4.928,11.18-3.932Zm16.868,5.5-11.206,3.932,14.706,4.928,11.206-4.089Zm16.868,5.492-11.246,4.116,14.732,4.941,11.259-4.233Zm16.868,5.518-11.272,4.233,14.771,4.954,11.285-4.365Zm16.881,5.5-11.311,4.378,14.8,4.967L367,224.626Zm16.829,5.557-11.35,4.522,14.837,4.967,11.35-4.653Zm31.758,10.367-14.863-4.863-11.377,4.666,14.85,4.981Zm-13.343,5.61-14.824-5.033-11.39,4.666,14.876,5.164Zm-13.343,5.61-14.9-5.125-11.429,4.679,14.9,5.243Zm-28.271.341-11.442,4.692,14.981,5.4,11.442-4.823Zm-13.382,5.479-11.455,4.692,14.929,5.544,11.482-4.823Zm-13.369,5.479-11.481,4.705,14.955,5.675,11.547-4.8Zm-13.382,5.479-11.495,4.718,15.033,5.872,11.508-4.849ZM292.3,269.188l-11.508,4.718,14.981,5.964,11.534-4.849ZM278.92,274.68,267.386,279.4l15.125,6.095,11.547-4.849Zm-13.382,5.479-11.547,4.732,15.02,6.239,11.56-4.863Zm-13.382,5.479-11.573,4.745,15.046,6.37,11.573-4.863Zm-9.922,16.75,11.586-4.876-15.06-6.383-11.586,4.745Zm-16.855-7.3,11.56-4.732-15.046-6.383-11.547,4.6Zm-16.855-7.3,11.534-4.587-15.02-6.383L193.5,281.286Zm-16.842-7.3,11.508-4.456-15.02-6.37L176.675,274Zm-16.855-7.3,11.481-4.312L171.38,262.5l-11.468,4.181ZM158,265.9l11.455-4.181-14.968-6.357-11.442,4.05Zm-16.8-7.327,11.416-4.05-14.942-6.344-11.416,3.932Zm-16.855-7.3,11.4-3.932-14.929-6.331-11.39,3.775Z" transform="translate(43.846 55.989)" fill="#e4e4e4" stroke="#000" stroke-width="1.5"/>
    <path id="Path_4085" data-name="Path 4085" d="M239.826,349.275a3.447,3.447,0,0,0,3.421-3.486L240.271,76.131a3.441,3.441,0,1,0-6.881.079l2.975,269.657A3.447,3.447,0,0,0,239.826,349.275Z" transform="translate(27.551 22.589)" fill="#e4e4e4" stroke="#000" stroke-width="1.5"/>
    <g id="Group_1767" data-name="Group 1767" transform="translate(116.789 63.712)">
      <path id="Path_4086" data-name="Path 4086" d="M221.9,336.831a.459.459,0,0,0,.406,0,1.677,1.677,0,0,0,.393-1.311L221.2,74.54a1.376,1.376,0,0,1,1.376-1.389,1.311,1.311,0,0,1,1.376,1.311l1.507,260.994a4.142,4.142,0,0,1-1.638,3.617,2.949,2.949,0,0,1-1.651.5,3.527,3.527,0,0,1-1.311-.3,1.389,1.389,0,0,1,1.1-2.543Z" transform="translate(-54.053 -40.987)" fill="#e4e4e4" stroke="#000" stroke-width="1.5"/>
      <path id="Path_4087" data-name="Path 4087" d="M211.79,331.844a.493.493,0,0,0,.472,0,1.665,1.665,0,0,0,.433-1.311L211.973,72.5a1.311,1.311,0,0,1,1.376-1.311,1.376,1.376,0,0,1,1.389,1.311l.721,258.019a4.247,4.247,0,0,1-1.665,3.657,3.12,3.12,0,0,1-1.7.5,3.565,3.565,0,0,1-1.389-.288,1.389,1.389,0,1,1,1.088-2.543Z" transform="translate(-30.453 -41.595)" fill="#e4e4e4" stroke="#000" stroke-width="1.5"/>
      <path id="Path_4088" data-name="Path 4088" d="M201.336,326.873a.59.59,0,0,0,.564,0,1.73,1.73,0,0,0,.459-1.389V70.427a1.389,1.389,0,0,1,2.766,0l-.066,255.057a4.286,4.286,0,0,1-1.691,3.683,3.106,3.106,0,0,1-1.756.524,3.75,3.75,0,0,1-1.389-.275,1.389,1.389,0,0,1-.747-1.809,1.311,1.311,0,0,1,1.861-.734Z" transform="translate(-6.525 -42.222)" fill="#e4e4e4" stroke="#000" stroke-width="1.5"/>
      <path id="Path_4089" data-name="Path 4089" d="M190.332,321.924a.731.731,0,0,0,.629,0,1.782,1.782,0,0,0,.511-1.442L192.3,68.4a1.389,1.389,0,0,1,1.389-1.311A1.311,1.311,0,0,1,195,68.4L194.264,320.5a4.378,4.378,0,0,1-1.73,3.722,3.289,3.289,0,0,1-1.809.537,3.747,3.747,0,0,1-1.389-.275,1.407,1.407,0,1,1,1.022-2.621Z" transform="translate(17.926 -42.869)" fill="#e4e4e4" stroke="#000" stroke-width="1.5"/>
      <path id="Path_4090" data-name="Path 4090" d="M179.353,316.964a.734.734,0,0,0,.708,0,1.861,1.861,0,0,0,.537-1.494L182.21,66.311A1.311,1.311,0,0,1,183.586,65a1.389,1.389,0,0,1,1.376,1.389L183.35,315.509a4.417,4.417,0,0,1-1.8,3.762,3.29,3.29,0,0,1-1.861.577,3.8,3.8,0,0,1-1.389-.275,1.4,1.4,0,1,1,1-2.621Z" transform="translate(42.431 -43.518)" fill="#e4e4e4" stroke="#000" stroke-width="1.5"/>
      <path id="Path_4091" data-name="Path 4091" d="M168.3,312.028a.721.721,0,0,0,.76,0,1.848,1.848,0,0,0,.577-1.533l2.4-246.183a1.385,1.385,0,0,1,2.766,0l-2.4,246.157a4.522,4.522,0,0,1-1.783,3.788,3.369,3.369,0,0,1-1.914.59,3.932,3.932,0,0,1-1.4-.275,1.366,1.366,0,1,1,1-2.543Z" transform="translate(66.98 -44.139)" fill="#e4e4e4" stroke="#000" stroke-width="1.5"/>
      <path id="Path_4092" data-name="Path 4092" d="M157.435,307.035a.786.786,0,0,0,.839,0,1.94,1.94,0,0,0,.6-1.573l3.172-243.221a1.429,1.429,0,0,1,1.4-1.311,1.376,1.376,0,0,1,1.311,1.4L161.59,305.514a4.548,4.548,0,0,1-1.809,3.814,3.46,3.46,0,0,1-1.966.616,4.143,4.143,0,0,1-1.4-.262,1.4,1.4,0,1,1,.97-2.621Z" transform="translate(91.336 -44.783)" fill="#e4e4e4" stroke="#000" stroke-width="1.5"/>
      <path id="Path_4093" data-name="Path 4093" d="M146.468,302.063a.944.944,0,0,0,.9,0,1.979,1.979,0,0,0,.642-1.625l3.932-240.207a1.311,1.311,0,0,1,1.4-1.311,1.389,1.389,0,0,1,1.311,1.4l-3.932,240.22a4.653,4.653,0,0,1-1.835,3.853,3.539,3.539,0,0,1-2.018.629,4.141,4.141,0,0,1-1.4-.262,1.393,1.393,0,1,1,.944-2.621Z" transform="translate(115.79 -45.408)" fill="#e4e4e4" stroke="#000" stroke-width="1.5"/>
      <path id="Path_4094" data-name="Path 4094" d="M135.376,297.087a1.022,1.022,0,0,0,.983,0,2.045,2.045,0,0,0,.668-1.678l4.745-237.231a1.389,1.389,0,0,1,2.766,0l-4.745,237.231a4.771,4.771,0,0,1-1.861,3.932,3.722,3.722,0,0,1-2.084.642,4.117,4.117,0,0,1-1.4-.249,1.391,1.391,0,1,1,.931-2.621Z" transform="translate(140.368 -46.027)" fill="#e4e4e4" stroke="#000" stroke-width="1.5"/>
      <path id="Path_4095" data-name="Path 4095" d="M124.468,292.159a1.114,1.114,0,0,0,1.049-.079,2.163,2.163,0,0,0,.721-1.73l5.5-234.269a1.416,1.416,0,0,1,1.416-1.311,1.376,1.376,0,0,1,1.311,1.416L128.95,290.455a4.771,4.771,0,0,1-1.9,3.932,3.644,3.644,0,0,1-2.123.668,4.116,4.116,0,0,1-1.4-.249,1.386,1.386,0,1,1,.9-2.621Z" transform="translate(164.763 -46.696)" fill="#e4e4e4" stroke="#000" stroke-width="1.5"/>
      <path id="Path_4096" data-name="Path 4096" d="M113.489,287.2a1.193,1.193,0,0,0,1.127-.1,2.2,2.2,0,0,0,.747-1.769l6.291-231.294a1.416,1.416,0,0,1,1.416-1.311,1.389,1.389,0,0,1,1.311,1.416L118.09,285.443a4.915,4.915,0,0,1-1.94,3.932,3.814,3.814,0,0,1-2.176.682,4.193,4.193,0,0,1-1.416-.249,1.384,1.384,0,1,1,.891-2.621Z" transform="translate(189.229 -47.333)" fill="#e4e4e4" stroke="#000" stroke-width="1.5"/>
      <path id="Path_4097" data-name="Path 4097" d="M102.471,282.22a1.311,1.311,0,0,0,1.206-.118,2.268,2.268,0,0,0,.773-1.822l7.078-228.332a1.389,1.389,0,0,1,2.766.092l-7.051,228.332a4.928,4.928,0,0,1-1.966,4,3.827,3.827,0,0,1-2.241.708,4.429,4.429,0,0,1-1.4-.236,1.389,1.389,0,0,1-.944-1.769,1.311,1.311,0,0,1,1.783-.852Z" transform="translate(213.733 -47.951)" fill="#e4e4e4" stroke="#000" stroke-width="1.5"/>
      <path id="Path_4098" data-name="Path 4098" d="M91.416,277.283a1.311,1.311,0,0,0,1.311-.131,2.32,2.32,0,0,0,.813-1.861L101.4,49.921a1.429,1.429,0,0,1,1.429-1.311,1.376,1.376,0,0,1,1.311,1.429L96.279,275.474a5.046,5.046,0,0,1-1.992,4.037,4,4,0,0,1-2.294.721A4.51,4.51,0,0,1,90.577,280a1.38,1.38,0,1,1,.865-2.621Z" transform="translate(238.289 -48.61)" fill="#e4e4e4" stroke="#000" stroke-width="1.5"/>
      <path id="Path_4099" data-name="Path 4099" d="M338.938,53.822a1.311,1.311,0,0,1,1.442,1.311l10.577,231.989a2.11,2.11,0,0,0,.76,1.678,1.311,1.311,0,0,0,1.311.118,1.389,1.389,0,1,1,.865,2.621,4.508,4.508,0,0,1-1.415.236,3.932,3.932,0,0,1-2.267-.708,4.784,4.784,0,0,1-1.953-3.827L337.68,55.25a1.311,1.311,0,0,1,1.258-1.429Z" transform="translate(-337.675 -46.993)" fill="#e4e4e4" stroke="#000" stroke-width="1.5"/>
      <path id="Path_4100" data-name="Path 4100" d="M326.284,56.59a1.429,1.429,0,0,1,1.442,1.311l9.647,235.921a2.005,2.005,0,0,0,.708,1.625,1.311,1.311,0,0,0,1.18.092,1.383,1.383,0,1,1,.878,2.621,4.194,4.194,0,0,1-1.415.249,3.932,3.932,0,0,1-2.2-.682,4.692,4.692,0,0,1-1.914-3.788L324.961,58.019a1.4,1.4,0,0,1,1.324-1.429Z" transform="translate(-307.104 -46.131)" fill="#e4e4e4" stroke="#000" stroke-width="1.5"/>
      <path id="Path_4101" data-name="Path 4101" d="M313.445,59.371a1.311,1.311,0,0,1,1.429,1.311l8.7,239.853a1.979,1.979,0,0,0,.668,1.573,1.193,1.193,0,0,0,1.088.079,1.386,1.386,0,1,1,.9,2.621,4.193,4.193,0,0,1-1.415.249,3.722,3.722,0,0,1-2.123-.655,4.627,4.627,0,0,1-1.887-3.749L312.108,60.8a1.376,1.376,0,0,1,1.337-1.429Z" transform="translate(-276.334 -45.268)" fill="#e4e4e4" stroke="#000" stroke-width="1.5"/>
      <path id="Path_4102" data-name="Path 4102" d="M300.582,62.141A1.311,1.311,0,0,1,302,63.452l7.772,243.785a1.887,1.887,0,0,0,.629,1.507,1.048,1.048,0,0,0,1,.065,1.391,1.391,0,0,1,.931,2.621,4.207,4.207,0,0,1-1.416.262,3.63,3.63,0,0,1-2.058-.629A4.561,4.561,0,0,1,307,307.354L299.245,63.57a1.376,1.376,0,0,1,1.337-1.429Z" transform="translate(-245.554 -44.408)" fill="#e4e4e4" stroke="#000" stroke-width="1.5"/>
      <path id="Path_4103" data-name="Path 4103" d="M287.85,64.91a1.442,1.442,0,0,1,1.415,1.311l6.763,247.835a1.861,1.861,0,0,0,.59,1.455.983.983,0,0,0,.9,0,1.4,1.4,0,1,1,.957,2.621,4.207,4.207,0,0,1-1.416.262,3.63,3.63,0,0,1-1.992-.6,4.5,4.5,0,0,1-1.809-3.67L286.434,66.4a1.389,1.389,0,0,1,1.416-1.494Z" transform="translate(-214.905 -43.546)" fill="#e4e4e4" stroke="#000" stroke-width="1.5"/>
      <path id="Path_4104" data-name="Path 4104" d="M274.861,67.69A1.389,1.389,0,0,1,276.25,69l5.911,251.767a1.717,1.717,0,0,0,.551,1.389.839.839,0,0,0,.813,0,1.4,1.4,0,1,1,1,2.621,3.931,3.931,0,0,1-1.416.275,3.46,3.46,0,0,1-1.927-.577,4.391,4.391,0,0,1-1.769-3.631l-5.9-251.728a1.376,1.376,0,0,1,1.35-1.429Z" transform="translate(-184 -42.682)" fill="#e4e4e4" stroke="#000" stroke-width="1.5"/>
      <path id="Path_4105" data-name="Path 4105" d="M261.914,70.46a1.389,1.389,0,0,1,1.4,1.311l5.02,255.725a1.625,1.625,0,0,0,.5,1.311.8.8,0,0,0,.734,0,1.4,1.4,0,0,1,1.009,2.621,3.931,3.931,0,0,1-1.415.275,3.342,3.342,0,0,1-1.861-.564,4.273,4.273,0,0,1-1.73-3.578L260.6,71.889a1.389,1.389,0,0,1,1.311-1.429Z" transform="translate(-153.137 -41.822)" fill="#e4e4e4" stroke="#000" stroke-width="1.5"/>
      <path id="Path_4106" data-name="Path 4106" d="M249.212,73.24a1.376,1.376,0,0,1,1.376,1.311l4.024,259.631a1.547,1.547,0,0,0,.459,1.311.682.682,0,0,0,.642,0,1.379,1.379,0,1,1,1.035,2.556,3.643,3.643,0,0,1-1.416.288,3.2,3.2,0,0,1-1.782-.537,4.168,4.168,0,0,1-1.7-3.539L247.823,74.642a1.389,1.389,0,0,1,1.389-1.4Z" transform="translate(-122.517 -40.958)" fill="#e4e4e4" stroke="#000" stroke-width="1.5"/>
    </g>
    <path id="Path_4110" data-name="Path 4110" d="M232.31,104.833l.275-25.112,4.089-.236V76.012a2.746,2.746,0,1,1,5.492-.052L245.128,345.6a2.74,2.74,0,1,1-5.479.066l-2.621-239.709Z" transform="translate(27.085 22.747)" fill="#e4e4e4" stroke="#000" stroke-width="1.5"/>
    <path id="Path_4111" data-name="Path 4111" d="M447.987,73.82c1.822.341,2.215.9.852,1.311L248.136,121.8a16.449,16.449,0,0,1-6.973,0L78.063,81.592c-1.311-.367-.878-.97,1.035-1.311" transform="translate(25.716 22.934)" fill="none" stroke="#000" stroke-linecap="round" stroke-linejoin="round" stroke-width="1.5"/>
    <path id="Path_4112" data-name="Path 4112" d="M243.311,166.684a15.963,15.963,0,0,0,4.771-.655l198.16-56.188c1.809-.577,2.032-1.612,2.005-2.176,0-1.717-2.333-2.267-3.08-2.438s-.17.446-.354,1.18c-.118.537-1.311.891-.852,1.219L247.282,163.381a14.417,14.417,0,0,1-7.72,0L82.1,116.2a1.376,1.376,0,0,0-1-2.543c-.786.184-3.185.76-3.264,2.543,0,.564.184,1.586,1.874,2.176l159,47.669a14.838,14.838,0,0,0,4.6.642Z" transform="translate(26.425 32.682)" fill="#e4e4e4" stroke="#000" stroke-width="1.5"/>
    <path id="Path_4113" data-name="Path 4113" d="M241.656,209.564a16.789,16.789,0,0,0,5.61-.891l195.749-65.73c1.914-.708,2.163-1.835,2.136-2.451,0-1.311-1.206-2.228-3.408-2.831-.734-.21.328.354.131,1.088a1.311,1.311,0,0,0,.957,1.7,7.719,7.719,0,0,1-1.232,0L246.4,205.986a15.033,15.033,0,0,1-9.175,0L82.763,151.226a8.755,8.755,0,0,1,.97-.341A1.376,1.376,0,0,0,83,148.264c-2.91.813-3.578,2.071-3.631,2.975,0,.616.2,1.756,2.018,2.464L236.23,208.751a15.6,15.6,0,0,0,5.426.813Z" transform="translate(27.517 42.753)" fill="#e4e4e4" stroke="#000" stroke-width="1.5"/>
    <path id="Path_4114" data-name="Path 4114" d="M240.155,252.424a17.641,17.641,0,0,0,6.435-1.114l193.219-75.272c2.045-.813,2.254-2.058,2.254-2.726,0-.97-.734-2.32-3.735-3.224-.734-.223-.681.721,0,1s2.883,1.219.668,2.281l-.249.1L245.529,248.741a16.108,16.108,0,0,1-10.616,0L84.185,186.314l-.275-.144a5.728,5.728,0,0,1,1.835-.839,1.389,1.389,0,0,0,.917-1.717,1.311,1.311,0,0,0-1.73-.917c-3.185.97-3.932,2.385-3.932,3.395,0,.668.2,1.927,2.163,2.766L233.89,251.284A16.316,16.316,0,0,0,240.155,252.424Z" transform="translate(28.467 52.831)" fill="#e4e4e4" stroke="#000" stroke-width="1.5"/>
    <path id="Path_4115" data-name="Path 4115" d="M239.282,292.045a18.348,18.348,0,0,0,6.829-1.193l192-80.056c2.1-.878,2.359-2.163,2.333-2.857,0-1.022-.773-2.451-3.932-3.434-.734-.223.118.144-.1.865s1.311.813,1.992,1.035c1.062.328-1.14,1.4-.9,1.6a2.9,2.9,0,0,1-.472.249l-192,80.043a16.711,16.711,0,0,1-11.35,0L85.134,222.213a4.386,4.386,0,0,1-.511-.288,5.491,5.491,0,0,1,2.149-1.088,1.376,1.376,0,0,0-.826-2.621c-3.342,1.049-4.115,2.543-4.168,3.617,0,.695.2,2.005,2.228,2.91l148.565,66.1a17.327,17.327,0,0,0,6.711,1.206Z" transform="translate(29.065 63.514)" fill="#e4e4e4" stroke="#000" stroke-width="1.5"/>
    <path id="Path_4116" data-name="Path 4116" d="M447.987,72.93c1.822.341,2.215.9.852,1.245l-200.7,46.673a16.448,16.448,0,0,1-6.973,0L78.063,80.7c-1.311-.367-.878-.97,1.035-1.311" transform="translate(25.716 22.657)" fill="none" stroke="#000" stroke-linecap="round" stroke-linejoin="round" stroke-width="1.5"/>
    <path id="Path_4126" data-name="Path 4126" d="M453.645,46.79c-31.771,4.64-63.423,9.935-95.024,15.479-15.82,2.7-31.587,5.649-47.368,8.48l-47.3,8.873-11.8,2.307-5.9,1.14a14.287,14.287,0,0,1-4.666,0L218,78.338c-15.728-3.028-31.456-6.186-47.263-9.1C139.2,63.3,107.628,57.6,75.91,52.57c31.142,7.864,62.414,15.02,93.739,21.954C185.3,78.063,201,81.339,216.676,84.747l23.592,4.928a8.675,8.675,0,0,0,.931.17l.944.118c.616,0,1.193.079,1.783.079a20.027,20.027,0,0,0,3.644-.275l5.911-1.114,11.8-2.228,47.184-9.253c15.728-3.2,31.456-6.291,47.184-9.62,31.4-6.54,62.768-13.316,94-20.761Z" transform="translate(23.557 14.536)" fill="#e4e4e4" stroke="#000" stroke-width="1.5"/>
    <path id="Path_4127" data-name="Path 4127" d="M244.675,87.965a18.453,18.453,0,0,0,3.434-.288L454.867,48.055a2.766,2.766,0,1,0-1.035-5.426L247.06,82.25a15.06,15.06,0,0,1-4.666,0L77.145,48.382a2.766,2.766,0,1,0-1.1,5.413L241.293,87.7A18.6,18.6,0,0,0,244.675,87.965Z" transform="translate(22.859 13.219)" fill="#e4e4e4" stroke="#000" stroke-width="1.5"/>
    <path id="Path_4128" data-name="Path 4128" d="M190.224,125.345l26.4-6.291.446-11.94c.21-.118,3.775-.275,4.129-3.709s-3.932-5.387-3.8-5.243l-26.515,5.78c-.118-.079,4.076,1.311,3.932,4.718s-4.024,3.932-4.155,3.932Z" transform="translate(106.158 30.494)" fill="#e4e4e4" stroke="#000" stroke-width="1.5"/>
    <path id="Path_4129" data-name="Path 4129" d="M129.642,106.9l61.182-14.43,4.836,1.651-.616,26.554L134.216,136.43l-4.836-1.651Z" transform="translate(211.46 28.728)" stroke="#000" stroke-width="1.5"/>
    <path id="Path_4130" data-name="Path 4130" d="M194.011,107.1c-.17,3.015-3.526,3.408-3.631,3.473l23.225-4.849c.183-.1,3.316-.249,3.631-3.264Z" transform="translate(109.934 31.831)" fill="#e4e4e4" stroke="#000" stroke-width="1.5"/>
    <path id="Path_4131" data-name="Path 4131" d="M129.642,106.9l61.182-14.43,4.836,1.651-61.182,14.43-.262,27.878-4.836-1.651Z" transform="translate(211.46 28.728)" fill="#e4e4e4" stroke="#000" stroke-width="1.5" opacity="0.14"/>
    <path id="Path_4132" data-name="Path 4132" d="M86.286,98.277l23.186-5.531.38-10.485c.184-.1,3.316-.236,3.631-3.25s-3.513-4.745-3.342-4.587L86.85,79.508c-.092-.079,3.591,1.193,3.408,4.142s-3.539,3.408-3.644,3.473Z" transform="translate(350.102 23.118)" fill="#e4e4e4" stroke="#000" stroke-width="1.5"/>
    <path id="Path_4133" data-name="Path 4133" d="M89.944,82.56c-.17,3-3.539,3.408-3.644,3.473l23.212-4.863c.184-.1,3.316-.236,3.631-3.25Z" transform="translate(350.442 24.207)" fill="#e4e4e4" stroke="#000" stroke-width="1.5"/>
    <path id="Path_4134" data-name="Path 4134" d="M202.11,52.135l4.732,1.18.616-26.554-5.072.262Z" transform="translate(104.338 8.314)" fill="#e4e4e4" stroke="#000" stroke-width="1.5"/>
    <path id="Path_4135" data-name="Path 4135" d="M100.2,154.4l8.664-2.988.328-9.791-8.677,2.91Z" transform="translate(336.175 43.997)" fill="#e4e4e4" stroke="#000" stroke-width="1.5"/>
    <path id="Path_4136" data-name="Path 4136" d="M143.46,170.585l9.266-3.211.223-11.324-9.293,3.106Z" transform="translate(235.717 48.48)" fill="#e4e4e4" stroke="#000" stroke-width="1.5"/>
    <path id="Path_4137" data-name="Path 4137" d="M192.306,188.592l11.757-4.076.013-12.6-11.8,3.932Z" transform="translate(120.603 53.411)" fill="#e4e4e4" stroke="#000" stroke-width="1.5"/>
  </g>
</svg>
