<svg xmlns="http://www.w3.org/2000/svg" xmlns:xlink="http://www.w3.org/1999/xlink" viewBox="0 0 36 36"><defs><style>.cls-1{fill:url(#linear-gradient);}.cls-2{fill:#fff;}</style><linearGradient id="linear-gradient" x1="4.55" y1="31.58" x2="29.88" y2="6" gradientUnits="userSpaceOnUse"><stop offset="0" stop-color="#f96b01"/><stop offset="0.54" stop-color="#dd0048"/><stop offset="1" stop-color="#d0016e"/></linearGradient></defs><title>insta_icon</title><g id="Layer_2" data-name="Layer 2"><g id="Layer_2-2" data-name="Layer 2"><circle class="cls-1" cx="18" cy="18" r="18"/><path class="cls-2" d="M21.92,9.25H14.08a4.84,4.84,0,0,0-4.83,4.83v7.84a4.84,4.84,0,0,0,4.83,4.83h7.84a4.84,4.84,0,0,0,4.83-4.83V14.08A4.84,4.84,0,0,0,21.92,9.25ZM25.2,21.92a3.28,3.28,0,0,1-3.28,3.28H14.08a3.28,3.28,0,0,1-3.28-3.28V14.08a3.28,3.28,0,0,1,3.28-3.28h7.84a3.28,3.28,0,0,1,3.28,3.28v7.84Z"/><path class="cls-2" d="M18,13.49A4.51,4.51,0,1,0,22.51,18,4.51,4.51,0,0,0,18,13.49ZM18,21a3,3,0,1,1,3-3A3,3,0,0,1,18,21Z"/><path class="cls-2" d="M22.7,12.17a1.19,1.19,0,0,0-.81.34,1.14,1.14,0,0,0-.33.8,1.16,1.16,0,0,0,.33.81,1.18,1.18,0,0,0,.81.33,1.14,1.14,0,0,0,1.14-1.14,1.1,1.1,0,0,0-.34-.8A1.15,1.15,0,0,0,22.7,12.17Z"/></g></g></svg>