<svg xmlns="http://www.w3.org/2000/svg" viewBox="0 0 69.99 22.43"><defs><style>.cls-1,.cls-2{fill:#333;}.cls-1{opacity:0.5;isolation:isolate;}</style></defs><title>icon_swipe_fin</title><g id="Layer_2" data-name="Layer 2"><g id="Layer_1-2" data-name="Layer 1"><g id="Group_1641" data-name="Group 1641"><g id="Group_1609" data-name="Group 1609"><rect id="Rectangle_728" data-name="Rectangle 728" class="cls-1" x="52" y="12.33" width="16" height="1"/><path id="Path_54" data-name="Path 54" class="cls-2" d="M67.19,9.33v7L70,12.82Z"/></g><g id="Group_1610" data-name="Group 1610"><rect id="Rectangle_729" data-name="Rectangle 729" class="cls-1" x="1.99" y="12.3" width="16" height="1"/><path id="Path_1993" data-name="Path 1993" class="cls-2" d="M2.8,16.3v-7L0,12.81Z"/></g><g id="Layer_19" data-name="Layer 19"><g id="Line_810" data-name="Line 810"><path class="cls-2" d="M39.59,11.33a.5.5,0,0,1-.5-.5V8.91a.5.5,0,1,1,1,0v1.92A.5.5,0,0,1,39.59,11.33Z"/></g><g id="Line_811" data-name="Line 811"><path class="cls-2" d="M36.53,10.56a.5.5,0,0,1-.5-.5V7.38a.5.5,0,0,1,.5-.5.5.5,0,0,1,.5.5v2.68A.5.5,0,0,1,36.53,10.56Z"/></g><g id="Path_1995" data-name="Path 1995"><path class="cls-2" d="M31.93,22.43a.52.52,0,0,1-.35-.14c-.13-.13-3.16-3.18-3.95-5.56-.21-.63-.36-1.2-.51-1.72a6.59,6.59,0,0,0-1.67-3.45,1.7,1.7,0,0,1,.28-2.33,1.82,1.82,0,0,1,2.72.09A14.63,14.63,0,0,1,29.9,11V2a2,2,0,0,1,2-2h0a2.05,2.05,0,0,1,1.44.59A2.05,2.05,0,0,1,34,2v8.43a.5.5,0,0,1-.5.5.51.51,0,0,1-.5-.5V2a1,1,0,0,0-1-1h0a1,1,0,0,0-1,1V12a.7.7,0,0,1-.36.62.66.66,0,0,1-.53.06.7.7,0,0,1-.42-.33A14.46,14.46,0,0,0,27.75,10c-.58-.58-1-.37-1.31-.1s-.41.8-.29.92a7.59,7.59,0,0,1,1.94,3.9c.14.51.28,1.06.49,1.66.72,2.16,3.67,5.14,3.7,5.17a.5.5,0,0,1-.35.85ZM29.9,12v0Zm.54-.17v0Z"/></g><g id="Path_1996" data-name="Path 1996"><path class="cls-2" d="M39.59,22.43h-.05a.5.5,0,0,1-.45-.54A12.89,12.89,0,0,1,40.3,17.7a11.87,11.87,0,0,0,1.09-7.19c0-.38-.3-1.24-.71-1.42-.2-.08-.47,0-.8.23l-.79.56v-1a1.51,1.51,0,0,0-.72-1.5,1.44,1.44,0,0,0-1.5.34l-.62.57L36,7.5a1.16,1.16,0,0,0-1.31-.85c-.12,0-.77.13-.77.73a.5.5,0,0,1-.5.5.5.5,0,0,1-.5-.5,1.75,1.75,0,0,1,1.65-1.72,2.18,2.18,0,0,1,2.13,1,2.38,2.38,0,0,1,2-.13A2.2,2.2,0,0,1,40,8.14a1.55,1.55,0,0,1,1.06,0c1,.45,1.29,2,1.32,2.2a12.92,12.92,0,0,1-1.17,7.73A11.71,11.71,0,0,0,40.09,22,.49.49,0,0,1,39.59,22.43Z"/></g></g></g></g></g></svg>