<svg xmlns="http://www.w3.org/2000/svg" viewBox="0 0 592.75 546.01"><defs><style>.bdce162a-69b9-4cad-885a-fec395a5c29b{fill:#f4f4f4;}.a079f5b9-4f2c-40f0-ae62-e6ac4fee1400{fill:#333;}</style></defs><title>Asset 77</title><g id="b6439c93-6513-424b-8a81-04f30707c57f" data-name="Layer 2"><g id="bbb5cdff-5b47-47c3-b9a7-609ddaf37442" data-name="grid"><path class="bdce162a-69b9-4cad-885a-fec395a5c29b" d="M581,104.76c-5-6-9-11-9-11l-16.23-12.2L528,68.76l-30-13S458,1.76,302.21.3c0,0-88.2-.54-146.2,20.46-42.88,15.52-63,34-67,40-13.81,5.18-28,10-42,17a68.19,68.19,0,0,0-36,24c-11.62,14.53-11,45-11,45v399H592v-407C591,123.76,586,110.76,581,104.76Z"/><path d="M592.26,546H592L.66,545.61v.15H.16v-.15H0v-.5H.16c0-17.82.09-378.49,0-398.59,0-11,.61-23.79,5.87-35.79C12.29,96.47,24.1,86.07,41.12,79.82A691.83,691.83,0,0,1,147.69,42.11C198.81,28.66,249.39,21.84,298,21.84c57.35,0,111.32,7,160.44,20.87C497.83,53.8,526.13,66.79,548.62,78c22.92,11.46,44.13,27.78,44.13,69.22Zm-591.6-.9,591.1.4.49-398.25c0-41.17-21.08-57.39-43.86-68.78C517.68,63.13,436.11,22.34,298,22.34c-48.59,0-99.13,6.82-150.21,20.26A692.35,692.35,0,0,0,41.31,80.28C5.28,93.51.54,121.18.66,146.51.75,166.62.66,527.29.66,545.11Z"/><path d="M89.46,60.65l-.4-.3c0-.06,4.56-6,15.55-14,10.13-7.39,28-18.12,55.61-27.25C197.71,6.69,243.26.27,295.6,0,341.74-.23,407.35,4.4,457.82,27.73,482,38.91,495.14,51.18,498.71,56.11l-.41.3c-3.55-4.91-16.64-17.12-40.75-28.25C408.34,5.43,344.69.5,298.82.5H295.6c-52.29.26-97.79,6.67-135.23,19-27.53,9.1-45.34,19.79-55.44,27.15C94,54.69,89.5,60.59,89.46,60.65Z"/><path d="M475.7,545.37c-.05-1-5.74-100.49-30.51-198.71C430.65,289,412.47,243,391.16,210.1c-26.6-41.14-58.18-62-93.86-62s-67.21,20.85-93.73,62C182.34,243,164.26,289,149.84,346.62c-24.56,98.19-30,197.66-30.09,198.65l-.5,0c.06-1,5.54-100.51,30.1-198.75,14.44-57.71,32.54-103.7,53.8-136.69,26.62-41.27,58.29-62.2,94.15-62.2s67.58,20.93,94.28,62.22c21.34,33,39.54,79,54.1,136.71,24.78,98.27,30.47,197.81,30.52,198.8Z"/><path class="a079f5b9-4f2c-40f0-ae62-e6ac4fee1400" d="M489.86,545.77c-.06-1.08-6.22-109-33-215.63-15.73-62.58-35.4-112.45-58.45-148.21-13.68-21.22-28.72-37.65-44.7-48.82-17.57-12.28-36.72-18.5-56.91-18.5s-39.32,6.2-56.87,18.44c-16,11.13-31,27.5-44.6,48.65-23,35.63-42.53,85.32-58.13,147.69-26.56,106.21-32.48,213.8-32.54,214.87h-.29c0-1.08,6-108.7,32.54-214.93,15.61-62.4,35.18-112.12,58.17-147.79,13.66-21.18,28.69-37.58,44.68-48.73,17.6-12.27,36.79-18.49,57-18.49s39.46,6.24,57.08,18.56c16,11.19,31.08,27.64,44.79,48.9,23.06,35.79,42.74,85.68,58.48,148.3,26.8,106.61,33,214.6,33,215.68Z"/><path d="M.55,137.15l-.28-.42c.29-.19,29.12-18.83,79.82-37.23,46.78-17,122.29-37.22,216.32-37.22A652,652,0,0,1,419.35,73.91a609.81,609.81,0,0,1,93,25.59c50.5,18.4,79.13,37,79.41,37.23l-.27.42c-.28-.19-28.88-18.81-79.33-37.19C465.59,83,390.37,62.78,296.41,62.78S127,83,80.27,100C29.63,118.34.83,137,.55,137.15Z"/><path d="M.49,158.06l-.16-.25c.28-.18,29.11-18.82,79.79-37.22A613.93,613.93,0,0,1,173.37,95a656,656,0,0,1,246,0,608.83,608.83,0,0,1,93,25.58c50.48,18.4,79.1,37,79.39,37.22l-.17.25c-.28-.18-28.88-18.81-79.33-37.19A609.65,609.65,0,0,0,419.27,95.3a656,656,0,0,0-245.84,0,614.44,614.44,0,0,0-93.2,25.57C29.58,139.25.78,157.88.49,158.06Z"/><path d="M297.5,254.51c-28.69,0-59.74-6.94-60.05-7-4.31-1.23-7.5-3.6-8.75-6.51a7.91,7.91,0,0,1,.44-6.94c9.67-18.69,31.28-50,67.36-50S354.64,215.3,364.6,234a8,8,0,0,1,.54,7.08c-1.23,2.91-4.37,5.27-8.61,6.47C356.22,247.57,326.2,254.51,297.5,254.51Zm-1-70c-35.81,0-57.29,31.18-66.91,49.77a7.39,7.39,0,0,0-.43,6.51c1.19,2.77,4.26,5,8.41,6.23.3.07,31.3,7,59.93,7s58.61-6.92,58.91-7c4.08-1.16,7.1-3.42,8.27-6.18a7.52,7.52,0,0,0-.52-6.65C354.25,215.63,332.28,184.51,296.5,184.51Z"/><path d="M269.25,374.86h-.5v-76a6.86,6.86,0,0,0-6.86-6.86H205.4a6.87,6.87,0,0,0-6.87,6.86l.22,75.89h-.5L198,298.87a7.37,7.37,0,0,1,7.37-7.36h56.49a7.37,7.37,0,0,1,7.36,7.36Z"/><path d="M326.25,374.76,326,300.87a7.37,7.37,0,0,1,7.37-7.36h56.49a7.37,7.37,0,0,1,7.36,7.36v73.89h-.5V300.87a6.86,6.86,0,0,0-6.86-6.86H333.4a6.87,6.87,0,0,0-6.87,6.86l.22,73.89Z"/><path d="M264,345H203.5a5.26,5.26,0,0,1-5.25-5.25v-6.5A5.26,5.26,0,0,1,203.5,328H264a5.26,5.26,0,0,1,5.25,5.25v6.5A5.25,5.25,0,0,1,264,345Zm-60.5-16.5a4.76,4.76,0,0,0-4.75,4.75v6.5a4.76,4.76,0,0,0,4.75,4.75H264a4.75,4.75,0,0,0,4.75-4.75v-6.5a4.75,4.75,0,0,0-4.75-4.75Z"/><path d="M440.25,545.27c-.83-40.15-13.4-130.6-17.74-159.12a13,13,0,0,0-13-11.14H183.31a13.06,13.06,0,0,0-12.94,11c-4.7,28.86-15.62,102.05-15.62,158.24h-.5c0-56.23,10.93-129.45,15.62-158.32a13.57,13.57,0,0,1,13.44-11.43H409.54A13.53,13.53,0,0,1,423,386.07c4.34,28.53,16.92,119,17.75,159.19Z"/><path d="M282.32,229.1a4.57,4.57,0,1,1,4.56-4.56A4.57,4.57,0,0,1,282.32,229.1Zm0-8.63a4.07,4.07,0,1,0,4.06,4.07A4.07,4.07,0,0,0,282.32,220.47Z"/><path d="M298,229.1a4.57,4.57,0,1,1,4.57-4.56A4.57,4.57,0,0,1,298,229.1Zm0-8.63a4.07,4.07,0,1,0,4.07,4.07A4.07,4.07,0,0,0,298,220.47Z"/><path d="M313.69,229.1a4.57,4.57,0,1,1,4.56-4.56A4.57,4.57,0,0,1,313.69,229.1Zm0-8.63a4.07,4.07,0,1,0,4.06,4.07A4.07,4.07,0,0,0,313.69,220.47Z"/><rect class="a079f5b9-4f2c-40f0-ae62-e6ac4fee1400" x="198.5" y="333.01" width="71" height="0.5"/><path d="M392,345H331.5a5.26,5.26,0,0,1-5.25-5.25v-6.5A5.26,5.26,0,0,1,331.5,328H392a5.26,5.26,0,0,1,5.25,5.25v6.5A5.25,5.25,0,0,1,392,345Zm-60.5-16.5a4.76,4.76,0,0,0-4.75,4.75v6.5a4.76,4.76,0,0,0,4.75,4.75H392a4.75,4.75,0,0,0,4.75-4.75v-6.5a4.75,4.75,0,0,0-4.75-4.75Z"/><rect class="a079f5b9-4f2c-40f0-ae62-e6ac4fee1400" x="326.5" y="333.01" width="71" height="0.5"/><path d="M253.05,391.51H211.27c-2.14,0-4.71-2.55-4.71-5.71V374.86h.5V385.8c0,2.89,2.3,5.21,4.21,5.21h41.78c3.65,0,6.2-2.14,6.2-5.21V375.1h.5v10.7C259.75,389.16,257,391.51,253.05,391.51Z"/><path d="M383.05,391.51H341.27c-2.14,0-4.71-2.55-4.71-5.71V374.86h.5V385.8c0,2.89,2.3,5.21,4.21,5.21h41.78c3.65,0,6.2-2.14,6.2-5.21V375.1h.5v10.7C389.75,389.16,387,391.51,383.05,391.51Z"/><path d="M302.88,512.89a30.25,30.25,0,1,1,30.25-30.25A30.28,30.28,0,0,1,302.88,512.89Zm0-60a29.75,29.75,0,1,0,29.75,29.75A29.78,29.78,0,0,0,302.88,452.89Z"/><path d="M302.88,505a22.4,22.4,0,1,1,22.4-22.4A22.43,22.43,0,0,1,302.88,505Zm0-44.5a22.1,22.1,0,1,0,22.1,22.1A22.12,22.12,0,0,0,302.88,460.54Z"/></g></g></svg>