<svg xmlns="http://www.w3.org/2000/svg" viewBox="0 0 594.1 547.01"><defs><style>.b8224478-45a1-4f1f-805b-f78f84a20d87{fill:#f4f4f4;}.f69ce21e-3c57-4901-8481-a6ff44c155c4{fill:#333;}.e7dc9b88-9fce-4c18-ae4c-1da0585a3eb9{fill:none;stroke:#000;stroke-miterlimit:10;}</style></defs><title>Water Coolers 2</title><g id="f06457e8-8f72-4ba2-9112-146e0fc7602e" data-name="Layer 2"><g id="bcf5324c-7c88-4ea3-b2de-aab9d34eea75" data-name="Layer 1"><path class="b8224478-45a1-4f1f-805b-f78f84a20d87" d="M581.6,105c-5-6-9-11-9-11l-16.23-12.2L528.6,69l-30-13S458.6,2,302.8.55c0,0-88.2-.54-146.2,20.46C113.72,36.53,96.53,53.15,90.48,60.76L89.6,61s-70,23-78,41C8.53,108.91.41,125.12.6,147c1,114,0,399,0,399h592V139C591.6,124,586.6,111,581.6,105Z"/><path d="M476.05,545.63c-.06-1-5.75-100.47-30.51-198.66-14.54-57.65-32.71-103.57-54-136.49-26.55-41.06-58.06-61.87-93.65-61.87s-67,20.81-93.51,61.86c-21.22,32.92-39.29,78.83-53.71,136.46-24.55,98.17-30,197.61-30.07,198.61l-1-.06c.05-1,5.53-100.53,30.1-198.79,14.44-57.74,32.56-103.75,53.84-136.76,26.66-41.36,58.4-62.32,94.35-62.32s67.74,21,94.5,62.33c21.35,33,39.56,79,54.12,136.79C471.3,445,477,544.58,477.05,545.58Z"/><path class="f69ce21e-3c57-4901-8481-a6ff44c155c4" d="M490.1,546c-.06-1.08-6.21-109-33-215.57-15.72-62.55-35.37-112.38-58.4-148.1C370,137.8,335.89,115.21,297.38,115.21s-72.54,22.51-101.17,66.92c-23,35.6-42.49,85.26-58.08,147.58-26.55,106.18-32.48,213.75-32.53,214.82l-1,0c.06-1.08,6-108.73,32.56-215,15.61-62.43,35.2-112.19,58.21-147.89,28.83-44.71,63.15-67.38,102-67.38S370.62,137,399.54,181.83c23.09,35.82,42.79,85.75,58.54,148.41,26.8,106.64,33,214.66,33,215.74Z"/><path d="M549.55,77.62a497.88,497.88,0,0,0-51-22.57c-3.19-3.7-14.75-15.61-40-27.3C408,4.4,342.38-.23,296.19,0,243.82.27,198.24,6.69,160.73,19.1,133.09,28.24,115.2,39,105.05,46.38,96,53,91.46,58,90,59.78,70.72,66.71,54.32,73.56,41.46,79.36,4.72,92.85-.12,121,0,146.77.1,167.28,0,542.23,0,546H.6v.6l592,.4h1l.5-399.5C594.1,105.66,572.68,89.19,549.55,77.62ZM105.7,47.15c10.08-7.35,27.86-18,55.34-27.1C198.46,7.67,243.93,1.27,296.2,1c46-.19,111.46,4.37,161.79,27.6,22.57,10.42,34.12,21,38.53,25.68-43.66-16.12-109.13-32.95-197.9-32.95-80.83,0-154.12,19-206.67,37.74A93.25,93.25,0,0,1,105.7,47.15ZM42.21,81.21c47.94-21.61,145-57.87,256.41-57.87,137.91,0,219.37,40.73,250,56.07C569,89.57,588,103.63,591.5,136.15c-5.38-3.37-33.1-20.1-78.49-36.64-46.62-17-121.93-37.23-216-37.23S127.4,82.53,80.59,99.51c-44,16-71.55,32.13-78.25,36.25C3.9,114.05,11.73,92.4,42.21,81.21ZM591.6,545,2,544.61c0-23.25.08-322,0-386.48,4.79-3,32.78-19.94,79-36.69,46.72-17,122.12-37.16,216-37.16s169.09,20.21,215.62,37.16c50.43,18.37,79,37,79.29,37.17l.16-.25Zm.49-387.49c-3.58-2.28-31.73-19.75-79.08-37-46.62-17-121.93-37.23-216-37.23S127.4,103.53,80.59,120.51C35.84,136.76,8.12,153.19,2,157c0-5.17,0-8.67,0-10.2,0-3.23,0-6.5.25-9.77,5.41-3.36,33.24-20.05,78.72-36.55,46.72-17,122.12-37.16,216-37.16S466.1,83.49,512.63,100.44c47.76,17.4,75.91,35,79,37,.3,3.19.47,6.55.47,10.1Z"/><path d="M298.1,255c-28.73,0-59.8-6.94-60.11-7-4.4-1.26-7.64-3.68-8.93-6.67a8.09,8.09,0,0,1,.46-7.14C239.21,215.45,260.88,184,297.1,184s58.33,31.37,68.32,50.07a8.26,8.26,0,0,1,.55,7.3c-1.27,3-4.46,5.39-8.78,6.61C356.87,248.07,326.82,255,298.1,255Zm-1-70c-35.69,0-57.11,31.1-66.7,49.64a7.08,7.08,0,0,0-.42,6.29c1.16,2.7,4.17,4.92,8.25,6.09.29.06,31.26,7,59.87,7s58.54-6.92,58.84-7c4-1.13,7-3.33,8.11-6a7.3,7.3,0,0,0-.52-6.44C354.65,216.05,332.75,185,297.1,185Z"/><path d="M282.91,229.6a4.82,4.82,0,1,1,4.81-4.81A4.82,4.82,0,0,1,282.91,229.6Zm0-8.63a3.82,3.82,0,1,0,3.81,3.82A3.82,3.82,0,0,0,282.91,221Z"/><path d="M298.6,229.6a4.82,4.82,0,1,1,4.81-4.81A4.81,4.81,0,0,1,298.6,229.6Zm0-8.63a3.82,3.82,0,1,0,3.81,3.82A3.82,3.82,0,0,0,298.6,221Z"/><path d="M314.29,229.6a4.82,4.82,0,1,1,4.81-4.81A4.82,4.82,0,0,1,314.29,229.6Zm0-8.63a3.82,3.82,0,1,0,3.81,3.82A3.82,3.82,0,0,0,314.29,221Z"/><path d="M424.34,386.21A14.29,14.29,0,0,0,410.13,374h-12V342.4a6,6,0,0,0,.5-2.39v-6.5a6,6,0,0,0-.5-2.39v-30a7.62,7.62,0,0,0-7.61-7.61H334a7.61,7.61,0,0,0-7.61,7.61l.09,30.34a5.82,5.82,0,0,0-.37,2.05V340a5.82,5.82,0,0,0,.4,2.14l.09,31.86H270.1V342.4a6,6,0,0,0,.5-2.39v-6.5a6,6,0,0,0-.5-2.39v-32a7.62,7.62,0,0,0-7.61-7.61H206a7.61,7.61,0,0,0-7.61,7.61l.09,32.33a5.84,5.84,0,0,0-.37,2.06V340a5.91,5.91,0,0,0,.4,2.15l.09,31.85H183.9a14.29,14.29,0,0,0-14.17,12.06C165,415,154.1,488.22,154.1,544.51h2c0-56.15,10.91-129.28,15.6-158.12A12.31,12.31,0,0,1,183.9,376h23v10c0,3.3,2.71,6,5,6h41.78c4.1,0,7-2.45,7-6V376h76.3v10c0,3.3,2.71,6,5,6h41.78c4.1,0,7-2.45,7-6V376h19.53a12.3,12.3,0,0,1,12.23,10.5c4.34,28.51,16.9,118.92,17.74,159l2,0C441.26,505.28,428.68,414.75,424.34,386.21ZM200.1,334h68.5v6a4,4,0,0,1-4,4H204.1a4,4,0,0,1-4-4Zm.05-1a4,4,0,0,1,3.95-3.5h60.5a4,4,0,0,1,3.95,3.5Zm-.77-33.89a6.62,6.62,0,0,1,6.61-6.61h56.5a6.62,6.62,0,0,1,6.61,6.61v30.44a6,6,0,0,0-4.5-2.05H204.1a6,6,0,0,0-4.63,2.19Zm60.22,86.93c0,2.92-2.45,5-6,5H211.86c-1.78,0-4-2.29-4-5V376h51.7Zm-60-12-.08-30.14A6,6,0,0,0,204.1,346h60.5a6,6,0,0,0,4.5-2v30ZM328.1,334h68.5v6a4,4,0,0,1-4,4H332.1a4,4,0,0,1-4-4Zm0-1a4,4,0,0,1,4-3.5h60.5a4,4,0,0,1,3.95,3.5Zm-.77-31.89a6.62,6.62,0,0,1,6.61-6.61h56.5a6.62,6.62,0,0,1,6.61,6.61v28.44a6,6,0,0,0-4.5-2.05H332.1a6,6,0,0,0-4.64,2.2Zm62.22,84.93c0,2.92-2.45,5-6,5H341.86c-1.78,0-4-2.29-4-5V376h51.7Zm-62-12-.09-30.15a6,6,0,0,0,4.6,2.15h60.5a6,6,0,0,0,4.5-2v30Z"/><circle class="e7dc9b88-9fce-4c18-ae4c-1da0585a3eb9" cx="303.47" cy="482.89" r="30"/><circle class="e7dc9b88-9fce-4c18-ae4c-1da0585a3eb9" cx="303.47" cy="482.89" r="22.25"/></g></g></svg>