<svg xmlns="http://www.w3.org/2000/svg" viewBox="0 0 594.14 546.56"><defs><style>.eca01f7c-7540-45da-9c67-8ced134fcc46{fill:#f4f4f4;}.ac64c3b7-6092-402f-88b9-6dad6f1bb653{fill:#333;}</style></defs><title>water_cooler</title><g id="e9b527fb-688c-4a61-b3b0-7605ec272534" data-name="Layer 2"><g id="a55051c1-7216-4eb4-a435-5e4b6722c595" data-name="Layer 1"><path class="eca01f7c-7540-45da-9c67-8ced134fcc46" d="M0,546.51H592v-407c-1-15-6-28-11-34s-9-11-9-11l-16.22-12.2L528,69.51l-30-13s-40-54-195.79-55.46c0,0-88.21-.54-146.21,20.46C113.13,37,95.94,53.65,89.89,61.26l-.89.25s-70,23-78,41c-3.06,6.9-11.19,23.1-11,45,1,114,0,399,0,399"/><path d="M472.09,546.13c0-1-5.74-100.47-30.51-198.67C427,289.82,408.88,243.9,387.58,211,361,169.92,329.52,149.1,293.94,149.1S226.88,169.92,200.42,211c-21.22,32.92-39.29,78.83-53.7,136.46C122.17,445.6,116.69,545,116.64,546l-1-.06c0-1,5.53-100.53,30.11-198.8,14.44-57.73,32.55-103.74,53.83-136.75,26.66-41.36,58.41-62.33,94.36-62.33s67.74,21,94.49,62.34c21.35,33,39.56,79,54.12,136.79,24.79,98.29,30.48,197.85,30.54,198.85Z"/><path class="ac64c3b7-6092-402f-88b9-6dad6f1bb653" d="M485.64,546.56c-.06-1.07-6.21-109-33-215.48-15.71-62.5-35.34-112.27-58.34-147.95-28.63-44.41-62.57-66.92-100.89-66.92s-72.22,22.44-100.76,66.69c-22.92,35.56-42.44,85.17-58,147.45C108.11,436.47,102.19,544,102.14,545.05l-2-.1c.06-1.08,6-108.78,32.57-215.09,15.63-62.49,35.24-112.3,58.28-148,28.93-44.86,63.39-67.61,102.44-67.61S367,137,396,182.06c23.12,35.86,42.84,85.84,58.6,148.55,26.82,106.69,33,214.77,33,215.84Z"/><path d="M549.59,78.11a498.72,498.72,0,0,0-50-22.2c-2.16-2.72-13.26-15.39-40.79-28.11C408.17,4.41,342.42-.21,296.23,0,243.81.27,198.18,6.7,160.61,19.12,108,36.52,90.13,59.28,89.12,60.61c-18.87,6.81-35,13.54-47.62,19.25C4.76,93.35-.07,121.5,0,147.27c.1,20.5,0,395.45,0,399.24H2c0-3.48.08-320.83,0-387.79l.26.38c.28-.18,29.07-18.79,79.69-37.16,46.72-17,122.13-37.16,216-37.16S467.14,105,513.68,121.94c45.64,16.63,73.39,33.45,78.45,36.63l-.49,387.94h2l.5-398.5C594.14,106.16,572.73,89.68,549.59,78.11ZM106.08,48c10-7.31,27.78-17.94,55.16-27C198.61,8.66,244,2.27,296.24,2c45.93-.22,111.24,4.35,161.48,27.51,21.46,9.89,32.94,19.92,37.78,24.88-43.66-16-108.78-32.56-196.84-32.56-80.3,0-153.17,18.77-205.64,37.37A96.45,96.45,0,0,1,106.08,48ZM42.26,81.71c47.94-21.61,145-57.87,256.4-57.87,90.15,0,156.17,17.41,199.66,33.74v0h0A498.52,498.52,0,0,1,548.69,79.9c20.2,10.1,39,24,42.77,56.08-7.39-4.53-34.51-20.34-77.41-36-46.62-17-121.93-37.23-216-37.23S128.44,83,81.64,100s-75.1,34.25-79.3,36.9C3.79,115,11.47,93,42.26,81.71ZM514.05,121c-46.62-17-121.93-37.23-216-37.23S128.44,104,81.64,121c-48.1,17.46-76.52,35.13-79.58,37.07,0-5.51,0-9.23,0-10.82,0-3.06,0-6.14.22-9.24l.06.08c.28-.18,29.07-18.79,79.69-37.16,46.72-17,122.13-37.16,216-37.16S467.14,84,513.68,100.94c44.29,16.13,71.72,32.45,77.93,36.31a104.48,104.48,0,0,1,.53,10.76v9.38C585.84,153.49,558.36,137.16,514.05,121Z"/><path d="M294.14,255.51c-28.72,0-59.8-6.94-60.11-7-4.4-1.26-7.64-3.69-8.93-6.67a8.12,8.12,0,0,1,.46-7.14c9.69-18.74,31.36-50.18,67.58-50.18s58.33,31.37,68.32,50.07a8.26,8.26,0,0,1,.55,7.3c-1.27,3-4.46,5.39-8.78,6.61C352.91,248.57,322.87,255.51,294.14,255.51Zm-1-70c-35.69,0-57.1,31.1-66.7,49.63a7.1,7.1,0,0,0-.42,6.3c1.17,2.7,4.18,4.92,8.26,6.09.28.06,31.25,7,59.86,7s58.54-6.92,58.84-7c4-1.13,7-3.34,8.11-6a7.3,7.3,0,0,0-.51-6.44C350.69,216.55,328.79,185.51,293.14,185.51Z"/><path d="M420.81,387.05c0-6.64-5.92-12-13.19-12H394.14V301.62a7.61,7.61,0,0,0-7.61-7.61H330a7.61,7.61,0,0,0-7.61,7.61l.22,73.39h-56.5V299.62a7.61,7.61,0,0,0-7.61-7.61H202a7.61,7.61,0,0,0-7.61,7.61l.22,75.39H184.56a14.09,14.09,0,0,0-9.95,4,11.69,11.69,0,0,0-3.51,8.29l.33,157.7h1l-.33-157.7a10.69,10.69,0,0,1,3.22-7.58,13.06,13.06,0,0,1,9.24-3.72H407.62c6.72,0,12.19,4.95,12.19,11l.09,159h1Zm-27.67-46.54a4.51,4.51,0,0,1-4.5,4.5h-60.5a4.51,4.51,0,0,1-4.5-4.5V334a4.51,4.51,0,0,1,4.5-4.5h60.5a4.51,4.51,0,0,1,4.5,4.5ZM330,295h56.5a6.62,6.62,0,0,1,6.61,6.61v29.24a5.49,5.49,0,0,0-4.5-2.35h-60.5a5.48,5.48,0,0,0-4.63,2.55l-.09-29.44A6.61,6.61,0,0,1,330,295Zm-6.49,48.51a5.51,5.51,0,0,0,4.6,2.49h60.5a5.49,5.49,0,0,0,4.5-2.35V375h-69.5Zm-58.4-3a4.51,4.51,0,0,1-4.5,4.5h-60.5a4.51,4.51,0,0,1-4.5-4.5V334a4.51,4.51,0,0,1,4.5-4.5h60.5a4.51,4.51,0,0,1,4.5,4.5ZM202,293h56.5a6.62,6.62,0,0,1,6.61,6.61v31.24a5.49,5.49,0,0,0-4.5-2.35h-60.5a5.49,5.49,0,0,0-4.63,2.54l-.09-31.43A6.61,6.61,0,0,1,202,293Zm-6.48,50.52a5.49,5.49,0,0,0,4.59,2.48h60.5a5.49,5.49,0,0,0,4.5-2.35V375h-69.5Z"/></g></g></svg>